# Made in Blockbench 4.12.2
mtllib apple_leaves_3.mtl

o diagonal_1
v 1.185172223593667 1.6902354192644031 0.248649046807788
v 0.25356789876030494 0.2854372629094214 -0.8870952132936758
v -0.21300628362416807 -0.7619694007635587 0.7911500952728929
v 0.7185980412091938 0.6428287555914229 1.9268943553743563
v 0.25356789876030494 0.2854372629094214 -0.8870952132936758
v 1.185172223593667 1.6902354192644031 0.248649046807788
v 0.7185980412091938 0.6428287555914229 1.9268943553743563
v -0.21300628362416807 -0.7619694007635587 0.7911500952728929
vt 0.9065103731187246 0.6187499999999999
vt 0.9065103731187245 0.21223962688127496
vt 0.49999999999999956 0.21223962688127496
vt 0.49999999999999967 0.61875
vt 0.5 0.6187499999999997
vt 0.49999999999999983 0.21223962688127462
vt 0.9065103731187248 0.2122396268812745
vt 0.906510373118725 0.6187499999999995
vn 0.8586199970003758 -0.5067146074653087 -0.07753713518278076
vn -0.8586199970003758 0.5067146074653088 0.07753713518278074
usemtl m_b2bff805-3e5a-c860-a1cb-7ffdc3695c42
f 3/1/1 2/2/1 1/3/1 4/4/1
f 7/5/2 6/6/2 5/7/2 8/8/2
o west
v 1.182632553313267 -0.35795905000518446 0.15265923979479648
v 1.4208421693348756 1.1229373128282831 0.16687688311024404
v -0.05396508121260002 1.361457384026565 0.03252008436837664
v -0.2921746972342085 -0.11943897880690246 0.01830244105292908
vt 0.06250000308854582 0.6187490842487929
vt 0.0625000000000007 0.9187499999999994
vt 0.36249966575502285 0.9187499999999994
vt 0.36249966884356793 0.6187490842487929
vn 0.08993763905540099 -0.004905243551499044 -0.9959353190176764
usemtl m_b2bff805-3e5a-c860-a1cb-7ffdc3695c42
f 11/9/3 10/10/3 9/11/3 12/12/3
o east
v -0.1421813295733556 1.3607480336103381 0.8692028575806325
v 1.3458016603994911 1.1719852286785275 0.8526129502347892
v 1.1584216859296583 -0.313320682959249 0.9461816096328952
v -0.32956130404318806 -0.12455787802743834 0.9627715169787383
vt 0.35625126751033936 0.91875
vt 0.3562500184270828 0.6187500294374976
vt 0.05625 0.6187500294374976
vt 0.05625124908325665 0.91875
vn 0.018801497802666434 0.06049775873956596 0.9979912448853776
usemtl m_b2bff805-3e5a-c860-a1cb-7ffdc3695c42
f 15/13/4 14/14/4 13/15/4 16/16/4
o top
v 1.290830248480939 0.9950743264273448 1.1121383643513494
v -0.20399347278563384 0.9598107808852542 1.2315474288923487
v -0.32097404338878366 0.8649967277282882 -0.2608753803092899
v 1.1738496778777894 0.9002602732703788 -0.38028444485028956
vt 0.3500000204635413 0.9187499999999996
vt 0.350000020463541 0.6187499795364587
vt 0.05 0.618749979536459
vt 0.050000000000000336 0.91875
vn -0.028422123152511462 0.9977233590484887 -0.061157842706426005
usemtl m_b2bff805-3e5a-c860-a1cb-7ffdc3695c42
f 19/17/5 18/18/5 17/19/5 20/20/5
o north
v 0.8749356303053604 0.8633838290606204 1.5058347321958276
v 0.7873934533274441 1.4523183078317656 0.12906585291197104
v 0.9857216627088232 0.08990824800681307 -0.46633716207144793
v 1.0732638396867393 -0.49902623076433217 0.9104317172124088
vt 0.36249949051228575 0.6249989082621006
vt 0.06250000000000008 0.6249993343496968
vt 0.0625 0.925
vt 0.3624994905122856 0.9249995739124038
vn 0.9895009491014579 0.14452221452055053 -0.0010960097582453088
usemtl m_b2bff805-3e5a-c860-a1cb-7ffdc3695c42
f 23/21/6 22/22/6 21/23/6 24/24/6
o bottom
v 1.3323677025306404 0.13044239435646093 -0.22685361971588314
v -0.16538012411312297 0.07444533133902087 -0.28698494863268986
v -0.2251798569012372 0.06447384800880113 1.211789404456748
v 1.2725679697425263 0.12047091102624147 1.271920733373555
vt 0.05625 0.9125
vt 0.3562495837954754 0.9124991835795684
vt 0.35624958379547544 0.6124986532336829
vt 0.05625000000000004 0.6124994696541146
vn 0.037567360196795685 -0.9992808299424623 -0.005149403591506278
usemtl m_b2bff805-3e5a-c860-a1cb-7ffdc3695c42
f 27/25/7 26/26/7 25/27/7 28/28/7
o diagonal_2
v 0.7267329995974269 1.7233416952506169 1.3682390730174063
v -0.8513208671669148 1.0559786736859644 0.16049876420172093
v 0.09930488855739272 -0.7997198500559457 -0.056198545508584274
v 1.6773587553217346 -0.13235682849129327 1.1515417633071008
v -0.8513208671669148 1.0559786736859644 0.16049876420172093
v 0.7267329995974269 1.7233416952506169 1.3682390730174063
v 1.6773587553217346 -0.13235682849129327 1.1515417633071008
v 0.09930488855739272 -0.7997198500559457 -0.056198545508584274
vt 0.9192501385099654 0.6187499999999999
vt 0.9192501385099652 0.19949986149003462
vt 0.5 0.19949986149003496
vt 0.5000000000000002 0.61875
vt 0.5000000000000002 0.61875
vt 0.5 0.19949986149003485
vt 0.9192501385099654 0.19949986149003462
vt 0.9192501385099654 0.6187499999999998
vn 0.47711883194540394 0.33909411225611724 -0.8107853003331335
vn -0.47711883194540394 -0.3390941122561174 0.8107853003331333
usemtl m_b2bff805-3e5a-c860-a1cb-7ffdc3695c42
f 31/29/8 30/30/8 29/31/8 32/32/8
f 35/33/9 34/34/9 33/35/9 36/36/9
o diagonal_3
v 1.4993647556193241 -0.18634316899677938 -0.4098229539592665
v -0.19381997561687636 1.0286914104784173 -0.635832907474875
v -0.4124032079325455 1.111583120195097 1.4473412085103152
v 1.2807815233036548 -0.10345145928010013 1.6733511620259238
v -0.19381997561687636 1.0286914104784173 -0.635832907474875
v 1.4993647556193241 -0.18634316899677938 -0.4098229539592665
v 1.2807815233036548 -0.10345145928010013 1.6733511620259238
v -0.4124032079325455 1.111583120195097 1.4473412085103152
vt 0.9192501385099654 0.6187499999999999
vt 0.9192501385099652 0.19949986149003462
vt 0.5 0.19949986149003496
vt 0.5000000000000002 0.61875
vt 0.5000000000000002 0.61875
vt 0.5 0.19949986149003485
vt 0.9192501385099654 0.19949986149003462
vt 0.9192501385099654 0.6187499999999998
vn -0.5802707577839324 -0.8139248213118851 -0.028499700231351885
vn 0.5802707577839323 0.813924821311885 0.0284997002313521
usemtl m_b2bff805-3e5a-c860-a1cb-7ffdc3695c42
f 39/37/10 38/38/10 37/39/10 40/40/10
f 43/41/11 42/42/11 41/43/11 44/44/11
o south
v 0.07711842873178106 1.254823897560605 -0.07185521385575
v -0.017664666558717623 0.9465510435405059 1.3930625354808654
v 0.3247869030025778 -0.4868424506665273 1.11358084865692
v 0.41956999829307645 -0.17856959664642824 -0.3513369006796956
vt 0.3749998797578806 0.6124991274753194
vt 0.07500000000000022 0.6125003551955228
vt 0.075 0.9125
vt 0.375001107478084 0.9124990072331998
vn -0.9715378616404813 -0.2111881080819292 -0.10730221993890174
usemtl m_b2bff805-3e5a-c860-a1cb-7ffdc3695c42
f 47/45/12 46/46/12 45/47/12 48/48/12
o top
v 1.290830248480939 0.9950743264273448 1.1121383643513494
v -0.20399347278563384 0.9598107808852542 1.2315474288923487
v -0.32097404338878366 0.8649967277282882 -0.2608753803092899
v 1.1738496778777894 0.9002602732703788 -0.38028444485028956
vt 0.05 0.618749979536459
vt 0.350000020463541 0.6187499795364587
vt 0.3500000204635413 0.9187499999999996
vt 0.050000000000000336 0.91875
vn 0.02842212315251145 -0.9977233590484887 0.06115784270642598
usemtl m_b2bff805-3e5a-c860-a1cb-7ffdc3695c42
f 49/49/13 50/50/13 51/51/13 52/52/13
o cube
v 0.7484298829695493 0.22338644236317107 0.7465764690313876
v 0.878977120541808 0.12253979504374968 0.6817710500437173
v 0.9926635387731507 0.23256911905331812 0.7395649733745974
v 0.8621163012008921 0.3334157663727394 0.8043703923622677
v 0.7410827424102006 0.3075250347745181 0.6008441520976053
v 0.8547691606415433 0.4175543587840864 0.6586380754284853
v 0.8716299799824592 0.2066783874550968 0.5360387331099349
v 0.9853163982138019 0.31670771146466514 0.593832656440815
vt 0.9645518742561645 0.9562499999999999
vt 0.9645518742561645 0.9208019012322239
vt 0.9982395269691657 0.9208018742561651
vt 0.9982403479758208 0.9562490304487068
vt 0.9645518742561648 0.9437490070566578
vt 0.9645518742561648 0.9100612843069303
vt 0.9982388376880931 0.910062277250272
vt 0.9982388376880931 0.9437499999999993
vt 0.9645519012322239 0.9100615262803441
vt 1 0.9100615262803441
vt 0.9999990304487067 0.9437500000000003
vt 0.9645518742561652 0.9437491789933452
vt 0.9645518742561652 0.9100630365680714
vt 0.9982395970058928 0.9100630365680714
vt 0.9982405899492341 0.9437499999999995
vt 0.964552867199507 0.9437499999999995
vt 0.9982396040481276 0.9083031210603454
vt 0.9982396040481276 0.9437499999999995
vt 0.9645518742561645 0.9437492746187878
vt 0.9645518742561645 0.9083023956791336
vt 0.9645518742561648 0.9100622702080369
vt 0.999998753195819 0.9100622702080369
vt 0.9999994785770309 0.9437500000000001
vt 0.9645525996373767 0.9437500000000001
vn 0.04361938736533569 -0.49952411079092834 0.8652011394955541
vn -0.7365756121527627 0.5689984894681633 0.3656461220425174
vn -0.04361938736533648 0.49952411079092873 -0.8652011394955538
vn 0.7365756121527629 -0.5689984894681626 -0.3656461220425177
vn 0.6749471954365431 0.6532353187952114 0.34311791216848975
vn -0.6749471954365432 -0.6532353187952111 -0.34311791216849036
usemtl m_b2bff805-3e5a-c860-a1cb-7ffdc3695c42
f 53/53/14 54/54/14 55/55/14 56/56/14
f 57/57/15 53/58/15 56/59/15 58/60/15
f 59/61/16 57/62/16 58/63/16 60/64/16
f 54/65/17 59/66/17 60/67/17 55/68/17
f 60/69/18 58/70/18 56/71/18 55/72/18
f 54/73/19 53/74/19 57/75/19 59/76/19
o cube
v 0.4450179338800333 0.23111270183132548 0.5054205600393326
v 0.47165922644330927 0.25158394162225783 0.7441075708599598
v 0.2979673562138956 0.10567699173958756 0.7760082262943614
v 0.2713260636506194 0.0852057519486552 0.537321215473734
v 0.2978260645099271 0.40663483214423946 0.506795691578519
v 0.1241341942805132 0.2607278822615693 0.5386963470129205
v 0.3244673570732033 0.4271060719351718 0.7454827023991464
v 0.15077548684378939 0.2811991220525015 0.7773833578335478
vt 0.9770657926170042 0.9267919614457304
vt 0.9770657926170042 0.9750000000000006
vt 0.93125 0.9749999747837704
vt 0.9312514042652846 0.9267908624329602
vt 0.9770657910823332 0.9875000000000004
vt 0.93125 0.9875000000000004
vt 0.93125 0.9416842089176671
vt 0.9770649920265025 0.9416851701719413
vt 0.9794591375670401 0.9874999999999998
vt 0.9312510990127698 0.9874999999999998
vt 0.9312499999999997 0.9416856116482804
vt 0.9794591123508098 0.9416842073829953
vt 0.9770657910823335 0.9291842089176667
vt 0.9770657910823335 0.975
vt 0.9312509612542744 0.9749992009441694
vt 0.9312500000000004 0.9291842089176667
vt 0.9794585416932791 0.9749999999999998
vt 0.9312500714669536 0.9749999999999998
vt 0.93125 0.9291848570851577
vt 0.9794572278357307 0.9291849948008428
vt 0.9312499999999997 0.9749985552607325
vt 0.9312499999999997 0.9267913274248053
vt 0.9770651429144503 0.9267915297738707
vt 0.9770650051952163 0.9749999999999994
vn 0.6425488131402649 -0.7662212389519326 -0.006002975179248535
vn -0.11052640195984445 -0.0849287801023538 -0.9902378586885764
vn -0.642548813140264 0.7662212389519332 0.0060029751792489835
vn 0.11052640195984481 0.08492878010235334 0.9902378586885764
vn -0.7582314535825114 -0.6369396480745184 0.13925856350278937
vn 0.7582314535825113 0.6369396480745187 -0.13925856350278903
usemtl m_b2bff805-3e5a-c860-a1cb-7ffdc3695c42
f 61/77/20 62/78/20 63/79/20 64/80/20
f 65/81/21 61/82/21 64/83/21 66/84/21
f 67/85/22 65/86/22 66/87/22 68/88/22
f 62/89/23 67/90/23 68/91/23 63/92/23
f 68/93/24 66/94/24 64/95/24 63/96/24
f 62/97/25 61/98/25 65/99/25 67/100/25
o cube
v 0.8619242597156064 0.7175348444684366 0.36058391871513207
v 0.7906611819652745 0.6042711913945542 0.34519874846891474
v 0.8219680578765646 0.5684311524728685 0.46403717359739405
v 0.8932311356268964 0.6816948055467511 0.4794223438436114
v 0.9659450250612862 0.658238649328448 0.31529769812796626
v 0.9972519009725762 0.6223986104067625 0.43413612325644557
v 0.8946819473109544 0.5449749962545654 0.29991252788174916
v 0.9259888232222444 0.5091349573328798 0.41875095301022847
vt 1.0019394450573877 0.9374999999999993
vt 0.9750000000000002 0.9374999999999993
vt 0.9750000756325902 0.9118978031644389
vt 1.0019395206899777 0.9118978031644389
vt 1.0006027301400653 0.8993972698599351
vt 1.0006027301400653 0.9250000000000002
vt 0.9750010697711671 0.9249993534014769
vt 0.975 0.8993972698599351
vt 1.0006021968355605 0.910560479310023
vt 1.0006021968355605 0.9374999243674106
vt 0.975 0.9375000000000004
vt 0.975 0.9105605549426129
vt 0.9881027301400651 0.9375000000000002
vt 0.9625 0.9375000000000002
vt 0.9625 0.9118972698599351
vt 0.9881020835415419 0.9118983396311021
vt 0.975000464240636 0.8993968567340455
vt 1.0019396182791818 0.8993968567340455
vt 1.0019408520201318 0.9249995082088515
vt 0.975 0.9249999999999998
vt 0.9881031432532138 0.8980591479753799
vt 0.9881031432532137 0.9250000000000004
vt 0.9625004917601523 0.9249992336220484
vt 0.9624999999999997 0.898060079587991
vn -0.8125828754666903 0.46320628954194837 0.35376405106661996
vn 0.5290547666680381 0.8408656690202175 0.1142190024864955
vn 0.8125828754666913 -0.46320628954194804 -0.35376405106661846
vn -0.5290547666680386 -0.8408656690202171 -0.11421900248649525
vn 0.24456108513848454 -0.27997296296600377 0.9283345386464537
vn -0.2445610851384834 0.2799729629660056 -0.9283345386464534
usemtl m_b2bff805-3e5a-c860-a1cb-7ffdc3695c42
f 69/101/26 70/102/26 71/103/26 72/104/26
f 73/105/27 69/106/27 72/107/27 74/108/27
f 75/109/28 73/110/28 74/111/28 76/112/28
f 70/113/29 75/114/29 76/115/29 71/116/29
f 76/117/30 74/118/30 72/119/30 71/120/30
f 70/121/31 69/122/31 73/123/31 75/124/31
o cube
v 0.4604587739169861 0.7330539199403225 0.014522576486581062
v 0.3342689213286292 0.8249388029074018 0.08221991346233537
v 0.31805025692891986 0.7156664392465566 0.20030206903658665
v 0.444240109517277 0.6237815562794775 0.13260473206083234
v 0.3532131156400973 0.6519305641971598 -0.07527864808037621
v 0.3369944512403882 0.542658200536315 0.04280350749387529
v 0.22702326305174036 0.7438154471642391 -0.007581311104621902
v 0.21080459865203105 0.6345430835033941 0.11050084446962938
vt 0.9823402715518814 0.9159715708237877
vt 0.9823402715518814 0.9499998858028239
vt 0.9499999999999996 0.9500000000000006
vt 0.9500007803703326 0.9159707085363804
vt 0.9823398847448864 0.9176601152551137
vt 0.9823398847448864 0.9499999999999995
vt 0.9500000000000004 0.9499999999999995
vt 0.9500000000000004 0.9176601152551137
vt 0.9840291772664432 0.9500000000000004
vt 0.950000862287407 0.9500000000000004
vt 0.9499999999999996 0.9176605088184518
vt 0.9840292914636202 0.9176597284481186
vt 0.9823398847448864 0.9625000000000005
vt 0.9500000000000007 0.9625000000000005
vt 0.9500000000000007 0.9301601152551146
vt 0.9823398847448864 0.9301601152551147
vt 0.9499999999999996 0.9375000000000004
vt 0.9499999999999996 0.903471359099099
vt 0.9823402058509287 0.9034702892741946
vt 0.9823402058509287 0.937498930175096
vt 0.9715286409009012 0.9875
vt 0.9374999999999998 0.9875
vt 0.9375010698249042 0.9551597941490708
vt 0.9715297107258056 0.9551597941490708
vn 0.6632384556393872 0.5016905117078688 0.5553569855717829
vn 0.7416565710736234 -0.5400357147350582 -0.3978780685007786
vn -0.6632384556393875 -0.5016905117078708 -0.5553569855717807
vn -0.7416565710736233 0.5400357147350588 0.39787806850077795
vn -0.10030095485287041 -0.6757721933261898 0.7302545180844233
vn 0.1003009548528705 0.6757721933261898 -0.7302545180844234
usemtl m_b2bff805-3e5a-c860-a1cb-7ffdc3695c42
f 77/125/32 78/126/32 79/127/32 80/128/32
f 81/129/33 77/130/33 80/131/33 82/132/33
f 83/133/34 81/134/34 82/135/34 84/136/34
f 78/137/35 83/138/35 84/139/35 79/140/35
f 84/141/36 82/142/36 80/143/36 79/144/36
f 78/145/37 77/146/37 81/147/37 83/148/37