# Made in Blockbench 4.8.1 
# Testing Automated Gereration of Vanilla Files ad
mtllib apple_leaves.mtl

o cube
v 0.1452308393584567 0.4175543587840864 0.3413619245715147
v 0.1378836987991079 0.3334157663727394 0.1956296076377323
v 0.25891725758979944 0.3075250347745181 0.39915584790239467
v 0.25157011703045074 0.22338644236317107 0.25342353096861236
v 0.007336461226849278 0.23256911905331812 0.26043502662540263
v 0.014683601786198097 0.31670771146466514 0.40616734355918505
v 0.12102287945819201 0.12253979504374968 0.3182289499562827
v 0.12837002001754083 0.2066783874550968 0.4639612668900651
vt 0.85546875 0.96875
vt 0.8776231689453124 0.96875
vt 0.8776231689453124 0.9444707207207207
vt 0.85546875 0.9444707207207207
vt 0.85546875 0.96875
vt 0.8765234375 0.96875
vt 0.8765234375 0.9444707207207207
vt 0.85546875 0.9444707207207207
vt 0.9296875 0.9822635135135135
vt 0.9518419189453124 0.9822635135135135
vt 0.9518419189453124 0.9579842342342343
vt 0.9296875 0.9579842342342343
vt 0.91015625 0.9552364864864865
vt 0.9312109375 0.9552364864864865
vt 0.9312109375 0.9309572072072072
vt 0.91015625 0.9309572072072072
vt 0.83984375 0.9462274774774775
vt 0.8619981689453124 0.9462274774774775
vt 0.8619981689453124 0.9219481981981982
vt 0.83984375 0.9219481981981982
vt 0.87890625 0.9462274774774775
vt 0.9010606689453124 0.9462274774774775
vt 0.9010606689453124 0.9219481981981982
vt 0.87890625 0.9219481981981982
vn -0.043619387365335924 -0.4995241107909287 -0.865201139495554
vn 0.7365756121527628 0.5689984894681628 -0.3656461220425175
vn 0.043619387365335924 0.4995241107909287 0.865201139495554
vn -0.7365756121527628 -0.5689984894681628 0.3656461220425175
vn -0.6749471954365434 0.6532353187952109 -0.3431179121684899
vn 0.6749471954365434 -0.6532353187952109 0.3431179121684899
usemtl m_ac3d92fe-f5b1-a3a3-7d87-db428bb26680
f 4/4/1 7/3/1 5/2/1 2/1/1
f 3/8/2 4/7/2 2/6/2 1/5/2
f 8/12/3 3/11/3 1/10/3 6/9/3
f 7/16/4 8/15/4 6/14/4 5/13/4
f 6/20/5 1/19/5 2/18/5 5/17/5
f 7/24/6 4/23/6 3/22/6 8/21/6
o cube
v 0.8758658057194868 0.2607278822615693 0.46130365298707954
v 0.7286739363493806 0.0852057519486552 0.462678784526266
v 0.7021739354900729 0.40663483214423946 0.493204308421481
v 0.5549820661199667 0.23111270183132548 0.49457943996066744
v 0.7020326437861044 0.10567699173958756 0.2239917737056386
v 0.8492245131562106 0.2811991220525015 0.22261664216645216
v 0.5283407735566907 0.25158394162225783 0.2558924291400402
v 0.6755326429267967 0.4271060719351718 0.2545172976008536
vt 0.921875 0.9507319819819819
vt 0.952005009765625 0.9507319819819819
vt 0.952005009765625 0.9177121621621622
vt 0.921875 0.9177121621621622
vt 0.921875 0.9507319819819819
vt 0.950509375 0.9507319819819819
vt 0.950509375 0.9177121621621622
vt 0.921875 0.9177121621621622
vt 0.921875 0.9507319819819819
vt 0.952005009765625 0.9507319819819819
vt 0.952005009765625 0.9177121621621622
vt 0.921875 0.9177121621621622
vt 0.89453125 0.932713963963964
vt 0.923165625 0.932713963963964
vt 0.923165625 0.8996941441441442
vt 0.89453125 0.8996941441441442
vt 0.87890625 0.9732545045045045
vt 0.909036259765625 0.9732545045045045
vt 0.909036259765625 0.9402346846846846
vt 0.87890625 0.9402346846846846
vt 0.859375 0.9507319819819819
vt 0.889505009765625 0.9507319819819819
vt 0.889505009765625 0.9177121621621621
vt 0.859375 0.9177121621621621
vn -0.6425488131402646 -0.7662212389519327 0.006002975179248941
vn 0.11052640195984467 -0.08492878010235384 0.9902378586885765
vn 0.6425488131402646 0.7662212389519327 -0.006002975179248941
vn -0.11052640195984467 0.08492878010235384 -0.9902378586885765
vn 0.7582314535825116 -0.6369396480745183 -0.13925856350278948
vn -0.7582314535825116 0.6369396480745183 0.13925856350278948
usemtl m_ac3d92fe-f5b1-a3a3-7d87-db428bb26680
f 12/28/7 15/27/7 13/26/7 10/25/7
f 11/32/8 12/31/8 10/30/8 9/29/8
f 16/36/9 11/35/9 9/34/9 14/33/9
f 15/40/10 16/39/10 14/38/10 13/37/10
f 14/44/11 9/43/11 10/42/11 13/41/11
f 15/48/12 12/47/12 11/46/12 16/45/12
o cube
v 0.0027480990274237893 0.6223986104067625 0.5658638767435544
v 0.10676886437310362 0.6816948055467511 0.5205776561563886
v 0.03405497493871379 0.658238649328448 0.6847023018720337
v 0.13807574028439362 0.7175348444684366 0.6394160812848679
v 0.17803194212343543 0.5684311524728685 0.535962826402606
v 0.0740111767777556 0.5091349573328798 0.5812490469897715
v 0.20933881803472554 0.6042711913945542 0.6548012515310853
v 0.1053180526890456 0.5449749962545654 0.7000874721182508
vt 0.85546875 0.96875
vt 0.88424072265625 0.96875
vt 0.88424072265625 0.9372184684684685
vt 0.85546875 0.9372184684684685
vt 0.85546875 0.96875
vt 0.8828125 0.96875
vt 0.8828125 0.9372184684684685
vt 0.85546875 0.9372184684684685
vt 0.91015625 0.977759009009009
vt 0.93892822265625 0.977759009009009
vt 0.93892822265625 0.9462274774774775
vt 0.91015625 0.9462274774774775
vt 0.88671875 0.96875
vt 0.9140625 0.96875
vt 0.9140625 0.9372184684684685
vt 0.88671875 0.9372184684684685
vt 0.84765625 0.932713963963964
vt 0.87642822265625 0.932713963963964
vt 0.87642822265625 0.9011824324324325
vt 0.84765625 0.9011824324324325
vt 0.90234375 0.9372184684684685
vt 0.93111572265625 0.9372184684684685
vt 0.93111572265625 0.9056869369369369
vt 0.90234375 0.9056869369369369
vn 0.812582875466691 0.4632062895419479 -0.3537640510666191
vn -0.5290547666680379 0.8408656690202174 -0.11421900248649568
vn -0.812582875466691 -0.4632062895419479 0.3537640510666191
vn 0.5290547666680379 -0.8408656690202174 0.11421900248649568
vn -0.2445610851384829 -0.27997296296600366 -0.928334538646454
vn 0.2445610851384829 0.27997296296600366 0.928334538646454
usemtl m_ac3d92fe-f5b1-a3a3-7d87-db428bb26680
f 20/52/13 23/51/13 21/50/13 18/49/13
f 19/56/14 20/55/14 18/54/14 17/53/14
f 24/60/15 19/59/15 17/58/15 22/57/15
f 23/64/16 24/63/16 22/62/16 21/61/16
f 22/68/17 17/67/17 18/66/17 21/65/17
f 23/72/18 20/71/18 19/70/18 24/69/18
o cube
v 0.6630055487596118 0.542658200536315 0.9571964925061247
v 0.555759890482723 0.6237815562794775 0.8673952679391677
v 0.6467868843599027 0.6519305641971598 1.0752786480803762
v 0.5395412260830139 0.7330539199403225 0.9854774235134189
v 0.6819497430710801 0.7156664392465566 0.7996979309634134
v 0.789195401347969 0.6345430835033941 0.8894991555303706
v 0.6657310786713708 0.8249388029074018 0.9177800865376646
v 0.7729767369482596 0.7438154471642391 1.007581311104622
vt 0.92578125 0.959740990990991
vt 0.9470494921875 0.959740990990991
vt 0.9470494921875 0.9364328828828828
vt 0.92578125 0.9364328828828828
vt 0.92578125 0.959740990990991
vt 0.94599375 0.959740990990991
vt 0.94599375 0.9364328828828828
vt 0.92578125 0.9364328828828828
vt 0.92578125 0.9372184684684685
vt 0.9470494921875 0.9372184684684685
vt 0.9470494921875 0.9139103603603603
vt 0.92578125 0.9139103603603603
vt 0.8671875 0.9732545045045045
vt 0.8874 0.9732545045045045
vt 0.8874 0.9499463963963963
vt 0.8671875 0.9499463963963963
vt 0.87890625 0.932713963963964
vt 0.9001744921875 0.932713963963964
vt 0.9001744921875 0.9094058558558559
vt 0.87890625 0.9094058558558559
vt 0.83203125 0.9507319819819819
vt 0.8532994921875 0.9507319819819819
vt 0.8532994921875 0.9274238738738739
vt 0.83203125 0.9274238738738739
vn -0.6632384556393864 0.5016905117078704 -0.5553569855717824
vn -0.7416565710736229 -0.5400357147350588 0.3978780685007788
vn 0.6632384556393864 -0.5016905117078704 0.5553569855717824
vn 0.7416565710736229 0.5400357147350588 -0.3978780685007788
vn 0.10030095485287044 -0.67577219332619 -0.7302545180844233
vn -0.10030095485287044 0.67577219332619 0.7302545180844233
usemtl m_ac3d92fe-f5b1-a3a3-7d87-db428bb26680
f 28/76/19 31/75/19 29/74/19 26/73/19
f 27/80/20 28/79/20 26/78/20 25/77/20
f 32/84/21 27/83/21 25/82/21 30/81/21
f 31/88/22 32/87/22 30/86/22 29/85/22
f 30/92/23 25/91/23 26/90/23 29/89/23
f 31/96/24 28/95/24 27/94/24 32/93/24
o north
v 1.1830087140617886 1.0599665530661124 -0.12120938535311865
v 1.1830087140617886 1.0599665530661124 -0.12120938535311865
v -0.22862816255292728 0.5527510118251548 -0.12491388330730613
v -0.22862816255292728 0.5527510118251548 -0.12491388330730613
v 1.187048231180547 1.037769974349789 1.3786209364482302
v 1.187048231180547 1.037769974349789 1.3786209364482302
v -0.2245886454341688 0.5305544331088314 1.3749164384940427
v -0.2245886454341688 0.5305544331088314 1.3749164384940427
vt 0 0.7184684684684685
vt 0 0.9684684684684685
vt 0.25 0.9684684684684685
vt 0.25 0.7184684684684685
vn -0.33814198916556243 0.9409781451274657 0.014836628849949645
usemtl m_ac3d92fe-f5b1-a3a3-7d87-db428bb26680
f 36/100/25 39/99/25 37/98/25 34/97/25
o south
v -0.06376113810020712 -0.21416955731737497 -0.21288098356037077
v -0.06376113810020712 -0.21416955731737497 -0.21288098356037077
v -0.17499472186868914 -0.04804986931254129 1.2737364316138216
v -0.17499472186868914 -0.04804986931254129 1.2737364316138216
v 1.3666297073206004 0.23386776045058455 -0.15591967016574249
v 1.3666297073206004 0.23386776045058455 -0.15591967016574249
v 1.2553961235521183 0.3999874484554182 1.3306977450084498
v 1.2553961235521183 0.3999874484554182 1.3306977450084498
vt 0 0.9692778716216216
vt 0 0.7192778716216216
vt 0.25 0.7192778716216216
vt 0.25 0.9692778716216216
vn 0.2918211927254759 -0.9479022010370454 0.1277568344371658
usemtl m_ac3d92fe-f5b1-a3a3-7d87-db428bb26680
f 48/104/26 43/103/26 41/102/26 46/101/26
o bottom
v 0.7628560683331396 1.5197929864871824 0.7441656596942152
v 1.6422378617871511 0.3098673795178247 0.8571598495512094
v 0.7628560683331396 1.5197929864871824 0.7441656596942152
v 1.6422378617871511 0.3098673795178247 0.8571598495512094
v 0.442850607310459 -0.5318972285333745 1.177944135998152
v -0.4365311861435528 0.6780283784359828 1.0649499461411578
v 0.442850607310459 -0.5318972285333745 1.177944135998152
v -0.4365311861435528 0.6780283784359828 1.0649499461411578
vt 0.25 0.6119439752252251
vt 0.25 0.36194397522522515
vt 0 0.36194397522522515
vt 0 0.6119439752252251
vn 0.13022693891045053 0.1856069565653227 0.9739563655814218
usemtl m_ac3d92fe-f5b1-a3a3-7d87-db428bb26680
f 55/108/27 52/107/27 51/106/27 56/105/27
o west
v 0.7993451190214902 -0.4463021389586399 -0.01740500487096097
v 0.6228924669618046 1.0165276682498685 -0.29846267995460163
v 0.8861397013038368 -0.15366345930103864 1.4512097518486795
v 0.7096870492441512 1.3091663479074698 1.1701520767650389
v 0.6228924669618046 1.0165276682498685 -0.29846267995460163
v 0.7993451190214902 -0.4463021389586399 -0.01740500487096097
v 0.7096870492441512 1.3091663479074698 1.1701520767650389
v 0.8861397013038368 -0.15366345930103864 1.4512097518486795
vt 0.25 0.9489372184684685
vt 0.25 0.6989372184684685
vt 0 0.6989372184684685
vt 0 0.9489372184684685
vn 0.9913696837243886 0.10433186007601704 -0.07937892141673619
usemtl m_ac3d92fe-f5b1-a3a3-7d87-db428bb26680
f 63/112/28 64/111/28 62/110/28 61/109/28
o east
v 0.2811118917030401 -0.10217083613896427 -0.44289093341320407
v -0.13546062954602278 1.2451474749523246 0.06818704805177356
v 0.47744005528183864 -0.5761489513267035 0.9666479977656601
v 0.06086753403277578 0.7711693597645852 1.4777259792306379
v -0.13546062954602278 1.2451474749523246 0.06818704805177356
v 0.2811118917030401 -0.10217083613896427 -0.44289093341320407
v 0.06086753403277578 0.7711693597645852 1.4777259792306379
v 0.47744005528183864 -0.5761489513267035 0.9666479977656601
vt 0 0.7225858671171173
vt 0 0.9725858671171169
vt 0.25 0.9725858671171169
vt 0.25 0.7225858671171173
vn -0.9517055069075787 -0.3055618612917631 0.029809009472002615
usemtl m_ac3d92fe-f5b1-a3a3-7d87-db428bb26680
f 67/116/29 68/115/29 66/114/29 65/113/29
o top
v 0.7795244667821346 1.3905829480742822 0.09311948892905564
v 1.2867858990092627 -0.019380192931576 0.1616014601315212
v 0.7795244667821346 1.3905829480742822 0.09311948892905564
v 1.2867858990092627 -0.019380192931576 0.1616014601315212
v -0.12446579881262054 -0.5242363044834304 0.22066881171927055
v -0.6317272310397484 0.8857268365224278 0.15218684051680498
v -0.12446579881262054 -0.5242363044834304 0.22066881171927055
v -0.6317272310397484 0.8857268365224278 0.15218684051680498
vt 0.25 0.979201858108108
vt 0.25 0.7292018581081077
vt 0 0.7292018581081077
vt 0 0.979201858108108
vn -0.021648554170167835 -0.056270172219526314 -0.9981808492556479
usemtl m_ac3d92fe-f5b1-a3a3-7d87-db428bb26680
f 78/120/30 73/119/30 74/118/30 77/117/30
o east
v -0.5453479783259574 0.1080643883036051 0.07415940499705975
v 0.6779495928091923 1.0442971858351422 -0.4431762706344542
v 0.19157121215800177 -0.05991802232453869 1.5126853923938892
v 1.4148687832931515 0.8763147752069984 0.9953497167623753
v 0.6779495928091923 1.0442971858351422 -0.4431762706344542
v -0.5453479783259574 0.1080643883036051 0.07415940499705975
v 1.4148687832931515 0.8763147752069984 0.9953497167623753
v 0.19157121215800177 -0.05991802232453869 1.5126853923938892
vt 0.43359375 0.5884712837837837
vt 0.43359375 0.8593046171171169
vt 0.7044270833333333 0.8593046171171169
vt 0.7044270833333333 0.5884712837837837
vt 0.43359375 0.40859374999999964
vt 0.43359375 0.13776041666666639
vt 0.7044270833333333 0.13776041666666639
vt 0.7044270833333333 0.40859374999999964
vn -0.47711883194540294 0.8107853003331342 0.3390941122561169
vn 0.47711883194540294 -0.8107853003331342 -0.3390941122561169
usemtl m_ac3d92fe-f5b1-a3a3-7d87-db428bb26680
f 83/124/31 84/123/31 82/122/31 81/121/31
f 87/128/32 88/127/32 86/126/32 85/125/32
o west
v 1.3287692985596729 -0.28423080094033437 0.5809178634871981
v 0.003735367864406869 -0.07957375720035242 -0.33724637942028135
v 0.9557486858442363 1.0575067338906305 1.4183072652084798
v -0.36928524485102954 1.2621637776306125 0.5001430223010004
v 0.003735367864406869 -0.07957375720035242 -0.33724637942028135
v 1.3287692985596729 -0.28423080094033437 0.5809178634871981
v -0.36928524485102954 1.2621637776306125 0.5001430223010004
v 0.9557486858442363 1.0575067338906305 1.4183072652084798
vt 0.43359375 0.5884712837837837
vt 0.43359375 0.8593046171171169
vt 0.7044270833333333 0.8593046171171169
vt 0.7044270833333333 0.5884712837837837
vn -0.5314321674846259 -0.5498938921460108 0.6443574774479646
usemtl m_ac3d92fe-f5b1-a3a3-7d87-db428bb26680
f 91/132/33 92/131/33 90/130/33 89/129/33
o south
v 0.2786706295269423 -0.6771147784460883 0.6583263601846814
v 1.0234774130521769 0.23089950049655783 -0.46479336827309126
v -0.09434998318849663 0.6646227563848757 1.4957157619059633
v 0.6504568003367379 1.5726370353275216 0.3725960334481907
v 1.0234774130521769 0.23089950049655783 -0.46479336827309126
v 0.2786706295269423 -0.6771147784460883 0.6583263601846814
v 0.6504568003367379 1.5726370353275216 0.3725960334481907
v -0.09434998318849663 0.6646227563848757 1.4957157619059633
vt 0.43359375 0.4093046171171171
vt 0.43359375 0.1384712837837837
vt 0.7044270833333333 0.1384712837837837
vt 0.7044270833333333 0.4093046171171171
vt 0.43359375 0.5885416666666667
vt 0.43359375 0.859375
vt 0.7044270833333333 0.859375
vt 0.7044270833333333 0.5885416666666667
vn -0.8586199970003757 0.07753713518278157 -0.5067146074653088
vn 0.8586199970003757 -0.07753713518278157 0.5067146074653088
usemtl m_ac3d92fe-f5b1-a3a3-7d87-db428bb26680
f 99/136/34 100/135/34 98/134/34 97/133/34
f 103/140/35 104/139/35 102/138/35 101/137/35