# Made in Blockbench 4.12.2
mtllib apple_leaves_4.mtl

o diagonal_1
v 0.751350953192212 1.6902354192644031 1.185172223593667
v 1.8870952132936758 0.2854372629094214 0.25356789876030494
v 0.20884990472710707 -0.7619694007635587 -0.21300628362416807
v -0.9268943553743563 0.6428287555914229 0.7185980412091938
v 1.8870952132936758 0.2854372629094214 0.25356789876030494
v 0.751350953192212 1.6902354192644031 1.185172223593667
v -0.9268943553743563 0.6428287555914229 0.7185980412091938
v 0.20884990472710707 -0.7619694007635587 -0.21300628362416807
vt 0.9065103731187246 0.6187499999999999
vt 0.9065103731187245 0.21223962688127496
vt 0.49999999999999956 0.21223962688127496
vt 0.49999999999999967 0.61875
vt 0.5 0.6187499999999997
vt 0.49999999999999983 0.21223962688127462
vt 0.9065103731187248 0.2122396268812745
vt 0.906510373118725 0.6187499999999995
vn 0.07753713518278076 -0.5067146074653087 0.8586199970003758
vn -0.07753713518278074 0.5067146074653088 -0.8586199970003758
usemtl m_b2bff805-3e5a-c860-a1cb-7ffdc3695c42
f 3/1/1 2/2/1 1/3/1 4/4/1
f 7/5/2 6/6/2 5/7/2 8/8/2
o west
v 0.8758225727385229 -0.36844943767437766 1.1699380635572474
v 0.8015242275943654 1.1071823437489026 1.4287634903653506
v 0.9389981030983037 1.3719477716957582 -0.04127059145658041
v 1.0132964482424613 -0.10368400972752201 -0.30009601826468346
vt 0.06250000308854582 0.6187490842487929
vt 0.0625000000000007 0.9187499999999994
vt 0.36249966575502285 0.9187499999999994
vt 0.36249966884356793 0.6187490842487929
vn 0.9945586825796471 0.03272860670338209 0.09890331242527775
usemtl m_b2bff805-3e5a-c860-a1cb-7ffdc3695c42
f 11/9/3 10/10/3 9/11/3 12/12/3
o east
v 0.1161461616932633 1.3721697987226507 -0.11719507820508557
v 0.12533624520661923 1.134734018398476 1.3638652826806108
v 0.06783875383251292 -0.34532136933682356 1.1269473903183063
v 0.05864867031915716 -0.107885589012649 -0.3541129705673898
vt 0.35625126751033936 0.91875
vt 0.3562500184270828 0.6187500294374976
vt 0.05625 0.6187500294374976
vt 0.05625124908325665 0.91875
vn -0.9992462894826063 0.03687998227019474 0.012112797488343482
usemtl m_b2bff805-3e5a-c860-a1cb-7ffdc3695c42
f 15/13/4 14/14/4 13/15/4 16/16/4
o top
v -0.19607962017570946 0.7894754130514922 1.329130322343136
v -0.26228062988738243 0.9744214325633702 -0.15795151675647034
v 1.2338347502669111 1.067193102437005 -0.2130168101328993
v 1.3000357599785843 0.8822470829251267 1.2740650289667073
vt 0.3500000204635413 0.9187499999999996
vt 0.350000020463541 0.6187499795364587
vt 0.05 0.618749979536459
vt 0.050000000000000336 0.91875
vn -0.056788870501689764 0.990440617354063 0.12570762778147085
usemtl m_b2bff805-3e5a-c860-a1cb-7ffdc3695c42
f 19/17/5 18/18/5 17/19/5 20/20/5
o north
v -0.4899942965586669 0.901664987495518 0.8757160065384458
v 0.9086982565096441 1.4364537477300514 0.7881938726632934
v 1.4504967264342872 0.051627089571915474 0.9849412864757378
v 0.05180417336597609 -0.48316167066261784 1.07246342035089
vt 0.36249949051228575 0.6249989082621006
vt 0.06250000000000008 0.6249993343496968
vt 0.0625 0.925
vt 0.3624994905122856 0.9249995739124038
vn 0.007104301625372624 0.14338155589022786 0.9896419849263235
usemtl m_b2bff805-3e5a-c860-a1cb-7ffdc3695c42
f 23/21/6 22/22/6 21/23/6 24/24/6
o bottom
v 1.2261209352163034 0.11591717516563804 1.3251361606584817
v 1.285527600710791 0.08335290069354023 -0.17333319709393136
v -0.21328991662545183 0.07794925048268775 -0.23263623487799623
v -0.2726965821199394 0.11051352495478572 1.2658331228744168
vt 0.05625 0.9125
vt 0.3562495837954754 0.9124991835795684
vt 0.35624958379547544 0.6124986532336829
vt 0.05625000000000004 0.6124994696541146
vn 0.0027404639384646604 -0.9997578303641571 0.021835074603844862
usemtl m_b2bff805-3e5a-c860-a1cb-7ffdc3695c42
f 27/25/7 26/26/7 25/27/7 28/28/7
o diagonal_2
v -0.3682390730174063 1.7233416952506169 0.7267329995974269
v 0.8395012357982791 1.0559786736859644 -0.8513208671669148
v 1.0561985455085843 -0.7997198500559457 0.09930488855739272
v -0.15154176330710079 -0.13235682849129327 1.6773587553217346
v 0.8395012357982791 1.0559786736859644 -0.8513208671669148
v -0.3682390730174063 1.7233416952506169 0.7267329995974269
v -0.15154176330710079 -0.13235682849129327 1.6773587553217346
v 1.0561985455085843 -0.7997198500559457 0.09930488855739272
vt 0.9192501385099654 0.6187499999999999
vt 0.9192501385099652 0.19949986149003462
vt 0.5 0.19949986149003496
vt 0.5000000000000002 0.61875
vt 0.5000000000000002 0.61875
vt 0.5 0.19949986149003485
vt 0.9192501385099654 0.19949986149003462
vt 0.9192501385099654 0.6187499999999998
vn 0.8107853003331335 0.33909411225611724 0.47711883194540394
vn -0.8107853003331333 -0.3390941122561174 -0.47711883194540394
usemtl m_b2bff805-3e5a-c860-a1cb-7ffdc3695c42
f 31/29/8 30/30/8 29/31/8 32/32/8
f 35/33/9 34/34/9 33/35/9 36/36/9
o diagonal_3
v 1.272534813976444 1.6054663243547258 -0.1532894162640983
v -0.4572323511648264 0.4880421718801806 -0.5451221361404219
v -0.15846795669565128 -0.5950163972068325 1.2246202278845395
v 1.5712992084456194 0.5224077552677124 1.616452947760863
v -0.4572323511648264 0.4880421718801806 -0.5451221361404219
v 1.272534813976444 1.6054663243547258 -0.1532894162640983
v 1.5712992084456194 0.5224077552677124 1.616452947760863
v -0.15846795669565128 -0.5950163972068325 1.2246202278845395
vt 0.9192501385099654 0.6187499999999999
vt 0.9192501385099652 0.19949986149003462
vt 0.5 0.19949986149003496
vt 0.5000000000000002 0.61875
vt 0.5000000000000002 0.61875
vt 0.5 0.19949986149003485
vt 0.9192501385099654 0.19949986149003462
vt 0.9192501385099654 0.6187499999999998
vn 0.5466058962244293 -0.67000447057517 -0.5023106644517661
vn -0.5466058962244293 0.6700044705751698 0.5023106644517662
usemtl m_b2bff805-3e5a-c860-a1cb-7ffdc3695c42
f 39/37/10 38/38/10 37/39/10 40/40/10
f 43/41/11 42/42/11 41/43/11 44/44/11
o south
v 1.080178753940861 1.2458794153541817 0.05639502240962857
v -0.39364594506687445 0.9670016331776015 0.04815249834046703
v -0.12190438874203091 -0.4778979684601038 0.34551030932473026
v 1.3519203102657045 -0.1990201862835237 0.35375283339389185
vt 0.3749998797578806 0.6124991274753194
vt 0.07500000000000022 0.6125003551955228
vt 0.075 0.9125
vt 0.375001107478084 0.9124990072331998
vn 0.04214938070408654 -0.19378375553461413 -0.9801384013480765
usemtl m_b2bff805-3e5a-c860-a1cb-7ffdc3695c42
f 47/45/12 46/46/12 45/47/12 48/48/12
o top
v -0.19607962017570946 0.7894754130514922 1.329130322343136
v -0.26228062988738243 0.9744214325633702 -0.15795151675647034
v 1.2338347502669111 1.067193102437005 -0.2130168101328993
v 1.3000357599785843 0.8822470829251267 1.2740650289667073
vt 0.05 0.618749979536459
vt 0.350000020463541 0.6187499795364587
vt 0.3500000204635413 0.9187499999999996
vt 0.050000000000000336 0.91875
vn 0.05678887050168979 -0.990440617354063 -0.12570762778147085
usemtl m_b2bff805-3e5a-c860-a1cb-7ffdc3695c42
f 49/49/13 50/50/13 51/51/13 52/52/13
o cube
v 0.25342353096861236 0.22338644236317107 0.7484298829695493
v 0.3182289499562827 0.12253979504374968 0.878977120541808
v 0.26043502662540263 0.23256911905331812 0.9926635387731507
v 0.1956296076377323 0.3334157663727394 0.8621163012008921
v 0.39915584790239467 0.3075250347745181 0.7410827424102006
v 0.3413619245715147 0.4175543587840864 0.8547691606415433
v 0.4639612668900651 0.2066783874550968 0.8716299799824592
v 0.40616734355918505 0.31670771146466514 0.9853163982138019
vt 0.9645518742561645 0.9562499999999999
vt 0.9645518742561645 0.9208019012322239
vt 0.9982395269691657 0.9208018742561651
vt 0.9982403479758208 0.9562490304487068
vt 0.9645518742561648 0.9437490070566578
vt 0.9645518742561648 0.9100612843069303
vt 0.9982388376880931 0.910062277250272
vt 0.9982388376880931 0.9437499999999993
vt 0.9645519012322239 0.9100615262803441
vt 1 0.9100615262803441
vt 0.9999990304487067 0.9437500000000003
vt 0.9645518742561652 0.9437491789933452
vt 0.9645518742561652 0.9100630365680714
vt 0.9982395970058928 0.9100630365680714
vt 0.9982405899492341 0.9437499999999995
vt 0.964552867199507 0.9437499999999995
vt 0.9982396040481276 0.9083031210603454
vt 0.9982396040481276 0.9437499999999995
vt 0.9645518742561645 0.9437492746187878
vt 0.9645518742561645 0.9083023956791336
vt 0.9645518742561648 0.9100622702080369
vt 0.999998753195819 0.9100622702080369
vt 0.9999994785770309 0.9437500000000001
vt 0.9645525996373767 0.9437500000000001
vn -0.8652011394955541 -0.49952411079092834 0.04361938736533569
vn -0.3656461220425174 0.5689984894681632 -0.7365756121527627
vn 0.8652011394955538 0.49952411079092873 -0.04361938736533648
vn 0.36564612204251773 -0.5689984894681627 0.7365756121527629
vn -0.34311791216848975 0.6532353187952114 0.6749471954365431
vn 0.3431179121684903 -0.653235318795211 -0.6749471954365431
usemtl m_b2bff805-3e5a-c860-a1cb-7ffdc3695c42
f 53/53/14 54/54/14 55/55/14 56/56/14
f 57/57/15 53/58/15 56/59/15 58/60/15
f 59/61/16 57/62/16 58/63/16 60/64/16
f 54/65/17 59/66/17 60/67/17 55/68/17
f 60/69/18 58/70/18 56/71/18 55/72/18
f 54/73/19 53/74/19 57/75/19 59/76/19
o cube
v 0.49457943996066744 0.23111270183132548 0.4450179338800333
v 0.2558924291400402 0.25158394162225783 0.47165922644330927
v 0.2239917737056386 0.10567699173958756 0.2979673562138956
v 0.462678784526266 0.0852057519486552 0.2713260636506194
v 0.493204308421481 0.40663483214423946 0.2978260645099271
v 0.46130365298707954 0.2607278822615693 0.1241341942805132
v 0.2545172976008536 0.4271060719351718 0.3244673570732033
v 0.22261664216645216 0.2811991220525015 0.15077548684378939
vt 0.9770657926170042 0.9267919614457304
vt 0.9770657926170042 0.9750000000000006
vt 0.93125 0.9749999747837704
vt 0.9312514042652846 0.9267908624329602
vt 0.9770657910823332 0.9875000000000004
vt 0.93125 0.9875000000000004
vt 0.93125 0.9416842089176671
vt 0.9770649920265025 0.9416851701719413
vt 0.9794591375670401 0.9874999999999998
vt 0.9312510990127698 0.9874999999999998
vt 0.9312499999999997 0.9416856116482804
vt 0.9794591123508098 0.9416842073829953
vt 0.9770657910823335 0.9291842089176667
vt 0.9770657910823335 0.975
vt 0.9312509612542744 0.9749992009441694
vt 0.9312500000000004 0.9291842089176667
vt 0.9794585416932791 0.9749999999999998
vt 0.9312500714669536 0.9749999999999998
vt 0.93125 0.9291848570851577
vt 0.9794572278357307 0.9291849948008428
vt 0.9312499999999997 0.9749985552607325
vt 0.9312499999999997 0.9267913274248053
vt 0.9770651429144503 0.9267915297738707
vt 0.9770650051952163 0.9749999999999994
vn 0.006002975179248535 -0.7662212389519326 0.6425488131402649
vn 0.9902378586885764 -0.0849287801023538 -0.11052640195984445
vn -0.0060029751792489835 0.7662212389519332 -0.642548813140264
vn -0.9902378586885764 0.08492878010235334 0.11052640195984481
vn -0.13925856350278937 -0.6369396480745184 -0.7582314535825114
vn 0.13925856350278903 0.6369396480745187 0.7582314535825113
usemtl m_b2bff805-3e5a-c860-a1cb-7ffdc3695c42
f 61/77/20 62/78/20 63/79/20 64/80/20
f 65/81/21 61/82/21 64/83/21 66/84/21
f 67/85/22 65/86/22 66/87/22 68/88/22
f 62/89/23 67/90/23 68/91/23 63/92/23
f 68/93/24 66/94/24 64/95/24 63/96/24
f 62/97/25 61/98/25 65/99/25 67/100/25
o cube
v 0.6394160812848679 0.7175348444684366 0.8619242597156064
v 0.6548012515310853 0.6042711913945542 0.7906611819652745
v 0.535962826402606 0.5684311524728685 0.8219680578765646
v 0.5205776561563886 0.6816948055467511 0.8932311356268964
v 0.6847023018720337 0.658238649328448 0.9659450250612862
v 0.5658638767435544 0.6223986104067625 0.9972519009725762
v 0.7000874721182508 0.5449749962545654 0.8946819473109544
v 0.5812490469897715 0.5091349573328798 0.9259888232222444
vt 1.0019394450573877 0.9374999999999993
vt 0.9750000000000002 0.9374999999999993
vt 0.9750000756325902 0.9118978031644389
vt 1.0019395206899777 0.9118978031644389
vt 1.0006027301400653 0.8993972698599351
vt 1.0006027301400653 0.9250000000000002
vt 0.9750010697711671 0.9249993534014769
vt 0.975 0.8993972698599351
vt 1.0006021968355605 0.910560479310023
vt 1.0006021968355605 0.9374999243674106
vt 0.975 0.9375000000000004
vt 0.975 0.9105605549426129
vt 0.9881027301400651 0.9375000000000002
vt 0.9625 0.9375000000000002
vt 0.9625 0.9118972698599351
vt 0.9881020835415419 0.9118983396311021
vt 0.975000464240636 0.8993968567340455
vt 1.0019396182791818 0.8993968567340455
vt 1.0019408520201318 0.9249995082088515
vt 0.975 0.9249999999999998
vt 0.9881031432532138 0.8980591479753799
vt 0.9881031432532137 0.9250000000000004
vt 0.9625004917601523 0.9249992336220484
vt 0.9624999999999997 0.898060079587991
vn -0.35376405106661996 0.46320628954194837 -0.8125828754666903
vn -0.1142190024864955 0.8408656690202175 0.5290547666680381
vn 0.35376405106661846 -0.46320628954194804 0.8125828754666913
vn 0.11421900248649525 -0.8408656690202171 -0.5290547666680386
vn -0.9283345386464537 -0.27997296296600377 0.24456108513848454
vn 0.9283345386464534 0.2799729629660056 -0.2445610851384834
usemtl m_b2bff805-3e5a-c860-a1cb-7ffdc3695c42
f 69/101/26 70/102/26 71/103/26 72/104/26
f 73/105/27 69/106/27 72/107/27 74/108/27
f 75/109/28 73/110/28 74/111/28 76/112/28
f 70/113/29 75/114/29 76/115/29 71/116/29
f 76/117/30 74/118/30 72/119/30 71/120/30
f 70/121/31 69/122/31 73/123/31 75/124/31
o cube
v 0.9854774235134189 0.7330539199403225 0.4604587739169861
v 0.9177800865376646 0.8249388029074018 0.3342689213286292
v 0.7996979309634134 0.7156664392465566 0.31805025692891986
v 0.8673952679391677 0.6237815562794775 0.444240109517277
v 1.0752786480803762 0.6519305641971598 0.3532131156400973
v 0.9571964925061247 0.542658200536315 0.3369944512403882
v 1.007581311104622 0.7438154471642391 0.22702326305174036
v 0.8894991555303706 0.6345430835033941 0.21080459865203105
vt 0.9823402715518814 0.9159715708237877
vt 0.9823402715518814 0.9499998858028239
vt 0.9499999999999996 0.9500000000000006
vt 0.9500007803703326 0.9159707085363804
vt 0.9823398847448864 0.9176601152551137
vt 0.9823398847448864 0.9499999999999995
vt 0.9500000000000004 0.9499999999999995
vt 0.9500000000000004 0.9176601152551137
vt 0.9840291772664432 0.9500000000000004
vt 0.950000862287407 0.9500000000000004
vt 0.9499999999999996 0.9176605088184518
vt 0.9840292914636202 0.9176597284481186
vt 0.9823398847448864 0.9625000000000005
vt 0.9500000000000007 0.9625000000000005
vt 0.9500000000000007 0.9301601152551146
vt 0.9823398847448864 0.9301601152551147
vt 0.9499999999999996 0.9375000000000004
vt 0.9499999999999996 0.903471359099099
vt 0.9823402058509287 0.9034702892741946
vt 0.9823402058509287 0.937498930175096
vt 0.9715286409009012 0.9875
vt 0.9374999999999998 0.9875
vt 0.9375010698249042 0.9551597941490708
vt 0.9715297107258056 0.9551597941490708
vn -0.555356985571783 0.5016905117078688 0.6632384556393872
vn 0.3978780685007786 -0.5400357147350582 0.7416565710736234
vn 0.5553569855717807 -0.5016905117078708 -0.6632384556393875
vn -0.39787806850077806 0.540035714735059 -0.7416565710736234
vn -0.7302545180844233 -0.6757721933261898 -0.10030095485287044
vn 0.7302545180844234 0.6757721933261898 0.1003009548528705
usemtl m_b2bff805-3e5a-c860-a1cb-7ffdc3695c42
f 77/125/32 78/126/32 79/127/32 80/128/32
f 81/129/33 77/130/33 80/131/33 82/132/33
f 83/133/34 81/134/34 82/135/34 84/136/34
f 78/137/35 83/138/35 84/139/35 79/140/35
f 84/141/36 82/142/36 80/143/36 79/144/36
f 78/145/37 77/146/37 81/147/37 83/148/37