# Made in Blockbench 4.8.1
mtllib apple_leaves_2.mtl

o north
v 1.142937900978119 1.0599665632328212 1.203272377592636
v 1.142937900978119 1.0599665632328212 1.203272377592636
v 1.1466423989323062 0.5527510009568337 -0.2083644914639784
v 1.1466423989323062 0.5527510009568337 -0.2083644914639784
v -0.35689242082322936 1.0377699845766934 1.207311895042149
v -0.35689242082322936 1.0377699845766934 1.207311895042149
v -0.3531879228690423 0.5305544223007057 -0.20432497401446525
v -0.3531879228690423 0.5305544223007057 -0.20432497401446525
vt 0 0.7184684684684685
vt 0 0.9684684684684685
vt 0.25 0.9684684684684685
vt 0.25 0.7184684684684685
vn -0.01483662884994837 0.9409781400887568 -0.33814200318723026
usemtl m_ac3d92fe-f5b1-a3a3-7d87-db428bb26680
f 4/4/1 7/3/1 5/2/1 2/1/1
o south
v 1.2346094991853698 -0.21416956572898593 -0.043497455583250355
v 1.2346094991853698 -0.21416956572898593 -0.043497455583250355
v -0.2520079159888221 -0.04804987938165994 -0.15473104182710895
v -0.2520079159888221 -0.04804987938165994 -0.15473104182710895
v 1.177648185790742 0.23386777335345943 1.3868933831612797
v 1.177648185790742 0.23386777335345943 1.3868933831612797
v -0.30896922938344995 0.3999874597007853 1.2756597969174213
v -0.30896922938344995 0.3999874597007853 1.2756597969174213
vt 0 0.9692778716216216
vt 0 0.7192778716216216
vt 0.25 0.7192778716216216
vt 0.25 0.9692778716216216
vn -0.12775683443716712 -0.9479021966885702 0.2918212068503203
usemtl m_ac3d92fe-f5b1-a3a3-7d87-db428bb26680
f 16/8/2 11/7/2 9/6/2 14/5/2
o bottom
v 0.27756285593078633 1.519792990393129 0.7831197250120385
v 0.16456866607379017 0.3098673965275829 1.662501536495348
v 0.27756285593078633 1.519792990393129 0.7831197250120385
v 0.16456866607379017 0.3098673965275829 1.662501536495348
v -0.1562156203731534 -0.5318972293958797 0.4631142945619271
v -0.04322143051615723 0.6780283644696665 -0.4162675169213823
v -0.1562156203731534 -0.5318972293958797 0.4631142945619271
v -0.04322143051615723 0.6780283644696665 -0.4162675169213823
vt 0.25 0.6119439752252251
vt 0.25 0.36194397522522515
vt 0 0.36194397522522515
vt 0 0.6119439752252251
vn -0.9739563655814216 0.1856069585058569 0.13022693614469094
usemtl m_ac3d92fe-f5b1-a3a3-7d87-db428bb26680
f 23/12/3 20/11/3 19/10/3 24/9/3
o west
v 1.0391335204959593 -0.4463021345089643 0.8196088049974919
v 1.3201911955796022 1.016527670070194 0.6431561311399421
v -0.4294812362236804 -0.1536634535580209 0.906403382919182
v -0.1484235611400374 1.3091663510211373 0.729950709061632
v 1.3201911955796022 1.016527670070194 0.6431561311399421
v 1.0391335204959593 -0.4463021345089643 0.8196088049974919
v -0.1484235611400374 1.3091663510211373 0.729950709061632
v -0.4294812362236804 -0.1536634535580209 0.906403382919182
vt 0.25 0.9489372184684685
vt 0.25 0.6989372184684685
vt 0 0.6989372184684685
vt 0 0.9489372184684685
vn 0.07937892141673629 0.10433187484857755 0.9913696821697223
usemtl m_ac3d92fe-f5b1-a3a3-7d87-db428bb26680
f 31/16/4 32/15/4 30/14/4 29/13/4
o east
v 1.464619449038203 -0.10217083941156646 0.3013755725510856
v 0.9535414675732277 1.245147465472308 -0.11519696877458618
v 0.05508051785933832 -0.5761489516737859 0.49770374319270894
v -0.455997463605637 0.7711693532100885 0.08113120186703715
v 0.9535414675732277 1.245147465472308 -0.11519696877458618
v 1.464619449038203 -0.10217083941156646 0.3013755725510856
v -0.455997463605637 0.7711693532100885 0.08113120186703715
v 0.05508051785933832 -0.5761489516737859 0.49770374319270894
vt 0 0.7225858671171173
vt 0 0.9725858671171169
vt 0.25 0.9725858671171169
vt 0.25 0.7225858671171173
vn -0.029809009472002983 -0.30556187547328134 -0.9517055023543517
usemtl m_ac3d92fe-f5b1-a3a3-7d87-db428bb26680
f 35/20/5 36/19/5 34/18/5 33/17/5
o top
v 0.9286090266959457 1.3905829522286068 0.7997881253864136
v 0.8601270554934777 -0.019380181218466075 1.3070495786236311
v 0.9286090266959457 1.3905829522286068 0.7997881253864136
v 0.8601270554934777 -0.019380181218466075 1.3070495786236311
v 0.8010597039057279 -0.5242363137996107 -0.1042021116753089
v 0.8695416751081957 0.8857268196474624 -0.6114635649125266
v 0.8010597039057279 -0.5242363137996107 -0.1042021116753089
v 0.8695416751081957 0.8857268196474624 -0.6114635649125266
vt 0.25 0.979201858108108
vt 0.25 0.7292018581081077
vt 0 0.7292018581081077
vt 0 0.979201858108108
vn 0.9981808492556478 -0.05627017254211649 -0.021648553331676652
usemtl m_ac3d92fe-f5b1-a3a3-7d87-db428bb26680
f 46/24/6 41/23/6 42/22/6 45/21/6
o east
v 0.9475691106279398 0.10806437271579095 -0.5250843006106609
v 1.464904786259455 1.0442971884758827 0.6982132565735315
v -0.4909568767688899 -0.05991802693139858 0.21183489237643116
v 0.026378798862625175 0.8763147888286931 1.4351324495606237
v 1.464904786259455 1.0442971884758827 0.6982132565735315
v 0.9475691106279398 0.10806437271579095 -0.5250843006106609
v 0.026378798862625175 0.8763147888286931 1.4351324495606237
v -0.4909568767688899 -0.05991802693139858 0.21183489237643116
vt 0.43359375 0.5884712837837837
vt 0.43359375 0.8593046171171169
vt 0.7044270833333333 0.8593046171171169
vt 0.7044270833333333 0.5884712837837837
vt 0.43359375 0.40859374999999964
vt 0.43359375 0.13776041666666639
vt 0.7044270833333333 0.13776041666666639
vt 0.7044270833333333 0.40859374999999964
vn -0.33909411225611585 0.8107852932235092 -0.47711884402704613
vn 0.33909411225611585 -0.8107852932235092 0.47711884402704613
usemtl m_ac3d92fe-f5b1-a3a3-7d87-db428bb26680
f 51/28/7 52/27/7 50/26/7 49/25/7
f 55/32/8 56/31/8 54/30/8 53/29/8
o west
v 0.4408106521378006 -0.28423078860162243 1.349032982120623
v 1.3589748950452805 -0.07957376460618715 0.023999048375729748
v -0.39657874958347894 1.0575067406709024 0.9760123494117376
v 0.521585493324001 1.2621637646663377 -0.34902158433315555
v 1.3589748950452805 -0.07957376460618715 0.023999048375729748
v 0.4408106521378006 -0.28423078860162243 1.349032982120623
v 0.521585493324001 1.2621637646663377 -0.34902158433315555
v -0.39657874958347894 1.0575067406709024 0.9760123494117376
vt 0.43359375 0.5884712837837837
vt 0.43359375 0.8593046171171169
vt 0.7044270833333333 0.8593046171171169
vt 0.7044270833333333 0.5884712837837837
vn -0.6443574774479652 -0.5498939000649666 -0.5314321592905679
usemtl m_ac3d92fe-f5b1-a3a3-7d87-db428bb26680
f 59/36/9 60/35/9 58/34/9 57/33/9
o south
v 0.36340215544031673 -0.6771147817550667 0.2989343189423209
v 1.4865218838980905 0.23089950828606454 1.043741088937087
v -0.4739872462809629 0.6646227475174573 -0.07408631376656705
v 0.649132482176811 1.5726370375585885 0.6707204562281992
v 1.4865218838980905 0.23089950828606454 1.043741088937087
v 0.36340215544031673 -0.6771147817550667 0.2989343189423209
v 0.649132482176811 1.5726370375585885 0.6707204562281992
v -0.4739872462809629 0.6646227475174573 -0.07408631376656705
vt 0.43359375 0.4093046171171171
vt 0.43359375 0.1384712837837837
vt 0.7044270833333333 0.1384712837837837
vt 0.7044270833333333 0.4093046171171171
vt 0.43359375 0.5885416666666667
vt 0.43359375 0.859375
vt 0.7044270833333333 0.859375
vt 0.7044270833333333 0.5885416666666667
vn 0.506714607465309 0.07753712238834473 -0.8586199981557692
vn -0.506714607465309 -0.07753712238834473 0.8586199981557692
usemtl m_ac3d92fe-f5b1-a3a3-7d87-db428bb26680
f 67/40/10 68/39/10 66/38/10 65/37/10
f 71/44/11 72/43/11 70/42/11 69/41/11
o cube
v 0.3923546842729275 0.5851945541288404 0.09858724732847901
v 0.24842653741633813 0.5840669480652381 0.21928458022876862
v 0.5119983831767168 0.5590360187949637 0.24101458130639064
v 0.3680702363201275 0.5579084127313614 0.36171191420668025
v 0.2652129540449031 0.779790297263681 0.24113043721414984
v 0.40914110090149236 0.7809179033272833 0.12043310431386023
v 0.3848566529486923 0.7536317619298045 0.38355777119206147
v 0.5287847998052817 0.7547593679934066 0.26286043829177186
vt 0.921875 0.9507319819819819
vt 0.9465816080078125 0.9507319819819819
vt 0.9465816080078125 0.9236557297297298
vt 0.921875 0.9236557297297298
vt 0.921875 0.9507319819819819
vt 0.9453551874999999 0.9507319819819819
vt 0.9453551874999999 0.9236557297297298
vt 0.921875 0.9236557297297298
vt 0.921875 0.9507319819819819
vt 0.9465816080078125 0.9507319819819819
vt 0.9465816080078125 0.9236557297297298
vt 0.921875 0.9236557297297298
vt 0.89453125 0.932713963963964
vt 0.9180114374999999 0.932713963963964
vt 0.9180114374999999 0.9056377117117118
vt 0.89453125 0.9056377117117118
vt 0.87890625 0.9732545045045045
vt 0.9036128580078125 0.9732545045045045
vt 0.9036128580078125 0.9461782522522523
vt 0.87890625 0.9461782522522523
vt 0.859375 0.9507319819819819
vt 0.8840816080078125 0.9507319819819819
vt 0.8840816080078125 0.9236557297297298
vt 0.859375 0.9236557297297298
vn -0.7662212389519328 -0.006002965604523806 0.6425488132297156
vn -0.08492878010235563 -0.990237860335548 -0.11052638720415078
vn 0.7662212389519328 0.006002965604523806 -0.6425488132297156
vn 0.08492878010235563 0.990237860335548 0.11052638720415078
vn -0.6369396480745182 0.13925855220426145 -0.7582314556576256
vn 0.6369396480745182 -0.13925855220426145 0.7582314556576256
usemtl m_ac3d92fe-f5b1-a3a3-7d87-db428bb26680
f 76/48/12 79/47/12 77/46/12 74/45/12
f 75/52/13 76/51/13 74/50/13 73/49/13
f 80/56/14 75/55/14 73/54/14 78/53/14
f 79/60/15 80/59/15 78/58/15 77/57/15
f 78/64/16 73/63/16 74/62/16 77/61/16
f 79/68/17 76/67/17 75/66/17 80/65/17
o cube
v 0.03209653489280351 0.48110361361243825 0.8092914926788721
v 0.10088012125519041 0.533635627695515 0.6886274040950955
v 0.07367098004195849 0.34325103992225203 0.772975518675939
v 0.1424545664043454 0.39578305400532887 0.6523114300921624
v -0.030505716310513464 0.5157888289780965 0.6059622341706485
v -0.09928930267290031 0.46325681489501946 0.7266263227544252
v 0.011068728838641517 0.3779362552879102 0.5696462601677157
v -0.05771485752374533 0.32540424120483324 0.6903103487514923
vt 0.85546875 0.96875
vt 0.8750000857421875 0.96875
vt 0.8750000857421875 0.9473453873873874
vt 0.85546875 0.9473453873873874
vt 0.85546875 0.96875
vt 0.8740305625 0.96875
vt 0.8740305625 0.9473453873873874
vt 0.85546875 0.9473453873873874
vt 0.91015625 0.977759009009009
vt 0.9296875857421875 0.977759009009009
vt 0.9296875857421875 0.9563543963963964
vt 0.91015625 0.9563543963963964
vt 0.88671875 0.96875
vt 0.9052805625 0.96875
vt 0.9052805625 0.9473453873873874
vt 0.88671875 0.9473453873873874
vt 0.84765625 0.932713963963964
vt 0.8671875857421875 0.932713963963964
vt 0.8671875857421875 0.9113093513513514
vt 0.84765625 0.9113093513513514
vt 0.90234375 0.9372184684684685
vt 0.9218750857421875 0.9372184684684685
vt 0.9218750857421875 0.9158138558558558
vt 0.90234375 0.9158138558558558
vn 0.46320628954194876 0.35376403895818953 -0.8125828807381861
vn 0.8408656690202176 0.11421901037002447 0.5290547649660422
vn -0.46320628954194876 -0.35376403895818953 0.8125828807381861
vn -0.8408656690202176 -0.11421901037002447 -0.5290547649660422
vn -0.27997296296600205 0.9283345422906986 0.24456107130522023
vn 0.27997296296600205 -0.9283345422906986 -0.24456107130522023
usemtl m_ac3d92fe-f5b1-a3a3-7d87-db428bb26680
f 84/72/18 87/71/18 85/70/18 82/69/18
f 83/76/19 84/75/19 82/74/19 81/73/19
f 88/80/20 83/79/20 81/78/20 86/77/20
f 87/84/21 88/83/21 86/82/21 85/81/21
f 86/88/22 81/87/22 82/86/22 85/85/22
f 87/92/23 84/91/23 83/90/23 88/89/23
o cube
v 0.5433906224113141 0.06379959882581732 0.3587229733652808
v 0.6245139781544768 0.15360082499085903 0.465968630304027
v 0.6526629860721589 -0.054282556506757396 0.3749416395245512
v 0.7337863418153217 0.03551866965828443 0.4821872964632974
v 0.7163988611215562 0.22129816008623782 0.33977877670690093
v 0.6352755053783934 0.131496933921196 0.23253311976815483
v 0.825671224782401 0.10321600475366322 0.3559974428661714
v 0.7445478690392382 0.01341477858862139 0.2487517859274252
vt 0.92578125 0.959740990990991
vt 0.9470494921875 0.959740990990991
vt 0.9470494921875 0.9364328828828828
vt 0.92578125 0.9364328828828828
vt 0.92578125 0.959740990990991
vt 0.94599375 0.959740990990991
vt 0.94599375 0.9364328828828828
vt 0.92578125 0.9364328828828828
vt 0.92578125 0.9372184684684685
vt 0.9470494921875 0.9372184684684685
vt 0.9470494921875 0.9139103603603603
vt 0.92578125 0.9139103603603603
vt 0.8671875 0.9732545045045045
vt 0.8874 0.9732545045045045
vt 0.8874 0.9499463963963963
vt 0.8671875 0.9499463963963963
vt 0.87890625 0.932713963963964
vt 0.9001744921875 0.932713963963964
vt 0.9001744921875 0.9094058558558559
vt 0.87890625 0.9094058558558559
vt 0.83203125 0.9507319819819819
vt 0.8532994921875 0.9507319819819819
vt 0.8532994921875 0.9274238738738739
vt 0.83203125 0.9274238738738739
vn 0.5016905117078713 0.5553569954548045 0.6632384473639225
vn -0.5400357147350596 -0.3978780574492334 0.7416565770024681
vn -0.5016905117078713 -0.5553569954548045 -0.6632384473639225
vn 0.5400357147350596 0.3978780574492334 -0.7416565770024681
vn -0.6757721933261887 0.7302545165898237 -0.1003009657345107
vn 0.6757721933261887 -0.7302545165898237 0.1003009657345107
usemtl m_ac3d92fe-f5b1-a3a3-7d87-db428bb26680
f 92/96/24 95/95/24 93/94/24 90/93/24
f 91/100/25 92/99/25 90/98/25 89/97/25
f 96/104/26 91/103/26 89/102/26 94/101/26
f 95/108/27 96/107/27 94/106/27 93/105/27
f 94/112/28 89/111/28 90/110/28 93/109/28
f 95/116/29 92/115/29 91/114/29 96/113/29