# Made in Blockbench 4.12.6
mtllib artist_info.mtl

o cuboid
v 0.6644012922707618 0.030142416381876678 0.562647479460935
v 0.7495921282619848 0.021246843068005866 0.27167223230080073
v 0.6643192885259511 -0.0011063937138786756 0.5629075621117507
v 0.7495429260150984 0.0024975570105526344 0.2718282818912902
v 0.6167154447333505 0.030142416381876685 0.5476121894857213
v 0.7138277426089263 0.021246843068005866 0.26039576481939053
v 0.6166334409885398 -0.0011063937138786686 0.5478722721365371
v 0.7137785403620399 0.002497557010552638 0.26055181440988
v 0.7041854799166325 0.021180697785637876 0.24940824601450223
v 0.7637927893383967 0.02118069778563787 0.26820235848351925
v 0.7637435870915104 0.002431411728184639 0.2683584080740088
v 0.7041362776697461 0.002431411728184646 0.24956429560499171
v 0.7178360739455435 0.011409183062703283 0.20611409294323765
v 0.7774433833673078 0.011409183062703276 0.2249082054122547
v 0.7774433833673078 0.011409183062703276 0.2249082054122547
v 0.7178360739455435 0.011409183062703283 0.20611409294323765
vt 0.678256249999998 0.71875
vt 0.678256249999998 0.75
vt 0.374999999999998 0.74375
vt 0.374999999999998 0.725
vt 0.5499999999999986 0.71875
vt 0.5499999999999986 0.75
vt 0.49999999999999856 0.75
vt 0.49999999999999856 0.71875
vt 0.9375 0.875
vt 1 0.875
vt 0.9375 0.875
vt 0.5062499999999985 0.6250000000000009
vt 0.49999999999999856 0.3217437500000009
vt 0.5499999999999986 0.3217437500000009
vt 0.5437499999999986 0.6250000000000009
vt 0.6157562499999989 0.74375
vt 0.3124999999999989 0.75
vt 0.3124999999999989 0.71875
vt 0.6157562499999989 0.725
vt 0.5499999999999986 0.6875000000000022
vt 0.49999999999999856 0.6875000000000022
vt 0.5062499999999985 0.3842437500000022
vt 0.5437499999999986 0.3842437500000022
vt 1 0.9375000000000017
vt 0.9375 0.9375000000000017
vt 0.95 0.9299250000000017
vt 0.9875 0.9299250000000017
vt 0.07711875000000218 0.8562500000000014
vt 0.07711875000000218 0.8750000000000014
vt 0.06250000000000219 0.8750000000000014
vt 0.06250000000000219 0.8562500000000014
vt 0.9375 0.7424250000000027
vt 1 0.7424250000000027
vt 0.9875 0.7500000000000027
vt 0.95 0.7500000000000027
vt 0.5000000000000018 0.8750000000000014
vt 0.5000000000000018 0.8562500000000014
vt 0.5146187500000017 0.8562500000000014
vt 0.5146187500000017 0.8750000000000014
vt 0.9375 0.95356875
vt 1 0.95356875
vt 1 1
vt 0.9375 1
vt 1 0.875
vt 1 0.875
vt 1 0.82951875
vt 1 0.8125000000000002
vt 0.9375 0.8125000000000002
vt 0.9375 0.7660687500000002
vt 1 0.7660687500000002
vt 1 0.875
vt 1 0.875
vt 1 0.82951875
vt 1 0.6875
vt 1 0.6875
vt 0.9375 0.6875
vt 0.045481250000001694 0.8656250000000014
vt 1.6930901125533637e-15 0.8750000000000014
vt 1.6930901125533637e-15 0.8562500000000014
vt 0.5 0.8656250000000014
vt 0.54548125 0.8562500000000014
vt 0.54548125 0.8750000000000014
vn -0.9473171725118898 -0.00017985090023553389 -0.3202969595824039
vn -0.3006943495488416 0.008726535498373968 0.9536806361290947
vn 0 0 0
vn 0.003573644829449274 -0.9999293805214926 -0.011334153366573873
vn 0.9597115871045327 -0.0001798509002357533 0.28098689868204346
vn 0.008820769763193416 0.9995696787210213 -0.02797590753378651
vn 0.0026241198339410654 0.9999619230641714 -0.00832264482610535
vn 0.2373889815158876 0.007461847790623612 0.9713860161039993
vn -0.0026241198339410654 -0.9999619230641714 0.00832264482610535
vn -0.751621798938592 0.007461847790623727 0.6595521148384441
vn 0.06327886484244455 0.9776079658117407 -0.20069491883374135
vn 0 0 0
vn 0.05813870162115076 -0.9811316592414994 -0.18439240387778813
vn 0 0 0
vn 0 0 0
vn 0.9537169507482272 -1.0972125985553307e-16 0.3007057995042728
vn -0.9537169507482272 1.0972125985553307e-16 -0.3007057995042728
usemtl m_5aa6017d-baab-53c7-1b9a-c757e3057b95
f 7/1/1 5/2/1 6/3/1 8/4/1
f 3/5/2 1/6/2 5/7/2 7/8/2
f 13/9/3 14/10/3 16/11/3
f 4/12/4 3/13/4 7/14/4 8/15/4
f 2/16/5 1/17/5 3/18/5 4/19/5
f 5/20/6 1/21/6 2/22/6 6/23/6
f 10/24/7 9/25/7 6/26/7 2/27/7
f 11/28/8 10/29/8 2/30/8 4/31/8
f 12/32/9 11/33/9 4/34/9 8/35/9
f 9/36/10 12/37/10 8/38/10 6/39/10
f 14/40/11 13/41/11 9/42/11 10/43/11
f 15/44/12 14/45/12 11/46/12
f 16/47/13 15/48/13 11/49/13 12/50/13
f 13/51/14 16/52/14 9/53/14
f 14/54/15 15/55/15 16/56/15
f 14/57/16 10/58/16 11/59/16
f 16/60/17 12/61/17 9/62/17
o cube
v 0.5997621298570349 0.125 0.6837087392637612
v 0.48927669529663687 0.125 0.5732233047033631
v 0.5997621298570349 0 0.6837087392637612
v 0.48927669529663687 0 0.5732233047033631
v 0.3125 0.125 0.75
v 0.42298543456039805 0.125 0.860485434560398
v 0.3125 0 0.75
v 0.42298543456039805 0 0.860485434560398
vt 0.4375 0.5625
vt 0.6875 0.5625
vt 0.6875 0.4375
vt 0.4375 0.4375
vt 0.46875 0.5625
vt 0.625 0.5625
vt 0.625 0.4375
vt 0.46875 0.4375
vt 0.4375 0.5625
vt 0.6875 0.5625
vt 0.6875 0.4375
vt 0.4375 0.4375
vt 0.4375 0.5625
vt 0.59375 0.5625
vt 0.59375 0.4375
vt 0.4375 0.4375
vt 0.4375 0.59375
vt 0.6875 0.59375
vt 0.6875 0.4375
vt 0.4375 0.4375
vt 0.4375 0.59375
vt 0.6875 0.59375
vt 0.6875 0.4375
vt 0.4375 0.4375
vn -0.7071067811865476 0 -0.7071067811865475
vn 0.7071067811865475 0 -0.7071067811865476
vn 0.7071067811865476 0 0.7071067811865475
vn -0.7071067811865475 0 0.7071067811865476
vn 0 1 0
vn 0 -1 0
usemtl m_5aa6017d-baab-53c7-1b9a-c757e3057b95
f 20/66/18 23/65/18 21/64/18 18/63/18
f 19/70/19 20/69/19 18/68/19 17/67/19
f 24/74/20 19/73/20 17/72/20 22/71/20
f 23/78/21 24/77/21 22/76/21 21/75/21
f 22/82/22 17/81/22 18/80/22 21/79/22
f 23/86/23 20/85/23 19/84/23 24/83/23
o cube
v 0.4240958691207961 0.09375 0.640625
v 0.18102791308792038 0.09375 0.3975570439671243
v 0.4240958691207961 0.03125 0.640625
v 0.18102791308792038 0.03125 0.3975570439671243
v 0.13683373926376113 0.09375 0.4417512177912835
v 0.37990169529663687 0.09375 0.6848191738241592
v 0.13683373926376113 0.03125 0.4417512177912835
v 0.37990169529663687 0.03125 0.6848191738241592
vt 0 1
vt 0.0625 1
vt 0.0625 0.9375
vt 0 0.9375
vt 0.03125 1
vt 0.375 1
vt 0.375 0.9375
vt 0.03125 0.9375
vt 0 1
vt 0.0625 1
vt 0.0625 0.9375
vt 0 0.9375
vt 0 1
vt 0.34375 1
vt 0.34375 0.9375
vt 0 0.9375
vt 0 1
vt 0.0625 1
vt 0.0625 0.65625
vt 0 0.65625
vt 0.015625 0.96875
vt 0.078125 0.96875
vt 0.078125 0.625
vt 0.015625 0.625
vn -0.7071067811865476 0 -0.7071067811865475
vn 0.7071067811865475 0 -0.7071067811865476
vn 0.7071067811865476 0 0.7071067811865475
vn -0.7071067811865475 0 0.7071067811865476
vn 0 1 0
vn 0 -1 0
usemtl m_c53b117e-7ea0-3824-5672-5d0f27cfa6e5
f 28/90/24 31/89/24 29/88/24 26/87/24
f 27/94/25 28/93/25 26/92/25 25/91/25
f 32/98/26 27/97/26 25/96/26 30/95/26
f 31/102/27 32/101/27 30/100/27 29/99/27
f 30/106/28 25/105/28 26/104/28 29/103/28
f 31/110/29 28/109/29 27/108/29 32/107/29