# Made in Blockbench 4.8.1
mtllib ash_leaves.mtl

o north
v -0.18154387031178804 1.1919613384781185 -0.03897045931611354
v -0.18154387031178804 1.1919613384781185 -0.03897045931611354
v 1.2300930063029274 1.195665836432306 0.4682450819248456
v 1.2300930063029274 1.195665836432306 0.4682450819248456
v -0.18558338743054653 -0.30786898332323037 -0.01677388059978946
v -0.18558338743054653 -0.30786898332323037 -0.01677388059978946
v 1.2260534891841688 -0.30416448536904267 0.4904416606411697
v 1.2260534891841688 -0.30416448536904267 0.4904416606411697
vt 0 0.7184684684684685
vt 0 0.9684684684684685
vt 0.25 0.9684684684684685
vt 0.25 0.7184684684684685
vn 0.3381419891655633 -0.014836628849950058 -0.9409781451274651
usemtl m_ac3d92fe-f5b1-a3a3-7d87-db428bb26680
f 4/4/1 7/3/1 5/2/1 2/1/1
o south
v 1.0652259818502063 1.2836329366853712 1.2351656510673754
v 1.0652259818502063 1.2836329366853712 1.2351656510673754
v 1.1764595656186887 -0.20298447848882128 1.0690459630625424
v 1.1764595656186887 -0.20298447848882128 1.0690459630625424
v -0.36516486357060063 1.2266716232907426 0.7871283332994143
v -0.36516486357060063 1.2266716232907426 0.7871283332994143
v -0.2539312798021184 -0.2599457918834498 0.6210086452945816
v -0.2539312798021184 -0.2599457918834498 0.6210086452945816
vt 0 0.9692778716216216
vt 0 0.7192778716216216
vt 0.25 0.7192778716216216
vt 0.25 0.9692778716216216
vn -0.29182119272547685 -0.1277568344371654 0.9479022010370453
usemtl m_ac3d92fe-f5b1-a3a3-7d87-db428bb26680
f 16/8/2 11/7/2 9/6/2 14/5/2
o bottom
v 0.23860877541686143 0.3265862934307844 -0.4987968927371822
v -0.6407730180371516 0.21359210357379077 0.7111287142321743
v 0.23860877541686143 0.3265862934307844 -0.4987968927371822
v -0.6407730180371516 0.21359210357379077 0.7111287142321743
v 0.5586142364395399 -0.10719218287315146 1.5528933222833752
v 1.437996029893553 0.005802006983842145 0.3429677153140184
v 0.5586142364395399 -0.10719218287315146 1.5528933222833752
v 1.437996029893553 0.005802006983842145 0.3429677153140184
vt 0.25 0.6119439752252251
vt 0.25 0.36194397522522515
vt 0 0.36194397522522515
vt 0 0.6119439752252251
vn -0.13022693891045037 -0.973956365581422 -0.18560695656532233
usemtl m_ac3d92fe-f5b1-a3a3-7d87-db428bb26680
f 23/12/3 20/11/3 19/10/3 24/9/3
o west
v 0.20211972472850892 1.0881569579959613 1.4672982327086395
v 0.3785723767881959 1.3692146330796016 0.004468425500131046
v 0.11532514244616265 -0.38045779872367935 1.1746595530510386
v 0.2917777945058496 -0.09940012364003936 -0.2881702541574698
v 0.3785723767881959 1.3692146330796016 0.004468425500131046
v 0.20211972472850892 1.0881569579959613 1.4672982327086395
v 0.2917777945058496 -0.09940012364003936 -0.2881702541574698
v 0.11532514244616265 -0.38045779872367935 1.1746595530510386
vt 0.25 0.9489372184684685
vt 0.25 0.6989372184684685
vt 0 0.6989372184684685
vt 0 0.9489372184684685
vn -0.9913696837243885 0.07937892141673616 -0.10433186007601808
usemtl m_ac3d92fe-f5b1-a3a3-7d87-db428bb26680
f 31/16/4 32/15/4 30/14/4 29/13/4
o east
v 0.7203529520469591 1.5136428865382046 1.123166929888964
v 1.1369254732960234 1.0025649050732262 -0.22415138120232425
v 0.5240247884681604 0.10410395535934036 1.5971450450767035
v 0.9405973097172244 -0.4069740261056378 0.24982673398541544
v 1.1369254732960234 1.0025649050732262 -0.22415138120232425
v 0.7203529520469591 1.5136428865382046 1.123166929888964
v 0.9405973097172244 -0.4069740261056378 0.24982673398541544
v 0.5240247884681604 0.10410395535934036 1.5971450450767035
vt 0 0.7225858671171173
vt 0 0.9725858671171169
vt 0.25 0.9725858671171169
vt 0.25 0.7225858671171173
vn 0.9517055069075785 -0.02980900947200249 0.3055618612917641
usemtl m_ac3d92fe-f5b1-a3a3-7d87-db428bb26680
f 35/20/5 36/19/5 34/18/5 33/17/5
o top
v 0.22194037696786606 0.977632464195944 -0.3695868543242826
v -0.2853210552592633 0.9091504929934788 1.0403762866815751
v 0.22194037696786606 0.977632464195944 -0.3695868543242826
v -0.2853210552592633 0.9091504929934788 1.0403762866815751
v 1.1259306425626194 0.8500831414057297 1.5452323982334306
v 1.6331920747897488 0.9185651126081948 0.13526925722757321
v 1.1259306425626194 0.8500831414057297 1.5452323982334306
v 1.6331920747897488 0.9185651126081948 0.13526925722757321
vt 0.25 0.979201858108108
vt 0.25 0.7292018581081077
vt 0 0.7292018581081077
vt 0 0.979201858108108
vn 0.02164855417016777 0.9981808492556478 0.056270172219525884
usemtl m_ac3d92fe-f5b1-a3a3-7d87-db428bb26680
f 46/24/6 41/23/6 42/22/6 45/21/6
o east
v 1.5468128220759572 0.9965925481279405 0.9129317054463957
v 0.32351525094080835 1.513928223759454 -0.02330109208514275
v 0.8098936315919978 -0.44193343926888906 1.0809141160745395
v -0.41340393954315113 0.07540223636262433 0.14468131854300093
v 0.32351525094080835 1.513928223759454 -0.02330109208514275
v 1.5468128220759572 0.9965925481279405 0.9129317054463957
v -0.41340393954315113 0.07540223636262433 0.14468131854300093
v 0.8098936315919978 -0.44193343926888906 1.0809141160745395
vt 0.43359375 0.5884712837837837
vt 0.43359375 0.8593046171171169
vt 0.7044270833333333 0.8593046171171169
vt 0.7044270833333333 0.5884712837837837
vt 0.43359375 0.40859374999999964
vt 0.43359375 0.13776041666666639
vt 0.7044270833333333 0.13776041666666639
vt 0.7044270833333333 0.40859374999999964
vn 0.4771188319454036 -0.3390941122561172 -0.8107853003331335
vn -0.4771188319454036 0.3390941122561172 0.8107853003331335
usemtl m_ac3d92fe-f5b1-a3a3-7d87-db428bb26680
f 51/28/7 52/27/7 50/26/7 49/25/7
f 55/32/8 56/31/8 54/30/8 53/29/8
o west
v -0.3273044548096735 0.4898340896378024 1.3052268946903336
v 0.9977294758855926 1.4079983325452816 1.1005698509503525
v 0.04571615790576422 -0.34755531208348 -0.036510640140630324
v 1.3707500886010302 0.5706089308239992 -0.24116768388061138
v 0.9977294758855926 1.4079983325452816 1.1005698509503525
v -0.3273044548096735 0.4898340896378024 1.3052268946903336
v 1.3707500886010302 0.5706089308239992 -0.24116768388061138
v 0.04571615790576422 -0.34755531208348 -0.036510640140630324
vt 0.43359375 0.5884712837837837
vt 0.43359375 0.8593046171171169
vt 0.7044270833333333 0.8593046171171169
vt 0.7044270833333333 0.5884712837837837
vn 0.5314321674846252 -0.6443574774479643 0.5498938921460115
usemtl m_ac3d92fe-f5b1-a3a3-7d87-db428bb26680
f 59/36/9 60/35/9 58/34/9 57/33/9
o south
v 0.7227942142230566 0.412425592940319 1.698110872196089
v -0.02201256930217721 1.5355453213980912 0.7900965932534416
v 1.0958148269384969 -0.4249638087809635 0.35637333736512566
v 0.3510080434132632 0.6981559196768088 -0.5516409415775216
v -0.02201256930217721 1.5355453213980912 0.7900965932534416
v 0.7227942142230566 0.412425592940319 1.698110872196089
v 0.3510080434132632 0.6981559196768088 -0.5516409415775216
v 1.0958148269384969 -0.4249638087809635 0.35637333736512566
vt 0.43359375 0.4093046171171171
vt 0.43359375 0.1384712837837837
vt 0.7044270833333333 0.1384712837837837
vt 0.7044270833333333 0.4093046171171171
vt 0.43359375 0.5885416666666667
vt 0.43359375 0.859375
vt 0.7044270833333333 0.859375
vt 0.7044270833333333 0.5885416666666667
vn 0.8586199970003758 0.5067146074653088 -0.07753713518278091
vn -0.8586199970003758 -0.5067146074653088 0.07753713518278091
usemtl m_ac3d92fe-f5b1-a3a3-7d87-db428bb26680
f 67/40/10 68/39/10 66/38/10 65/37/10
f 71/44/11 72/43/11 70/42/11 69/41/11