# Made in Blockbench 4.12.6
mtllib banner.mtl

o cube
v 2 -0.796875 0
v -2 -0.796875 0
v -2 1.203125 0
v 2 1.203125 0
v -2 -0.796875 0
v 2 -0.796875 0
v 2 1.203125 0
v -2 1.203125 0
vt 0 0.46875
vt 1 0.46875
vt 1 1
vt 0 1
vt 0 0.46875
vt 1 0.46875
vt 1 1
vt 0 1
vn 0 0 -1
vn 0 0 1
usemtl m_0eda6026-6a03-2957-a48b-5c5a87ff6138
f 1/1/1 2/2/1 3/3/1 4/4/1
f 5/5/2 6/6/2 7/7/2 8/8/2
o cube
v 2.375 0.875 -0.125
v -1.5625 0.875 -0.125
v -1.5625 1.125 -0.125
v 2.375 1.125 -0.125
v 2.375 0.875 0.125
v 2.375 1.125 0.125
v -1.5625 0.875 0.125
v -1.5625 1.125 0.125
vt 0 0
vt 0.984375 0
vt 0.984375 0.0625
vt 0 0.0625
vt 0.375 0.109375
vt 0.4375 0.109375
vt 0.4375 0.171875
vt 0.375 0.171875
vt 0 0
vt 0.984375 0
vt 0.984375 0.0625
vt 0 0.0625
vt 0.375 0.109375
vt 0.4375 0.109375
vt 0.4375 0.171875
vt 0.375 0.171875
vt 0 0
vt 0.984375 0
vt 0.984375 0.0625
vt 0 0.0625
vt 0 0
vt 0.984375 0
vt 0.984375 0.0625
vt 0 0.0625
vn 0 0 -1
vn 1 0 0
vn 0 0 1
vn -1 0 0
vn 0 1 0
vn 0 -1 0
usemtl m_0eda6026-6a03-2957-a48b-5c5a87ff6138
f 9/9/3 10/10/3 11/11/3 12/12/3
f 13/13/4 9/14/4 12/15/4 14/16/4
f 15/17/5 13/18/5 14/19/5 16/20/5
f 10/21/6 15/22/6 16/23/6 11/24/6
f 16/25/7 14/26/7 12/27/7 11/28/7
f 10/29/8 9/30/8 13/31/8 15/32/8
o cube
v -1.5625 0.875 -0.125
v -2.375 0.875 -0.125
v -2.375 1.125 -0.125
v -1.5625 1.125 -0.125
v -1.5625 0.875 0.125
v -1.5625 1.125 0.125
v -2.375 0.875 0.125
v -2.375 1.125 0.125
vt 0.796875 0.25
vt 1 0.25
vt 1 0.1875
vt 0.796875 0.1875
vt 0.4375 0.140625
vt 0.5 0.140625
vt 0.5 0.203125
vt 0.4375 0.203125
vt 0.796875 0.25
vt 1 0.25
vt 1 0.1875
vt 0.796875 0.1875
vt 0.4375 0.140625
vt 0.5 0.140625
vt 0.5 0.203125
vt 0.4375 0.203125
vt 0.796875 0.25
vt 1 0.25
vt 1 0.1875
vt 0.796875 0.1875
vt 0.796875 0.25
vt 1 0.25
vt 1 0.1875
vt 0.796875 0.1875
vn 0 0 -1
vn 1 0 0
vn 0 0 1
vn -1 0 0
vn 0 1 0
vn 0 -1 0
usemtl m_0eda6026-6a03-2957-a48b-5c5a87ff6138
f 17/33/9 18/34/9 19/35/9 20/36/9
f 21/37/10 17/38/10 20/39/10 22/40/10
f 23/41/11 21/42/11 22/43/11 24/44/11
f 18/45/12 23/46/12 24/47/12 19/48/12
f 24/49/13 22/50/13 20/51/13 19/52/13
f 18/53/14 17/54/14 21/55/14 23/56/14