# Made in Blockbench 4.12.3
mtllib beam_round_e_2.mtl

o cube
v 1.1874505278475684 0.12758337116774787 0.875
v 0.9564806447197469 0.2232542292590204 0.875
v 1.1207654762454968 0.6198728976206651 0.875
v 1.3517353593733186 0.5242020395293927 0.875
v 1.1874505278475684 0.12758337116774787 1.125
v 1.3517353593733186 0.5242020395293927 1.125
v 0.9564806447197469 0.2232542292590204 1.125
v 1.1207654762454968 0.6198728976206651 1.125
vt 0.3958333333333341 0.7319006500969882
vt 0.479166846067516 0.7319006500969882
vt 0.4791703979869526 0.8749992027100504
vt 0.395834960517331 0.8750000000000007
vt 0.4166666666666667 0.7944000000000001
vt 0.5 0.7944000000000001
vt 0.5 0.9375000000000002
vt 0.4166666666666667 0.9375000000000002
vt 0.5625001794008485 0.5
vt 0.4791666666666667 0.5
vt 0.4791682938506636 0.35690065009698757
vt 0.5625037313202853 0.35690144738693785
vt 0.4791666666666667 0.7527333333333335
vt 0.5625 0.7527333333333335
vt 0.5625 0.8958333333333336
vt 0.4791666666666667 0.8958333333333336
vt 0.5625 0.5624999999999998
vt 0.5625 0.4791666666666664
vt 0.6458333333333334 0.4791666666666664
vt 0.6458333333333334 0.5624999999999998
vn 0 0 -1
vn 0.9238795325112868 -0.38268343236508995 0
vn 0 0 1
vn -0.923879532511287 0.3826834323650896 0
vn 0.3826834323650896 0.923879532511287 0
usemtl m_e1df8b6f-576e-0979-0449-689e504e4e9b
f 1/1/1 2/2/1 3/3/1 4/4/1
f 5/5/2 1/6/2 4/7/2 6/8/2
f 7/9/3 5/10/3 6/11/3 8/12/3
f 2/13/4 7/14/4 8/15/4 3/16/4
f 8/17/5 6/18/5 4/19/5 3/20/5
o cube
v 1.5933629898539703 0.7025115488078681 0.8759768750000001
v 1.2473363090046892 0.356484867958587 0.8759768750000001
v 1.0591659137544456 0.5446552632088304 0.8759768750000001
v 1.4051925946037267 0.8906819440581115 0.8759768750000001
v 1.5933629898539703 0.7025115488078681 1.125976875
v 1.4051925946037267 0.8906819440581115 1.125976875
v 1.2473363090046892 0.356484867958587 1.125976875
v 1.0591659137544456 0.5446552632088304 1.125976875
vt 0.37499999999999933 0.7916666666666671
vt 0.3749999999999994 0.6285489173599503
vt 0.4637035994215968 0.6285489173599503
vt 0.4637035994215968 0.7916666666666671
vt 0.562499999999999 0.47379583333333386
vt 0.6458333333333323 0.47379583333333386
vt 0.6458333333333323 0.5625000000000007
vt 0.562499999999999 0.5625000000000007
vt 0.4791666666666667 0.7291666666666665
vt 0.4791666666666667 0.5660489173599499
vt 0.5678702660882641 0.5660489173599499
vt 0.5678702660882641 0.7291666666666667
vt 0.562500000000001 0.6077145833333324
vt 0.562500000000001 0.7708333333333324
vt 0.4791666666666677 0.7708333333333324
vt 0.4791666666666677 0.6077145833333324
vt 0.47916666666666563 0.5035479166666657
vt 0.47916666666666563 0.6666666666666656
vt 0.3958333333333323 0.6666666666666656
vt 0.3958333333333323 0.5035479166666657
vn 0 0 -1
vn 0.7071067811865471 0.7071067811865479 0
vn 0 0 1
vn -0.7071067811865476 0.7071067811865476 0
vn 0.7071067811865476 -0.7071067811865476 0
usemtl m_e1df8b6f-576e-0979-0449-689e504e4e9b
f 9/21/6 10/22/6 11/23/6 12/24/6
f 13/25/7 9/26/7 12/27/7 14/28/7
f 15/29/8 13/30/8 14/31/8 16/32/8
f 16/33/9 14/34/9 12/35/9 11/36/9
f 10/37/10 9/38/10 13/39/10 15/40/10
o cube
v 1.9102976364999122 0.832744729466441 0.8768500000000001
v 1.499378540002497 0.6625364666591129 0.8768500000000001
v 1.432109967907071 0.8249371657333626 0.8768500000000001
v 1.8430290644044867 0.9951454285406907 0.8768500000000001
v 1.9102976364999122 0.832744729466441 1.1268500000000001
v 1.8430290644044867 0.9951454285406907 1.1268500000000001
v 1.499378540002497 0.6625364666591129 1.1268500000000001
v 1.432109967907071 0.8249371657333626 1.1268500000000001
vt 0.5416666666666661 0.7500000000000003
vt 0.5416666666666661 0.6017418217955117
vt 0.6002602240725795 0.6017414503233582
vt 0.6002602240725795 0.7499996285278467
vt 1.6874999999999976 -0.488281250000002
vt 1.9374999999999973 -0.488281250000002
vt 1.9374999999999973 -0.312500000000002
vt 1.6874999999999976 -0.312500000000002
vt 0.4583333333333334 0.6666662951945133
vt 0.4583333333333333 0.5184081169900245
vt 0.5169268907392467 0.5184084884621782
vt 0.5169268907392467 0.6666666666666667
vt 0.47916666666666746 0.6642416666666668
vt 0.47916666666666746 0.8125000000000003
vt 0.3958333333333342 0.8125000000000003
vt 0.3958333333333342 0.6642416666666668
vt 0.5624999999999991 0.6642416666666668
vt 0.5624999999999991 0.8125000000000003
vt 0.47916666666666585 0.8125000000000003
vt 0.47916666666666585 0.6642416666666668
vn 0 0 -1
vn 0.9238795325112875 0.3826834323650879 0
vn 0 0 1
vn -0.38268343236508967 0.923879532511287 0
vn 0.38268343236509 -0.9238795325112868 0
usemtl m_e1df8b6f-576e-0979-0449-689e504e4e9b
f 17/41/11 18/42/11 19/43/11 20/44/11
usemtl none
f 21/45/12 17/46/12 20/47/12 22/48/12
usemtl m_e1df8b6f-576e-0979-0449-689e504e4e9b
f 23/49/13 21/50/13 22/51/13 24/52/13
f 24/53/14 22/54/14 20/55/14 19/56/14
f 18/57/15 17/58/15 21/59/15 23/60/15
o cube
v 1.1875 -0.001187499999999897 0.8125
v 0.8125 -0.001187499999999897 0.8125
v 0.8125 0.999125 0.8125
v 1.1875 0.999125 0.8125
v 1.1875 -0.001187499999999897 1.1875
v 1.1875 0.999125 1.1875
v 0.8125 -0.001187499999999897 1.1875
v 0.8125 0.999125 1.1875
vt 0.4791666666666667 0.4582291666666667
vt 0.6041666666666666 0.4582291666666667
vt 0.6041666666666666 0.7916666666666666
vt 0.4791666666666667 0.7916666666666666
vt 0.3958333333333333 0.4582291666666667
vt 0.5208333333333334 0.4582291666666667
vt 0.5208333333333334 0.7916666666666666
vt 0.3958333333333333 0.7916666666666666
vt 0.4791666666666667 0.5207291666666667
vt 0.6041666666666666 0.5207291666666667
vt 0.6041666666666666 0.8541666666666666
vt 0.4791666666666667 0.8541666666666666
vt 0.3958333333333333 0.3748958333333333
vt 0.5208333333333334 0.3748958333333333
vt 0.5208333333333334 0.7083333333333333
vt 0.3958333333333333 0.7083333333333333
vt 0.125 0.0625
vt 0.25 0.0625
vt 0.25 0.1875
vt 0.125 0.1875
vt 0.10416666666666667 0.125
vt 0.22916666666666666 0.125
vt 0.22916666666666666 0.25
vt 0.10416666666666667 0.25
vn 0 0 -1
vn 1 0 0
vn 0 0 1
vn -1 0 0
vn 0 1 0
vn 0 -1 0
usemtl m_e1df8b6f-576e-0979-0449-689e504e4e9b
f 25/61/16 26/62/16 27/63/16 28/64/16
f 29/65/17 25/66/17 28/67/17 30/68/17
f 31/69/18 29/70/18 30/71/18 32/72/18
f 26/73/19 31/74/19 32/75/19 27/76/19
f 32/77/20 30/78/20 28/79/20 27/80/20
f 26/81/21 25/82/21 29/83/21 31/84/21
o cube
v 2.0109375 0.8255625 0.8687499999999999
v 1.1875 0.8255625 0.8687499999999999
v 1.1875 0.9990000000000001 0.8687499999999999
v 2.0109375 0.9990000000000001 0.8687499999999999
v 2.0109375 0.8255625 1.13125
v 2.0109375 0.9990000000000001 1.13125
v 1.1875 0.8255625 1.13125
v 1.1875 0.9990000000000001 1.13125
vt 0.4583333333333333 0.8125
vt 0.4583333333333333 0.5380208333333334
vt 0.5161458333333334 0.5380208333333334
vt 0.5161458333333333 0.8125
vt 0.1458333333333338 0.04635416666666592
vt 0.23333333333333384 0.04635416666666592
vt 0.23333333333333384 0.10416666666666596
vt 0.1458333333333338 0.10416666666666596
vt 0.4583333333333333 0.8125
vt 0.4583333333333333 0.5380208333333334
vt 0.5161458333333334 0.5380208333333334
vt 0.5161458333333333 0.8125
vt 0.45833333333333376 0.6505208333333325
vt 0.5458333333333338 0.6505208333333325
vt 0.5458333333333338 0.7083333333333326
vt 0.45833333333333376 0.7083333333333326
vt 0.4375 0.8125
vt 0.4375 0.5380208333333334
vt 0.525 0.5380208333333334
vt 0.525 0.8125
vt 0.4375 0.8125
vt 0.4375 0.5380208333333334
vt 0.525 0.5380208333333334
vt 0.525 0.8125
vn 0 0 -1
vn 1 0 0
vn 0 0 1
vn -1 0 0
vn 0 1 0
vn 0 -1 0
usemtl m_e1df8b6f-576e-0979-0449-689e504e4e9b
f 33/85/22 34/86/22 35/87/22 36/88/22
f 37/89/23 33/90/23 36/91/23 38/92/23
f 39/93/24 37/94/24 38/95/24 40/96/24
f 34/97/25 39/98/25 40/99/25 35/100/25
f 40/101/26 38/102/26 36/103/26 35/104/26
f 34/105/27 33/106/27 37/107/27 39/108/27