# Made in Blockbench 4.12.3
mtllib beam_round_e_down_2.mtl

o cube
v 1.3517353593733186 0.4757979604706073 0.875
v 1.1207654762454968 0.3801271023793349 0.875
v 0.9564806447197469 0.7767457707409795 0.875
v 1.1874505278475684 0.8724166288322519 0.875
v 1.3517353593733186 0.4757979604706073 1.125
v 1.1874505278475684 0.8724166288322519 1.125
v 1.1207654762454968 0.3801271023793349 1.125
v 0.9564806447197469 0.7767457707409795 1.125
vt 0.5625021041401023 0.7291666666666667
vt 0.4791666666666667 0.7291666666666667
vt 0.47916884952821676 0.5860681140261714
vt 0.5625023622585849 0.5860673167546357
vt 0.4791666666666667 0.544402083333333
vt 0.5625 0.544402083333333
vt 0.5625 0.6874999999999998
vt 0.4791666666666667 0.6874999999999998
vt 0.479166666666666 0.5444006500879679
vt 0.5625021041401016 0.5444006500879679
vt 0.5625023622585842 0.6874999999999989
vt 0.4791688495282161 0.687499202728463
vt 0.4375 0.5860687499999997
vt 0.5208333333333334 0.5860687499999997
vt 0.5208333333333334 0.7291666666666663
vt 0.4375 0.7291666666666663
vt 0.5833333333333334 0.4166666666666655
vt 0.5833333333333334 0.4999999999999988
vt 0.5 0.4999999999999988
vt 0.5 0.4166666666666655
vn 0 0 -1
vn 0.9238795325112867 0.3826834323650901 0
vn 0 0 1
vn -0.9238795325112868 -0.3826834323650896 0
vn 0.3826834323650896 -0.923879532511287 0
usemtl m_c31598b4-1375-a7e9-1a01-f35c82d8835a
f 1/1/1 2/2/1 3/3/1 4/4/1
f 5/5/2 1/6/2 4/7/2 6/8/2
f 7/9/3 5/10/3 6/11/3 8/12/3
f 2/13/4 7/14/4 8/15/4 3/16/4
f 2/17/5 1/18/5 5/19/5 7/20/5
o cube
v 1.4051925946037267 0.10931805594188837 0.8759768750000001
v 1.0591659137544456 0.4553447367911696 0.8759768750000001
v 1.2473363090046892 0.643515132041413 0.8759768750000001
v 1.5933629898539703 0.29748845119213185 0.8759768750000001
v 1.4051925946037267 0.10931805594188837 1.125976875
v 1.5933629898539703 0.29748845119213185 1.125976875
v 1.0591659137544456 0.4553447367911696 1.125976875
v 1.2473363090046892 0.643515132041413 1.125976875
vt 0.4583333333333333 0.7083333333333333
vt 0.4583333333333333 0.5452155840266166
vt 0.5470369327549308 0.5452155840266166
vt 0.5470369327549308 0.7083333333333333
vt 0.49999999999999895 0.4112958333333324
vt 0.5833333333333323 0.4112958333333324
vt 0.5833333333333323 0.4999999999999991
vt 0.49999999999999895 0.4999999999999991
vt 0.47916666666666713 0.6875000000000002
vt 0.4791666666666672 0.5243822506932834
vt 0.5678702660882646 0.5243822506932834
vt 0.5678702660882645 0.6875000000000002
vt 0.47916666666666563 0.6875000000000001
vt 0.47916666666666563 0.5243833333333334
vt 0.562499999999999 0.5243833333333334
vt 0.562499999999999 0.6875000000000001
vt 0.43750000000000105 0.7291666666666667
vt 0.43750000000000105 0.5660500000000002
vt 0.5208333333333344 0.5660500000000002
vt 0.5208333333333344 0.7291666666666667
vn 0 0 -1
vn 0.7071067811865474 -0.7071067811865478 0
vn 0 0 1
vn 0.7071067811865476 0.7071067811865476 0
vn -0.7071067811865477 -0.7071067811865475 0
usemtl m_c31598b4-1375-a7e9-1a01-f35c82d8835a
f 9/21/6 10/22/6 11/23/6 12/24/6
f 13/25/7 9/26/7 12/27/7 14/28/7
f 15/29/8 13/30/8 14/31/8 16/32/8
f 16/33/9 14/34/9 12/35/9 11/36/9
f 10/37/10 9/38/10 13/39/10 15/40/10
o cube
v 1.8430290644044867 0.0048545714593093425 0.8768500000000001
v 1.432109967907071 0.17506283426663738 0.8768500000000001
v 1.499378540002497 0.33746353334088697 0.8768500000000001
v 1.9102976364999122 0.16725527053355893 0.8768500000000001
v 1.8430290644044867 0.0048545714593093425 1.1268500000000001
v 1.9102976364999122 0.16725527053355893 1.1268500000000001
v 1.432109967907071 0.17506283426663738 1.1268500000000001
v 1.499378540002497 0.33746353334088697 1.1268500000000001
vt 0.5 0.729166295194513
vt 0.5 0.5809081169900245
vt 0.5585935574059133 0.580908488462178
vt 0.5585935574059134 0.7291666666666667
vt 0.49999999999999917 0.3372395833333337
vt 0.5833333333333325 0.3372395833333337
vt 0.5833333333333325 0.3958333333333337
vt 0.49999999999999917 0.3958333333333337
vt 0.47916666666666546 0.6874999999999991
vt 0.47916666666666546 0.5392418217955106
vt 0.537760224072579 0.5392414503233571
vt 0.5377602240725788 0.6874996285278456
vt 0.47916666666666585 0.6875000000000007
vt 0.47916666666666585 0.5392416666666673
vt 0.5624999999999991 0.5392416666666673
vt 0.5624999999999991 0.6875000000000007
vt 0.4375000000000009 0.7291666666666674
vt 0.4375000000000009 0.580908333333334
vt 0.5208333333333341 0.580908333333334
vt 0.5208333333333341 0.7291666666666674
vn 0 0 -1
vn 0.9238795325112876 -0.3826834323650882 0
vn 0 0 1
vn 0.38268343236509 0.9238795325112868 0
vn -0.38268343236508967 -0.923879532511287 0
usemtl m_c31598b4-1375-a7e9-1a01-f35c82d8835a
f 17/41/11 18/42/11 19/43/11 20/44/11
f 21/45/12 17/46/12 20/47/12 22/48/12
f 23/49/13 21/50/13 22/51/13 24/52/13
f 24/53/14 22/54/14 20/55/14 19/56/14
f 18/57/15 17/58/15 21/59/15 23/60/15
o cube
v 1.1875 0.0008749999999999591 0.8125
v 0.8125 0.0008749999999999591 0.8125
v 0.8125 1.0011875 0.8125
v 1.1875 1.0011875 0.8125
v 1.1875 0.0008749999999999591 1.1875
v 1.1875 1.0011875 1.1875
v 0.8125 0.0008749999999999591 1.1875
v 0.8125 1.0011875 1.1875
vt 0.4791666666666667 0.3123958333333331
vt 0.6041666666666666 0.3123958333333331
vt 0.6041666666666666 0.6458333333333333
vt 0.4791666666666667 0.6458333333333333
vt 0.3958333333333333 0.3957291666666666
vt 0.5208333333333334 0.3957291666666666
vt 0.5208333333333334 0.7291666666666665
vt 0.3958333333333333 0.7291666666666665
vt 0.4791666666666667 0.3957291666666666
vt 0.6041666666666666 0.3957291666666666
vt 0.6041666666666666 0.7291666666666665
vt 0.4791666666666667 0.7291666666666665
vt 0.4166666666666667 0.5415625
vt 0.5416666666666666 0.5415625
vt 0.5416666666666666 0.8749999999999999
vt 0.4166666666666667 0.8749999999999999
vt 0.16666666666666666 0.02083333333333337
vt 0.2916666666666667 0.02083333333333337
vt 0.2916666666666667 0.14583333333333337
vt 0.16666666666666666 0.14583333333333337
vt 0.125 0.08333333333333337
vt 0.25 0.08333333333333337
vt 0.25 0.20833333333333337
vt 0.125 0.20833333333333337
vn 0 0 -1
vn 1 0 0
vn 0 0 1
vn -1 0 0
vn 0 1 0
vn 0 -1 0
usemtl m_c31598b4-1375-a7e9-1a01-f35c82d8835a
f 25/61/16 26/62/16 27/63/16 28/64/16
f 29/65/17 25/66/17 28/67/17 30/68/17
f 31/69/18 29/70/18 30/71/18 32/72/18
f 26/73/19 31/74/19 32/75/19 27/76/19
f 32/77/20 30/78/20 28/79/20 27/80/20
f 26/81/21 25/82/21 29/83/21 31/84/21
o cube
v 2.0109375 0.0009999999999998899 0.8687499999999999
v 1.1875 0.0009999999999998899 0.8687499999999999
v 1.1875 0.17443750000000002 0.8687499999999999
v 2.0109375 0.17443750000000002 0.8687499999999999
v 2.0109375 0.0009999999999998899 1.13125
v 2.0109375 0.17443750000000002 1.13125
v 1.1875 0.0009999999999998899 1.13125
v 1.1875 0.17443750000000002 1.13125
vt 0.4583333333333333 0.7916666666666666
vt 0.4583333333333333 0.5171875000000001
vt 0.5161458333333334 0.5171875000000001
vt 0.5161458333333334 0.7916666666666666
vt 0.1666666666666671 0.12968749999999885
vt 0.25416666666666715 0.12968749999999885
vt 0.25416666666666715 0.18749999999999878
vt 0.1666666666666671 0.18749999999999878
vt 0.4583333333333333 0.7916666666666666
vt 0.4583333333333333 0.5171875000000001
vt 0.5161458333333334 0.5171875000000001
vt 0.5161458333333334 0.7916666666666666
vt 0.45833333333333376 0.6296874999999988
vt 0.5458333333333338 0.6296874999999988
vt 0.5458333333333338 0.6874999999999989
vt 0.45833333333333376 0.6874999999999989
vt 0.4375 0.7916666666666666
vt 0.4375 0.5171875000000001
vt 0.525 0.5171875000000001
vt 0.525 0.7916666666666666
vt 0.4375 0.7916666666666666
vt 0.4375 0.5171875000000001
vt 0.525 0.5171875000000001
vt 0.525 0.7916666666666666
vn 0 0 -1
vn 1 0 0
vn 0 0 1
vn -1 0 0
vn 0 1 0
vn 0 -1 0
usemtl m_c31598b4-1375-a7e9-1a01-f35c82d8835a
f 33/85/22 34/86/22 35/87/22 36/88/22
f 37/89/23 33/90/23 36/91/23 38/92/23
f 39/93/24 37/94/24 38/95/24 40/96/24
f 34/97/25 39/98/25 40/99/25 35/100/25
f 40/101/26 38/102/26 36/103/26 35/104/26
f 34/105/27 33/106/27 37/107/27 39/108/27