# Made in Blockbench 5.1.4
mtllib beam_round_e.mtl

o cube
v 0.1875 -0.001187499999999897 0.8125
v -0.1875 -0.001187499999999897 0.8125
v -0.1875 0.999125 0.8125
v 0.1875 0.999125 0.8125
v 0.1875 -0.001187499999999897 1.1875
v 0.1875 0.999125 1.1875
v -0.1875 -0.001187499999999897 1.1875
v -0.1875 0.999125 1.1875
vt 0.4583333333333333 0.3957291666666669
vt 0.5833333333333334 0.3957291666666669
vt 0.5833333333333334 0.729166666666667
vt 0.4583333333333333 0.729166666666667
vt 0.375 0.3957291666666669
vt 0.5 0.3957291666666669
vt 0.5 0.729166666666667
vt 0.375 0.729166666666667
vt 0.4583333333333333 0.3957291666666669
vt 0.5833333333333334 0.3957291666666669
vt 0.5833333333333334 0.729166666666667
vt 0.4583333333333333 0.729166666666667
vt 0.375 0.3957291666666669
vt 0.5 0.3957291666666669
vt 0.5 0.729166666666667
vt 0.375 0.729166666666667
vt 0.12499999999999994 0.08333333333333337
vt 0.25000000000000006 0.08333333333333337
vt 0.25000000000000006 0.20833333333333337
vt 0.12499999999999994 0.20833333333333337
vt 0.1458333333333334 0.0625
vt 0.2708333333333334 0.0625
vt 0.2708333333333334 0.1875
vt 0.1458333333333334 0.1875
vn 0 0 -1
vn 1 0 0
vn 0 0 1
vn -1 0 0
vn 0 1 0
vn 0 -1 0
usemtl m_3d5bda16-9023-88f7-f101-51d1c33e8458
f 1/1/1 2/2/1 3/3/1 4/4/1
f 5/5/2 1/6/2 4/7/2 6/8/2
f 7/9/3 5/10/3 6/11/3 8/12/3
f 2/13/4 7/14/4 8/15/4 3/16/4
f 8/17/5 6/18/5 4/19/5 3/20/5
f 2/21/6 1/22/6 5/23/6 7/24/6
o cube
v -0.1875 0.8255625 0.8687499999999999
v -1.0109375 0.8255625 0.8687499999999999
v -1.0109375 0.9989999999999999 0.8687499999999999
v -0.1875 0.9989999999999999 0.8687499999999999
v -0.1875 0.8255625 1.13125
v -0.1875 0.9989999999999999 1.13125
v -1.0109375 0.8255625 1.13125
v -1.0109375 0.9989999999999999 1.13125
vt 0.4583333333333333 0.8958333333333334
vt 0.4583333333333333 0.6213541666666667
vt 0.5161458333333334 0.6213541666666667
vt 0.5161458333333333 0.8958333333333334
vt 0.45833333333333376 0.7338541666666658
vt 0.5458333333333338 0.7338541666666658
vt 0.5458333333333338 0.7916666666666659
vt 0.45833333333333376 0.7916666666666659
vt 0.5416666666666666 0.8541666666666666
vt 0.5416666666666666 0.5796874999999999
vt 0.5994791666666667 0.5796874999999999
vt 0.5994791666666667 0.8541666666666666
vt 0.11458333333333381 0.19218749999999918
vt 0.20208333333333375 0.19218749999999918
vt 0.20208333333333375 0.2499999999999991
vt 0.11458333333333381 0.2499999999999991
vt 0.5208333333333334 0.9166666666666666
vt 0.5208333333333334 0.6421874999999999
vt 0.6083333333333334 0.6421874999999999
vt 0.6083333333333333 0.9166666666666666
vt 0.3958333333333333 0.8958333333333334
vt 0.3958333333333334 0.6213541666666667
vt 0.4833333333333334 0.6213541666666667
vt 0.4833333333333334 0.8958333333333334
vn 0 0 -1
vn 1 0 0
vn 0 0 1
vn -1 0 0
vn 0 1 0
vn 0 -1 0
usemtl m_3d5bda16-9023-88f7-f101-51d1c33e8458
f 9/25/7 10/26/7 11/27/7 12/28/7
f 13/29/8 9/30/8 12/31/8 14/32/8
f 15/33/9 13/34/9 14/35/9 16/36/9
f 10/37/10 15/38/10 16/39/10 11/40/10
f 16/41/11 14/42/11 12/43/11 11/44/11
f 10/45/12 9/46/12 13/47/12 15/48/12
o cube
v -0.1480678247048382 0.6046165817807332 1.125
v -0.1480678247048382 0.6046165817807332 0.875
v 0.01935617695488856 0.20041928630704525 1.125
v 0.01935617695488856 0.20041928630704525 0.875
v -0.3501664724416822 0.5209045809508699 0.875
v -0.3501664724416822 0.5209045809508699 1.125
v -0.18274247078195544 0.1167072854771819 0.875
v -0.18274247078195544 0.1167072854771819 1.125
vt 0.4270833333333333 0.7447916666666667
vt 0.3541666666666667 0.7447916666666667
vt 0.3541666666666667 0.5989583333333333
vt 0.4270833333333333 0.5989583333333333
vt 0.4479166666666667 0.625
vt 0.53125 0.625
vt 0.53125 0.47916666666666663
vt 0.4479166666666667 0.47916666666666663
vt 0.6041666666666666 0.6145833333333333
vt 0.53125 0.6145833333333333
vt 0.53125 0.46875
vt 0.6041666666666666 0.46875
vt 0.4479166666666667 0.5729166666666667
vt 0.53125 0.5729166666666667
vt 0.53125 0.42708333333333337
vt 0.4479166666666667 0.42708333333333337
vn 0 0 -1
vn 0.9238795325112867 0.3826834323650897 0
vn 0 0 1
vn -0.9238795325112867 -0.3826834323650897 0
usemtl m_3d5bda16-9023-88f7-f101-51d1c33e8458
f 20/52/13 23/51/13 21/50/13 18/49/13
f 19/56/14 20/55/14 18/54/14 17/53/14
f 24/60/15 19/59/15 17/58/15 22/57/15
f 23/64/16 24/63/16 22/62/16 21/61/16
o cube
v -0.42124572996559706 0.906115281697632 1.125244140625
v -0.42124572996559706 0.906115281697632 0.874755859375
v -0.11188651319648252 0.5967560649285175 1.125244140625
v -0.11188651319648252 0.5967560649285175 0.874755859375
v -0.6090709687182737 0.7182900429449552 0.874755859375
v -0.6090709687182737 0.7182900429449552 1.125244140625
v -0.2997117519491592 0.40893082617584076 0.874755859375
v -0.2997117519491592 0.40893082617584076 1.125244140625
vt 0.4635416666666667 0.8125
vt 0.375 0.8125
vt 0.375 0.6666666666666667
vt 0.4635416666666667 0.6666666666666667
vt 0.4479166666666667 0.625
vt 0.53125 0.625
vt 0.53125 0.47916666666666663
vt 0.4479166666666667 0.47916666666666663
vt 0.6052083333333332 0.8125
vt 0.5166666666666667 0.8125
vt 0.5166666666666667 0.6666666666666667
vt 0.6052083333333332 0.6666666666666667
vt 0.5208333333333334 0.375
vt 0.6041666666666666 0.375
vt 0.6041666666666666 0.22916666666666663
vt 0.5208333333333334 0.22916666666666663
vn 0 0 -1
vn 0.7071067811865475 0.7071067811865476 0
vn 0 0 1
vn -0.7071067811865475 -0.7071067811865476 0
usemtl m_3d5bda16-9023-88f7-f101-51d1c33e8458
f 28/68/17 31/67/17 29/66/17 26/65/17
f 27/72/18 28/71/18 26/70/18 25/69/18
f 32/76/19 27/75/19 25/74/19 30/73/19
f 31/80/20 32/79/20 30/78/20 29/77/20
o cube
v -0.8631013439657116 0.9994222900509668 1.125
v -0.8631013439657116 0.9994222900509668 0.875
v -0.4589040484920237 0.8319982883912401 1.125
v -0.4589040484920237 0.8319982883912401 0.875
v -0.9288750589034613 0.8406304954005895 0.875
v -0.9288750589034613 0.8406304954005895 1.125
v -0.5246777634297735 0.6732064937408627 0.875
v -0.5246777634297735 0.6732064937408627 1.125
vt 0.4114583333333333 0.5
vt 0.3541666666666667 0.5
vt 0.3541666666666667 0.35416666666666663
vt 0.4114583333333333 0.35416666666666663
vt 0.4479166666666667 0.625
vt 0.53125 0.625
vt 0.53125 0.47916666666666663
vt 0.4479166666666667 0.47916666666666663
vt 0.6041666666666666 0.6145833333333333
vt 0.546875 0.6145833333333333
vt 0.546875 0.46875
vt 0.6041666666666666 0.46875
vt 0.4270833333333333 0.7083333333333333
vt 0.5104166666666666 0.7083333333333333
vt 0.5104166666666666 0.5625
vt 0.4270833333333333 0.5625
vn 0 0 -1
vn 0.38268343236508984 0.9238795325112866 0
vn 0 0 1
vn -0.38268343236508984 -0.9238795325112866 0
usemtl m_3d5bda16-9023-88f7-f101-51d1c33e8458
f 36/84/21 39/83/21 37/82/21 34/81/21
f 35/88/22 36/87/22 34/86/22 33/85/22
f 40/92/23 35/91/23 33/90/23 38/89/23
f 39/96/24 40/95/24 38/94/24 37/93/24