# Made in Blockbench 4.8.1
mtllib beech_branch_45_diagonal.mtl

o cube
v 0.78076171875 1.1875 0.78125
v 0.78076171875 1 0.21875
v 0.21923828125 1 0.78125
v 0.21923828125 1 0.21875
v 1.7802734375 0.1875 1.78076171875
v 1.780517578125 0 1.218994140625
v 1.2197265625 0 1.78076171875
v 1.219482421875 0 1.218994140625
v 1.780517578125 0 1.781005859375
vt 0.40625 0.10966666666666669
vt 0.40625 0.20833333333333337
vt 0.3359375 0.10966666666666669
vt 0.3125 0.34375
vt 0.3825984375 0.34375
vt 0.38256796875 0.375
vt 0.4061890625 0.26041666666666663
vt 0.33596796875 0.29166666666666663
vt 0.3359375 0.26041666666666663
vt 0.39825468750000004 0.44799791666666666
vt 0.39825468750000004 0.5416666666666667
vt 0.32815546875 0.5416260416666667
vt 0.328125 0.44799791666666666
vt 0.407396875 0.2064583333333333
vt 0.33328125 0.2064583333333333
vt 0.33328125 0.11287083333333314
vt 0.43006385523756907 0.8937857222672045
vt 0.37265625 0.9479166666666666
vt 0.3726562500000001 0.6591944068365705
vt 0.4299770458882704 0.6051108696227325
vt 0.3150245773701823 0.8942370819296631
vt 0.3140625 0.6055654286902958
vt 0.3715093768809732 0.6591984103418458
vt 0.3725213713288543 0.9479166666666666
vt 0.3216310777035239 0.9047252515613563
vt 0.3216310777035237 0.616050785082987
vt 0.390625048060442 0.6521481475601927
vt 0.3905602833791082 0.9407291666666666
vt 0.4284596043517427 0.9089304218987738
vt 0.359375 0.9442892152124874
vt 0.3609225643285801 0.65562216863929
vt 0.42990988803169866 0.6203555199207049
vn -0.3167226020570755 0.9485182092855126 0
vn -0.00043535004713267665 0.001301515245073731 0.9999990582637582
vn 0.9999991522905745 0.0013020822295450188 0
vn 0 -1 0
vn 0 0.9486832980505139 -0.31622776601683794
vn -0.7070204697097962 -0.707193082129159 0
vn 0 -0.7071930821291589 -0.7070204697097962
vn 0.7845566138537913 0.5882379005916281 -0.19607930019720937
vn -0.19631769620652062 0.5879306006184862 0.7847273227131513
usemtl m_76900f67-a15c-46a1-f269-309c3f9303ad
f 3/1/1 1/2/1 4/3/1
f 7/4/2 9/5/2 5/6/2
f 6/7/3 5/8/3 9/9/3
f 6/10/4 9/11/4 7/12/4 8/13/4
f 1/14/5 2/15/5 4/16/5
f 3/17/6 4/18/6 8/19/6 7/20/6
f 2/21/7 6/22/7 8/23/7 4/24/7
f 6/25/8 2/26/8 1/27/8 5/28/8
f 1/29/9 3/30/9 7/31/9 5/32/9