# Made in Blockbench 4.8.1
mtllib beech_leaves_orangeish_vertical_slab_4.mtl

o cube
v 0.6946232536880705 -0.5038711956911417 -0.6562462926596748
v 1.1103033939047529 0.9294542255461575 -0.8072040942611753
v 0.6946232536880705 -0.5038711956911417 -0.6562462926596748
v 1.1103033939047529 0.9294542255461575 -0.8072040942611753
v 1.1594848236389885 1.072367053307156 0.6851621847168281
v 0.7438046834223062 -0.36095836793014324 0.8361199863183284
v 1.1594848236389885 1.072367053307156 0.6851621847168281
v 0.7438046834223062 -0.36095836793014324 0.8361199863183284
vt 0.07073479729729729 0.7342342342342343
vt 0.07073479729729729 0.9504504504504505
vt 0.25823479729729726 0.9504504504504505
vt 0.25823479729729726 0.7342342342342343
vn 0.9602757030026408 -0.279009486494455 -0.004927541870409772
usemtl m_ac3d92fe-f5b1-a3a3-7d87-db428bb26680
f 6/4/1 1/3/1 2/2/1 5/1/1
o cube
v -0.44299430473073054 1.5642945014923062 0.5420765611736438
v -0.7646840533792345 -0.2789819140840807 0.5331049310072558
v 1.5749220449971841 1.2148864690404548 -0.024979549241268384
v 1.2532322963486802 -0.6283899465359322 -0.033951179407656296
v -0.7646840533792345 -0.2789819140840807 0.5331049310072558
v -0.44299430473073054 1.5642945014923062 0.5420765611736438
v 1.2532322963486802 -0.6283899465359322 -0.033951179407656296
v 1.5749220449971841 1.2148864690404548 -0.024979549241268384
vt 0.727278774634009 0.9324324324324319
vt 0.49338400900900903 0.9324324324324319
vt 0.49338400900900903 0.6261261261261256
vt 0.727278774634009 0.6261261261261256
vt 0.49338400900900914 0.9324324324324325
vt 0.7272787746340091 0.9324324324324325
vt 0.7272787746340091 0.6261261261261262
vt 0.49338400900900914 0.6261261261261262
vn -0.2620852844320591 0.050429953550621395 -0.9637261662261998
vn 0.2620852844320591 -0.050429953550621395 0.9637261662261998
usemtl m_ac3d92fe-f5b1-a3a3-7d87-db428bb26680
f 11/8/2 12/7/2 10/6/2 9/5/2
f 15/12/3 16/11/3 14/10/3 13/9/3
o cube
v 0.9569431152910521 -0.3011080360832986 1.308979898813499
v 0.9569431152910521 -0.3011080360832986 1.308979898813499
v -0.8956317031287877 -0.21282925434888367 0.03513791534294852
v -0.8956317031287877 -0.21282925434888367 0.03513791534294852
v 1.9590001033722881 0.8553357895490197 -0.06818941530369227
v 1.9590001033722881 0.8553357895490197 -0.06818941530369227
v 0.10642528495244852 0.9436145712834345 -1.3420313987742432
v 0.10642528495244852 0.9436145712834345 -1.3420313987742432
vt 0.49001577421171194 0.6126126126126127
vt 0.747348117961712 0.6126126126126127
vt 0.747348117961712 0.936936936936937
vt 0.49001577421171194 0.936936936936937
vt 0.747348117961712 0.16216216216216195
vt 0.49001577421171194 0.16216216216216195
vt 0.49001577421171194 0.4864864864864863
vt 0.747348117961712 0.4864864864864863
vn 0.2917869310833695 -0.8263787075027386 -0.4816208245446333
vn -0.2917869310833695 0.8263787075027386 0.4816208245446333
usemtl m_ac3d92fe-f5b1-a3a3-7d87-db428bb26680
f 20/16/4 23/15/4 21/14/4 18/13/4
f 24/20/5 19/19/5 17/18/5 22/17/5
o cube
v 1.4676662535698597 -0.29534308732076275 0.3542901142742343
v 1.4676662535698597 -0.29534308732076275 0.3542901142742343
v -0.009545375948452617 -0.2953430873207631 0.09381784777383884
v -0.009545375948452617 -0.2953430873207631 0.09381784777383884
v 1.411289736766931 1.1691009233591372 0.6740172290720534
v 1.411289736766931 1.1691009233591372 0.6740172290720534
v -0.06592189275138116 1.169100923359137 0.4135449625716582
v -0.06592189275138116 1.169100923359137 0.4135449625716582
vt 0.08245354729729727 0.29729729729729704
vt 0.26995354729729726 0.29729729729729704
vt 0.26995354729729726 0.08108108108108081
vt 0.08245354729729727 0.08108108108108081
vn -0.16953202249987673 -0.21643961393810293 0.9614638770465723
usemtl m_ac3d92fe-f5b1-a3a3-7d87-db428bb26680
f 32/24/6 27/23/6 25/22/6 30/21/6
o cube
v 1.2679969861955618 -0.5450788414321328 -0.26304937077897395
v 1.2679969861955618 -0.5450788414321328 -0.26304937077897395
v -0.17090445578180868 -0.27403429159822934 0.0626767293124687
v -0.17090445578180868 -0.27403429159822934 0.0626767293124687
v 1.5842214076757113 0.909271505786502 -0.07632180772364738
v 1.5842214076757113 0.909271505786502 -0.07632180772364738
v 0.1453199656983406 1.1803160556204055 0.24940429236779527
v 0.1453199656983406 1.1803160556204055 0.24940429236779527
vt 0.08741554054054054 0.30855855855855885
vt 0.27491554054054057 0.30855855855855885
vt 0.27491554054054057 0.09234234234234262
vt 0.08741554054054054 0.09234234234234262
vn -0.188048168220555 0.16519338102205844 -0.9681678745421142
usemtl m_ac3d92fe-f5b1-a3a3-7d87-db428bb26680
f 36/28/7 39/27/7 37/26/7 34/25/7
o cube
v 0.15258092337802776 1.0939917994569215 0.782179165163797
v 0.15258092337802798 -0.40458053291586515 0.7167500841157932
v 0.15258092337802776 1.0939917994569215 0.782179165163797
v 0.15258092337802798 -0.40458053291586515 0.7167500841157932
v 0.15258092337802798 -0.33915145186786133 -0.7818222482569936
v 0.15258092337802776 1.1594208805049253 -0.7163931672089898
v 0.15258092337802798 -0.33915145186786133 -0.7818222482569936
v 0.15258092337802776 1.1594208805049253 -0.7163931672089898
vt 0.06999577702702703 0.41891891891891864
vt 0.06999577702702703 0.6351351351351349
vt 0.25749577702702703 0.6351351351351349
vt 0.25749577702702703 0.41891891891891864
vn -1 -2.220446049250313e-16 0
usemtl m_ac3d92fe-f5b1-a3a3-7d87-db428bb26680
f 47/32/8 44/31/8 43/30/8 48/29/8
o cube
v 1.8836422796277548 -0.215284221897585 0.9256251488480642
v 0.5415550168119725 1.4547286757722482 1.3477880409674012
v 0.6287417799792305 -0.6905485562726146 -1.1837227476481356
v -0.7133454828365517 0.9794643413972186 -0.7615598555287987
v 0.5415550168119725 1.4547286757722482 1.3477880409674012
v 1.8836422796277548 -0.215284221897585 0.9256251488480642
v -0.7133454828365517 0.9794643413972186 -0.7615598555287987
v 0.6287417799792305 -0.6905485562726146 -1.1837227476481356
vt 0.7405914393299544 0.4864864864864862
vt 0.4715404237049544 0.4864864864864862
vt 0.4715404237049544 0.12612612612612584
vt 0.7405914393299544 0.12612612612612584
vt 0.47154042370495497 0.9369369369369371
vt 0.740591439329955 0.9369369369369371
vt 0.740591439329955 0.5765765765765768
vt 0.47154042370495497 0.5765765765765768
vn 0.6085200222265477 0.6156094363880218 -0.5007278745780229
vn -0.6085200222265477 -0.6156094363880218 0.5007278745780229
usemtl m_ac3d92fe-f5b1-a3a3-7d87-db428bb26680
f 51/36/9 52/35/9 50/34/9 49/33/9
f 55/40/10 56/39/10 54/38/10 53/37/10
o cube
v 1.417944916321796 0.20187048051842338 -0.5384889699773362
v -0.03323081050992738 -0.14810925076211634 -0.6854692324183208
v 1.3079125903972293 0.03383593515554906 0.948002630677145
v -0.14326313643449418 -0.31614379612499066 0.8010223682361604
v -0.03323081050992738 -0.14810925076211634 -0.6854692324183208
v 1.417944916321796 0.20187048051842338 -0.5384889699773362
v -0.14326313643449418 -0.31614379612499066 0.8010223682361604
v 1.3079125903972293 0.03383593515554906 0.948002630677145
vt 0.06820101351351351 0.9459459459459459
vt 0.2557010135135135 0.9459459459459459
vt 0.2557010135135135 0.7297297297297298
vt 0.06820101351351351 0.7297297297297298
vn 0.24219541889974291 -0.9659258262890683 -0.09126158650691321
usemtl m_ac3d92fe-f5b1-a3a3-7d87-db428bb26680
f 59/44/11 60/43/11 58/42/11 57/41/11
o cube
v -0.07935704170716495 0.9994424332781895 0.7612604761637265
v 1.4065629912408562 0.7960812374973338 0.7350711704391955
v -0.12124917874401253 0.8858883086802374 -0.7338483859735024
v 1.3646708542040085 0.682527112899382 -0.7600376916980335
v 1.4065629912408562 0.7960812374973338 0.7350711704391955
v -0.07935704170716495 0.9994424332781895 0.7612604761637265
v 1.3646708542040085 0.682527112899382 -0.7600376916980335
v -0.12124917874401253 0.8858883086802374 -0.7338483859735024
vt 0.2519355292792793 0.9234234234234233
vt 0.06443552927927927 0.9234234234234233
vt 0.06443552927927927 0.7072072072072071
vt 0.2519355292792793 0.7072072072072071
vn 0.1338103210406239 0.9878708158542848 -0.07877848162026725
usemtl m_ac3d92fe-f5b1-a3a3-7d87-db428bb26680
f 71/48/12 72/47/12 70/46/12 69/45/12