# Made in Blockbench 4.8.1
mtllib beech_trunk_horizontal.mtl

o cube
v 0.5 0.2815284361102725 -0.5
v 0.5 0.28187370309327375 0.5
v 0.7804549363203074 5.99133362866322e-7 -0.78125
v 0.7807994843432732 0 0.78125
v 0.2195450636796924 5.991333628385664e-7 -0.78125
v 0.2192005156567266 -2.7755575615628914e-17 0.78125
v 0.5 -0.2805518736102725 -0.5
v 0.5 -0.28089714059327375 0.5
vt 0.34375 0.875
vt 0.390625 0.8333333333333334
vt 0.390625 0.6666666666666667
vt 0.34375 0.6145833333333333
vt 0.38802083333333326 0.8125
vt 0.38802083333333326 0.5520833333333333
vt 0.33854166666666663 0.6041666666666667
vt 0.33854166666666663 0.7708333333333334
vt 0.390625 0.38541666666666663
vt 0.390625 0.21562500000000007
vt 0.34375 0.17708333333333337
vt 0.34375 0.4375
vt 0.33854166666666663 0.35416666666666663
vt 0.37760416666666663 0.40625
vt 0.37760416666666663 0.14583333333333337
vt 0.33854166666666663 0.1875
vt 0.34375 0.6979166666666667
vt 0.390625 0.65625
vt 0.34375 0.6041666666666667
vt 0.375 0.48958333333333337
vt 0.328125 0.5416666666666667
vt 0.375 0.5833333333333333
vt 0.375 0.45833333333333337
vt 0.375 0.5520833333333333
vt 0.421875 0.5
vt 0.38802083333333326 0.42708333333333337
vt 0.38802083333333326 0.33333333333333337
vt 0.33854166666666663 0.38541666666666663
vn 0.708333683431488 0.7058777043644052 -0.00024371626535374223
vn -0.7071513977316409 -0.7070621445714649 -0.000156205593949688
vn -0.7083336834314878 0.7058777043644053 -0.00024371626535374223
vn 0.7071513977316414 -0.7070621445714644 -0.00015620559394968807
vn -5.551115123125783e-17 0.7067576045333404 -0.7074557854977898
vn -5.551115123125784e-17 0.7063231724554032 0.7078895224909992
vn 5.551115123125783e-17 -0.7075504922788045 0.7066627914897045
vn 5.551115123125783e-17 -0.707984170847902 -0.7062283014923778
usemtl m_ec5c35da-efa7-3432-ccfe-bf13ffa2ea44
f 3/1/1 1/2/1 2/3/1 4/4/1
f 6/5/2 5/6/2 7/7/2 8/8/2
f 2/9/3 1/10/3 5/11/3 6/12/3
f 7/13/4 3/14/4 4/15/4 8/16/4
f 5/17/5 1/18/5 3/19/5
f 4/20/6 2/21/6 6/22/6
f 4/23/7 6/24/7 8/25/7
f 5/26/8 3/27/8 7/28/8