# Made in Blockbench 4.8.1
mtllib beech_leaves_orangeish_slab.mtl

o cube
v 1.9673554237834296 0.6878875222920331 0.8011466516163845
v 0.11810250571539493 1.484452362445465 1.4803911587330751
v 0.9532698287029506 -0.6918940755813998 -0.34161597625023565
v -0.895983089365084 0.10467076457203217 0.33762853086645495
v 0.11810250571539493 1.484452362445465 1.4803911587330751
v 1.9673554237834296 0.6878875222920331 0.8011466516163845
v -0.895983089365084 0.10467076457203217 0.33762853086645495
v 0.9532698287029506 -0.6918940755813998 -0.34161597625023565
vt 0.7576703768266814 0.16423845720720698
vt 0.7576703768266814 0.47054476351351326
vt 0.5023329349662162 0.47054476351351326
vt 0.5023329349662162 0.16423845720720698
vt 0.7576703768266816 0.9209952139639636
vt 0.7576703768266816 0.6146889076576573
vt 0.5023329349662164 0.6146889076576573
vt 0.5023329349662164 0.9209952139639636
vn -0.006154675348239408 0.6405244180047436 -0.7679131395613975
vn 0.006154675348239408 -0.6405244180047436 0.7679131395613975
usemtl m_ac3d92fe-f5b1-a3a3-7d87-db428bb26680
f 3/4/1 4/3/1 2/2/1 1/1/1
f 7/8/2 8/7/2 6/6/2 5/5/2
o cube
v 1.5611294765138943 -0.5067090963188079 0.48396694054795164
v 0.8540736917642984 1.3232062269553153 -0.6178415849675729
v 1.5611294765138943 -0.5067090963188079 0.48396694054795164
v 0.8540736917642984 1.3232062269553153 -0.6178415849675729
v -1.020032096203147 1.0929460199475223 0.20239227286031047
v -0.31297631145355076 -0.7369693033266009 1.304200798375835
v -1.020032096203147 1.0929460199475223 0.20239227286031047
v -0.31297631145355076 -0.7369693033266009 1.304200798375835
vt 0.7654827980960615 0.9366905968468469
vt 0.5101452787162164 0.9366905968468469
vt 0.5101452787162164 0.6123662725225225
vt 0.7654827980960615 0.6123662725225225
vt 0.7654827980960617 0.16191582207207178
vt 0.5101452787162166 0.16191582207207178
vt 0.5101452787162166 0.48624014639639623
vt 0.7654827980960617 0.48624014639639623
vn 0.26927043227955766 0.570998920518885 0.7755344396390456
vn -0.26927043227955766 -0.570998920518885 -0.7755344396390456
usemtl m_ac3d92fe-f5b1-a3a3-7d87-db428bb26680
f 14/12/3 9/11/3 10/10/3 13/9/3
f 15/16/4 12/15/4 11/14/4 16/13/4
o cube
v 0.0327256472388886 1.1859137866242837 0.5110528274955302
v 0.0327256472388886 1.1859137866242837 0.5110528274955302
v 1.5257114495557955 1.0587050832078186 0.441689005114952
v 1.5257114495557955 1.0587050832078186 0.441689005114952
v -0.11018718052210996 -0.22522952477750202 0.02294374302018576
v -0.11018718052210996 -0.22522952477750202 0.02294374302018576
v 1.382798621794797 -0.35243822819396675 -0.0464200793603925
v 1.382798621794797 -0.35243822819396675 -0.0464200793603925
vt 0.08125703828828829 0.9636824324324325
vt 0.08125703828828829 0.7474662162162162
vt 0.2673035499161953 0.7474662162162162
vt 0.2673035499161953 0.9636824324324325
vn -0.015906920108314737 0.3282901836019169 -0.9444429708792836
usemtl m_ac3d92fe-f5b1-a3a3-7d87-db428bb26680
f 20/20/5 23/19/5 21/18/5 18/17/5
o cube
v 1.2264117073303658 0.4116601886766047 1.1531611965885014
v 1.227758708948835 0.13908435895233406 -0.3218644312013229
v 1.2264117073303658 0.4116601886766047 1.1531611965885014
v 1.227758708948835 0.13908435895233406 -0.3218644312013229
v -0.23668530173106483 -0.18040609957603354 -0.26416186199420577
v -0.23803230334953418 0.09216973014823693 1.2108637657956187
v -0.23668530173106483 -0.18040609957603354 -0.26416186199420577
v -0.23803230334953418 0.09216973014823693 1.2108637657956187
vt 0.286036036036036 0.09448902027027006
vt 0.472082547663943 0.09448902027027006
vt 0.472082547663943 0.3107052364864862
vt 0.286036036036036 0.3107052364864862
vn 0.21643775104111843 -0.9600065425609138 0.17760106464912687
usemtl m_ac3d92fe-f5b1-a3a3-7d87-db428bb26680
f 31/24/6 28/23/6 27/22/6 32/21/6
o cube
v 1.2082054761086072 0.4176444577719165 1.3076310236791604
v 1.4758980255129681 0.7820825919794712 -0.12258768173924861
v 1.2082054761086072 0.4176444577719165 1.3076310236791604
v 1.4758980255129681 0.7820825919794712 -0.12258768173924861
v 0.02154767829433324 0.5996184275388292 -0.44129114303205386
v -0.2461448711100277 0.23518029333127466 0.9889275623863552
v 0.02154767829433324 0.5996184275388292 -0.44129114303205386
v -0.2461448711100277 0.23518029333127466 0.9889275623863552
vt 0.2539308021684475 0.30373733108108136
vt 0.06788429054054054 0.30373733108108136
vt 0.06788429054054054 0.08752111486486513
vt 0.2539308021684475 0.08752111486486513
vn -0.16760504704470497 0.9623793835028066 0.21385619096462963
usemtl m_ac3d92fe-f5b1-a3a3-7d87-db428bb26680
f 38/28/7 33/27/7 34/26/7 37/25/7
o cube
v 1.3363220715793949 -0.2167500841157931 0.9953125
v 1.3363220715793949 -0.2167500841157931 0.9953125
v -0.1622502607933919 -0.28217916516379693 0.9953125
v -0.1622502607933919 -0.28217916516379693 0.9953125
v 1.270892990531391 1.2818222482569936 0.9953125
v 1.270892990531391 1.2818222482569936 0.9953125
v -0.2276793418413957 1.2163931672089898 0.9953125
v -0.2276793418413957 1.2163931672089898 0.9953125
vt 0.257238797663943 0.4009009009009008
vt 0.257238797663943 0.617117117117117
vt 0.07119228603603604 0.617117117117117
vt 0.07119228603603604 0.4009009009009008
vn 0 0 1
usemtl m_ac3d92fe-f5b1-a3a3-7d87-db428bb26680
f 48/32/8 43/31/8 41/30/8 46/29/8
o cube
v 1.017665947210215 -0.29743884292580147 1.3802973240676413
v 1.299661825020721 1.1688429441235488 1.2371329225383265
v 0.6315541380417522 -0.3645512893612698 -0.06760239288588565
v 0.913550015852258 1.1017304976880804 -0.2107667944152003
v 1.299661825020721 1.1688429441235488 1.2371329225383265
v 1.017665947210215 -0.29743884292580147 1.3802973240676413
v 0.913550015852258 1.1017304976880804 -0.2107667944152003
v 0.6315541380417522 -0.3645512893612698 -0.06760239288588565
vt 0.267761038654934 0.7477125563063063
vt 0.267761038654934 0.9639287725225225
vt 0.08171452702702704 0.9639287725225225
vt 0.08171452702702704 0.7477125563063063
vn 0.94783871007643 -0.20603520788750967 -0.2432103468016937
usemtl m_ac3d92fe-f5b1-a3a3-7d87-db428bb26680
f 51/36/9 52/35/9 50/34/9 49/33/9
o cube
v 0.24958606137793737 1.2522818523368136 -0.2268281552241097
v 0.1349517881885569 -0.24310480507581345 -0.2528613694442695
v 0.04683178010878819 1.2419514694289702 1.2593696729993096
v -0.06780249308059227 -0.25343518798365683 1.2333364587791498
v 0.1349517881885569 -0.24310480507581345 -0.2528613694442695
v 0.24958606137793737 1.2522818523368136 -0.2268281552241097
v -0.06780249308059227 -0.25343518798365683 1.2333364587791498
v 0.04683178010878819 1.2419514694289702 1.2593696729993096
vt 0.2495670634297088 0.6080025337837838
vt 0.2495670634297088 0.39178631756756754
vt 0.0635205518018018 0.39178631756756754
vt 0.0635205518018018 0.6080025337837838
vn -0.9878708158542849 0.07806557932993856 -0.1342274804474507
usemtl m_ac3d92fe-f5b1-a3a3-7d87-db428bb26680
f 63/40/10 64/39/10 62/38/10 61/37/10