# Made in Blockbench 4.8.1
mtllib big_fern.mtl

o cube
v -0.40684966849122195 2.0000000000000018 -0.373472646843655
v -0.40684966849122195 2.0000000000000018 -0.373472646843655
v -0.40684966849122395 -0.624999999999998 -0.37347264684365944
v -0.40684966849122395 -0.624999999999998 -0.37347264684365944
v 1.5285033406353512 1.9999999999999976 1.3999516481474565
v 1.5285033406353512 1.9999999999999976 1.3999516481474565
v 1.5285033406353492 -0.6250000000000024 1.399951648147452
v 1.5285033406353492 -0.6250000000000024 1.399951648147452
vt 0 1
vt 0 1
vt 0 0.6666666666666667
vt 0 0.6666666666666667
vt 0 1
vt 0 1
vt 0 0.6666666666666667
vt 0 0.6666666666666667
vt 0.3333333333333333 1
vt 0 1
vt 0.3333333333333333 1
vt 0 1
vt 0.3333333333333333 1
vt 0 1
vt 0.3333333333333333 1
vt 0 1
vt 0.7654375 0.3631875
vt 0.7654375 0.6913125
vt 0.4373125 0.6913125
vt 0.4373125 0.3631875
vt 0.4373125 0.3631875
vt 0.4373125 0.6913125
vt 0.7654375 0.6913125
vt 0.7654375 0.3631875
vn 0 0 0
vn 0 0 0
vn 0 0 0
vn 0 0 0
vn 0.6755902076156614 7.451242529495723e-16 -0.737277336810123
vn -0.6755902076156614 -7.451242529495723e-16 0.737277336810123
usemtl none
f 2/1/1 1/2/1 4/3/1 3/4/1
f 5/5/2 6/6/2 7/7/2 8/8/2
f 2/9/3 6/10/3 1/11/3 5/12/3
f 3/13/4 7/14/4 4/15/4 8/16/4
usemtl m_9d84ffb4-996e-d586-0523-95cf6bb5f839
f 3/17/5 1/18/5 5/19/5 7/20/5
f 8/21/6 6/22/6 2/23/6 4/24/6
o cube
v 0.8287394092730564 0.8120044429444847 0.8079596996061403
v 0.8287394092730564 0.8120044429444847 0.8079596996061403
v 0.8287394092730564 0.16596576615417258 0.5728208510697433
v 0.8287394092730564 0.16596576615417258 0.5728208510697433
v 0.21323456364042642 0.8491239270781625 0.7059747551270561
v 0.21323456364042642 0.8491239270781625 0.7059747551270561
v 0.21323456364042642 0.20308525028785046 0.47083590659065905
v 0.21323456364042642 0.20308525028785046 0.47083590659065905
vt 0 1
vt 0 1
vt 0 0.9375
vt 0 0.9375
vt 0 1
vt 0 1
vt 0 0.9375
vt 0 0.9375
vt 0.0625 1
vt 0 1
vt 0.0625 1
vt 0 1
vt 0.0625 1
vt 0 1
vt 0.0625 1
vt 0 1
vt 0.5382499999999997 0.1561874999999997
vt 0.5382499999999997 0.2421249999999997
vt 0.4601249999999997 0.2421249999999997
vt 0.4601249999999997 0.1561874999999997
vt 0.836125 0.4801875
vt 0.836125 0.566125
vt 0.91425 0.566125
vt 0.91425 0.4801875
vn 0 0 0
vn 0 0 0
vn 0 0 0
vn 0 0 0
vn -0.17364817766693033 -0.3368240888334648 0.9254165783983235
vn 0.17364817766693033 0.3368240888334648 -0.9254165783983235
usemtl none
f 10/25/7 9/26/7 12/27/7 11/28/7
f 13/29/8 14/30/8 15/31/8 16/32/8
f 10/33/9 14/34/9 9/35/9 13/36/9
f 11/37/10 15/38/10 12/39/10 16/40/10
usemtl m_9d84ffb4-996e-d586-0523-95cf6bb5f839
f 11/41/11 9/42/11 13/43/11 15/44/11
f 16/45/12 14/46/12 10/47/12 12/48/12
o cube
v 0.7653418274576294 1.1309115127202025 1.4363210512965139
v 0.7653418274576294 1.1309115127202025 1.4363210512965139
v 0.830708634518373 0.7859178724532327 0.7735944344249502
v 0.830708634518373 0.7859178724532327 0.7735944344249502
v 0.1427201411502883 1.1057589856269505 1.3880034963022228
v 0.1427201411502883 1.1057589856269505 1.3880034963022228
v 0.20808694821103196 0.760765345359981 0.7252768794306591
v 0.20808694821103196 0.760765345359981 0.7252768794306591
vt 0 1
vt 0 1
vt 0 0.9270833333333334
vt 0 0.9270833333333334
vt 0 1
vt 0 1
vt 0 0.9270833333333334
vt 0 0.9270833333333334
vt 0.0625 1
vt 0 1
vt 0.0625 1
vt 0 1
vt 0.0625 1
vt 0 1
vt 0.0625 1
vt 0 1
vt 0.91425 0.582125
vt 0.91425 0.6758749999999998
vt 0.836125 0.6758749999999998
vt 0.836125 0.582125
vt 0.836125 0.582125
vt 0.836125 0.675875
vt 0.91425 0.675875
vt 0.91425 0.582125
vn 0 0 0
vn 0 0 0
vn 0 0 0
vn 0 0 0
vn 2.3869795029440866e-15 -0.8870108331782203 0.4617486132350368
vn -2.3869795029440866e-15 0.8870108331782203 -0.4617486132350368
usemtl none
f 18/49/13 17/50/13 20/51/13 19/52/13
f 21/53/14 22/54/14 23/55/14 24/56/14
f 18/57/15 22/58/15 17/59/15 21/60/15
f 19/61/16 23/62/16 20/63/16 24/64/16
usemtl m_9d84ffb4-996e-d586-0523-95cf6bb5f839
f 19/65/17 17/66/17 21/67/17 23/68/17
f 24/69/18 22/70/18 18/71/18 20/72/18
o cube
v 1.6597718241315027 2.125 -0.5972718241315029
v 1.6597718241315027 2.125 -0.5972718241315029
v 1.6597718241315027 -0.6874999999999998 -0.5972718241315029
v 1.6597718241315027 -0.6874999999999998 -0.5972718241315029
v -0.3731601717798212 2.125 1.4356601717798214
v -0.3731601717798212 2.125 1.4356601717798214
v -0.3731601717798212 -0.6874999999999998 1.4356601717798214
v -0.3731601717798212 -0.6874999999999998 1.4356601717798214
vt 0 1
vt 0 1
vt 0 0.8333333333333334
vt 0 0.8333333333333334
vt 0 1
vt 0 1
vt 0 0.8333333333333334
vt 0 0.8333333333333334
vt 0.16666666666666666 1
vt 0 1
vt 0.16666666666666666 1
vt 0 1
vt 0.16666666666666666 1
vt 0 1
vt 0.16666666666666666 1
vt 0 1
vt 0.044000000000000046 0.35175
vt 0.044000000000000046 0.7033125
vt 0.40337500000000004 0.7033125
vt 0.40337500000000004 0.35175
vt 0.402625 0.3515625
vt 0.402625 0.703125
vt 0.04325000000000002 0.703125
vt 0.04325000000000002 0.3515625
vn 0 0 0
vn 0 0 0
vn 0 0 0
vn 0 0 0
vn 0.7071067811865476 0 0.7071067811865475
vn -0.7071067811865476 0 -0.7071067811865475
usemtl none
f 26/73/19 25/74/19 28/75/19 27/76/19
f 29/77/20 30/78/20 31/79/20 32/80/20
f 26/81/21 30/82/21 25/83/21 29/84/21
f 27/85/22 31/86/22 28/87/22 32/88/22
usemtl m_9d84ffb4-996e-d586-0523-95cf6bb5f839
f 27/89/23 25/90/23 29/91/23 31/92/23
f 32/93/24 30/94/24 26/95/24 28/96/24
o cube
v 0.6940417766349993 0.6075248331686307 0.7032796235900686
v 0.8506361162134926 0.5650122495312125 0.36520286744666386
v 0.4875114191058013 0.22478211172228957 0.6557457346400761
v 0.6441057586842945 0.18226952808487146 0.31766897849667153
v 0.6940417766349993 0.6075248331686307 0.7032796235900686
v 0.8506361162134926 0.5650122495312125 0.36520286744666386
v 0.4875114191058013 0.22478211172228957 0.6557457346400761
v 0.6441057586842945 0.18226952808487146 0.31766897849667153
vt 0.5927499999999997 0.1681874999999997
vt 0.5927499999999997 0.2228749999999997
vt 0.5458749999999997 0.2228749999999997
vt 0.5458749999999997 0.1681874999999997
vt 0.921875 0.4921875
vt 0.921875 0.546875
vt 0.96875 0.546875
vt 0.96875 0.4921875
vt 0 1
vt 0 1
vt 0 0.9375
vt 0 0.9375
vt 0 1
vt 0 1
vt 0 0.9375
vt 0 0.9375
vt 0 1
vt 0 1
vt 0 0.8854166666666666
vt 0 0.8854166666666666
vt 0 1
vt 0 1
vt 0 0.8854166666666666
vt 0 0.8854166666666666
vn 0.7763847879587317 -0.4709586362900136 0.41883722844337284
vn -0.7763847879587317 0.4709586362900136 -0.41883722844337284
vn 0 0 0
vn 0 0 0
vn 0 0 0
vn 0 0 0
usemtl m_9d84ffb4-996e-d586-0523-95cf6bb5f839
f 36/97/25 34/98/25 33/99/25 35/100/25
f 39/101/26 37/102/26 38/103/26 40/104/26
f 34/105/27 38/106/27 33/107/27 37/108/27
f 35/109/28 39/110/28 36/111/28 40/112/28
f 33/113/29 37/114/29 35/115/29 39/116/29
f 38/117/30 34/118/30 40/119/30 36/120/30
o cube
v 0.06619832353422617 0.53091906372379 0.6084006327193423
v 0.09882987158923917 0.53091906372379 0.3605394173758897
v 0.5608733855865418 0.27118546877908345 0.6735258401327298
v 0.5935049336415548 0.27118546877908345 0.4256646247892772
v 0.06619832353422617 0.53091906372379 0.6084006327193423
v 0.09882987158923917 0.53091906372379 0.3605394173758897
v 0.5608733855865418 0.27118546877908345 0.6735258401327298
v 0.5935049336415548 0.27118546877908345 0.4256646247892772
vt 0.9453125 0.3671875
vt 0.9453125 0.4375
vt 0.9140625 0.4375
vt 0.9140625 0.3671875
vt 0.9140625 0.3671875
vt 0.9140625 0.4375
vt 0.9453125 0.4375
vt 0.9453125 0.3671875
vt 0 1
vt 0 1
vt 0 0.9583333333333334
vt 0 0.9583333333333334
vt 0 1
vt 0 1
vt 0 0.9583333333333334
vt 0 0.9583333333333334
vt 0 1
vt 0 1
vt 0 0.90625
vt 0 0.90625
vt 0 1
vt 0 1
vt 0 0.90625
vt 0 0.90625
vn 0.4577982898383575 0.8870108331782217 0.06027028824845845
vn -0.4577982898383575 -0.8870108331782217 -0.06027028824845845
vn 0 0 0
vn 0 0 0
vn 0 0 0
vn 0 0 0
usemtl m_9d84ffb4-996e-d586-0523-95cf6bb5f839
f 44/121/31 42/122/31 41/123/31 43/124/31
f 47/125/32 45/126/32 46/127/32 48/128/32
f 42/129/33 46/130/33 41/131/33 45/132/33
f 43/133/34 47/134/34 44/135/34 48/136/34
f 41/137/35 45/138/35 43/139/35 47/140/35
f 46/141/36 42/142/36 48/143/36 44/144/36
o cube
v 0.7283131969527471 0.7596436018637857 0.36984900662755305
v 0.7283131969527471 0.7596436018637857 0.36984900662755305
v 0.7283131969527471 0.2163103245761848 0.5154347194977209
v 0.7283131969527471 0.2163103245761848 0.5154347194977209
v 0.4302766498439262 0.7353222306498839 0.2790804135475281
v 0.4302766498439262 0.7353222306498839 0.2790804135475281
v 0.4302766498439262 0.19198895336228292 0.4246661264176959
v 0.4302766498439262 0.19198895336228292 0.4246661264176959
vt 0 1
vt 0 1
vt 0 0.90625
vt 0 0.90625
vt 0 1
vt 0 1
vt 0 0.90625
vt 0 0.90625
vt 0.05208333333333333 1
vt 0 1
vt 0.05208333333333333 1
vt 0 1
vt 0.05208333333333333 1
vt 0 1
vt 0.05208333333333333 1
vt 0 1
vt 0.886625 0.08593750000000022
vt 0.886625 0.15625000000000022
vt 0.8475625 0.15625000000000022
vt 0.8475625 0.08593750000000022
vt 0.7677499999999999 0.7739375000000005
vt 0.7677499999999999 0.8442500000000004
vt 0.8068124999999999 0.8442500000000004
vt 0.8068124999999999 0.7739375000000005
vn 0 0 0
vn 0 0 0
vn 0 0 0
vn 0 0 0
vn -0.300705799504273 0.24684011049074372 0.9212198336973718
vn 0.300705799504273 -0.24684011049074372 -0.9212198336973718
usemtl m_9d84ffb4-996e-d586-0523-95cf6bb5f839
f 50/145/37 49/146/37 52/147/37 51/148/37
f 53/149/38 54/150/38 55/151/38 56/152/38
f 50/153/39 54/154/39 49/155/39 53/156/39
f 51/157/40 55/158/40 52/159/40 56/160/40
f 51/161/41 49/162/41 53/163/41 55/164/41
f 56/165/42 54/166/42 50/167/42 52/168/42
o cube
v 0.6875 0.6759292376870567 0.4501764498760683
v 0.9897310296950883 0.8185863808791853 -0.002274203992071344
v 0.6875 0.6759292376870567 0.4501764498760683
v 0.9897310296950883 0.8185863808791853 -0.002274203992071344
v 0.6734592375152562 0.8791747964921597 -0.19443610803360234
v 0.37122820782016785 0.736517653300031 0.2580145458345373
v 0.6734592375152562 0.8791747964921597 -0.19443610803360234
v 0.37122820782016785 0.736517653300031 0.2580145458345373
vt 0.832 0.252
vt 0.878875 0.252
vt 0.878875 0.1816875
vt 0.832 0.1816875
vt 0.832 0.1816875
vt 0.878875 0.1816875
vt 0.878875 0.2520000000000002
vt 0.832 0.2520000000000002
vn -5.551115123125783e-17 0.9537169507482269 0.30070579950427323
vn 5.551115123125783e-17 -0.9537169507482269 -0.30070579950427323
usemtl m_9d84ffb4-996e-d586-0523-95cf6bb5f839
f 62/172/43 57/171/43 58/170/43 61/169/43
f 63/176/44 60/175/44 59/174/44 64/173/44
o cube
v 0.2194515832451711 0.732722083564032 0.5473719842358664
v 0.11348745043703667 0.6941542933220406 0.18972812770528125
v 0.411837913865859 0.20414498437195827 0.5473719842358666
v 0.30587378105772445 0.16557719412996663 0.18972812770528136
v 0.11348745043703667 0.6941542933220406 0.18972812770528125
v 0.2194515832451711 0.732722083564032 0.5473719842358664
v 0.30587378105772445 0.16557719412996663 0.18972812770528136
v 0.411837913865859 0.20414498437195827 0.5473719842358666
vt 0 1
vt 0 1
vt 0 0.90625
vt 0 0.90625
vt 0.174875 0.17600000000000005
vt 0.128 0.17600000000000005
vt 0.128 0.10568750000000005
vt 0.174875 0.10568750000000005
vt 0 1
vt 0 1
vt 0 0.90625
vt 0 0.90625
vt 0.04799999999999996 0.8640000000000001
vt 0.09487499999999996 0.8640000000000001
vt 0.09487499999999996 0.7936875000000002
vt 0.04799999999999996 0.7936875000000002
vt 0 1
vt 0 1
vt 0 0.9375
vt 0 0.9375
vt 0.08 0.31200000000000006
vt 0.08 0.31200000000000006
vt 0.08 0.24949999999999983
vt 0.08 0.24949999999999983
vn -0.28257102082169205 -0.10284744064531094 -0.9537169507482272
vn 0.8962007809365472 0.3261904081870268 -0.3007057995042728
vn 0.28257102082169205 0.10284744064531094 0.9537169507482272
vn -0.8962007809365472 -0.3261904081870268 0.3007057995042728
vn -0.34202014332566716 0.939692620785909 -2.636779683484747e-16
vn 0.34202014332566716 -0.939692620785909 2.636779683484747e-16
usemtl m_9d84ffb4-996e-d586-0523-95cf6bb5f839
f 68/180/45 71/179/45 69/178/45 66/177/45
f 67/184/46 68/183/46 66/182/46 65/181/46
f 72/188/47 67/187/47 65/186/47 70/185/47
f 71/192/48 72/191/48 70/190/48 69/189/48
f 70/196/49 65/195/49 66/194/49 69/193/49
f 71/200/50 68/199/50 67/198/50 72/197/50
o cube
v 0.27466108616689544 0.7333560691180545 0.5513397788110088
v 0.15691277696287742 0.7011691999265188 0.19676349487306422
v 0.27466108616689544 0.7333560691180545 0.5513397788110088
v 0.15691277696287742 0.7011691999265188 0.19676349487306422
v -0.309227586616991 0.8093072752686679 0.3417439008006371
v -0.19147927741297288 0.8414941444602035 0.6963201847385818
v -0.309227586616991 0.8093072752686679 0.3417439008006371
v -0.19147927741297288 0.8414941444602035 0.6963201847385818
vt 0 1
vt 0.08333333333333333 1
vt 0.08333333333333333 1
vt 0 1
vt 0 1
vt 0.0625 1
vt 0.0625 1
vt 0 1
vt 0 1
vt 0.08333333333333333 1
vt 0.08333333333333333 1
vt 0 1
vt 0 1
vt 0.0625 1
vt 0.0625 1
vt 0 1
vt 0.19087500000000002 0.268
vt 0.19087500000000002 0.20550000000000002
vt 0.14400000000000002 0.20550000000000002
vt 0.14400000000000002 0.268
vt 0.14400000000000007 0.26800000000000024
vt 0.14400000000000007 0.20550000000000024
vt 0.19087500000000007 0.20550000000000024
vt 0.19087500000000007 0.26800000000000024
vn -0.3139954912107149 -0.08583165117742823 -0.9455367571678525
vn 0.9322807271597368 -0.21627615068429823 -0.28996081185514594
vn 0.3139954912107149 0.08583165117742823 0.9455367571678525
vn -0.9322807271597368 0.21627615068429823 0.28996081185514594
vn 0.17960923491250236 0.9725520830790191 -0.1479289303442925
vn -0.17960923491250236 -0.9725520830790191 0.1479289303442925
usemtl m_9d84ffb4-996e-d586-0523-95cf6bb5f839
f 76/204/51 79/203/51 77/202/51 74/201/51
f 75/208/52 76/207/52 74/206/52 73/205/52
f 80/212/53 75/211/53 73/210/53 78/209/53
f 79/216/54 80/215/54 78/214/54 77/213/54
f 78/220/55 73/219/55 74/218/55 77/217/55
f 79/224/56 76/223/56 75/222/56 80/221/56
o cube
v 0.5930707398937656 0.49485611526398676 0.20834716215087212
v 0.5930707398937656 0.49485611526398676 0.20834716215087212
v 0.5900273628833008 0.10246489572689188 0.4018054746798603
v 0.5900273628833008 0.10246489572689188 0.4018054746798603
v 0.3451052024774388 0.5104574451165964 0.2360904633362444
v 0.3451052024774388 0.5104574451165964 0.2360904633362444
v 0.34206182546697395 0.11806622557950153 0.42954877586523255
v 0.34206182546697395 0.11806622557950153 0.42954877586523255
vt 0.21199999999999986 0.8560000000000003
vt 0.24324999999999986 0.8560000000000003
vt 0.24324999999999986 0.8013125000000003
vt 0.21199999999999986 0.8013125000000003
vt 0 1
vt 0 1
vt 0 0.9270833333333334
vt 0 0.9270833333333334
vt 0.32325000000000004 0.16799999999999993
vt 0.29200000000000004 0.16799999999999993
vt 0.29200000000000004 0.11331249999999993
vt 0.32325000000000004 0.11331249999999993
vt 0 1
vt 0 1
vt 0 0.9270833333333334
vt 0 0.9270833333333334
vt 0 1
vt 0.041666666666666664 1
vt 0.041666666666666664 1
vt 0 1
vt 0.08 0.31200000000000006
vt 0.1216666666666667 0.31200000000000006
vt 0.1216666666666667 0.31200000000000006
vt 0.08 0.31200000000000006
vn -0.12712626041240824 -0.43781998728122806 -0.8900295347069233
vn 0.9918621496653075 -0.06240531941043871 -0.11097320474148908
vn 0.12712626041240824 0.43781998728122806 0.8900295347069233
vn -0.9918621496653075 0.06240531941043871 0.11097320474148908
vn 0.0069562903096338224 0.8968942160847881 -0.44219042863768726
vn -0.0069562903096338224 -0.8968942160847881 0.44219042863768726
usemtl m_9d84ffb4-996e-d586-0523-95cf6bb5f839
f 84/228/57 87/227/57 85/226/57 82/225/57
f 83/232/58 84/231/58 82/230/58 81/229/58
f 88/236/59 83/235/59 81/234/59 86/233/59
f 87/240/60 88/239/60 86/238/60 85/237/60
f 86/244/61 81/243/61 82/242/61 85/241/61
f 87/248/62 84/247/62 83/246/62 88/245/62
o cube
v 0.5363686340642326 0.6438934231739304 -0.12299940226583694
v 0.5363686340642326 0.6438934231739304 -0.12299940226583694
v 0.5936155023320815 0.4986733739228235 0.2857060948455057
v 0.5936155023320815 0.4986733739228235 0.2857060948455057
v 0.1659646725407159 0.6578531696692467 -0.06615724567874315
v 0.1659646725407159 0.6578531696692467 -0.06615724567874315
v 0.22321154080856465 0.51263312041814 0.3425482514325995
v 0.22321154080856465 0.51263312041814 0.3425482514325995
vt 0.31199999999999994 0.24400000000000044
vt 0.35887499999999994 0.24400000000000044
vt 0.35887499999999994 0.18931250000000044
vt 0.31199999999999994 0.18931250000000044
vt 0.35887500000000006 0.2440000000000001
vt 0.31200000000000006 0.2440000000000001
vt 0.31200000000000006 0.1893125000000001
vt 0.35887500000000006 0.1893125000000001
vn -0.08508980364210904 -0.942568659362629 -0.32299233381534587
vn 0.08508980364210904 0.942568659362629 0.32299233381534587
usemtl m_9d84ffb4-996e-d586-0523-95cf6bb5f839
f 92/252/63 95/251/63 93/250/63 90/249/63
f 96/256/64 91/255/64 89/254/64 94/253/64
o cube
v 0.8399798996860173 0.5398597766915958 0.5035165340296568
v 0.7965678552692848 0.5398597766915958 0.25731459577660476
v 0.7284668362041891 0.11726722769012843 0.5231792958229589
v 0.6850547917874565 0.11726722769012843 0.27697735756990705
v 0.7965678552692848 0.5398597766915958 0.25731459577660476
v 0.8399798996860173 0.5398597766915958 0.5035165340296568
v 0.6850547917874565 0.11726722769012843 0.27697735756990705
v 0.7284668362041891 0.11726722769012843 0.5231792958229589
vt 0 1
vt 0 1
vt 0 0.9270833333333334
vt 0 0.9270833333333334
vt 0.6392499999999999 0.8360000000000002
vt 0.6079999999999999 0.8360000000000002
vt 0.6079999999999999 0.7813125000000002
vt 0.6392499999999999 0.7813125000000002
vt 0 1
vt 0 1
vt 0 0.9270833333333334
vt 0 0.9270833333333334
vt 0.688 0.14800000000000002
vt 0.71925 0.14800000000000002
vt 0.71925 0.09331250000000002
vt 0.688 0.09331250000000002
vt 0 1
vt 0 1
vt 0 0.9583333333333334
vt 0 0.9583333333333334
vt 0.08 0.31200000000000006
vt 0.08 0.31200000000000006
vt 0.08 0.2703333333333332
vt 0.08 0.2703333333333332
vn -0.17364817766693036 -5.551115123125783e-17 -0.9848077530122081
vn 0.9512512425641977 -0.2588190451025207 -0.16773125949652062
vn 0.17364817766693036 5.551115123125783e-17 0.9848077530122081
vn -0.9512512425641977 0.2588190451025207 0.16773125949652062
vn 0.2548870022441787 0.9659258262890683 -0.04494345552754784
vn -0.2548870022441787 -0.9659258262890683 0.04494345552754784
usemtl m_9d84ffb4-996e-d586-0523-95cf6bb5f839
f 100/260/65 103/259/65 101/258/65 98/257/65
f 99/264/66 100/263/66 98/262/66 97/261/66
f 104/268/67 99/267/67 97/266/67 102/265/67
f 103/272/68 104/271/68 102/270/68 101/269/68
f 102/276/69 97/275/69 98/274/69 101/273/69
f 103/280/70 100/279/70 99/278/70 104/277/70
o cube
v 1.2302086310355649 0.6659220402064405 0.4021341135282642
v 1.176098727551039 0.6659220402064405 0.15806011174828094
v 1.2302086310355649 0.6659220402064405 0.4021341135282642
v 1.176098727551039 0.6659220402064405 0.15806011174828094
v 0.7687380802656238 0.5343632529233213 0.24836979302223072
v 0.8228479837501497 0.5343632529233213 0.492443794802214
v 0.7687380802656238 0.5343632529233213 0.24836979302223072
v 0.8228479837501497 0.5343632529233213 0.492443794802214
vt 0.7112499999999999 0.1813125000000001
vt 0.7112499999999999 0.2360000000000001
vt 0.6799999999999999 0.2360000000000001
vt 0.6799999999999999 0.1813125000000001
vt 0.6799999999999999 0.1813125000000002
vt 0.6799999999999999 0.23600000000000043
vt 0.7112499999999999 0.23600000000000043
vt 0.7112499999999999 0.1813125000000002
vn -0.29357787137382907 0.9537169507482269 0.06508464715365345
vn 0.29357787137382907 -0.9537169507482269 -0.06508464715365345
usemtl m_9d84ffb4-996e-d586-0523-95cf6bb5f839
f 110/284/71 105/283/71 106/282/71 109/281/71
f 111/288/72 108/287/72 107/286/72 112/285/72
o cube
v 1.0889849255991193 0.654542004426236 0.8853455915664517
v 1.258036173372068 0.692019763770628 0.5527165291246185
v 0.6559923582471076 0.5585498632802315 0.6544712849489347
v 0.8250436060200563 0.5960276226246235 0.3218422225071016
v 1.0889849255991193 0.654542004426236 0.8853455915664517
v 1.258036173372068 0.692019763770628 0.5527165291246185
v 0.6559923582471076 0.5585498632802315 0.6544712849489347
v 0.8250436060200563 0.5960276226246235 0.3218422225071016
vt 0.9687499999999997 0.5470624999999998
vt 0.9687499999999997 0.6095624999999998
vt 0.9218749999999997 0.6095624999999998
vt 0.9218749999999997 0.5470624999999998
vt 0.921875 0.5470625
vt 0.921875 0.6095625
vt 0.96875 0.6095625
vt 0.96875 0.5470625
vt 0 1
vt 0 1
vt 0 0.9375
vt 0 0.9375
vt 0 1
vt 0 1
vt 0 0.9375
vt 0 0.9375
vt 0 1
vt 0 1
vt 0 0.9166666666666666
vt 0 0.9166666666666666
vt 0 1
vt 0 1
vt 0 0.9166666666666666
vt 0 0.9166666666666666
vn 0.2164396139381029 -0.9762960071199335 -3.885780586188048e-16
vn -0.2164396139381029 0.9762960071199335 3.885780586188048e-16
vn 0 0 0
vn 0 0 0
vn 0 0 0
vn 0 0 0
usemtl m_9d84ffb4-996e-d586-0523-95cf6bb5f839
f 116/289/73 114/290/73 113/291/73 115/292/73
f 119/293/74 117/294/74 118/295/74 120/296/74
f 114/297/75 118/298/75 113/299/75 117/300/75
f 115/301/76 119/302/76 116/303/76 120/304/76
f 113/305/77 117/306/77 115/307/77 119/308/77
f 118/309/78 114/310/78 120/311/78 116/312/78