# Made in Blockbench 4.8.1
mtllib birch_leaves_yellowish_slab_upper.mtl

o bottom
v 1.580392463583352 0.3577158954895332 0.6458092671516327
v 0.814467767144913 0.4930505594950003 -0.6367833759366603
v 1.580392463583352 0.3577158954895332 0.6458092671516327
v 0.814467767144913 0.4930505594950003 -0.6367833759366603
v -0.4341185215433555 0.7889451248354051 0.14005553008032756
v 0.33180617489508313 0.6536104608299382 1.4226481731686207
v -0.4341185215433555 0.7889451248354051 0.14005553008032756
v 0.33180617489508313 0.6536104608299382 1.4226481731686207
vt 0.0234375 0.9504504504504504
vt 0.0234375 0.7342342342342343
vt 0.2109375 0.7342342342342343
vt 0.2109375 0.9504504504504504
vt 0.2109375 0.9497818130630631
vt 0.2109375 0.7335655968468469
vt 0.0234375 0.7335655968468469
vt 0.0234375 0.9497818130630631
vn 0.21539796665226443 0.9761900850689414 -0.025624866344299307
vn -0.21539796665226443 -0.9761900850689414 0.025624866344299307
usemtl m_6061bb4a-2653-7d73-028e-c25237d9445d
f 6/4/1 1/3/1 2/2/1 5/1/1
f 7/8/2 4/7/2 3/6/2 8/5/2
o west
v 1.3373798808609352 1.0796578227777616 0.5033928031050678
v 0.033520993478773686 0.9834444814924188 1.2387124579173552
v 1.4256185155409418 -2.0642678269319683 0.24848752178068978
v 0.12175962815878016 -2.160481168217311 0.9838071765929772
v 1.3548661734280436 0.26131267961469673 0.42732239996639315
v 0.05100728604588195 0.16509933832935408 1.1626420547786807
vt 0.671875 0.7238468468468469
vt 0.484375 0.7238468468468469
vt 0.484375 0.8423423423423424
vt 0.671875 0.8423423423423424
vt 0.48046875 0.6261261261261262
vt 0.66796875 0.6261261261261262
vt 0.66796875 0.2897630630630631
vt 0.48046875 0.2897630630630631
vt 0.671875 0.7238468468468469
vt 0.671875 0.8423423423423424
vt 0.484375 0.8423423423423424
vt 0.484375 0.7238468468468469
vt 0.48046875 0.6261261261261262
vt 0.48046875 0.2897630630630631
vt 0.66796875 0.2897630630630631
vt 0.66796875 0.6261261261261262
vn -0.49393384412691893 0.07000879546241054 -0.8666764829992256
vn -0.4934610507209568 0.05175297659646172 -0.8682268256825375
vn 0.49393384412691893 -0.07000879546241054 0.8666764829992256
vn 0.4934610507209568 -0.05175297659646172 0.8682268256825375
usemtl m_6061bb4a-2653-7d73-028e-c25237d9445d
f 13/9/3 14/10/3 10/11/3 9/12/3
f 14/13/4 13/14/4 11/15/4 12/16/4
f 13/17/5 9/18/5 10/19/5 14/20/5
f 14/21/6 12/22/6 11/23/6 13/24/6
o south
v 0.6272073694586461 1.3329544610371862 -0.3450221208980885
v 0.6809087758667849 -1.7289010899657415 -0.37762570570629717
v 1.0777286093664058 1.3256212699932146 1.0857038614972438
v 1.1314300157745447 -1.7362342810097129 1.053100276689035
v 1.0329196039281396 0.48080364397006076 1.0954836514865982
v 0.5823983640203798 0.48813683501403216 -0.3352423309087341
vt 0.67578125 0.6081081081081081
vt 0.48828125 0.6081081081081081
vt 0.48828125 0.2881612612612613
vt 0.67578125 0.2881612612612613
vt 0.67578125 0.7384054054054054
vt 0.48828125 0.7384054054054054
vt 0.48828125 0.8603603603603603
vt 0.67578125 0.8603603603603603
vt 0.67578125 0.7384054054054054
vt 0.67578125 0.8603603603603603
vt 0.48828125 0.8603603603603603
vt 0.48828125 0.7384054054054054
vt 0.67578125 0.2881612612612613
vt 0.48828125 0.2881612612612613
vt 0.48828125 0.6081081081081081
vt 0.67578125 0.6081081081081081
vn -0.9527967620705838 -0.04806687258865236 0.2997797624045991
vn -0.9523583484223429 0.05398772188469324 0.3001647915328657
vn 0.9523583484223429 -0.05398772188469324 -0.3001647915328657
vn 0.9527967620705838 0.04806687258865236 -0.2997797624045991
usemtl m_6061bb4a-2653-7d73-028e-c25237d9445d
f 19/25/7 20/26/7 16/27/7 18/28/7
f 20/29/8 19/30/8 17/31/8 15/32/8
f 20/33/9 15/34/9 17/35/9 19/36/9
f 18/37/10 16/38/10 20/39/10 19/40/10
o top
v 0.7258884792844089 0.8067746251220669 1.5421155718340325
v 1.564682325753303 1.2184034811404845 0.3686648621666486
v 0.7258884792844089 0.8067746251220669 1.5421155718340325
v 1.564682325753303 1.2184034811404845 0.3686648621666486
v 0.45479341597935363 0.8278181278740415 -0.5617058648957003
v -0.38400043048954013 0.41618927185562404 0.6117448447716836
v 0.45479341597935363 0.8278181278740415 -0.5617058648957003
v -0.38400043048954013 0.41618927185562404 0.6117448447716836
vt 0.03125 0.5900900900900901
vt 0.03125 0.37387387387387383
vt 0.21875 0.37387387387387383
vt 0.21875 0.5900900900900901
vt 0.21875 0.5900900900900901
vt 0.21875 0.37387387387387383
vt 0.03125 0.37387387387387383
vt 0.03125 0.5900900900900901
vn -0.3739111546799516 0.9256840753870614 0.057440760620892345
vn 0.3739111546799516 -0.9256840753870614 -0.057440760620892345
usemtl m_6061bb4a-2653-7d73-028e-c25237d9445d
f 26/44/11 21/43/11 22/42/11 25/41/11
f 27/48/12 24/47/12 23/46/12 28/45/12
o east
v 1.2377874114243594 1.3406866444397028 -0.04226776313404368
v -0.20311737447065004 1.3501793567151026 0.37450949919982346
v 1.19471454416174 -1.7855500717449022 -0.11997698063798123
v -0.24619024173326964 -1.7760573594695024 0.2968002816958859
v -0.20290505984041507 0.6600404175500648 0.3909624494110835
v 1.2379997260545945 0.6505477052746651 -0.025814812922783648
vt 0.95703125 0.4410333333333334
vt 0.76953125 0.4410333333333334
vt 0.76953125 0.5405405405405406
vt 0.95703125 0.5405405405405406
vt 0.953125 0.3514666666666667
vt 0.765625 0.3514666666666667
vt 0.765625 0
vt 0.953125 0
vt 0.95703125 0.4410333333333334
vt 0.95703125 0.5405405405405406
vt 0.76953125 0.5405405405405406
vt 0.76953125 0.4410333333333334
vt 0.953125 0
vt 0.765625 0
vt 0.765625 0.3514666666666667
vt 0.953125 0.3514666666666667
vn 0.2779233988469391 0.02297978075423074 0.9603283365859059
vn 0.2773560347554972 -0.04202898882973752 0.9598474848030063
vn -0.2779233988469391 -0.02297978075423074 -0.9603283365859059
vn -0.2773560347554972 0.04202898882973752 -0.9598474848030063
usemtl m_6061bb4a-2653-7d73-028e-c25237d9445d
f 33/49/13 34/50/13 29/51/13 30/52/13
f 34/53/14 33/54/14 32/55/14 31/56/14
f 33/57/15 30/58/15 29/59/15 34/60/15
f 31/61/16 32/62/16 33/63/16 34/64/16
o north
v 0.422258652928104 1.1590879840433754 1.2987675559319065
v 0.07812750952706611 1.1713205128219244 -0.16117221042188923
v 0.3978089650619305 -1.788868909787909 1.2798304263751326
v 0.05367782166089258 -1.77663638100936 -0.1801093399786633
v 0.4696202867927214 0.33859256502459445 1.280728902798456
v 0.12548914339168346 0.35082509380314353 -0.17921086355533977
vt 0.9576289062500001 0.4047162162162161
vt 0.7701289062500001 0.40471621621621623
vt 0.7701289062500001 0.5232117117117119
vt 0.9576289062500001 0.5232117117117117
vt 0.765854296875 0.30683513513513516
vt 0.953354296875 0.30683513513513516
vt 0.953354296875 0
vt 0.765854296875 0
vt 0.9576289062500001 0.4047162162162161
vt 0.9576289062500001 0.5232117117117117
vt 0.7701289062500001 0.5232117117117119
vt 0.7701289062500001 0.40471621621621623
vt 0.765854296875 0
vt 0.953354296875 0
vt 0.953354296875 0.30683513513513505
vt 0.765854296875 0.30683513513513505
vn 0.9716207122256569 0.06110898045002171 -0.22851451613074014
vn 0.9727425388442125 -0.03273745224611153 -0.22956526815559394
vn -0.9716207122256569 -0.06110898045002171 0.22851451613074014
vn -0.9727425388442125 0.03273745224611153 0.22956526815559394
usemtl m_6061bb4a-2653-7d73-028e-c25237d9445d
f 39/65/17 40/66/17 36/67/17 35/68/17
f 40/69/18 39/70/18 37/71/18 38/72/18
f 39/73/19 35/74/19 36/75/19 40/76/19
f 38/77/20 37/78/20 39/79/20 40/80/20
o south
v 1.1189154740277112 1.5014131836492313 -0.06641925484243538
v -0.14138745757645743 1.3011412379631135 0.9396387297494231
v 1.253436077151743 -0.11081999847023538 -0.2188442324808958
v -0.006866854452425741 -0.3110919441563532 0.7872137521109628
v -0.14138745757645743 1.3011412379631135 0.9396387297494231
v 1.1189154740277112 1.5014131836492313 -0.06641925484243538
v -0.006866854452425741 -0.3110919441563532 0.7872137521109628
v 1.253436077151743 -0.11081999847023538 -0.2188442324808958
vt 0.22395833333333331 0.2691441441441441
vt 0.020833333333333315 0.2691441441441441
vt 0.020833333333333315 0.03490990990990994
vt 0.22395833333333331 0.03490990990990994
vt 0.020833333333333315 0.2691441441441441
vt 0.22395833333333326 0.2691441441441441
vt 0.22395833333333326 0.03490990990990994
vt 0.020833333333333315 0.03490990990990994
vn -0.625808856894882 0.0214972286115624 -0.7796801548032011
vn 0.625808856894882 -0.0214972286115624 0.7796801548032011
usemtl m_6061bb4a-2653-7d73-028e-c25237d9445d
f 43/84/21 44/83/21 42/82/21 41/81/21
f 47/88/22 48/87/22 46/86/22 45/85/22