# Made in Blockbench 4.8.1
mtllib birch_leaves_vertical_slab.mtl

o bottom
v -0.2632775190824275 0.43886602112545514 0.895760655846459
v 1.2304426996502529 0.5742000566124217 0.8737468649869387
v -0.2632775190824275 0.43886602112545514 0.895760655846459
v 1.2304426996502529 0.5742000566124217 0.8737468649869387
v 1.1819739700060607 0.8700935145124848 -0.5959802674490869
v -0.31174624872661955 0.7347594790255181 -0.5739664765895666
v 1.1819739700060607 0.8700935145124848 -0.5959802674490869
v -0.31174624872661955 0.7347594790255181 -0.5739664765895666
vt 0.3046875 0.21688485360360366
vt 0.3046875 0.0006686373873874274
vt 0.4921875 0.0006686373873874274
vt 0.4921875 0.21688485360360366
vt 0.4921875 0.21621621621621623
vt 0.4921875 0
vt 0.3046875 0
vt 0.3046875 0.21621621621621623
vn -0.08550682986593 0.9761902729854703 0.199351781970545
vn 0.08550682986593 -0.9761902729854703 -0.199351781970545
usemtl m_6061bb4a-2653-7d73-028e-c25237d9445d
f 6/4/1 1/3/1 2/2/1 5/1/1
f 7/8/2 4/7/2 3/6/2 8/5/2
o west
v 1.2348352876495052 1.0856665067245137 0.39941863916098247
v -0.25150812663039024 1.0030326225655426 0.5836871823678571
v 1.4019344420242876 -2.06471369639499 0.33450563276050255
v -0.08440897225560773 -2.147347580553961 0.5187741759673772
v 1.2769845848634276 0.2651650145862438 0.3714545882519125
v -0.20935882941646788 0.18253113042727287 0.5557231314587872
vt 0.484375 0.8423423423423424
vt 0.484375 0.7238468468468469
vt 0.671875 0.7238468468468469
vt 0.671875 0.8423423423423424
vt 0.48828125 0.7207207207207207
vt 0.67578125 0.7207207207207207
vt 0.67578125 0.3843576576576577
vt 0.48828125 0.3843576576576577
vt 0.671875 0.7238468468468469
vt 0.671875 0.8423423423423424
vt 0.484375 0.8423423423423424
vt 0.484375 0.7238468468468469
vt 0.48828125 0.7207207207207207
vt 0.48828125 0.3843576576576577
vt 0.67578125 0.3843576576576577
vt 0.67578125 0.7207207207207207
vn 0.12448689963954943 -0.027408727796878384 0.9918426152664996
vn -0.12352632198660868 0.009111990342728957 -0.9922994605503194
vn 0.12448689963954943 -0.027408727796878384 0.9918426152664996
vn 0.12352632198660868 -0.009111990342728957 0.9922994605503194
usemtl m_6061bb4a-2653-7d73-028e-c25237d9445d
f 10/9/3 14/10/3 13/11/3 9/12/3
f 14/13/4 13/14/4 11/15/4 12/16/4
f 13/17/5 9/18/5 10/19/5 14/20/5
f 14/21/6 12/22/6 11/23/6 13/24/6
o south
v 0.8602704110356887 1.2085920102462107 -0.4168663744079839
v 0.9063472624179947 -1.1034213542023141 -0.42815248880159906
v 0.8597125581652064 1.2012587169049498 1.0831155960199765
v 0.9057894095475123 -1.110754647543575 1.0718294816263614
v 0.8140367944542675 0.3564410812217269 1.0789683622392543
v 0.8145946473247497 0.3637743745629879 -0.42101360818870615
vt 0.96875 0.8288288288288288
vt 0.78125 0.8288288288288288
vt 0.78125 0.6169261261261261
vt 0.96875 0.6169261261261261
vt 0.7734375 1
vt 0.7734375 0.878045045045045
vt 0.9609375 0.878045045045045
vt 0.9609375 1
vt 0.9609375 0.878045045045045
vt 0.9609375 1
vt 0.7734375 1
vt 0.7734375 0.878045045045045
vt 0.96875 0.6169261261261261
vt 0.78125 0.6169261261261261
vt 0.78125 0.8288288288288288
vt 0.96875 0.8288288288288288
vn -0.9980503150271995 -0.06241082669310391 -0.0006763028842576087
vn 0.9985416054499404 -0.053987504532795376 0.0001074233534611479
vn 0.9985416054499404 -0.053987504532795376 0.0001074233534611479
vn 0.9980503150271995 0.06241082669310391 0.0006763028842576087
usemtl m_6061bb4a-2653-7d73-028e-c25237d9445d
f 19/25/7 20/26/7 16/27/7 18/28/7
f 17/29/8 19/30/8 20/31/8 15/32/8
f 20/33/9 15/34/9 17/35/9 19/36/9
f 18/37/10 16/38/10 20/39/10 19/40/10
o top
v 0.18968553933456778 0.7091285696021505 1.2329460744301277
v 1.3425216101124966 1.1207567160245246 0.3660370463388366
v 0.18968553933456778 0.7091285696021505 1.2329460744301277
v 1.3425216101124966 1.1207567160245246 0.3660370463388366
v 0.5637701983432617 0.730171459923153 -0.8550237205289104
v -0.5890658724346671 0.3185433135007789 0.011885307562380598
v 0.5637701983432617 0.730171459923153 -0.8550237205289104
v -0.5890658724346671 0.3185433135007789 0.011885307562380598
vt 0.28515625 0.21621621621621623
vt 0.28515625 0
vt 0.47265625 0
vt 0.47265625 0.21621621621621623
vt 0.47265625 0.21621621621621623
vt 0.47265625 0
vt 0.28515625 0
vt 0.28515625 0.21621621621621623
vn -0.37387771772821393 0.9256842338482161 -0.05765545413214186
vn 0.37387771772821393 -0.9256842338482161 0.05765545413214186
usemtl m_6061bb4a-2653-7d73-028e-c25237d9445d
f 26/44/11 21/43/11 22/42/11 25/41/11
f 27/48/12 24/47/12 23/46/12 28/45/12
o east
v 1.3490140179597974 1.340686823110656 0.18108949886912995
v -0.15052863547550904 1.3501795779597692 0.1452884076347164
v 1.331302269235024 -1.7855498472190146 0.0940230010461261
v -0.16824038420028226 -1.7760570923699013 0.05822190981171255
v -0.15527365814030963 0.6600406306233333 0.16104334747167992
v 1.3442689952949967 0.6505478757742199 0.19684443870609347
vt 0.76953125 0.5405405405405406
vt 0.76953125 0.4410333333333334
vt 0.95703125 0.4410333333333334
vt 0.95703125 0.5405405405405406
vt 0.9609375 0.4370522522522522
vt 0.7734375 0.4370522522522522
vt 0.7734375 0.0855855855855856
vt 0.9609375 0.0855855855855856
vt 0.95703125 0.4410333333333334
vt 0.95703125 0.5405405405405406
vt 0.76953125 0.5405405405405406
vt 0.76953125 0.4410333333333334
vt 0.9609375 0.0855855855855856
vt 0.7734375 0.0855855855855856
vt 0.7734375 0.4370522522522522
vt 0.9609375 0.4370522522522522
vn 0.023716183567758484 -0.022979257979419382 -0.999454599438962
vn -0.024112694344205196 -0.042029511268887786 0.9988253591864604
vn 0.023716183567758484 -0.022979257979419382 -0.999454599438962
vn 0.024112694344205196 0.042029511268887786 -0.9988253591864604
usemtl m_6061bb4a-2653-7d73-028e-c25237d9445d
f 29/49/13 34/50/13 33/51/13 30/52/13
f 34/53/14 33/54/14 32/55/14 31/56/14
f 33/57/15 30/58/15 29/59/15 34/60/15
f 31/61/16 32/62/16 33/63/16 34/64/16
o north
v 0.165891850163659 1.0356342432045857 1.0883126587630843
v 0.27670122865278657 1.047866920098808 -0.40753881890936705
v 0.19918599988241426 -1.3521943589062015 1.0712519865562062
v 0.30999537837154184 -1.3399616820119795 -0.42459949111624484
v 0.21648527030626302 0.2151387936631594 1.0853507134416995
v 0.3272946487953906 0.22737147055738155 -0.41050076423075177
vt 0.7779414062500001 1
vt 0.7779414062500001 0.8815045045045045
vt 0.9654414062500001 0.8815045045045043
vt 0.9654414062500001 0.9999999999999999
vt 0.96515546875 0.7571162162162163
vt 0.77765546875 0.7571162162162163
vt 0.77765546875 0.5311720720720721
vt 0.96515546875 0.5311720720720721
vt 0.9654414062500001 0.8815045045045043
vt 0.9654414062500001 0.9999999999999999
vt 0.7779414062500001 1
vt 0.7779414062500001 0.8815045045045045
vt 0.96515546875 0.5311720720720721
vt 0.77765546875 0.5311720720720721
vt 0.77765546875 0.7571162162162163
vt 0.96515546875 0.7571162162162163
vn -0.9953667848170022 -0.06110836083034715 -0.07423430419753328
vn 0.9972065946987348 -0.01167019669786211 0.07377542950323192
vn -0.9953667848170022 -0.06110836083034715 -0.07423430419753328
vn -0.9972065946987348 0.01167019669786211 -0.07377542950323192
usemtl m_6061bb4a-2653-7d73-028e-c25237d9445d
f 36/65/17 40/66/17 39/67/17 35/68/17
f 40/69/18 39/70/18 37/71/18 38/72/18
f 39/73/19 35/74/19 36/75/19 40/76/19
f 38/77/20 37/78/20 39/79/20 40/80/20
o south
v 1.2429049187847567 1.5014143583887591 0.12231047471574286
v -0.2615947717062833 1.3011399010671978 0.7028238880464923
v 1.4170371432793214 -0.11081852278669879 0.017390956754318898
v -0.08746254721171853 -0.31109298010826003 0.5979043700850681
v -0.2615947717062833 1.3011399010671978 0.7028238880464923
v 1.2429049187847567 1.5014143583887591 0.12231047471574286
v -0.08746254721171853 -0.31109298010826003 0.5979043700850681
v 1.4170371432793214 -0.11081852278669879 0.017390956754318898
vt 0.22395833333333331 0.2691441441441441
vt 0.020833333333333315 0.2691441441441441
vt 0.020833333333333315 0.03490990990990994
vt 0.22395833333333331 0.03490990990990994
vt 0.020833333333333315 0.2691441441441441
vt 0.22395833333333326 0.2691441441441441
vt 0.22395833333333326 0.03490990990990994
vt 0.020833333333333315 0.03490990990990994
vn -0.3623897798655233 0.021496914664980993 -0.931778691594149
vn 0.3623897798655233 -0.021496914664980993 0.931778691594149
usemtl m_6061bb4a-2653-7d73-028e-c25237d9445d
f 43/84/21 44/83/21 42/82/21 41/81/21
f 47/88/22 48/87/22 46/86/22 45/85/22