# Made in Blockbench 4.8.1
mtllib birch_leaves_yellowish_4.mtl

o south
v 1.1240893433786354 1.376904215106175 -0.07228175398237613
v -0.1362135882255332 1.176632269420057 0.9337762306094823
v 1.2586099465026672 -0.23532896701329176 -0.22470673162083654
v -0.0016929851015013986 -0.4356009126994096 0.7813512529710218
v -0.1362135882255332 1.176632269420057 0.9337762306094823
v 1.1240893433786354 1.376904215106175 -0.07228175398237613
v -0.0016929851015013986 -0.4356009126994096 0.7813512529710218
v 1.2586099465026672 -0.23532896701329176 -0.22470673162083654
vt 0.22395833333333331 0.3096846846846847
vt 0.020833333333333315 0.3096846846846847
vt 0.020833333333333315 0.0754504504504504
vt 0.22395833333333331 0.0754504504504504
vt 0.020833333333333315 0.3096846846846847
vt 0.22395833333333326 0.3096846846846847
vt 0.22395833333333326 0.0754504504504504
vt 0.020833333333333315 0.0754504504504504
vn -0.625808856894882 0.0214972286115624 -0.7796801548032011
vn 0.625808856894882 -0.0214972286115624 0.7796801548032011
usemtl m_6061bb4a-2653-7d73-028e-c25237d9445d
f 3/4/1 4/3/1 2/2/1 1/1/1
f 7/8/2 8/7/2 6/6/2 5/5/2
o south
v 0.6272073694586461 1.2704544610371862 -0.3450221208980885
v 0.6809087758667849 -1.7914010899657415 -0.37762570570629717
v 1.0777286093664058 1.2631212699932146 1.0857038614972438
v 1.1314300157745447 -1.7987342810097129 1.053100276689035
v 1.0329196039281396 0.41830364397006076 1.0954836514865982
v 0.5823983640203798 0.42563683501403216 -0.3352423309087341
vt 0.66796875 0.6711711711711712
vt 0.48046875 0.6711711711711712
vt 0.48046875 0.3512243243243244
vt 0.66796875 0.3512243243243244
vt 0.48828125 0.8603603603603603
vt 0.48828125 0.7384054054054054
vt 0.67578125 0.7384054054054054
vt 0.67578125 0.8603603603603603
vt 0.67578125 0.7384054054054054
vt 0.67578125 0.8603603603603603
vt 0.48828125 0.8603603603603603
vt 0.48828125 0.7384054054054054
vt 0.66796875 0.3512243243243244
vt 0.48046875 0.3512243243243244
vt 0.48046875 0.6711711711711712
vt 0.66796875 0.6711711711711712
vn -0.9527967620705838 -0.04806687258865236 0.2997797624045991
vn 0.9523583484223429 -0.05398772188469324 -0.3001647915328657
vn 0.9523583484223429 -0.05398772188469324 -0.3001647915328657
vn 0.9527967620705838 0.04806687258865236 -0.2997797624045991
usemtl m_6061bb4a-2653-7d73-028e-c25237d9445d
f 13/9/3 14/10/3 10/11/3 12/12/3
f 11/13/4 13/14/4 14/15/4 9/16/4
f 14/17/5 9/18/5 11/19/5 13/20/5
f 12/21/6 10/22/6 14/23/6 13/24/6
o west
v 1.3373798808609352 1.0171578227777616 0.5033928031050678
v 0.033520993478773686 0.9209444814924188 1.2387124579173552
v 1.4256185155409418 -2.1267678269319683 0.24848752178068978
v 0.12175962815878016 -2.222981168217311 0.9838071765929772
v 1.3548661734280436 0.19881267961469673 0.42732239996639315
v 0.05100728604588195 0.10259933832935408 1.1626420547786807
vt 0.484375 0.8423423423423424
vt 0.484375 0.7238468468468469
vt 0.671875 0.7238468468468469
vt 0.671875 0.8423423423423424
vt 0.48046875 0.6351351351351351
vt 0.66796875 0.6351351351351351
vt 0.66796875 0.2987720720720721
vt 0.48046875 0.2987720720720721
vt 0.671875 0.7238468468468469
vt 0.671875 0.8423423423423424
vt 0.484375 0.8423423423423424
vt 0.484375 0.7238468468468469
vt 0.48046875 0.6351351351351351
vt 0.48046875 0.2987720720720721
vt 0.66796875 0.2987720720720721
vt 0.66796875 0.6351351351351351
vn 0.49393384412691893 -0.07000879546241054 0.8666764829992256
vn -0.4934610507209568 0.05175297659646172 -0.8682268256825375
vn 0.49393384412691893 -0.07000879546241054 0.8666764829992256
vn 0.4934610507209568 -0.05175297659646172 0.8682268256825375
usemtl m_6061bb4a-2653-7d73-028e-c25237d9445d
f 16/25/7 20/26/7 19/27/7 15/28/7
f 20/29/8 19/30/8 17/31/8 18/32/8
f 19/33/9 15/34/9 16/35/9 20/36/9
f 20/37/10 18/38/10 17/39/10 19/40/10
o east
v 1.2377874114243594 1.2781866444397028 -0.04226776313404368
v -0.20311737447065004 1.2876793567151026 0.37450949919982346
v 1.19471454416174 -1.8480500717449022 -0.11997698063798123
v -0.24619024173326964 -1.8385573594695024 0.2968002816958859
v -0.2122259519525056 0.2234063808669513 0.36725920985541405
v 1.2286788339425039 0.21391366859155153 -0.0495180524784532
vt 0.765625 0.5405405405405406
vt 0.765625 0.38712252252252255
vt 0.953125 0.38712252252252255
vt 0.953125 0.5405405405405406
vt 0.94921875 0.3783783783783784
vt 0.76171875 0.3783783783783784
vt 0.76171875 0.08094504504504496
vt 0.94921875 0.08094504504504496
vt 0.953125 0.38712252252252255
vt 0.953125 0.5405405405405406
vt 0.765625 0.5405405405405406
vt 0.765625 0.38712252252252255
vt 0.94921875 0.08094504504504496
vt 0.76171875 0.08094504504504496
vt 0.76171875 0.3783783783783784
vt 0.94921875 0.3783783783783784
vn -0.277791776518973 0.00892150344262202 -0.9605998832369055
vn 0.277435721048487 -0.03737440777067313 0.9600169656470127
vn -0.277791776518973 0.00892150344262202 -0.9605998832369055
vn -0.277435721048487 0.03737440777067313 -0.9600169656470127
usemtl m_6061bb4a-2653-7d73-028e-c25237d9445d
f 21/41/11 26/42/11 25/43/11 22/44/11
f 26/45/12 25/46/12 24/47/12 23/48/12
f 25/49/13 22/50/13 21/51/13 26/52/13
f 23/53/14 24/54/14 25/55/14 26/56/14
o top
v 0.7258884792844089 0.7442746251220669 1.5421155718340325
v 1.564682325753303 1.1559034811404845 0.3686648621666486
v 0.7258884792844089 0.7442746251220669 1.5421155718340325
v 1.564682325753303 1.1559034811404845 0.3686648621666486
v 0.45479341597935363 0.7653181278740415 -0.5617058648957003
v -0.38400043048954013 0.35368927185562404 0.6117448447716836
v 0.45479341597935363 0.7653181278740415 -0.5617058648957003
v -0.38400043048954013 0.35368927185562404 0.6117448447716836
vt 0.03125 0.5900900900900901
vt 0.03125 0.37387387387387383
vt 0.21875 0.37387387387387383
vt 0.21875 0.5900900900900901
vt 0.21875 0.5900900900900901
vt 0.21875 0.37387387387387383
vt 0.03125 0.37387387387387383
vt 0.03125 0.5900900900900901
vn -0.3739111546799516 0.9256840753870614 0.057440760620892345
vn 0.3739111546799516 -0.9256840753870614 -0.057440760620892345
usemtl m_6061bb4a-2653-7d73-028e-c25237d9445d
f 32/60/15 27/59/15 28/58/15 31/57/15
f 33/64/16 30/63/16 29/62/16 34/61/16
o bottom
v 1.5265429719202857 0.05116837422229792 0.6522154837377074
v 0.7606182754818469 0.18650303822776504 -0.6303771593505854
v 1.5265429719202857 0.05116837422229792 0.6522154837377074
v 0.7606182754818469 0.18650303822776504 -0.6303771593505854
v -0.4879680132064216 0.48239760356816985 0.14646174666640244
v 0.27795668323201705 0.34706293956270273 1.4290543897546955
v -0.4879680132064216 0.48239760356816985 0.14646174666640244
v 0.27795668323201705 0.34706293956270273 1.4290543897546955
vt 0.0234375 0.9504504504504504
vt 0.0234375 0.7342342342342343
vt 0.2109375 0.7342342342342343
vt 0.2109375 0.9504504504504504
vt 0.2109375 0.9497818130630631
vt 0.2109375 0.7335655968468469
vt 0.0234375 0.7335655968468469
vt 0.0234375 0.9497818130630631
vn 0.21539796665226443 0.9761900850689414 -0.025624866344299307
vn -0.21539796665226443 -0.9761900850689414 0.025624866344299307
usemtl m_6061bb4a-2653-7d73-028e-c25237d9445d
f 40/68/17 35/67/17 36/66/17 39/65/17
f 41/72/18 38/71/18 37/70/18 42/69/18
o north
v 0.422258652928104 1.0965879840433754 1.2987675559319065
v 0.07812750952706611 1.1088205128219244 -0.16117221042188923
v 0.3978089650619305 -1.851368909787909 1.2798304263751326
v 0.05367782166089258 -1.83913638100936 -0.1801093399786633
v 0.4696202867927214 0.27609256502459445 1.280728902798456
v 0.12548914339168346 0.28832509380314353 -0.17921086355533977
vt 0.7701289062500001 0.5232117117117119
vt 0.7701289062500001 0.40471621621621623
vt 0.9576289062500001 0.4047162162162161
vt 0.9576289062500001 0.5232117117117117
vt 0.769760546875 0.4281923423423424
vt 0.957260546875 0.4281923423423424
vt 0.957260546875 0.12135720720720722
vt 0.769760546875 0.12135720720720722
vt 0.9576289062500001 0.4047162162162161
vt 0.9576289062500001 0.5232117117117117
vt 0.7701289062500001 0.5232117117117119
vt 0.7701289062500001 0.40471621621621623
vt 0.769760546875 0.12135720720720722
vt 0.957260546875 0.12135720720720722
vt 0.957260546875 0.42819234234234227
vt 0.769760546875 0.42819234234234227
vn -0.9716207122256569 -0.06110898045002171 0.22851451613074014
vn 0.9727425388442125 -0.03273745224611153 -0.22956526815559394
vn -0.9716207122256569 -0.06110898045002171 0.22851451613074014
vn -0.9727425388442125 0.03273745224611153 0.22956526815559394
usemtl m_6061bb4a-2653-7d73-028e-c25237d9445d
f 44/73/19 48/74/19 47/75/19 43/76/19
f 48/77/20 47/78/20 45/79/20 46/80/20
f 47/81/21 43/82/21 44/83/21 48/84/21
f 46/85/22 45/86/22 47/87/22 48/88/22