# Made in Blockbench 4.8.1
mtllib birch_leaves_slab_upper_3.mtl

o south
v 0.016713270075782494 1.5014131836492313 0.9278910283627109
v 1.2770162016799516 1.3011412379631135 -0.07816695622914721
v -0.11780733304824909 -0.11081999847023549 1.0803160060011714
v 1.14249559855592 -0.3110919441563532 0.07425802140931337
v 1.2770162016799516 1.3011412379631135 -0.07816695622914721
v 0.016713270075782494 1.5014131836492313 0.9278910283627109
v 1.14249559855592 -0.3110919441563532 0.07425802140931337
v -0.11780733304824909 -0.11081999847023549 1.0803160060011714
vt 0.22395833333333331 0.2691441441441441
vt 0.020833333333333315 0.2691441441441441
vt 0.020833333333333315 0.03490990990990994
vt 0.22395833333333331 0.03490990990990994
vt 0.020833333333333315 0.2691441441441441
vt 0.22395833333333326 0.2691441441441441
vt 0.22395833333333326 0.03490990990990994
vt 0.020833333333333315 0.03490990990990994
vn 0.6258088568948817 0.02149722861156256 0.7796801548032012
vn -0.6258088568948817 -0.02149722861156256 -0.7796801548032012
usemtl m_6061bb4a-2653-7d73-028e-c25237d9445d
f 3/4/1 4/3/1 2/2/1 1/1/1
f 7/8/2 8/7/2 6/6/2 5/5/2
o north
v 0.7133700911753905 1.1590879840433754 -0.4372957824116308
v 1.0575012345764279 1.1713205128219246 1.022643983942165
v 0.7378197790415644 -1.788868909787909 -0.4183586528548563
v 1.0819509224426018 -1.77663638100936 1.0415811134989394
v 0.6660084573107732 0.33859256502459445 -0.41925712927818026
v 1.0101396007118106 0.35082509380314375 1.0406826370756157
vt 0.9576289062500001 0.4047162162162161
vt 0.7701289062500001 0.40471621621621623
vt 0.7701289062500001 0.5232117117117119
vt 0.9576289062500001 0.5232117117117117
vt 0.765854296875 0.30683513513513516
vt 0.953354296875 0.30683513513513516
vt 0.953354296875 0
vt 0.765854296875 0
vt 0.9576289062500001 0.4047162162162161
vt 0.9576289062500001 0.5232117117117117
vt 0.7701289062500001 0.5232117117117119
vt 0.7701289062500001 0.40471621621621623
vt 0.765854296875 0
vt 0.953354296875 0
vt 0.953354296875 0.30683513513513505
vt 0.765854296875 0.30683513513513505
vn -0.971620712225657 0.0611089804500216 0.22851451613073984
vn -0.9727425388442124 -0.03273745224611163 0.2295652681555936
vn 0.971620712225657 -0.0611089804500216 -0.22851451613073984
vn 0.9727425388442124 0.03273745224611163 -0.2295652681555936
usemtl m_6061bb4a-2653-7d73-028e-c25237d9445d
f 13/9/3 14/10/3 10/11/3 9/12/3
f 14/13/4 13/14/4 11/15/4 12/16/4
f 13/17/5 9/18/5 10/19/5 14/20/5
f 12/21/6 11/22/6 13/23/6 14/24/6
o south
v 0.5084213746448477 1.3329544610371862 1.2064938944183643
v 0.45471996823670924 -1.7289010899657415 1.2390974792265732
v 0.05790013473708833 1.3256212699932144 -0.22423208797696814
v 0.004198728328949852 -1.7362342810097129 -0.19162850316875896
v 0.10270914017535471 0.4808036439700607 -0.2340118779663224
v 0.553230380083114 0.48813683501403227 1.19671410442901
vt 0.67578125 0.6081081081081081
vt 0.48828125 0.6081081081081081
vt 0.48828125 0.2881612612612613
vt 0.67578125 0.2881612612612613
vt 0.67578125 0.7384054054054054
vt 0.48828125 0.7384054054054054
vt 0.48828125 0.8603603603603603
vt 0.67578125 0.8603603603603603
vt 0.67578125 0.7384054054054054
vt 0.67578125 0.8603603603603603
vt 0.48828125 0.8603603603603603
vt 0.48828125 0.7384054054054054
vt 0.67578125 0.2881612612612613
vt 0.48828125 0.2881612612612613
vt 0.48828125 0.6081081081081081
vt 0.67578125 0.6081081081081081
vn 0.952796762070584 -0.048066872588652276 -0.2997797624045988
vn 0.9523583484223428 0.053987721884693314 -0.30016479153286535
vn -0.9523583484223428 -0.053987721884693314 0.30016479153286535
vn -0.952796762070584 0.048066872588652276 0.2997797624045988
usemtl m_6061bb4a-2653-7d73-028e-c25237d9445d
f 19/25/7 20/26/7 16/27/7 18/28/7
f 20/29/8 19/30/8 17/31/8 15/32/8
f 20/33/9 15/34/9 17/35/9 19/36/9
f 18/37/10 16/38/10 20/39/10 19/40/10
o bottom
v -0.4447637194798576 0.3577158954895331 0.21566250636864281
v 0.3211609769585808 0.4930505594950003 1.498255149456936
v -0.4447637194798576 0.3577158954895331 0.21566250636864281
v 0.3211609769585808 0.4930505594950003 1.498255149456936
v 1.5697472656468499 0.7889451248354054 0.7214162434399485
v 0.8038225692084113 0.653610460829938 -0.5611763996483448
v 1.5697472656468499 0.7889451248354054 0.7214162434399485
v 0.8038225692084113 0.653610460829938 -0.5611763996483448
vt 0.0234375 0.9504504504504504
vt 0.0234375 0.7342342342342343
vt 0.2109375 0.7342342342342343
vt 0.2109375 0.9504504504504504
vt 0.2109375 0.9497818130630631
vt 0.2109375 0.7335655968468469
vt 0.0234375 0.7335655968468469
vt 0.0234375 0.9497818130630631
vn -0.21539796665226452 0.9761900850689412 0.02562486634429912
vn 0.21539796665226452 -0.9761900850689412 -0.02562486634429912
usemtl m_6061bb4a-2653-7d73-028e-c25237d9445d
f 26/44/11 21/43/11 22/42/11 25/41/11
f 27/48/12 24/47/12 23/46/12 28/45/12
o east
v -0.10215866732086565 1.3406866444397028 0.9037395366543193
v 1.3387461185741438 1.3501793567151026 0.48696227432045247
v -0.0590858000582456 -1.7855500717449022 0.9814487541582572
v 1.3818189858367638 -1.7760573594695024 0.5646714918243904
v 1.3385338039439092 0.6600404175500649 0.47050932410919244
v -0.1023709819511005 0.6505477052746651 0.8872865864430592
vt 0.95703125 0.4410333333333334
vt 0.76953125 0.4410333333333334
vt 0.76953125 0.5405405405405406
vt 0.95703125 0.5405405405405406
vt 0.953125 0.3514666666666667
vt 0.765625 0.3514666666666667
vt 0.765625 0
vt 0.953125 0
vt 0.95703125 0.4410333333333334
vt 0.95703125 0.5405405405405406
vt 0.76953125 0.5405405405405406
vt 0.76953125 0.4410333333333334
vt 0.953125 0
vt 0.765625 0
vt 0.765625 0.3514666666666667
vt 0.953125 0.3514666666666667
vn -0.27792339884693884 0.0229797807542306 -0.960328336585906
vn -0.2773560347554969 -0.04202898882973766 -0.9598474848030064
vn 0.27792339884693884 -0.0229797807542306 0.960328336585906
vn 0.2773560347554969 0.04202898882973766 0.9598474848030064
usemtl m_6061bb4a-2653-7d73-028e-c25237d9445d
f 33/49/13 34/50/13 29/51/13 30/52/13
f 34/53/14 33/54/14 32/55/14 31/56/14
f 33/57/15 30/58/15 29/59/15 34/60/15
f 31/61/16 32/62/16 33/63/16 34/64/16
o west
v -0.20175113675744105 1.0796578227777616 0.3580789704152077
v 1.1021077506247206 0.9834444814924188 -0.37724068439707925
v -0.2899897714374472 -2.0642678269319683 0.612984251739586
v 1.0138691159447144 -2.160481168217311 -0.12233540307270091
v -0.21923742932454926 0.26131267961469673 0.4341493735538825
v 1.0846214580576126 0.16509933832935408 -0.3011702812584045
vt 0.671875 0.7238468468468469
vt 0.484375 0.7238468468468469
vt 0.484375 0.8423423423423424
vt 0.671875 0.8423423423423424
vt 0.48046875 0.6261261261261262
vt 0.66796875 0.6261261261261262
vt 0.66796875 0.2897630630630631
vt 0.48046875 0.2897630630630631
vt 0.671875 0.7238468468468469
vt 0.671875 0.8423423423423424
vt 0.484375 0.8423423423423424
vt 0.484375 0.7238468468468469
vt 0.48046875 0.6261261261261262
vt 0.48046875 0.2897630630630631
vt 0.66796875 0.2897630630630631
vt 0.66796875 0.6261261261261262
vn 0.4939338441269187 0.0700087954624107 0.8666764829992258
vn 0.49346105072095664 0.051752976596461886 0.8682268256825377
vn -0.4939338441269187 -0.0700087954624107 -0.8666764829992258
vn -0.49346105072095664 -0.051752976596461886 -0.8682268256825377
usemtl m_6061bb4a-2653-7d73-028e-c25237d9445d
f 39/65/17 40/66/17 36/67/17 35/68/17
f 40/69/18 39/70/18 37/71/18 38/72/18
f 39/73/19 35/74/19 36/75/19 40/76/19
f 40/77/20 38/78/20 37/79/20 39/80/20
o top
v 0.40974026481908576 0.8067746251220669 -0.6806437983137569
v -0.42905358164980856 1.2184034811404842 0.49280691135362664
v 0.40974026481908576 0.8067746251220669 -0.6806437983137569
v -0.42905358164980856 1.2184034811404842 0.49280691135362664
v 0.6808353281241402 0.8278181278740417 1.423177638415976
v 1.5196291745930344 0.41618927185562427 0.2497269287485926
v 0.6808353281241402 0.8278181278740417 1.423177638415976
v 1.5196291745930344 0.41618927185562427 0.2497269287485926
vt 0.03125 0.5900900900900901
vt 0.03125 0.37387387387387383
vt 0.21875 0.37387387387387383
vt 0.21875 0.5900900900900901
vt 0.21875 0.5900900900900901
vt 0.21875 0.37387387387387383
vt 0.03125 0.37387387387387383
vt 0.03125 0.5900900900900901
vn 0.3739111546799515 0.9256840753870614 -0.057440760620892345
vn -0.3739111546799515 -0.9256840753870614 0.057440760620892345
usemtl m_6061bb4a-2653-7d73-028e-c25237d9445d
f 46/84/21 41/83/21 42/82/21 45/81/21
f 47/88/22 44/87/22 43/86/22 48/85/22