# Made in Blockbench 4.8.1
mtllib birch_leaves_yellowish_vertical_slab_2.mtl

o bottom
v -0.2632775190824275 0.43886602112545514 0.895760655846459
v 1.2304426996502529 0.5742000566124217 0.8737468649869387
v -0.2632775190824275 0.43886602112545514 0.895760655846459
v 1.2304426996502529 0.5742000566124217 0.8737468649869387
v 1.1819739700060607 0.8700935145124848 -0.5959802674490869
v -0.31174624872661955 0.7347594790255181 -0.5739664765895666
v 1.1819739700060607 0.8700935145124848 -0.5959802674490869
v -0.31174624872661955 0.7347594790255181 -0.5739664765895666
vt 0.3046875 0.21688485360360366
vt 0.3046875 0.0006686373873874274
vt 0.4921875 0.0006686373873874274
vt 0.4921875 0.21688485360360366
vt 0.4921875 0.21621621621621623
vt 0.4921875 0
vt 0.3046875 0
vt 0.3046875 0.21621621621621623
vn -0.08550682986593 0.9761902729854703 0.199351781970545
vn 0.08550682986593 -0.9761902729854703 -0.199351781970545
usemtl m_6061bb4a-2653-7d73-028e-c25237d9445d
f 6/4/1 1/3/1 2/2/1 5/1/1
f 7/8/2 4/7/2 3/6/2 8/5/2
o south
v 1.2429049187847567 1.5014143583887591 0.12231047471574286
v -0.2615947717062833 1.3011399010671978 0.7028238880464923
v 1.4170371432793214 -0.11081852278669879 0.017390956754318898
v -0.08746254721171853 -0.31109298010826003 0.5979043700850681
v -0.2615947717062833 1.3011399010671978 0.7028238880464923
v 1.2429049187847567 1.5014143583887591 0.12231047471574286
v -0.08746254721171853 -0.31109298010826003 0.5979043700850681
v 1.4170371432793214 -0.11081852278669879 0.017390956754318898
vt 0.22395833333333331 0.2691441441441441
vt 0.020833333333333315 0.2691441441441441
vt 0.020833333333333315 0.03490990990990994
vt 0.22395833333333331 0.03490990990990994
vt 0.020833333333333315 0.2691441441441441
vt 0.22395833333333326 0.2691441441441441
vt 0.22395833333333326 0.03490990990990994
vt 0.020833333333333315 0.03490990990990994
vn -0.3623897798655233 0.021496914664980993 -0.931778691594149
vn 0.3623897798655233 -0.021496914664980993 0.931778691594149
usemtl m_6061bb4a-2653-7d73-028e-c25237d9445d
f 11/12/3 12/11/3 10/10/3 9/9/3
f 15/16/4 16/15/4 14/14/4 13/13/4
o south
v 0.8602704110356887 1.2085920102462107 -0.4168663744079839
v 0.9063472624179947 -1.1034213542023141 -0.42815248880159906
v 0.8597125581652064 1.2012587169049498 1.0831155960199765
v 0.9057894095475123 -1.110754647543575 1.0718294816263614
v 0.8140367944542675 0.3564410812217269 1.0789683622392543
v 0.8145946473247497 0.3637743745629879 -0.42101360818870615
vt 0.96875 0.8288288288288288
vt 0.78125 0.8288288288288288
vt 0.78125 0.6169261261261261
vt 0.96875 0.6169261261261261
vt 0.7734375 1
vt 0.7734375 0.878045045045045
vt 0.9609375 0.878045045045045
vt 0.9609375 1
vt 0.9609375 0.878045045045045
vt 0.9609375 1
vt 0.7734375 1
vt 0.7734375 0.878045045045045
vt 0.96875 0.6169261261261261
vt 0.78125 0.6169261261261261
vt 0.78125 0.8288288288288288
vt 0.96875 0.8288288288288288
vn -0.9980503150271995 -0.06241082669310391 -0.0006763028842576087
vn 0.9985416054499404 -0.053987504532795376 0.0001074233534611479
vn 0.9985416054499404 -0.053987504532795376 0.0001074233534611479
vn 0.9980503150271995 0.06241082669310391 0.0006763028842576087
usemtl m_6061bb4a-2653-7d73-028e-c25237d9445d
f 21/17/5 22/18/5 18/19/5 20/20/5
f 19/21/6 21/22/6 22/23/6 17/24/6
f 22/25/7 17/26/7 19/27/7 21/28/7
f 20/29/8 18/30/8 22/31/8 21/32/8
o west
v 1.2491578978260462 1.0594989560414223 0.3994186391609823
v -0.23937528627282223 1.0417771101753919 0.5836871823678575
v 1.2786803564040494 -2.095171545934903 0.3345056327605016
v -0.20985282769481894 -2.1128933918009336 0.518774175967377
v 1.255477305829125 0.2379398729930723 0.37145458825191213
v -0.23305587826974328 0.22021802712704186 0.5557231314587875
vt 0.765625 0.5135135135135135
vt 0.765625 0.39501801801801806
vt 0.953125 0.39501801801801806
vt 0.953125 0.5135135135135135
vt 0.76953125 0.3918918918918919
vt 0.95703125 0.3918918918918919
vt 0.95703125 0.055528828828828924
vt 0.76953125 0.055528828828828924
vt 0.953125 0.39501801801801806
vt 0.953125 0.5135135135135135
vt 0.765625 0.5135135135135135
vt 0.765625 0.39501801801801806
vt 0.76953125 0.3918918918918919
vt 0.76953125 0.055528828828828924
vt 0.95703125 0.055528828828828924
vt 0.95703125 0.3918918918918919
vn 0.1231728637801684 -0.03281268305858001 0.9918426152664995
vn -0.12301129286284108 0.014491460235523734 -0.9922994605503193
vn 0.1231728637801684 -0.03281268305858001 0.9918426152664995
vn 0.12301129286284108 -0.014491460235523734 0.9922994605503193
usemtl m_6061bb4a-2653-7d73-028e-c25237d9445d
f 24/33/9 28/34/9 27/35/9 23/36/9
f 28/37/10 27/38/10 25/39/10 26/40/10
f 27/41/11 23/42/11 24/43/11 28/44/11
f 28/45/12 26/46/12 25/47/12 27/48/12
o east
v 1.2527072843558396 1.339448569833638 0.022237035491804447
v -0.21903899506441732 1.3489413246827548 0.3118450060623751
v 1.2165707356209692 -1.7867881004960329 -0.05893211463055703
v -0.2551755437992878 -1.777295345646916 0.2306758559400136
v -0.2202615486498271 0.6588023773463186 0.32825350179131313
v 1.2514847307704298 0.6493096224972017 0.038645531220742546
vt 0.48828125 0.8648648648648649
vt 0.48828125 0.7653576576576577
vt 0.67578125 0.7653576576576577
vt 0.67578125 0.8648648648648649
vt 0.6796875 0.7613765765765765
vt 0.4921875 0.7613765765765765
vt 0.4921875 0.40990990990990994
vt 0.6796875 0.40990990990990994
vt 0.67578125 0.7653576576576577
vt 0.67578125 0.8648648648648649
vt 0.48828125 0.8648648648648649
vt 0.48828125 0.7653576576576577
vt 0.6796875 0.40990990990990994
vt 0.4921875 0.40990990990990994
vt 0.4921875 0.7613765765765765
vt 0.6796875 0.7613765765765765
vn -0.19316755232991023 -0.02297925797941718 -0.9808966563454005
vn 0.19264424792475937 -0.04202951126888995 0.9803681522387405
vn -0.19316755232991023 -0.02297925797941718 -0.9808966563454005
vn -0.19264424792475937 0.04202951126888995 -0.9803681522387405
usemtl m_6061bb4a-2653-7d73-028e-c25237d9445d
f 29/49/13 34/50/13 33/51/13 30/52/13
f 34/53/14 33/54/14 32/55/14 31/56/14
f 33/57/15 30/58/15 29/59/15 34/60/15
f 31/61/16 32/62/16 33/63/16 34/64/16
o north
v 0.16127479272661202 1.0351245483339933 1.150639803666103
v 0.27208417121573963 1.0473572252282153 -0.34521167400634833
v 0.1945689424453673 -1.3527040537767943 1.133579131459225
v 0.3053783209344949 -1.3404713768825722 -0.3622723462132261
v 0.21186821286921603 0.2146290987925668 1.1476778583447182
v 0.3226775913583436 0.22686177568678895 -0.34817361932773305
vt 0.7779414062500001 1
vt 0.7779414062500001 0.8815045045045045
vt 0.9654414062500001 0.8815045045045043
vt 0.9654414062500001 0.9999999999999999
vt 0.96515546875 0.7571162162162163
vt 0.77765546875 0.7571162162162163
vt 0.77765546875 0.5311720720720721
vt 0.96515546875 0.5311720720720721
vt 0.9654414062500001 0.8815045045045043
vt 0.9654414062500001 0.9999999999999999
vt 0.7779414062500001 1
vt 0.7779414062500001 0.8815045045045045
vt 0.96515546875 0.5311720720720721
vt 0.77765546875 0.5311720720720721
vt 0.77765546875 0.7571162162162163
vt 0.96515546875 0.7571162162162163
vn -0.9953667848170022 -0.06110836083034715 -0.07423430419753328
vn 0.9972065946987348 -0.01167019669786211 0.07377542950323192
vn -0.9953667848170022 -0.06110836083034715 -0.07423430419753328
vn -0.9972065946987348 0.01167019669786211 -0.07377542950323192
usemtl m_6061bb4a-2653-7d73-028e-c25237d9445d
f 36/65/17 40/66/17 39/67/17 35/68/17
f 40/69/18 39/70/18 37/71/18 38/72/18
f 39/73/19 35/74/19 36/75/19 40/76/19
f 38/77/20 37/78/20 39/79/20 40/80/20
o top
v -0.07917288358469027 0.8957970717466712 1.05205967581182
v 1.332023011077341 1.2493417047026565 0.6866389054702229
v -0.07917288358469027 0.8957970717466712 1.05205967581182
v 1.332023011077341 1.2493417047026565 0.6866389054702229
v 1.142277121198509 0.6153712205425235 -0.6594955315336961
v -0.2689187734635224 0.2618265875865382 -0.2940747611920991
v 1.142277121198509 0.6153712205425235 -0.6594955315336961
v -0.2689187734635224 0.2618265875865382 -0.2940747611920991
vt 0.47265625 0.21621621621621623
vt 0.47265625 0
vt 0.28515625 0
vt 0.28515625 0.21621621621621623
vt 0.28515625 0.21621621621621623
vt 0.28515625 0
vt 0.47265625 0
vt 0.47265625 0.21621621621621623
vn -0.31448203917137485 0.8751095468496844 -0.36781017937402727
vn 0.31448203917137485 -0.8751095468496844 0.36781017937402727
usemtl m_6061bb4a-2653-7d73-028e-c25237d9445d
f 46/84/21 41/83/21 42/82/21 45/81/21
f 47/88/22 44/87/22 43/86/22 48/85/22