# Made in Blockbench 4.12.2
mtllib branch_45_straight_parent.mtl

o cube
v 0.21923828125 1.1875 -0.21875
v 0.78076171875 1.1875 -0.21875
v 0.78076171875 1 -0.78125
v 0.21923828125 1 -0.78125
v 0.2197265625 0.1875 0.78076171875
v 0.219482421875 0 0.781005859375
v 0.780517578125 0 0.781005859375
v 0.7802734375 0.1875 0.78076171875
v 0.780517578125 0 0.218994140625
v 0.219482421875 0 0.218994140625
vt 0.9580083333333338 0.7190249999999998
vt 0.7708333333333339 0.7190249999999998
vt 0.7708333333333339 0.9166666666666664
vt 0.9580083333333338 0.9166666666666664
vt 0.4167479166666663 0.1875
vt 0.41666666666666635 0.125
vt 0.6036791666666663 0.125
vt 0.6035979166666663 0.1875
vt 0.8331708333333324 0.125
vt 0.6459145833333325 0.1875
vt 0.6458333333333325 0.125
vt 0.9786791666666663 0.18766250000000095
vt 0.9786791666666663 0.3750000000000009
vt 0.7916666666666664 0.3750000000000009
vt 0.7916666666666664 0.18766250000000095
vt 0.7916666666666657 0.12500000000000033
vt 0.9790041666666657 0.12500000000000033
vt 0.9789229166666656 0.18750000000000033
vt 0.24685907218904476 0.7607340770329926
vt 0.15844918316286125 0.9374999999999997
vt 0.6299111598804449 0.9375
vt 0.7181486706265107 0.7609064133061441
vt 0.6797042968750006 0.1878249999999998
vt 0.6797042968750006 0.375
vt 0.2084147135416672 0.37483749999999993
vt 0.2084147135416672 0.18798749999999986
vt 0.6588954155357695 0.3641491458875742
vt 0.18760581709830362 0.36397680961442314
vt 0.2758433278443693 0.18738322292056708
vt 0.7473053045619529 0.18738322292056697
vt 0.20833333333333334 0.93741875
vt 0.67979375 0.9375
vt 0.67979375 0.750325
vt 0.20833333333333334 0.7504062499999999
vn 0 0.9486832980505139 -0.31622776601683794
vn 0 0.0013020822295450188 0.9999991522905745
vn 0.9999991522905745 0.0013020822295450188 0
vn 0 -1 0
vn -0.9999991522905745 0.0013020822295450188 0
vn -0.9999999813758226 -0.0001830942901512034 0.00006103143005040113
vn 0 0.7069340844593379 0.7072794357463235
vn 0.9999998987938863 -0.00004041661165768703 0.0004480833796379791
vn 0 -0.7071930821291589 -0.7070204697097962
usemtl m_76900f67-a15c-46a1-f269-309c3f9303ad
f 1/1/1 2/2/1 3/3/1 4/4/1
f 5/5/2 6/6/2 7/7/2 8/8/2
f 9/9/3 8/10/3 7/11/3
f 9/12/4 7/13/4 6/14/4 10/15/4
f 10/16/5 6/17/5 5/18/5
f 1/19/6 4/20/6 10/21/6 5/22/6
f 2/23/7 1/24/7 5/25/7 8/26/7
f 2/27/8 8/28/8 9/29/8 3/30/8
f 10/31/9 4/32/9 3/33/9 9/34/9