# Made in Blockbench 4.12.2
mtllib branch_22.5_straight_parent.mtl

o cube
v 0.21923828125 1.1875 0.78125
v 0.78076171875 1.1875 0.78125
v 0.78076171875 1 0.21875
v 0.21923828125 1 0.21875
v 0.2197265625 -0.8125 1.78076171875
v 0.219482421875 -1 1.781005859375
v 0.780517578125 -1 1.781005859375
v 0.7802734375 -0.8125 1.78076171875
v 0.219482421875 -1 1.218994140625
v 0.780517578125 -1 1.218994140625
vt 0.2288416666666672 1
vt 0.041666666666667185 1
vt 0.041666666666667185 0.80235625
vt 0.2288416666666672 0.80235625
vt 0.041747916666666274 0.8333333333333335
vt 0.04166666666666627 0.7708333333333336
vt 0.2286791666666663 0.7708333333333336
vt 0.2285979166666663 0.8333333333333335
vt 0 0.7500000000000003
vt 0.18733749999999993 0.7500000000000003
vt 0.18725624999999999 0.8125000000000003
vt 0.24983749999999905 0.7500000000000006
vt 0.06258124999999908 0.8125000000000006
vt 0.06249999999999911 0.7500000000000006
vt 0.2286791666666663 0.6668291666666677
vt 0.2286791666666663 0.8541666666666675
vt 0.04166666666666627 0.8541666666666675
vt 0.04166666666666627 0.6668291666666677
vt 0.8425005800562193 0.1585134446403088
vt 0.8704705051670363 0.35416666666666663
vt 0.12507817301987453 0.35416666666666663
vt 0.09721727747802755 0.1587314506392863
vt 0.09761226569843622 0.3331708333333333
vt 0.8428955990317696 0.33333333333333337
vt 0.8428955990317696 0.14615833333333395
vt 0.09761226569843622 0.14632083333333368
vt 0.8629916677964556 0.7314219380756761
vt 0.11770833333333215 0.7314219380756762
vt 0.14551206009670528 0.9268652954509787
vt 0.8909043603542721 0.9270833333333326
vt 0.8912270833333332 0.750325
vt 0.8912270833333332 0.9375
vt 0.14583333333333334 0.9374187500000001
vt 0.14583333333333334 0.75040625
vn 0 0.9486832980505139 -0.31622776601683794
vn 0 0.0013020822295450188 0.9999991522905745
vn -0.9999991522905745 0.0013020822295450188 0
vn 0.9999991522905745 0.0013020822295450188 0
vn 0 -1 0
vn -0.9999999939183177 -0.00010462804665556284 0.000034876015551854275
vn 0 0.4470388770994495 0.8945145288711993
vn 0.9999999019174043 -0.00002309722286667306 0.00044230272450195967
vn 0 -0.44730093550788724 -0.8943835156652703
usemtl m_3d118b59-ba24-6b42-d4d1-ccc5651d7a72
f 1/1/1 2/2/1 3/3/1 4/4/1
f 5/5/2 6/6/2 7/7/2 8/8/2
f 9/9/3 6/10/3 5/11/3
f 10/12/4 8/13/4 7/14/4
f 10/15/5 7/16/5 6/17/5 9/18/5
f 1/19/6 4/20/6 9/21/6 5/22/6
f 8/23/7 2/24/7 1/25/7 5/26/7
f 2/27/8 8/28/8 10/29/8 3/30/8
f 4/31/9 3/32/9 10/33/9 9/34/9