# Made in Blockbench 4.12.2
mtllib branch_22.5_diagonal_parent.mtl

o cube
v 0.21923828125 1 0.78125
v 0.78076171875 1.1875 0.78125
v 0.21923828125 1 0.21875
v 1.2197265625 -1 1.78076171875
v 1.780517578125 -1 1.781005859375
v 1.7802734375 -0.8125 1.78076171875
v 1.780517578125 -1 1.218994140625
v 1.219482421875 -1 1.218994140625
v 0.78076171875 1 0.21875
vt 1 0.10474999999999979
vt 1 0.30208333333333304
vt 0.8125 0.10474999999999979
vt 0.12516250000000007 0.12500000000000033
vt 0.3120937500000001 0.12500000000000033
vt 0.3120125000000001 0.1875000000000001
vt 0.49983749999999905 0.12500000000000033
vt 0.3125812499999991 0.1875000000000001
vt 0.3124999999999991 0.12500000000000033
vt 0.5620124999999996 0.22932916666666758
vt 0.5620124999999996 0.4166666666666675
vt 0.3750812499999996 0.4165854166666676
vt 0.3749999999999996 0.22932916666666758
vt 1 0.3030989583333338
vt 0.812121875 0.3030989583333338
vt 0.812121875 0.10469348958333391
vt 0.9065732337855307 0.7455089555942107
vt 0.9831322825024378 0.9166666666666666
vt 0.16656996331580554 0.9166666666666666
vt 0.09007620982001592 0.7457467724283486
vt 0.8806954973463313 0.9365968594479903
vt 0.9061156832776636 0.7409078439578478
vt 0.08961983104688287 0.7409078439578476
vt 0.06433223492293527 0.93630182270606
vt 0.10040301884686764 0.19776391757774203
vt 0.9168985500362653 0.1977639175777416
vt 0.8913642991877654 0.39374999999999927
vt 0.07500000000000002 0.39353412516017394
vt 0.17737046861701564 0.3748516511961163
vt 0.9939346760808471 0.375
vt 0.9175395500595567 0.20412500081875296
vt 0.10104166666666665 0.20412500081875307
vn -0.3167226020570755 0.9485182092855126 0
vn -0.00043535004713267665 0.001301515245073731 0.9999990582637582
vn 0.9999991522905745 0.0013020822295450188 0
vn 0 -1 0
vn 0 0.9486832980505139 -0.31622776601683794
vn -0.8943835156652704 -0.4473009355078873 0
vn -0.13032413256599432 0.39029362617420177 0.9114200490655852
vn 0.9113654699013689 0.39047622494117523 -0.1301587416470584
vn 0 -0.44730093550788724 -0.8943835156652703
usemtl m_393da7bb-eb03-e303-7a45-e323823740d5
f 1/1/1 2/2/1 3/3/1
f 4/4/2 5/5/2 6/6/2
f 7/7/3 6/8/3 5/9/3
f 7/10/4 5/11/4 4/12/4 8/13/4
f 2/14/5 9/15/5 3/16/5
f 1/17/6 3/18/6 8/19/6 4/20/6
f 2/21/7 1/22/7 4/23/7 6/24/7
f 7/25/8 9/26/8 2/27/8 6/28/8
f 8/29/9 3/30/9 9/31/9 7/32/9