# Made in Blockbench 4.12.3
mtllib branch_broken_parent_3.mtl

o cube
v 0.5024877199053259 0.38271596374731454 0.38625446208701253
v 0.3298704854673744 0.40469164490287746 0.40483832101734085
v 0.34887945602268533 0.5765934009152311 0.37812792382267957
v 0.5214966904606366 0.5546177197596682 0.35954406489235124
v 0.586222642643059 0.47698729295117204 1.0525538653804898
v 0.6052316131983697 0.6488890489635257 1.0258434681858284
v 0.4136054082051074 0.49896297410673485 1.0711377243108182
v 0.4326143787604183 0.6708647301190886 1.0444273271161568
vt 0.4583333333333333 0.7541667568819118
vt 0.5166668406619429 0.7541667568819118
vt 0.5166689071736361 0.8125
vt 0.4583353998450265 0.8124999999999999
vt 0.8093747413315366 0.8333333333333331
vt 0.5833340188200675 0.8333333333333334
vt 0.5833333333333334 0.7749993321507078
vt 0.8093740558448023 0.7749993321507077
vt 0.4583333333333333 0.89583126682164
vt 0.4583333333333333 0.8374977594930305
vt 0.5166665764514214 0.8374998260047237
vt 0.5166665764514214 0.8958333333333334
vt 0.5833340188200675 0.8374993321507077
vt 0.8093747413315366 0.8374993321507078
vt 0.8093740558448023 0.8958333333333334
vt 0.5833333333333334 0.8958333333333331
vt 0.41354232070752545 0.7749998201265574
vt 0.41354232070752545 0.8333331774554215
vt 0.1875 0.8333333333333334
vt 0.18750000000000008 0.7749999760044692
vt 0.1875 0.8958331774554212
vt 0.18750000000000003 0.8374998201265571
vt 0.4135423207075255 0.8374999760044692
vt 0.41354232070752533 0.8958333333333334
vn -0.12348007039665683 -0.1390176283190525 -0.9825613320456807
vn 0.9863841967882941 -0.1255753208889294 -0.10619347960187658
vn 0.12348007039665737 0.13901762831905323 0.9825613320456805
vn -0.986384196788294 0.1255753208889306 0.10619347960187624
vn 0.10862268888749124 0.9822957486420206 -0.15263084111235023
vn -0.10862268888749127 -0.9822957486420206 0.1526308411123502
usemtl m_22d53f52-f254-d74f-3269-97be709395f1
f 1/1/1 2/2/1 3/3/1 4/4/1
f 5/5/2 1/6/2 4/7/2 6/8/2
f 7/9/3 5/10/3 6/11/3 8/12/3
f 2/13/4 7/14/4 8/15/4 3/16/4
f 8/17/5 6/18/5 4/19/5 3/20/5
f 2/21/6 1/22/6 5/23/6 7/24/6