# Made in Blockbench 5.0.7
mtllib branch_broken_parent_4.mtl

o cube
v 0.22813068839254688 0.4237072037852353 0.4360446971849032
v 0.07718336168394724 0.4544333305277105 0.5190857093110368
v 0.09844796187391575 0.6263350865400641 0.49413369418940695
v 0.24939528858251542 0.5956089597975889 0.41109268206327365
v 0.5611941256237027 0.4680063378905709 1.0250776751430863
v 0.5824587258136712 0.6399080939029247 1.0001256600214568
v 0.41024679891510313 0.4987324646330462 1.10811868726922
v 0.43151139910507164 0.6706342206453999 1.0831666721475903
vt 0.3958336998419409 0.23333149467068315
vt 0.45416850532931696 0.23333149467068315
vt 0.45416645448821674 0.29166666666666663
vt 0.3958333333333333 0.291664249316959
vt 0.6635419942489946 0.8333333333333334
vt 0.4375 0.8333333333333334
vt 0.43750008951599934 0.7750005949435789
vt 0.6635420837649939 0.7750005949435788
vt 0.2916666666666667 0.29166666666666663
vt 0.2916666666666667 0.2333318611792906
vt 0.3499994213129425 0.23333149467068315
vt 0.3500018386626502 0.29166461582556646
vt 0.4166666666666667 0.9000005949435788
vt 0.6427086609156613 0.9000005949435788
vt 0.6427087504316605 0.9583333333333334
vt 0.416666756182666 0.9583333333333333
vt 0.9552092292938216 0.7750008087853688
vt 0.9552092292938216 0.8333333333333334
vt 0.7291666666666666 0.8333307224340383
vt 0.7291666666666666 0.7749981978860737
vt 0.7083333333333334 0.9375
vt 0.7083333333333334 0.8791674754520354
vt 0.9343758959604882 0.8791648645527403
vt 0.9343758959604882 0.9374973891007049
vn -0.4911534558247463 -0.06532591204473533 -0.8686200596618368
vn 0.8625561526205692 -0.17557786709985868 -0.474520069292191
vn 0.491153455824746 0.06532591204473417 0.8686200596618368
vn -0.8625561526205692 0.17557786709985856 0.4745200692921912
vn 0.12151200108553395 0.982295748642021 -0.1425829435521696
vn -0.12151200108553392 -0.9822957486420208 0.14258294355216922
usemtl m_dc22d92e-ba74-8d40-98b4-ae9304f50d7a
f 1/1/1 2/2/1 3/3/1 4/4/1
f 5/5/2 1/6/2 4/7/2 6/8/2
f 7/9/3 5/10/3 6/11/3 8/12/3
f 2/13/4 7/14/4 8/15/4 3/16/4
f 8/17/5 6/18/5 4/19/5 3/20/5
f 2/21/6 1/22/6 5/23/6 7/24/6
o cube
v 0.08349810738958952 0.31534152334711474 0.02983054325635015
v -0.028113390583216213 0.3234884540245271 0.05891046185671467
v -0.02968647144378317 0.41502295828339 0.027228833557489285
v 0.08192502652902256 0.40687602760597774 -0.001851085042875289
v 0.22768685476057127 0.4922133330558127 0.5336888901029191
v 0.2261137739000043 0.5837478373146756 0.5020072618036937
v 0.11607535678776548 0.5003602637332252 0.5627688087032838
v 0.11450227592719853 0.5918947679920881 0.5310871804040582
vt 0.250000322630904 0.8218751170717163
vt 0.2885424947559679 0.8218751170717165
vt 0.288542172125064 0.8541666666666666
vt 0.25 0.8541666666666666
vt 0.4760430986298809 0.3749999999999999
vt 0.2916672064474822 0.375
vt 0.2916666666666667 0.34270819321718105
vt 0.4760425588490655 0.34270819321718093
vt 0.25000000000000006 0.9166666666666666
vt 0.25 0.8781244945416028
vt 0.2822915495949503 0.8781241719106988
vt 0.2822915495949503 0.9166663440357627
vt 0.06250053978081553 0.19687485988384756
vt 0.24687643196321432 0.19687485988384756
vt 0.2468758921823989 0.22916666666666652
vt 0.0625 0.22916666666666663
vt 0.246875591620487 0.2531222513035609
vt 0.246875591620487 0.29166271958447965
vt 0.06250044832475066 0.29166666666666663
vt 0.0625 0.2531241638630286
vt 0.0625 0.375
vt 0.0625 0.3364574971937545
vt 0.24687514332917546 0.3364592996321293
vt 0.2468755916302606 0.37499976791044054
vn -0.26068022123567264 -0.3197682435411488 -0.9109303445813679
vn 0.9652886311161574 -0.07045994099383583 -0.25150199870585616
vn 0.26068022123567447 0.31976824354114863 0.9109303445813675
vn -0.9652886311161574 0.07045994099383632 0.25150199870585566
vn -0.0162382540445604 0.9448723020269744 -0.32703616308877953
vn 0.01623825404456134 -0.9448723020269741 0.3270361630887794
usemtl m_dc22d92e-ba74-8d40-98b4-ae9304f50d7a
f 9/25/7 10/26/7 11/27/7 12/28/7
f 13/29/8 9/30/8 12/31/8 14/32/8
f 15/33/9 13/34/9 14/35/9 16/36/9
f 10/37/10 15/38/10 16/39/10 11/40/10
f 16/41/11 14/42/11 12/43/11 11/44/11
f 10/45/12 9/46/12 13/47/12 15/48/12
o cube
v 0.5859375 0.671875 1.421875
v 0.5859375 0.671875 1
v 0.5859375 0.453125 1.421875
v 0.5859375 0.453125 1
v 0.3671875 0.671875 1
v 0.3671875 0.671875 1.421875
v 0.3671875 0.453125 1
v 0.3671875 0.453125 1.421875
vt 0.20833333333333334 0.875
vt 0.28125 0.875
vt 0.28125 0.8020833333333334
vt 0.20833333333333334 0.8020833333333334
vt 0.20833333333333334 0.875
vt 0.3489583333333333 0.875
vt 0.3489583333333333 0.8020833333333334
vt 0.20833333333333334 0.8020833333333334
vt 0.20833333333333334 0.875
vt 0.28125 0.875
vt 0.28125 0.8020833333333334
vt 0.20833333333333334 0.8020833333333334
vt 0.20833333333333334 0.875
vt 0.3489583333333333 0.875
vt 0.3489583333333333 0.8020833333333334
vt 0.20833333333333334 0.8020833333333334
vt 0.20833333333333334 0.8020833333333334
vt 0.20833333333333334 0.875
vt 0.3489583333333333 0.875
vt 0.3489583333333333 0.8020833333333334
vt 0.20833333333333334 0.8020833333333334
vt 0.20833333333333334 0.875
vt 0.3489583333333333 0.875
vt 0.3489583333333333 0.8020833333333334
vn 0 0 -1
vn 1 0 0
vn 0 0 1
vn -1 0 0
vn 0 1 0
vn 0 -1 0
usemtl m_dc22d92e-ba74-8d40-98b4-ae9304f50d7a
f 20/52/13 23/51/13 21/50/13 18/49/13
f 19/56/14 20/55/14 18/54/14 17/53/14
f 24/60/15 19/59/15 17/58/15 22/57/15
f 23/64/16 24/63/16 22/62/16 21/61/16
f 22/68/17 17/67/17 18/66/17 21/65/17
f 23/72/18 20/71/18 19/70/18 24/69/18