# Made in Blockbench 4.12.4
mtllib bricks_flat_1x3arch_parent.mtl

o cube
v 1.1196875 1.52679029675907 1.121696187917639
v 1.1196875 1.4131594994415662 0.6091407841796741
v 1.1196875 0.9776237927541076 1.243443470757822
v 1.1196875 0.8639929954366037 0.730888067019857
v -0.12250000000000005 1.4131594994415662 0.6091407841796741
v -0.12250000000000005 1.52679029675907 1.121696187917639
v -0.12250000000000005 0.8639929954366037 0.730888067019857
v -0.12250000000000005 0.9776237927541076 1.243443470757822
vt 0.7494789583333334 1
vt 0.3333333333333333 1
vt 0.3333333333333333 0.8125
vt 0.7494789583333334 0.8125
vt 0.9583331249999999 0.66666625
vt 0.9583331249999999 0.833333125
vt 0.7708331249999999 0.833333125
vt 0.7708331249999999 0.66666625
vt 0.5833331249999999 1
vt 1 1
vt 1 0.8125
vt 0.5833331249999999 0.8125
vt 0.6875 0.8125
vt 0.6875 0.645833125
vt 0.875 0.645833125
vt 0.875 0.8125
vt 0.749479375 0.84375
vt 0.333333125 0.84375
vt 0.333333125 1
vt 0.749479375 1
vt 0.4375002083333333 0.979166875
vt 0.8541670833333334 0.979166875
vt 0.8541670833333334 0.8125
vt 0.4375002083333333 0.8125
vn 0 -0.21643961393810288 -0.9762960071199334
vn 1 0 0
vn 0 0.21643961393810288 0.9762960071199334
vn -1 0 0
vn 0 0.9762960071199334 -0.21643961393810288
vn 0 -0.9762960071199334 0.21643961393810288
usemtl m_c22c6a13-0faf-d09e-912e-75697113045f
f 4/4/1 7/3/1 5/2/1 2/1/1
f 3/8/2 4/7/2 2/6/2 1/5/2
f 8/12/3 3/11/3 1/10/3 6/9/3
f 7/16/4 8/15/4 6/14/4 5/13/4
f 6/20/5 1/19/5 2/18/5 5/17/5
f 7/24/6 4/23/6 3/22/6 8/21/6
o cube
v 1.0006250000000003 0.621875 0.43124937500000005
v 1.0006250000000003 0.621875 0.056249374999999935
v 1.0006250000000003 -0.378125 0.43124937500000005
v 1.0006250000000003 -0.378125 0.056249374999999935
v -0.0006249999999999867 0.621875 0.056249374999999935
v -0.0006249999999999867 0.621875 0.43124937500000005
v -0.0006249999999999867 -0.378125 0.056249374999999935
v -0.0006249999999999867 -0.378125 0.43124937500000005
vt 0 1
vt 0.333333125 1
vt 0.333333125 0.666666875
vt 0 0.666666875
vt 0.7713539583333332 0.541666875
vt 0.6463539583333333 0.541666875
vt 0.6463539583333333 0.2083331249999999
vt 0.7713539583333332 0.2083331249999999
vt 0.9375 0.458333125
vt 0.9791668750000001 0.458333125
vt 0.9791668750000001 0.416666875
vt 0.9375 0.416666875
vt 0.6463539583333333 0.541666875
vt 0.7713539583333332 0.541666875
vt 0.7713539583333332 0.2083331249999999
vt 0.6463539583333333 0.2083331249999999
vt 0.041666666666666664 0.7916666666666666
vt 0.08333333333333333 0.7916666666666666
vt 0.08333333333333333 0.75
vt 0.041666666666666664 0.75
vt 0.875 0.416666875
vt 0.9375 0.416666875
vt 0.9375 0.354166875
vt 0.875 0.354166875
vn 0 0 -1
vn 1 0 0
vn 0 0 1
vn -1 0 0
vn 0 1 0
vn 0 -1 0
usemtl m_c22c6a13-0faf-d09e-912e-75697113045f
f 12/28/7 15/27/7 13/26/7 10/25/7
f 11/32/8 12/31/8 10/30/8 9/29/8
f 16/36/9 11/35/9 9/34/9 14/33/9
f 15/40/10 16/39/10 14/38/10 13/37/10
f 14/44/11 9/43/11 10/42/11 13/41/11
f 15/48/12 12/47/12 11/46/12 16/45/12
o cube
v 1.000621875 0.996875 1.054999375
v 1.000621875 0.996875 -0.005000625000000092
v 1.000621875 0.621875 1.054999375
v 1.000621875 0.621875 -0.005000625000000092
v -0.0006281249999999794 0.996875 -0.005000625000000092
v -0.0006281249999999794 0.996875 1.054999375
v -0.0006281249999999794 0.621875 -0.005000625000000092
v -0.0006281249999999794 0.621875 1.054999375
vt 0 1
vt 0.333333125 1
vt 0.333333125 0.833333125
vt 0 0.833333125
vt 0.9366664583333334 0.5625002083333333
vt 0.583333125 0.5625002083333333
vt 0.583333125 0.43750020833333336
vt 0.9366664583333334 0.43750020833333336
vt 0.875 0.416666875
vt 0.9375 0.416666875
vt 0.9375 0.354166875
vt 0.875 0.354166875
vt 0.583333125 0.5625002083333333
vt 0.9366664583333334 0.5625002083333333
vt 0.9366664583333334 0.43750020833333336
vt 0.583333125 0.43750020833333336
vt 0.66625 1
vt 1 1
vt 1 0.6466666666666667
vt 0.66625 0.6466666666666667
vt 0.8541668750000001 0.458333125
vt 0.9583331249999999 0.458333125
vt 0.9583331249999999 0.375
vt 0.8541668750000001 0.375
vn 0 0 -1
vn 1 0 0
vn 0 0 1
vn -1 0 0
vn 0 1 0
vn 0 -1 0
usemtl m_c22c6a13-0faf-d09e-912e-75697113045f
f 20/52/13 23/51/13 21/50/13 18/49/13
f 19/56/14 20/55/14 18/54/14 17/53/14
f 24/60/15 19/59/15 17/58/15 22/57/15
f 23/64/16 24/63/16 22/62/16 21/61/16
f 22/68/17 17/67/17 18/66/17 21/65/17
f 23/72/18 20/71/18 19/70/18 24/69/18
o cube
v 1.121875 0.8854095245472102 0.790776681831421
v 1.121875 1.3843531182099595 0.5310430868867148
v 1.121875 0.6256759296025032 0.2918330881686705
v 1.121875 1.1246195232652525 0.03209949322396416
v -0.12499999999999978 1.3843531182099595 0.5310430868867148
v -0.12499999999999978 0.8854095245472102 0.790776681831421
v -0.12499999999999978 1.1246195232652525 0.03209949322396416
v -0.12499999999999978 0.6256759296025032 0.2918330881686705
vt 0.583333125 1
vt 1 1
vt 1 0.8125
vt 0.583333125 0.8125
vt 0.8125 0.8125
vt 1 0.8125
vt 1 0.625
vt 0.8125 0.625
vt 0.437499375 0.8125
vt 0.85416625 0.8125
vt 0.85416625 0.625
vt 0.437499375 0.625
vt 0.8125 0.8125
vt 1 0.8125
vt 1 0.625
vt 0.8125 0.625
vt 0.583333125 1
vt 1 1
vt 1 0.8125
vt 0.583333125 0.8125
vt 0.583333125 1
vt 1 1
vt 1 0.8125
vt 0.583333125 0.8125
vn 0 0.8870108331782217 -0.4617486132350339
vn 1 0 0
vn 0 -0.8870108331782217 0.4617486132350339
vn -1 0 0
vn 0 0.4617486132350339 0.8870108331782217
vn 0 -0.4617486132350339 -0.8870108331782217
usemtl m_c22c6a13-0faf-d09e-912e-75697113045f
f 28/76/19 31/75/19 29/74/19 26/73/19
f 27/80/20 28/79/20 26/78/20 25/77/20
f 32/84/21 27/83/21 25/82/21 30/81/21
f 31/88/22 32/87/22 30/86/22 29/85/22
f 30/92/23 25/91/23 26/90/23 29/89/23
f 31/96/24 28/95/24 27/94/24 32/93/24
o cube
v 1.1234375 0.6696396288243164 0.3497740979451317
v 1.1234375 1.084358130780011 -0.030245393838677
v 1.1234375 0.28962013704050693 -0.06494440401056364
v 1.1234375 0.7043386389962014 -0.44496389579437234
v -0.12656250000000002 1.084358130780011 -0.030245393838677
v -0.12656250000000002 0.6696396288243164 0.3497740979451317
v -0.12656250000000002 0.7043386389962014 -0.44496389579437234
v -0.12656250000000002 0.28962013704050693 -0.06494440401056364
vt 0.583333125 1
vt 1 1
vt 1 0.8125
vt 0.583333125 0.8125
vt 0.8125 0.791666875
vt 1 0.791666875
vt 1 0.604166875
vt 0.8125 0.604166875
vt 0.479166875 0.854166875
vt 0.8958331249999999 0.854166875
vt 0.8958331249999999 0.666666875
vt 0.479166875 0.666666875
vt 0.6875 0.770833125
vt 0.875 0.770833125
vt 0.875 0.583333125
vt 0.6875 0.583333125
vt 0.583333125 1
vt 1 1
vt 1 0.8125
vt 0.583333125 0.8125
vt 0.583333125 1
vt 1 1
vt 1 0.8125
vt 0.583333125 0.8125
vn 0 0.7372773368101241 -0.6755902076156604
vn 1 0 0
vn 0 -0.7372773368101241 0.6755902076156604
vn -1 0 0
vn 0 0.6755902076156604 0.7372773368101241
vn 0 -0.6755902076156604 -0.7372773368101241
usemtl m_c22c6a13-0faf-d09e-912e-75697113045f
f 36/100/25 39/99/25 37/98/25 34/97/25
f 35/104/26 36/103/26 34/102/26 33/101/26
f 40/108/27 35/107/27 33/106/27 38/105/27
f 39/112/28 40/111/28 38/110/28 37/109/28
f 38/116/29 33/115/29 34/114/29 37/113/29
f 39/120/30 36/119/30 35/118/30 40/117/30