# Made in Blockbench 4.8.3
mtllib brown_mushroom_3.mtl

o cube
v -0.04295056601493752 -0.30069842003198327 -0.11247887939360207
v -0.04295056601493752 -0.26714186655646943 -0.19349156590068556
v -0.04295056601493752 -0.5437364795532336 -0.21314853982014348
v -0.04295056601493752 -0.5101799260777198 -0.29416122632722697
v -0.13063806601493755 -0.26714186655646943 -0.19349156590068556
v -0.13063806601493755 -0.30069842003198327 -0.11247887939360207
v -0.13063806601493755 -0.5101799260777198 -0.29416122632722697
v -0.13063806601493755 -0.5437364795532336 -0.21314853982014348
vt 0.1875 0.8125
vt 0.27518750000000003 0.8125
vt 0.27518750000000003 0.5494375
vt 0.1875 0.5494375
vt 0.1875 0.8125
vt 0.27518750000000003 0.8125
vt 0.27518750000000003 0.5494375
vt 0.1875 0.5494375
vt 0.1875 0.8125
vt 0.27518750000000003 0.8125
vt 0.27518750000000003 0.5494375
vt 0.1875 0.5494375
vt 0.1875 0.8125
vt 0.27518750000000003 0.8125
vt 0.27518750000000003 0.5494375
vt 0.1875 0.5494375
vt 0.1875 0.8125
vt 0.27518750000000003 0.8125
vt 0.27518750000000003 0.7248125
vt 0.1875 0.7248125
vt 0.1875 0.8125
vt 0.27518750000000003 0.8125
vt 0.27518750000000003 0.7248125
vt 0.1875 0.7248125
vn 0 0.3826834323650897 -0.9238795325112867
vn 1 0 0
vn 0 -0.3826834323650897 0.9238795325112867
vn -1 0 0
vn 0 0.9238795325112867 0.3826834323650897
vn 0 -0.9238795325112867 -0.3826834323650897
usemtl m_4b1fd9b4-e4a9-84b1-8fae-4e76497e965e
f 4/4/1 7/3/1 5/2/1 2/1/1
f 3/8/2 4/7/2 2/6/2 1/5/2
f 8/12/3 3/11/3 1/10/3 6/9/3
f 7/16/4 8/15/4 6/14/4 5/13/4
f 6/20/5 1/19/5 2/18/5 5/17/5
f 7/24/6 4/23/6 3/22/6 8/21/6
o cube
v 0.0447369339850624 -0.2671663424938186 -0.0036771720396088226
v 0.0447369339850624 -0.1664966820672772 -0.24671523156085917
v 0.0447369339850624 -0.334254973507497 -0.03146619288651864
v 0.0447369339850624 -0.2335853130809556 -0.274504252407769
v -0.21832556601493758 -0.1664966820672772 -0.24671523156085917
v -0.21832556601493758 -0.2671663424938186 -0.0036771720396088226
v -0.21832556601493758 -0.2335853130809556 -0.274504252407769
v -0.21832556601493758 -0.334254973507497 -0.03146619288651864
vt 0 0.75
vt 0.2630624999999999 0.75
vt 0.2630624999999999 0.6773837890625001
vt 0 0.6773837890625001
vt 0 0.8125
vt 0.2630625 0.8125
vt 0.2630625 0.7398837890625001
vt 0 0.7398837890625001
vt 0.1875 0.6875
vt 0.4505624999999999 0.6875
vt 0.4505624999999999 0.6148837890625001
vt 0.1875 0.6148837890625001
vt 0 0.875
vt 0.2630625 0.875
vt 0.2630625 0.8023837890625001
vt 0 0.8023837890625001
vt 0.125 0.5625
vt 0.3880624999999999 0.5625
vt 0.3880624999999999 0.2994375
vt 0.125 0.2994375
vt 0 0.8125
vt 0.2630624999999999 0.8125
vt 0.2630624999999999 0.5494375
vt 0 0.5494375
vn 0 0.3826834323650897 -0.9238795325112867
vn 1 0 0
vn 0 -0.3826834323650897 0.9238795325112867
vn -1 0 0
vn 0 0.9238795325112867 0.3826834323650897
vn 0 -0.9238795325112867 -0.3826834323650897
usemtl m_4b1fd9b4-e4a9-84b1-8fae-4e76497e965e
f 12/28/7 15/27/7 13/26/7 10/25/7
f 11/32/8 12/31/8 10/30/8 9/29/8
f 16/36/9 11/35/9 9/34/9 14/33/9
f 15/40/10 16/39/10 14/38/10 13/37/10
f 14/44/11 9/43/11 10/42/11 13/41/11
f 15/48/12 12/47/12 11/46/12 16/45/12
o cube
v 0.23642798479922367 -0.2451577556636041 -0.20257724938490068
v 0.23642798479922367 -0.2451577556636041 -0.4235497493849007
v 0.2082404798797921 -0.31320841232955415 -0.20257724938490068
v 0.2082404798797921 -0.31320841232955415 -0.4235497493849007
v 0.03227601480137354 -0.1605952409053093 -0.4235497493849007
v 0.03227601480137354 -0.1605952409053093 -0.20257724938490068
v 0.004088509881941871 -0.22864589757125942 -0.4235497493849007
v 0.004088509881941871 -0.22864589757125942 -0.20257724938490068
vt 0 0.1875
vt 0.2209724999999999 0.1875
vt 0.2209724999999999 0.11384250000000007
vt 0 0.11384250000000007
vt 0.25 1
vt 0.4709725 1
vt 0.4709725 0.9263425000000001
vt 0.25 0.9263425000000001
vt 0.25 1
vt 0.4709724999999999 1
vt 0.4709724999999999 0.9263425000000001
vt 0.25 0.9263425000000001
vt 0.25 0.1875
vt 0.4709725 0.1875
vt 0.4709725 0.11384250000000007
vt 0.25 0.11384250000000007
vt 0.22097250000000002 0.75
vt 0.22097250000000002 0.5290275000000001
vt 0 0.5290275000000001
vt 0 0.75
vt 0 0.7790275000000001
vt 0 1
vt 0.22097250000000002 1
vt 0.22097250000000002 0.7790275000000001
vn 0 0 -1
vn 0.9238795325112867 -0.3826834323650897 0
vn 0 0 1
vn -0.9238795325112867 0.3826834323650897 0
vn 0.3826834323650897 0.9238795325112867 0
vn -0.3826834323650897 -0.9238795325112867 0
usemtl m_4b1fd9b4-e4a9-84b1-8fae-4e76497e965e
f 20/52/13 23/51/13 21/50/13 18/49/13
f 19/56/14 20/55/14 18/54/14 17/53/14
f 24/60/15 19/59/15 17/58/15 22/57/15
f 23/64/16 24/63/16 22/62/16 21/61/16
f 22/68/17 17/67/17 18/66/17 21/65/17
f 23/72/18 20/71/18 19/70/18 24/69/18
o cube
v 0.1401898232138421 -0.2850209074101226 -0.2762347493849008
v 0.1401898232138421 -0.2850209074101226 -0.3498922493849007
v 0.03170959393272921 -0.5469153481899283 -0.2762347493849008
v 0.03170959393272921 -0.5469153481899283 -0.3498922493849007
v 0.07213916654789199 -0.256833402490691 -0.3498922493849007
v 0.07213916654789199 -0.256833402490691 -0.2762347493849008
v -0.03634106273322085 -0.5187278432704967 -0.3498922493849007
v -0.03634106273322085 -0.5187278432704967 -0.2762347493849008
vt 0.1875 1
vt 0.24382351562500004 1
vt 0.24382351562500004 0.7165275000000001
vt 0.1875 0.7165275000000001
vt 0.1875 1
vt 0.26115749999999993 1
vt 0.26115749999999993 0.7165275000000001
vt 0.1875 0.7165275000000001
vt 0.1875 1
vt 0.26115750000000004 1
vt 0.26115750000000004 0.7165275000000001
vt 0.1875 0.7165275000000001
vt 0.1875 1
vt 0.25065945312499993 1
vt 0.25065945312499993 0.7165275000000001
vt 0.1875 0.7165275000000001
vt 0.26115749999999993 1
vt 0.26115749999999993 0.9263425
vt 0.1875 0.9263425
vt 0.1875 1
vt 0.1875 0.9263425
vt 0.1875 1
vt 0.26115749999999993 1
vt 0.26115749999999993 0.9263425
vn 0 0 -1
vn 0.9238795325112867 -0.3826834323650897 0
vn 0 0 1
vn -0.9238795325112867 0.3826834323650897 0
vn 0.3826834323650897 0.9238795325112867 0
vn -0.3826834323650897 -0.9238795325112867 0
usemtl m_4b1fd9b4-e4a9-84b1-8fae-4e76497e965e
f 28/76/19 31/75/19 29/74/19 26/73/19
f 27/80/20 28/79/20 26/78/20 25/77/20
f 32/84/21 27/83/21 25/82/21 30/81/21
f 31/88/22 32/87/22 30/86/22 29/85/22
f 30/92/23 25/91/23 26/90/23 29/89/23
f 31/96/24 28/95/24 27/94/24 32/93/24
o cube
v -0.32070224204998576 -0.2734307248290181 -0.07119941068062208
v -0.253253569564203 -0.2734307248290181 -0.23403491055985998
v -0.32070224204998576 -0.33218134982901815 -0.07119941068062208
v -0.253253569564203 -0.33218134982901815 -0.23403491055985998
v -0.41608906944344076 -0.2734307248290181 -0.3014835830456427
v -0.4835377419292236 -0.2734307248290181 -0.13864808316640487
v -0.41608906944344076 -0.33218134982901815 -0.3014835830456427
v -0.4835377419292236 -0.33218134982901815 -0.13864808316640487
vt 0.25 0.4375
vt 0.42625187500000006 0.4375
vt 0.42625187500000006 0.37874937499999994
vt 0.25 0.37874937499999994
vt 0.25 0.4375
vt 0.42625187500000017 0.4375
vt 0.42625187500000017 0.37874937499999994
vt 0.25 0.37874937499999994
vt 0.25 0.375
vt 0.42625187500000006 0.375
vt 0.42625187500000006 0.31624937499999994
vt 0.25 0.31624937499999994
vt 0.25 0.4375
vt 0.42625187500000017 0.4375
vt 0.42625187500000017 0.37874937499999994
vt 0.25 0.37874937499999994
vt 0.25 0.4375
vt 0.42625187500000006 0.4375
vt 0.42625187500000006 0.26124812499999983
vt 0.25 0.26124812499999983
vt 0 0.4375
vt 0.17625187500000006 0.4375
vt 0.17625187500000006 0.26124812499999983
vt 0 0.26124812499999983
vn 0.3826834323650897 0 -0.9238795325112867
vn 0.9238795325112867 0 0.3826834323650897
vn -0.3826834323650897 0 0.9238795325112867
vn -0.9238795325112867 0 -0.3826834323650897
vn 0 1 0
vn 0 -1 0
usemtl m_4b1fd9b4-e4a9-84b1-8fae-4e76497e965e
f 36/100/25 39/99/25 37/98/25 34/97/25
f 35/104/26 36/103/26 34/102/26 33/101/26
f 40/108/27 35/107/27 33/106/27 38/105/27
f 39/112/28 40/111/28 38/110/28 37/109/28
f 38/116/29 33/115/29 34/114/29 37/113/29
f 39/120/30 36/119/30 35/118/30 40/117/30
o cube
v -0.3524978511811374 -0.3321813498290181 -0.1479608014689623
v -0.3300149603525432 -0.3321813498290181 -0.20223930142870827
v -0.3524978511811374 -0.508433224829018 -0.1479608014689623
v -0.3300149603525432 -0.508433224829018 -0.20223930142870827
v -0.38429346031228906 -0.3321813498290181 -0.22472219225730256
v -0.40677635114088334 -0.3321813498290181 -0.17044369229755657
v -0.38429346031228906 -0.508433224829018 -0.22472219225730256
v -0.40677635114088334 -0.508433224829018 -0.17044369229755657
vt 0.1875 0.4375
vt 0.246250625 0.4375
vt 0.246250625 0.26124812500000005
vt 0.1875 0.26124812500000005
vt 0.1875 0.4375
vt 0.24625062500000006 0.4375
vt 0.24625062500000006 0.26124812500000005
vt 0.1875 0.26124812500000005
vt 0.1875 0.4375
vt 0.246250625 0.4375
vt 0.246250625 0.26124812500000005
vt 0.1875 0.26124812500000005
vt 0.1875 0.4375
vt 0.24625062500000006 0.4375
vt 0.24625062500000006 0.26124812500000005
vt 0.1875 0.26124812500000005
vt 0.1875 0.4375
vt 0.246250625 0.4375
vt 0.246250625 0.37874937499999994
vt 0.1875 0.37874937499999994
vt 0.1875 0.4375
vt 0.246250625 0.4375
vt 0.246250625 0.37874937499999994
vt 0.1875 0.37874937499999994
vn 0.3826834323650897 0 -0.9238795325112867
vn 0.9238795325112867 0 0.3826834323650897
vn -0.3826834323650897 0 0.9238795325112867
vn -0.9238795325112867 0 -0.3826834323650897
vn 0 1 0
vn 0 -1 0
usemtl m_4b1fd9b4-e4a9-84b1-8fae-4e76497e965e
f 44/124/31 47/123/31 45/122/31 42/121/31
f 43/128/32 44/127/32 42/126/32 41/125/32
f 48/132/33 43/131/33 41/130/33 46/129/33
f 47/136/34 48/135/34 46/134/34 45/133/34
f 46/140/35 41/139/35 42/138/35 45/137/35
f 47/144/36 44/143/36 43/142/36 48/141/36
o cube
v 0.09926249091718364 -0.20390823850089312 0.41623583644582196
v 0.19905338909958503 -0.20390823850089312 0.1753192966524758
v 0.09926249091718364 -0.2619436623290181 0.41623583644582196
v 0.19905338909958503 -0.2619436623290181 0.1753192966524758
v -0.03490112294705866 -0.20390823850089312 0.07841216478437629
v -0.1346920211294601 -0.20390823850089312 0.31932870457772244
v -0.03490112294705866 -0.2619436623290181 0.07841216478437629
v -0.1346920211294601 -0.2619436623290181 0.31932870457772244
vt 0.25 0.625
vt 0.5032305390625 0.625
vt 0.5032305390625 0.566964576171875
vt 0.25 0.566964576171875
vt 0.25 0.36423381640624997
vt 0.25 0.625
vt 0.308035423828125 0.625
vt 0.308035423828125 0.36423381640624997
vt 0.25 0.5
vt 0.5032305390625 0.5
vt 0.5032305390625 0.441964576171875
vt 0.25 0.441964576171875
vt 0.25 0.625
vt 0.51076618359375 0.625
vt 0.51076618359375 0.566964576171875
vt 0.25 0.566964576171875
vt 0.125 0.9375
vt 0.3782305390625 0.9375
vt 0.3782305390625 0.67673381640625
vt 0.125 0.67673381640625
vt 0 0.625
vt 0.2532305390625 0.625
vt 0.2532305390625 0.36423381640624997
vt 0 0.36423381640624997
vn 0.3826834323650897 0 -0.9238795325112867
vn 0.9238795325112867 0 0.3826834323650897
vn -0.3826834323650897 0 0.9238795325112867
vn -0.9238795325112867 0 -0.3826834323650897
vn 0 1 0
vn 0 -1 0
usemtl m_4b1fd9b4-e4a9-84b1-8fae-4e76497e965e
f 52/148/37 55/147/37 53/146/37 50/145/37
f 51/152/38 52/151/38 50/150/38 49/149/38
f 56/156/39 51/155/39 49/154/39 54/153/39
f 55/160/40 56/159/40 54/158/40 53/157/40
f 54/164/41 49/163/41 50/162/41 53/161/41
f 55/168/42 52/167/42 51/166/42 56/165/42
o cube
v 0.05007107021678736 -0.2531749123290181 0.2911481253051589
v 0.07581943315546757 -0.2531749123290181 0.2289860782896922
v 0.05007107021678736 -0.5071590158446431 0.2911481253051589
v 0.07581943315546757 -0.5071590158446431 0.2289860782896922
v 0.014290297753337677 -0.2531749123290181 0.2034998759250395
v -0.011458065185342592 -0.2531749123290181 0.26566192294050617
v 0.014290297753337677 -0.5071590158446431 0.2034998759250395
v -0.011458065185342592 -0.5071590158446431 0.26566192294050617
vt 0.1875 0.625
vt 0.25409865624999994 0.625
vt 0.25409865624999994 0.37101589648437505
vt 0.1875 0.37101589648437505
vt 0.1875 0.625
vt 0.2547837148437502 0.625
vt 0.2547837148437502 0.37101589648437505
vt 0.1875 0.37101589648437505
vt 0.1875 0.625
vt 0.25409865624999994 0.625
vt 0.25409865624999994 0.37101589648437505
vt 0.1875 0.37101589648437505
vt 0.1875 0.625
vt 0.2547837148437502 0.625
vt 0.2547837148437502 0.37101589648437505
vt 0.1875 0.37101589648437505
vt 0.1875 0.625
vt 0.25409865624999994 0.625
vt 0.25409865624999994 0.5577162851562498
vt 0.1875 0.5577162851562498
vt 0.1875 0.625
vt 0.25409865624999994 0.625
vt 0.25409865624999994 0.5577162851562498
vt 0.1875 0.5577162851562498
vn 0.3826834323650897 0 -0.9238795325112867
vn 0.9238795325112867 0 0.3826834323650897
vn -0.3826834323650897 0 0.9238795325112867
vn -0.9238795325112867 0 -0.3826834323650897
vn 0 1 0
vn 0 -1 0
usemtl m_4b1fd9b4-e4a9-84b1-8fae-4e76497e965e
f 60/172/43 63/171/43 61/170/43 58/169/43
f 59/176/44 60/175/44 58/174/44 57/173/44
f 64/180/45 59/179/45 57/178/45 62/177/45
f 63/184/46 64/183/46 62/182/46 61/181/46
f 62/188/47 57/187/47 58/186/47 61/185/47
f 63/192/48 60/191/48 59/190/48 64/189/48
o cube
v 0.34887387937923253 -0.19043134982901816 0.07564680518067479
v 0.3263909885506382 -0.19043134982901816 0.021368305220928807
v 0.34887387937923253 -0.516058224829018 0.07564680518067479
v 0.3263909885506382 -0.516058224829018 0.021368305220928807
v 0.2721124885908923 -0.19043134982901816 0.043851196049523034
v 0.29459537941948666 -0.19043134982901816 0.09812969600926902
v 0.2721124885908923 -0.516058224829018 0.043851196049523034
v 0.29459537941948666 -0.516058224829018 0.09812969600926902
vt 0.1875 0.4375
vt 0.24625062500000006 0.4375
vt 0.24625062500000006 0.11187312500000013
vt 0.1875 0.11187312500000013
vt 0.1875 0.4375
vt 0.24625062499999995 0.4375
vt 0.24625062499999995 0.11187312500000013
vt 0.1875 0.11187312500000013
vt 0.1875 0.75
vt 0.24625062500000006 0.75
vt 0.24625062500000006 0.42437312500000013
vt 0.1875 0.42437312500000013
vt 0.1875 0.4375
vt 0.24625062499999995 0.4375
vt 0.24625062499999995 0.11187312500000013
vt 0.1875 0.11187312500000013
vt 0.24625062499999995 0.4375
vt 0.24625062499999995 0.37874937499999994
vt 0.1875 0.37874937499999994
vt 0.1875 0.4375
vt 0.1875 0.37874937499999994
vt 0.1875 0.4375
vt 0.24625062499999995 0.4375
vt 0.24625062499999995 0.37874937499999994
vn -0.3826834323650897 0 -0.9238795325112867
vn 0.9238795325112867 0 -0.3826834323650897
vn 0.3826834323650897 0 0.9238795325112867
vn -0.9238795325112867 0 0.3826834323650897
vn 0 1 0
vn 0 -1 0
usemtl m_4b1fd9b4-e4a9-84b1-8fae-4e76497e965e
f 68/196/49 71/195/49 69/194/49 66/193/49
f 67/200/50 68/199/50 66/198/50 65/197/50
f 72/204/51 67/203/51 65/202/51 70/201/51
f 71/208/52 72/207/52 70/206/52 69/205/52
f 70/212/53 65/211/53 66/210/53 69/209/53
f 71/216/54 68/215/54 67/214/54 72/213/54
o cube
v 0.5072954554723463 -0.13168072482901816 0.14126717057096383
v 0.39201135394092734 -0.13168072482901816 -0.13705327087218494
v 0.5072954554723463 -0.19043134982901821 0.14126717057096383
v 0.39201135394092734 -0.19043134982901821 -0.13705327087218494
v 0.11369091249777852 -0.13168072482901816 -0.021769169340765893
v 0.2289750140291975 -0.13168072482901816 0.2565512721023828
v 0.11369091249777852 -0.19043134982901821 -0.021769169340765893
v 0.2289750140291975 -0.19043134982901821 0.2565512721023828
vt 0 0.4375
vt 0.30125187500000017 0.4375
vt 0.30125187500000017 0.37874937499999994
vt 0 0.37874937499999994
vt 0 0.375
vt 0.30125187500000006 0.375
vt 0.30125187500000006 0.31624937499999994
vt 0 0.31624937499999994
vt 0 0.5
vt 0.30125187500000017 0.5
vt 0.30125187500000017 0.44124937499999994
vt 0 0.44124937499999994
vt 0 0.25
vt 0.30125187500000006 0.25
vt 0.30125187500000006 0.19124937499999994
vt 0 0.19124937499999994
vt 0.42625187500000006 0.8125
vt 0.42625187500000006 0.5112481249999998
vt 0.125 0.5112481249999998
vt 0.125 0.8125
vt 0 0.6987481249999998
vt 0 1
vt 0.30125187500000006 1
vt 0.30125187500000006 0.6987481249999998
vn -0.3826834323650897 0 -0.9238795325112867
vn 0.9238795325112867 0 -0.3826834323650897
vn 0.3826834323650897 0 0.9238795325112867
vn -0.9238795325112867 0 0.3826834323650897
vn 0 1 0
vn 0 -1 0
usemtl m_4b1fd9b4-e4a9-84b1-8fae-4e76497e965e
f 76/220/55 79/219/55 77/218/55 74/217/55
f 75/224/56 76/223/56 74/222/56 73/221/56
f 80/228/57 75/227/57 73/226/57 78/225/57
f 79/232/58 80/231/58 78/230/58 77/229/58
f 78/236/59 73/235/59 74/234/59 77/233/59
f 79/240/60 76/239/60 75/238/60 80/237/60