# Made in Blockbench 4.10.3
mtllib charred_fern_2.mtl

o cube
v -0.40684966849122195 1.687500000000002 -0.373472646843655
v -0.40684966849122195 1.687500000000002 -0.373472646843655
v -0.40684966849122395 -0.937499999999998 -0.37347264684365944
v -0.40684966849122395 -0.937499999999998 -0.37347264684365944
v 1.5285033406353512 1.6874999999999976 1.3999516481474565
v 1.5285033406353512 1.6874999999999976 1.3999516481474565
v 1.5285033406353492 -0.9375000000000024 1.399951648147452
v 1.5285033406353492 -0.9375000000000024 1.399951648147452
vt 0 1
vt 0 1
vt 0 0.6666666666666667
vt 0 0.6666666666666667
vt 0 1
vt 0 1
vt 0 0.6666666666666667
vt 0 0.6666666666666667
vt 0.3333333333333333 1
vt 0.3333333333333333 1
vt 0 1
vt 0 1
vt 0.3333333333333333 1
vt 0.3333333333333333 1
vt 0 1
vt 0 1
vt 0.7654375 0.3631875
vt 0.7654375 0.6913125
vt 0.4373125 0.6913125
vt 0.4373125 0.3631875
vt 0.4373125 0.3631875
vt 0.4373125 0.6913125
vt 0.7654375 0.6913125
vt 0.7654375 0.3631875
vn 0 0 0
vn 0 0 0
vn 0 0 0
vn 0 0 0
vn 0.6755902076156615 7.32978534389526e-16 -0.737277336810123
vn -0.6755902076156614 -7.329785343895259e-16 0.737277336810123
usemtl m_c5d1ed0a-9da5-e07e-357a-4a276e32cbe5
f 1/1/1 2/2/1 3/3/1 4/4/1
f 5/5/2 6/6/2 7/7/2 8/8/2
f 2/9/3 1/10/3 6/11/3 5/12/3
f 3/13/4 4/14/4 7/15/4 8/16/4
f 4/17/5 2/18/5 5/19/5 7/20/5
f 8/21/6 6/22/6 1/23/6 3/24/6
o cube
v 0.8287394092730564 0.4995044429444847 0.8079596996061403
v 0.8287394092730564 0.4995044429444847 0.8079596996061403
v 0.8287394092730564 -0.14653423384582742 0.5728208510697433
v 0.8287394092730564 -0.14653423384582742 0.5728208510697433
v 0.21323456364042642 0.5366239270781625 0.7059747551270561
v 0.21323456364042642 0.5366239270781625 0.7059747551270561
v 0.21323456364042642 -0.10941474971214954 0.47083590659065905
v 0.21323456364042642 -0.10941474971214954 0.47083590659065905
vt 0 1
vt 0 1
vt 0 0.9375
vt 0 0.9375
vt 0 1
vt 0 1
vt 0 0.9375
vt 0 0.9375
vt 0.0625 1
vt 0 1
vt 0.0625 1
vt 0 1
vt 0.0625 1
vt 0 1
vt 0.0625 1
vt 0 1
vt 0.5382499999999997 0.1561874999999997
vt 0.5382499999999997 0.2421249999999997
vt 0.4601249999999997 0.2421249999999997
vt 0.4601249999999997 0.1561874999999997
vt 0.836125 0.4801875
vt 0.836125 0.566125
vt 0.91425 0.566125
vt 0.91425 0.4801875
vn 0 0 0
vn 0 0 0
vn 0 0 0
vn 0 0 0
vn -0.1736481776669303 -0.3368240888334648 0.9254165783983236
vn 0.1736481776669303 0.3368240888334649 -0.9254165783983236
usemtl m_c5d1ed0a-9da5-e07e-357a-4a276e32cbe5
f 9/25/7 10/26/7 11/27/7 12/28/7
f 13/29/8 14/30/8 15/31/8 16/32/8
f 9/33/9 14/34/9 10/35/9 13/36/9
f 12/37/10 15/38/10 11/39/10 16/40/10
f 12/41/11 10/42/11 13/43/11 15/44/11
f 16/45/12 14/46/12 9/47/12 11/48/12
o cube
v 0.7653418274576294 0.8184115127202024 1.4363210512965139
v 0.7653418274576294 0.8184115127202024 1.4363210512965139
v 0.830708634518373 0.4734178724532328 0.7735944344249502
v 0.830708634518373 0.4734178724532328 0.7735944344249502
v 0.1427201411502883 0.7932589856269506 1.3880034963022228
v 0.1427201411502883 0.7932589856269506 1.3880034963022228
v 0.20808694821103196 0.44826534535998097 0.7252768794306591
v 0.20808694821103196 0.44826534535998097 0.7252768794306591
vt 0 1
vt 0 1
vt 0 0.9270833333333334
vt 0 0.9270833333333334
vt 0 1
vt 0 1
vt 0 0.9270833333333334
vt 0 0.9270833333333334
vt 0.0625 1
vt 0 1
vt 0.0625 1
vt 0 1
vt 0.0625 1
vt 0 1
vt 0.0625 1
vt 0 1
vt 0.898625 0.57821875
vt 0.898625 0.6719687499999998
vt 0.8205 0.6719687499999998
vt 0.8205 0.57821875
vt 0.8205 0.57821875
vt 0.8205 0.67196875
vt 0.898625 0.67196875
vt 0.898625 0.57821875
vn 0 0 0
vn 0 0 0
vn 0 0 0
vn 0 0 0
vn 2.3092638912203253e-15 -0.8870108331782202 0.4617486132350368
vn -2.368475785867e-15 0.8870108331782202 -0.46174861323503685
usemtl m_c5d1ed0a-9da5-e07e-357a-4a276e32cbe5
f 17/49/13 18/50/13 19/51/13 20/52/13
f 21/53/14 22/54/14 23/55/14 24/56/14
f 17/57/15 22/58/15 18/59/15 21/60/15
f 20/61/16 23/62/16 19/63/16 24/64/16
f 20/65/17 18/66/17 21/67/17 23/68/17
f 24/69/18 22/70/18 17/71/18 19/72/18
o cube
v 1.6597718241315027 1.8124999999999998 -0.5972718241315029
v 1.6597718241315027 1.8124999999999998 -0.5972718241315029
v 1.6597718241315027 -0.9999999999999998 -0.5972718241315029
v 1.6597718241315027 -0.9999999999999998 -0.5972718241315029
v -0.3731601717798212 1.8124999999999998 1.4356601717798214
v -0.3731601717798212 1.8124999999999998 1.4356601717798214
v -0.3731601717798212 -0.9999999999999998 1.4356601717798214
v -0.3731601717798212 -0.9999999999999998 1.4356601717798214
vt 0 1
vt 0 1
vt 0 0.8333333333333334
vt 0 0.8333333333333334
vt 0 1
vt 0 1
vt 0 0.8333333333333334
vt 0 0.8333333333333334
vt 0.16666666666666666 1
vt 0 1
vt 0.16666666666666666 1
vt 0 1
vt 0.16666666666666666 1
vt 0 1
vt 0.16666666666666666 1
vt 0 1
vt 0.044000000000000046 0.35175
vt 0.044000000000000046 0.7033125
vt 0.40337500000000004 0.7033125
vt 0.40337500000000004 0.35175
vt 0.402625 0.3515625
vt 0.402625 0.703125
vt 0.04325000000000002 0.703125
vt 0.04325000000000002 0.3515625
vn 0 0 0
vn 0 0 0
vn 0 0 0
vn 0 0 0
vn 0.7071067811865477 0 0.7071067811865475
vn -0.7071067811865477 0 -0.7071067811865475
usemtl m_c5d1ed0a-9da5-e07e-357a-4a276e32cbe5
f 25/73/19 26/74/19 27/75/19 28/76/19
f 29/77/20 30/78/20 31/79/20 32/80/20
f 25/81/21 30/82/21 26/83/21 29/84/21
f 28/85/22 31/86/22 27/87/22 32/88/22
f 28/89/23 26/90/23 29/91/23 31/92/23
f 32/93/24 30/94/24 25/95/24 27/96/24
o cube
v 0.6441057586842945 -0.13023047191512854 0.31766897849667153
v 0.8506361162134926 0.25251224953121254 0.36520286744666386
v 0.6940417766349993 0.29502483316863065 0.7032796235900686
v 0.4875114191058013 -0.08771788827771043 0.6557457346400761
v 0.4875114191058013 -0.08771788827771043 0.6557457346400761
v 0.6940417766349993 0.29502483316863065 0.7032796235900686
v 0.8506361162134926 0.25251224953121254 0.36520286744666386
v 0.6441057586842945 -0.13023047191512854 0.31766897849667153
vt 0.5927499999999997 0.1681874999999997
vt 0.5927499999999997 0.2228749999999997
vt 0.5458749999999997 0.2228749999999997
vt 0.5458749999999997 0.1681874999999997
vt 0.921875 0.4921875
vt 0.921875 0.546875
vt 0.96875 0.546875
vt 0.96875 0.4921875
vt 0 1
vt 0 1
vt 0 0.9375
vt 0 0.9375
vt 0 1
vt 0 1
vt 0 0.9375
vt 0 0.9375
vt 0 1
vt 0 1
vt 0 0.8854166666666666
vt 0 0.8854166666666666
vt 0 1
vt 0 1
vt 0 0.8854166666666666
vt 0 0.8854166666666666
vn 0.7763847879587317 -0.47095863629001344 0.4188372284433728
vn -0.7763847879587317 0.4709586362900136 -0.41883722844337296
vn 0 0 0
vn 0 0 0
vn 0 0 0
vn 0 0 0
usemtl m_c5d1ed0a-9da5-e07e-357a-4a276e32cbe5
f 33/97/25 34/98/25 35/99/25 36/100/25
f 37/101/26 38/102/26 39/103/26 40/104/26
f 34/105/27 39/106/27 35/107/27 38/108/27
f 36/109/28 37/110/28 33/111/28 40/112/28
f 35/113/29 38/114/29 36/115/29 37/116/29
f 39/117/30 34/118/30 40/119/30 33/120/30
o cube
v 0.5935049336415548 -0.04131453122091658 0.4256646247892772
v 0.09882987158923917 0.21841906372379008 0.3605394173758897
v 0.06619832353422617 0.21841906372379005 0.6084006327193423
v 0.5608733855865418 -0.04131453122091658 0.6735258401327298
v 0.5608733855865418 -0.04131453122091658 0.6735258401327298
v 0.06619832353422617 0.21841906372379005 0.6084006327193423
v 0.09882987158923917 0.21841906372379008 0.3605394173758897
v 0.5935049336415548 -0.04131453122091658 0.4256646247892772
vt 0.9296875 0.3828125
vt 0.9296875 0.453125
vt 0.8984375 0.453125
vt 0.8984375 0.3828125
vt 0.8984375 0.3828125
vt 0.8984375 0.453125
vt 0.9296875 0.453125
vt 0.9296875 0.3828125
vt 0 1
vt 0 1
vt 0 0.9583333333333334
vt 0 0.9583333333333334
vt 0 1
vt 0 1
vt 0 0.9583333333333334
vt 0 0.9583333333333334
vt 0 1
vt 0 1
vt 0 0.90625
vt 0 0.90625
vt 0 1
vt 0 1
vt 0 0.90625
vt 0 0.90625
vn 0.45779828983835746 0.8870108331782216 0.06027028824845872
vn -0.4577982898383575 -0.8870108331782217 -0.06027028824845863
vn 0 0 0
vn 0 0 0
vn 0 0 0
vn 0 0 0
usemtl m_c5d1ed0a-9da5-e07e-357a-4a276e32cbe5
f 41/121/31 42/122/31 43/123/31 44/124/31
f 45/125/32 46/126/32 47/127/32 48/128/32
f 42/129/33 47/130/33 43/131/33 46/132/33
f 44/133/34 45/134/34 41/135/34 48/136/34
f 43/137/35 46/138/35 44/139/35 45/140/35
f 47/141/36 42/142/36 48/143/36 41/144/36
o cube
v 0.7283131969527471 0.44714360186378566 0.36984900662755305
v 0.7283131969527471 0.44714360186378566 0.36984900662755305
v 0.7283131969527471 -0.09618967542381521 0.5154347194977209
v 0.7283131969527471 -0.09618967542381521 0.5154347194977209
v 0.4302766498439262 0.42282223064988383 0.2790804135475281
v 0.4302766498439262 0.42282223064988383 0.2790804135475281
v 0.4302766498439262 -0.12051104663771708 0.4246661264176959
v 0.4302766498439262 -0.12051104663771708 0.4246661264176959
vt 0 1
vt 0 1
vt 0 0.90625
vt 0 0.90625
vt 0 1
vt 0 1
vt 0 0.90625
vt 0 0.90625
vt 0.05208333333333333 1
vt 0 1
vt 0.05208333333333333 1
vt 0 1
vt 0.05208333333333333 1
vt 0 1
vt 0.05208333333333333 1
vt 0 1
vt 0.886625 0.08593750000000022
vt 0.886625 0.15625000000000022
vt 0.8475625 0.15625000000000022
vt 0.8475625 0.08593750000000022
vt 0.7677499999999999 0.7739375000000005
vt 0.7677499999999999 0.8442500000000004
vt 0.8068124999999999 0.8442500000000004
vt 0.8068124999999999 0.7739375000000005
vn 0 0 0
vn 0 0 0
vn 0 0 0
vn 0 0 0
vn -0.30070579950427295 0.24684011049074384 0.9212198336973718
vn 0.30070579950427295 -0.24684011049074378 -0.921219833697372
usemtl m_c5d1ed0a-9da5-e07e-357a-4a276e32cbe5
f 49/145/37 50/146/37 51/147/37 52/148/37
f 53/149/38 54/150/38 55/151/38 56/152/38
f 49/153/39 54/154/39 50/155/39 53/156/39
f 52/157/40 55/158/40 51/159/40 56/160/40
f 52/161/41 50/162/41 53/163/41 55/164/41
f 56/165/42 54/166/42 49/167/42 51/168/42
o cube
v 0.24622820782016785 0.42401765330003094 0.1955145458345373
v 0.5625 0.3634292376870567 0.3876764498760683
v 0.8647310296950883 0.5060863808791853 -0.06477420399207134
v 0.5484592375152562 0.5666747964921597 -0.25693610803360234
v 0.5484592375152562 0.5666747964921597 -0.25693610803360234
v 0.8647310296950883 0.5060863808791853 -0.06477420399207134
v 0.5625 0.3634292376870567 0.3876764498760683
v 0.24622820782016785 0.42401765330003094 0.1955145458345373
vt 0.8085625 0.1973125
vt 0.8554375 0.1973125
vt 0.8554375 0.267625
vt 0.8085625 0.267625
vt 0.8085625 0.2676250000000002
vt 0.8554375 0.2676250000000002
vt 0.8554375 0.1973125
vt 0.8085625 0.1973125
vn 1.15134239590757e-16 0.9537169507482269 0.3007057995042733
vn -3.618504672852362e-16 -0.9537169507482268 -0.30070579950427334
usemtl m_c5d1ed0a-9da5-e07e-357a-4a276e32cbe5
f 57/169/43 58/170/43 59/171/43 60/172/43
f 61/173/44 62/174/44 63/175/44 64/176/44
o cube
v 0.30587378105772445 -0.1469228058700333 0.18972812770528136
v 0.30587378105772445 -0.1469228058700333 0.18972812770528136
v 0.11348745043703667 0.3816542933220406 0.18972812770528125
v 0.11348745043703667 0.3816542933220406 0.18972812770528125
v 0.411837913865859 -0.10835501562804173 0.5473719842358666
v 0.2194515832451711 0.4202220835640321 0.5473719842358664
v 0.411837913865859 -0.10835501562804173 0.5473719842358666
v 0.2194515832451711 0.4202220835640321 0.5473719842358664
vt 0 0.90625
vt 0 0.90625
vt 0 1
vt 0 1
vt 0.174875 0.10568750000000005
vt 0.128 0.10568750000000005
vt 0.128 0.17600000000000005
vt 0.174875 0.17600000000000005
vt 0 0.90625
vt 0 0.90625
vt 0 1
vt 0 1
vt 0.04799999999999996 0.7936875000000002
vt 0.09487499999999996 0.7936875000000002
vt 0.09487499999999996 0.8640000000000001
vt 0.04799999999999996 0.8640000000000001
vt 0 0.9375
vt 0 0.9375
vt 0 1
vt 0 1
vt 0.08 0.24949999999999983
vt 0.08 0.24949999999999983
vt 0.08 0.31200000000000006
vt 0.08 0.31200000000000006
vn 0 0 0
vn 0.8962007809365472 0.32619040818702677 -0.30070579950427273
vn 0 0 0
vn -0.8962007809365473 -0.32619040818702694 0.30070579950427273
vn 0 0 0
vn 0 0 0
usemtl m_c5d1ed0a-9da5-e07e-357a-4a276e32cbe5
f 65/177/45 66/178/45 67/179/45 68/180/45
f 69/181/46 65/182/46 68/183/46 70/184/46
f 71/185/47 69/186/47 70/187/47 72/188/47
f 66/189/48 71/190/48 72/191/48 67/192/48
f 72/193/49 70/194/49 68/195/49 67/196/49
f 66/197/50 65/198/50 69/199/50 71/200/50
o cube
v 0.15691277696287742 0.3886691999265188 0.13426349487306422
v -0.309227586616991 0.49680727526866797 0.2792439008006371
v -0.309227586616991 0.49680727526866797 0.2792439008006371
v 0.15691277696287742 0.3886691999265188 0.13426349487306422
v 0.27466108616689544 0.4208560691180545 0.4888397788110088
v 0.27466108616689544 0.4208560691180545 0.4888397788110088
v -0.19147927741297288 0.5289941444602035 0.6338201847385818
v -0.19147927741297288 0.5289941444602035 0.6338201847385818
vt 0 1
vt 0.08333333333333333 1
vt 0.08333333333333333 1
vt 0 1
vt 0 1
vt 0.0625 1
vt 0.0625 1
vt 0 1
vt 0 1
vt 0.08333333333333333 1
vt 0.08333333333333333 1
vt 0 1
vt 0 1
vt 0.0625 1
vt 0.0625 1
vt 0 1
vt 0.15181250000000002 0.29534375
vt 0.15181250000000002 0.23284375000000002
vt 0.19868750000000002 0.23284375000000002
vt 0.19868750000000002 0.29534375
vt 0.19868750000000007 0.29534375000000024
vt 0.19868750000000007 0.23284375000000024
vt 0.15181250000000007 0.23284375000000024
vt 0.15181250000000007 0.29534375000000024
vn 0 0 0
vn 0 0 0
vn 0 0 0
vn 0 0 0
vn 0.17960923491250214 0.9725520830790192 -0.14792893034429266
vn -0.17960923491250233 -0.972552083079019 0.14792893034429275
usemtl m_c5d1ed0a-9da5-e07e-357a-4a276e32cbe5
f 73/201/51 74/202/51 75/203/51 76/204/51
f 77/205/52 73/206/52 76/207/52 78/208/52
f 79/209/53 77/210/53 78/211/53 80/212/53
f 74/213/54 79/214/54 80/215/54 75/216/54
f 80/217/55 78/218/55 76/219/55 75/220/55
f 74/221/56 73/222/56 77/223/56 79/224/56
o cube
v 0.5900273628833008 -0.21003510427310812 0.4018054746798603
v 0.34206182546697395 -0.19443377442049847 0.42954877586523255
v 0.3451052024774388 0.1979574451165964 0.2360904633362444
v 0.5930707398937656 0.18235611526398676 0.20834716215087212
v 0.5900273628833008 -0.21003510427310812 0.4018054746798603
v 0.5930707398937656 0.18235611526398676 0.20834716215087212
v 0.34206182546697395 -0.19443377442049847 0.42954877586523255
v 0.3451052024774388 0.1979574451165964 0.2360904633362444
vt 0.21199999999999986 0.8013125000000003
vt 0.24324999999999986 0.8013125000000003
vt 0.24324999999999986 0.8560000000000003
vt 0.21199999999999986 0.8560000000000003
vt 0 0.9270833333333334
vt 0 0.9270833333333334
vt 0 1
vt 0 1
vt 0.32325000000000004 0.11331249999999993
vt 0.29200000000000004 0.11331249999999993
vt 0.29200000000000004 0.16799999999999993
vt 0.32325000000000004 0.16799999999999993
vt 0 0.9270833333333334
vt 0 0.9270833333333334
vt 0 1
vt 0 1
vt 0 1
vt 0.041666666666666664 1
vt 0.041666666666666664 1
vt 0 1
vt 0.08 0.31200000000000006
vt 0.1216666666666667 0.31200000000000006
vt 0.1216666666666667 0.31200000000000006
vt 0.08 0.31200000000000006
vn -0.12712626041240815 -0.43781998728122784 -0.8900295347069231
vn 0 0 0
vn 0.12712626041240815 0.4378199872812279 0.8900295347069231
vn 0 0 0
vn 0 0 0
vn 0 0 0
usemtl m_c5d1ed0a-9da5-e07e-357a-4a276e32cbe5
f 81/225/57 82/226/57 83/227/57 84/228/57
f 85/229/58 81/230/58 84/231/58 86/232/58
f 87/233/59 85/234/59 86/235/59 88/236/59
f 82/237/60 87/238/60 88/239/60 83/240/60
f 88/241/61 86/242/61 84/243/61 83/244/61
f 82/245/62 81/246/62 85/247/62 87/248/62
o cube
v 0.5936155023320815 0.18617337392282352 0.2857060948455057
v 0.22321154080856465 0.20013312041814002 0.3425482514325995
v 0.1659646725407159 0.3453531696692467 -0.06615724567874315
v 0.5363686340642326 0.3313934231739303 -0.12299940226583694
v 0.22321154080856465 0.20013312041814002 0.3425482514325995
v 0.5936155023320815 0.18617337392282352 0.2857060948455057
v 0.5363686340642326 0.3313934231739303 -0.12299940226583694
v 0.1659646725407159 0.3453531696692467 -0.06615724567874315
vt 0.31590624999999994 0.21665625000000044
vt 0.36278124999999994 0.21665625000000044
vt 0.36278124999999994 0.27134375000000044
vt 0.31590624999999994 0.27134375000000044
vt 0.36278125000000006 0.2166562500000001
vt 0.31590625000000006 0.2166562500000001
vt 0.31590625000000006 0.2713437500000001
vt 0.36278125000000006 0.2713437500000001
vn -0.08508980364210914 -0.942568659362629 -0.32299233381534576
vn 0.08508980364210915 0.9425686593626288 0.322992333815346
usemtl m_c5d1ed0a-9da5-e07e-357a-4a276e32cbe5
f 89/249/63 90/250/63 91/251/63 92/252/63
f 93/253/64 94/254/64 95/255/64 96/256/64
o cube
v 0.6850547917874565 -0.19523277230987157 0.27697735756990705
v 0.6850547917874565 -0.19523277230987157 0.27697735756990705
v 0.7965678552692848 0.2273597766915958 0.25731459577660476
v 0.7965678552692848 0.2273597766915958 0.25731459577660476
v 0.7284668362041891 -0.19523277230987157 0.5231792958229589
v 0.8399798996860173 0.2273597766915958 0.5035165340296568
v 0.7284668362041891 -0.19523277230987157 0.5231792958229589
v 0.8399798996860173 0.2273597766915958 0.5035165340296568
vt 0 0.9270833333333334
vt 0 0.9270833333333334
vt 0 1
vt 0 1
vt 0.6392499999999999 0.7813125000000002
vt 0.6079999999999999 0.7813125000000002
vt 0.6079999999999999 0.8360000000000002
vt 0.6392499999999999 0.8360000000000002
vt 0 0.9270833333333334
vt 0 0.9270833333333334
vt 0 1
vt 0 1
vt 0.688 0.09331250000000002
vt 0.71925 0.09331250000000002
vt 0.71925 0.14800000000000002
vt 0.688 0.14800000000000002
vt 0 0.9583333333333334
vt 0 0.9583333333333334
vt 0 1
vt 0 1
vt 0.08 0.2703333333333332
vt 0.08 0.2703333333333332
vt 0.08 0.31200000000000006
vt 0.08 0.31200000000000006
vn 0 0 0
vn 0.9512512425641979 -0.2588190451025208 -0.16773125949652054
vn 0 0 0
vn -0.9512512425641979 0.25881904510252074 0.16773125949652054
vn 0 0 0
vn 0 0 0
usemtl m_c5d1ed0a-9da5-e07e-357a-4a276e32cbe5
f 97/257/65 98/258/65 99/259/65 100/260/65
f 101/261/66 97/262/66 100/263/66 102/264/66
f 103/265/67 101/266/67 102/267/67 104/268/67
f 98/269/68 103/270/68 104/271/68 99/272/68
f 104/273/69 102/274/69 100/275/69 99/276/69
f 98/277/70 97/278/70 101/279/70 103/280/70
o cube
v 0.8228479837501497 0.2218632529233212 0.492443794802214
v 1.2302086310355649 0.35342204020644064 0.4021341135282642
v 1.176098727551039 0.35342204020644064 0.15806011174828094
v 0.7687380802656238 0.2218632529233212 0.24836979302223072
v 0.7687380802656238 0.2218632529233212 0.24836979302223072
v 1.176098727551039 0.35342204020644064 0.15806011174828094
v 1.2302086310355649 0.35342204020644064 0.4021341135282642
v 0.8228479837501497 0.2218632529233212 0.492443794802214
vt 0.6643749999999999 0.2008437500000001
vt 0.6643749999999999 0.2555312500000001
vt 0.6956249999999999 0.2555312500000001
vt 0.6956249999999999 0.2008437500000001
vt 0.6956249999999999 0.2008437500000002
vt 0.6956249999999999 0.25553125000000043
vt 0.6643749999999999 0.25553125000000043
vt 0.6643749999999999 0.2008437500000002
vn -0.29357787137382896 0.9537169507482269 0.06508464715365356
vn 0.293577871373829 -0.9537169507482269 -0.06508464715365356
usemtl m_c5d1ed0a-9da5-e07e-357a-4a276e32cbe5
f 105/281/71 106/282/71 107/283/71 108/284/71
f 109/285/72 110/286/72 111/287/72 112/288/72
o cube
v 0.8250436060200563 0.2835276226246235 0.3218422225071016
v 1.258036173372068 0.37951976377062807 0.5527165291246185
v 1.0889849255991193 0.342042004426236 0.8853455915664517
v 0.6559923582471076 0.24604986328023146 0.6544712849489347
v 0.6559923582471076 0.24604986328023146 0.6544712849489347
v 1.0889849255991193 0.342042004426236 0.8853455915664517
v 1.258036173372068 0.37951976377062807 0.5527165291246185
v 0.8250436060200563 0.2835276226246235 0.3218422225071016
vt 0.9492187499999997 0.5548749999999998
vt 0.9492187499999997 0.6173749999999998
vt 0.9023437499999997 0.6173749999999998
vt 0.9023437499999997 0.5548749999999998
vt 0.90234375 0.554875
vt 0.90234375 0.617375
vt 0.94921875 0.617375
vt 0.94921875 0.554875
vt 0 1
vt 0 1
vt 0 0.9375
vt 0 0.9375
vt 0 1
vt 0 1
vt 0 0.9375
vt 0 0.9375
vt 0 1
vt 0 1
vt 0 0.9166666666666666
vt 0 0.9166666666666666
vt 0 1
vt 0 1
vt 0 0.9166666666666666
vt 0 0.9166666666666666
vn 0.21643961393810296 -0.9762960071199335 -4.625929269271486e-16
vn -0.2164396139381029 0.9762960071199335 5.181040781584064e-16
vn 0 0 0
vn 0 0 0
vn 0 0 0
vn 0 0 0
usemtl m_c5d1ed0a-9da5-e07e-357a-4a276e32cbe5
f 113/289/73 114/290/73 115/291/73 116/292/73
f 117/293/74 118/294/74 119/295/74 120/296/74
f 114/297/75 119/298/75 115/299/75 118/300/75
f 116/301/76 117/302/76 113/303/76 120/304/76
f 115/305/77 118/306/77 116/307/77 117/308/77
f 119/309/78 114/310/78 120/311/78 113/312/78