# Made in Blockbench 4.12.2
mtllib directional_sign_2.mtl

o cube
v 0.5625 0.25 0.5625
v 0.5625 0.25 0.4375
v 0.5625 0 0.5625
v 0.5625 0 0.4375
v 0.4375 0.25 0.4375
v 0.4375 0.25 0.5625
v 0.4375 0 0.4375
v 0.4375 0 0.5625
vt 0.046875 0.34375
vt 0.046875 0.40625
vt 0.109375 0.40625
vt 0.109375 0.34375
vt 0.046875 0.34375
vt 0.046875 0.40625
vt 0.109375 0.40625
vt 0.109375 0.34375
vt 0.046875 0.34375
vt 0.046875 0.40625
vt 0.109375 0.40625
vt 0.109375 0.34375
vt 0.046875 0.34375
vt 0.046875 0.40625
vt 0.109375 0.40625
vt 0.109375 0.34375
vt 0.046875 0.34375
vt 0.046875 0.40625
vt 0.078125 0.40625
vt 0.078125 0.34375
vt 0.046875 0.34375
vt 0.046875 0.40625
vt 0.078125 0.40625
vt 0.078125 0.34375
vn 0 0 -1
vn 1 0 0
vn 0 0 1
vn -1 0 0
vn 0 1 0
vn 0 -1 0
usemtl m_3f7e7079-74f1-4840-ccc4-a789472bb607
f 4/4/1 7/3/1 5/2/1 2/1/1
f 3/8/2 4/7/2 2/6/2 1/5/2
f 8/12/3 3/11/3 1/10/3 6/9/3
f 7/16/4 8/15/4 6/14/4 5/13/4
f 6/20/5 1/19/5 2/18/5 5/17/5
f 7/24/6 4/23/6 3/22/6 8/21/6
o cube
v 0.5625 1 0.5625
v 0.5625 1 0.4375
v 0.5625 0.6875 0.5625
v 0.5625 0.6875 0.4375
v 0.4375 1 0.4375
v 0.4375 1 0.5625
v 0.4375 0.6875 0.4375
v 0.4375 0.6875 0.5625
vt 0.046875 0.34375
vt 0.046875 0.40625
vt 0.125 0.40625
vt 0.125 0.34375
vt 0.046875 0.34375
vt 0.046875 0.40625
vt 0.125 0.40625
vt 0.125 0.34375
vt 0.046875 0.34375
vt 0.046875 0.40625
vt 0.125 0.40625
vt 0.125 0.34375
vt 0.046875 0.34375
vt 0.046875 0.40625
vt 0.125 0.40625
vt 0.125 0.34375
vt 0.046875 0.34375
vt 0.046875 0.40625
vt 0.078125 0.40625
vt 0.078125 0.34375
vt 0.046875 0.34375
vt 0.046875 0.40625
vt 0.078125 0.40625
vt 0.078125 0.34375
vn 0 0 -1
vn 1 0 0
vn 0 0 1
vn -1 0 0
vn 0 1 0
vn 0 -1 0
usemtl m_3f7e7079-74f1-4840-ccc4-a789472bb607
f 12/28/7 15/27/7 13/26/7 10/25/7
f 11/32/8 12/31/8 10/30/8 9/29/8
f 16/36/9 11/35/9 9/34/9 14/33/9
f 15/40/10 16/39/10 14/38/10 13/37/10
f 14/44/11 9/43/11 10/42/11 13/41/11
f 15/48/12 12/47/12 11/46/12 16/45/12
o cube
v 0.27367781920369716 0.6875 0.7122868421762496
v 0.8040079050936079 0.6875 0.18195675628633895
v 0.27367781920369716 0.25 0.7122868421762496
v 0.8040079050936079 0.25 0.18195675628633895
v 0.7598137312694486 0.6875 0.13776258246217976
v 0.22948364537953797 0.6875 0.6680926683520904
v 0.7598137312694486 0.25 0.13776258246217976
v 0.22948364537953797 0.25 0.6680926683520904
vt 0.109375 0.5625
vt 0.125 0.5625
vt 0.125 0.34375
vt 0.109375 0.34375
vt 0.109375 0.5625
vt 0.296875 0.5625
vt 0.296875 0.34375
vt 0.109375 0.34375
vt 0.109375 0.5625
vt 0.125 0.5625
vt 0.125 0.34375
vt 0.109375 0.34375
vt 0.046875 0.5625
vt 0.234375 0.5625
vt 0.234375 0.34375
vt 0.046875 0.34375
vt 0.109375 0.53125
vt 0.109375 0.5625
vt 0.296875 0.5625
vt 0.296875 0.53125
vt 0.109375 0.53125
vt 0.109375 0.5625
vt 0.296875 0.5625
vt 0.296875 0.53125
vn 0.7071067811865476 0 -0.7071067811865475
vn 0.7071067811865475 0 0.7071067811865476
vn -0.7071067811865476 0 0.7071067811865475
vn -0.7071067811865475 0 -0.7071067811865476
vn 0 1 0
vn 0 -1 0
usemtl m_3f7e7079-74f1-4840-ccc4-a789472bb607
f 20/52/13 23/51/13 21/50/13 18/49/13
f 19/56/14 20/55/14 18/54/14 17/53/14
f 24/60/15 19/59/15 17/58/15 22/57/15
f 23/64/16 24/63/16 22/62/16 21/61/16
f 22/68/17 17/67/17 18/66/17 21/65/17
f 23/72/18 20/71/18 19/70/18 24/69/18
o cube
v 0.11622128499393969 0.4682539982187468 0.8683618665122639
v 0.2724712849939398 0.6892248673395429 0.7121118665122638
v 0.2712506599939397 0.2490093535275223 0.7133324915122637
v 0.4275006599939397 0.4699802226483184 0.5570824915122636
v 0.22965817910178554 0.6892248673395429 0.6692987606201095
v 0.07340817910178543 0.4682539982187468 0.8255487606201096
v 0.3846875541017855 0.4699802226483184 0.5142693856201095
v 0.22843755410178546 0.2490093535275223 0.6705193856201095
vt 0.25 0.5
vt 0.265136875 0.5
vt 0.265136875 0.344970625
vt 0.25 0.344970625
vt 0.25 0.5
vt 0.328125 0.5
vt 0.328125 0.344970625
vt 0.25 0.344970625
vt 0.25 0.5
vt 0.265136875 0.5
vt 0.265136875 0.344970625
vt 0.25 0.344970625
vt 0.25 0.5
vt 0.328125 0.5
vt 0.328125 0.344970625
vt 0.25 0.344970625
vt 0.25 0.5
vt 0.265136875 0.5
vt 0.265136875 0.34375
vt 0.25 0.34375
vt 0.25 0.5
vt 0.265136875 0.5
vt 0.265136875 0.34375
vt 0.25 0.34375
vn 0.5 0.7071067811865474 -0.5000000000000001
vn 0.7071067811865476 -2.775557561562891e-16 0.7071067811865474
vn -0.5 -0.7071067811865474 0.5000000000000001
vn -0.7071067811865476 2.775557561562891e-16 -0.7071067811865474
vn -0.49999999999999983 0.7071067811865478 0.5000000000000001
vn 0.49999999999999983 -0.7071067811865478 -0.5000000000000001
usemtl m_3f7e7079-74f1-4840-ccc4-a789472bb607
f 28/76/19 31/75/19 29/74/19 26/73/19
f 27/80/20 28/79/20 26/78/20 25/77/20
f 32/84/21 27/83/21 25/82/21 30/81/21
f 31/88/22 32/87/22 30/86/22 29/85/22
f 30/92/23 25/91/23 26/90/23 29/89/23
f 31/96/24 28/95/24 27/94/24 32/93/24
o cube
v 0.5625 0.6875 0.5625
v 0.5625 0.6875 0.46098632812499996
v 0.5625 0.25 0.5625
v 0.5625 0.25 0.46098632812499996
v 0.4384765625 0.6875 0.46098632812499996
v 0.4384765625 0.6875 0.5625
v 0.4384765625 0.25 0.46098632812499996
v 0.4384765625 0.25 0.5625
vt 0.046875 0.34423828125
vt 0.046875 0.40625
vt 0.15625 0.40625
vt 0.15625 0.34423828125
vt 0.046875 0.3554931640625
vt 0.046875 0.40625
vt 0.15625 0.40625
vt 0.15625 0.3554931640625
vt 0.046875 0.34423828125
vt 0.046875 0.40625
vt 0.15625 0.40625
vt 0.15625 0.34423828125
vt 0.046875 0.3554931640625
vt 0.046875 0.40625
vt 0.15625 0.40625
vt 0.15625 0.3554931640625
vt 0.046875 0.34423828125
vt 0.046875 0.40625
vt 0.07225341796875 0.40625
vt 0.07225341796875 0.34423828125
vt 0.046875 0.34423828125
vt 0.046875 0.40625
vt 0.07225341796875 0.40625
vt 0.07225341796875 0.34423828125
vn 0 0 -1
vn 1 0 0
vn 0 0 1
vn -1 0 0
vn 0 1 0
vn 0 -1 0
usemtl m_3f7e7079-74f1-4840-ccc4-a789472bb607
f 36/100/25 39/99/25 37/98/25 34/97/25
f 35/104/26 36/103/26 34/102/26 33/101/26
f 40/108/27 35/107/27 33/106/27 38/105/27
f 39/112/28 40/111/28 38/110/28 37/109/28
f 38/116/29 33/115/29 34/114/29 37/113/29
f 39/120/30 36/119/30 35/118/30 40/117/30
o cube
v 0.5625 0.6875 0.4606933593750001
v 0.5625 0.6875 0.43901367187500007
v 0.5625 0.25 0.4606933593750001
v 0.5625 0.25 0.43901367187500007
v 0.462646484375 0.6875 0.43901367187500007
v 0.462646484375 0.6875 0.4606933593750001
v 0.462646484375 0.25 0.43901367187500007
v 0.462646484375 0.25 0.4606933593750001
vt 0.046875 0.3563232421875
vt 0.046875 0.40625
vt 0.15625 0.40625
vt 0.15625 0.3563232421875
vt 0.046875 0.39541015625
vt 0.046875 0.40625
vt 0.15625 0.40625
vt 0.15625 0.39541015625
vt 0.046875 0.3563232421875
vt 0.046875 0.40625
vt 0.15625 0.40625
vt 0.15625 0.3563232421875
vt 0.046875 0.39541015625
vt 0.046875 0.40625
vt 0.15625 0.40625
vt 0.15625 0.39541015625
vt 0.046875 0.3563232421875
vt 0.046875 0.40625
vt 0.05229492187500001 0.40625
vt 0.05229492187500001 0.3563232421875
vt 0.046875 0.3563232421875
vt 0.046875 0.40625
vt 0.05229492187500001 0.40625
vt 0.05229492187500001 0.3563232421875
vn 0 0 -1
vn 1 0 0
vn 0 0 1
vn -1 0 0
vn 0 1 0
vn 0 -1 0
usemtl m_3f7e7079-74f1-4840-ccc4-a789472bb607
f 44/124/31 47/123/31 45/122/31 42/121/31
f 43/128/32 44/127/32 42/126/32 41/125/32
f 48/132/33 43/131/33 41/130/33 46/129/33
f 47/136/34 48/135/34 46/134/34 45/133/34
f 46/140/35 41/139/35 42/138/35 45/137/35
f 47/144/36 44/143/36 43/142/36 48/141/36