# Made in Blockbench 4.8.1
mtllib elm_thin_branch_22.5_diagonal.mtl

o cube_selection
v 0.65625 1.125 0.65625
v 0.65625 1 0.34375
v 0.34375 1 0.65625
v 0.34375 1 0.34375
v 1.6557128906250003 -1 1.3445312499999997
v 1.6557128906250003 -1 1.6554687499999998
v 1.3445312500000002 -1 1.3445312499999997
v 1.3445312500000002 -1 1.6554687499999998
v 1.6557128906250003 -0.875 1.6558593749999997
vt 0.375 0.44390520833333336
vt 0.375 0.5
vt 0.3359375 0.44390520833333336
vt 0.4060545007445101 0.031089249626329862
vt 0.3671875 0.05208333333333337
vt 0.3671875 0.03124989989607385
vt 0.34375 0.146053125
vt 0.3826171875 0.146053125
vt 0.3826171875 0.19791666666666663
vt 0.34375 0.19791666666666663
vt 0.39046015624999997 0.6145822916666666
vt 0.39046015624999997 0.6354166666666667
vt 0.3515625 0.6145822916666666
vt 0.390625 0.71875
vt 0.390625 0.6626552083333332
vt 0.4296875 0.6626552083333332
vt 0.38767549094820664 0.65625
vt 0.3519901215090425 0.6350657998398022
vt 0.3515625 0.22680109774323698
vt 0.38709727718013076 0.24789590057875888
vt 0.37500000000000006 0.5184842880860285
vt 0.37539978692088005 0.9267324665064688
vt 0.41108515636004417 0.9479166666666666
vt 0.4105069425919683 0.5395625672454256
vt 0.393531823296514 0.7669202920299311
vt 0.3515625 0.7708333333333334
vt 0.353509712099116 0.3625939560299185
vt 0.3953286160921503 0.35874256358284173
vt 0.328125 0.5209035213003792
vt 0.3700757875860403 0.525148182471745
vt 0.3700757875860403 0.9333333333333333
vt 0.32825700190884405 0.9291681445209705
vn -0.3713906763541037 0.9284766908852593 8.246529600388713e-17
vn 1 0 -2.220446049250313e-16
vn 0 -1 0
vn 2.220435207307997e-16 -0.0031249847413216294 0.9999951172232625
vn -8.246529600388713e-17 0.9284766908852593 -0.3713906763541037
vn -1.9857169573795421e-16 -0.4474930384873468 -0.8942874149317781
vn -0.8942874149317781 -0.4474930384873466 1.9857169573795421e-16
vn -0.15194181153938977 0.37985452884847487 0.9124824506912074
vn 0.9124152883994355 0.3799935814963548 -0.15199743259854215
usemtl m_5010ecbf-e2c9-ac01-0075-f1ad80411f02
f 3/1/1 1/2/1 4/3/1
f 5/4/2 9/5/2 6/6/2
f 5/7/3 6/8/3 8/9/3 7/10/3
f 6/11/4 9/12/4 8/13/4
f 1/14/5 2/15/5 4/16/5
f 4/17/6 2/18/6 5/19/6 7/20/6
f 8/21/7 3/22/7 4/23/7 7/24/7
f 1/25/8 3/26/8 8/27/8 9/28/8
f 2/29/9 1/30/9 9/31/9 5/32/9