# Made in Blockbench 4.8.3
mtllib fern_4.mtl

o cube
v 0.23608398100386818 0.024521429848722187 0.43993248705523014
v 0.7200741806486575 0.06924847120399091 0.6752046239932898
v 0.9173624532122924 0.6597839164667816 0.1570876242749497
v 0.4333722535675031 0.6150568751115126 -0.0781845126631101
v 0.4333722535675031 0.6150568751115126 -0.0781845126631101
v 0.9173624532122924 0.6597839164667816 0.1570876242749497
v 0.7200741806486575 0.06924847120399091 0.6752046239932898
v 0.23608398100386818 0.024521429848722187 0.43993248705523014
vt 0.40296874999999993 0.7649619932432432
vt 0.47046874999999994 0.7649619932432432
vt 0.47046874999999994 0.88171875
vt 0.40296874999999993 0.88171875
vt 0.43015625 0.42216920045045037
vt 0.49765625 0.42216920045045037
vt 0.49765625 0.3054124436936937
vt 0.43015625 0.3054124436936937
vn -0.3706227174620834 0.6794238308456869 0.6332630254325546
vn 0.3706227174620838 -0.6794238308456868 -0.6332630254325544
usemtl m_e0e00e90-e9da-2881-0c3c-89520702b484
f 1/1/1 2/2/1 3/3/1 4/4/1
f 5/5/2 6/6/2 7/7/2 8/8/2
o cube
v 0.43116319493191735 0.6120854837542211 -0.07307526220179872
v 0.9151533945767065 0.6568125251094896 0.162196874736261
v 1.146273053873303 0.9173526602636319 -0.3627817353617946
v 0.662282854228514 0.8726256189083634 -0.5980538722998543
v 0.662282854228514 0.8726256189083634 -0.5980538722998543
v 1.146273053873303 0.9173526602636319 -0.3627817353617946
v 0.9151533945767065 0.6568125251094896 0.162196874736261
v 0.43116319493191735 0.6120854837542211 -0.07307526220179872
vt 0.45328124999999986 0.855990990990991
vt 0.3857812499999998 0.855990990990991
vt 0.3857812499999998 0.9468018018018018
vt 0.45328124999999986 0.9468018018018018
vt 0.4804687499999999 0.48770270270270266
vt 0.4129687499999999 0.48770270270270266
vt 0.4129687499999999 0.3968918918918918
vt 0.4804687499999999 0.3968918918918918
vn -0.24920215861356 0.9067034639673973 0.3402750542897099
vn 0.24920215861356004 -0.9067034639673973 -0.3402750542897099
usemtl m_e0e00e90-e9da-2881-0c3c-89520702b484
f 9/9/3 10/10/3 11/11/3 12/12/3
f 13/13/4 14/14/4 15/15/4 16/16/4
o cube
v 0.04361090823318392 0.6055967574970638 0.013107214407378387
v 0.34033805002792006 0.11250000000000004 0.5831147503823062
v 0.6596619499720799 0.11249999999999982 0.4168852496176939
v 0.3629348081773437 0.6055967574970635 -0.1531222863572338
v 0.3629348081773437 0.6055967574970635 -0.1531222863572338
v 0.6596619499720799 0.11249999999999982 0.4168852496176939
v 0.34033805002792006 0.11250000000000004 0.5831147503823062
v 0.04361090823318392 0.6055967574970638 0.013107214407378387
vt 0.6643750000000006 0.895
vt 0.6643750000000006 0.7782432432432433
vt 0.7093750000000006 0.7782432432432433
vt 0.7093750000000006 0.895
vt 0.7365625 0.4354504504504505
vt 0.7365625 0.3186936936936938
vt 0.6915625 0.3186936936936938
vt 0.6915625 0.4354504504504505
vn 0.2810947456357548 0.7933533402912353 0.5399779823517898
vn -0.2810947456357549 -0.7933533402912354 -0.53997798235179
usemtl m_e0e00e90-e9da-2881-0c3c-89520702b484
f 17/17/5 18/18/5 19/19/5 20/20/5
f 21/21/6 22/22/6 23/23/6 24/24/6
o cube
v -0.2858845726811978 0.6250000000000002 -0.5011920087683934
v 0.029115427318801568 0.6250000000000002 0.044403995615803105
v 0.41882685902179917 0.6250000000000002 -0.18059600438419643
v 0.10382685902179967 0.6250000000000002 -0.7261920087683931
v 0.10382685902179967 0.6250000000000002 -0.7261920087683931
v 0.41882685902179917 0.6250000000000002 -0.18059600438419643
v 0.029115427318801568 0.6250000000000002 0.044403995615803105
v -0.2858845726811978 0.6250000000000002 -0.5011920087683934
vt 0.659375 0.9650000000000001
vt 0.659375 0.8741891891891892
vt 0.7156250000000001 0.8741891891891892
vt 0.7156250000000001 0.9650000000000001
vt 0.7428125 0.5054504504504506
vt 0.7428125 0.4146396396396397
vt 0.6865625 0.4146396396396397
vt 0.6865625 0.5054504504504506
vn 0 1 0
vn 0 -1 0
usemtl m_e0e00e90-e9da-2881-0c3c-89520702b484
f 25/25/7 26/26/7 27/27/7 28/28/7
f 29/29/8 30/30/8 31/31/8 32/32/8
o cube
v -0.2197412573613159 0.8125357133746822 0.2880506606475228
v 0.3356344141676454 0.11250000000000004 0.7142054018786335
v 0.6095770572215697 0.11249999999999993 0.3571963987475777
v 0.05420138569260846 0.812535713374682 -0.06895834248353294
v 0.05420138569260846 0.812535713374682 -0.06895834248353294
v 0.6095770572215697 0.11249999999999993 0.3571963987475777
v 0.3356344141676454 0.11250000000000004 0.7142054018786335
v -0.2197412573613159 0.8125357133746822 0.2880506606475228
vt 0.20234375 0.66
vt 0.20234375 0.5172972972972973
vt 0.14609375 0.5172972972972973
vt 0.14609375 0.66
vt 0.17328124999999997 0.2004504504504494
vt 0.17328124999999997 0.057747747747746714
vt 0.22953124999999996 0.057747747747746714
vt 0.22953124999999996 0.2004504504504494
vn 0.5609855267969313 0.7071067811865474 0.4304593345768797
vn -0.5609855267969313 -0.7071067811865474 -0.43045933457687946
usemtl m_e0e00e90-e9da-2881-0c3c-89520702b484
f 33/33/9 34/34/9 35/35/9 36/36/9
f 37/37/10 38/38/10 39/39/10 40/40/10
o cube
v -0.7502653834158992 0.8366077196761141 -0.011860503314262694
v -0.23505351590500134 0.8090258507762269 0.3496584755567257
v 0.023292461931885722 0.8056173585691044 -0.018778409019692077
v -0.49191940557901215 0.8331992274689919 -0.38029738789068046
v -0.49191940557901215 0.8331992274689919 -0.38029738789068046
v 0.023292461931885722 0.8056173585691044 -0.018778409019692077
v -0.23505351590500134 0.8090258507762269 0.3496584755567257
v -0.7502653834158992 0.8366077196761141 -0.011860503314262694
vt 0.17406249999999998 0.95
vt 0.17406249999999998 0.8591891891891892
vt 0.11781249999999999 0.8591891891891892
vt 0.11781249999999999 0.95
vt 0.14539062500000002 0.49045045045045055
vt 0.14539062500000002 0.39963963963963967
vt 0.20164062500000002 0.39963963963963967
vt 0.20164062500000002 0.49045045045045055
vn 0.04019193111279817 0.9990124496138691 0.018940279562900474
vn -0.040191931112798465 -0.9990124496138691 -0.01894027956290067
usemtl m_e0e00e90-e9da-2881-0c3c-89520702b484
f 41/41/11 42/42/11 43/43/11 44/44/11
f 45/45/12 46/46/12 47/47/12 48/48/12
o cube
v 0.02910709817283985 0.5330186651126405 0.6752824215392956
v 0.3335296564709145 0.5432182010502076 1.006526856158073
v 0.682653534978845 0.11861972156254008 0.6987466607712665
v 0.3782309766807701 0.10842018562497313 0.36750222615248906
v 0.3782309766807701 0.10842018562497313 0.36750222615248906
v 0.682653534978845 0.11861972156254008 0.6987466607712665
v 0.3335296564709145 0.5432182010502076 1.006526856158073
v 0.02910709817283985 0.5330186651126405 0.6752824215392956
vt 0.5285937499999999 0.6350000000000002
vt 0.47234374999999984 0.6350000000000002
vt 0.47234374999999984 0.5441891891891895
vt 0.5285937499999999 0.5441891891891895
vt 0.5561718749999999 0.08463963963963972
vt 0.49992187499999985 0.08463963963963972
vt 0.49992187499999985 0.1754504504504505
vt 0.5561718749999999 0.1754504504504505
vn 0.48503233902703996 0.7384147309397076 -0.4684947334060416
vn -0.48503233902703996 -0.7384147309397076 0.4684947334060416
usemtl m_e0e00e90-e9da-2881-0c3c-89520702b484
f 49/49/13 50/50/13 51/51/13 52/52/13
f 53/53/14 54/54/14 55/55/14 56/56/14
o cube
v -0.4353355218146375 0.6748627453153309 1.0637632671142145
v -0.1460246645717469 0.6706143118026244 1.4084097217515312
v 0.3241243921786563 0.5336281598268711 1.0120580362453613
v 0.034813534935765666 0.5378765933395775 0.6674115816080448
v 0.034813534935765666 0.5378765933395775 0.6674115816080448
v 0.3241243921786563 0.5336281598268711 1.0120580362453613
v -0.1460246645717469 0.6706143118026244 1.4084097217515312
v -0.4353355218146375 0.6748627453153309 1.0637632671142145
vt 0.6692187499999999 0.7030180180180181
vt 0.6129687499999998 0.7030180180180181
vt 0.6129687499999998 0.6122072072072071
vt 0.6692187499999999 0.6122072072072071
vt 0.6964062499999999 0.1526576576576577
vt 0.6401562499999999 0.1526576576576577
vt 0.6401562499999999 0.24346846846846848
vt 0.6964062499999999 0.24346846846846848
vn 0.1724714828796266 0.9760284002241963 -0.13274844462026233
vn -0.17247148287962655 -0.9760284002241963 0.13274844462026236
usemtl m_e0e00e90-e9da-2881-0c3c-89520702b484
f 57/57/15 58/58/15 59/59/15 60/60/15
f 61/61/16 62/62/16 63/63/16 64/64/16
o cube
v 0.3250705707527334 0.11321799546403544 0.5424167333223475
v 0.4975380256361408 0.6491055632991061 1.2446129250279505
v 0.847396884130674 0.6476695723710351 1.1597794583832555
v 0.6749294292472667 0.11178200453596443 0.4575832666776525
v 0.6749294292472667 0.11178200453596443 0.4575832666776525
v 0.847396884130674 0.6476695723710351 1.1597794583832555
v 0.4975380256361408 0.6491055632991061 1.2446129250279505
v 0.3250705707527334 0.11321799546403544 0.5424167333223475
vt 0.7156250000000004 0.7752702702702703
vt 0.7156250000000004 0.905
vt 0.6706250000000004 0.905
vt 0.6706250000000004 0.7752702702702703
vt 0.6978125 0.31527027027027044
vt 0.6978125 0.44500000000000006
vt 0.7428125 0.44500000000000006
vt 0.7428125 0.31527027027027044
vn -0.1372001628093457 0.803396821452092 -0.5794218347678696
vn 0.1372001628093457 -0.803396821452092 0.5794218347678696
usemtl m_e0e00e90-e9da-2881-0c3c-89520702b484
f 65/65/17 66/66/17 67/67/17 68/68/17
f 69/69/18 70/70/18 71/71/18 72/72/18
o cube
v 0.4972065928025704 0.6481503180932213 1.2432622435822638
v 0.6242886391014348 0.6862291218137866 1.766712487842121
v 0.9741474975959683 0.6847931308857154 1.6818790211974268
v 0.8470654512971039 0.6467143271651503 1.1584287769375696
v 0.8470654512971039 0.6467143271651503 1.1584287769375696
v 0.9741474975959683 0.6847931308857154 1.6818790211974268
v 0.6242886391014348 0.6862291218137866 1.766712487842121
v 0.4972065928025704 0.6481503180932213 1.2432622435822638
vt 0.71171875 0.8650900900900901
vt 0.71171875 0.9429279279279279
vt 0.6667187499999999 0.9429279279279279
vt 0.6667187499999999 0.8650900900900901
vt 0.69390625 0.40554054054054045
vt 0.69390625 0.48337837837837827
vt 0.73890625 0.48337837837837827
vt 0.73890625 0.40554054054054045
vn -0.012750448164838505 0.9975026516011962 -0.06946859808703836
vn 0.0127504481648384 -0.9975026516011962 0.06946859808703795
usemtl m_e0e00e90-e9da-2881-0c3c-89520702b484
f 73/73/19 74/74/19 75/75/19 76/76/19
f 77/77/20 78/78/20 79/79/20 80/80/20
o cube
v 0.5134529523059057 0.15405737519115303 0.6964484732480167
v 1.1135855771421155 0.4865163767203775 0.9148788853004426
v 1.236712828739356 0.4865163767203774 0.5765895418175155
v 0.6365802039031463 0.1540573751911528 0.3581591297650897
v 0.6365802039031463 0.1540573751911528 0.3581591297650897
v 1.236712828739356 0.4865163767203774 0.5765895418175155
v 1.1135855771421155 0.4865163767203775 0.9148788853004426
v 0.5134529523059057 0.15405737519115303 0.6964484732480167
vt 0.17062499999999997 0.7812162162162163
vt 0.17062499999999997 0.885
vt 0.125625 0.885
vt 0.125625 0.7812162162162163
vt 0.1528125 0.32166666666666677
vt 0.1528125 0.4254504504504505
vt 0.1978125 0.4254504504504505
vt 0.1978125 0.32166666666666677
vn -0.4339017645150878 0.8870108331782219 -0.15792732687907507
vn 0.43390176451508783 -0.8870108331782217 0.15792732687907515
usemtl m_e0e00e90-e9da-2881-0c3c-89520702b484
f 81/81/21 82/82/21 83/83/21 84/84/21
f 85/85/22 86/86/22 87/87/22 88/88/22
o cube
v 1.0755581473796978 0.4860003567127913 0.9768368114969284
v 1.4877471741462371 0.5447371432118144 1.1475710966449957
v 1.6255132097976697 0.5447371432118144 0.8149744649409325
v 1.2133241830311299 0.4860003567127913 0.6442401797928654
v 1.2133241830311299 0.4860003567127913 0.6442401797928654
v 1.6255132097976697 0.5447371432118144 0.8149744649409325
v 1.4877471741462371 0.5447371432118144 1.1475710966449957
v 1.0755581473796978 0.4860003567127913 0.9768368114969284
vt 0.1328125 0.8666216216216216
vt 0.1328125 0.9314864864864865
vt 0.17781249999999998 0.9314864864864865
vt 0.17781249999999998 0.8666216216216216
vt 0.20499999999999996 0.4070720720720721
vt 0.20499999999999996 0.47193693693693695
vt 0.15999999999999998 0.47193693693693695
vt 0.15999999999999998 0.4070720720720721
vn -0.12059047744873935 0.9914448613738105 -0.04995021125231481
vn 0.12059047744873927 -0.9914448613738105 0.049950211252314775
usemtl m_e0e00e90-e9da-2881-0c3c-89520702b484
f 89/89/23 90/90/23 91/91/23 92/92/23
f 93/93/24 94/94/24 95/95/24 96/96/24
o cube
v 0.4402590915957091 0.12193261185199344 0.23686115889766535
v 0.5398272722695272 0.10621159209867093 0.6754258940682232
v 1.345251110795892 0.6583001499213055 0.5123594516136831
v 1.2456829301220738 0.6740211696746279 0.07379471644312541
v 1.2456829301220738 0.6740211696746279 0.07379471644312541
v 1.345251110795892 0.6583001499213055 0.5123594516136831
v 0.5398272722695272 0.10621159209867093 0.6754258940682232
v 0.4402590915957091 0.12193261185199344 0.23686115889766535
vt 0.26984374999999994 0.7572972972972973
vt 0.32609374999999996 0.7572972972972973
vt 0.32609374999999996 0.9
vt 0.26984374999999994 0.9
vt 0.29703125 0.4404504504504506
vt 0.35328125000000005 0.4404504504504506
vt 0.35328125000000005 0.2977477477477478
vt 0.29703125 0.2977477477477478
vn -0.5377396215246849 0.8293304634063294 0.1518126539809239
vn 0.5377396215246849 -0.8293304634063294 -0.15181265398092386
usemtl m_e0e00e90-e9da-2881-0c3c-89520702b484
f 97/97/25 98/98/25 99/99/25 100/100/25
f 101/101/26 102/102/26 103/103/26 104/104/26
o cube
v 1.2119356312437715 0.6504277464941319 0.06328934532994546
v 1.7313294423077288 0.5729600672324839 -0.06252332373908254
v 1.8359634945133854 0.5638498796322449 0.3750480642662489
v 1.3165696834494283 0.6413175588938931 0.5008607333352768
v 1.3165696834494283 0.6413175588938931 0.5008607333352768
v 1.8359634945133854 0.5638498796322449 0.3750480642662489
v 1.7313294423077288 0.5729600672324839 -0.06252332373908254
v 1.2119356312437715 0.6504277464941319 0.06328934532994546
vt 0.37218749999999995 0.3873873873873872
vt 0.37218749999999995 0.465225225225225
vt 0.3159374999999999 0.465225225225225
vt 0.3159374999999999 0.3873873873873872
vt 0.28874999999999984 0.846936936936937
vt 0.28874999999999984 0.9247747747747748
vt 0.34499999999999986 0.9247747747747748
vt 0.34499999999999986 0.846936936936937
vn -0.14421323850936948 -0.9894492189799851 0.013884700160158662
vn 0.14421323850936993 0.9894492189799851 -0.013884700160158784
usemtl m_e0e00e90-e9da-2881-0c3c-89520702b484
f 105/105/27 106/106/27 107/107/27 108/108/27
f 109/109/28 110/110/28 111/111/28 112/112/28
o cube
v -0.06248699144363934 0.9184531550598471 0.9250448881978555
v 0.28460509493377595 0.9184531550598474 1.191378013389171
v 0.7895343507075854 0.15841417149222936 0.533341395774916
v 0.4424422643301702 0.15841417149222936 0.26700827058360066
v 0.4424422643301702 0.15841417149222936 0.26700827058360066
v 0.7895343507075854 0.15841417149222936 0.533341395774916
v 0.28460509493377595 0.9184531550598474 1.191378013389171
v -0.06248699144363934 0.9184531550598471 0.9250448881978555
vt 0.155 0.685
vt 0.2096875 0.685
vt 0.2096875 0.5228378378378379
vt 0.155 0.5228378378378379
vt 0.1821874999999989 0.06328828828828759
vt 0.2368749999999989 0.06328828828828759
vt 0.2368749999999989 0.22545045045044976
vt 0.1821874999999989 0.22545045045044976
vn 0.4112732602124077 0.7372773368101239 -0.5359817478799332
vn -0.41127326021240795 -0.737277336810124 0.5359817478799331
usemtl m_e0e00e90-e9da-2881-0c3c-89520702b484
f 113/113/29 114/114/29 115/115/29 116/116/29
f 117/117/30 118/118/30 119/119/30 120/120/30
o cube
v 0.028705391180682827 -0.0015792857964482265 0.1371340438173424
v 1.0594832785645298 0.0063231101519263255 1.067993924117256
v 1.0848838133103311 0.6891086766021988 1.0518908265722984
v 0.054105925926484055 0.6812062806538246 0.12103094627238498
v 1.0594832785645298 0.0063231101519263255 1.067993924117256
v 0.028705391180682827 -0.0015792857964482265 0.1371340438173424
v 0.054105925926484055 0.6812062806538246 0.12103094627238498
v 1.0848838133103311 0.6891086766021988 1.0518908265722984
vt 0.9669633635754914 0.5741323374985322
vt 0.7933764187285617 0.5776307187440558
vt 0.7933764187285618 0.6761457801554587
vt 0.9669633635754915 0.6726473989099349
vt 0.7940709620733216 0.5767252055973335
vt 0.9676844151103471 0.5767252055973335
vt 0.9661915780370253 0.6752252252252252
vt 0.7925781249999998 0.6752252252252253
vn -0.6697969820962055 0.04240123890565111 0.7413326768152616
vn 0.6697969820962058 -0.04240123890565052 -0.7413326768152616
usemtl m_e0e00e90-e9da-2881-0c3c-89520702b484
f 121/121/31 122/122/31 123/123/31 124/124/31
f 125/125/32 126/126/32 127/127/32 128/128/32
o cube
v 0.11585318907232223 -0.0015792857964487816 1.01236571883892
v 0.953332654110612 0.006323110151927103 -0.09561953174461324
v 0.9350770312415142 0.6891086766021995 -0.11951993236000524
v 0.09759756620322468 0.6812062806538242 0.9884653182235281
v 0.953332654110612 0.006323110151927103 -0.09561953174461324
v 0.11585318907232223 -0.0015792857964487816 1.01236571883892
v 0.09759756620322468 0.6812062806538242 0.9884653182235281
v 0.9350770312415142 0.6891086766021995 -0.11951993236000524
vt 0.9708696135754914 0.7993575627237575
vt 0.7972826687285617 0.8028559439692811
vt 0.7972826687285618 0.9013710053806838
vt 0.9708696135754915 0.8978726241351601
vt 0.7979772120733216 0.8019504308225588
vt 0.9715906651103471 0.8019504308225587
vt 0.9700978280370253 0.9004504504504505
vt 0.7964843749999998 0.9004504504504505
vn 0.7968883356302598 0.042401238905648106 0.6026368022911484
vn -0.7968883356302597 -0.04240123890564752 -0.6026368022911485
usemtl m_e0e00e90-e9da-2881-0c3c-89520702b484
f 129/129/33 130/130/33 131/131/33 132/132/33
f 133/133/34 134/134/34 135/135/34 136/136/34