# Made in Blockbench 4.8.1
mtllib fern_4.mtl

o cube
v 0.7200741806486575 0.06924847120399091 0.6752046239932898
v 0.9173624532122924 0.6597839164667816 0.1570876242749497
v 0.7200741806486575 0.06924847120399091 0.6752046239932898
v 0.9173624532122924 0.6597839164667816 0.1570876242749497
v 0.4333722535675031 0.6150568751115126 -0.0781845126631101
v 0.23608398100386818 0.024521429848722187 0.43993248705523014
v 0.4333722535675031 0.6150568751115126 -0.0781845126631101
v 0.23608398100386818 0.024521429848722187 0.43993248705523014
vt 0.40296874999999993 0.88171875
vt 0.47046874999999994 0.88171875
vt 0.47046874999999994 0.7649619932432432
vt 0.40296874999999993 0.7649619932432432
vt 0.43015625 0.3054124436936937
vt 0.49765625 0.3054124436936937
vt 0.49765625 0.42216920045045037
vt 0.43015625 0.42216920045045037
vn -0.3706227174620834 0.679423830845687 0.6332630254325543
vn 0.3706227174620834 -0.679423830845687 -0.6332630254325543
usemtl m_23a2f4ff-d777-e630-be8d-41a7f9e108dc
f 6/4/1 1/3/1 2/2/1 5/1/1
f 7/8/2 4/7/2 3/6/2 8/5/2
o cube
v 0.9151533945767065 0.6568125251094896 0.162196874736261
v 1.146273053873303 0.9173526602636319 -0.3627817353617946
v 0.9151533945767065 0.6568125251094896 0.162196874736261
v 1.146273053873303 0.9173526602636319 -0.3627817353617946
v 0.662282854228514 0.8726256189083634 -0.5980538722998543
v 0.43116319493191735 0.6120854837542211 -0.07307526220179872
v 0.662282854228514 0.8726256189083634 -0.5980538722998543
v 0.43116319493191735 0.6120854837542211 -0.07307526220179872
vt 0.45328124999999986 0.9468018018018018
vt 0.3857812499999998 0.9468018018018018
vt 0.3857812499999998 0.855990990990991
vt 0.45328124999999986 0.855990990990991
vt 0.4804687499999999 0.3968918918918918
vt 0.4129687499999999 0.3968918918918918
vt 0.4129687499999999 0.48770270270270266
vt 0.4804687499999999 0.48770270270270266
vn -0.24920215861355993 0.9067034639673971 0.34027505428971
vn 0.24920215861355993 -0.9067034639673971 -0.34027505428971
usemtl m_23a2f4ff-d777-e630-be8d-41a7f9e108dc
f 14/12/3 9/11/3 10/10/3 13/9/3
f 15/16/4 12/15/4 11/14/4 16/13/4
o cube
v 0.34033805002792006 0.11250000000000004 0.5831147503823062
v 0.6596619499720799 0.11249999999999982 0.4168852496176939
v 0.34033805002792006 0.11250000000000004 0.5831147503823062
v 0.6596619499720799 0.11249999999999982 0.4168852496176939
v 0.3629348081773437 0.6055967574970635 -0.1531222863572338
v 0.04361090823318392 0.6055967574970638 0.013107214407378387
v 0.3629348081773437 0.6055967574970635 -0.1531222863572338
v 0.04361090823318392 0.6055967574970638 0.013107214407378387
vt 0.7093750000000006 0.895
vt 0.7093750000000006 0.7782432432432433
vt 0.6643750000000006 0.7782432432432433
vt 0.6643750000000006 0.895
vt 0.6915625 0.4354504504504505
vt 0.6915625 0.3186936936936938
vt 0.7365625 0.3186936936936938
vt 0.7365625 0.4354504504504505
vn 0.2810947456357545 0.7933533402912353 0.5399779823517901
vn -0.2810947456357545 -0.7933533402912353 -0.5399779823517901
usemtl m_23a2f4ff-d777-e630-be8d-41a7f9e108dc
f 22/20/5 17/19/5 18/18/5 21/17/5
f 23/24/6 20/23/6 19/22/6 24/21/6
o cube
v 0.029115427318801568 0.6250000000000002 0.044403995615803105
v 0.41882685902179917 0.6250000000000002 -0.18059600438419643
v 0.029115427318801568 0.6250000000000002 0.044403995615803105
v 0.41882685902179917 0.6250000000000002 -0.18059600438419643
v 0.10382685902179967 0.6250000000000002 -0.7261920087683931
v -0.2858845726811978 0.6250000000000002 -0.5011920087683934
v 0.10382685902179967 0.6250000000000002 -0.7261920087683931
v -0.2858845726811978 0.6250000000000002 -0.5011920087683934
vt 0.7156250000000001 0.9650000000000001
vt 0.7156250000000001 0.8741891891891892
vt 0.659375 0.8741891891891892
vt 0.659375 0.9650000000000001
vt 0.6865625 0.5054504504504506
vt 0.6865625 0.4146396396396397
vt 0.7428125 0.4146396396396397
vt 0.7428125 0.5054504504504506
vn 0 1 0
vn 0 -1 0
usemtl m_23a2f4ff-d777-e630-be8d-41a7f9e108dc
f 30/28/7 25/27/7 26/26/7 29/25/7
f 31/32/8 28/31/8 27/30/8 32/29/8
o cube
v 0.3356344141676454 0.11250000000000004 0.7142054018786335
v 0.6095770572215697 0.11249999999999993 0.3571963987475777
v 0.3356344141676454 0.11250000000000004 0.7142054018786335
v 0.6095770572215697 0.11249999999999993 0.3571963987475777
v 0.05420138569260846 0.812535713374682 -0.06895834248353294
v -0.2197412573613159 0.8125357133746822 0.2880506606475228
v 0.05420138569260846 0.812535713374682 -0.06895834248353294
v -0.2197412573613159 0.8125357133746822 0.2880506606475228
vt 0.14609375 0.66
vt 0.14609375 0.5172972972972973
vt 0.20234375 0.5172972972972973
vt 0.20234375 0.66
vt 0.22953124999999996 0.2004504504504494
vt 0.22953124999999996 0.057747747747746714
vt 0.17328124999999997 0.057747747747746714
vt 0.17328124999999997 0.2004504504504494
vn 0.5609855267969311 0.7071067811865474 0.4304593345768797
vn -0.5609855267969311 -0.7071067811865474 -0.4304593345768797
usemtl m_23a2f4ff-d777-e630-be8d-41a7f9e108dc
f 38/36/9 33/35/9 34/34/9 37/33/9
f 39/40/10 36/39/10 35/38/10 40/37/10
o cube
v -0.23505351590500134 0.8090258507762269 0.3496584755567257
v 0.023292461931885722 0.8056173585691044 -0.018778409019692077
v -0.23505351590500134 0.8090258507762269 0.3496584755567257
v 0.023292461931885722 0.8056173585691044 -0.018778409019692077
v -0.49191940557901215 0.8331992274689919 -0.38029738789068046
v -0.7502653834158992 0.8366077196761141 -0.011860503314262694
v -0.49191940557901215 0.8331992274689919 -0.38029738789068046
v -0.7502653834158992 0.8366077196761141 -0.011860503314262694
vt 0.11781249999999999 0.95
vt 0.11781249999999999 0.8591891891891892
vt 0.17406249999999998 0.8591891891891892
vt 0.17406249999999998 0.95
vt 0.20164062500000002 0.49045045045045055
vt 0.20164062500000002 0.39963963963963967
vt 0.14539062500000002 0.39963963963963967
vt 0.14539062500000002 0.49045045045045055
vn 0.040191931112798236 0.999012449613869 0.018940279562900904
vn -0.040191931112798236 -0.999012449613869 -0.018940279562900904
usemtl m_23a2f4ff-d777-e630-be8d-41a7f9e108dc
f 46/44/11 41/43/11 42/42/11 45/41/11
f 47/48/12 44/47/12 43/46/12 48/45/12
o cube
v 0.3335296564709145 0.5432182010502076 1.006526856158073
v 0.682653534978845 0.11861972156254008 0.6987466607712665
v 0.3335296564709145 0.5432182010502076 1.006526856158073
v 0.682653534978845 0.11861972156254008 0.6987466607712665
v 0.3782309766807701 0.10842018562497313 0.36750222615248906
v 0.02910709817283985 0.5330186651126405 0.6752824215392956
v 0.3782309766807701 0.10842018562497313 0.36750222615248906
v 0.02910709817283985 0.5330186651126405 0.6752824215392956
vt 0.5285937499999999 0.5441891891891895
vt 0.47234374999999984 0.5441891891891895
vt 0.47234374999999984 0.6350000000000002
vt 0.5285937499999999 0.6350000000000002
vt 0.5561718749999999 0.1754504504504505
vt 0.49992187499999985 0.1754504504504505
vt 0.49992187499999985 0.08463963963963972
vt 0.5561718749999999 0.08463963963963972
vn 0.4850323390270402 0.7384147309397077 -0.46849473340604125
vn -0.4850323390270402 -0.7384147309397077 0.46849473340604125
usemtl m_23a2f4ff-d777-e630-be8d-41a7f9e108dc
f 54/52/13 49/51/13 50/50/13 53/49/13
f 55/56/14 52/55/14 51/54/14 56/53/14
o cube
v -0.1460246645717469 0.6706143118026244 1.4084097217515312
v 0.3241243921786563 0.5336281598268711 1.0120580362453613
v -0.1460246645717469 0.6706143118026244 1.4084097217515312
v 0.3241243921786563 0.5336281598268711 1.0120580362453613
v 0.034813534935765666 0.5378765933395775 0.6674115816080448
v -0.4353355218146375 0.6748627453153309 1.0637632671142145
v 0.034813534935765666 0.5378765933395775 0.6674115816080448
v -0.4353355218146375 0.6748627453153309 1.0637632671142145
vt 0.6692187499999999 0.6122072072072071
vt 0.6129687499999998 0.6122072072072071
vt 0.6129687499999998 0.7030180180180181
vt 0.6692187499999999 0.7030180180180181
vt 0.6964062499999999 0.24346846846846848
vt 0.6401562499999999 0.24346846846846848
vt 0.6401562499999999 0.1526576576576577
vt 0.6964062499999999 0.1526576576576577
vn 0.17247148287962646 0.9760284002241963 -0.1327484446202623
vn -0.17247148287962646 -0.9760284002241963 0.1327484446202623
usemtl m_23a2f4ff-d777-e630-be8d-41a7f9e108dc
f 62/60/15 57/59/15 58/58/15 61/57/15
f 63/64/16 60/63/16 59/62/16 64/61/16
o cube
v 0.4975380256361408 0.6491055632991061 1.2446129250279505
v 0.847396884130674 0.6476695723710351 1.1597794583832555
v 0.4975380256361408 0.6491055632991061 1.2446129250279505
v 0.847396884130674 0.6476695723710351 1.1597794583832555
v 0.6749294292472667 0.11178200453596443 0.4575832666776525
v 0.3250705707527334 0.11321799546403544 0.5424167333223475
v 0.6749294292472667 0.11178200453596443 0.4575832666776525
v 0.3250705707527334 0.11321799546403544 0.5424167333223475
vt 0.6706250000000004 0.7752702702702703
vt 0.6706250000000004 0.905
vt 0.7156250000000004 0.905
vt 0.7156250000000004 0.7752702702702703
vt 0.7428125 0.31527027027027044
vt 0.7428125 0.44500000000000006
vt 0.6978125 0.44500000000000006
vt 0.6978125 0.31527027027027044
vn -0.13720016280934577 0.8033968214520921 -0.5794218347678696
vn 0.13720016280934577 -0.8033968214520921 0.5794218347678696
usemtl m_23a2f4ff-d777-e630-be8d-41a7f9e108dc
f 70/68/17 65/67/17 66/66/17 69/65/17
f 71/72/18 68/71/18 67/70/18 72/69/18
o cube
v 0.6242886391014348 0.6862291218137866 1.766712487842121
v 0.9741474975959683 0.6847931308857154 1.6818790211974268
v 0.6242886391014348 0.6862291218137866 1.766712487842121
v 0.9741474975959683 0.6847931308857154 1.6818790211974268
v 0.8470654512971039 0.6467143271651503 1.1584287769375696
v 0.4972065928025704 0.6481503180932213 1.2432622435822638
v 0.8470654512971039 0.6467143271651503 1.1584287769375696
v 0.4972065928025704 0.6481503180932213 1.2432622435822638
vt 0.6667187499999999 0.8650900900900901
vt 0.6667187499999999 0.9429279279279279
vt 0.71171875 0.9429279279279279
vt 0.71171875 0.8650900900900901
vt 0.73890625 0.40554054054054045
vt 0.73890625 0.48337837837837827
vt 0.69390625 0.48337837837837827
vt 0.69390625 0.40554054054054045
vn -0.012750448164838567 0.9975026516011962 -0.06946859808703808
vn 0.012750448164838567 -0.9975026516011962 0.06946859808703808
usemtl m_23a2f4ff-d777-e630-be8d-41a7f9e108dc
f 78/76/19 73/75/19 74/74/19 77/73/19
f 79/80/20 76/79/20 75/78/20 80/77/20
o cube
v 1.1135855771421155 0.4865163767203775 0.9148788853004426
v 1.236712828739356 0.4865163767203774 0.5765895418175155
v 1.1135855771421155 0.4865163767203775 0.9148788853004426
v 1.236712828739356 0.4865163767203774 0.5765895418175155
v 0.6365802039031463 0.1540573751911528 0.3581591297650897
v 0.5134529523059057 0.15405737519115303 0.6964484732480167
v 0.6365802039031463 0.1540573751911528 0.3581591297650897
v 0.5134529523059057 0.15405737519115303 0.6964484732480167
vt 0.125625 0.7812162162162163
vt 0.125625 0.885
vt 0.17062499999999997 0.885
vt 0.17062499999999997 0.7812162162162163
vt 0.1978125 0.32166666666666677
vt 0.1978125 0.4254504504504505
vt 0.1528125 0.4254504504504505
vt 0.1528125 0.32166666666666677
vn -0.43390176451508783 0.8870108331782218 -0.1579273268790754
vn 0.43390176451508783 -0.8870108331782218 0.1579273268790754
usemtl m_23a2f4ff-d777-e630-be8d-41a7f9e108dc
f 86/84/21 81/83/21 82/82/21 85/81/21
f 87/88/22 84/87/22 83/86/22 88/85/22
o cube
v 1.4877471741462371 0.5447371432118144 1.1475710966449957
v 1.6255132097976697 0.5447371432118144 0.8149744649409325
v 1.4877471741462371 0.5447371432118144 1.1475710966449957
v 1.6255132097976697 0.5447371432118144 0.8149744649409325
v 1.2133241830311299 0.4860003567127913 0.6442401797928654
v 1.0755581473796978 0.4860003567127913 0.9768368114969284
v 1.2133241830311299 0.4860003567127913 0.6442401797928654
v 1.0755581473796978 0.4860003567127913 0.9768368114969284
vt 0.17781249999999998 0.8666216216216216
vt 0.17781249999999998 0.9314864864864865
vt 0.1328125 0.9314864864864865
vt 0.1328125 0.8666216216216216
vt 0.15999999999999998 0.4070720720720721
vt 0.15999999999999998 0.47193693693693695
vt 0.20499999999999996 0.47193693693693695
vt 0.20499999999999996 0.4070720720720721
vn -0.12059047744873978 0.9914448613738105 -0.04995021125231489
vn 0.12059047744873978 -0.9914448613738105 0.04995021125231489
usemtl m_23a2f4ff-d777-e630-be8d-41a7f9e108dc
f 94/92/23 89/91/23 90/90/23 93/89/23
f 95/96/24 92/95/24 91/94/24 96/93/24
o cube
v 0.5398272722695272 0.10621159209867093 0.6754258940682232
v 1.345251110795892 0.6583001499213055 0.5123594516136831
v 0.5398272722695272 0.10621159209867093 0.6754258940682232
v 1.345251110795892 0.6583001499213055 0.5123594516136831
v 1.2456829301220738 0.6740211696746279 0.07379471644312541
v 0.4402590915957091 0.12193261185199344 0.23686115889766535
v 1.2456829301220738 0.6740211696746279 0.07379471644312541
v 0.4402590915957091 0.12193261185199344 0.23686115889766535
vt 0.26984374999999994 0.9
vt 0.32609374999999996 0.9
vt 0.32609374999999996 0.7572972972972973
vt 0.26984374999999994 0.7572972972972973
vt 0.29703125 0.2977477477477478
vt 0.35328125000000005 0.2977477477477478
vt 0.35328125000000005 0.4404504504504506
vt 0.29703125 0.4404504504504506
vn -0.5377396215246849 0.8293304634063294 0.15181265398092406
vn 0.5377396215246849 -0.8293304634063294 -0.15181265398092406
usemtl m_23a2f4ff-d777-e630-be8d-41a7f9e108dc
f 102/100/25 97/99/25 98/98/25 101/97/25
f 103/104/26 100/103/26 99/102/26 104/101/26
o cube
v 1.7313294423077288 0.5729600672324839 -0.06252332373908254
v 1.8359634945133854 0.5638498796322449 0.3750480642662489
v 1.7313294423077288 0.5729600672324839 -0.06252332373908254
v 1.8359634945133854 0.5638498796322449 0.3750480642662489
v 1.3165696834494283 0.6413175588938931 0.5008607333352768
v 1.2119356312437715 0.6504277464941319 0.06328934532994546
v 1.3165696834494283 0.6413175588938931 0.5008607333352768
v 1.2119356312437715 0.6504277464941319 0.06328934532994546
vt 0.3159374999999999 0.3873873873873872
vt 0.3159374999999999 0.465225225225225
vt 0.37218749999999995 0.465225225225225
vt 0.37218749999999995 0.3873873873873872
vt 0.34499999999999986 0.846936936936937
vt 0.34499999999999986 0.9247747747747748
vt 0.28874999999999984 0.9247747747747748
vt 0.28874999999999984 0.846936936936937
vn -0.1442132385093698 -0.9894492189799851 0.013884700160158935
vn 0.1442132385093698 0.9894492189799851 -0.013884700160158935
usemtl m_23a2f4ff-d777-e630-be8d-41a7f9e108dc
f 110/108/27 105/107/27 106/106/27 109/105/27
f 111/112/28 108/111/28 107/110/28 112/109/28
o cube
v 0.28460509493377595 0.9184531550598474 1.191378013389171
v 0.7895343507075854 0.15841417149222936 0.533341395774916
v 0.28460509493377595 0.9184531550598474 1.191378013389171
v 0.7895343507075854 0.15841417149222936 0.533341395774916
v 0.4424422643301702 0.15841417149222936 0.26700827058360066
v -0.06248699144363934 0.9184531550598471 0.9250448881978555
v 0.4424422643301702 0.15841417149222936 0.26700827058360066
v -0.06248699144363934 0.9184531550598471 0.9250448881978555
vt 0.155 0.5228378378378379
vt 0.2096875 0.5228378378378379
vt 0.2096875 0.685
vt 0.155 0.685
vt 0.1821874999999989 0.22545045045044976
vt 0.2368749999999989 0.22545045045044976
vt 0.2368749999999989 0.06328828828828759
vt 0.1821874999999989 0.06328828828828759
vn 0.4112732602124078 0.737277336810124 -0.535981747879933
vn -0.4112732602124078 -0.737277336810124 0.535981747879933
usemtl m_23a2f4ff-d777-e630-be8d-41a7f9e108dc
f 118/116/29 113/115/29 114/114/29 117/113/29
f 119/120/30 116/119/30 115/118/30 120/117/30
o cube
v 0.21111439288206746 0.3250000000000003 0.3652904290701524
v 0.21111439288206746 0.3250000000000003 0.3652904290701524
v 0.21111439288206735 0.07499999999999996 0.3652904290701523
v 0.21111439288206735 0.07499999999999996 0.3652904290701523
v 1.0607779432289273 0.3250000000000002 0.7614950494520567
v 1.0607779432289273 0.3250000000000002 0.7614950494520567
v 1.0607779432289273 0.07499999999999996 0.7614950494520567
v 1.0607779432289273 0.07499999999999996 0.7614950494520567
vt 0.49249999999999994 0.5413513513513514
vt 0.49249999999999994 0.6764864864864866
vt 0.5237499999999999 0.6764864864864866
vt 0.5237499999999999 0.5413513513513514
vt 0.49249999999999994 0.6764864864864866
vt 0.49249999999999994 0.5413513513513514
vt 0.5237499999999999 0.5413513513513514
vt 0.5237499999999999 0.6764864864864866
vn -0.4226182617406981 -7.070886976453887e-17 0.9063077870366505
vn 0.4226182617406981 7.070886976453887e-17 -0.9063077870366505
usemtl m_23a2f4ff-d777-e630-be8d-41a7f9e108dc
f 124/124/31 127/123/31 125/122/31 122/121/31
f 128/128/32 123/127/32 121/126/32 126/125/32
o cube
v 0.7812195792378609 0.30000000000000027 0.1648555561354471
v 0.7812195792378609 0.30000000000000027 0.1648555561354471
v 0.7812195792378609 0.04999999999999993 0.1648555561354471
v 0.7812195792378609 0.04999999999999993 0.1648555561354471
v 0.17860619515673037 0.30000000000000027 0.883022221559489
v 0.17860619515673037 0.30000000000000027 0.883022221559489
v 0.17860619515673037 0.04999999999999993 0.883022221559489
v 0.17860619515673037 0.04999999999999993 0.883022221559489
vt 0.17999999999999994 0.5278378378378379
vt 0.17999999999999994 0.662972972972973
vt 0.14874999999999994 0.662972972972973
vt 0.14874999999999994 0.5278378378378379
vt 0.17999999999999994 0.662972972972973
vt 0.17999999999999994 0.5278378378378379
vt 0.14874999999999994 0.5278378378378379
vt 0.14874999999999994 0.662972972972973
vn -0.766044443118978 8.02586535286163e-19 -0.6427876096865393
vn 0.766044443118978 -8.02586535286163e-19 0.6427876096865393
usemtl m_23a2f4ff-d777-e630-be8d-41a7f9e108dc
f 132/132/33 135/131/33 133/130/33 130/129/33
f 136/136/34 131/135/34 129/134/34 134/133/34