# Made in Blockbench 4.8.1
mtllib fern_2.mtl

o cube
v 0.7812544036005598 0.02348779394333711 0.5211955248702147
v 0.6223640684969598 0.36580858595330357 -0.19551246083130835
v 0.7812544036005598 0.02348779394333711 0.5211955248702147
v 0.6223640684969598 0.36580858595330357 -0.19551246083130835
v 0.09516422465219565 0.36580858595330357 -0.07863506930473285
v 0.2540545597557957 0.02348779394333711 0.6380729163967902
v 0.09516422465219565 0.36580858595330357 -0.07863506930473285
v 0.2540545597557957 0.02348779394333711 0.6380729163967902
vt 0.5240625 0.87
vt 0.5915625 0.87
vt 0.5915625 0.7532432432432432
vt 0.5240625 0.7532432432432432
vt 0.55125 0.2927927927927928
vt 0.61875 0.2927927927927928
vt 0.61875 0.4095495495495495
vt 0.55125 0.4095495495495495
vn 0.09147133341434906 0.9063077870366499 0.41260052147341175
vn -0.09147133341434906 -0.9063077870366499 -0.41260052147341175
usemtl m_23a2f4ff-d777-e630-be8d-41a7f9e108dc
f 6/4/1 1/3/1 2/2/1 5/1/1
f 7/8/2 4/7/2 3/6/2 8/5/2
o cube
v 0.6223446325813522 0.3649182560767641 -0.1956001305811157
v 0.48611745740897505 0.39239847011692575 -0.8100812080610176
v 0.6223446325813522 0.3649182560767641 -0.1956001305811157
v 0.48611745740897505 0.39239847011692575 -0.8100812080610176
v -0.04108238643578899 0.39239847011692575 -0.6932038165344421
v 0.09514478873658805 0.3649182560767641 -0.07872273905454008
v -0.04108238643578899 0.39239847011692575 -0.6932038165344421
v 0.09514478873658805 0.3649182560767641 -0.07872273905454008
vt 0.4649999999999998 0.9314864864864865
vt 0.3974999999999998 0.9314864864864865
vt 0.3974999999999998 0.8406756756756757
vt 0.4649999999999998 0.8406756756756757
vt 0.49218749999999994 0.3811261261261262
vt 0.42468749999999994 0.3811261261261262
vt 0.42468749999999994 0.47193693693693695
vt 0.49218749999999994 0.47193693693693695
vn 0.009440963361569889 0.9990482215818578 0.0425854337177952
vn -0.009440963361569889 -0.9990482215818578 -0.0425854337177952
usemtl m_23a2f4ff-d777-e630-be8d-41a7f9e108dc
f 14/12/3 9/11/3 10/10/3 13/9/3
f 15/16/4 12/15/4 11/14/4 16/13/4
o cube
v 0.4239287128866741 0.0615234375 0.6631354016665969
v 0.6024849284721197 0.06152343749999989 0.2802203616436124
v 0.4239287128866741 0.0615234375 0.6631354016665969
v 0.6024849284721197 0.06152343749999989 0.2802203616436124
v -0.25552290515858656 0.6646422478693093 -0.11987526193536613
v -0.434079120744032 0.6646422478693097 0.26303977808761836
v -0.25552290515858656 0.6646422478693093 -0.11987526193536613
v -0.434079120744032 0.6646422478693097 0.26303977808761836
vt 0.7154687500000007 0.9414864864864866
vt 0.7154687500000007 0.7796846846846848
vt 0.6626562500000006 0.7796846846846848
vt 0.6626562500000006 0.9414864864864866
vt 0.6898437500000001 0.4810360360360364
vt 0.6898437500000001 0.3192342342342347
vt 0.7426562500000001 0.3192342342342347
vt 0.7426562500000001 0.4810360360360364
vn 0.48695881901646854 0.8433914458128859 0.2270726265134929
vn -0.48695881901646854 -0.8433914458128859 -0.2270726265134929
usemtl m_23a2f4ff-d777-e630-be8d-41a7f9e108dc
f 22/20/5 17/19/5 18/18/5 21/17/5
f 23/24/6 20/23/6 19/22/6 24/21/6
o cube
v 0.5 0.0615234375 0.77
v 0.5 0.0615234375 0.32000000000000006
v 0.5 0.0615234375 0.77
v 0.5 0.0615234375 0.32000000000000006
v 0.03970490982828534 0.7188929530419159 0.32000000000000006
v 0.03970490982828534 0.7188929530419159 0.77
v 0.03970490982828534 0.7188929530419159 0.32000000000000006
v 0.03970490982828534 0.7188929530419159 0.77
vt 0.15 0.6554954954954955
vt 0.15 0.5398198198198199
vt 0.20625 0.5398198198198199
vt 0.20625 0.6554954954954955
vt 0.2334375 0.19594594594594494
vt 0.2334375 0.08027027027026923
vt 0.1771875 0.08027027027026923
vt 0.1771875 0.19594594594594494
vn 0.8191520442889917 0.5735764363510463 0
vn -0.8191520442889917 -0.5735764363510463 0
usemtl m_23a2f4ff-d777-e630-be8d-41a7f9e108dc
f 30/28/7 25/27/7 26/26/7 29/25/7
f 31/32/8 28/31/8 27/30/8 32/29/8
o cube
v 0.051605417795159925 0.7207210432139604 0.8995581284021175
v 0.03197669348075882 0.7207210432139604 0.4499864286902814
v 0.051605417795159925 0.7207210432139604 0.8995581284021175
v 0.03197669348075882 0.7207210432139604 0.4499864286902814
v -0.5825043839991431 0.8570779999949651 0.4768152519324924
v -0.562875659684742 0.8570779999949651 0.9263869516443284
v -0.5825043839991431 0.8570779999949651 0.4768152519324924
v -0.562875659684742 0.8570779999949651 0.9263869516443284
vt 0.1740625 0.9380489864864865
vt 0.1740625 0.8472381756756757
vt 0.1178125 0.8472381756756757
vt 0.1178125 0.9380489864864865
vt 0.1450000000000001 0.47849943693693686
vt 0.1450000000000001 0.3876886261261261
vt 0.2012500000000001 0.3876886261261261
vt 0.2012500000000001 0.47849943693693686
vn 0.2162336113847256 0.9762960071199334 -0.009440963361569878
vn -0.2162336113847256 -0.9762960071199334 0.009440963361569878
usemtl m_23a2f4ff-d777-e630-be8d-41a7f9e108dc
f 38/36/9 33/35/9 34/34/9 37/33/9
f 39/40/10 36/39/10 35/38/10 40/37/10
o cube
v 0.6452318427599528 0.4999227453024525 1.4690992715632762
v 0.8427232112901364 -0.001794266873729078 0.4054576735383211
v 0.6452318427599528 0.4999227453024525 1.4690992715632762
v 0.8427232112901364 -0.001794266873729078 0.4054576735383211
v 0.3995597224346428 -0.011993802811295973 0.32798450649265887
v 0.2020683539044592 0.48972320936488556 1.3916261045176141
v 0.3995597224346428 -0.011993802811295973 0.32798450649265887
v 0.2020683539044592 0.48972320936488556 1.3916261045176141
vt 0.6625 0.5281081081081083
vt 0.60625 0.5281081081081083
vt 0.60625 0.7000000000000002
vt 0.6625 0.7000000000000002
vt 0.6896875 0.23954954954954966
vt 0.6334375 0.23954954954954966
vt 0.6334375 0.06765765765765785
vt 0.6896875 0.06765765765765785
vn 0.05221701409779502 0.9069040824724658 -0.4180889482316956
vn -0.05221701409779502 -0.9069040824724658 0.4180889482316956
usemtl m_23a2f4ff-d777-e630-be8d-41a7f9e108dc
f 46/44/11 41/43/11 42/42/11 45/41/11
f 47/48/12 44/47/12 43/46/12 48/45/12
o cube
v 0.8040027091459923 0.7755414437621115 0.9900618732011055
v 1.0354062486331461 0.7755414437621115 0.7142858736782733
v 0.8040027091459923 0.7755414437621115 0.9900618732011055
v 1.0354062486331461 0.7755414437621115 0.7142858736782733
v 0.6157017697435769 0.0615234375 0.3621120002385838
v 0.38429823025642307 0.0615234375 0.6378879997614162
v 0.6157017697435769 0.0615234375 0.3621120002385838
v 0.38429823025642307 0.0615234375 0.6378879997614162
vt 0.6706250000000004 0.7752702702702703
vt 0.6706250000000004 0.905
vt 0.7156250000000004 0.905
vt 0.7156250000000004 0.7752702702702703
vt 0.7428125 0.3149605855855858
vt 0.7428125 0.44469031531531544
vt 0.6978125 0.44469031531531544
vt 0.6978125 0.3149605855855858
vn -0.6077439177599809 0.6087614290087209 -0.5099576972426338
vn 0.6077439177599809 -0.6087614290087209 0.5099576972426338
usemtl m_23a2f4ff-d777-e630-be8d-41a7f9e108dc
f 54/52/13 49/51/13 50/50/13 53/49/13
f 55/56/14 52/55/14 51/54/14 56/53/14
o cube
v 1.1664576593397624 0.9545700970978626 1.334991666018711
v 1.3978611988269165 0.9545700970978626 1.059215666495879
v 1.1664576593397624 0.9545700970978626 1.334991666018711
v 1.3978611988269165 0.9545700970978626 1.059215666495879
v 1.009144191214721 0.7698792197020015 0.7330433687761504
v 0.7777406517275671 0.7698792197020015 1.0088193682989823
v 1.009144191214721 0.7698792197020015 0.7330433687761504
v 0.7777406517275671 0.7698792197020015 1.0088193682989823
vt 0.6706249999999999 0.8651076858108109
vt 0.6706249999999999 0.9429455236486487
vt 0.715625 0.9429455236486487
vt 0.715625 0.8651076858108109
vt 0.7428125 0.40555813626126114
vt 0.7428125 0.48339597409909896
vt 0.6978125 0.48339597409909896
vt 0.6978125 0.40555813626126114
vn -0.262002630229385 0.9396926207859085 -0.2198463103929541
vn 0.262002630229385 -0.9396926207859085 0.2198463103929541
usemtl m_23a2f4ff-d777-e630-be8d-41a7f9e108dc
f 62/60/15 57/59/15 58/58/15 61/57/15
f 63/64/16 60/63/16 59/62/16 64/61/16
o cube
v 1.5921054712174598 0.3503066853369381 0.37226540990929524
v 1.4864174375228814 0.37373715831225307 0.028927307639933675
v 1.5921054712174598 0.3503066853369381 0.37226540990929524
v 1.4864174375228814 0.37373715831225307 0.028927307639933675
v 0.5304820685810541 0.09733209366624429 0.30432531170693644
v 0.6361701022756325 0.0739016206909292 0.647663413976298
v 0.5304820685810541 0.09733209366624429 0.30432531170693644
v 0.6361701022756325 0.0739016206909292 0.647663413976298
vt 0.27734375 0.7826576576576577
vt 0.27734375 0.9314864864864865
vt 0.32234375 0.9314864864864865
vt 0.32234375 0.7826576576576577
vt 0.34953124999999996 0.3231081081081082
vt 0.34953124999999996 0.47193693693693695
vt 0.30453125 0.47193693693693695
vt 0.30453125 0.3231081081081082
vn -0.23795449249785658 0.9613002663381816 0.1388504859128298
vn 0.23795449249785658 -0.9613002663381816 -0.1388504859128298
usemtl m_23a2f4ff-d777-e630-be8d-41a7f9e108dc
f 70/68/17 65/67/17 66/66/17 69/65/17
f 71/72/18 68/71/18 67/70/18 72/69/18
o cube
v 0.6441759957233544 0.07308986920212646 0.6071424281732467
v 1.05209132873812 0.8920258971602208 -0.030175281610243188
v 0.6441759957233544 0.07308986920212646 0.6071424281732467
v 1.05209132873812 0.8920258971602208 -0.030175281610243188
v 0.6916513394297339 0.8631098179049044 -0.29803135204335973
v 0.2837360064149683 0.044173789946810205 0.33928635774013005
v 0.6916513394297339 0.8631098179049044 -0.29803135204335973
v 0.2837360064149683 0.044173789946810205 0.33928635774013005
vt 0.2709375 0.9121171171171174
vt 0.3271875 0.9121171171171174
vt 0.3271875 0.7513963963963967
vt 0.2709375 0.7513963963963967
vt 0.2981250000000001 0.29184684684684614
vt 0.3543750000000001 0.29184684684684614
vt 0.3543750000000001 0.4525675675675669
vt 0.2981250000000001 0.4525675675675669
vn -0.4739127370042374 0.6755902076156601 0.5647872069009547
vn 0.4739127370042374 -0.6755902076156601 -0.5647872069009547
usemtl m_23a2f4ff-d777-e630-be8d-41a7f9e108dc
f 78/76/19 73/75/19 74/74/19 77/73/19
f 79/80/20 76/79/20 75/78/20 80/77/20
o cube
v 0.75 1.0995133537011064 0.9868964063748964
v 0.75 0.07991709328487517 0.5114508619166096
v 0.75 1.0995133537011064 0.9868964063748964
v 0.75 0.07991709328487517 0.5114508619166096
v 0.3125 0.07991709328487517 0.5114508619166096
v 0.3125 1.0995133537011064 0.9868964063748964
v 0.3125 0.07991709328487517 0.5114508619166096
v 0.3125 1.0995133537011064 0.9868964063748964
vt 0.155 0.5228378378378379
vt 0.2096875 0.5228378378378379
vt 0.2096875 0.685
vt 0.155 0.685
vt 0.1821874999999989 0.22454954954954887
vt 0.2368749999999989 0.22454954954954887
vt 0.2368749999999989 0.062387387387386695
vt 0.1821874999999989 0.062387387387386695
vn 0 0.4226182617406993 -0.90630778703665
vn 0 -0.4226182617406993 0.90630778703665
usemtl m_23a2f4ff-d777-e630-be8d-41a7f9e108dc
f 86/84/21 81/83/21 82/82/21 85/81/21
f 87/88/22 84/87/22 83/86/22 88/85/22
o cube
v 1.4060188417871984 0.6175732898086328 -0.19642007443362208
v 1.0708270555141501 0.6622358969587225 -0.4497143063806601
v 1.4060188417871984 0.6175732898086328 -0.19642007443362208
v 1.0708270555141501 0.6622358969587225 -0.4497143063806601
v 0.40868077478684894 0.12251651567175492 0.33135646018419807
v 0.7438725610598971 0.07785390852166518 0.584650692131236
v 0.40868077478684894 0.12251651567175492 0.33135646018419807
v 0.7438725610598971 0.07785390852166518 0.584650692131236
vt 0.115 0.7831531531531531
vt 0.115 0.9500000000000001
vt 0.1678125 0.9500000000000001
vt 0.1678125 0.7831531531531531
vt 0.195 0.32360360360360363
vt 0.195 0.49045045045045055
vt 0.1421875 0.49045045045045055
vt 0.1421875 0.32360360360360363
vn -0.20820867120070002 0.8782983916345797 0.43039642713311355
vn 0.20820867120070002 -0.8782983916345797 -0.43039642713311355
usemtl m_23a2f4ff-d777-e630-be8d-41a7f9e108dc
f 94/92/23 89/91/23 90/90/23 93/89/23
f 95/96/24 92/95/24 91/94/24 96/93/24
o cube
v 0.5052786458384091 0.12547815907863358 0.7007620508575905
v 0.3856900732243187 0.12547815907863358 0.41204969694781335
v 0.5052786458384091 0.12547815907863358 0.7007620508575905
v 0.3856900732243187 0.12547815907863358 0.41204969694781335
v -0.3852895510553729 0.38859573364487265 0.7313999136377745
v -0.2657009784412824 0.38859573364487265 1.0201122675475518
v -0.3852895510553729 0.38859573364487265 0.7313999136377745
v -0.2657009784412824 0.38859573364487265 1.0201122675475518
vt 0.5234375 0.71
vt 0.5234375 0.5838738738738739
vt 0.484375 0.5838738738738739
vt 0.484375 0.71
vt 0.512734375 0.25045045045044945
vt 0.512734375 0.12432432432432328
vt 0.551796875 0.12432432432432328
vt 0.551796875 0.25045045045044945
vn 0.27781593346944067 0.9537169507482269 -0.11507512748638371
vn -0.27781593346944067 -0.9537169507482269 0.11507512748638371
usemtl m_23a2f4ff-d777-e630-be8d-41a7f9e108dc
f 102/100/25 97/99/25 98/98/25 101/97/25
f 103/104/26 100/103/26 99/102/26 104/101/26
o cube
v 0.7095234968992234 0.13469252438206758 0.4337880233338931
v 0.4844472636736201 0.12787050774526387 0.6504684315991098
v 0.7095234968992234 0.13469252438206758 0.4337880233338931
v 0.4844472636736201 0.12787050774526387 0.6504684315991098
v 1.0464980920857296 0.43980578481111565 1.2441183698650138
v 1.271574325311333 0.44662780144791936 1.027437961599797
v 1.0464980920857296 0.43980578481111565 1.2441183698650138
v 1.271574325311333 0.44662780144791936 1.027437961599797
vt 0.625 0.71
vt 0.625 0.5838738738738739
vt 0.6640625 0.5838738738738739
vt 0.6640625 0.71
vt 0.69125 0.25045045045044945
vt 0.69125 0.12432432432432328
vt 0.6521875 0.12432432432432328
vt 0.6521875 0.25045045045044945
vn -0.26199827361733374 0.9340412157280578 -0.24274248071318008
vn 0.26199827361733374 -0.9340412157280578 0.24274248071318008
usemtl m_23a2f4ff-d777-e630-be8d-41a7f9e108dc
f 110/108/27 105/107/27 106/106/27 109/105/27
f 111/112/28 108/111/28 107/110/28 112/109/28
o cube
v 0.9225925490014673 0.3115234375 0.6132333322323529
v 0.9225925490014673 0.3115234375 0.6132333322323529
v 0.9225925490014673 0.0615234375 0.6132333322323529
v 0.9225925490014673 0.0615234375 0.6132333322323529
v 0.0170370868554659 0.3115234375 0.37059047744873963
v 0.0170370868554659 0.3115234375 0.37059047744873963
v 0.0170370868554659 0.0615234375 0.37059047744873963
v 0.0170370868554659 0.0615234375 0.37059047744873963
vt 0.21125 0.5503603603603604
vt 0.21125 0.6854954954954955
vt 0.18 0.6854954954954955
vt 0.18 0.5503603603603604
vt 0.21125 0.6854954954954955
vt 0.21125 0.5503603603603604
vt 0.18 0.5503603603603604
vt 0.18 0.6854954954954955
vn 0.25881904510252074 0 -0.9659258262890683
vn -0.25881904510252074 0 0.9659258262890683
usemtl m_23a2f4ff-d777-e630-be8d-41a7f9e108dc
f 116/116/29 119/115/29 117/114/29 114/113/29
f 120/120/30 115/119/30 113/118/30 118/117/30
o cube
v 0.1409835976316436 0.5002152190051954 0.967879284832611
v 0.1409835976316436 0.5002152190051954 0.967879284832611
v 0.09980856992068876 0.1951227167802162 1.021539625672967
v 0.09980856992068876 0.1951227167802162 1.021539625672967
v 0.8467520786420755 0.24319317745369817 0.048103893028216604
v 0.8467520786420755 0.24319317745369817 0.048103893028216604
v 0.8055770509311209 -0.06189932477128102 0.1017642338685727
v 0.8055770509311209 -0.06189932477128102 0.1017642338685727
vt 0.159375 0.6855855855855852
vt 0.159375 0.514414414414414
vt 0.1984375 0.514414414414414
vt 0.1984375 0.6855855855855852
vt 0.159375 0.5144144144144136
vt 0.159375 0.6855855855855848
vt 0.1984375 0.6855855855855848
vt 0.1984375 0.5144144144144136
vn 0.793353340291236 -1.2490009027033016e-16 0.6087614290087197
vn -0.793353340291236 1.2490009027033016e-16 -0.6087614290087197
usemtl m_23a2f4ff-d777-e630-be8d-41a7f9e108dc
f 124/124/31 127/123/31 125/122/31 122/121/31
f 128/128/32 123/127/32 121/126/32 126/125/32