# Made in Blockbench 4.8.3
mtllib forestfloor_2.mtl

o plane
v 1.586054482567927 0.15812612002321078 -0.015216295673662006
v 1.0498392739592557 0.15459165939371722 -0.6617924765253987
v 1.0034981407983494 -0.022369913347056736 0.4688929798020782
v 0.4672829321896781 -0.025904373976550266 -0.17768320104965846
v 1.3067101873353781 0.15585825611729895 0.21646046516853978
v 0.7704949787267068 0.1523237954878054 -0.43011571568319695
vt 0.046875 0.6979166666666667
vt 0.046875 0.5579166666666666
vt 0.32687499999999997 0.5579166666666666
vt 0.32687499999999997 0.6979166666666667
vt 0.32687499999999997 0.41819166666666663
vt 0.32687499999999997 0.5625
vt 0.046875 0.5625
vt 0.046875 0.41819166666666663
vn -0.007496029303311115 0.999971622896435 0.0007502976435574823
vn -0.3193394031871458 0.9113175481334066 0.2598512498261149
usemtl m_e8eb842a-1cc7-c172-efde-0410c2c6a42d
f 2/1/1 6/2/1 5/3/1 1/4/1
f 3/5/2 5/6/2 6/7/2 4/8/2
o plane
v 0.28601416545578595 0.19901961339552754 -0.4498413091032394
v 0.29148552453257925 0.23060837493943948 0.38954669079548065
v 0.9184787139108821 -0.1338819968477297 -0.3163446318227215
v 1.0060471252783236 -0.07641020608273766 0.39644304104827205
v 0.6372781810312467 0.1085773539782377 -0.38618175307825076
v 0.6680784403273748 0.19218820226081296 0.32599225661092524
vt 0.33499999999999996 0.9695312500000001
vt 0.33499999999999996 0.82953125
vt 0.055000000000000014 0.82953125
vt 0.055000000000000014 0.9695312500000001
vt 0.026041666666666668 0.7262645833333334
vt 0.026041666666666668 0.8236979166666667
vt 0.3529166666666666 0.8236979166666667
vt 0.3529166666666666 0.7262645833333334
vn 0.08075685065800951 0.9895244395875832 -0.11966500963389257
vn 0.6649300229921623 0.7379380740268388 -0.11539264892185513
usemtl m_e8eb842a-1cc7-c172-efde-0410c2c6a42d
f 8/9/3 12/10/3 11/11/3 7/12/3
f 9/13/4 11/14/4 12/15/4 10/16/4
o plane
v 0.03830316712869175 0.08504185756875127 0.196233216623591
v -0.275613225485388 -0.018881580302163553 1.2098283860621857
v 1.0141670109748766 0.1007771993595441 0.6388161549441688
v 0.6649564704028796 -0.00855769653376029 1.5715562735696165
v 0.5438821630307427 0.09561525747534247 0.4579522111904534
v 0.185787359795547 0.048145141743082764 1.390429932108392
v 0.8440038720204774 0.015177361332369577 1.1053174131106474
v 0.36483476141314486 0.07188019960921262 0.9241910716494226
v -0.09656582386779022 0.004853477563966299 0.7435895256032163
vt 0.42836169557704346 0.01562734648210473
vt 0.42836169557704346 0.1835908110630302
vt 0.2604166666666667 0.18100551720595304
vt 0.2629630603332756 0.015625
vt 0.03125 0.1875
vt 0.19791666666666666 0.1875
vt 0.19791666666666666 0.009500000000000064
vt 0.03125 0.024131249999999937
vt 0.020833333333333332 0.375
vt 0.1875 0.375
vt 0.1875 0.19700000000000006
vt 0.020833333333333332 0.19700000000000006
vt 0.25976770833333324 0.3847677083333334
vt 0.25976770833333324 0.21810104166666677
vt 0.4277322916666666 0.21810104166666677
vt 0.4277322916666666 0.3847677083333334
vn -0.18082374208907614 0.978540182696281 0.0988022527356168
vn 0.08590814601410779 0.9927951757927961 0.08353160701776195
vn 0.0859081460141078 0.9927951757927962 0.08353160701776197
vn -0.14214820261117972 0.9898364825767149 -0.0041983633201485735
usemtl m_e8eb842a-1cc7-c172-efde-0410c2c6a42d
f 13/17/5 21/18/5 20/19/5 17/20/5
f 17/21/6 20/22/6 19/23/6 15/24/6
f 16/25/7 19/26/7 20/27/7 18/28/7
f 18/29/8 20/30/8 21/31/8 14/32/8
o plane
v 0.47243875464892515 0.14218752064407733 0.8228419463731593
v 0.9234043171582472 -0.006213715335918718 -0.06610807167637095
v -0.4235818542171391 0.06018654229583402 0.3604958017802427
v 0.018901640404838133 -0.007579205826087204 -0.535009172045709
v 0.020861367744689024 0.05271011957808479 0.5911165521341661
v 0.49610607765668957 0.03835686268972753 -0.28883251296485885
v -0.19147449123024124 0.07601447496216755 -0.08295346649410038
v 0.25093039789089866 0.040836959734777856 0.14735167132123156
v 0.6979215359035863 0.0679869026540793 0.37836693734839394
vt 0.4622124565741365 0.061221592434346106
vt 0.2942490146554244 0.061221592434346106
vt 0.2916666666666667 0.22916666666666663
vt 0.4622144957083438 0.22661876591636776
vt 0.06770833333333341 0.20186888853748286
vt 0.23942712847993572 0.20703695817192724
vt 0.23942712847993564 0.3749999999999999
vt 0.06770833333333333 0.3698319303655556
vt 0.42971304215808104 0.40364583333333337
vt 0.2630208333333333 0.39785184064019985
vt 0.2630208333333333 0.22988871130271615
vt 0.4296164215088872 0.22409487998449162
vt 0.2142542567833572 0.031224467493106367
vt 0.220048527132897 0.19791666666666652
vt 0.052083333333333336 0.19791666666666663
vt 0.052084899645564654 0.031274080171402985
vn 0.01998613646086325 0.9877505439862836 -0.15475599246610458
vn 0.07337998226477613 0.9972393303470579 0.011362051389293176
vn 0.13913938933147177 0.9833268348998957 -0.11708358596412415
vn -0.04472322751905183 0.9985240119772467 -0.030816074135792237
usemtl m_e8eb842a-1cc7-c172-efde-0410c2c6a42d
f 22/33/9 30/34/9 29/35/9 26/36/9
f 26/37/10 29/38/10 28/39/10 24/40/10
f 25/41/11 28/42/11 29/43/11 27/44/11
f 27/45/12 29/46/12 30/47/12 23/48/12
o plane
v 1.5393226517406753 0.01981800722998006 0.24644583005191156
v 0.6201304208870597 0.06503481254646687 -0.149719960060416
v 1.1400530824419686 0.03928320954629477 1.1652010569381646
v 0.20498133172326333 0.01342110029411274 0.7862402051816084
v 1.3437703007655073 0.06051640638881882 0.7048156789010616
v 0.4241278550802399 0.052948934271248665 0.29547600880886893
v 0.6682096659926046 -0.031005781797506043 0.9701414556639305
v 0.8800917516645141 0.05215901104638082 0.5077405484388744
v 1.0756441026396821 0.011460611887542077 0.04937069958972429
vt 0.1875 0.39583333333333337
vt 0.1875 0.22786840699442557
vt 0.35544356732555676 0.23045367835231767
vt 0.35290011968460266 0.3958327562917737
vt 0.4817708333333333 0.23177083333333337
vt 0.2916666666666667 0.22395833333333337
vt 0.2916666666666667 0.045958333333333434
vt 0.4583333333333333 0.06058958333333331
vt 0.04197298840698268 0.390625
vt 0.2086453691237923 0.38433218745728037
vt 0.2086453691237923 0.2063333515333401
vt 0.041666666666666664 0.21467189862351022
vt 0.19892165705604978 0.0012297472999273085
vt 0.19892165705604978 0.17229007536483432
vt 0.03125 0.16238382365915738
vt 0.04084358050583855 0
vn 0.016630038541563225 0.9965437648266527 -0.08138775462701525
vn -0.07802613402393353 0.9868252639584446 0.14173150963221076
vn 0.020367180153371318 0.9823367022386699 0.18601016479605453
vn 0.035810928669945265 0.9966729506883812 -0.07321616456706807
usemtl m_e8eb842a-1cc7-c172-efde-0410c2c6a42d
f 31/49/13 39/50/13 38/51/13 35/52/13
f 35/53/14 38/54/14 37/55/14 33/56/14
f 34/57/15 37/58/15 38/59/15 36/60/15
f 36/61/16 38/62/16 39/63/16 32/64/16
o cube
v 1.0963616474350493 0.43464468192071415 0.6039096514241904
v 0.41950408842012044 0.4949443505932887 0.4995830260482611
v 1.0541650375549556 -0.06337251642800201 0.589827170693773
v 0.3773074785400268 -0.0030728477554274325 0.4855005453178437
v 0.41950408842012044 0.4949443505932887 0.4995830260482611
v 1.0963616474350493 0.43464468192071415 0.6039096514241904
v 0.3773074785400268 -0.0030728477554274325 0.4855005453178437
v 1.0541650375549556 -0.06337251642800201 0.589827170693773
vt 0.7083333333333334 0.5833333333333333
vt 1 0.5833333333333333
vt 1 0.35416666666666663
vt 0.7083333333333334 0.35416666666666663
vt 1 0.5833333333333333
vt 0.7083333333333334 0.5833333333333333
vt 0.7083333333333334 0.35416666666666663
vt 1 0.35416666666666663
vn 0.15361635666917386 0.014922483261004569 -0.9880178816484113
vn -0.15361635666917386 -0.014922483261004569 0.9880178816484113
usemtl m_e8eb842a-1cc7-c172-efde-0410c2c6a42d
f 42/68/17 43/67/17 41/66/17 40/65/17
f 46/72/18 47/71/18 45/70/18 44/69/18
o cube
v 0.7880449881576874 0.4507710746463027 0.9574479918415786
v 0.6265948821042051 0.48332503041502217 0.28996739046118836
v 0.7458483782775942 -0.04724612370241338 0.9433655111111605
v 0.5843982722241121 -0.01469216793369399 0.2758849097307703
v 0.6265948821042051 0.48332503041502217 0.28996739046118836
v 0.7880449881576874 0.4507710746463027 0.9574479918415786
v 0.5843982722241121 -0.01469216793369399 0.2758849097307703
v 0.7458483782775942 -0.04724612370241338 0.9433655111111605
vt 0.7734375 0.28125
vt 0.4817708333333333 0.28125
vt 0.4817708333333333 0.05208333333333337
vt 0.7734375 0.05208333333333337
vt 0.4817708333333333 0.28125
vt 0.7734375 0.28125
vt 0.7734375 0.05208333333333337
vt 0.4817708333333333 0.05208333333333337
vn 0.9683643912913168 -0.07532160154634529 -0.23790137036068318
vn -0.9683643912913168 0.07532160154634529 0.23790137036068318
usemtl m_e8eb842a-1cc7-c172-efde-0410c2c6a42d
f 50/76/19 51/75/19 49/74/19 48/73/19
f 54/80/20 55/79/20 53/78/20 52/77/20
o cube
v -0.30703722359605035 0.5704048287289145 -0.05618962119593701
v 0.45703191177173175 0.7237300163760316 0.34169823135966304
v -0.19453456768389105 -0.10635009382355859 -0.011443926277800054
v 0.569534567683891 0.04697509382355847 0.3864439262778001
v 0.45703191177173175 0.7237300163760316 0.34169823135966304
v -0.30703722359605035 0.5704048287289145 -0.05618962119593701
v 0.569534567683891 0.04697509382355847 0.3864439262778001
v -0.19453456768389105 -0.10635009382355859 -0.011443926277800054
vt 1 0.5833333333333333
vt 0.7083333333333334 0.5833333333333333
vt 0.7083333333333334 0.35416666666666663
vt 1 0.35416666666666663
vt 0.7083333333333334 0.5833333333333333
vt 1 0.5833333333333333
vt 1 0.35416666666666663
vt 0.7083333333333334 0.35416666666666663
vn -0.45902662634482494 -0.01757861525636849 0.8882485849086151
vn 0.45902662634482494 0.01757861525636849 -0.8882485849086151
usemtl m_e8eb842a-1cc7-c172-efde-0410c2c6a42d
f 58/84/21 59/83/21 57/82/21 56/81/21
f 62/88/22 63/87/22 61/86/22 60/85/22
o cube
v 0.09438108714274351 0.6214101071699867 -0.29403491219438177
v 0.01570304459153027 0.6658746587572124 0.5762855283747548
v 0.20688374305490143 -0.05534481538248681 -0.24928921727624537
v 0.12820570050368818 -0.01088026379526108 0.6210312232928912
v 0.01570304459153027 0.6658746587572124 0.5762855283747548
v 0.09438108714274351 0.6214101071699867 -0.29403491219438177
v 0.12820570050368818 -0.01088026379526108 0.6210312232928912
v 0.20688374305490143 -0.05534481538248681 -0.24928921727624537
vt 0.7864583333333334 0.27604166666666663
vt 0.4947916666666667 0.27604166666666663
vt 0.4947916666666667 0.046875
vt 0.7864583333333334 0.046875
vt 0.4947916666666667 0.27604166666666663
vt 0.7864583333333334 0.27604166666666663
vt 0.7864583333333334 0.046875
vt 0.4947916666666667 0.046875
vn -0.9824136970193357 -0.16861733360610073 -0.08019677497487043
vn 0.9824136970193357 0.16861733360610073 0.08019677497487043
usemtl m_e8eb842a-1cc7-c172-efde-0410c2c6a42d
f 66/92/23 67/91/23 65/90/23 64/89/23
f 70/96/24 71/95/24 69/94/24 68/93/24
o plane
v 0.13494125705599083 0.15625463332385914 0.3072676100397065
v -0.3233499065748794 0.1837508732935993 0.6778255220121664
v 0.44268200325535434 -0.19877056261932818 0.7142126995470754
v -0.015609160375515824 -0.17127432264958806 1.0847706115195355
v 0.3233402039351112 0.08573601002139912 0.5455045137150589
v -0.13495095969575896 0.11323224999113922 0.9160624256875189
vt 0.32718749999999996 0.9609375
vt 0.32718749999999996 0.8209375
vt 0.047187500000000014 0.8209375
vt 0.047187500000000014 0.9609375
vt 0.049479166666666664 0.6629833333333333
vt 0.049479166666666664 0.8072916666666666
vt 0.3294791666666666 0.8072916666666666
vt 0.3294791666666666 0.6629833333333333
vn 0.17765123274454447 0.9729744932766476 0.14751499902516566
vn 0.5305204074465717 0.5858331368875781 0.612656211106346
usemtl m_e8eb842a-1cc7-c172-efde-0410c2c6a42d
f 73/97/25 77/98/25 76/99/25 72/100/25
f 74/101/26 76/102/26 77/103/26 75/104/26
o plane
v 0.18896651976013806 0.09979958195848716 1.5519704956611087
v 0.6231797698461812 0.06951062068105737 0.9847258991470039
v -0.3188731304735163 -0.05324684682983412 1.1714025907010335
v 0.1153401196125268 -0.08353580810726391 0.6041579941869287
v -0.08623492829221341 0.13408665114155768 1.3394790314167202
v 0.3479783217938297 0.10379768986412789 0.7722344349026155
vt 0.3558333333333333 0.9609375
vt 0.3558333333333333 0.8209375
vt 0.07583333333333335 0.8209375
vt 0.07583333333333335 0.9609375
vt 0.07291666666666667 0.6887125000000001
vt 0.07291666666666667 0.8330208333333333
vt 0.3529166666666666 0.8330208333333333
vt 0.3529166666666666 0.6887125000000001
vn 0.10362230736938285 0.9942707938928194 0.026229865176698446
vn -0.4128633271454112 0.8363271456021311 -0.3606948552827071
usemtl m_e8eb842a-1cc7-c172-efde-0410c2c6a42d
f 79/105/27 83/106/27 82/107/27 78/108/27
f 80/109/28 82/110/28 83/111/28 81/112/28
o plane
v 0.8888516704917775 0.36359583162520637 0.8877642805081478
v 0.44525488238695715 0.33870902185331153 0.16400497225542177
v 0.2664563756074808 0.07764687417547775 1.264818375618256
v -0.11729201918454246 -0.05639389011638679 0.5297195774947672
v 0.5141273296225853 0.27936581402707755 1.09874288723302
v 0.14731127798910326 0.22867940379848634 0.3396056321320987
vt 0.046875 0.6979166666666667
vt 0.046875 0.5579166666666666
vt 0.32687499999999997 0.5579166666666666
vt 0.32687499999999997 0.6979166666666667
vt 0.32687499999999997 0.41819166666666663
vt 0.32687499999999997 0.5625
vt 0.046875 0.5625
vt 0.046875 0.41819166666666663
vn -0.30206986979098993 0.9497048250305185 0.08255022155153036
vn -0.5330724432217213 0.8214205793761926 0.20273628697128845
usemtl m_e8eb842a-1cc7-c172-efde-0410c2c6a42d
f 85/113/29 89/114/29 88/115/29 84/116/29
f 86/117/30 88/118/30 89/119/30 87/120/30
o plane
v 0.462401621928838 0.11871732958169837 0.6168215668476968
v 1.0464505459979532 0.10934687061247603 0.5337610540126912
v 0.38015914742368184 -0.05232004725783497 0.05782032256364261
v 0.964208071492797 -0.06169050622705732 -0.02524019027136304
v 0.42105926481459366 0.14969450505171839 0.322623653679008
v 1.0051081888837088 0.14032404608249605 0.23956314084400235
vt 0.6475 0.62578125
vt 0.6475 0.48578125000000005
vt 0.3675 0.48578125000000005
vt 0.3675 0.62578125
vt 0.3697916666666667 0.3278270833333333
vt 0.3697916666666667 0.4721354166666667
vt 0.6497916666666667 0.4721354166666667
vt 0.6497916666666667 0.3278270833333333
vn 0.030242715885022024 0.9944810851254648 0.10046267696799493
vn -0.07221883461174843 0.7983274467056231 -0.597877686290266
usemtl m_e8eb842a-1cc7-c172-efde-0410c2c6a42d
f 91/121/31 95/122/31 94/123/31 90/124/31
f 92/125/32 94/126/32 95/127/32 93/128/32
o plane
v -0.5856790557502487 0.18175762702486364 0.5469037317413498
v -0.3686908233370452 0.11034192084493287 1.3031136258217009
v 0.043628068608523224 -0.040818112830645806 0.2459239429530219
v 0.2555323171988755 -0.26307806370088677 1.027778855112891
v -0.22860465174253944 0.2562907246665823 0.4041664298246138
v -0.01670040315218721 0.03403077379634134 1.1860213419844832
vt 0.6475 0.625
vt 0.6475 0.485
vt 0.3675 0.485
vt 0.3675 0.625
vt 0.3697916666666667 0.32704583333333337
vt 0.3697916666666667 0.47135416666666663
vt 0.6497916666666667 0.47135416666666663
vt 0.6497916666666667 0.32704583333333337
vn 0.2693548256828727 0.943074130882899 0.1950875740297522
vn 0.7354905791985471 0.6775013934004922 -0.006743133587373107
usemtl m_e8eb842a-1cc7-c172-efde-0410c2c6a42d
f 97/129/33 101/130/33 100/131/33 96/132/33
f 98/133/34 100/134/34 101/135/34 99/136/34