# Made in Blockbench 4.8.3
mtllib hangingbush.mtl

o cube
v 1.0529759663686513 -1.0785722627693421 0.7439593223134819
v -0.06673777138355286 -0.9919400931881204 0.6779213583636543
v -0.03921416135374989 -0.5175726662846917 0.833542678188245
v 1.0804995763984544 -0.6042048358659136 0.8995806421380727
v 1.0529759663686513 -1.0785722627693421 0.7439593223134819
v 1.0804995763984544 -0.6042048358659136 0.8995806421380727
v -0.06673777138355286 -0.9919400931881204 0.6779213583636543
v -0.03921416135374989 -0.5175726662846917 0.833542678188245
vt 0.3515625 0.484375
vt 0.4921875 0.484375
vt 0.4921875 0.546875
vt 0.3515625 0.546875
vt 0 0.9375
vt 0 0.9375
vt 0 1
vt 0 1
vt 0.4921875 0.9375
vt 0.6328125 0.9375
vt 0.6328125 1
vt 0.4921875 1
vt 0 0.9375
vt 0 0.9375
vt 0 1
vt 0 1
vt 0.140625 1
vt 0 1
vt 0 1
vt 0.140625 1
vt 0.140625 1
vt 0 1
vt 0 1
vt 0.140625 1
vn 0.07965879396678864 0.30654884716054476 -0.9485158305733741
vn 0 0 0
vn -0.07965879396678864 -0.30654884716054476 0.9485158305733741
vn 0 0 0
vn 0 0 0
vn 0 0 0
usemtl m_2e902d77-07b4-69d2-841b-79c73e52ba86
f 1/1/1 2/2/1 3/3/1 4/4/1
f 5/5/2 1/6/2 4/7/2 6/8/2
f 7/9/3 5/10/3 6/11/3 8/12/3
f 2/13/4 7/14/4 8/15/4 3/16/4
f 8/17/5 6/18/5 4/19/5 3/20/5
f 2/21/6 1/22/6 5/23/6 7/24/6
o cube
v 0.7372005737642098 -1.1875 0.5385200658823475
v 0.7372005737642098 -1.1875 0.5385200658823475
v 0.7372005737642098 1.1875 0.5385200658823475
v 0.7372005737642098 1.1875 0.5385200658823475
v 0.8530824276133944 -1.1875 1.0612293294599875
v 0.8530824276133944 1.1875 1.0612293294599875
v 0.8530824276133944 -1.1875 1.0612293294599875
v 0.8530824276133944 1.1875 1.0612293294599875
vt 0 0.703125
vt 0 0.703125
vt 0 1
vt 0 1
vt 0 0.421875
vt 0.06640625 0.421875
vt 0.06640625 0.71875
vt 0 0.71875
vt 0 0.703125
vt 0 0.703125
vt 0 1
vt 0 1
vt 0.28125 0.703125
vt 0.34765625 0.703125
vt 0.34765625 1
vt 0.28125 1
vt 0 1
vt 0 1
vt 0 0.93359375
vt 0 0.93359375
vt 0 0.93359375
vt 0 0.93359375
vt 0 1
vt 0 1
vn 0 0 0
vn 0.9762960071199334 0 -0.21643961393810313
vn 0 0 0
vn -0.9762960071199334 0 0.21643961393810313
vn 0 0 0
vn 0 0 0
usemtl m_2e902d77-07b4-69d2-841b-79c73e52ba86
f 9/25/7 10/26/7 11/27/7 12/28/7
f 13/29/8 9/30/8 12/31/8 14/32/8
f 15/33/9 13/34/9 14/35/9 16/36/9
f 10/37/10 15/38/10 16/39/10 11/40/10
f 16/41/11 14/42/11 12/43/11 11/44/11
f 10/45/12 9/46/12 13/47/12 15/48/12
o cube
v 0.32651785905949626 -1.1916826064767196 0.4556457371933605
v 0.32651785905949626 -1.1916826064767196 0.4556457371933605
v 0.4205426677833116 1.1806390305798944 0.517890300791127
v 0.4205426677833116 1.1806390305798944 0.517890300791127
v 0.16567309096586608 -1.1987052407135885 0.9662661651696451
v 0.2596978996896814 1.1736163963430255 1.0285107287674116
v 0.16567309096586608 -1.1987052407135885 0.9662661651696451
v 0.2596978996896814 1.1736163963430255 1.0285107287674116
vt 0 0.703125
vt 0 0.703125
vt 0 1
vt 0 1
vt 0.0703125 0.421875
vt 0.13671875 0.421875
vt 0.13671875 0.71875
vt 0.0703125 0.71875
vt 0 0.703125
vt 0 0.703125
vt 0 1
vt 0 1
vt 0.140625 0.421875
vt 0.20703125 0.421875
vt 0.20703125 0.71875
vt 0.140625 0.71875
vt 0 1
vt 0 1
vt 0 0.93359375
vt 0 0.93359375
vt 0 0.93359375
vt 0 0.93359375
vt 0 1
vt 0 1
vn 0 0 0
vn 0.9529851768849825 -0.04563054333003659 0.29956152315159607
vn 0 0 0
vn -0.9529851768849825 0.04563054333003655 -0.29956152315159607
vn 0 0 0
vn 0 0 0
usemtl m_2e902d77-07b4-69d2-841b-79c73e52ba86
f 17/49/13 18/50/13 19/51/13 20/52/13
f 21/53/14 17/54/14 20/55/14 22/56/14
f 23/57/15 21/58/15 22/59/15 24/60/15
f 18/61/16 23/62/16 24/63/16 19/64/16
f 24/65/17 22/66/17 20/67/17 19/68/17
f 18/69/18 17/70/18 21/71/18 23/72/18
o cube
v 1.0625 -0.875 0.991455078125
v -0.0625 -0.875 0.991455078125
v -0.0625 1.375 0.991455078125
v 1.0625 1.375 0.991455078125
v 1.0625 -0.875 0.991455078125
v 1.0625 1.375 0.991455078125
v -0.0625 -0.875 0.991455078125
v -0.0625 1.375 0.991455078125
vt 0 0.71875
vt 0.140625 0.71875
vt 0.140625 1
vt 0 1
vt 0 0.71875
vt 0 0.71875
vt 0 1
vt 0 1
vt 0.140625 0.71875
vt 0.28125 0.71875
vt 0.28125 1
vt 0.140625 1
vt 0 0.71875
vt 0 0.71875
vt 0 1
vt 0 1
vt 0.140625 1
vt 0 1
vt 0 1
vt 0.140625 1
vt 0.140625 1
vt 0 1
vt 0 1
vt 0.140625 1
vn 0 0 -1
vn 0 0 0
vn 0 0 1
vn 0 0 0
vn 0 0 0
vn 0 0 0
usemtl m_2e902d77-07b4-69d2-841b-79c73e52ba86
f 25/73/19 26/74/19 27/75/19 28/76/19
f 29/77/20 25/78/20 28/79/20 30/80/20
f 31/81/21 29/82/21 30/83/21 32/84/21
f 26/85/22 31/86/22 32/87/22 27/88/22
f 32/89/23 30/90/23 28/91/23 27/92/23
f 26/93/24 25/94/24 29/95/24 31/96/24
o cube
v 1.0910386313598321 1.1232994201763353 1.0830923787251188
v 0.004372076784630585 1.414470845916671 1.0830923787251188
v -0.09103863135983226 1.05839323553541 0.7452972749172883
v 0.9956279232153693 0.7672218097950744 0.7452972749172883
v 1.0910386313598321 1.1232994201763353 1.0830923787251188
v 0.9956279232153693 0.7672218097950744 0.7452972749172883
v 0.004372076784630585 1.414470845916671 1.0830923787251188
v -0.09103863135983226 1.05839323553541 0.7452972749172883
vt 0.34765625 0.857421875
vt 0.48828125 0.857421875
vt 0.48828125 0.919921875
vt 0.34765625 0.919921875
vt 0 0.9375
vt 0 0.9375
vt 0 1
vt 0 1
vt 0.3515625 0.794921875
vt 0.4921875 0.794921875
vt 0.4921875 0.857421875
vt 0.3515625 0.857421875
vt 0 0.9375
vt 0 0.9375
vt 0 1
vt 0 1
vt 0.140625 1
vt 0 1
vt 0 1
vt 0.140625 1
vt 0.140625 1
vt 0 1
vt 0 1
vt 0.140625 1
vn -0.17485561241569927 -0.6525700295239606 0.7372773368101234
vn 0 0 0
vn 0.17485561241569933 0.6525700295239608 -0.7372773368101231
vn 0 0 0
vn 0 0 0
vn 0 0 0
usemtl m_2e902d77-07b4-69d2-841b-79c73e52ba86
f 33/97/25 34/98/25 35/99/25 36/100/25
f 37/101/26 33/102/26 36/103/26 38/104/26
f 39/105/27 37/106/27 38/107/27 40/108/27
f 34/109/28 39/110/28 40/111/28 35/112/28
f 40/113/29 36/114/29 38/115/29 35/116/29
f 34/117/30 33/118/30 37/119/30 39/120/30
o cube
v 1.0547558467578542 0.27312642537372733 0.5978932103298252
v -0.042448175984310055 0.07292494732935006 0.7451606563837962
v -0.05475584675785394 0.4111230571205242 1.113223911509606
v 1.0424481759843103 0.6113245351649015 0.9659564654556352
v 1.0547558467578542 0.27312642537372733 0.5978932103298252
v 1.0424481759843103 0.6113245351649015 0.9659564654556352
v -0.042448175984310055 0.07292494732935006 0.7451606563837962
v -0.05475584675785394 0.4111230571205242 1.113223911509606
vt 0.3515625 0.609375
vt 0.4921875 0.609375
vt 0.4921875 0.671875
vt 0.3515625 0.671875
vt 0 0.9375
vt 0 0.9375
vt 0 1
vt 0 1
vt 0.2109375 0.5625
vt 0.3515625 0.5625
vt 0.3515625 0.625
vt 0.2109375 0.625
vt 0 0.9375
vt 0 0.9375
vt 0 1
vt 0 1
vt 0.140625 1
vt 0 1
vt 0 1
vt 0.140625 1
vt 0.140625 1
vt 0 1
vt 0 1
vt 0.140625 1
vn -0.2195420081408685 0.7147163820549709 -0.6640646052032345
vn 0 0 0
vn 0.21954200814086855 -0.714716382054971 0.6640646052032345
vn 0 0 0
vn 0 0 0
vn 0 0 0
usemtl m_2e902d77-07b4-69d2-841b-79c73e52ba86
f 41/121/31 42/122/31 43/123/31 44/124/31
f 45/125/32 41/126/32 44/127/32 46/128/32
f 47/129/33 45/130/33 46/131/33 48/132/33
f 42/133/34 47/134/34 48/135/34 43/136/34
f 48/137/35 46/138/35 44/139/35 43/140/35
f 42/141/36 41/142/36 45/143/36 47/144/36
o cube
v 1.0619646246397951 0.5162291896260993 0.7047507760001772
v -0.06196462463979502 0.5493816244630916 0.6685712420314227
v -0.06196462463979502 0.9180202928681522 1.006366345839254
v 1.0619646246397951 0.8848678580311602 1.0425458798080087
v 1.0619646246397951 0.5162291896260993 0.7047507760001772
v 1.0619646246397951 0.8848678580311602 1.0425458798080087
v -0.06196462463979502 0.5493816244630916 0.6685712420314227
v -0.06196462463979502 0.9180202928681522 1.006366345839254
vt 0.3515625 0.734375
vt 0.4921875 0.734375
vt 0.4921875 0.796875
vt 0.3515625 0.796875
vt 0 0.9375
vt 0 0.9375
vt 0 1
vt 0 1
vt 0.3515625 0.671875
vt 0.4921875 0.671875
vt 0.4921875 0.734375
vt 0.3515625 0.734375
vt 0 0.9375
vt 0 0.9375
vt 0 1
vt 0 1
vt 0.140625 1
vt 0 1
vt 0 1
vt 0.140625 1
vt 0.140625 1
vt 0 1
vt 0 1
vt 0.140625 1
vn 0.04361938736533598 0.674947195436546 -0.7365756121527604
vn 0 0 0
vn -0.04361938736533598 -0.6749471954365461 0.7365756121527604
vn 0 0 0
vn 0 0 0
vn 0 0 0
usemtl m_2e902d77-07b4-69d2-841b-79c73e52ba86
f 49/145/37 50/146/37 51/147/37 52/148/37
f 53/149/38 49/150/38 52/151/38 54/152/38
f 55/153/39 53/154/39 54/155/39 56/156/39
f 50/157/40 55/158/40 56/159/40 51/160/40
f 56/161/41 54/162/41 52/163/41 51/164/41
f 50/165/42 49/166/42 53/167/42 55/168/42
o cube
v 1.0622659734067645 -0.07505058362349915 0.619523496761501
v -0.061663275872825385 -0.028938165139289762 0.6027399490032224
v -0.05694279419204029 0.2396148494944863 1.0244709004210808
v 1.0669864550875499 0.19350243101027687 1.0412544481793597
v 1.0622659734067645 -0.07505058362349915 0.619523496761501
v 1.0669864550875499 0.19350243101027687 1.0412544481793597
v -0.061663275872825385 -0.028938165139289762 0.6027399490032224
v -0.05694279419204029 0.2396148494944863 1.0244709004210808
vt 0.3515625 0.546875
vt 0.4921875 0.546875
vt 0.4921875 0.609375
vt 0.3515625 0.609375
vt 0 0.9375
vt 0 0.9375
vt 0 1
vt 0 1
vt 0.2109375 0.5
vt 0.3515625 0.5
vt 0.3515625 0.5625
vt 0.2109375 0.5625
vt 0 0.9375
vt 0 0.9375
vt 0 1
vt 0 1
vt 0.140625 1
vt 0 1
vt 0 1
vt 0.140625 1
vt 0.140625 1
vt 0 1
vt 0 1
vt 0.140625 1
vn 0.04258543371779512 0.8425182670138837 -0.5369817972547951
vn 0 0 0
vn -0.04258543371779512 -0.8425182670138838 0.5369817972547947
vn 0 0 0
vn 0 0 0
vn 0 0 0
usemtl m_2e902d77-07b4-69d2-841b-79c73e52ba86
f 57/169/43 58/170/43 59/171/43 60/172/43
f 61/173/44 57/174/44 60/175/44 62/176/44
f 63/177/45 61/178/45 62/179/45 64/180/45
f 58/181/46 63/182/46 64/183/46 59/184/46
f 64/185/47 62/186/47 60/187/47 59/188/47
f 58/189/48 57/190/48 61/191/48 63/192/48
o cube
v 1.0392141613537498 0.10742733371530877 0.9382790063132442
v -0.0804995763984544 0.020795164134086885 1.004316970263072
v -0.04609506386120055 -0.572164119495199 0.809790320482334
v 1.0736186738910036 -0.4855319499139771 0.7437523565325062
v 1.0392141613537498 0.10742733371530877 0.9382790063132442
v 1.0736186738910036 -0.4855319499139771 0.7437523565325062
v -0.0804995763984544 0.020795164134086885 1.004316970263072
v -0.04609506386120055 -0.572164119495199 0.809790320482334
vt 0.2109375 0.625
vt 0.3515625 0.625
vt 0.3515625 0.703125
vt 0.2109375 0.703125
vt 0 0.921875
vt 0 0.921875
vt 0 1
vt 0 1
vt 0.3515625 0.921875
vt 0.4921875 0.921875
vt 0.4921875 1
vt 0.3515625 1
vt 0 0.921875
vt 0 0.921875
vt 0 1
vt 0 1
vt 0.140625 1
vt 0 1
vt 0 1
vt 0.140625 1
vt 0.140625 1
vt 0 1
vt 0 1
vt 0.140625 1
vn 0.07965879396678884 -0.30654884716054426 0.9485158305733743
vn 0 0 0
vn -0.07965879396678884 0.30654884716054426 -0.9485158305733743
vn 0 0 0
vn 0 0 0
vn 0 0 0
usemtl m_2e902d77-07b4-69d2-841b-79c73e52ba86
f 65/193/49 66/194/49 67/195/49 68/196/49
f 69/197/50 65/198/50 68/199/50 70/200/50
f 71/201/51 69/202/51 70/203/51 72/204/51
f 66/205/52 71/206/52 72/207/52 67/208/52
f 72/209/53 70/210/53 68/211/53 67/212/53
f 66/213/54 65/214/54 69/215/54 71/216/54
o cube
v 1.0495389811308775 1.2759359489032485 0.8567230336369741
v -0.07033786615036319 1.214011561002195 0.7691660972669273
v -0.08975858936360648 0.958317007232504 1.1984016161634803
v 1.0301182579176342 1.0202413951335576 1.285958552533527
v 1.0495389811308775 1.2759359489032485 0.8567230336369741
v 1.0301182579176342 1.0202413951335576 1.285958552533527
v -0.07033786615036319 1.214011561002195 0.7691660972669273
v -0.08975858936360648 0.958317007232504 1.1984016161634803
vt 0.48828125 0.919921875
vt 0.48828125 0.857421875
vt 0.34765625 0.857421875
vt 0.34765625 0.919921875
vt 0 0.9375
vt 0 0.9375
vt 0 1
vt 0 1
vt 0.4921875 0.857421875
vt 0.4921875 0.794921875
vt 0.3515625 0.794921875
vt 0.3515625 0.857421875
vt 0 0.9375
vt 0 0.9375
vt 0 1
vt 0 1
vt 0 1
vt 0 1
vt 0.140625 1
vt 0.140625 1
vt 0 1
vt 0 1
vt 0.140625 1
vt 0.140625 1
vn 0.08705418408469409 -0.8575846020793627 -0.5069223010577948
vn 0 0 0
vn -0.0870541840846941 0.8575846020793628 0.5069223010577945
vn 0 0 0
vn 0 0 0
vn 0 0 0
usemtl m_2e902d77-07b4-69d2-841b-79c73e52ba86
f 75/217/55 74/218/55 73/219/55 76/220/55
f 73/221/56 77/222/56 76/223/56 78/224/56
f 78/225/57 77/226/57 79/227/57 80/228/57
f 79/229/58 74/230/58 80/231/58 75/232/58
f 76/233/59 78/234/59 80/235/59 75/236/59
f 77/237/60 73/238/60 74/239/60 79/240/60