# Made in Blockbench 4.11.2
mtllib hobbit_door_3x3_green.mtl

o cylinder
v 0.5074999999999997 1.500125 1.0064451562499999
v 0.5074999999999997 1.5001250000000002 0.78113265625
v 0.8078576747432833 3.010125 1.0064451562500007
v 0.8078576747432833 3.010125 0.7811326562500006
v 1.3628462909992871 2.780241188184086 1.0064451562500005
v 1.3628462909992871 2.780241188184086 0.7811326562500005
v 1.7876161881840855 2.3554712909992874 1.0064451562500003
v 1.7876161881840855 2.355471290999288 0.7811326562500004
v 2.0174999999999996 1.8004826747432836 1.00644515625
v 2.0174999999999996 1.8004826747432836 0.7811326562500001
v 2.0174999999999996 1.1997673252567165 1.0064451562499999
v 2.0174999999999996 1.1997673252567167 0.7811326562499998
v 1.7876161881840862 0.6447787090007129 1.0064451562499996
v 1.7876161881840862 0.644778709000713 0.7811326562499996
v 1.3628462909992871 0.2200088118159138 1.0064451562499994
v 1.3628462909992871 0.2200088118159138 0.7811326562499994
v 0.807857674743284 -0.009875000000000078 1.0064451562499994
v 0.807857674743284 -0.009875000000000078 0.7811326562499993
v 0.207142325256716 -0.009875000000000078 1.0064451562499994
v 0.207142325256716 -0.009875000000000078 0.7811326562499993
v -0.34784629099928743 0.22000881181591336 1.0064451562499994
v -0.34784629099928743 0.22000881181591336 0.7811326562499994
v -0.7726161881840863 0.6447787090007125 1.0064451562499996
v -0.7726161881840863 0.6447787090007127 0.7811326562499996
v -1.0025000000000002 1.1997673252567158 1.0064451562499999
v -1.0025000000000002 1.1997673252567158 0.7811326562499998
v -1.0025000000000002 1.8004826747432836 1.00644515625
v -1.0025000000000002 1.8004826747432836 0.7811326562500001
v -0.7726161881840867 2.355471290999287 1.0064451562500003
v -0.7726161881840867 2.355471290999287 0.7811326562500004
v -0.34784629099928777 2.780241188184086 1.0064451562500005
v -0.34784629099928777 2.780241188184086 0.7811326562500005
v 0.20714232525671544 3.0101249999999995 1.0064451562500007
v 0.20714232525671544 3.0101249999999995 0.7811326562500006
vt 0.7275301888483195 0.910393719249858
vt 0.5710653542591054 0.9752035757711734
vt 0.48638719596940305 0.5494977264808685
vt 0.8117854166666661 0.3044041666666667
vt 0.8117854166666661 0.10416666666666663
vt 0.8962645833333335 0.10416666666666663
vt 0.8962645833333335 0.3044041666666667
vt 0.4017318824995367 0.9754017996849065
vt 0.24526704791032253 0.9105919431635909
vt 0.4864100407892391 0.5496959503946015
vt 0.8472831887383925 0.7906407193597851
vt 0.7275301888483195 0.910393719249858
vt 0.48638719596940305 0.5494977264808685
vt 0.8117854166666661 0.2419041666666667
vt 0.8117854166666661 0.04166666666666663
vt 0.8962645833333335 0.04166666666666663
vt 0.8962645833333335 0.2419041666666667
vt 0.24526704791032253 0.9105919431635909
vt 0.12551404802024962 0.7908389432735181
vt 0.4864100407892391 0.5496959503946015
vt 0.912093045259708 0.634175884770571
vt 0.8472831887383925 0.7906407193597851
vt 0.48638719596940305 0.5494977264808685
vt 0.8117854166666661 0.20023750000000007
vt 0.8117854166666661 0
vt 0.8962645833333335 0
vt 0.8962645833333335 0.20023750000000007
vt 0.12551404802024962 0.7908389432735181
vt 0.060704191498934135 0.634374108684304
vt 0.4864100407892391 0.5496959503946015
vt 0.912093045259708 0.464819568191166
vt 0.912093045259708 0.634175884770571
vt 0.48638719596940305 0.5494977264808685
vt 0.6873062499999995 0.3669041666666667
vt 0.6873062499999995 0.16666666666666663
vt 0.7723062500000001 0.16666666666666663
vt 0.7723062500000001 0.3669041666666667
vt 0.060704191498934135 0.634374108684304
vt 0.060704191498934135 0.46501779210489913
vt 0.4864100407892391 0.5496959503946015
vt 0.8472831887383926 0.308354733601952
vt 0.912093045259708 0.464819568191166
vt 0.48638719596940305 0.5494977264808685
vt 0.6873062499999995 0.3044041666666667
vt 0.6873062499999995 0.10416666666666663
vt 0.7723062500000001 0.10416666666666663
vt 0.7723062500000001 0.3044041666666667
vt 0.060704191498934135 0.46501779210489913
vt 0.1255140480202494 0.3085529575156851
vt 0.4864100407892391 0.5496959503946015
vt 0.7275301888483195 0.18860173371187894
vt 0.8472831887383926 0.308354733601952
vt 0.48638719596940305 0.5494977264808685
vt 0.6873062499999995 0.2419041666666667
vt 0.6873062499999995 0.04166666666666663
vt 0.7723062500000001 0.04166666666666663
vt 0.7723062500000001 0.2419041666666667
vt 0.1255140480202494 0.3085529575156851
vt 0.24526704791032253 0.18879995762561175
vt 0.4864100407892391 0.5496959503946015
vt 0.5710653542591055 0.1237918771905635
vt 0.7275301888483195 0.18860173371187894
vt 0.48638719596940305 0.5494977264808685
vt 0.6873062499999995 0.20023750000000007
vt 0.6873062499999995 0
vt 0.7723062500000001 0
vt 0.7723062500000001 0.20023750000000007
vt 0.24526704791032253 0.18879995762561175
vt 0.40173188249953656 0.12399010110429654
vt 0.4864100407892391 0.5496959503946015
vt 0.4017090376797004 0.1237918771905635
vt 0.5710653542591055 0.1237918771905635
vt 0.48638719596940305 0.5494977264808685
vt 0.5612645833333328 0.20023750000000007
vt 0.5612645833333328 0
vt 0.6462645833333335 0
vt 0.6462645833333335 0.20023750000000007
vt 0.40173188249953656 0.12399010110429654
vt 0.5710881990789417 0.12399010110429654
vt 0.4864100407892391 0.5496959503946015
vt 0.24524420309048708 0.18860173371187872
vt 0.4017090376797004 0.1237918771905635
vt 0.48638719596940305 0.5494977264808685
vt 0.5612645833333328 0.26273750000000007
vt 0.5612645833333328 0.0625
vt 0.6462645833333335 0.0625
vt 0.6462645833333335 0.26273750000000007
vt 0.5710881990789417 0.12399010110429654
vt 0.7275530336681557 0.18879995762561164
vt 0.4864100407892391 0.5496959503946015
vt 0.12549120320041396 0.308354733601952
vt 0.24524420309048708 0.18860173371187872
vt 0.48638719596940305 0.5494977264808685
vt 0.5612645833333328 0.32523750000000007
vt 0.5612645833333328 0.125
vt 0.6462645833333335 0.125
vt 0.6462645833333335 0.32523750000000007
vt 0.7275530336681557 0.18879995762561164
vt 0.8473060335582288 0.3085529575156848
vt 0.4864100407892391 0.5496959503946015
vt 0.060681346679098365 0.4648195681911659
vt 0.12549120320041396 0.308354733601952
vt 0.48638719596940305 0.5494977264808685
vt 0.5612645833333328 0.3669041666666667
vt 0.5612645833333328 0.16666666666666663
vt 0.6462645833333335 0.16666666666666663
vt 0.6462645833333335 0.3669041666666667
vt 0.8473060335582288 0.3085529575156848
vt 0.9121158900795443 0.4650177921048989
vt 0.4864100407892391 0.5496959503946015
vt 0.060681346679098365 0.634175884770571
vt 0.060681346679098365 0.4648195681911659
vt 0.48638719596940305 0.5494977264808685
vt 0.8758479166666685 0.2419041666666667
vt 0.8758479166666685 0.04166666666666663
vt 0.9583333333333334 0.04166666666666663
vt 0.9583333333333334 0.2419041666666667
vt 0.9121158900795443 0.4650177921048989
vt 0.9121158900795443 0.634374108684304
vt 0.4864100407892391 0.5496959503946015
vt 0.12549120320041385 0.7906407193597849
vt 0.060681346679098365 0.634175884770571
vt 0.48638719596940305 0.5494977264808685
vt 0.8758479166666685 0.3044041666666667
vt 0.8758479166666685 0.10416666666666663
vt 0.9583333333333334 0.10416666666666663
vt 0.9583333333333334 0.3044041666666667
vt 0.9121158900795443 0.634374108684304
vt 0.8473060335582289 0.7908389432735179
vt 0.4864100407892391 0.5496959503946015
vt 0.24524420309048692 0.910393719249858
vt 0.12549120320041385 0.7906407193597849
vt 0.48638719596940305 0.5494977264808685
vt 0.8758479166666685 0.3669041666666667
vt 0.8758479166666685 0.16666666666666663
vt 0.9583333333333334 0.16666666666666663
vt 0.9583333333333334 0.3669041666666667
vt 0.8473060335582289 0.7908389432735179
vt 0.7275530336681558 0.9105919431635909
vt 0.4864100407892391 0.5496959503946015
vt 0.4017090376797003 0.9752035757711733
vt 0.24524420309048692 0.910393719249858
vt 0.48638719596940305 0.5494977264808685
vt 0.8758479166666685 0.20023750000000007
vt 0.8758479166666685 0
vt 0.9583333333333334 0
vt 0.9583333333333334 0.20023750000000007
vt 0.7275530336681558 0.9105919431635909
vt 0.5710881990789418 0.9754017996849064
vt 0.4864100407892391 0.5496959503946015
vt 0.5710653542591054 0.9752035757711734
vt 0.4017090376797003 0.9752035757711733
vt 0.48638719596940305 0.5494977264808685
vt 0.8117854166666661 0.3669041666666667
vt 0.8117854166666661 0.16666666666666663
vt 0.8962645833333335 0.16666666666666663
vt 0.8962645833333335 0.3669041666666667
vt 0.5710881990789418 0.9754017996849064
vt 0.4017318824995367 0.9754017996849065
vt 0.4864100407892391 0.5496959503946015
vn 0 -4.440892098500626e-16 1
vn 0.38268343236509006 0.9238795325112866 4.102849315895825e-16
vn 0 4.440892098500626e-16 -1
vn 0 -4.440892098500626e-16 1
vn 0.7071067811865475 0.7071067811865478 3.1401849173675513e-16
vn 0 4.440892098500626e-16 -1
vn 0 -4.440892098500626e-16 1
vn 0.9238795325112867 0.3826834323650899 1.6994558310172265e-16
vn 0 4.440892098500626e-16 -1
vn 0 -4.440892098500626e-16 1
vn 1 0 0
vn 0 4.440892098500626e-16 -1
vn 0 -4.440892098500626e-16 1
vn 0.923879532511287 -0.3826834323650892 -1.6994558310172235e-16
vn 0 4.440892098500626e-16 -1
vn 0 -4.440892098500626e-16 1
vn 0.7071067811865476 -0.7071067811865476 -3.1401849173675503e-16
vn 0 4.440892098500626e-16 -1
vn 0 -4.440892098500626e-16 1
vn 0.3826834323650901 -0.9238795325112868 -4.102849315895826e-16
vn 0 4.440892098500626e-16 -1
vn 0 -4.440892098500626e-16 1
vn 0 -1 -4.440892098500626e-16
vn 0 4.440892098500626e-16 -1
vn 0 -4.440892098500626e-16 1
vn -0.3826834323650893 -0.923879532511287 -4.1028493158958266e-16
vn 0 4.440892098500626e-16 -1
vn 0 -4.440892098500626e-16 1
vn -0.7071067811865478 -0.7071067811865472 -3.140184917367549e-16
vn 0 4.440892098500626e-16 -1
vn 0 -4.440892098500626e-16 1
vn -0.9238795325112868 -0.3826834323650901 -1.6994558310172275e-16
vn 0 4.440892098500626e-16 -1
vn 0 -4.440892098500626e-16 1
vn -1 0 0
vn 0 4.440892098500626e-16 -1
vn 0 -4.440892098500626e-16 1
vn -0.923879532511287 0.3826834323650894 1.6994558310172243e-16
vn 0 4.440892098500626e-16 -1
vn 0 -4.440892098500626e-16 1
vn -0.7071067811865476 0.7071067811865476 3.1401849173675503e-16
vn 0 4.440892098500626e-16 -1
vn 0 -4.440892098500626e-16 1
vn -0.3826834323650901 0.9238795325112868 4.102849315895826e-16
vn 0 4.440892098500626e-16 -1
vn 0 -4.440892098500626e-16 1
vn -3.696336461434074e-16 1 4.440892098500626e-16
vn 0 4.440892098500626e-16 -1
usemtl m_60c4a0e2-24ba-32ab-47de-89f47263b733
f 5/1/1 3/2/1 1/3/1
f 3/4/2 5/5/2 6/6/2 4/7/2
f 4/8/3 6/9/3 2/10/3
f 7/11/4 5/12/4 1/13/4
f 5/14/5 7/15/5 8/16/5 6/17/5
f 6/18/6 8/19/6 2/20/6
f 9/21/7 7/22/7 1/23/7
f 7/24/8 9/25/8 10/26/8 8/27/8
f 8/28/9 10/29/9 2/30/9
f 11/31/10 9/32/10 1/33/10
f 9/34/11 11/35/11 12/36/11 10/37/11
f 10/38/12 12/39/12 2/40/12
f 13/41/13 11/42/13 1/43/13
f 11/44/14 13/45/14 14/46/14 12/47/14
f 12/48/15 14/49/15 2/50/15
f 15/51/16 13/52/16 1/53/16
f 13/54/17 15/55/17 16/56/17 14/57/17
f 14/58/18 16/59/18 2/60/18
f 17/61/19 15/62/19 1/63/19
f 15/64/20 17/65/20 18/66/20 16/67/20
f 16/68/21 18/69/21 2/70/21
f 19/71/22 17/72/22 1/73/22
f 17/74/23 19/75/23 20/76/23 18/77/23
f 18/78/24 20/79/24 2/80/24
f 21/81/25 19/82/25 1/83/25
f 19/84/26 21/85/26 22/86/26 20/87/26
f 20/88/27 22/89/27 2/90/27
f 23/91/28 21/92/28 1/93/28
f 21/94/29 23/95/29 24/96/29 22/97/29
f 22/98/30 24/99/30 2/100/30
f 25/101/31 23/102/31 1/103/31
f 23/104/32 25/105/32 26/106/32 24/107/32
f 24/108/33 26/109/33 2/110/33
f 27/111/34 25/112/34 1/113/34
f 25/114/35 27/115/35 28/116/35 26/117/35
f 26/118/36 28/119/36 2/120/36
f 29/121/37 27/122/37 1/123/37
f 27/124/38 29/125/38 30/126/38 28/127/38
f 28/128/39 30/129/39 2/130/39
f 31/131/40 29/132/40 1/133/40
f 29/134/41 31/135/41 32/136/41 30/137/41
f 30/138/42 32/139/42 2/140/42
f 33/141/43 31/142/43 1/143/43
f 31/144/44 33/145/44 34/146/44 32/147/44
f 32/148/45 34/149/45 2/150/45
f 3/151/46 33/152/46 1/153/46
f 33/154/47 3/155/47 4/156/47 34/157/47
f 34/158/48 4/159/48 2/160/48
o cube
v 0.6490624999999999 1.6416874999999997 0.92269515625
v 0.6490624999999999 1.6416874999999997 0.73394515625
v 0.6490624999999999 1.3585624999999997 0.92269515625
v 0.6490624999999999 1.3585624999999997 0.73394515625
v 0.3659374999999998 1.6416874999999997 0.73394515625
v 0.3659374999999998 1.6416874999999997 0.92269515625
v 0.3659374999999998 1.3585624999999997 0.73394515625
v 0.3659374999999998 1.3585624999999997 0.92269515625
vt 0.10416666666666667 0.0625
vt 0.16666666666666666 0.0625
vt 0.16666666666666666 0
vt 0.10416666666666667 0
vt 0.10416666666666667 0.0625
vt 0.14583333333333334 0.0625
vt 0.14583333333333334 0
vt 0.10416666666666667 0
vt 0.10416666666666667 0.0625
vt 0.16666666666666666 0.0625
vt 0.16666666666666666 0
vt 0.10416666666666667 0
vt 0.10416666666666667 0.0625
vt 0.14583333333333334 0.0625
vt 0.14583333333333334 0
vt 0.10416666666666667 0
vt 0.10416666666666667 0.0625
vt 0.16666666666666666 0.0625
vt 0.16666666666666666 0.02083333333333337
vt 0.10416666666666667 0.02083333333333337
vt 0.10416666666666667 0.0625
vt 0.16666666666666666 0.0625
vt 0.16666666666666666 0.02083333333333337
vt 0.10416666666666667 0.02083333333333337
vn 0 0 -1
vn 1 0 0
vn 0 0 1
vn -1 0 0
vn 0 1 0
vn 0 -1 0
usemtl m_60c4a0e2-24ba-32ab-47de-89f47263b733
f 38/164/49 41/163/49 39/162/49 36/161/49
f 37/168/50 38/167/50 36/166/50 35/165/50
f 42/172/51 37/171/51 35/170/51 40/169/51
f 41/176/52 42/175/52 40/174/52 39/173/52
f 40/180/53 35/179/53 36/178/53 39/177/53
f 41/184/54 38/183/54 37/182/54 42/181/54
o cube
v 0.5782812499999999 1.57090625 0.86371078125
v 0.5782812499999999 1.57090625 0.67496078125
v 0.5782812499999999 1.42934375 0.86371078125
v 0.5782812499999999 1.42934375 0.67496078125
v 0.4367187499999998 1.57090625 0.67496078125
v 0.4367187499999998 1.57090625 0.86371078125
v 0.4367187499999998 1.42934375 0.67496078125
v 0.4367187499999998 1.42934375 0.86371078125
vt 0.020833333333333332 0.16666666666666663
vt 0.052083333333333336 0.16666666666666663
vt 0.052083333333333336 0.13541666666666663
vt 0.020833333333333332 0.13541666666666663
vt 0.020833333333333332 0.16666666666666663
vt 0.0625 0.16666666666666663
vt 0.0625 0.13541666666666663
vt 0.020833333333333332 0.13541666666666663
vt 0.020833333333333332 0.16666666666666663
vt 0.052083333333333336 0.16666666666666663
vt 0.052083333333333336 0.13541666666666663
vt 0.020833333333333332 0.13541666666666663
vt 0.020833333333333332 0.16666666666666663
vt 0.0625 0.16666666666666663
vt 0.0625 0.13541666666666663
vt 0.020833333333333332 0.13541666666666663
vt 0.020833333333333332 0.16666666666666663
vt 0.052083333333333336 0.16666666666666663
vt 0.052083333333333336 0.125
vt 0.020833333333333332 0.125
vt 0.020833333333333332 0.16666666666666663
vt 0.052083333333333336 0.16666666666666663
vt 0.052083333333333336 0.125
vt 0.020833333333333332 0.125
vn 0 0 -1
vn 1 0 0
vn 0 0 1
vn -1 0 0
vn 0 1 0
vn 0 -1 0
usemtl m_60c4a0e2-24ba-32ab-47de-89f47263b733
f 46/188/55 49/187/55 47/186/55 44/185/55
f 45/192/56 46/191/56 44/190/56 43/189/56
f 50/196/57 45/195/57 43/194/57 48/193/57
f 49/200/58 50/199/58 48/198/58 47/197/58
f 48/204/59 43/203/59 44/202/59 47/201/59
f 49/208/60 46/207/60 45/206/60 50/205/60
o cube
v 0.6254687499999998 1.6180937499999999 0.6796795312500001
v 0.6254687499999998 1.6180937499999999 0.53339828125
v 0.6254687499999998 1.3821562499999995 0.6796795312500001
v 0.6254687499999998 1.3821562499999995 0.53339828125
v 0.38953124999999966 1.6180937499999999 0.53339828125
v 0.38953124999999966 1.6180937499999999 0.6796795312500001
v 0.38953124999999966 1.3821562499999995 0.53339828125
v 0.38953124999999966 1.3821562499999995 0.6796795312500001
vt 0.0625 0.08333333333333337
vt 0.11458333333333333 0.08333333333333337
vt 0.11458333333333333 0.03125
vt 0.0625 0.03125
vt 0.0625 0.08333333333333337
vt 0.09479166666666665 0.08333333333333337
vt 0.09479166666666665 0.03125
vt 0.0625 0.03125
vt 0.0625 0.08333333333333337
vt 0.11458333333333333 0.08333333333333337
vt 0.11458333333333333 0.03125
vt 0.0625 0.03125
vt 0.0625 0.08333333333333337
vt 0.09479166666666665 0.08333333333333337
vt 0.09479166666666665 0.03125
vt 0.0625 0.03125
vt 0.0625 0.08333333333333337
vt 0.11458333333333333 0.08333333333333337
vt 0.11458333333333333 0.05104166666666676
vt 0.0625 0.05104166666666676
vt 0.0625 0.08333333333333337
vt 0.11458333333333333 0.08333333333333337
vt 0.11458333333333333 0.05104166666666676
vt 0.0625 0.05104166666666676
vn 0 0 -1
vn 1 0 0
vn 0 0 1
vn -1 0 0
vn 0 1 0
vn 0 -1 0
usemtl m_60c4a0e2-24ba-32ab-47de-89f47263b733
f 54/212/61 57/211/61 55/210/61 52/209/61
f 53/216/62 54/215/62 52/214/62 51/213/62
f 58/220/63 53/219/63 51/218/63 56/217/63
f 57/224/64 58/223/64 56/222/64 55/221/64
f 56/228/65 51/227/65 52/226/65 55/225/65
f 57/232/66 54/231/66 53/230/66 58/229/66