# Made in Blockbench 4.11.2
mtllib hobbit_door_3x3_green.mtl

o cylinder
v 0.12664362922797445 2.588223759956473 -0.849715286701751
v -0.05388357707556468 2.783625 -0.4138840568664204
v -0.15158419709732884 1.500125 -0.17801389495761932
v -0.05029373686563254 2.588223759956473 -0.9230051434282964
v -0.2308209431691718 2.783625 -0.487173913592966
v -0.32852156319093573 1.5001250000000002 -0.25130375168416474
v 0.26481317111501246 2.2271693473493945 -1.183286068632316
v 0.08787580502140568 2.2271693473493945 -1.256575925358861
v 0.3395899883432639 1.755429023531791 -1.3638132749358551
v 0.16265262224965704 1.755429023531791 -1.4371031316624008
v 0.3395899883432637 1.244820976468209 -1.3638132749358551
v 0.16265262224965682 1.2448209764682092 -1.4371031316624008
v 0.264813171115012 0.773080652650606 -1.1832860686323168
v 0.08787580502140524 0.7730806526506061 -1.256575925358862
v 0.12664362922797356 0.41202624004352684 -0.8497152867017512
v -0.05029373686563332 0.41202624004352684 -0.9230051434282966
v -0.05388357707556568 0.21662500000000007 -0.41388405686642127
v -0.23082094316917268 0.21662500000000007 -0.4871739135929667
v -0.2492848171190929 0.21662500000000007 0.05785626695118262
v -0.42622218321269983 0.21662500000000007 -0.0154335897753628
v -0.42981202342263203 0.4120262400435264 0.49368749678651247
v -0.6067493895162389 0.4120262400435264 0.42039764005996705
v -0.5679815653096703 0.7730806526506057 0.827258278717078
v -0.7449189314032771 0.7730806526506058 0.7539684219905326
v -0.6427583825379217 1.2448209764682086 1.0077854850206174
v -0.8196957486315286 1.2448209764682086 0.9344956282940718
v -0.6427583825379216 1.755429023531791 1.0077854850206174
v -0.8196957486315285 1.755429023531791 0.934495628294072
v -0.5679815653096698 2.2271693473493936 0.8272582787170784
v -0.7449189314032766 2.2271693473493936 0.753968421990533
v -0.4298120234226312 2.588223759956473 0.49368749678651297
v -0.6067493895162381 2.588223759956473 0.4203976400599675
v -0.2492848171190919 2.783625 0.0578562669511834
v -0.42622218321269895 2.783625 -0.015433589775362022
vt 0.6785784858061158 0.9151512484679026
vt 0.5335993427784911 0.9752035757711734
vt 0.45513719596940305 0.5807477264808685
vt 0.8117854166666661 0.3044041666666667
vt 0.8117854166666661 0.10416666666666663
vt 0.8962645833333335 0.10416666666666663
vt 0.8962645833333335 0.3044041666666667
vt 0.37669789398015097 0.9754017996849065
vt 0.2317187509525263 0.9153494723816356
vt 0.4551600407892391 0.5809459503946015
vt 0.7895407179564371 0.8041890163175813
vt 0.6785784858061158 0.9151512484679026
vt 0.45513719596940305 0.5807477264808685
vt 0.8117854166666661 0.2419041666666667
vt 0.8117854166666661 0.04166666666666663
vt 0.8962645833333335 0.04166666666666663
vt 0.8962645833333335 0.2419041666666667
vt 0.2317187509525263 0.9153494723816356
vt 0.12075651880220503 0.8043872402313144
vt 0.4551600407892391 0.5809459503946015
vt 0.849593045259708 0.6592098732899567
vt 0.7895407179564371 0.8041890163175813
vt 0.45513719596940305 0.5807477264808685
vt 0.8117854166666661 0.20023750000000007
vt 0.8117854166666661 0
vt 0.8962645833333335 0
vt 0.8962645833333335 0.20023750000000007
vt 0.12075651880220503 0.8043872402313144
vt 0.060704191498934135 0.6594080972036898
vt 0.4551600407892391 0.5809459503946015
vt 0.849593045259708 0.5022855796717803
vt 0.849593045259708 0.6592098732899567
vt 0.45513719596940305 0.5807477264808685
vt 0.6873062499999995 0.3669041666666667
vt 0.6873062499999995 0.16666666666666663
vt 0.7723062500000001 0.16666666666666663
vt 0.7723062500000001 0.3669041666666667
vt 0.060704191498934135 0.6594080972036898
vt 0.060704191498934135 0.5024838035855135
vt 0.4551600407892391 0.5809459503946015
vt 0.7895407179564372 0.35730643664415573
vt 0.849593045259708 0.5022855796717803
vt 0.45513719596940305 0.5807477264808685
vt 0.6873062499999995 0.3044041666666667
vt 0.6873062499999995 0.10416666666666663
vt 0.7723062500000001 0.10416666666666663
vt 0.7723062500000001 0.3044041666666667
vt 0.060704191498934135 0.5024838035855135
vt 0.12075651880220484 0.3575046605578889
vt 0.4551600407892391 0.5809459503946015
vt 0.6785784858061158 0.24634420449383443
vt 0.7895407179564372 0.35730643664415573
vt 0.45513719596940305 0.5807477264808685
vt 0.6873062499999995 0.2419041666666667
vt 0.6873062499999995 0.04166666666666663
vt 0.7723062500000001 0.04166666666666663
vt 0.7723062500000001 0.2419041666666667
vt 0.12075651880220484 0.3575046605578889
vt 0.2317187509525263 0.24654242840756724
vt 0.4551600407892391 0.5809459503946015
vt 0.5335993427784912 0.1862918771905635
vt 0.6785784858061158 0.24634420449383443
vt 0.45513719596940305 0.5807477264808685
vt 0.6873062499999995 0.20023750000000007
vt 0.6873062499999995 0
vt 0.7723062500000001 0
vt 0.7723062500000001 0.20023750000000007
vt 0.2317187509525263 0.24654242840756724
vt 0.37669789398015086 0.18649010110429654
vt 0.4551600407892391 0.5809459503946015
vt 0.37667504916031475 0.1862918771905635
vt 0.5335993427784912 0.1862918771905635
vt 0.45513719596940305 0.5807477264808685
vt 0.5612645833333328 0.20023750000000007
vt 0.5612645833333328 0
vt 0.6462645833333335 0
vt 0.6462645833333335 0.20023750000000007
vt 0.37669789398015086 0.18649010110429654
vt 0.5336221875983274 0.18649010110429654
vt 0.4551600407892391 0.5809459503946015
vt 0.23169590613269087 0.2463442044938342
vt 0.37667504916031475 0.1862918771905635
vt 0.45513719596940305 0.5807477264808685
vt 0.5612645833333328 0.26273750000000007
vt 0.5612645833333328 0.0625
vt 0.6462645833333335 0.0625
vt 0.6462645833333335 0.26273750000000007
vt 0.5336221875983274 0.18649010110429654
vt 0.6786013306259518 0.24654242840756713
vt 0.4551600407892391 0.5809459503946015
vt 0.12073367398236937 0.35730643664415573
vt 0.23169590613269087 0.2463442044938342
vt 0.45513719596940305 0.5807477264808685
vt 0.5612645833333328 0.32523750000000007
vt 0.5612645833333328 0.125
vt 0.6462645833333335 0.125
vt 0.6462645833333335 0.32523750000000007
vt 0.6786013306259518 0.24654242840756713
vt 0.7895635627762733 0.35750466055788865
vt 0.4551600407892391 0.5809459503946015
vt 0.060681346679098365 0.5022855796717802
vt 0.12073367398236937 0.35730643664415573
vt 0.45513719596940305 0.5807477264808685
vt 0.5612645833333328 0.3669041666666667
vt 0.5612645833333328 0.16666666666666663
vt 0.6462645833333335 0.16666666666666663
vt 0.6462645833333335 0.3669041666666667
vt 0.7895635627762733 0.35750466055788865
vt 0.8496158900795443 0.5024838035855133
vt 0.4551600407892391 0.5809459503946015
vt 0.060681346679098365 0.6592098732899567
vt 0.060681346679098365 0.5022855796717802
vt 0.45513719596940305 0.5807477264808685
vt 0.8758479166666685 0.2419041666666667
vt 0.8758479166666685 0.04166666666666663
vt 0.9583333333333334 0.04166666666666663
vt 0.9583333333333334 0.2419041666666667
vt 0.8496158900795443 0.5024838035855133
vt 0.8496158900795443 0.6594080972036898
vt 0.4551600407892391 0.5809459503946015
vt 0.12073367398236927 0.8041890163175811
vt 0.060681346679098365 0.6592098732899567
vt 0.45513719596940305 0.5807477264808685
vt 0.8758479166666685 0.3044041666666667
vt 0.8758479166666685 0.10416666666666663
vt 0.9583333333333334 0.10416666666666663
vt 0.9583333333333334 0.3044041666666667
vt 0.8496158900795443 0.6594080972036898
vt 0.7895635627762734 0.8043872402313141
vt 0.4551600407892391 0.5809459503946015
vt 0.2316959061326907 0.9151512484679026
vt 0.12073367398236927 0.8041890163175811
vt 0.45513719596940305 0.5807477264808685
vt 0.8758479166666685 0.3669041666666667
vt 0.8758479166666685 0.16666666666666663
vt 0.9583333333333334 0.16666666666666663
vt 0.9583333333333334 0.3669041666666667
vt 0.7895635627762734 0.8043872402313141
vt 0.678601330625952 0.9153494723816356
vt 0.4551600407892391 0.5809459503946015
vt 0.37667504916031463 0.9752035757711733
vt 0.2316959061326907 0.9151512484679026
vt 0.45513719596940305 0.5807477264808685
vt 0.8758479166666685 0.20023750000000007
vt 0.8758479166666685 0
vt 0.9583333333333334 0
vt 0.9583333333333334 0.20023750000000007
vt 0.678601330625952 0.9153494723816356
vt 0.5336221875983275 0.9754017996849064
vt 0.4551600407892391 0.5809459503946015
vt 0.5335993427784911 0.9752035757711734
vt 0.37667504916031463 0.9752035757711733
vt 0.45513719596940305 0.5807477264808685
vt 0.8117854166666661 0.3669041666666667
vt 0.8117854166666661 0.16666666666666663
vt 0.8962645833333335 0.16666666666666663
vt 0.8962645833333335 0.3669041666666667
vt 0.5336221875983275 0.9754017996849064
vt 0.37669789398015097 0.9754017996849065
vt 0.4551600407892391 0.5809459503946015
vn 0.9238795325112867 -6.459064532483715e-16 0.38268343236508967
vn 0.14644660940672652 0.9238795325112866 -0.35355339059327434
vn -0.9238795325112868 4.4282611275281345e-16 -0.3826834323650899
vn 0.9238795325112868 -5.521526162276984e-16 0.3826834323650899
vn 0.2705980500731001 0.7071067811865475 -0.6532814824381876
vn -0.9238795325112867 2.446579600598015e-16 -0.38268343236509017
vn 0.9238795325112866 -4.679650965734136e-16 0.38268343236508984
vn 0.3535533905932739 0.3826834323650896 -0.8535533905932738
vn -0.9238795325112868 6.853966531283589e-16 -0.3826834323650899
vn 0.9238795325112866 -2.174315565549457e-16 0.3826834323650899
vn 0.38268343236508984 0 -0.9238795325112866
vn -0.9238795325112866 4.348631131098916e-16 -0.38268343236508984
vn 0.9238795325112866 -4.3486311310989175e-16 0.3826834323650899
vn 0.3535533905932739 -0.382683432365089 -0.8535533905932741
vn -0.9238795325112868 2.50533540018468e-16 -0.3826834323650899
vn 0.9238795325112866 -4.909881262127476e-16 0.38268343236508995
vn 0.2705980500730987 -0.7071067811865472 -0.6532814824381885
vn -0.9238795325112866 4.909881262127475e-16 -0.38268343236508995
vn 0.9238795325112868 -3.1966102967634015e-16 0.38268343236508984
vn 0.1464466094067263 -0.9238795325112868 -0.3535533905932738
vn -0.9238795325112866 4.4282611275281335e-16 -0.3826834323650899
vn 0.9238795325112866 -3.4599860525910596e-16 0.38268343236508984
vn 0 -1 0
vn -0.9238795325112866 4.324982565738824e-16 -0.38268343236508984
vn 0.9238795325112866 -3.1966102967634015e-16 0.38268343236508995
vn -0.1464466094067261 -0.923879532511287 0.3535533905932733
vn -0.9238795325112868 4.4282611275281345e-16 -0.3826834323650899
vn 0.9238795325112868 -4.909881262127475e-16 0.38268343236508984
vn -0.27059805007309917 -0.7071067811865475 0.6532814824381883
vn -0.9238795325112868 4.909881262127473e-16 -0.38268343236508984
vn 0.9238795325112868 -4.3486311310989185e-16 0.3826834323650899
vn -0.35355339059327384 -0.3826834323650897 0.8535533905932736
vn -0.9238795325112866 2.505335400184681e-16 -0.3826834323650899
vn 0.9238795325112868 -2.1743155655494558e-16 0.3826834323650899
vn -0.38268343236508984 0 0.9238795325112866
vn -0.9238795325112866 4.3486311310989106e-16 -0.38268343236508984
vn 0.9238795325112866 -4.67965096573414e-16 0.38268343236508984
vn -0.35355339059327395 0.38268343236508945 0.8535533905932738
vn -0.9238795325112866 6.853966531283599e-16 -0.3826834323650899
vn 0.9238795325112866 -5.521526162276981e-16 0.3826834323650899
vn -0.27059805007309856 0.7071067811865478 0.6532814824381882
vn -0.9238795325112867 2.446579600598014e-16 -0.3826834323650896
vn 0.9238795325112867 -6.459064532483722e-16 0.3826834323650901
vn -0.1464466094067264 0.9238795325112866 0.35355339059327406
vn -0.9238795325112866 4.428261127528135e-16 -0.3826834323650899
vn 0.9238795325112866 -6.054975592034355e-16 0.38268343236508984
vn -3.3282981746772283e-16 1 8.035222592927379e-16
vn -0.9238795325112866 4.3249825657388257e-16 -0.38268343236508984
usemtl m_d17c7c8b-978b-9b04-4279-6ab23b6cc502
f 1/1/1 2/2/1 3/3/1
f 2/4/2 1/5/2 4/6/2 5/7/2
f 5/8/3 4/9/3 6/10/3
f 7/11/4 1/12/4 3/13/4
f 1/14/5 7/15/5 8/16/5 4/17/5
f 4/18/6 8/19/6 6/20/6
f 9/21/7 7/22/7 3/23/7
f 7/24/8 9/25/8 10/26/8 8/27/8
f 8/28/9 10/29/9 6/30/9
f 11/31/10 9/32/10 3/33/10
f 9/34/11 11/35/11 12/36/11 10/37/11
f 10/38/12 12/39/12 6/40/12
f 13/41/13 11/42/13 3/43/13
f 11/44/14 13/45/14 14/46/14 12/47/14
f 12/48/15 14/49/15 6/50/15
f 15/51/16 13/52/16 3/53/16
f 13/54/17 15/55/17 16/56/17 14/57/17
f 14/58/18 16/59/18 6/60/18
f 17/61/19 15/62/19 3/63/19
f 15/64/20 17/65/20 18/66/20 16/67/20
f 16/68/21 18/69/21 6/70/21
f 19/71/22 17/72/22 3/73/22
f 17/74/23 19/75/23 20/76/23 18/77/23
f 18/78/24 20/79/24 6/80/24
f 21/81/25 19/82/25 3/83/25
f 19/84/26 21/85/26 22/86/26 20/87/26
f 20/88/27 22/89/27 6/90/27
f 23/91/28 21/92/28 3/93/28
f 21/94/29 23/95/29 24/96/29 22/97/29
f 22/98/30 24/99/30 6/100/30
f 25/101/31 23/102/31 3/103/31
f 23/104/32 25/105/32 26/106/32 24/107/32
f 24/108/33 26/109/33 6/110/33
f 27/111/34 25/112/34 3/113/34
f 25/114/35 27/115/35 28/116/35 26/117/35
f 26/118/36 28/119/36 6/120/36
f 29/121/37 27/122/37 3/123/37
f 27/124/38 29/125/38 30/126/38 28/127/38
f 28/128/39 30/129/39 6/130/39
f 31/131/40 29/132/40 3/133/40
f 29/134/41 31/135/41 32/136/41 30/137/41
f 30/138/42 32/139/42 6/140/42
f 33/141/43 31/142/43 3/143/43
f 31/144/44 33/145/44 34/146/44 32/147/44
f 32/148/45 34/149/45 6/150/45
f 2/151/46 33/152/46 3/153/46
f 33/154/47 2/155/47 5/156/47 34/157/47
f 34/158/48 5/159/48 6/160/48
o cube
v 0.013693446602538129 1.3585624999999997 -0.2627797992339581
v -0.09465380018582792 1.3585624999999997 -0.0012064065917000155
v -0.09465380018582792 1.6416874999999997 -0.0012064065917000155
v 0.013693446602538129 1.6416874999999997 -0.2627797992339581
v -0.16068881515896716 1.3585624999999997 -0.3350112970928688
v -0.16068881515896716 1.6416874999999997 -0.3350112970928688
v -0.2690360619473332 1.3585624999999997 -0.07343790445061071
v -0.2690360619473332 1.6416874999999997 -0.07343790445061071
vt 0.16666666666666666 0.0625
vt 0.16666666666666666 0
vt 0.10416666666666667 0
vt 0.10416666666666667 0.0625
vt 0.14583333333333334 0.0625
vt 0.14583333333333334 0
vt 0.10416666666666667 0
vt 0.10416666666666667 0.0625
vt 0.16666666666666666 0.0625
vt 0.16666666666666666 0
vt 0.10416666666666667 0
vt 0.10416666666666667 0.0625
vt 0.14583333333333334 0.0625
vt 0.14583333333333334 0
vt 0.10416666666666667 0
vt 0.10416666666666667 0.0625
vt 0.16666666666666666 0.0625
vt 0.16666666666666666 0.02083333333333337
vt 0.10416666666666667 0.02083333333333337
vt 0.10416666666666667 0.0625
vt 0.16666666666666666 0.0625
vt 0.16666666666666666 0.02083333333333337
vt 0.10416666666666667 0.02083333333333337
vt 0.10416666666666667 0.0625
vn 0.9238795325112866 0 0.38268343236508984
vn 0.38268343236508984 0 -0.9238795325112866
vn -0.9238795325112866 0 -0.38268343236508984
vn -0.38268343236508984 0 0.9238795325112866
vn 0 1 0
vn 0 -1 0
usemtl m_d17c7c8b-978b-9b04-4279-6ab23b6cc502
f 37/161/49 36/162/49 35/163/49 38/164/49
f 38/165/50 35/166/50 39/167/50 40/168/50
f 40/169/51 39/170/51 41/171/51 42/172/51
f 42/173/52 41/174/52 36/175/52 37/176/52
f 38/177/53 40/178/53 42/179/53 37/180/53
f 39/181/54 35/182/54 36/183/54 41/184/54
o cube
v 0.04110109170591714 1.42934375 -0.17481410799248398
v -0.013072531688265943 1.42934375 -0.04402741167135493
v -0.013072531688265943 1.57090625 -0.04402741167135493
v 0.04110109170591714 1.57090625 -0.17481410799248398
v -0.13328117005558826 1.42934375 -0.24704560585139468
v -0.13328117005558826 1.57090625 -0.24704560585139468
v -0.18745479344977134 1.42934375 -0.11625890953026563
v -0.18745479344977134 1.57090625 -0.11625890953026563
vt 0.052083333333333336 0.16666666666666663
vt 0.052083333333333336 0.13541666666666663
vt 0.020833333333333332 0.13541666666666663
vt 0.020833333333333332 0.16666666666666663
vt 0.0625 0.16666666666666663
vt 0.0625 0.13541666666666663
vt 0.020833333333333332 0.13541666666666663
vt 0.020833333333333332 0.16666666666666663
vt 0.052083333333333336 0.16666666666666663
vt 0.052083333333333336 0.13541666666666663
vt 0.020833333333333332 0.13541666666666663
vt 0.020833333333333332 0.16666666666666663
vt 0.0625 0.16666666666666663
vt 0.0625 0.13541666666666663
vt 0.020833333333333332 0.13541666666666663
vt 0.020833333333333332 0.16666666666666663
vt 0.052083333333333336 0.16666666666666663
vt 0.052083333333333336 0.125
vt 0.020833333333333332 0.125
vt 0.020833333333333332 0.16666666666666663
vt 0.052083333333333336 0.16666666666666663
vt 0.052083333333333336 0.125
vt 0.020833333333333332 0.125
vt 0.020833333333333332 0.16666666666666663
vn 0.9238795325112866 0 0.38268343236508984
vn 0.38268343236508984 0 -0.9238795325112866
vn -0.9238795325112866 0 -0.38268343236508984
vn -0.38268343236508984 0 0.9238795325112866
vn 0 1 0
vn 0 -1 0
usemtl m_d17c7c8b-978b-9b04-4279-6ab23b6cc502
f 45/185/55 44/186/55 43/187/55 46/188/55
f 46/189/56 43/190/56 47/191/56 48/192/56
f 48/193/57 47/194/57 49/195/57 50/196/57
f 50/197/58 49/198/58 44/199/58 45/200/58
f 46/201/59 48/202/59 50/203/59 45/204/59
f 47/205/60 43/206/60 44/207/60 49/208/60
o cube
v 0.1899456624917738 1.3821562499999995 -0.16423605003867725
v 0.09965629016813538 1.3821562499999995 0.053741777163204496
v 0.09965629016813538 1.6180937499999999 0.053741777163204496
v 0.1899456624917738 1.6180937499999999 -0.16423605003867725
v 0.05479940962660701 1.3821562499999995 -0.22021546087933308
v 0.05479940962660701 1.6180937499999999 -0.22021546087933308
v -0.03548996269703142 1.3821562499999995 -0.002237633677451334
v -0.03548996269703142 1.6180937499999999 -0.002237633677451334
vt 0.11458333333333333 0.08333333333333337
vt 0.11458333333333333 0.03125
vt 0.0625 0.03125
vt 0.0625 0.08333333333333337
vt 0.09479166666666665 0.08333333333333337
vt 0.09479166666666665 0.03125
vt 0.0625 0.03125
vt 0.0625 0.08333333333333337
vt 0.11458333333333333 0.08333333333333337
vt 0.11458333333333333 0.03125
vt 0.0625 0.03125
vt 0.0625 0.08333333333333337
vt 0.09479166666666665 0.08333333333333337
vt 0.09479166666666665 0.03125
vt 0.0625 0.03125
vt 0.0625 0.08333333333333337
vt 0.11458333333333333 0.08333333333333337
vt 0.11458333333333333 0.05104166666666676
vt 0.0625 0.05104166666666676
vt 0.0625 0.08333333333333337
vt 0.11458333333333333 0.08333333333333337
vt 0.11458333333333333 0.05104166666666676
vt 0.0625 0.05104166666666676
vt 0.0625 0.08333333333333337
vn 0.9238795325112866 0 0.38268343236508984
vn 0.38268343236508984 0 -0.9238795325112866
vn -0.9238795325112866 0 -0.38268343236508984
vn -0.38268343236508984 0 0.9238795325112866
vn 0 1 0
vn 0 -1 0
usemtl m_d17c7c8b-978b-9b04-4279-6ab23b6cc502
f 53/209/61 52/210/61 51/211/61 54/212/61
f 54/213/62 51/214/62 55/215/62 56/216/62
f 56/217/63 55/218/63 57/219/63 58/220/63
f 58/221/64 57/222/64 52/223/64 53/224/64
f 54/225/65 56/226/65 58/227/65 53/228/65
f 55/229/66 51/230/66 52/231/66 57/232/66