# Made in Blockbench 4.11.2
mtllib hobbit_door_3x3_green.mtl

o cylinder
v 1.2345443473493938 2.588223759956473 1.1145467187500004
v 0.7628040235317907 2.783625 1.1145467187500007
v 0.5074999999999996 1.500125 1.1145467187499998
v 1.2345443473493938 2.588223759956473 0.9230310937500004
v 0.7628040235317907 2.783625 0.9230310937500005
v 0.5074999999999996 1.5001250000000002 0.9230310937499999
v 1.5955987599564727 2.2271693473493945 1.1145467187500002
v 1.5955987599564727 2.2271693473493945 0.9230310937500004
v 1.7909999999999995 1.755429023531791 1.11454671875
v 1.7909999999999995 1.755429023531791 0.92303109375
v 1.7909999999999995 1.244820976468209 1.1145467187499998
v 1.7909999999999995 1.2448209764682092 0.9230310937499998
v 1.5955987599564732 0.773080652650606 1.1145467187499998
v 1.5955987599564732 0.7730806526506061 0.9230310937499997
v 1.2345443473493938 0.4120262400435268 1.1145467187499993
v 1.2345443473493938 0.4120262400435268 0.9230310937499995
v 0.7628040235317912 0.21662499999999998 1.1145467187499993
v 0.7628040235317912 0.21662499999999998 0.9230310937499994
v 0.25219597646820846 0.21662499999999998 1.1145467187499993
v 0.25219597646820846 0.21662499999999998 0.9230310937499994
v -0.21954434734939443 0.4120262400435264 1.1145467187499993
v -0.21954434734939443 0.4120262400435264 0.9230310937499995
v -0.5805987599564735 0.7730806526506057 1.1145467187499998
v -0.5805987599564735 0.7730806526506058 0.9230310937499997
v -0.7760000000000002 1.2448209764682086 1.1145467187499998
v -0.7760000000000002 1.2448209764682086 0.9230310937499998
v -0.7760000000000002 1.755429023531791 1.11454671875
v -0.7760000000000002 1.755429023531791 0.92303109375
v -0.5805987599564738 2.2271693473493936 1.1145467187500002
v -0.5805987599564738 2.2271693473493936 0.9230310937500004
v -0.2195443473493947 2.588223759956473 1.1145467187500004
v -0.2195443473493947 2.588223759956473 0.9230310937500004
v 0.252195976468208 2.783625 1.1145467187500007
v 0.252195976468208 2.783625 0.9230310937500005
vt 0.6785784858061158 0.9151512484679026
vt 0.5335993427784911 0.9752035757711734
vt 0.45513719596940305 0.5807477264808685
vt 0.8117854166666661 0.3044041666666667
vt 0.8117854166666661 0.10416666666666663
vt 0.8962645833333335 0.10416666666666663
vt 0.8962645833333335 0.3044041666666667
vt 0.37669789398015097 0.9754017996849065
vt 0.2317187509525263 0.9153494723816356
vt 0.4551600407892391 0.5809459503946015
vt 0.7895407179564371 0.8041890163175813
vt 0.6785784858061158 0.9151512484679026
vt 0.45513719596940305 0.5807477264808685
vt 0.8117854166666661 0.2419041666666667
vt 0.8117854166666661 0.04166666666666663
vt 0.8962645833333335 0.04166666666666663
vt 0.8962645833333335 0.2419041666666667
vt 0.2317187509525263 0.9153494723816356
vt 0.12075651880220503 0.8043872402313144
vt 0.4551600407892391 0.5809459503946015
vt 0.849593045259708 0.6592098732899567
vt 0.7895407179564371 0.8041890163175813
vt 0.45513719596940305 0.5807477264808685
vt 0.8117854166666661 0.20023750000000007
vt 0.8117854166666661 0
vt 0.8962645833333335 0
vt 0.8962645833333335 0.20023750000000007
vt 0.12075651880220503 0.8043872402313144
vt 0.060704191498934135 0.6594080972036898
vt 0.4551600407892391 0.5809459503946015
vt 0.849593045259708 0.5022855796717803
vt 0.849593045259708 0.6592098732899567
vt 0.45513719596940305 0.5807477264808685
vt 0.6873062499999995 0.3669041666666667
vt 0.6873062499999995 0.16666666666666663
vt 0.7723062500000001 0.16666666666666663
vt 0.7723062500000001 0.3669041666666667
vt 0.060704191498934135 0.6594080972036898
vt 0.060704191498934135 0.5024838035855135
vt 0.4551600407892391 0.5809459503946015
vt 0.7895407179564372 0.35730643664415573
vt 0.849593045259708 0.5022855796717803
vt 0.45513719596940305 0.5807477264808685
vt 0.6873062499999995 0.3044041666666667
vt 0.6873062499999995 0.10416666666666663
vt 0.7723062500000001 0.10416666666666663
vt 0.7723062500000001 0.3044041666666667
vt 0.060704191498934135 0.5024838035855135
vt 0.12075651880220484 0.3575046605578889
vt 0.4551600407892391 0.5809459503946015
vt 0.6785784858061158 0.24634420449383443
vt 0.7895407179564372 0.35730643664415573
vt 0.45513719596940305 0.5807477264808685
vt 0.6873062499999995 0.2419041666666667
vt 0.6873062499999995 0.04166666666666663
vt 0.7723062500000001 0.04166666666666663
vt 0.7723062500000001 0.2419041666666667
vt 0.12075651880220484 0.3575046605578889
vt 0.2317187509525263 0.24654242840756724
vt 0.4551600407892391 0.5809459503946015
vt 0.5335993427784912 0.1862918771905635
vt 0.6785784858061158 0.24634420449383443
vt 0.45513719596940305 0.5807477264808685
vt 0.6873062499999995 0.20023750000000007
vt 0.6873062499999995 0
vt 0.7723062500000001 0
vt 0.7723062500000001 0.20023750000000007
vt 0.2317187509525263 0.24654242840756724
vt 0.37669789398015086 0.18649010110429654
vt 0.4551600407892391 0.5809459503946015
vt 0.37667504916031475 0.1862918771905635
vt 0.5335993427784912 0.1862918771905635
vt 0.45513719596940305 0.5807477264808685
vt 0.5612645833333328 0.20023750000000007
vt 0.5612645833333328 0
vt 0.6462645833333335 0
vt 0.6462645833333335 0.20023750000000007
vt 0.37669789398015086 0.18649010110429654
vt 0.5336221875983274 0.18649010110429654
vt 0.4551600407892391 0.5809459503946015
vt 0.23169590613269087 0.2463442044938342
vt 0.37667504916031475 0.1862918771905635
vt 0.45513719596940305 0.5807477264808685
vt 0.5612645833333328 0.26273750000000007
vt 0.5612645833333328 0.0625
vt 0.6462645833333335 0.0625
vt 0.6462645833333335 0.26273750000000007
vt 0.5336221875983274 0.18649010110429654
vt 0.6786013306259518 0.24654242840756713
vt 0.4551600407892391 0.5809459503946015
vt 0.12073367398236937 0.35730643664415573
vt 0.23169590613269087 0.2463442044938342
vt 0.45513719596940305 0.5807477264808685
vt 0.5612645833333328 0.32523750000000007
vt 0.5612645833333328 0.125
vt 0.6462645833333335 0.125
vt 0.6462645833333335 0.32523750000000007
vt 0.6786013306259518 0.24654242840756713
vt 0.7895635627762733 0.35750466055788865
vt 0.4551600407892391 0.5809459503946015
vt 0.060681346679098365 0.5022855796717802
vt 0.12073367398236937 0.35730643664415573
vt 0.45513719596940305 0.5807477264808685
vt 0.5612645833333328 0.3669041666666667
vt 0.5612645833333328 0.16666666666666663
vt 0.6462645833333335 0.16666666666666663
vt 0.6462645833333335 0.3669041666666667
vt 0.7895635627762733 0.35750466055788865
vt 0.8496158900795443 0.5024838035855133
vt 0.4551600407892391 0.5809459503946015
vt 0.060681346679098365 0.6592098732899567
vt 0.060681346679098365 0.5022855796717802
vt 0.45513719596940305 0.5807477264808685
vt 0.8758479166666685 0.2419041666666667
vt 0.8758479166666685 0.04166666666666663
vt 0.9583333333333334 0.04166666666666663
vt 0.9583333333333334 0.2419041666666667
vt 0.8496158900795443 0.5024838035855133
vt 0.8496158900795443 0.6594080972036898
vt 0.4551600407892391 0.5809459503946015
vt 0.12073367398236927 0.8041890163175811
vt 0.060681346679098365 0.6592098732899567
vt 0.45513719596940305 0.5807477264808685
vt 0.8758479166666685 0.3044041666666667
vt 0.8758479166666685 0.10416666666666663
vt 0.9583333333333334 0.10416666666666663
vt 0.9583333333333334 0.3044041666666667
vt 0.8496158900795443 0.6594080972036898
vt 0.7895635627762734 0.8043872402313141
vt 0.4551600407892391 0.5809459503946015
vt 0.2316959061326907 0.9151512484679026
vt 0.12073367398236927 0.8041890163175811
vt 0.45513719596940305 0.5807477264808685
vt 0.8758479166666685 0.3669041666666667
vt 0.8758479166666685 0.16666666666666663
vt 0.9583333333333334 0.16666666666666663
vt 0.9583333333333334 0.3669041666666667
vt 0.7895635627762734 0.8043872402313141
vt 0.678601330625952 0.9153494723816356
vt 0.4551600407892391 0.5809459503946015
vt 0.37667504916031463 0.9752035757711733
vt 0.2316959061326907 0.9151512484679026
vt 0.45513719596940305 0.5807477264808685
vt 0.8758479166666685 0.20023750000000007
vt 0.8758479166666685 0
vt 0.9583333333333334 0
vt 0.9583333333333334 0.20023750000000007
vt 0.678601330625952 0.9153494723816356
vt 0.5336221875983275 0.9754017996849064
vt 0.4551600407892391 0.5809459503946015
vt 0.5335993427784911 0.9752035757711734
vt 0.37667504916031463 0.9752035757711733
vt 0.45513719596940305 0.5807477264808685
vt 0.8117854166666661 0.3669041666666667
vt 0.8117854166666661 0.16666666666666663
vt 0.8962645833333335 0.16666666666666663
vt 0.8962645833333335 0.3669041666666667
vt 0.5336221875983275 0.9754017996849064
vt 0.37669789398015097 0.9754017996849065
vt 0.4551600407892391 0.5809459503946015
vn 2.0314922886523628e-16 -6.459064532483718e-16 1
vn 0.38268343236509056 0.9238795325112866 0
vn -5.192163923733484e-17 4.428261127528134e-16 -1
vn 6.283669610809574e-17 -5.521526162276985e-16 1
vn 0.7071067811865474 0.7071067811865478 1.7029802912029713e-15
vn 2.446579600598011e-16 2.4465796005980156e-16 -1
vn 6.584393895691533e-18 -4.679650965734137e-16 1
vn 0.9238795325112866 0.38268343236509006 0
vn -4.983421955307956e-17 6.853966531283591e-16 -1
vn -4.324982565738823e-17 -2.1743155655494575e-16 1
vn 1 0 0
vn 0 4.348631131098917e-16 -1
vn -8.649965131477655e-17 -4.3486311310989185e-16 1
vn 0.9238795325112871 -0.3826834323650895 -2.838300485338285e-16
vn -3.666543176169678e-17 2.50533540018468e-16 -1
vn -1.2400118612304544e-16 -4.909881262127477e-16 1
vn 0.7071067811865476 -0.7071067811865475 0
vn 1.240011861230454e-16 4.909881262127475e-16 -1
vn 1.324079338540886e-16 -3.196610296763401e-16 1
vn 0.38268343236509006 -0.9238795325112866 0
vn 5.1921639237335294e-17 4.4282611275281355e-16 -1
vn 0 -3.4599860525910605e-16 1
vn 0 -1 0
vn 0 4.324982565738825e-16 -1
vn -1.324079338540883e-16 -3.1966102967634015e-16 1
vn -0.3826834323650892 -0.923879532511287 0
vn -5.1921639237335596e-17 4.4282611275281355e-16 -1
vn 1.2400118612304553e-16 -4.909881262127475e-16 1
vn -0.7071067811865478 -0.7071067811865474 -2.8383004853382786e-16
vn -1.240011861230455e-16 4.909881262127474e-16 -1
vn 8.649965131477671e-17 -4.3486311310989185e-16 1
vn -0.9238795325112867 -0.38268343236508984 0
vn 3.6665431761696626e-17 2.505335400184681e-16 -1
vn 4.324982565738828e-17 -2.1743155655494558e-16 1
vn -1 0 0
vn -1.1284652296099142e-31 4.3486311310989116e-16 -1
vn -6.5843938956916165e-18 -4.679650965734141e-16 1
vn -0.923879532511287 0.3826834323650894 0
vn 4.983421955307983e-17 6.853966531283601e-16 -1
vn -6.283669610809527e-17 -5.521526162276981e-16 1
vn -0.7071067811865474 0.7071067811865478 0
vn -2.4465796005980136e-16 2.446579600598015e-16 -1
vn -2.0314922886523692e-16 -6.459064532483721e-16 1
vn -0.38268343236509006 0.9238795325112868 0
vn 5.1921639237335213e-17 4.428261127528137e-16 -1
vn 5.266171071512932e-31 -6.054975592034357e-16 1
vn -8.69726226219782e-16 1 0
vn -3.7615507653663807e-31 4.324982565738827e-16 -1
usemtl m_d17c7c8b-978b-9b04-4279-6ab23b6cc502
f 1/1/1 2/2/1 3/3/1
f 2/4/2 1/5/2 4/6/2 5/7/2
f 5/8/3 4/9/3 6/10/3
f 7/11/4 1/12/4 3/13/4
f 1/14/5 7/15/5 8/16/5 4/17/5
f 4/18/6 8/19/6 6/20/6
f 9/21/7 7/22/7 3/23/7
f 7/24/8 9/25/8 10/26/8 8/27/8
f 8/28/9 10/29/9 6/30/9
f 11/31/10 9/32/10 3/33/10
f 9/34/11 11/35/11 12/36/11 10/37/11
f 10/38/12 12/39/12 6/40/12
f 13/41/13 11/42/13 3/43/13
f 11/44/14 13/45/14 14/46/14 12/47/14
f 12/48/15 14/49/15 6/50/15
f 15/51/16 13/52/16 3/53/16
f 13/54/17 15/55/17 16/56/17 14/57/17
f 14/58/18 16/59/18 6/60/18
f 17/61/19 15/62/19 3/63/19
f 15/64/20 17/65/20 18/66/20 16/67/20
f 16/68/21 18/69/21 6/70/21
f 19/71/22 17/72/22 3/73/22
f 17/74/23 19/75/23 20/76/23 18/77/23
f 18/78/24 20/79/24 6/80/24
f 21/81/25 19/82/25 3/83/25
f 19/84/26 21/85/26 22/86/26 20/87/26
f 20/88/27 22/89/27 6/90/27
f 23/91/28 21/92/28 3/93/28
f 21/94/29 23/95/29 24/96/29 22/97/29
f 22/98/30 24/99/30 6/100/30
f 25/101/31 23/102/31 3/103/31
f 23/104/32 25/105/32 26/106/32 24/107/32
f 24/108/33 26/109/33 6/110/33
f 27/111/34 25/112/34 3/113/34
f 25/114/35 27/115/35 28/116/35 26/117/35
f 26/118/36 28/119/36 6/120/36
f 29/121/37 27/122/37 3/123/37
f 27/124/38 29/125/38 30/126/38 28/127/38
f 28/128/39 30/129/39 6/130/39
f 31/131/40 29/132/40 3/133/40
f 29/134/41 31/135/41 32/136/41 30/137/41
f 30/138/42 32/139/42 6/140/42
f 33/141/43 31/142/43 3/143/43
f 31/144/44 33/145/44 34/146/44 32/147/44
f 32/148/45 34/149/45 6/150/45
f 2/151/46 33/152/46 3/153/46
f 33/154/47 2/155/47 5/156/47 34/157/47
f 34/158/48 5/159/48 6/160/48
o cube
v 0.6490624999999999 1.3585624999999997 1.17230484375
v 0.3659374999999998 1.3585624999999997 1.17230484375
v 0.3659374999999998 1.6416874999999997 1.17230484375
v 0.6490624999999999 1.6416874999999997 1.17230484375
v 0.6490624999999999 1.3585624999999997 0.98355484375
v 0.6490624999999999 1.6416874999999997 0.98355484375
v 0.3659374999999998 1.3585624999999997 0.98355484375
v 0.3659374999999998 1.6416874999999997 0.98355484375
vt 0.16666666666666666 0.0625
vt 0.16666666666666666 0
vt 0.10416666666666667 0
vt 0.10416666666666667 0.0625
vt 0.14583333333333334 0.0625
vt 0.14583333333333334 0
vt 0.10416666666666667 0
vt 0.10416666666666667 0.0625
vt 0.16666666666666666 0.0625
vt 0.16666666666666666 0
vt 0.10416666666666667 0
vt 0.10416666666666667 0.0625
vt 0.14583333333333334 0.0625
vt 0.14583333333333334 0
vt 0.10416666666666667 0
vt 0.10416666666666667 0.0625
vt 0.16666666666666666 0.0625
vt 0.16666666666666666 0.02083333333333337
vt 0.10416666666666667 0.02083333333333337
vt 0.10416666666666667 0.0625
vt 0.16666666666666666 0.0625
vt 0.16666666666666666 0.02083333333333337
vt 0.10416666666666667 0.02083333333333337
vt 0.10416666666666667 0.0625
vn 0 0 1
vn 1 0 0
vn 0 0 -1
vn -1 0 0
vn 0 1 0
vn 0 -1 0
usemtl m_d17c7c8b-978b-9b04-4279-6ab23b6cc502
f 37/161/49 36/162/49 35/163/49 38/164/49
f 38/165/50 35/166/50 39/167/50 40/168/50
f 40/169/51 39/170/51 41/171/51 42/172/51
f 42/173/52 41/174/52 36/175/52 37/176/52
f 38/177/53 40/178/53 42/179/53 37/180/53
f 39/181/54 35/182/54 36/183/54 41/184/54
o cube
v 0.5782812499999999 1.42934375 1.23128921875
v 0.4367187499999998 1.42934375 1.23128921875
v 0.4367187499999998 1.57090625 1.23128921875
v 0.5782812499999999 1.57090625 1.23128921875
v 0.5782812499999999 1.42934375 1.04253921875
v 0.5782812499999999 1.57090625 1.04253921875
v 0.4367187499999998 1.42934375 1.04253921875
v 0.4367187499999998 1.57090625 1.04253921875
vt 0.052083333333333336 0.16666666666666663
vt 0.052083333333333336 0.13541666666666663
vt 0.020833333333333332 0.13541666666666663
vt 0.020833333333333332 0.16666666666666663
vt 0.0625 0.16666666666666663
vt 0.0625 0.13541666666666663
vt 0.020833333333333332 0.13541666666666663
vt 0.020833333333333332 0.16666666666666663
vt 0.052083333333333336 0.16666666666666663
vt 0.052083333333333336 0.13541666666666663
vt 0.020833333333333332 0.13541666666666663
vt 0.020833333333333332 0.16666666666666663
vt 0.0625 0.16666666666666663
vt 0.0625 0.13541666666666663
vt 0.020833333333333332 0.13541666666666663
vt 0.020833333333333332 0.16666666666666663
vt 0.052083333333333336 0.16666666666666663
vt 0.052083333333333336 0.125
vt 0.020833333333333332 0.125
vt 0.020833333333333332 0.16666666666666663
vt 0.052083333333333336 0.16666666666666663
vt 0.052083333333333336 0.125
vt 0.020833333333333332 0.125
vt 0.020833333333333332 0.16666666666666663
vn 0 0 1
vn 1 0 0
vn 0 0 -1
vn -1 0 0
vn 0 1 0
vn 0 -1 0
usemtl m_d17c7c8b-978b-9b04-4279-6ab23b6cc502
f 45/185/55 44/186/55 43/187/55 46/188/55
f 46/189/56 43/190/56 47/191/56 48/192/56
f 48/193/57 47/194/57 49/195/57 50/196/57
f 50/197/58 49/198/58 44/199/58 45/200/58
f 46/201/59 48/202/59 50/203/59 45/204/59
f 47/205/60 43/206/60 44/207/60 49/208/60
o cube
v 0.6254687499999998 1.3821562499999995 1.37285171875
v 0.38953124999999966 1.3821562499999995 1.37285171875
v 0.38953124999999966 1.6180937499999999 1.37285171875
v 0.6254687499999998 1.6180937499999999 1.37285171875
v 0.6254687499999998 1.3821562499999995 1.2265704687499999
v 0.6254687499999998 1.6180937499999999 1.2265704687499999
v 0.38953124999999966 1.3821562499999995 1.2265704687499999
v 0.38953124999999966 1.6180937499999999 1.2265704687499999
vt 0.11458333333333333 0.08333333333333337
vt 0.11458333333333333 0.03125
vt 0.0625 0.03125
vt 0.0625 0.08333333333333337
vt 0.09479166666666665 0.08333333333333337
vt 0.09479166666666665 0.03125
vt 0.0625 0.03125
vt 0.0625 0.08333333333333337
vt 0.11458333333333333 0.08333333333333337
vt 0.11458333333333333 0.03125
vt 0.0625 0.03125
vt 0.0625 0.08333333333333337
vt 0.09479166666666665 0.08333333333333337
vt 0.09479166666666665 0.03125
vt 0.0625 0.03125
vt 0.0625 0.08333333333333337
vt 0.11458333333333333 0.08333333333333337
vt 0.11458333333333333 0.05104166666666676
vt 0.0625 0.05104166666666676
vt 0.0625 0.08333333333333337
vt 0.11458333333333333 0.08333333333333337
vt 0.11458333333333333 0.05104166666666676
vt 0.0625 0.05104166666666676
vt 0.0625 0.08333333333333337
vn 0 0 1
vn 1 0 0
vn 0 0 -1
vn -1 0 0
vn 0 1 0
vn 0 -1 0
usemtl m_d17c7c8b-978b-9b04-4279-6ab23b6cc502
f 53/209/61 52/210/61 51/211/61 54/212/61
f 54/213/62 51/214/62 55/215/62 56/216/62
f 56/217/63 55/218/63 57/219/63 58/220/63
f 58/221/64 57/222/64 52/223/64 53/224/64
f 54/225/65 56/226/65 58/227/65 53/228/65
f 55/229/66 51/230/66 52/231/66 57/232/66