# Made in Blockbench 4.11.2
mtllib hobbit_door_3x3_red_open.mtl

o cylinder
v 1.444812023422631 1.5882237599564728 0.4936874967865126
v 1.2642848171190915 1.783625 0.0578562669511824
v 1.1665841970973285 0.5001249999999999 -0.17801389495761955
v 1.6217493895162378 1.5882237599564728 0.42039764005996716
v 1.4412221832126986 1.783625 -0.015433589775363243
v 1.3435215631909356 0.5001250000000002 -0.25130375168416497
v 1.5829815653096695 1.2271693473493943 0.8272582787170775
v 1.7599189314032762 1.2271693473493948 0.7539684219905323
v 1.6577583825379212 0.7554290235317911 1.0077854850206167
v 1.8346957486315278 0.7554290235317911 0.9344956282940711
v 1.6577583825379212 0.244820976468209 1.0077854850206167
v 1.8346957486315283 0.24482097646820922 0.9344956282940711
v 1.58298156530967 -0.226919347349394 0.8272582787170775
v 1.759918931403277 -0.2269193473493939 0.7539684219905323
v 1.4448120234226318 -0.5879737599564732 0.49368749678651236
v 1.6217493895162387 -0.5879737599564732 0.42039764005996694
v 1.2642848171190926 -0.7833749999999999 0.0578562669511824
v 1.4412221832126995 -0.7833749999999999 -0.015433589775363021
v 1.0688835770755656 -0.7833749999999999 -0.4138840568664217
v 1.2458209431691725 -0.7833749999999999 -0.48717391359296713
v 0.8883563707720263 -0.5879737599564736 -0.8497152867017516
v 1.065293736865633 -0.5879737599564736 -0.9230051434282969
v 0.7501868288849877 -0.22691934734939434 -1.183286068632317
v 0.9271241949785944 -0.22691934734939423 -1.2565759253588622
v 0.6754100116567358 0.24482097646820855 -1.363813274935856
v 0.8523473777503427 0.24482097646820855 -1.4371031316624014
v 0.6754100116567356 0.7554290235317911 -1.363813274935856
v 0.8523473777503425 0.7554290235317911 -1.4371031316624014
v 0.7501868288849871 1.2271693473493939 -1.183286068632317
v 0.9271241949785938 1.2271693473493939 -1.2565759253588622
v 0.8883563707720252 1.5882237599564728 -0.8497152867017512
v 1.0652937368656321 1.5882237599564728 -0.9230051434282966
v 1.0688835770755643 1.7836249999999996 -0.4138840568664216
v 1.2458209431691711 1.7836249999999996 -0.487173913592967
vt 0.3392892429030579 0.9575756242339513
vt 0.26679967138924554 0.9876017878855867
vt 0.22756859798470153 0.7903738632404342
vt 0.9577604166666663 0.47511875000000003
vt 0.9577604166666663 0.375
vt 1 0.375
vt 1 0.47511875000000003
vt 0.1778862756196583 0.49890016756897204
vt 0.09627135863489077 0.4651038002615372
vt 0.22205595040557027 0.2769075260205879
vt 0.39477035897821855 0.9020945081587907
vt 0.3392892429030579 0.9575756242339513
vt 0.22756859798470153 0.7903738632404342
vt 0.9577604166666663 0.4022020833333334
vt 0.9577604166666663 0.30208333333333337
vt 1 0.30208333333333337
vt 1 0.4022020833333334
vt 0.09627135863489077 0.4651038002615372
vt 0.03380600550704515 0.4026562562043924
vt 0.22205595040557027 0.2769075260205879
vt 0.424796522629854 0.8296049366449784
vt 0.39477035897821855 0.9020945081587907
vt 0.22756859798470153 0.7903738632404342
vt 0.9577604166666663 0.31886875000000003
vt 0.9577604166666663 0.21875
vt 1 0.21875
vt 1 0.31886875000000003
vt 0.03380600550704515 0.4026562562043924
vt 0 0.321064607891841
vt 0.22205595040557027 0.2769075260205879
vt 0.424796522629854 0.7511427898358901
vt 0.424796522629854 0.8296049366449784
vt 0.22756859798470153 0.7903738632404342
vt 0.9574999999999997 0.2772020833333334
vt 0.9574999999999997 0.17708333333333337
vt 1 0.17708333333333337
vt 1 0.2772020833333334
vt 0 0.321064607891841
vt 0 0.2327504441493352
vt 0.22205595040557027 0.276907526020588
vt 0.3947703589782186 0.6786532183220779
vt 0.424796522629854 0.7511427898358901
vt 0.22756859798470153 0.7903738632404342
vt 0.9574999999999997 0.2459520833333334
vt 0.9574999999999997 0.14583333333333337
vt 1 0.14583333333333337
vt 1 0.2459520833333334
vt 0 0.2327504441493352
vt 0.03380600550704486 0.1511587958367837
vt 0.22205595040557027 0.276907526020588
vt 0.3392892429030579 0.6231721022469172
vt 0.3947703589782186 0.6786532183220779
vt 0.22756859798470153 0.7903738632404342
vt 0.9574999999999997 0.5480354166666668
vt 0.9574999999999997 0.44791666666666663
vt 1 0.44791666666666663
vt 1 0.5480354166666668
vt 0.03380600550704486 0.1511587958367837
vt 0.09627135863489066 0.08871125177963834
vt 0.22205595040557027 0.276907526020588
vt 0.2667996713892456 0.5931459385952818
vt 0.3392892429030579 0.6231721022469172
vt 0.22756859798470153 0.7903738632404342
vt 0.9574999999999997 0.19386875000000003
vt 0.9574999999999997 0.09375
vt 1 0.09375
vt 1 0.19386875000000003
vt 0.09627135863489066 0.08871125177963834
vt 0.1778862756196583 0.05491488447220372
vt 0.22205595040557027 0.276907526020588
vt 0.18833752458015737 0.5931459385952818
vt 0.2667996713892456 0.5931459385952818
vt 0.22756859798470153 0.7903738632404342
vt 0.9574999999999997 0.50636875
vt 0.9574999999999997 0.40625
vt 1 0.40625
vt 1 0.50636875
vt 0.1778862756196583 0.05491488447220372
vt 0.26622562519148235 0.05491488447220372
vt 0.22205595040557027 0.276907526020588
vt 0.11584795306634543 0.6231721022469172
vt 0.18833752458015737 0.5931459385952818
vt 0.22756859798470153 0.7903738632404342
vt 0.9574999999999997 0.1834520833333334
vt 0.9574999999999997 0.08333333333333337
vt 1 0.08333333333333337
vt 1 0.1834520833333334
vt 0.26622562519148235 0.05491488447220372
vt 0.34784054217625 0.08871125177963812
vt 0.22205595040557027 0.276907526020588
vt 0.06036683699118469 0.6786532183220779
vt 0.11584795306634543 0.6231721022469172
vt 0.22756859798470153 0.7903738632404342
vt 0.9574999999999997 0.5897020833333333
vt 0.9574999999999997 0.48958333333333337
vt 1 0.48958333333333337
vt 1 0.5897020833333333
vt 0.34784054217625 0.08871125177963812
vt 0.41030589530409567 0.15115879583678338
vt 0.22205595040557027 0.276907526020588
vt 0.030340673339549182 0.7511427898358901
vt 0.06036683699118469 0.6786532183220779
vt 0.22756859798470153 0.7903738632404342
vt 0.947083333333333 0.1209520833333334
vt 0.947083333333333 0.02083333333333337
vt 0.9895833333333334 0.02083333333333337
vt 0.9895833333333334 0.1209520833333334
vt 0.41030589530409567 0.15115879583678338
vt 0.4389020821419474 0.232750444149335
vt 0.22205595040557027 0.276907526020588
vt 0.030340673339549182 0.8296049366449784
vt 0.030340673339549182 0.7511427898358901
vt 0.22756859798470153 0.7903738632404342
vt 0.9587572916666676 0.48553541666666666
vt 0.9587572916666676 0.38541666666666663
vt 1 0.38541666666666663
vt 1 0.48553541666666666
vt 0.4389020821419474 0.232750444149335
vt 0.4389020821419474 0.321064607891841
vt 0.22205595040557027 0.276907526020588
vt 0.060366836991184634 0.9020945081587906
vt 0.030340673339549182 0.8296049366449784
vt 0.22756859798470153 0.7903738632404342
vt 0.9587572916666676 0.45428541666666666
vt 0.9587572916666676 0.35416666666666663
vt 1 0.35416666666666663
vt 1 0.45428541666666666
vt 0.4389020821419474 0.321064607891841
vt 0.41030589530409584 0.40265625620439205
vt 0.22205595040557027 0.2769075260205879
vt 0.11584795306634536 0.9575756242339513
vt 0.060366836991184634 0.9020945081587906
vt 0.22756859798470153 0.7903738632404342
vt 0.9587572916666676 0.6522020833333333
vt 0.9587572916666676 0.5520833333333333
vt 1 0.5520833333333333
vt 1 0.6522020833333333
vt 0.41030589530409584 0.40265625620439205
vt 0.3478405421762501 0.4651038002615372
vt 0.22205595040557027 0.2769075260205879
vt 0.18833752458015732 0.9876017878855867
vt 0.11584795306634536 0.9575756242339513
vt 0.22756859798470153 0.7903738632404342
vt 0.9587572916666676 0.56886875
vt 0.9587572916666676 0.46875
vt 1 0.46875
vt 1 0.56886875
vt 0.3478405421762501 0.4651038002615372
vt 0.26622562519148235 0.49890016756897193
vt 0.22205595040557027 0.2769075260205879
vt 0.26679967138924554 0.9876017878855867
vt 0.18833752458015732 0.9876017878855867
vt 0.22756859798470153 0.7903738632404342
vt 0.9577604166666663 0.16261875000000003
vt 0.9577604166666663 0.0625
vt 1 0.0625
vt 1 0.16261875000000003
vt 0.26622562519148235 0.49890016756897193
vt 0.1778862756196583 0.49890016756897204
vt 0.22205595040557027 0.2769075260205879
vn -0.9238795325112867 -6.459064532483716e-16 0.3826834323650901
vn 0.14644660940672652 0.9238795325112866 0.35355339059327434
vn 0.9238795325112866 4.4282611275281335e-16 -0.3826834323650899
vn -0.9238795325112866 -5.521526162276983e-16 0.3826834323650899
vn 0.270598050073097 0.7071067811865475 0.653281482438189
vn 0.9238795325112867 2.4465796005980146e-16 -0.3826834323650896
vn -0.9238795325112866 -4.679650965734136e-16 0.38268343236508984
vn 0.3535533905932739 0.3826834323650896 0.8535533905932738
vn 0.9238795325112866 6.853966531283587e-16 -0.3826834323650899
vn -0.9238795325112868 -2.1743155655494575e-16 0.3826834323650899
vn 0.38268343236508984 0 0.9238795325112866
vn 0.9238795325112866 4.348631131098916e-16 -0.38268343236508984
vn -0.9238795325112868 -4.3486311310989185e-16 0.3826834323650899
vn 0.3535533905932741 -0.382683432365089 0.8535533905932741
vn 0.9238795325112866 2.5053354001846793e-16 -0.3826834323650899
vn -0.9238795325112868 -4.909881262127477e-16 0.38268343236508984
vn 0.2705980500730987 -0.7071067811865472 0.6532814824381885
vn 0.9238795325112868 4.909881262127476e-16 -0.38268343236508984
vn -0.9238795325112866 -3.196610296763401e-16 0.38268343236508995
vn 0.1464466094067263 -0.9238795325112868 0.3535533905932738
vn 0.9238795325112868 4.4282611275281345e-16 -0.3826834323650899
vn -0.9238795325112866 -3.4599860525910596e-16 0.38268343236508984
vn 0 -1 0
vn 0.9238795325112866 4.324982565738824e-16 -0.38268343236508984
vn -0.9238795325112868 -3.196610296763402e-16 0.38268343236508984
vn -0.1464466094067261 -0.923879532511287 -0.3535533905932733
vn 0.9238795325112866 4.4282611275281335e-16 -0.3826834323650899
vn -0.9238795325112866 -4.909881262127474e-16 0.38268343236508995
vn -0.2705980500730982 -0.7071067811865475 -0.6532814824381887
vn 0.9238795325112866 4.909881262127472e-16 -0.38268343236508995
vn -0.9238795325112866 -4.3486311310989175e-16 0.3826834323650899
vn -0.35355339059327384 -0.3826834323650897 -0.8535533905932736
vn 0.9238795325112868 2.5053354001846813e-16 -0.3826834323650899
vn -0.9238795325112866 -2.1743155655494553e-16 0.3826834323650899
vn -0.38268343236508984 0 -0.9238795325112866
vn 0.9238795325112866 4.3486311310989106e-16 -0.38268343236508984
vn -0.9238795325112866 -4.67965096573414e-16 0.38268343236508984
vn -0.35355339059327395 0.38268343236508945 -0.8535533905932738
vn 0.9238795325112868 6.853966531283601e-16 -0.3826834323650899
vn -0.9238795325112868 -5.521526162276982e-16 0.3826834323650899
vn -0.27059805007309856 0.7071067811865478 -0.6532814824381882
vn 0.9238795325112867 2.4465796005980146e-16 -0.38268343236509017
vn -0.9238795325112867 -6.459064532483721e-16 0.38268343236508967
vn -0.1464466094067264 0.9238795325112866 -0.35355339059327406
vn 0.9238795325112868 4.428261127528136e-16 -0.3826834323650899
vn -0.9238795325112866 -6.054975592034355e-16 0.38268343236508984
vn -3.3282981746772283e-16 1 -8.035222592927379e-16
vn 0.9238795325112866 4.3249825657388257e-16 -0.38268343236508984
usemtl m_9f938c52-aa20-7c78-1a13-51f027c55098
f 1/1/1 2/2/1 3/3/1
f 2/4/2 1/5/2 4/6/2 5/7/2
f 5/8/3 4/9/3 6/10/3
f 7/11/4 1/12/4 3/13/4
f 1/14/5 7/15/5 8/16/5 4/17/5
f 4/18/6 8/19/6 6/20/6
f 9/21/7 7/22/7 3/23/7
f 7/24/8 9/25/8 10/26/8 8/27/8
f 8/28/9 10/29/9 6/30/9
f 11/31/10 9/32/10 3/33/10
f 9/34/11 11/35/11 12/36/11 10/37/11
f 10/38/12 12/39/12 6/40/12
f 13/41/13 11/42/13 3/43/13
f 11/44/14 13/45/14 14/46/14 12/47/14
f 12/48/15 14/49/15 6/50/15
f 15/51/16 13/52/16 3/53/16
f 13/54/17 15/55/17 16/56/17 14/57/17
f 14/58/18 16/59/18 6/60/18
f 17/61/19 15/62/19 3/63/19
f 15/64/20 17/65/20 18/66/20 16/67/20
f 16/68/21 18/69/21 6/70/21
f 19/71/22 17/72/22 3/73/22
f 17/74/23 19/75/23 20/76/23 18/77/23
f 18/78/24 20/79/24 6/80/24
f 21/81/25 19/82/25 3/83/25
f 19/84/26 21/85/26 22/86/26 20/87/26
f 20/88/27 22/89/27 6/90/27
f 23/91/28 21/92/28 3/93/28
f 21/94/29 23/95/29 24/96/29 22/97/29
f 22/98/30 24/99/30 6/100/30
f 25/101/31 23/102/31 3/103/31
f 23/104/32 25/105/32 26/106/32 24/107/32
f 24/108/33 26/109/33 6/110/33
f 27/111/34 25/112/34 3/113/34
f 25/114/35 27/115/35 28/116/35 26/117/35
f 26/118/36 28/119/36 6/120/36
f 29/121/37 27/122/37 3/123/37
f 27/124/38 29/125/38 30/126/38 28/127/38
f 28/128/39 30/129/39 6/130/39
f 31/131/40 29/132/40 3/133/40
f 29/134/41 31/135/41 32/136/41 30/137/41
f 30/138/42 32/139/42 6/140/42
f 33/141/43 31/142/43 3/143/43
f 31/144/44 33/145/44 34/146/44 32/147/44
f 32/148/45 34/149/45 6/150/45
f 2/151/46 33/152/46 3/153/46
f 33/154/47 2/155/47 5/156/47 34/157/47
f 34/158/48 5/159/48 6/160/48
o cube
v 1.1096538001858278 0.3585624999999997 -0.001206406591700404
v 1.0013065533974617 0.3585624999999997 -0.2627797992339585
v 1.0013065533974617 0.6416874999999997 -0.2627797992339585
v 1.1096538001858278 0.6416874999999997 -0.001206406591700404
v 1.2840360619473332 0.3585624999999997 -0.0734379044506111
v 1.2840360619473332 0.6416874999999997 -0.0734379044506111
v 1.175688815158967 0.3585624999999997 -0.3350112970928692
v 1.175688815158967 0.6416874999999997 -0.3350112970928692
vt 0.08333333333333333 0.53125
vt 0.08333333333333333 0.5
vt 0.052083333333333336 0.5
vt 0.052083333333333336 0.53125
vt 0.07291666666666667 0.53125
vt 0.07291666666666667 0.5
vt 0.052083333333333336 0.5
vt 0.052083333333333336 0.53125
vt 0.08333333333333333 0.53125
vt 0.08333333333333333 0.5
vt 0.052083333333333336 0.5
vt 0.052083333333333336 0.53125
vt 0.07291666666666667 0.53125
vt 0.07291666666666667 0.5
vt 0.052083333333333336 0.5
vt 0.052083333333333336 0.53125
vt 0.08333333333333333 0.53125
vt 0.08333333333333333 0.5104166666666667
vt 0.052083333333333336 0.5104166666666667
vt 0.052083333333333336 0.53125
vt 0.08333333333333333 0.53125
vt 0.08333333333333333 0.5104166666666667
vt 0.052083333333333336 0.5104166666666667
vt 0.052083333333333336 0.53125
vn -0.9238795325112866 0 0.38268343236508984
vn 0.38268343236508984 0 0.9238795325112866
vn 0.9238795325112866 0 -0.38268343236508984
vn -0.38268343236508984 0 -0.9238795325112866
vn 0 1 0
vn 0 -1 0
usemtl m_9f938c52-aa20-7c78-1a13-51f027c55098
f 37/161/49 36/162/49 35/163/49 38/164/49
f 38/165/50 35/166/50 39/167/50 40/168/50
f 40/169/51 39/170/51 41/171/51 42/172/51
f 42/173/52 41/174/52 36/175/52 37/176/52
f 38/177/53 40/178/53 42/179/53 37/180/53
f 39/181/54 35/182/54 36/183/54 41/184/54
o cube
v 1.0280725316882657 0.4293437499999999 -0.04402741167135532
v 0.9738989082940828 0.4293437499999999 -0.17481410799248437
v 0.9738989082940828 0.57090625 -0.17481410799248437
v 1.0280725316882657 0.57090625 -0.04402741167135532
v 1.2024547934497711 0.4293437499999999 -0.11625890953026602
v 1.2024547934497711 0.57090625 -0.11625890953026602
v 1.1482811700555882 0.4293437499999999 -0.24704560585139507
v 1.1482811700555882 0.57090625 -0.24704560585139507
vt 0.026041666666666668 0.5833333333333333
vt 0.026041666666666668 0.5677083333333333
vt 0.010416666666666666 0.5677083333333333
vt 0.010416666666666666 0.5833333333333333
vt 0.03125 0.5833333333333333
vt 0.03125 0.5677083333333333
vt 0.010416666666666666 0.5677083333333333
vt 0.010416666666666666 0.5833333333333333
vt 0.026041666666666668 0.5833333333333333
vt 0.026041666666666668 0.5677083333333333
vt 0.010416666666666666 0.5677083333333333
vt 0.010416666666666666 0.5833333333333333
vt 0.03125 0.5833333333333333
vt 0.03125 0.5677083333333333
vt 0.010416666666666666 0.5677083333333333
vt 0.010416666666666666 0.5833333333333333
vt 0.026041666666666668 0.5833333333333333
vt 0.026041666666666668 0.5625
vt 0.010416666666666666 0.5625
vt 0.010416666666666666 0.5833333333333333
vt 0.026041666666666668 0.5833333333333333
vt 0.026041666666666668 0.5625
vt 0.010416666666666666 0.5625
vt 0.010416666666666666 0.5833333333333333
vn -0.9238795325112866 0 0.38268343236508984
vn 0.38268343236508984 0 0.9238795325112866
vn 0.9238795325112866 0 -0.38268343236508984
vn -0.38268343236508984 0 -0.9238795325112866
vn 0 1 0
vn 0 -1 0
usemtl m_9f938c52-aa20-7c78-1a13-51f027c55098
f 45/185/55 44/186/55 43/187/55 46/188/55
f 46/189/56 43/190/56 47/191/56 48/192/56
f 48/193/57 47/194/57 49/195/57 50/196/57
f 50/197/58 49/198/58 44/199/58 45/200/58
f 46/201/59 48/202/59 50/203/59 45/204/59
f 47/205/60 43/206/60 44/207/60 49/208/60
o cube
v 0.9153437098318645 0.38215624999999953 0.05374177716320394
v 0.8250543375082261 0.38215624999999953 -0.1642360500386778
v 0.8250543375082261 0.6180937499999999 -0.1642360500386778
v 0.9153437098318645 0.6180937499999999 0.05374177716320394
v 1.0504899626970312 0.38215624999999953 -0.0022376336774519445
v 1.0504899626970312 0.6180937499999999 -0.0022376336774519445
v 0.9602005903733928 0.38215624999999953 -0.2202154608793337
v 0.9602005903733928 0.6180937499999999 -0.2202154608793337
vt 0.057291666666666664 0.5416666666666667
vt 0.057291666666666664 0.515625
vt 0.03125 0.515625
vt 0.03125 0.5416666666666667
vt 0.047395833333333325 0.5416666666666667
vt 0.047395833333333325 0.515625
vt 0.03125 0.515625
vt 0.03125 0.5416666666666667
vt 0.057291666666666664 0.5416666666666667
vt 0.057291666666666664 0.515625
vt 0.03125 0.515625
vt 0.03125 0.5416666666666667
vt 0.047395833333333325 0.5416666666666667
vt 0.047395833333333325 0.515625
vt 0.03125 0.515625
vt 0.03125 0.5416666666666667
vt 0.057291666666666664 0.5416666666666667
vt 0.057291666666666664 0.5255208333333334
vt 0.03125 0.5255208333333334
vt 0.03125 0.5416666666666667
vt 0.057291666666666664 0.5416666666666667
vt 0.057291666666666664 0.5255208333333334
vt 0.03125 0.5255208333333334
vt 0.03125 0.5416666666666667
vn -0.9238795325112866 0 0.38268343236508984
vn 0.38268343236508984 0 0.9238795325112866
vn 0.9238795325112866 0 -0.38268343236508984
vn -0.38268343236508984 0 -0.9238795325112866
vn 0 1 0
vn 0 -1 0
usemtl m_9f938c52-aa20-7c78-1a13-51f027c55098
f 53/209/61 52/210/61 51/211/61 54/212/61
f 54/213/62 51/214/62 55/215/62 56/216/62
f 56/217/63 55/218/63 57/219/63 58/220/63
f 58/221/64 57/222/64 52/223/64 53/224/64
f 54/225/65 56/226/65 58/227/65 53/228/65
f 55/229/66 51/230/66 52/231/66 57/232/66