# Made in Blockbench 4.8.1
mtllib larch_large_sapling_tilted_3.mtl

o plane
v 0.9484367711339579 3.229885850080736 0.3865541169864034
v 0.9484367711339534 -0.5849819529121723 -0.8162690810306881
v 0.060012912305985655 2.407669746025174 2.994290439028359
v 0.060012912305981214 -1.407198056967734 1.7914672410112673
vt 0.859375 -0.0078125
vt 0.140625 -0.0078125
vt 0.140625 0.9921875
vt 0.859375 0.9921875
vt 0.140625 0.9921875
vt 0.140625 -0.0078125
vt 0.859375 -0.0078125
vt 0.859375 0.9921875
vn 0.9510565162951539 -0.09292320235392683 0.29471474560465605
vn -0.9510565162951539 0.09292320235392683 -0.29471474560465605
usemtl m_c2356ea5-b804-a29d-3f52-aebcbfcf9648
f 4/1/1 2/2/1 1/3/1 3/4/1
f 1/5/2 2/6/2 4/7/2 3/8/2
o plane
v 1.9150625933349672 2.8691312159448 1.5307216395403835
v 1.9150625933349685 -0.945736587048108 0.32789844152329195
v -0.9369516369942131 2.7600285254518093 1.8767511656317915
v -0.936951636994212 -1.0548392775410984 0.6739279676147001
vt 0.1171875 0
vt 0.8359375 0
vt 0.8359375 1
vt 0.1171875 1
vt 0.8359375 1
vt 0.8359375 0
vt 0.1171875 0
vt 0.1171875 1
vn 0.12619896913583084 -0.29830164150563476 0.9460919357356861
vn -0.12619896913583084 0.29830164150563476 -0.9460919357356861
usemtl m_33055d29-f801-50cf-c9d7-77f2e7905be8
f 8/9/3 6/10/3 5/11/3 7/12/3
f 5/13/4 6/14/4 8/15/4 7/16/4
o plane
v 1.4045749459884012 2.463560815811147 2.817026612596643
v 1.404574945988399 -1.3513069871817605 1.6142034145795523
v -0.3555497341106417 3.14713501955411 0.6490062209758891
v -0.35554973411064383 -0.6677327834387972 -0.5538169770412016
vt 0.140625 0
vt 0.859375 0
vt 0.859375 1
vt 0.140625 1
vt 0.859375 1
vt 0.859375 0
vt 0.140625 0
vt 0.140625 1
vn -0.7906895737438429 -0.1840972866630901 0.5838819975098293
vn 0.7906895737438429 0.1840972866630901 -0.5838819975098293
usemtl m_480d4b62-54db-3dd8-60e3-749b05744c8b
f 12/17/5 10/18/5 9/19/5 11/20/5
f 9/21/6 10/22/6 12/23/6 11/24/6