# Made in Blockbench 4.8.1
mtllib larch_leaves_slab_diagonal_2.mtl

o plane
v 0.30020741341709956 0.12095952285124478 1.7641382350891393
v 1.5150284516164447 0.3280022299149204 0.9048795108062488
v -0.5759562408700536 0.2338128149262616 0.5526095538875708
v 0.6388647973292914 0.44085552198993727 -0.3066491703953198
v 0.02231412534429944 0.8497982902356415 0.17732602275061504
v 0.8984777796314527 0.7369449981606246 1.3888547039521837
vt 0.5408593749999997 0.5606249999999998
vt 0.5408593749999997 0.24562499999999998
vt 0.4424218749999997 0.24562499999999998
vt 0.4424218749999997 0.5606249999999998
vt 0.5417437499999997 0.24562499999999998
vt 0.5417437499999997 0.5606249999999998
vt 0.6346093749999997 0.5606249999999998
vt 0.6346093749999997 0.24562499999999998
vt 0.6346093749999997 0.5606249999999998
vt 0.5417437499999997 0.5606249999999998
vt 0.5417437499999997 0.24562499999999998
vt 0.6346093749999997 0.24562499999999998
vt 0.4424218749999997 0.24562499999999998
vt 0.5408593749999997 0.24562499999999998
vt 0.5408593749999997 0.5606249999999998
vt 0.4424218749999997 0.5606249999999998
vn 0.500974629211821 -0.7498488241974277 -0.43214715287250693
vn -0.4149571548601021 -0.8833863412997305 0.2178052608076436
vn 0.4149571548601021 0.8833863412997305 -0.2178052608076436
vn -0.500974629211821 0.7498488241974277 0.43214715287250693
usemtl m_12471031-f55b-079a-b844-a4f954b61df9
f 5/1/1 6/2/1 1/3/1 3/4/1
f 6/5/2 5/6/2 4/7/2 2/8/2
f 4/9/3 5/10/3 6/11/3 2/12/3
f 1/13/4 6/14/4 5/15/4 3/16/4
o plane
v -0.08889966365699964 0.340781673781407 0.7420746863971812
v 0.6646182019717582 0.3381381570111668 0.21974149484473304
v -0.48854821633675294 0.23674250166530275 0.1660682215841779
v 0.26496964929200484 0.23409898489506265 -0.3562649699682704
v 0.14594018530199593 0.5240045898364377 -0.3260423684119035
v 0.5455887379817493 0.6280437619525419 0.2499640964011
v -0.20731848072354198 0.7830691731775848 -0.1277347854226171
v 0.19233007195621138 0.887108345293689 0.4482716793903864
v -0.4350604239605411 0.5188056752098394 0.07801029000233473
v -0.03541187128078782 0.6228448473259436 0.6540167548153382
vt 0.8183333333333334 0.4730902777777778
vt 0.7395833333333334 0.4730902777777778
vt 0.7395833333333334 0.4063583333333334
vt 0.8183333333333334 0.4063583333333334
vt 0.2981770833333333 0.3272569444444444
vt 0.37692708333333336 0.3272569444444444
vt 0.37692708333333336 0.2572916666666667
vt 0.2981770833333333 0.2572916666666667
vt 0.37692708333333336 0.2572916666666667
vt 0.37692708333333336 0.3272569444444444
vt 0.2981770833333333 0.3272569444444444
vt 0.2981770833333333 0.2572916666666667
vt 0.2981770833333333 0.4383680555555556
vt 0.37692708333333336 0.4383680555555556
vt 0.37692708333333336 0.3315083333333333
vt 0.2981770833333333 0.3315083333333333
vt 0.37692708333333336 0.3315083333333333
vt 0.37692708333333336 0.4383680555555556
vt 0.2981770833333333 0.4383680555555556
vt 0.2981770833333333 0.3315083333333333
vt 0.7395833333333334 0.48030972222222224
vt 0.8183333333333334 0.48030972222222224
vt 0.8183333333333334 0.5703125
vt 0.7395833333333334 0.5703125
vt 0.8183333333333334 0.5703125
vt 0.8183333333333334 0.48030972222222224
vt 0.7395833333333334 0.48030972222222224
vt 0.7395833333333334 0.5703125
vt 0.7395833333333334 0.4063583333333334
vt 0.7395833333333334 0.4730902777777778
vt 0.8183333333333334 0.4730902777777778
vt 0.8183333333333334 0.4063583333333334
vn 0.8064210533129912 -0.3101119146754194 -0.5035034112594585
vn -0.7342432922899343 -0.36137909824067804 0.5747103053556569
vn 0.7342432922899343 0.36137909824067804 -0.5747103053556569
vn -0.37730615876229456 -0.8295810638284052 0.4116252192193449
vn 0.37730615876229456 0.8295810638284052 -0.4116252192193449
vn 0.6048520305323241 -0.743446227348626 -0.2853799716203296
vn -0.6048520305323241 0.743446227348626 0.2853799716203296
vn -0.8064210533129912 0.3101119146754194 0.5035034112594585
usemtl m_12471031-f55b-079a-b844-a4f954b61df9
f 15/17/5 16/18/5 7/19/5 9/20/5
f 12/21/6 11/22/6 10/23/6 8/24/6
f 10/25/7 11/26/7 12/27/7 8/28/7
f 14/29/8 13/30/8 11/31/8 12/32/8
f 11/33/9 13/34/9 14/35/9 12/36/9
f 16/37/10 15/38/10 13/39/10 14/40/10
f 13/41/11 15/42/11 16/43/11 14/44/11
f 7/45/12 16/46/12 15/47/12 9/48/12
o cube
v -0.43103929233307386 0.6931853115438569 0.32119817975824383
v -0.43103929233307386 0.6931853115438569 0.32119817975824383
v 0.43008337764962945 0.5798528072855224 -0.062981045994571
v 0.43008337764962945 0.5798528072855224 -0.062981045994571
v -0.7577203829529652 0.03769941510173358 -0.21767696225908928
v -0.7577203829529652 0.03769941510173358 -0.21767696225908928
v 0.10340228702973814 -0.07563308915660094 -0.6018561880119041
v 0.10340228702973814 -0.07563308915660094 -0.6018561880119041
vt 0.3923396855555558 0.46803643111111115
vt 0.2913098822222222 0.46803643111111115
vt 0.2913098822222222 0.2569872955555551
vt 0.3923396855555558 0.2569872955555551
vt 0.3923396855555558 0.2569872955555551
vt 0.2913098822222222 0.2569872955555551
vt 0.2913098822222222 0.46803643111111115
vt 0.3923396855555558 0.46803643111111115
vn 0.22089250485683976 -0.6826945145012508 0.6965161169477505
vn -0.22089250485683976 0.6826945145012508 -0.6965161169477505
usemtl m_12471031-f55b-079a-b844-a4f954b61df9
f 19/49/13 17/50/13 21/51/13 23/52/13
f 24/53/14 22/54/14 18/55/14 20/56/14
o plane
v -0.4400190861714723 0.24461344187312722 0.4962578696790859
v 0.4877702642925047 0.13636026640007237 -0.14306847200067918
v -1.0696265002819252 -0.3491365581268727 -0.31689137344738255
v -0.14183714981794826 -0.45738973359992763 -0.9562177151271476
v -0.35066533761993257 -0.08932893699154143 -1.0632784095897387
v 0.2789420764905203 0.5044210630084586 -0.2501291664632702
v -0.8161815150617787 0.19212931923840126 -0.9083540852617114
v -0.18657410095132582 0.7858793192384013 -0.09520484213524283
v -1.061119682400875 0.008098920934208054 -0.5843263162197405
v -0.4315122682904222 0.601848920934208 0.228822926906728
vt 0.1654947916666667 0.13107638888888884
vt 0.033550347222222214 0.13107638888888884
vt 0.033550347222222214 0.03189166666666665
vt 0.1654947916666667 0.03189166666666665
vt 0.4600694444444444 0.8129340277777778
vt 0.328125 0.8129340277777778
vt 0.328125 0.7258590277777777
vt 0.4600694444444444 0.7258590277777777
vt 0.328125 0.7258590277777777
vt 0.328125 0.8129340277777778
vt 0.4600694444444444 0.8129340277777778
vt 0.4600694444444444 0.7258590277777777
vt 0.4600694444444444 0.9396701388888888
vt 0.328125 0.9396701388888888
vt 0.328125 0.8096923611111111
vt 0.4600694444444444 0.8096923611111111
vt 0.328125 0.8096923611111111
vt 0.328125 0.9396701388888888
vt 0.4600694444444444 0.9396701388888888
vt 0.4600694444444444 0.8096923611111111
vt 0.03298611111111111 0.12807361111111115
vt 0.16493055555555555 0.12807361111111115
vt 0.16493055555555555 0.23611111111111116
vt 0.03298611111111111 0.23611111111111116
vt 0.16493055555555555 0.23611111111111116
vt 0.16493055555555555 0.12807361111111115
vt 0.03298611111111111 0.12807361111111115
vt 0.03298611111111111 0.23611111111111116
vt 0.03355034722222225 0.03189166666666665
vt 0.03355034722222225 0.13107638888888884
vt 0.16549479166666675 0.13107638888888884
vt 0.16549479166666675 0.03189166666666665
vn 0.8476610399800356 -0.3307368292798819 -0.4148299784946299
vn -0.7000148252417148 -0.19755269657676167 0.6862595547728728
vn 0.7000148252417148 0.19755269657676167 -0.6862595547728728
vn -0.20379139580094613 -0.7087904072950686 0.6753408217515012
vn 0.20379139580094613 0.7087904072950686 -0.6753408217515012
vn 0.6459048563437758 -0.7613736225460022 0.05583120491897174
vn -0.6459048563437758 0.7613736225460022 -0.05583120491897174
vn -0.8476610399800356 0.3307368292798819 0.4148299784946299
usemtl m_12471031-f55b-079a-b844-a4f954b61df9
f 33/57/15 34/58/15 25/59/15 27/60/15
f 30/61/16 29/62/16 28/63/16 26/64/16
f 28/65/17 29/66/17 30/67/17 26/68/17
f 32/69/18 31/70/18 29/71/18 30/72/18
f 29/73/19 31/74/19 32/75/19 30/76/19
f 34/77/20 33/78/20 31/79/20 32/80/20
f 31/81/21 33/82/21 34/83/21 32/84/21
f 25/85/22 34/86/22 33/87/22 27/88/22