# Made in Blockbench 4.8.1
mtllib larch_leaves_2.mtl

o cube
v 1.340443034174257 -0.32569140409987263 0.46524152061702195
v 1.340443034174257 -0.32569140409987263 0.46524152061702195
v 0.44101464695022286 -0.06347237796429894 -0.28415857303637604
v 0.44101464695022286 -0.06347237796429894 -0.28415857303637604
v 1.0253653589752016 0.6822494618684005 1.1960808708778217
v 1.0253653589752016 0.6822494618684005 1.1960808708778217
v 0.12593697175116747 0.9444684880039742 0.4466807772244237
v 0.12593697175116747 0.9444684880039742 0.4466807772244237
vt 0.630859375 0.6676957499999998
vt 0.630859375 0.9375
vt 0.7568805000000002 0.9375
vt 0.7568805000000002 0.6676957499999998
vt 0.630859375 0.9375
vt 0.630859375 0.6676957499999998
vt 0.7568805000000002 0.6676957499999998
vt 0.7568805000000002 0.9375
vn 0.6146243957373634 0.5798792466986582 -0.5347680912439313
vn -0.6146243957373634 -0.5798792466986582 0.5347680912439313
usemtl m_12471031-f55b-079a-b844-a4f954b61df9
f 4/4/1 7/3/1 5/2/1 2/1/1
f 8/8/2 3/7/2 1/6/2 6/5/2
o cube
v 1.8512455146191846 1.4901831879718967 0.7849168865416556
v 1.8512455146191846 1.4901831879718967 0.7849168865416556
v 2.318795568300578 0.36889167645254206 -0.004868981642621062
v 2.318795568300578 0.36889167645254206 -0.004868981642621062
v 0.16644512859578742 0.9245483633653777 0.5905768892592143
v 0.16644512859578742 0.9245483633653777 0.5905768892592143
v 0.6339951822771805 -0.19674314815397687 -0.1992089789250624
v 0.6339951822771805 -0.19674314815397687 -0.1992089789250624
vt 0.8641826250000005 0.0625
vt 0.8641826250000005 0.3669159999999999
vt 0.6763875000000003 0.3669159999999999
vt 0.6763875000000003 0.0625
vt 0.8635763750000002 0.3669159999999999
vt 0.8635763750000002 0.0625
vt 0.67578125 0.0625
vt 0.67578125 0.3669159999999999
vn -0.0883274386981218 0.5487186366363597 -0.831327926501308
vn 0.0883274386981218 -0.5487186366363597 0.831327926501308
usemtl m_12471031-f55b-079a-b844-a4f954b61df9
f 12/12/3 15/11/3 13/10/3 10/9/3
f 16/16/4 11/15/4 9/14/4 14/13/4
o plane
v 0.43030504041981416 1.0883576871512561 0.542200999120219
v 1.2350027077057208 0.017997553556120538 -0.15788423804724472
v -0.8331257222655901 0.3455896889089205 0.22559593174565695
v -0.02842805497968337 -0.7247704446862153 -0.4744893054218068
v -0.4648356329705313 -0.05211048004791552 -0.3110665778591267
v 0.7985951297148729 0.6906575181944201 0.005538489515435396
vt 0.33203125 0.80073125
vt 0.48953125 0.80073125
vt 0.48953125 0.9609765625
vt 0.33203125 0.9609765625
vt 0.48953125 0.7969140625
vt 0.33203125 0.7969140625
vt 0.33203125 0.625
vt 0.48953125 0.625
vt 0.33203125 0.625
vt 0.33203125 0.7969140625
vt 0.48953125 0.7969140625
vt 0.48953125 0.625
vt 0.48953125 0.9609765625
vt 0.48953125 0.80073125
vt 0.33203125 0.80073125
vt 0.33203125 0.9609765625
vn 0.2384405479835248 -0.6948028545153316 0.6785242062260293
vn -0.0746409188273387 -0.2808881637507351 0.9568336180869437
vn 0.0746409188273387 0.2808881637507351 -0.9568336180869437
vn -0.2384405479835248 0.6948028545153316 -0.6785242062260293
usemtl m_12471031-f55b-079a-b844-a4f954b61df9
f 21/17/5 22/18/5 17/19/5 19/20/5
f 22/21/6 21/22/6 20/23/6 18/24/6
f 20/25/7 21/26/7 22/27/7 18/28/7
f 17/29/8 22/30/8 21/31/8 19/32/8
o plane
v 0.006520481979882364 0.8611743837285804 0.347832768793868
v 0.5679501874822271 -0.11385001158158986 1.279600389092053
v -1.2481239070814252 0.04592285330627677 0.2507103762107502
v -0.6866942015790805 -0.9291015420038935 1.1824779965089354
v -1.0635427164972822 -0.31510787500433013 0.8967724945667297
v 0.19110167256402533 0.5001436554179735 0.9938948871498475
vt 0.4921875 0.6171875
vt 0.4921875 0.45694218749999993
vt 0.6496875 0.45694218749999993
vt 0.6496875 0.6171875
vt 0.6496875 0.2812125000000001
vt 0.6496875 0.4531250000000001
vt 0.4921875 0.4531250000000001
vt 0.4921875 0.2812125000000001
vt 0.4921875 0.4531250000000001
vt 0.6496875 0.4531250000000001
vt 0.6496875 0.2812125000000001
vt 0.4921875 0.2812125000000001
vt 0.6496875 0.45694218749999993
vt 0.4921875 0.45694218749999993
vt 0.4921875 0.6171875
vt 0.6496875 0.6171875
vn 0.4911888312176342 -0.6930653303299594 -0.5276305335949378
vn 0.2517592010615173 -0.2769769060110914 -0.9273085237489137
vn -0.2517592010615173 0.2769769060110914 0.9273085237489137
vn -0.4911888312176342 0.6930653303299594 0.5276305335949378
usemtl m_12471031-f55b-079a-b844-a4f954b61df9
f 23/33/9 28/34/9 27/35/9 25/36/9
f 26/37/10 27/38/10 28/39/10 24/40/10
f 28/41/11 27/42/11 26/43/11 24/44/11
f 27/45/12 28/46/12 23/47/12 25/48/12
o plane
v 1.5496549260927397 0.6729751087439195 1.4515797262056485
v 1.2015507996042714 1.3300070261624688 0.5224766228769584
v -0.0838083065676759 -0.3555593517821095 1.3362376542760122
v -0.43191243305614424 0.3014725656364396 0.407134550947322
vt 0.53125 0.9375
vt 0.328125 0.9375
vt 0.328125 0.6875
vt 0.53125 0.6875
vt 0.328125 0.9375
vt 0.53125 0.9375
vt 0.53125 0.6875
vt 0.328125 0.6875
vn 0.44820736555292856 -0.6420688271435288 -0.6219789214070175
vn -0.44820736555292856 0.6420688271435288 0.6219789214070175
usemtl m_12471031-f55b-079a-b844-a4f954b61df9
f 32/49/13 30/50/13 29/51/13 31/52/13
f 30/53/14 32/54/14 31/55/14 29/56/14
o cube
v 1.5894700328982365 1.5359819168623616 0.6616107600842038
v 1.5894700328982365 1.5359819168623616 0.6616107600842038
v 2.069868728908034 0.6893769122766038 -0.411765447575002
v 2.069868728908034 0.6893769122766038 -0.411765447575002
v 0.2832430682591026 1.0188749372784252 0.48485598172253663
v 0.2832430682591026 1.0188749372784252 0.48485598172253663
v 0.7636417642689002 0.17226993269266722 -0.5885202259366694
v 0.7636417642689002 0.17226993269266722 -0.5885202259366694
vt 0.016231250000000252 0.9375
vt 0.16496387500000054 0.9375
vt 0.16496387500000054 0.6330840000000001
vt 0.016231250000000252 0.6330840000000001
vt 0.16435762500000017 0.9375
vt 0.015625 0.9375
vt 0.015625 0.6330840000000001
vt 0.16435762500000017 0.6330840000000001
vn -0.19759484244997053 0.7247515887501046 -0.6600692485197069
vn 0.19759484244997053 -0.7247515887501046 0.6600692485197069
usemtl m_12471031-f55b-079a-b844-a4f954b61df9
f 36/60/15 39/59/15 37/58/15 34/57/15
f 40/64/16 35/63/16 33/62/16 38/61/16
o plane
v 2.135158830699158 0.9019737982533282 1.5944033389008128
v 2.5895036624063 1.1841501691699392 0.18035504679412528
v 0.7080233741054947 0.6242189665835838 1.2278832139181486
v 1.1623682058126368 0.9063953375001949 -0.18616507818853867
v 0.7700647225373907 1.2372135929103345 0.5217729358423514
v 2.197200179131054 1.514968424580079 0.8882930608250156
vt 0.8840625 0.2124999999999999
vt 0.7265625 0.2124999999999999
vt 0.7265625 0.015625
vt 0.8840625 0.015625
vt 0.8840625 0.4
vt 0.8840625 0.21426875
vt 0.7265625 0.21426875
vt 0.7265625 0.4
vt 0.7265625 0.015625
vt 0.7265625 0.2124999999999999
vt 0.8840625 0.2124999999999999
vt 0.8840625 0.015625
vt 0.7265625 0.21426875
vt 0.8840625 0.21426875
vt 0.8840625 0.4
vt 0.7265625 0.4
vn 0.29947537841846206 -0.7333541513273544 -0.6103328489046407
vn -0.05823946769100592 0.8916597053755122 -0.4489444667358348
vn -0.29947537841846206 0.7333541513273544 0.6103328489046407
vn 0.05823946769100592 -0.8916597053755122 0.4489444667358348
usemtl m_12471031-f55b-079a-b844-a4f954b61df9
f 45/65/17 46/66/17 41/67/17 43/68/17
f 44/69/18 45/70/18 46/71/18 42/72/18
f 41/73/19 46/74/19 45/75/19 43/76/19
f 46/77/20 45/78/20 44/79/20 42/80/20
o cube
v 1.1234001885471758 1.3760167065369708 0.5919750513804145
v 1.1234001885471758 1.3760167065369708 0.5919750513804145
v 1.3303357269382867 0.5977406459535026 1.7206478164278756
v 1.3303357269382867 0.5977406459535026 1.7206478164278756
v -0.13880408286918722 0.7634494815197197 0.40099721179836
v -0.13880408286918722 0.7634494815197197 0.40099721179836
v 0.0681314555219239 -0.014826579063748513 1.5296699768458213
v 0.0681314555219239 -0.014826579063748513 1.5296699768458213
vt 0.05017499999999975 0.9296875
vt 0.19890762499999992 0.9296875
vt 0.19890762499999992 0.6408965000000001
vt 0.05017499999999975 0.6408965000000001
vt 0.19951387500000028 0.9296875
vt 0.05078125 0.9296875
vt 0.05078125 0.6408965000000001
vt 0.19951387500000028 0.6408965000000001
vn 0.4278790104422378 -0.7055216301726118 -0.5649413967674451
vn -0.4278790104422378 0.7055216301726118 0.5649413967674451
usemtl m_12471031-f55b-079a-b844-a4f954b61df9
f 50/84/21 53/83/21 51/82/21 48/81/21
f 54/88/22 49/87/22 47/86/22 52/85/22