# Made in Blockbench 4.8.1
mtllib larch_branch_dead.mtl

o plane
v 0.9364315528797367 0.022062053865079867 1.2316940788933353
v 0.9675350685047368 -0.03181081549143272 -0.19373560860666478
v -0.23337932457596222 -0.6533285711349202 1.2316940788933353
v -0.2022758089509621 -0.7072014404914326 -0.19373560860666478
v -0.4946488558259622 -0.20079646854021527 -0.005821901220300962
v 0.6751620216297366 0.47459415645978464 -0.005821901220300962
v -0.7079301058259623 0.16861749276158444 0.5047604851433355
v 0.46188077162973656 0.8440081177615844 0.5047604851433355
v -0.5444144808259622 -0.1145998775697954 0.9507121896887899
v 0.6253963966297367 0.5607907474302045 0.9507121896887899
v 1.2753800362562364 0.14592355950856728 -0.19373560860666478
v 0.9830069893812364 0.6523285314597846 -0.005821901220300962
vt 0.6423611111111112 0.6833374999999999
vt 0.7743055555555556 0.6833374999999999
vt 0.7743055555555556 0.8454861111111112
vt 0.6423611111111112 0.8454861111111112
vt 0.9050111111111112 0.6924006944444442
vt 0.9050111111111112 0.42851180555555535
vt 0.9687736111111113 0.42851180555555535
vt 0.9687736111111113 0.6924006944444442
vt 0.9687736111111113 0.4283381944444442
vt 0.9050111111111112 0.4283381944444442
vt 0.9050111111111112 0.692227083333333
vt 0.9687736111111113 0.692227083333333
vt 0.6447434027777779 0.3589312499999999
vt 0.6447434027777779 0.0950423611111112
vt 0.7097322916666666 0.0950423611111112
vt 0.7097322916666666 0.3589312499999999
vt 0.7097322916666666 0.0950423611111112
vt 0.6447434027777779 0.0950423611111112
vt 0.6447434027777779 0.3589312499999999
vt 0.7097322916666666 0.3589312499999999
vt 0.7743055555555556 0.6941527777777778
vt 0.6423611111111112 0.6941527777777778
vt 0.6423611111111112 0.5861152777777778
vt 0.7743055555555556 0.5861152777777778
vt 0.6423611111111112 0.5861152777777778
vt 0.6423611111111112 0.6941527777777778
vt 0.7743055555555556 0.6941527777777778
vt 0.7743055555555556 0.5861152777777778
vt 0.7743055555555556 0.8454861111111112
vt 0.7743055555555556 0.6833374999999999
vt 0.6423611111111112 0.6833374999999999
vt 0.6423611111111112 0.8454861111111112
vt 0.9696416666666668 0.6942236111111109
vt 0.9696416666666668 0.7636680555555554
vt 0.9058791666666668 0.7636680555555554
vt 0.9058791666666668 0.6942236111111109
vn 0.20582190139313294 -0.3564939905233378 -0.9113448192795426
vn 0.15297478552594695 -0.2649601008078923 0.9520477193781633
vn -0.15297478552594695 0.2649601008078923 -0.9520477193781633
vn 0.38371221837239256 -0.664609057705948 0.6411394028500739
vn -0.38371221837239256 0.664609057705948 -0.6411394028500739
vn 0.4032024979278526 -0.6983672121497259 -0.5913636636275176
vn -0.4032024979278526 0.6983672121497259 0.5913636636275176
vn -0.20582190139313294 0.3564939905233378 0.9113448192795426
vn 0.15297478552594698 -0.26496010080789234 0.9520477193781635
usemtl m_eb03bff7-0e1a-c467-ec6f-b193c3cf074e
f 9/1/1 10/2/1 1/3/1 3/4/1
f 6/5/2 5/6/2 4/7/2 2/8/2
f 4/9/3 5/10/3 6/11/3 2/12/3
f 8/13/4 7/14/4 5/15/4 6/16/4
f 5/17/5 7/18/5 8/19/5 6/20/5
f 10/21/6 9/22/6 7/23/6 8/24/6
f 7/25/7 9/26/7 10/27/7 8/28/7
f 1/29/8 10/30/8 9/31/8 3/32/8
f 2/33/9 11/34/9 12/35/9 6/36/9
o cube
v -0.6897319794107969 0.8071354743754104 0.41856191242225327
v -0.6897319794107969 0.8071354743754104 0.41856191242225327
v 0.9494285531640272 0.9047410374772276 0.5702767995440544
v 0.9494285531640272 0.9047410374772276 0.5702767995440544
v -0.6225267569269958 -0.43643032859894787 0.49250846037118234
v -0.6225267569269958 -0.43643032859894787 0.49250846037118234
v 1.0166337756478283 -0.33882476549713075 0.6442233474929835
v 1.0166337756478283 -0.33882476549713075 0.6442233474929835
vt 0.5325305555555556 0.31581666666666663
vt 0.37145000000000006 0.31581666666666663
vt 0.37145000000000006 0.0781680555555554
vt 0.5325305555555556 0.0781680555555554
vt 0.5325305555555556 0.0781680555555554
vt 0.37145000000000006 0.0781680555555554
vt 0.37145000000000006 0.31581666666666663
vt 0.5325305555555556 0.31581666666666663
vn -0.09521363244257558 0.05396056847582993 0.9939932702221155
vn 0.09521363244257558 -0.05396056847582993 -0.9939932702221155
usemtl m_eb03bff7-0e1a-c467-ec6f-b193c3cf074e
f 15/37/10 13/38/10 17/39/10 19/40/10
f 20/41/11 18/42/11 14/43/11 16/44/11
o cube
v 0.07983813937225925 0.7460299744291568 0.514753672215875
v 0.07983813937226036 0.7460299744291559 0.514753672215875
v 1.7181787900392265 0.930499962057517 0.4800803321644717
v 1.7181787900392254 0.9304999620575163 0.48008033216447177
v 0.21283328302937776 -0.4202022534867719 0.594252951351299
v 0.21283328302937887 -0.4202022534867708 0.5942529513512989
v 1.8511739336963453 -0.2357322658584114 0.5595796112998956
v 1.851173933696344 -0.2357322658584105 0.5595796112998956
vt 0.07066874999999999 0.27675416666666663
vt 0.23174930555555542 0.27675416666666663
vt 0.23174930555555542 0.046918055555555394
vt 0.07066874999999999 0.046918055555555394
vt 0.07066874999999999 0.046918055555555394
vt 0.23174930555555542 0.046918055555555394
vt 0.23174930555555542 0.27675416666666663
vt 0.07066874999999999 0.27675416666666663
vn 0.013283930018892186 0.06951158307388187 0.9974926952222838
vn -0.01328393001889221 -0.06951158307388189 -0.9974926952222838
usemtl m_eb03bff7-0e1a-c467-ec6f-b193c3cf074e
f 23/45/12 21/46/12 25/47/12 27/48/12
f 28/49/13 26/50/13 22/51/13 24/52/13
o plane
v 2.3391017207164935 -0.02350839928302273 1.3514553802763813
v 2.370798417565193 0.20858780122508414 -0.34130871938915064
v 0.6455902625614303 0.17888664852031477 1.3474952314857418
v 0.6772869594101294 0.41098284902842164 -0.3452688681797902
v 0.7307147598011796 0.8754533437366779 0.5450855149146905
v 2.424226217956243 0.6730582959333404 0.54904566370533
vt 0.1985878472222223 0.24739583333333293
vt 0.03198784722222234 0.24739583333333293
vt 0.03198784722222234 0.03914583333333488
vt 0.1985878472222223 0.03914583333333488
vt 0.5837006944444445 0.24016944444444455
vt 0.41710069444444453 0.24016944444444455
vt 0.41710069444444453 0.43663194444444486
vt 0.5837006944444445 0.43663194444444486
vt 0.41710069444444453 0.43663194444444486
vt 0.41710069444444453 0.24016944444444455
vt 0.5837006944444445 0.24016944444444455
vt 0.5837006944444445 0.43663194444444486
vt 0.03198784722222234 0.03914583333333488
vt 0.03198784722222234 0.24739583333333293
vt 0.1985878472222223 0.24739583333333293
vt 0.1985878472222223 0.03914583333333488
vn -0.0878088212468496 -0.7476084497941098 -0.6583093624639459
vn -0.10613543408316531 -0.8789764723658838 0.4649038940030561
vn 0.10613543408316531 0.8789764723658838 -0.4649038940030561
vn 0.0878088212468496 0.7476084497941098 0.6583093624639459
usemtl m_eb03bff7-0e1a-c467-ec6f-b193c3cf074e
f 33/53/14 34/54/14 29/55/14 31/56/14
f 34/57/15 33/58/15 32/59/15 30/60/15
f 32/61/16 33/62/16 34/63/16 30/64/16
f 29/65/17 34/66/17 33/67/17 31/68/17
o plane
v 1.2201645028689407 0.22213763369311024 1.0072597491479236
v 1.2734181373734164 0.20823486399019403 -0.034212645238952566
v 0.41617824452883756 0.26494201495460373 0.9655780972508752
v 0.4694318790333132 0.2510392452516875 -0.07589429713600077
v 0.4805862738592409 0.5852932740727192 0.052208992553387235
v 1.284572532199344 0.5424888928112257 0.09389064445043555
v 0.47304680792930176 0.8875501148002196 0.5080341143411922
v 1.277033066269405 0.8447457335387262 0.5497157662382404
v 0.4390358472476241 0.5877115698719535 0.8561475159609815
v 1.2430221055877273 0.5449071886104601 0.8978291678580298
vt 0.685018402777778 0.14786666666666703
vt 0.685018402777778 0.3053666666666671
vt 0.7183843750000002 0.3053666666666671
vt 0.7183843750000002 0.14786666666666703
vt 0.7636458333333334 0.7746527777777779
vt 0.6848958333333334 0.7746527777777779
vt 0.6848958333333334 0.8446180555555556
vt 0.7636458333333334 0.8446180555555556
vt 0.6848958333333334 0.8446180555555556
vt 0.6848958333333334 0.7746527777777779
vt 0.7636458333333334 0.7746527777777779
vt 0.7636458333333334 0.8446180555555556
vt 0.7636458333333334 0.6635416666666667
vt 0.6848958333333334 0.6635416666666667
vt 0.6848958333333334 0.770401388888889
vt 0.7636458333333334 0.770401388888889
vt 0.6848958333333334 0.770401388888889
vt 0.6848958333333334 0.6635416666666667
vt 0.7636458333333334 0.6635416666666667
vt 0.7636458333333334 0.770401388888889
vt 0.6814086805555557 0.3053666666666671
vt 0.6814086805555557 0.14786666666666703
vt 0.6364072916666669 0.14786666666666703
vt 0.6364072916666669 0.3053666666666671
vt 0.6364072916666669 0.14786666666666703
vt 0.6814086805555557 0.14786666666666703
vt 0.6814086805555557 0.3053666666666671
vt 0.6364072916666669 0.3053666666666671
vt 0.7183843750000002 0.3053666666666671
vt 0.685018402777778 0.3053666666666671
vt 0.685018402777778 0.14786666666666703
vt 0.7183843750000002 0.14786666666666703
vn 0.03184449936207422 -0.3229435409819331 -0.9458823379249819
vn -0.06724509295162673 -0.3551017496639413 0.9324059442429218
vn 0.06724509295162673 0.3551017496639413 -0.9324059442429218
vn -0.07281464716365958 -0.8317623262372635 0.5503357700629751
vn 0.07281464716365958 0.8317623262372635 -0.5503357700629751
vn -0.006469863287818796 -0.7573604006647665 -0.652965056012909
vn 0.006469863287818796 0.7573604006647665 0.652965056012909
vn -0.03184449936207422 0.3229435409819331 0.9458823379249819
usemtl m_eb03bff7-0e1a-c467-ec6f-b193c3cf074e
f 43/69/18 44/70/18 35/71/18 37/72/18
f 40/73/19 39/74/19 38/75/19 36/76/19
f 38/77/20 39/78/20 40/79/20 36/80/20
f 42/81/21 41/82/21 39/83/21 40/84/21
f 39/85/22 41/86/22 42/87/22 40/88/22
f 44/89/23 43/90/23 41/91/23 42/92/23
f 41/93/24 43/94/24 44/95/24 42/96/24
f 35/97/25 44/98/25 43/99/25 37/100/25
o plane
v 0.7764659366990253 0.720656554888653 0.7298583858656393
v 0.7762179263093146 0.7798442747266512 0.32401679970978103
v 0.10139124879090378 0.5625534471436543 0.7072132523362074
v 0.10114323840119305 0.6217411669816524 0.30137166618034905
v 0.0689289246553495 0.7286431180063125 0.5153486387978643
v 0.744003612563471 0.8867462257513113 0.5379937723272963
v -0.40895102011402995 0.3853573746458674 0.4823449265301965
v -0.32760163053231683 0.3088847262173135 0.2683679539126809
v -0.297792987315426 0.2577506624403862 0.6742095400685398
vt 0.1779513888888889 0.24826388888888884
vt 0.2179347222222222 0.24826388888888884
vt 0.2179347222222222 0.19828333333333326
vt 0.1779513888888889 0.19828333333333326
vt 0.2179347222222222 0.2514597222222221
vt 0.1779513888888889 0.2514597222222221
vt 0.1779513888888889 0.29861111111111105
vt 0.2179347222222222 0.29861111111111105
vt 0.1779513888888889 0.29861111111111105
vt 0.1779513888888889 0.2514597222222221
vt 0.2179347222222222 0.2514597222222221
vt 0.2179347222222222 0.29861111111111105
vt 0.2179347222222222 0.19828333333333326
vt 0.2179347222222222 0.24826388888888884
vt 0.1779513888888889 0.24826388888888884
vt 0.1779513888888889 0.19828333333333326
vt 0.23155684079007127 0.3012152777777778
vt 0.23247820430078686 0.254100097653174
vt 0.17491319444444445 0.254100097653174
vt 0.17961516981893805 0.30030252332721785
vt 0.24256241501049955 0.2564942592341618
vt 0.23983617633292592 0.20681254374715663
vt 0.19067796700673423 0.20852866321824393
vt 0.18502095711475716 0.25710368610350465
vt 0.2362538718394839 0.19692331763766802
vt 0.2388470221362246 0.2466329117460131
vt 0.18128207148397724 0.24663291174601298
vt 0.18711114050265878 0.1981111664579026
vt 0.1862613171218106 0.3109375000000001
vt 0.23820576573477834 0.3109375000000001
vt 0.2431097449535352 0.2648182873091909
vt 0.18554687499999994 0.2638102302376806
vn 0.1921137150694758 -0.7256646209064782 -0.6606838717926008
vn 0.18759823073972332 -0.8671070524307997 0.4614458402110653
vn -0.18759823073972332 0.8671070524307997 -0.4614458402110653
vn -0.1921137150694758 0.7256646209064782 0.6606838717926008
vn -0.49906912441695656 0.7383529592277221 -0.45361317954106906
vn -0.4889169193292386 0.5686843278201897 0.6614819583974351
vn 0.46731011239655607 -0.5869702815080962 -0.6611256669334693
vn 0.5051423893092697 -0.7392403014753832 0.4453705684006372
usemtl m_eb03bff7-0e1a-c467-ec6f-b193c3cf074e
f 49/101/26 50/102/26 45/103/26 47/104/26
f 50/105/27 49/106/27 48/107/27 46/108/27
f 48/109/28 49/110/28 50/111/28 46/112/28
f 45/113/29 50/114/29 49/115/29 47/116/29
f 52/117/30 51/118/30 49/119/30 48/120/30
f 51/121/31 53/122/31 47/123/31 49/124/31
f 53/125/32 51/126/32 49/127/32 47/128/32
f 52/129/33 48/130/33 49/131/33 51/132/33