# Made in Blockbench 4.8.1
mtllib larch_large_sapling.mtl

o plane
v 1.593083575550043 2.999999999999999 1.4335815694746432
v 1.5930835755500454 -1.0000000000000009 1.4335815694746366
v -0.5930835755500461 3.000000000000001 -0.4335815694746348
v -0.5930835755500437 -0.9999999999999991 -0.43358156947464155
vt 0.140625 0
vt 0.859375 0
vt 0.859375 1
vt 0.140625 1
vt 0.859375 1
vt 0.859375 0
vt 0.140625 0
vt 0.140625 1
vn -0.6494480483301837 -1.6676799942778597e-15 0.7604059656000309
vn 0.6494480483301837 1.6676799942778597e-15 -0.7604059656000309
usemtl m_cded627c-fa8f-aa29-8e71-754e4af1981c
f 4/1/1 2/2/1 1/3/1 3/4/1
f 1/5/2 2/6/2 4/7/2 3/8/2
o plane
v 0.12519628179910597 2.9999999999999996 1.8764039306446259
v 0.12519628179910652 -1.0000000000000007 1.876403930644624
v 0.8814110233657821 3.0000000000000004 -0.8973596253632126
v 0.8814110233657828 -0.9999999999999993 -0.8973596253632143
vt 0.1171875 0
vt 0.8359375 0
vt 0.8359375 1
vt 0.1171875 1
vt 0.8359375 1
vt 0.8359375 0
vt 0.1171875 0
vt 0.1171875 1
vn -0.9647873238288132 -1.7434860559304013e-17 -0.26303121445797434
vn 0.9647873238288132 1.7434860559304013e-17 0.26303121445797434
usemtl m_dbc8749f-53e0-c35f-c5db-7c9805ea4da2
f 8/9/3 6/10/3 5/11/3 7/12/3
f 5/13/4 6/14/4 8/15/4 7/16/4
o plane
v -0.933048358929321 2.9999999999999987 0.8906938253814287
v -0.9330483589293199 -1.0000000000000007 0.8906938253814238
v 1.8407151970785154 3.0000000000000004 0.1344790838147507
v 1.8407151970785165 -0.9999999999999991 0.13447908381474594
vt 0.140625 0
vt 0.859375 0
vt 0.859375 1
vt 0.140625 1
vt 0.859375 1
vt 0.859375 0
vt 0.140625 0
vt 0.140625 1
vn -0.263031214457975 1.0871751958659095e-15 -0.964787323828813
vn 0.263031214457975 -1.0871751958659095e-15 0.964787323828813
usemtl m_480d4b62-54db-3dd8-60e3-749b05744c8b
f 12/17/5 10/18/5 9/19/5 11/20/5
f 9/21/6 10/22/6 12/23/6 11/24/6