# Made in Blockbench 4.8.1
mtllib larch_large_sapling_4.mtl

o plane
v 1.9150625933349703 2.9999999999999996 0.31954650345504754
v 1.9150625933349685 -1.0000000000000007 0.3195465034550477
v -0.9369516369942106 3.0000000000000004 0.68236853972056
v -0.9369516369942124 -0.9999999999999993 0.6823685397205601
vt 0.1171875 0
vt 0.8359375 0
vt 0.8359375 1
vt 0.1171875 1
vt 0.8359375 1
vt 0.8359375 0
vt 0.1171875 0
vt 0.1171875 1
vn 0.1261989691358304 -1.7434860559304013e-17 0.9920049496797151
vn -0.1261989691358304 1.7434860559304013e-17 -0.9920049496797151
usemtl m_33055d29-f801-50cf-c9d7-77f2e7905be8
f 4/1/1 2/2/1 1/3/1 3/4/1
f 1/5/2 2/6/2 4/7/2 3/8/2
o plane
v 0.9484367711339612 2.999999999999999 -0.8801464679830064
v 0.9484367711339541 -1.0000000000000009 -0.8801464679830062
v 0.0600129123059876 3.000000000000001 1.8541410163655603
v 0.06001291230598049 -0.9999999999999991 1.8541410163655605
vt 0.859375 -0.0078125
vt 0.140625 -0.0078125
vt 0.140625 0.9921875
vt 0.859375 0.9921875
vt 0.140625 0.9921875
vt 0.140625 -0.0078125
vt 0.859375 -0.0078125
vt 0.859375 0.9921875
vn 0.9510565162951536 -1.6676799942778599e-15 0.30901699437494734
vn -0.9510565162951536 1.6676799942778599e-15 -0.30901699437494734
usemtl m_c2356ea5-b804-a29d-3f52-aebcbfcf9648
f 8/9/3 6/10/3 5/11/3 7/12/3
f 5/13/4 6/14/4 8/15/4 7/16/4
o plane
v 1.4045749459884034 2.9999999999999987 1.6682747315180018
v 1.4045749459883985 -1.0000000000000007 1.6682747315180024
v -0.3555497341106387 3.0000000000000004 -0.6049577929955465
v -0.3555497341106435 -0.9999999999999991 -0.6049577929955459
vt 0.140625 0
vt 0.859375 0
vt 0.859375 1
vt 0.140625 1
vt 0.859375 1
vt 0.859375 0
vt 0.140625 0
vt 0.140625 1
vn -0.7906895737438431 1.0871751958659095e-15 0.6122172800344496
vn 0.7906895737438431 -1.0871751958659095e-15 -0.6122172800344496
usemtl m_480d4b62-54db-3dd8-60e3-749b05744c8b
f 12/17/5 10/18/5 9/19/5 11/20/5
f 9/21/6 10/22/6 12/23/6 11/24/6