# Made in Blockbench 4.12.6
mtllib large_sign.mtl

o cube
v 1.875 0.1467127275714063 0.05174264403339479
v 1.875 0.8112423339801891 0.1990653109424355
v 1.875 0.7841873822379262 0.3211023118324272
v 1.875 0.11965777582914344 0.17377964492338646
v -0.875 0.11965777582914344 0.17377964492338646
v -0.875 0.7908612807240976 0.32258187950583217
v -0.875 0.8179162324663605 0.20054487861584053
v -0.875 0.1467127275714063 0.05174264403339479
vt 0.03125 0.785781073328793
vt 0.03125 0.9368234618308033
vt 0 0.9368234618308033
vt 0 0.785781073328793
vt 0.75 0.785781073328793
vt 0.75 0.9368234618308033
vt 0.71875 0.9368234618308033
vt 0.71875 0.785781073328793
vt 0.71875 0.9368234618308033
vt 0.71875 0.9642857142857143
vt 0.03125 0.9642857142857143
vt 0.03125 0.9368234618308033
vt 0.875 0.9368234618308033
vt 0.875 0.9642857142857143
vt 0.1875 0.9642857142857143
vt 0.1875 0.9368234618308033
vt 0.8008244734186858 0.7193468187945501
vt 0.8008244734186858 0.8831096433321269
vt 0.055424834375732084 0.8831096433321269
vt 0.055424834375732084 0.7193468187945501
vt 0.846692214223136 0.736426586625712
vt 0.846692214223136 0.897134218069648
vt 0.11519890487153386 0.897134218069648
vt 0.11519890487153386 0.736426586625712
vn 1 0 0
vn -1 0 0
vn 0.0024857877744934526 0.9762929907799992 0.21643894523163915
vn 0 -0.9762960071199334 -0.21643961393810285
vn -7.414036632425723e-18 -0.21643961393810293 0.9762960071199334
vn -7.340317518182853e-18 0.21643961393810288 -0.9762960071199334
usemtl m_8cc34c8e-48f0-871c-6bb0-8d2b39926f2a
f 1/1/1 2/2/1 3/3/1 4/4/1
f 5/5/2 6/6/2 7/7/2 8/8/2
f 3/9/3 2/10/3 7/11/3 6/12/3
f 1/13/4 4/14/4 5/15/4 8/16/4
f 4/17/5 3/18/5 6/19/5 5/20/5
f 8/21/6 7/22/6 2/23/6 1/24/6
o cube
v 0.25 0.08558857753985691 0.03869172265073879
v 0.25 0.2686440788748444 0.07927415026413308
v 0.25 0.2418004263056886 0.20035804217717396
v 0.25 0.05874492497070112 0.15977561456377964
v -0.6499999999999999 0.05874492497070112 0.15977561456377964
v -0.6499999999999999 0.2418004263056886 0.20035804217717396
v -0.6499999999999999 0.2686440788748444 0.07927415026413308
v -0.6499999999999999 0.08558857753985691 0.03869172265073879
vt 0.015625 0.9093612093758924
vt 0.015625 0.9505545880582588
vt 0 0.9505545880582588
vt 0 0.9093612093758924
vt 0.25 0.9093612093758924
vt 0.25 0.9505545880582588
vt 0.234375 0.9505545880582588
vt 0.234375 0.9093612093758924
vt 0.015625 0.9642857142857143
vt 0.015625 0.9505545880582588
vt 0.234375 0.9505545880582588
vt 0.234375 0.9642857142857143
vt 0.45937499999999964 0.9370376673999512
vt 0.45937499999999964 0.964285714285714
vt 0.23437499999999967 0.964285714285714
vt 0.23437499999999967 0.9370376673999512
vt 0.36036105034784954 0.7044592892911339
vt 0.36036105034784954 0.7491218778013822
vt 0.11641207757015559 0.7491218778013822
vt 0.11641207757015559 0.7044592892911339
vt 0.7868427616398231 0.7218168019489906
vt 0.7868427616398231 0.765646155979155
vt 0.5474449513065714 0.765646155979155
vt 0.5474449513065714 0.7218168019489906
vn 1 0 0
vn -1 0 0
vn 0 0.9762960071199334 0.21643961393810315
vn 0 -0.9762960071199334 -0.21643961393810282
vn 0 -0.21643961393810307 0.9762960071199335
vn 0 0.21643961393810288 -0.9762960071199334
usemtl m_8cc34c8e-48f0-871c-6bb0-8d2b39926f2a
f 9/25/7 10/26/7 11/27/7 12/28/7
f 13/29/8 14/30/8 15/31/8 16/32/8
f 11/33/9 10/34/9 15/35/9 14/36/9
f 9/37/10 12/38/10 13/39/10 16/40/10
f 12/41/11 11/42/11 14/43/11 13/44/11
f 16/45/12 15/46/12 10/47/12 9/48/12
o cube
v 1.8375 0.6957735819898152 0.1739664813620531
v 1.8375 0.8788290833248027 0.21454890897544737
v 1.8375 0.8519854307556469 0.33563280088848824
v 1.8375 0.6689299294206594 0.295050373275094
v 1 0.6689299294206594 0.295050373275094
v 1 0.8519854307556469 0.33563280088848824
v 1 0.8788290833248027 0.21454890897544737
v 1 0.6957735819898152 0.1739664813620531
vt 0.015625 0.9093612093758924
vt 0.015625 0.9505545880582588
vt 0 0.9505545880582588
vt 0 0.9093612093758924
vt 0.234375 0.9093612093758924
vt 0.234375 0.9505545880582588
vt 0.21875 0.9505545880582588
vt 0.21875 0.9093612093758924
vt 0.22500000000000003 0.9370376673999512
vt 0.22500000000000003 0.964285714285714
vt 0.015625 0.964285714285714
vt 0.015625 0.9370376673999512
vt 0.21875 0.9505545880582588
vt 0.21875 0.9642857142857143
vt 0.421875 0.9642857142857143
vt 0.421875 0.9505545880582588
vt 0.7906599328862818 0.8533345843252946
vt 0.7906599328862818 0.8979971728355429
vt 0.5636518609959279 0.8979971728355429
vt 0.5636518609959279 0.8533345843252946
vt 0.3479467760288618 0.867914648716205
vt 0.3479467760288618 0.9117440027463694
vt 0.12517381363541935 0.9117440027463694
vt 0.12517381363541935 0.867914648716205
vn 1 0 0
vn -1 0 0
vn 0 0.9762960071199334 0.2164396139381027
vn 0 -0.9762960071199334 -0.21643961393810268
vn 0 -0.2164396139381027 0.9762960071199335
vn 0 0.21643961393810285 -0.9762960071199334
usemtl m_8cc34c8e-48f0-871c-6bb0-8d2b39926f2a
f 17/49/13 18/50/13 19/51/13 20/52/13
f 21/53/14 22/54/14 23/55/14 24/56/14
f 19/57/15 18/58/15 23/59/15 22/60/15
f 17/61/16 20/62/16 21/63/16 24/64/16
f 20/65/17 19/66/17 22/67/17 21/68/17
f 24/69/18 23/70/18 18/71/18 17/72/18
o cube
v -0.6436533052481174 0.6400596805847769 0.1621156233981623
v -0.6110942719355679 0.8203341575310091 0.2020815127478897
v -0.6110942719355679 0.7937019394097191 0.3222116854989753
v -0.6436533052481174 0.6134274624634869 0.28224579614924783
v -0.9514057280644324 0.6664062194946984 0.29399090381652454
v -0.9188466947518829 0.8466806964409307 0.333956793166252
v -0.9188466947518829 0.8733129145622207 0.21382662041516642
v -0.9514057280644324 0.6930384376159884 0.173860731065439
vt 0.015625 0.9093612093758924
vt 0.015625 0.9505545880582588
vt 0 0.9505545880582588
vt 0 0.9093612093758924
vt 0.12451250000000079 0.8956300831484368
vt 0.12451250000000079 0.9368234618308033
vt 0.09375000000000079 0.9368234618308033
vt 0.09375000000000079 0.8956300831484368
vt 0.109375 0.9372518729690993
vt 0.109375 0.9642857142857136
vt 0.03125 0.9642857142857136
vt 0.03125 0.9372518729690993
vt 0.09375 0.9505545880582588
vt 0.09375 0.9642857142857143
vt 0.171875 0.9642857142857143
vt 0.171875 0.9505545880582588
vt 0.11813237719821712 0.8397671011908905
vt 0.12695764689958505 0.8837511646253768
vt 0.04353999421526663 0.8966771264665312
vt 0.03471472451389872 0.8526930630320448
vt 0.8670159519959616 0.8672850957767625
vt 0.8583553283497486 0.9104485834351852
vt 0.7764939326308832 0.8977637710090905
vt 0.7851545562770962 0.854600283350668
vn 0.9848077530122081 -0.16953202249987726 -0.037584344535285606
vn -0.984807753012208 0.16953202249987712 0.03758434453528561
vn 0.17364817766693053 0.9614638770465722 0.213151409865213
vn -0.17364817766693016 -0.9614638770465722 -0.21315140986521305
vn -8.881784197001258e-17 -0.21643961393810315 0.9762960071199335
vn 5.9211894646675e-17 0.21643961393810282 -0.9762960071199334
usemtl m_8cc34c8e-48f0-871c-6bb0-8d2b39926f2a
f 25/73/19 26/74/19 27/75/19 28/76/19
f 29/77/20 30/78/20 31/79/20 32/80/20
f 27/81/21 26/82/21 31/83/21 30/84/21
f 25/85/22 28/86/22 29/87/22 32/88/22
f 28/89/23 27/90/23 30/91/23 29/92/23
f 32/93/24 31/94/24 26/95/24 25/96/24
o cube
v -0.8687499999999999 0.14061087752690665 0.05038989644628164
v -0.8687499999999999 0.6958792315763688 0.17348992687357767
v -0.8687499999999999 0.6688242798341059 0.2955269277635693
v -0.8687499999999999 0.1135559257846438 0.1724268973362733
v -0.9499999999999997 0.1135559257846438 0.1724268973362733
v -0.9499999999999997 0.6688242798341059 0.2955269277635693
v -0.9499999999999997 0.6958792315763688 0.17348992687357767
v -0.9499999999999997 0.14061087752690665 0.05038989644628164
vt 0.03125 0.8132433257837038
vt 0.03125 0.9368234618308033
vt 0 0.9368234618308033
vt 0 0.8132433257837038
vt 0.078125 0.8118702131609583
vt 0.078125 0.9368234618308033
vt 0.046875 0.9368234618308033
vt 0.046875 0.8118702131609583
vt 0.03125 0.9642857142857143
vt 0.03125 0.9368234618308033
vt 0.046875 0.9368234618308033
vt 0.046875 0.9642857142857143
vt 0.046875 0.9368234618308033
vt 0.046875 0.9642857142857143
vt 0.0625 0.9642857142857143
vt 0.0625 0.9368234618308033
vt 0.057118924464466106 0.7178580658442084
vt 0.057118924464466106 0.8533345843252946
vt 0.035095753310924314 0.8533345843252946
vt 0.035095753310924314 0.7178580658442084
vt 0.8666420317509068 0.7349656081580399
vt 0.8666420317509068 0.867914648716205
vt 0.845029729429155 0.867914648716205
vt 0.845029729429155 0.7349656081580399
vn 1 0 0
vn -1 0 0
vn 0 0.9762960071199334 0.21643961393810335
vn 0 -0.9762960071199334 -0.21643961393810285
vn 0 -0.21643961393810293 0.9762960071199335
vn 0 0.21643961393810296 -0.9762960071199335
usemtl m_8cc34c8e-48f0-871c-6bb0-8d2b39926f2a
f 33/97/25 34/98/25 35/99/25 36/100/25
f 37/101/26 38/102/26 39/103/26 40/104/26
f 35/105/27 34/106/27 39/107/27 38/108/27
f 33/109/28 36/110/28 37/111/28 40/112/28
f 36/113/29 35/114/29 38/115/29 37/116/29
f 40/117/30 39/118/30 34/119/30 33/120/30
o cube
v -0.6436533052481174 0.08479132653531485 0.03901559297086629
v -0.6110942719355679 0.2650658034815472 0.07898148232059371
v -0.6110942719355679 0.23843358536025716 0.19911165507167927
v -0.6436533052481174 0.05815910841402486 0.15914576572195183
v -0.9514057280644324 0.11113786544523636 0.17089087338922856
v -0.9188466947518829 0.2914123423914687 0.21085676273895598
v -0.9188466947518829 0.31804456051275865 0.09072658998787042
v -0.9514057280644324 0.13777008356652637 0.050760700638143
vt 0.015625 0.9093612093758924
vt 0.015625 0.9505545880582588
vt 0 0.9505545880582588
vt 0 0.9093612093758924
vt 0.109375 0.9093612093758924
vt 0.109375 0.9505545880582588
vt 0.09375 0.9505545880582588
vt 0.09375 0.9093612093758924
vt 0.015625 0.9642857142857143
vt 0.015625 0.9505545880582588
vt 0.09375 0.9505545880582588
vt 0.09375 0.9642857142857143
vt 0.1875 0.9372518729690993
vt 0.1875 0.9642857142857136
vt 0.109375 0.9642857142857136
vt 0.109375 0.9372518729690993
vt 0.11813237719821712 0.704290582709804
vt 0.12695764689958505 0.7482746461442905
vt 0.04353999421526663 0.7612006079854449
vt 0.03471472451389872 0.7172165445509584
vt 0.8670159519959616 0.7343360552185971
vt 0.8583553283497486 0.77749954287702
vt 0.7764939326308832 0.7648147304509254
vt 0.7851545562770962 0.7216512427925026
vn 0.9848077530122081 -0.16953202249987714 -0.03758434453528558
vn -0.984807753012208 0.16953202249987717 0.03758434453528551
vn 0.17364817766693016 0.9614638770465722 0.213151409865213
vn -0.17364817766693033 -0.9614638770465724 -0.2131514098652129
vn -5.921189464667503e-17 -0.21643961393810307 0.9762960071199335
vn -1.4802973661668757e-17 0.2164396139381029 -0.9762960071199334
usemtl m_8cc34c8e-48f0-871c-6bb0-8d2b39926f2a
f 41/121/31 42/122/31 43/123/31 44/124/31
f 45/125/32 46/126/32 47/127/32 48/128/32
f 43/129/33 42/130/33 47/131/33 46/132/33
f 41/133/34 44/134/34 45/135/34 48/136/34
f 44/137/35 43/138/35 46/139/35 45/140/35
f 48/141/36 47/142/36 42/143/36 41/144/36
o cube
v 1.0767734175661827 0.7105982788988883 0.17725303754209387
v 1.0050202739977283 0.8797195098958757 0.21474631179372972
v 1.0050202739977283 0.8528758573267199 0.3358302037067706
v 1.0767734175661827 0.6837546263297324 0.29833692945513474
v 0.9150944993767074 0.6183724726031594 0.28384205494185333
v 0.8433413558082531 0.7874937036001469 0.32133532919348917
v 0.8433413558082531 0.8143373561693027 0.20025143728044828
v 0.9150944993767074 0.6452161251723152 0.16275816302881244
vt 0.015625 0.9093612093758924
vt 0.015625 0.9505545880582588
vt 0 0.9505545880582588
vt 0 0.9093612093758924
vt 0.0625 0.9093612093758924
vt 0.0625 0.9505545880582588
vt 0.046875 0.9505545880582588
vt 0.046875 0.9093612093758924
vt 0.04375 0.9370376673999512
vt 0.04375 0.964285714285714
vt 0 0.964285714285714
vt 0 0.9370376673999512
vt 0.046875 0.9505545880582588
vt 0.046875 0.9642857142857143
vt 0.078125 0.9642857142857143
vt 0.078125 0.9505545880582588
vt 0.5844616347202648 0.8569515711572143
vt 0.5650126284234928 0.8982144225508064
vt 0.521188843965569 0.8822622320593557
vt 0.5406378502623411 0.8409993806657636
vt 0.3705314326227116 0.8558095731650261
vt 0.38961759423917314 0.8963026162766861
vt 0.3466113953596072 0.9119571994060535
vt 0.3275252337431457 0.8714641562943936
vn 0.9238795325112866 0.3736123070089889 0.0828278543616082
vn -0.923879532511287 -0.37361230700898806 -0.082827854361608
vn -0.38268343236508995 0.9019798986506001 0.1999641293420578
vn 0.38268343236508967 -0.9019798986506 -0.19996412934205862
vn 9.251858538542967e-17 -0.21643961393810277 0.9762960071199334
vn 5.286776307738839e-17 0.21643961393810285 -0.9762960071199334
usemtl m_8cc34c8e-48f0-871c-6bb0-8d2b39926f2a
f 49/145/37 50/146/37 51/147/37 52/148/37
f 53/149/38 54/150/38 55/151/38 56/152/38
f 51/153/39 50/154/39 55/155/39 54/156/39
f 49/157/40 52/158/40 53/159/40 56/160/40
f 52/161/41 51/162/41 54/163/41 53/164/41
f 56/165/42 55/166/42 50/167/42 49/168/42
o cube
v 0.2914892115052703 0.6724393665101169 0.1687934103332437
v 0.3345410976463429 0.7739121051083092 0.19128937488422518
v 0.3345410976463429 0.7470684525391534 0.31237326679726607
v 0.2914892115052703 0.6455957139409612 0.28987730224628455
v 0.0027768575954932317 0.76234955988127 0.3157610067342871
v 0.04582874373656576 0.8638222984794622 0.33825697128526855
v 0.04582874373656576 0.8906659510486181 0.2171730793722277
v 0.0027768575954932317 0.7891932124504257 0.19467711482124622
vt 0.015625 0.8956300831484368
vt 0.015625 0.9093612093758924
vt 0 0.9093612093758924
vt 0 0.8956300831484368
vt 0.109375 0.8956300831484368
vt 0.109375 0.9093612093758924
vt 0.09375 0.9093612093758924
vt 0.09375 0.8956300831484368
vt 0.0937499999999999 0.8958442887175848
vt 0.0937499999999999 0.9230923356033475
vt 0.015624999999999903 0.9230923356033475
vt 0.015624999999999903 0.8958442887175848
vt 0.09375 0.9093612093758924
vt 0.09375 0.9230923356033478
vt 0.171875 0.9230923356033478
vt 0.171875 0.9093612093758924
vt 0.3716068842679242 0.8476414122732181
vt 0.3832762880459874 0.8723991231093733
vt 0.3050195300854095 0.9008851775583924
vt 0.29335012630734625 0.8761274667222372
vt 0.6132057057013988 0.8902823023893517
vt 0.601754008731522 0.9145781282563475
vt 0.5249572250180113 0.8866235155253342
vt 0.5364089219878884 0.8623276896583383
vn 0.9238795325112867 -0.3736123070089888 -0.0828278543616082
vn -0.9238795325112868 0.37361230700898834 0.08282785436160842
vn 0.38268343236509 0.9019798986505999 0.1999641293420577
vn -0.3826834323650898 -0.9019798986506 -0.19996412934205776
vn -3.454027187722715e-16 -0.21643961393810324 0.9762960071199333
vn 8.326672684688685e-17 0.21643961393810293 -0.9762960071199335
usemtl m_8cc34c8e-48f0-871c-6bb0-8d2b39926f2a
f 57/169/43 58/170/43 59/171/43 60/172/43
f 61/173/44 62/174/44 63/175/44 64/176/44
f 59/177/45 58/178/45 63/179/45 62/180/45
f 57/181/46 60/182/46 61/183/46 64/184/46
f 60/185/47 59/186/47 62/187/47 61/188/47
f 64/189/48 63/190/48 58/191/48 57/192/48
o cube
v 0.2221058315439602 0.7178748809062065 0.17886622136929325
v 0.04532913624732335 0.8904612626761702 0.21712770105255097
v 0.04532913624732335 0.8636176101070144 0.33821159296559183
v 0.2221058315439602 0.6910312283370508 0.2999501132823341
v 0.14255631866047358 0.6133673565405671 0.28273244742486814
v -0.034220376636163286 0.7859537383105307 0.32099392710812585
v -0.034220376636163286 0.8127973908796865 0.199910035195085
v 0.14255631866047358 0.6402110091097228 0.16164855551182725
vt 0.015625 0.8956300831484368
vt 0.015625 0.9505545880582588
vt 0 0.9505545880582588
vt 0 0.8956300831484368
vt 0.046875 0.8956300831484368
vt 0.046875 0.9505545880582588
vt 0.03125 0.9505545880582588
vt 0.03125 0.8956300831484368
vt 0.028124999999999997 0.9370376673999512
vt 0.028124999999999997 0.964285714285714
vt 0 0.964285714285714
vt 0 0.9370376673999512
vt 0.03125 0.9505545880582588
vt 0.03125 0.9642857142857143
vt 0.046875 0.9642857142857143
vt 0.046875 0.9505545880582588
vt 0.35280021285747304 0.8587269446304812
vt 0.3048841092700842 0.9008352368984023
vt 0.2833218626557592 0.8818865053778377
vt 0.33123796624314805 0.8397782131099166
vt 0.5760247091363785 0.8546111879634364
vt 0.6230468799941155 0.8959338992297767
vt 0.6018869031081339 0.9145291192996299
vt 0.5548647322503967 0.8732064080332896
vn 0.7071067811865475 0.6903455270798549 0.1530459187330309
vn -0.7071067811865475 -0.6903455270798549 -0.15304591873303078
vn -0.7071067811865476 0.6903455270798549 0.1530459187330308
vn 0.7071067811865476 -0.6903455270798549 -0.1530459187330308
vn 3.0839528461809887e-17 -0.21643961393810274 0.9762960071199334
vn -1.2335811384723955e-16 0.2164396139381028 -0.9762960071199334
usemtl m_8cc34c8e-48f0-871c-6bb0-8d2b39926f2a
f 65/193/49 66/194/49 67/195/49 68/196/49
f 69/197/50 70/198/50 71/199/50 72/200/50
f 67/201/51 66/202/51 71/203/51 70/204/51
f 65/205/52 68/206/52 69/207/52 72/208/52
f 68/209/53 67/210/53 70/211/53 69/212/53
f 72/213/54 71/214/54 66/215/54 65/216/54
o cube
v 2.1384642055329546 0.17504771407509445 0.058524335745246986
v 1.8394927739977283 0.8797195098958754 0.21474631179372966
v 1.8394927739977283 0.8528758573267197 0.3358302037067705
v 2.1384642055329546 0.14820406150593868 0.17960822765828785
v 1.9767852873434797 0.08282190777936582 0.16511335314500644
v 1.6778138558082534 0.7874937036001468 0.32133532919348917
v 1.6778138558082534 0.8143373561693027 0.20025143728044825
v 1.9767852873434797 0.1096655603485216 0.04402946123196558
vt 0.031006250000000395 0.7789155102150651
vt 0.031006250000000395 0.9505545880582588
vt 3.95516952522712e-16 0.9505545880582588
vt 3.95516952522712e-16 0.7789155102150651
vt 0.0625 0.785781073328793
vt 0.0625 0.9505545880582588
vt 0.046875 0.9505545880582588
vt 0.046875 0.785781073328793
vt 0.015625 0.9642857142857143
vt 0.015625 0.9505545880582588
vt 0.046875 0.9505545880582588
vt 0.046875 0.9642857142857143
vt 0.07499999999999929 0.9370376673999512
vt 0.07499999999999929 0.964285714285714
vt 0.031249999999999292 0.964285714285714
vt 0.031249999999999292 0.9370376673999512
vt 0.872237609311414 0.726285875077506
vt 0.7912000830748639 0.8982144225508064
vt 0.7473762986169403 0.8822622320593557
vt 0.8284138248534905 0.7103336845860553
vt 0.08812426607801185 0.7275816033114364
vt 0.16764993947993498 0.8963026162766861
vt 0.1246437406003692 0.9119571994060535
vt 0.045118067198446056 0.7432361864408038
vn 0.9238795325112867 0.37361230700898823 0.08282785436160801
vn -0.9238795325112867 -0.3736123070089882 -0.08282785436160855
vn -0.38268343236508945 0.9019798986506001 0.19996412934205776
vn 0.3826834323650901 -0.9019798986506 -0.19996412934205776
vn 2.0301221021717185e-16 -0.21643961393810277 0.9762960071199334
vn 1.0150610510858595e-16 0.2164396139381029 -0.9762960071199334
usemtl m_8cc34c8e-48f0-871c-6bb0-8d2b39926f2a
f 73/217/55 74/218/55 75/219/55 76/220/55
f 77/221/56 78/222/56 79/223/56 80/224/56
f 75/225/57 74/226/57 79/227/57 78/228/57
f 73/229/58 76/230/58 77/231/58 80/232/58
f 76/233/59 75/234/59 78/235/59 77/236/59
f 80/237/60 79/238/60 74/239/60 73/240/60
o cube
v 1.976171875 0.11031915291467122 0.04467497582804524
v 1.976171875 0.3543931546946546 0.09878487931257096
v 1.976171875 0.3277609365733646 0.21891505206365652
v 1.976171875 0.08368693479338121 0.1648051485791308
v 1.226171875 0.08368693479338121 0.1648051485791308
v 1.226171875 0.3277609365733646 0.21891505206365652
v 1.226171875 0.3543931546946546 0.09878487931257096
v 1.226171875 0.11031915291467122 0.04467497582804524
vt 0.015625 0.8956300831484368
vt 0.015625 0.9505545880582588
vt 0 0.9505545880582588
vt 0 0.8956300831484368
vt 0.21875 0.8956300831484368
vt 0.21875 0.9505545880582588
vt 0.203125 0.9505545880582588
vt 0.203125 0.8956300831484368
vt 0.015625 0.9642857142857143
vt 0.015625 0.9505545880582588
vt 0.203125 0.9505545880582588
vt 0.203125 0.9642857142857143
vt 0.390625 0.9372518729690993
vt 0.390625 0.9642857142857136
vt 0.203125 0.9642857142857136
vt 0.203125 0.9372518729690993
vt 0.8282475567300671 0.7105189604249094
vt 0.8282475567300671 0.7700690784385736
vt 0.624956746081989 0.7700690784385736
vt 0.624956746081989 0.7105189604249094
vt 0.2877856075466776 0.7277634226059564
vt 0.2877856075466776 0.7862025613128423
vt 0.08828743226896785 0.7862025613128423
vt 0.08828743226896785 0.7277634226059564
vn 1 0 0
vn -1 0 0
vn 0 0.9762960071199334 0.216439613938103
vn 0 -0.9762960071199334 -0.21643961393810288
vn 0 -0.21643961393810288 0.9762960071199335
vn 0 0.21643961393810285 -0.9762960071199335
usemtl m_8cc34c8e-48f0-871c-6bb0-8d2b39926f2a
f 81/241/61 82/242/61 83/243/61 84/244/61
f 85/245/62 86/246/62 87/247/62 88/248/62
f 83/249/63 82/250/63 87/251/63 86/252/63
f 81/253/64 84/254/64 85/255/64 88/256/64
f 84/257/65 83/258/65 86/259/65 85/260/65
f 88/261/66 87/262/66 82/263/66 81/264/66
o cube
v 1.2266996489977282 0.11020205359977894 0.04414839892231327
v 1.2984527925661826 0.2793232845967664 0.08164167317394913
v 1.2984527925661826 0.25247963202761065 0.20272556508699002
v 1.2266996489977282 0.08335840103062316 0.16523229083535415
v 1.065020730808253 0.14874055475719603 0.17972716534863556
v 1.1367738743767075 0.3178617857541835 0.2172204396002714
v 1.1367738743767075 0.3447054383233393 0.09613654768723054
v 1.065020730808253 0.17558420732635183 0.05864327343559468
vt 0.015625 0.9093612093758924
vt 0.015625 0.9505545880582588
vt 0 0.9505545880582588
vt 0 0.9093612093758924
vt 0.0625 0.9093612093758924
vt 0.0625 0.9505545880582588
vt 0.046875 0.9505545880582588
vt 0.046875 0.9093612093758924
vt 0.015625 0.9642857142857143
vt 0.015625 0.9505545880582588
vt 0.046875 0.9505545880582588
vt 0.046875 0.9642857142857143
vt 0.07499999999999929 0.9370376673999512
vt 0.07499999999999929 0.964285714285714
vt 0.031249999999999292 0.964285714285714
vt 0.031249999999999292 0.9370376673999512
vt 0.6250998015537719 0.7104645802824133
vt 0.6445488078505437 0.7517274316760054
vt 0.6007250233926202 0.7676796221674562
vt 0.5812760170958482 0.726416770773864
vt 0.3306514198269023 0.7433646401200031
vt 0.3115652582104407 0.783857683231663
vt 0.26855905933087487 0.7682031001022956
vt 0.28764522094733647 0.7277100569906358
vn 0.9238795325112866 -0.3736123070089886 -0.08282785436160812
vn -0.9238795325112866 0.37361230700898856 0.08282785436160815
vn 0.3826834323650895 0.9019798986506001 0.19996412934205773
vn -0.38268343236508967 -0.9019798986506002 -0.1999641293420579
vn -1.5860328923216527e-16 -0.2164396139381029 0.9762960071199334
vn 1.321694076934711e-17 0.216439613938103 -0.9762960071199334
usemtl m_8cc34c8e-48f0-871c-6bb0-8d2b39926f2a
f 89/265/67 90/266/67 91/267/67 92/268/67
f 93/269/68 94/270/68 95/271/68 96/272/68
f 91/273/69 90/274/69 95/275/69 94/276/69
f 89/277/70 92/278/70 93/279/70 96/280/70
f 92/281/71 91/282/71 94/283/71 93/284/71
f 96/285/72 95/286/72 90/287/72 89/288/72
o cube
v 0.25038152399772823 0.08588984228247486 0.038758511436219695
v 0.3221346675661826 0.2550110732794623 0.07625178568785554
v 0.3221346675661826 0.22816742071030655 0.19733567760089643
v 0.25038152399772823 0.05904618971331907 0.15984240334926056
v 0.08870260580825304 0.12442834343989201 0.174337277862542
v 0.16045574937670737 0.2935495744368795 0.21183055211417784
v 0.16045574937670737 0.3203932270060353 0.09074666020113696
v 0.08870260580825304 0.1512719960090478 0.0532533859495011
vt 0.031006250000000395 0.8956300831484368
vt 0.031006250000000395 0.9368234618308033
vt 3.95516952522712e-16 0.9368234618308033
vt 3.95516952522712e-16 0.8956300831484368
vt 0.0625 0.9093612093758924
vt 0.0625 0.9505545880582588
vt 0.046875 0.9505545880582588
vt 0.046875 0.9093612093758924
vt 0.015625 0.9642857142857143
vt 0.015625 0.9505545880582588
vt 0.046875 0.9505545880582588
vt 0.046875 0.9642857142857143
vt 0.046875 0.9505545880582588
vt 0.046875 0.9642857142857143
vt 0.078125 0.9642857142857143
vt 0.078125 0.9505545880582588
vt 0.360464464111556 0.7045327930270724
vt 0.3799134704083281 0.7457956444206644
vt 0.33608968595040445 0.7617478349121151
vt 0.31664067965363246 0.7204849835185229
vt 0.5903496657309756 0.7375435175134103
vt 0.5712635041145139 0.7780365606250701
vt 0.5282573052349481 0.7623819774957028
vt 0.5473434668514096 0.7218889343840429
vn 0.9238795325112866 -0.37361230700898845 -0.08282785436160808
vn -0.9238795325112868 0.37361230700898823 0.08282785436160808
vn 0.38268343236508995 0.9019798986506001 0.19996412934205773
vn -0.38268343236508984 -0.9019798986506001 -0.19996412934205784
vn -1.5860328923216517e-16 -0.21643961393810296 0.9762960071199334
vn 5.286776307738839e-17 0.21643961393810288 -0.9762960071199334
usemtl m_8cc34c8e-48f0-871c-6bb0-8d2b39926f2a
f 97/289/73 98/290/73 99/291/73 100/292/73
f 101/293/74 102/294/74 103/295/74 104/296/74
f 99/297/75 98/298/75 103/299/75 102/300/75
f 97/301/76 100/302/76 101/303/76 104/304/76
f 100/305/77 99/306/77 102/307/77 101/308/77
f 104/309/78 103/310/78 98/311/78 97/312/78