# Made in Blockbench 4.12.2
mtllib leaves_slab_upper_parent.mtl

o plane_onesided
v 1.1913664669779194 0.9858229784650895 -0.18490748619971176
v -0.17840124289823056 0.8659838321870565 -0.18490748619971242
v 1.1861391568348862 1.0455714068027062 1.1887838184753428
v -0.1836285530412639 0.9257322605246734 1.188783818475342
vt 0.875 0.546875
vt 0.875 0.890625
vt 0.53125 0.890625
vt 0.53125 0.546875
vn -0.08707278979269592 0.995246541477834 -0.04361938736533595
usemtl m_3dd4bacd-22b7-821c-3447-e91d62f94f5c
f 1/1/1 2/2/1 4/3/1 3/4/1
o plane_doublesided
v 1.1880752192617294 0.47840825910989865 1.1894237009004387
v 1.1925453923458478 0.532205103887269 -0.18451622393055522
v -0.18220234667269253 0.5922695444391797 1.1894237009004387
v -0.17773217358857418 0.6460663892165501 -0.18451622393055522
v 1.1880752192617294 0.47840825910989865 1.1894237009004387
v 1.1925453923458478 0.532205103887269 -0.18451622393055522
v -0.18220234667269253 0.5922695444391797 1.1894237009004387
v -0.17773217358857418 0.6460663892165501 -0.18451622393055522
vt 0.53125 0.890625
vt 0.875 0.890625
vt 0.875 0.546875
vt 0.53125 0.546875
vt 0.875 0.546875
vt 0.875 0.890625
vt 0.53125 0.890625
vt 0.53125 0.546875
vn -0.08274436538524176 -0.9957971866115899 -0.039259815759068624
vn 0.08274436538524176 0.9957971866115899 0.039259815759068624
usemtl m_3dd4bacd-22b7-821c-3447-e91d62f94f5c
f 8/5/2 6/6/2 5/7/2 7/8/2
f 9/9/3 10/10/3 12/11/3 11/12/3
o plane_onesided
v 0.9491914622911758 0.2821668057773422 -0.16712660874298702
v 0.8713442867788506 1.1528624309829874 -0.20525724619508767
v 1.0036557132211494 0.34713756901701265 1.2052572461950877
v 0.9258085377088242 1.2178331942226577 1.167126608742987
vt 0.4296875 0.625
vt 0.4296875 0.84375
vt 0.0859375 0.84375
vt 0.0859375 0.625
vn 0.9952465414778341 0.08707278979269384 -0.043619387365335265
usemtl m_3dd4bacd-22b7-821c-3447-e91d62f94f5c
f 13/13/4 14/14/4 16/15/4 15/16/4
o plane_onesided
v 0.013433167186159417 0.37730040285587135 -0.22301449239017512
v 0.12720898025641386 1.241513502912905 -0.14675321748597492
v -0.0022089802564138616 0.2584864970870951 1.146753217485975
v 0.11156683281384058 1.1226995971441287 1.2230144923901751
vt 0.0625 0.5546875
vt 0.40625 0.5546875
vt 0.40625 0.3359375
vt 0.0625 0.3359375
vn -0.9914448613738105 0.13052619222005157 -2.775557561562892e-16
usemtl m_3dd4bacd-22b7-821c-3447-e91d62f94f5c
f 20/17/5 18/18/5 17/19/5 19/20/5
o plane_onesided
v -0.14341097106357692 0.34332073860609935 0.9565834819723346
v -0.10528033361147648 1.2166559190212376 0.9184165180276653
v 1.2302803336114765 0.2833440809787624 0.9565834819723347
v 1.268410971063577 1.1566792613939008 0.9184165180276654
vt 0.0625 0.5546875
vt 0.40625 0.5546875
vt 0.40625 0.3359375
vt 0.0625 0.3359375
vn 0.0019026509541271556 0.043577871373829326 0.9990482215818577
usemtl m_3dd4bacd-22b7-821c-3447-e91d62f94f5c
f 24/21/6 22/22/6 21/23/6 23/24/6
o plane_onesided
v -0.15465521606834098 0.37357177246924983 -0.027236757151284527
v -0.07839394116414011 1.2452421332995272 -0.027236757151285887
v 1.2033939411641401 0.2547578667004729 0.15223675715128587
v 1.279655216068341 1.1264282275307502 0.15223675715128454
vt 0.4140625 0.6328125
vt 0.4140625 0.8515625
vt 0.0703125 0.8515625
vt 0.0703125 0.6328125
vn 0.13002950065171898 -0.011376107230963703 -0.9914448613738105
usemtl m_3dd4bacd-22b7-821c-3447-e91d62f94f5c
f 25/25/7 26/26/7 28/27/7 27/28/7
o plane_doublesided
v 1.3801637600850056 0.06720402367502676 0.9643629654117764
v 0.9140397411748582 1.6175681317087904 1.104807016605579
v 0.19337859626984938 -0.19182941714609458 -0.11502003032449337
v -0.27274542264029816 1.358534690887669 0.025424020869309172
v 1.3801637600850056 0.06720402367502676 0.9643629654117764
v 0.9140397411748582 1.6175681317087904 1.104807016605579
v 0.19337859626984938 -0.19182941714609458 -0.11502003032449337
v -0.27274542264029816 1.358534690887669 0.025424020869309172
vt 0.4765625 0.421875
vt 0.8828125 0.421875
vt 0.8828125 0.015625
vt 0.4765625 0.015625
vt 0.8828125 0.015625
vt 0.8828125 0.421875
vt 0.4765625 0.421875
vt 0.4765625 0.015625
vn 0.619950560790678 0.2536533041301834 -0.7425101369538094
vn -0.619950560790678 -0.2536533041301834 0.7425101369538094
usemtl m_3dd4bacd-22b7-821c-3447-e91d62f94f5c
f 32/29/8 30/30/8 29/31/8 31/32/8
f 33/33/9 34/34/9 36/35/9 35/36/9
o plane_doublesided
v 0.8388991324649434 0.14889915514517738 1.5314541852891805
v 1.7072092995046648 0.837599294991758 0.3430289368234848
v -0.5345520626126808 0.5666755251884015 0.77006091018534
v 0.33375810442704074 1.255375665034982 -0.4183643382803559
v 0.8388991324649434 0.14889915514517738 1.5314541852891805
v 1.7072092995046648 0.837599294991758 0.3430289368234848
v -0.5345520626126808 0.5666755251884015 0.77006091018534
v 0.33375810442704074 1.255375665034982 -0.4183643382803559
vt 0.4765625 0.03125
vt 0.8828125 0.03125
vt 0.8828125 0.4375
vt 0.4765625 0.4375
vt 0.8828125 0.4296875
vt 0.8828125 0.0234375
vt 0.4765625 0.0234375
vt 0.4765625 0.4296875
vn 0.010556466242100243 -0.8684949963186629 -0.4955855147095455
vn -0.010556466242100243 0.8684949963186629 0.4955855147095455
usemtl m_3dd4bacd-22b7-821c-3447-e91d62f94f5c
f 40/37/10 38/38/10 37/39/10 39/40/10
f 41/41/11 42/42/11 44/43/11 43/44/11
o plane_doublesided
v -0.6961450175559853 0.4728298314671027 0.7760008576310887
v 0.4415872210605007 1.5543322162223685 1.1961709957672877
v 0.20738579673236812 0.01615359369772318 -0.49510255338165443
v 1.3451180353488539 1.097655978452989 -0.07493241524545557
v -0.6961450175559853 0.4728298314671027 0.7760008576310887
v 0.4415872210605007 1.5543322162223685 1.1961709957672877
v 0.20738579673236812 0.01615359369772318 -0.49510255338165443
v 1.3451180353488539 1.097655978452989 -0.07493241524545557
vt 0.4765625 0.015625
vt 0.8828125 0.015625
vt 0.8828125 0.421875
vt 0.4765625 0.421875
vt 0.8828125 0.421875
vt 0.8828125 0.015625
vt 0.4765625 0.015625
vt 0.4765625 0.421875
vn 0.44793170267408466 -0.6914317619406123 0.5668150565388996
vn -0.44793170267408466 0.6914317619406123 -0.5668150565388996
usemtl m_3dd4bacd-22b7-821c-3447-e91d62f94f5c
f 48/45/12 46/46/12 45/47/12 47/48/12
f 49/49/13 50/50/13 52/51/13 51/52/13