# Made in Blockbench 4.12.2
mtllib leaves_vertical_slab_extended_parent_3_2.mtl

o doubleface
v 0.04429091148232189 1.5580129590878584 1.0354428540622838
v -0.40730060222097186 0.613651593240366 -0.03891589209554713
v 1.280075153696688 0.4171121708701388 1.51885023726909
v 0.8284836399933942 -0.5272491949773535 0.4444914911112592
v 0.04429091148232189 1.5580129590878584 1.0354428540622838
v -0.40730060222097186 0.613651593240366 -0.03891589209554713
v 1.280075153696688 0.4171121708701388 1.51885023726909
v 0.8284836399933942 -0.5272491949773535 0.4444914911112592
vt 0.9895833333333334 0.25
vt 0.9895833333333334 0
vt 0.6979166666666666 0
vt 0.6979166666666666 0.25
vt 0.6979166666666666 0
vt 0.9895833333333334 0
vt 0.9895833333333334 0.25
vt 0.6979166666666666 0.25
vn -0.640856379804195 -0.4226182617406939 0.6408563843073859
vn 0.640856379804195 0.4226182617406939 -0.6408563843073859
usemtl m_8d649761-3c17-36ca-5d37-cf1956a7b9c6
f 1/1/1 2/2/1 4/3/1 3/4/1
f 8/5/2 6/6/2 5/7/2 7/8/2
o doubleface
v -0.18247261679184812 0.9871302193212564 0.3541928776842076
v 1.1912211778736155 0.981851071279626 0.4138794682515521
v -0.21784740760268562 0.9502123057358871 1.165082476724418
v 1.1558463870627782 0.9449331576942567 1.2247690672917622
v -0.18247261679184812 0.9871302193212564 0.3541928776842076
v 1.1912211778736155 0.981851071279626 0.4138794682515521
v -0.21784740760268562 0.9502123057358871 1.165082476724418
v 1.1558463870627782 0.9449331576942567 1.2247690672917622
vt 0.6875 0.1875
vt 0.4583333333333333 0.1875
vt 0.4583333333333333 0.32291666666666663
vt 0.6875 0.32291666666666663
vt 0.4583333333333333 0.32291666666666663
vt 0.4583333333333333 0.1875
vt 0.6875 0.1875
vt 0.6875 0.32291666666666663
vn -0.0018594030509481007 -0.9989598084617259 -0.04556142774766973
vn 0.0018594030509481007 0.9989598084617259 0.04556142774766973
usemtl m_8d649761-3c17-36ca-5d37-cf1956a7b9c6
f 9/9/3 10/10/3 12/11/3 11/12/3
f 16/13/4 14/14/4 13/15/4 15/16/4
o doubleface
v -0.21943038129345593 1.1660918507341942 0.9872913480199891
v 1.1545972500910546 1.1360967151295194 0.9451800664919943
v -0.28250182748962216 -1.708196617807025 0.9766709767598928
v 1.0915258038948883 -1.7381917534116997 0.934559695231898
v -0.21943038129345593 1.1660918507341942 0.9872913480199891
v 1.1545972500910546 1.1360967151295194 0.9451800664919943
v -0.28250182748962216 -1.708196617807025 0.9766709767598928
v 1.0915258038948883 -1.7381917534116997 0.934559695231898
vt 0.3802083333333333 0.9583333333333334
vt 0.609375 0.9583333333333334
vt 0.609375 0.47916666666666663
vt 0.3802083333333333 0.47916666666666663
vt 0.609375 0.47916666666666663
vt 0.609375 0.9583333333333334
vt 0.3802083333333333 0.9583333333333334
vt 0.3802083333333333 0.47916666666666663
vn -0.03053822265050805 0.0043633082672768515 -0.9995240759973284
vn 0.03053822265050805 -0.0043633082672768515 0.9995240759973284
usemtl m_8d649761-3c17-36ca-5d37-cf1956a7b9c6
f 17/17/5 18/18/5 20/19/5 19/20/5
f 24/21/6 22/22/6 21/23/6 23/24/6
o doubleface
v -0.21248315170680143 1.1373456714658623 0.5314076259820971
v 1.162307428257336 1.1613370698352425 0.5308841318074144
v -0.16230737827732156 -1.7365323823352417 0.5941158681925848
v 1.212483201686816 -1.7125409839658614 0.5935923740179021
v -0.21248315170680143 1.1373456714658623 0.5314076259820971
v 1.162307428257336 1.1613370698352425 0.5308841318074144
v -0.16230737827732156 -1.7365323823352417 0.5941158681925848
v 1.212483201686816 -1.7125409839658614 0.5935923740179021
vt 0.9791666666666666 0.47395833333333337
vt 0.9791666666666666 0.953125
vt 0.75 0.953125
vt 0.75 0.47395833333333337
vt 0.75 0.953125
vt 0.9791666666666666 0.953125
vt 0.9791666666666666 0.47395833333333337
vt 0.75 0.47395833333333337
vn -5.028529675987772e-16 0.021814885034545716 0.9997620270799095
vn 5.028529675987772e-16 -0.021814885034545716 -0.9997620270799095
usemtl m_8d649761-3c17-36ca-5d37-cf1956a7b9c6
f 28/25/7 26/26/7 25/27/7 27/28/7
f 29/29/8 30/30/8 32/31/8 31/32/8
o doubleface
v 0.02024136648786304 1.1294620455103686 1.1281076828610817
v -0.02335642960221533 1.129462066284646 0.5046301514486918
v 0.10782571990153914 -1.7441970279411119 1.1219830925003818
v 0.06422792381146075 -1.7441970071668345 0.49850556108799204
v 0.02024136648786304 1.1294620455103686 1.1281076828610817
v -0.02335642960221533 1.129462066284646 0.5046301514486918
v 0.10782571990153914 -1.7441970279411119 1.1219830925003818
v 0.06422792381146075 -1.7441970071668345 0.49850556108799204
vt 0.5156249999999994 0.15104166666666663
vt 0.036458333333332815 0.15104166666666663
vt 0.036458333333332815 0.046875
vt 0.5156249999999994 0.046875
vt 0.036458333333332815 0.046875
vt 0.036458333333332815 0.15104166666666663
vt 0.5156249999999994 0.15104166666666663
vt 0.5156249999999994 0.046875
vn 0.9970987772458176 0.03053851553301712 -0.06972393766802897
vn -0.9970987772458176 -0.03053851553301712 0.06972393766802897
usemtl m_8d649761-3c17-36ca-5d37-cf1956a7b9c6
f 36/33/9 34/34/9 33/35/9 35/36/9
f 37/37/10 38/38/10 40/39/10 39/40/10
o doubleface
v 0.9156803550131201 1.130117509108198 1.1205979334929221
v 0.9592781511031985 1.130117529882475 0.4971204020805319
v 0.9407080295405633 -1.7447730197596076 1.1223479431916061
v 0.9843058256306418 -1.7447729989853302 0.498870411779216
v 0.9156803550131201 1.130117509108198 1.1205979334929221
v 0.9592781511031985 1.130117529882475 0.4971204020805319
v 0.9407080295405633 -1.7447730197596076 1.1223479431916061
v 0.9843058256306418 -1.7447729989853302 0.498870411779216
vt 0.036458333333332815 0.046875
vt 0.036458333333332815 0.15104166666666663
vt 0.5156249999999994 0.15104166666666663
vt 0.5156249999999994 0.046875
vt 0.5156249999999994 0.15104166666666663
vt 0.036458333333332815 0.15104166666666663
vt 0.036458333333332815 0.046875
vt 0.5156249999999994 0.046875
vn -0.9975260660774974 -0.00872653317418405 -0.06975381792211936
vn 0.9975260660774974 0.00872653317418405 0.06975381792211936
usemtl m_8d649761-3c17-36ca-5d37-cf1956a7b9c6
f 41/41/11 42/42/11 44/43/11 43/44/11
f 48/45/12 46/46/12 45/47/12 47/48/12
o doubleface
v 0.15178145601270987 0.031172543659443774 -0.13290629931628328
v -0.15252316903850638 -0.36941904130462033 0.9427708489156653
v 1.2204615006830386 1.4941374822250135 0.7142398218760796
v 0.9161568756318224 1.0935458972609493 1.7899169701080282
v 0.15178145601270987 0.031172543659443774 -0.13290629931628328
v -0.15252316903850638 -0.36941904130462033 0.9427708489156653
v 1.2204615006830386 1.4941374822250135 0.7142398218760796
v 0.9161568756318224 1.0935458972609493 1.7899169701080282
vt 1 0.22395833333333337
vt 1 0.02604166666666663
vt 0.6666666666666666 0.02604166666666663
vt 0.6666666666666666 0.22395833333333337
vt 0.6666666666666666 0.02604166666666663
vt 1 0.02604166666666663
vt 1 0.22395833333333337
vt 0.6666666666666666 0.22395833333333337
vn -0.8054894991427988 0.5925663939353282 -0.007192742812344166
vn 0.8054894991427988 -0.5925663939353282 0.007192742812344166
usemtl m_8d649761-3c17-36ca-5d37-cf1956a7b9c6
f 49/49/13 50/50/13 52/51/13 51/52/13
f 56/53/14 54/54/14 53/55/14 55/56/14