# Made in Blockbench 4.12.2
mtllib leaves_vertical_slab_extended_parent_2_2.mtl

o doubleface
v 1.0354428540622838 1.5580129590878584 0.9557090885176781
v -0.038915892095547244 0.613651593240366 1.4073006022209718
v 1.5188502372690902 0.4171121708701388 -0.2800751536966878
v 0.4444914911112592 -0.5272491949773535 0.17151636000660592
v 1.0354428540622838 1.5580129590878584 0.9557090885176781
v -0.038915892095547244 0.613651593240366 1.4073006022209718
v 1.5188502372690902 0.4171121708701388 -0.2800751536966878
v 0.4444914911112592 -0.5272491949773535 0.17151636000660592
vt 0.9895833333333334 0.25
vt 0.9895833333333334 0
vt 0.6979166666666666 0
vt 0.6979166666666666 0.25
vt 0.6979166666666666 0
vt 0.9895833333333334 0
vt 0.9895833333333334 0.25
vt 0.6979166666666666 0.25
vn 0.6408563843073858 -0.4226182617406939 0.6408563798041951
vn -0.6408563843073858 0.4226182617406939 -0.6408563798041951
usemtl m_8d649761-3c17-36ca-5d37-cf1956a7b9c6
f 1/1/1 2/2/1 4/3/1 3/4/1
f 8/5/2 6/6/2 5/7/2 7/8/2
o doubleface
v 0.3541928776842076 0.9871302193212564 1.182472616791848
v 0.4138794682515521 0.981851071279626 -0.1912211778736157
v 1.1650824767244177 0.9502123057358871 1.2178474076026857
v 1.2247690672917624 0.9449331576942567 -0.1558463870627781
v 0.3541928776842076 0.9871302193212564 1.182472616791848
v 0.4138794682515521 0.981851071279626 -0.1912211778736157
v 1.1650824767244177 0.9502123057358871 1.2178474076026857
v 1.2247690672917624 0.9449331576942567 -0.1558463870627781
vt 0.6875 0.1875
vt 0.4583333333333333 0.1875
vt 0.4583333333333333 0.32291666666666663
vt 0.6875 0.32291666666666663
vt 0.4583333333333333 0.32291666666666663
vt 0.4583333333333333 0.1875
vt 0.6875 0.1875
vt 0.6875 0.32291666666666663
vn -0.04556142774766973 -0.9989598084617259 0.001859403050948096
vn 0.04556142774766973 0.9989598084617259 -0.001859403050948096
usemtl m_8d649761-3c17-36ca-5d37-cf1956a7b9c6
f 9/9/3 10/10/3 12/11/3 11/12/3
f 16/13/4 14/14/4 13/15/4 15/16/4
o doubleface
v 0.987291348019989 1.1660918507341942 1.219430381293456
v 0.9451800664919944 1.1360967151295194 -0.15459725009105463
v 0.9766709767598927 -1.708196617807025 1.282501827489622
v 0.9345596952318981 -1.7381917534116997 -0.0915258038948884
v 0.987291348019989 1.1660918507341942 1.219430381293456
v 0.9451800664919944 1.1360967151295194 -0.15459725009105463
v 0.9766709767598927 -1.708196617807025 1.282501827489622
v 0.9345596952318981 -1.7381917534116997 -0.0915258038948884
vt 0.3802083333333333 0.9583333333333334
vt 0.609375 0.9583333333333334
vt 0.609375 0.47916666666666663
vt 0.3802083333333333 0.47916666666666663
vt 0.609375 0.47916666666666663
vt 0.609375 0.9583333333333334
vt 0.3802083333333333 0.9583333333333334
vt 0.3802083333333333 0.47916666666666663
vn -0.9995240759973284 0.0043633082672768515 0.03053822265050795
vn 0.9995240759973284 -0.0043633082672768515 -0.03053822265050795
usemtl m_8d649761-3c17-36ca-5d37-cf1956a7b9c6
f 17/17/5 18/18/5 20/19/5 19/20/5
f 24/21/6 22/22/6 21/23/6 23/24/6
o doubleface
v 0.5314076259820975 1.1373456714658623 1.2124831517068015
v 0.5308841318074148 1.1613370698352425 -0.16230742825733613
v 0.5941158681925851 -1.7365323823352417 1.1623073782773217
v 0.5935923740179024 -1.7125409839658614 -0.212483201686816
v 0.5314076259820975 1.1373456714658623 1.2124831517068015
v 0.5308841318074148 1.1613370698352425 -0.16230742825733613
v 0.5941158681925851 -1.7365323823352417 1.1623073782773217
v 0.5935923740179024 -1.7125409839658614 -0.212483201686816
vt 0.9791666666666666 0.47395833333333337
vt 0.9791666666666666 0.953125
vt 0.75 0.953125
vt 0.75 0.47395833333333337
vt 0.75 0.953125
vt 0.9791666666666666 0.953125
vt 0.9791666666666666 0.47395833333333337
vt 0.75 0.47395833333333337
vn 0.9997620270799095 0.021814885034545716 6.023285169243223e-16
vn -0.9997620270799095 -0.021814885034545716 -6.023285169243223e-16
usemtl m_8d649761-3c17-36ca-5d37-cf1956a7b9c6
f 28/25/7 26/26/7 25/27/7 27/28/7
f 29/29/8 30/30/8 32/31/8 31/32/8
o doubleface
v 1.1281076828610817 1.1294620455103686 0.979758633512137
v 0.5046301514486918 1.129462066284646 1.0233564296022153
v 1.1219830925003818 -1.7441970279411119 0.8921742800984609
v 0.49850556108799204 -1.7441970071668345 0.9357720761885392
v 1.1281076828610817 1.1294620455103686 0.979758633512137
v 0.5046301514486918 1.129462066284646 1.0233564296022153
v 1.1219830925003818 -1.7441970279411119 0.8921742800984609
v 0.49850556108799204 -1.7441970071668345 0.9357720761885392
vt 0.5156249999999994 0.15104166666666663
vt 0.036458333333332815 0.15104166666666663
vt 0.036458333333332815 0.046875
vt 0.5156249999999994 0.046875
vt 0.036458333333332815 0.046875
vt 0.036458333333332815 0.15104166666666663
vt 0.5156249999999994 0.15104166666666663
vt 0.5156249999999994 0.046875
vn -0.06972393766802887 0.03053851553301712 -0.9970987772458176
vn 0.06972393766802887 -0.03053851553301712 0.9970987772458176
usemtl m_8d649761-3c17-36ca-5d37-cf1956a7b9c6
f 36/33/9 34/34/9 33/35/9 35/36/9
f 37/37/10 38/38/10 40/39/10 39/40/10
o doubleface
v 1.1205979334929221 1.130117509108198 0.08431964498688022
v 0.4971204020805319 1.130117529882475 0.040721848896801645
v 1.1223479431916061 -1.7447730197596076 0.05929197045943693
v 0.498870411779216 -1.7447729989853302 0.01569417436935836
v 1.1205979334929221 1.130117509108198 0.08431964498688022
v 0.4971204020805319 1.130117529882475 0.040721848896801645
v 1.1223479431916061 -1.7447730197596076 0.05929197045943693
v 0.498870411779216 -1.7447729989853302 0.01569417436935836
vt 0.036458333333332815 0.046875
vt 0.036458333333332815 0.15104166666666663
vt 0.5156249999999994 0.15104166666666663
vt 0.5156249999999994 0.046875
vt 0.5156249999999994 0.15104166666666663
vt 0.036458333333332815 0.15104166666666663
vt 0.036458333333332815 0.046875
vt 0.5156249999999994 0.046875
vn -0.06975381792211946 -0.00872653317418405 0.9975260660774974
vn 0.06975381792211946 0.00872653317418405 -0.9975260660774974
usemtl m_8d649761-3c17-36ca-5d37-cf1956a7b9c6
f 41/41/11 42/42/11 44/43/11 43/44/11
f 48/45/12 46/46/12 45/47/12 47/48/12
o doubleface
v -0.13290629931628328 0.031172543659443774 0.84821854398729
v 0.9427708489156652 -0.36941904130462033 1.1525231690385063
v 0.7142398218760797 1.4941374822250135 -0.22046150068303855
v 1.7899169701080282 1.0935458972609493 0.08384312436817781
v -0.13290629931628328 0.031172543659443774 0.84821854398729
v 0.9427708489156652 -0.36941904130462033 1.1525231690385063
v 0.7142398218760797 1.4941374822250135 -0.22046150068303855
v 1.7899169701080282 1.0935458972609493 0.08384312436817781
vt 1 0.22395833333333337
vt 1 0.02604166666666663
vt 0.6666666666666666 0.02604166666666663
vt 0.6666666666666666 0.22395833333333337
vt 0.6666666666666666 0.02604166666666663
vt 1 0.02604166666666663
vt 1 0.22395833333333337
vt 0.6666666666666666 0.22395833333333337
vn -0.007192742812344279 0.5925663939353282 0.805489499142799
vn 0.007192742812344279 -0.5925663939353282 -0.805489499142799
usemtl m_8d649761-3c17-36ca-5d37-cf1956a7b9c6
f 49/49/13 50/50/13 52/51/13 51/52/13
f 56/53/14 54/54/14 53/55/14 55/56/14