# Made in Blockbench 4.12.2
mtllib leaves_parent_2.mtl

o diagonal_1
v 1.185172223593667 -0.6902354192644031 0.248649046807788
v 0.25356789876030494 0.7145627370905787 -0.8870952132936758
v -0.21300628362416807 1.7619694007635587 0.7911500952728929
v 0.7185980412091938 0.3571712444085771 1.9268943553743563
v 0.25356789876030494 0.7145627370905787 -0.8870952132936758
v 1.185172223593667 -0.6902354192644031 0.248649046807788
v 0.7185980412091938 0.3571712444085771 1.9268943553743563
v -0.21300628362416807 1.7619694007635587 0.7911500952728929
vt 0.49999999999999956 0.21223962688127496
vt 0.9065103731187245 0.21223962688127496
vt 0.9065103731187246 0.6187499999999999
vt 0.49999999999999967 0.61875
vt 0.9065103731187248 0.2122396268812745
vt 0.49999999999999983 0.21223962688127462
vt 0.5 0.6187499999999997
vt 0.906510373118725 0.6187499999999995
vn 0.8586199970003758 0.5067146074653087 -0.07753713518278087
vn -0.8586199970003757 -0.5067146074653087 0.07753713518278074
usemtl m_b2bff805-3e5a-c860-a1cb-7ffdc3695c42
f 1/1/1 2/2/1 3/3/1 4/4/1
f 5/5/2 6/6/2 7/7/2 8/8/2
o west
v 1.182632553313267 1.3579590500051846 0.15265923979479648
v 1.4208421693348756 -0.12293731282828302 0.16687688311024404
v -0.05396508121260002 -0.3614573840265649 0.03252008436837664
v -0.2921746972342085 1.1194389788069024 0.01830244105292908
vt 0.36249966575502285 0.9187499999999994
vt 0.0625000000000007 0.9187499999999994
vt 0.06250000308854582 0.6187490842487929
vt 0.36249966884356793 0.6187490842487929
vn 0.08993763905540089 0.0049052435514990375 -0.9959353190176765
usemtl m_b2bff805-3e5a-c860-a1cb-7ffdc3695c42
f 9/9/3 10/10/3 11/11/3 12/12/3
o east
v -0.1421813295733556 -0.3607480336103381 0.8692028575806325
v 1.3458016603994911 -0.17198522867852734 0.8526129502347892
v 1.1584216859296583 1.313320682959249 0.9461816096328952
v -0.32956130404318806 1.1245578780274383 0.9627715169787383
vt 0.05625 0.6187500294374976
vt 0.3562500184270828 0.6187500294374976
vt 0.35625126751033936 0.91875
vt 0.05625124908325665 0.91875
vn 0.018801497802666434 -0.06049775873956596 0.9979912448853776
usemtl m_b2bff805-3e5a-c860-a1cb-7ffdc3695c42
f 13/13/4 14/14/4 15/15/4 16/16/4
o bottom
v 1.290830248480939 0.004925673572655165 1.1121383643513494
v -0.20399347278563384 0.04018921911474582 1.2315474288923487
v -0.32097404338878366 0.13500327227171177 -0.2608753803092899
v 1.1738496778777894 0.09973972672962123 -0.38028444485028956
vt 0.05 0.618749979536459
vt 0.350000020463541 0.6187499795364587
vt 0.3500000204635413 0.9187499999999996
vt 0.050000000000000336 0.91875
vn -0.02842212315251145 -0.9977233590484887 -0.06115784270642598
usemtl m_b2bff805-3e5a-c860-a1cb-7ffdc3695c42
f 17/17/5 18/18/5 19/19/5 20/20/5
o north
v 0.8749356303053604 0.13661617093937956 1.5058347321958276
v 0.7873934533274441 -0.45231830783176563 0.12906585291197104
v 0.9857216627088232 0.9100917519931869 -0.46633716207144793
v 1.0732638396867393 1.4990262307643323 0.9104317172124088
vt 0.0625 0.925
vt 0.06250000000000008 0.6249993343496968
vt 0.36249949051228575 0.6249989082621006
vt 0.3624994905122856 0.9249995739124038
vn 0.9895009491014579 -0.1445222145205505 -0.0010960097582453088
usemtl m_b2bff805-3e5a-c860-a1cb-7ffdc3695c42
f 21/21/6 22/22/6 23/23/6 24/24/6
o top
v 1.3323677025306404 0.8695576056435391 -0.22685361971588314
v -0.16538012411312297 0.9255546686609792 -0.28698494863268986
v -0.2251798569012372 0.9355261519911989 1.211789404456748
v 1.2725679697425263 0.8795290889737586 1.271920733373555
vt 0.35624958379547544 0.6124986532336829
vt 0.3562495837954754 0.9124991835795684
vt 0.05625 0.9125
vt 0.05625000000000004 0.6124994696541146
vn 0.037567360196795685 0.9992808299424623 -0.005149403591506278
usemtl m_b2bff805-3e5a-c860-a1cb-7ffdc3695c42
f 25/25/7 26/26/7 27/27/7 28/28/7
o diagonal_2
v 0.7267329995974269 -0.7233416952506169 1.3682390730174063
v -0.8513208671669148 -0.05597867368596443 0.16049876420172093
v 0.09930488855739272 1.7997198500559457 -0.056198545508584274
v 1.6773587553217346 1.1323568284912933 1.1515417633071008
v -0.8513208671669148 -0.05597867368596443 0.16049876420172093
v 0.7267329995974269 -0.7233416952506169 1.3682390730174063
v 1.6773587553217346 1.1323568284912933 1.1515417633071008
v 0.09930488855739272 1.7997198500559457 -0.056198545508584274
vt 0.5 0.19949986149003496
vt 0.9192501385099652 0.19949986149003462
vt 0.9192501385099654 0.6187499999999999
vt 0.5000000000000002 0.61875
vt 0.9192501385099654 0.19949986149003462
vt 0.5 0.19949986149003485
vt 0.5000000000000002 0.61875
vt 0.9192501385099654 0.6187499999999998
vn 0.47711883194540383 -0.33909411225611724 -0.8107853003331333
vn -0.47711883194540394 0.3390941122561173 0.8107853003331335
usemtl m_b2bff805-3e5a-c860-a1cb-7ffdc3695c42
f 29/29/8 30/30/8 31/31/8 32/32/8
f 33/33/9 34/34/9 35/35/9 36/36/9
o diagonal_3
v 1.4993647556193241 1.1863431689967794 -0.4098229539592665
v -0.19381997561687636 -0.028691410478417223 -0.635832907474875
v -0.4124032079325455 -0.11158312019509692 1.4473412085103152
v 1.2807815233036548 1.1034514592801001 1.6733511620259238
v -0.19381997561687636 -0.028691410478417223 -0.635832907474875
v 1.4993647556193241 1.1863431689967794 -0.4098229539592665
v 1.2807815233036548 1.1034514592801001 1.6733511620259238
v -0.4124032079325455 -0.11158312019509692 1.4473412085103152
vt 0.5 0.19949986149003496
vt 0.9192501385099652 0.19949986149003462
vt 0.9192501385099654 0.6187499999999999
vt 0.5000000000000002 0.61875
vt 0.9192501385099654 0.19949986149003462
vt 0.5 0.19949986149003485
vt 0.5000000000000002 0.61875
vt 0.9192501385099654 0.6187499999999998
vn -0.5802707577839326 0.813924821311885 -0.02849970023135193
vn 0.5802707577839323 -0.813924821311885 0.0284997002313521
usemtl m_b2bff805-3e5a-c860-a1cb-7ffdc3695c42
f 37/37/10 38/38/10 39/39/10 40/40/10
f 41/41/11 42/42/11 43/43/11 44/44/11
o south
v 0.07711842873178106 -0.254823897560605 -0.07185521385575
v -0.017664666558717623 0.0534489564594941 1.3930625354808654
v 0.3247869030025778 1.4868424506665274 1.11358084865692
v 0.41956999829307645 1.1785695966464282 -0.3513369006796956
vt 0.075 0.9125
vt 0.07500000000000022 0.6125003551955228
vt 0.3749998797578806 0.6124991274753194
vt 0.375001107478084 0.9124990072331998
vn -0.9715378616404813 0.2111881080819292 -0.10730221993890174
usemtl m_b2bff805-3e5a-c860-a1cb-7ffdc3695c42
f 45/45/12 46/46/12 47/47/12 48/48/12
o bottom
v 1.290830248480939 0.004925673572655165 1.1121383643513494
v -0.20399347278563384 0.04018921911474582 1.2315474288923487
v -0.32097404338878366 0.13500327227171177 -0.2608753803092899
v 1.1738496778777894 0.09973972672962123 -0.38028444485028956
vt 0.3500000204635413 0.9187499999999996
vt 0.350000020463541 0.6187499795364587
vt 0.05 0.618749979536459
vt 0.050000000000000336 0.91875
vn 0.028422123152511462 0.9977233590484887 0.061157842706426005
usemtl m_b2bff805-3e5a-c860-a1cb-7ffdc3695c42
f 51/49/13 50/50/13 49/51/13 52/52/13