# Made in Blockbench 4.12.2
mtllib leaves_vertical_slab_parent_3_3.mtl

o plane_onesided
v 1.1694631848161925 -0.17034960345140726 0.5204270161291185
v -0.20030452574333152 -0.17034960510121533 0.6402661545961503
v 1.1642358750138735 1.2033417020461963 0.46067860667313343
v -0.20553183554565052 1.2033417003963884 0.5805177451401653
vt 0.875 0.546875
vt 0.875 0.890625
vt 0.53125 0.890625
vt 0.53125 0.546875
vn -0.08707278411737476 -0.04361937366389837 -0.995246542574863
usemtl m_3dd4bacd-22b7-821c-3447-e91d62f94f5c
f 1/1/1 2/2/1 4/3/1 3/4/1
o plane_doublesided
v 1.1661719342065102 1.2039815766632267 1.0278417543857905
v 1.1706421075973976 -0.16995834742715255 0.9740448907190481
v -0.20410563107862612 1.2039815782307444 0.913980461242601
v -0.1996354576877385 -0.16995834585963476 0.8601835975758586
v 1.1661719342065102 1.2039815766632267 1.0278417543857905
v 1.1706421075973976 -0.16995834742715255 0.9740448907190481
v -0.20410563107862612 1.2039815782307444 0.913980461242601
v -0.1996354576877385 -0.16995834585963476 0.8601835975758586
vt 0.53125 0.890625
vt 0.875 0.890625
vt 0.875 0.546875
vt 0.53125 0.546875
vt 0.875 0.546875
vt 0.875 0.890625
vt 0.53125 0.890625
vt 0.53125 0.546875
vn -0.08274437106370312 -0.039259829468086434 0.9957971855992609
vn 0.08274437106370312 0.039259829468086434 -0.9957971855992609
usemtl m_3dd4bacd-22b7-821c-3447-e91d62f94f5c
f 8/5/2 6/6/2 5/7/2 7/8/2
f 9/9/3 10/10/3 12/11/3 11/12/3
o plane_onesided
v 0.9272881761169005 -0.15256873568183038 1.2240831876806673
v 0.849441005569654 -0.19069936114717057 0.35338756150616457
v 0.9817524274173686 1.2198151201506884 1.159112443645016
v 0.903905256870122 1.1816844946853482 0.2884168174705132
vt 0.4296875 0.625
vt 0.4296875 0.84375
vt 0.0859375 0.84375
vt 0.0859375 0.625
vn 0.9952465419743605 -0.04361938616661728 -0.08707278471787534
usemtl m_3dd4bacd-22b7-821c-3447-e91d62f94f5c
f 13/13/4 14/14/4 16/15/4 15/16/4
o plane_onesided
v -0.008470118445623495 -0.2084566180193237 1.1289495844966426
v 0.10530569955274371 -0.13219533121760763 0.26473648613828715
v -0.024112266565721185 1.1613110902211299 1.2477635090336454
v 0.08966355143264602 1.237572377022846 0.3835504106752897
vt 0.0625 0.5546875
vt 0.40625 0.5546875
vt 0.40625 0.3359375
vt 0.0625 0.3359375
vn -0.9914448606294942 1.7969402927447975e-9 -0.130526197873694
usemtl m_3dd4bacd-22b7-821c-3447-e91d62f94f5c
f 20/17/5 18/18/5 17/19/5 19/20/5
o plane_onesided
v -0.1653142568891235 0.9711413558753923 1.1629292640914033
v -0.12718361445689275 0.9329744039538216 0.2895940833682625
v 1.2083770474439175 0.9711413550496978 1.2229059295521154
v 1.2465076898761482 0.9329744031281271 0.3495707488289745
vt 0.0625 0.5546875
vt 0.40625 0.5546875
vt 0.40625 0.3359375
vt 0.0625 0.3359375
vn 0.0019026512026292005 0.999048222181789 -0.043577857609204976
usemtl m_3dd4bacd-22b7-821c-3447-e91d62f94f5c
f 24/21/6 22/22/6 21/23/6 23/24/6
o plane_onesided
v -0.17655850172138554 -0.012678882831764188 1.1326782166200005
v -0.10029722184654766 -0.01267887083158653 0.2610078562245977
v 1.1814906548335682 0.16679462983510634 1.2514921326037443
v 1.257751934708406 0.166794641835284 0.3798217722083414
vt 0.4140625 0.6328125
vt 0.4140625 0.8515625
vt 0.0703125 0.8515625
vt 0.0703125 0.6328125
vn 0.13002950058684515 -0.9914448615304242 0.011376094323347413
usemtl m_3dd4bacd-22b7-821c-3447-e91d62f94f5c
f 25/25/7 26/26/7 28/27/7 27/28/7
o plane_doublesided
v 1.3582604726849237 0.9789208355135653 1.4390459878176496
v 0.8921364626156154 1.119364908051042 -0.11131812094067628
v 0.17147530739264527 -0.10046216378878292 1.6980794070114809
v -0.29464870267666293 0.039981908748693784 0.1477152982531551
v 1.3582604726849237 0.9789208355135653 1.4390459878176496
v 0.8921364626156154 1.119364908051042 -0.11131812094067628
v 0.17147530739264527 -0.10046216378878292 1.6980794070114809
v -0.29464870267666293 0.039981908748693784 0.1477152982531551
vt 0.4765625 0.421875
vt 0.8828125 0.421875
vt 0.8828125 0.015625
vt 0.4765625 0.015625
vt 0.8828125 0.015625
vt 0.8828125 0.421875
vt 0.4765625 0.421875
vt 0.4765625 0.015625
vn 0.6199505622371158 -0.7425101334617967 -0.2536533108170064
vn -0.6199505622371158 0.7425101334617967 0.2536533108170064
usemtl m_3dd4bacd-22b7-821c-3447-e91d62f94f5c
f 32/29/8 30/30/8 29/31/8 31/32/8
f 33/33/9 34/34/9 36/35/9 35/36/9
o plane_doublesided
v 0.8169958455307231 1.5460120565156579 1.3573508610680523
v 1.6853060164977045 0.3575868175312106 0.6686507098120424
v -0.5564553471645635 0.7846187871632968 0.9395744727108142
v 0.31185482380241786 -0.4038064518211505 0.2508743214548045
v 0.8169958455307231 1.5460120565156579 1.3573508610680523
v 1.6853060164977045 0.3575868175312106 0.6686507098120424
v -0.5564553471645635 0.7846187871632968 0.9395744727108142
v 0.31185482380241786 -0.4038064518211505 0.2508743214548045
vt 0.4765625 0.03125
vt 0.8828125 0.03125
vt 0.8828125 0.4375
vt 0.4765625 0.4375
vt 0.8828125 0.4296875
vt 0.8828125 0.0234375
vt 0.4765625 0.0234375
vt 0.4765625 0.4296875
vn 0.01055646128956936 -0.49558552666600986 0.8684949895561953
vn -0.01055646128956936 0.49558552666600986 -0.8684949895561953
usemtl m_3dd4bacd-22b7-821c-3447-e91d62f94f5c
f 40/37/10 38/38/10 37/39/10 39/40/10
f 41/41/11 42/42/11 44/43/11 43/44/11
o plane_doublesided
v -0.718048302643016 0.7905587333170839 1.0334201655924153
v 0.4196839421406599 1.2107288863421908 -0.048082206890583845
v 0.18548250904117097 -0.48054468398266714 1.4900963910149885
v 1.3232147538248469 -0.06037453095756018 0.4085940185319894
v -0.718048302643016 0.7905587333170839 1.0334201655924153
v 0.4196839421406599 1.2107288863421908 -0.048082206890583845
v 0.18548250904117097 -0.48054468398266714 1.4900963910149885
v 1.3232147538248469 -0.06037453095756018 0.4085940185319894
vt 0.4765625 0.015625
vt 0.8828125 0.015625
vt 0.8828125 0.421875
vt 0.4765625 0.421875
vt 0.8828125 0.421875
vt 0.8828125 0.015625
vt 0.4765625 0.015625
vt 0.4765625 0.421875
vn 0.44793169873124644 0.566815047020042 0.6914317722981838
vn -0.44793169873124644 -0.566815047020042 -0.6914317722981838
usemtl m_3dd4bacd-22b7-821c-3447-e91d62f94f5c
f 48/45/12 46/46/12 45/47/12 47/48/12
f 49/49/13 50/50/13 52/51/13 51/52/13