# Made in Blockbench 4.12.2
mtllib leaves_vertical_slab_parent_4_2.mtl

o plane_onesided
v 0.48439864570921753 -0.17626088548801322 -0.18062952099227525
v 0.36455949943118304 1.1935068243881366 -0.18062952099227592
v 0.544147074046834 -0.17103357534497976 1.1930617836827793
v 0.4243079277687996 1.1987341345311702 1.1930617836827786
vt 0.875 0.546875
vt 0.875 0.890625
vt 0.53125 0.890625
vt 0.53125 0.546875
vn 0.9952465414778339 0.08707278979269703 -0.04361938736533575
usemtl m_3dd4bacd-22b7-821c-3447-e91d62f94f5c
f 1/1/1 2/2/1 4/3/1 3/4/1
o plane_doublesided
v -0.023016073645973766 -0.17296963777182373 1.1937016661078754
v 0.030780771131396926 -0.17743981085594207 -0.18023825872311872
v 0.0908452116833057 1.1973079281625985 1.1937016661078754
v 0.1446420564606764 1.19283775507848 -0.18023825872311872
v -0.023016073645973766 -0.17296963777182373 1.1937016661078754
v 0.030780771131396926 -0.17743981085594207 -0.18023825872311872
v 0.0908452116833057 1.1973079281625985 1.1937016661078754
v 0.1446420564606764 1.19283775507848 -0.18023825872311872
vt 0.53125 0.890625
vt 0.875 0.890625
vt 0.875 0.546875
vt 0.53125 0.546875
vt 0.875 0.546875
vt 0.875 0.890625
vt 0.53125 0.890625
vt 0.53125 0.546875
vn -0.99579718661159 0.08274436538524065 -0.039259815759068825
vn 0.99579718661159 -0.08274436538524065 0.039259815759068825
usemtl m_3dd4bacd-22b7-821c-3447-e91d62f94f5c
f 8/5/2 6/6/2 5/7/2 7/8/2
f 9/9/3 10/10/3 12/11/3 11/12/3
o plane_onesided
v -0.21925752697853 0.06591411919872965 -0.16284864353555062
v 0.6514380982271151 0.1437612947110558 -0.20097928098765105
v -0.15428676373885977 0.011449868268756033 1.2095352114025242
v 0.7164088614667853 0.0892970437810822 1.1714045739504235
vt 0.4296875 0.625
vt 0.4296875 0.84375
vt 0.0859375 0.84375
vt 0.0859375 0.625
vn 0.08707278979269494 -0.995246541477834 -0.04361938736533523
usemtl m_3dd4bacd-22b7-821c-3447-e91d62f94f5c
f 13/13/4 14/14/4 16/15/4 15/16/4
o plane_onesided
v -0.12412392990000187 1.001672414303746 -0.21873652718273873
v 0.7400891701570318 0.8878966012334926 -0.1424752522785383
v -0.24293783566877847 1.0173145617463193 1.1510311826934112
v 0.6212752643882552 0.9035387486760658 1.2272924575976116
vt 0.0625 0.5546875
vt 0.40625 0.5546875
vt 0.40625 0.3359375
vt 0.0625 0.3359375
vn 0.13052619222005044 0.9914448613738106 -2.532696274926139e-16
usemtl m_3dd4bacd-22b7-821c-3447-e91d62f94f5c
f 20/17/5 18/18/5 17/19/5 19/20/5
o plane_onesided
v -0.1581035941497743 1.1585165525534822 0.960861447179771
v 0.715231586265364 1.1203859151013829 0.922694483235102
v -0.21808025177710968 -0.2151747521215711 0.9608614471797711
v 0.6552549286380286 -0.25330538957367044 0.9226944832351021
vt 0.0625 0.5546875
vt 0.40625 0.5546875
vt 0.40625 0.3359375
vt 0.0625 0.3359375
vn 0.04357787137382913 -0.0019026509541271075 0.9990482215818578
usemtl m_3dd4bacd-22b7-821c-3447-e91d62f94f5c
f 24/21/6 22/22/6 21/23/6 23/24/6
o plane_onesided
v -0.12785256028662365 1.1697607975582465 -0.02295879194384809
v 0.7438178005436538 1.0934995226540465 -0.022958791943849283
v -0.24666646605539913 -0.18828835967423463 0.1565147223587223
v 0.6250038947748783 -0.2645496345784346 0.1565147223587211
vt 0.4140625 0.6328125
vt 0.4140625 0.8515625
vt 0.0703125 0.8515625
vt 0.0703125 0.6328125
vn -0.011376107230963365 -0.13002950065171898 -0.9914448613738105
usemtl m_3dd4bacd-22b7-821c-3447-e91d62f94f5c
f 25/25/7 26/26/7 28/27/7 27/28/7
o plane_doublesided
v -0.4342203090808452 -0.3650581785951005 0.9686409306192127
v 1.116143798952918 0.10106584031504873 1.1090849818130155
v -0.6932537499019678 0.8217269852200554 -0.11074206511705709
v 0.8571103581317955 1.2878510041302045 0.02970198607674579
v -0.4342203090808452 -0.3650581785951005 0.9686409306192127
v 1.116143798952918 0.10106584031504873 1.1090849818130155
v -0.6932537499019678 0.8217269852200554 -0.11074206511705709
v 0.8571103581317955 1.2878510041302045 0.02970198607674579
vt 0.4765625 0.421875
vt 0.8828125 0.421875
vt 0.8828125 0.015625
vt 0.4765625 0.015625
vt 0.8828125 0.015625
vt 0.8828125 0.421875
vt 0.4765625 0.421875
vt 0.4765625 0.015625
vn 0.2536533041301842 -0.6199505607906777 -0.7425101369538093
vn -0.2536533041301842 0.6199505607906777 0.7425101369538093
usemtl m_3dd4bacd-22b7-821c-3447-e91d62f94f5c
f 32/29/8 30/30/8 29/31/8 31/32/8
f 33/33/9 34/34/9 36/35/9 35/36/9
o plane_doublesided
v -0.35252517761069535 0.1762064490249619 1.535732150496617
v 0.3361749622358865 -0.692103718014759 0.34730690203092135
v 0.06525119243252739 1.5496576441025867 0.7743388753927765
v 0.7539513322791094 0.681347477062866 -0.4140863730729192
v -0.35252517761069535 0.1762064490249619 1.535732150496617
v 0.3361749622358865 -0.692103718014759 0.34730690203092135
v 0.06525119243252739 1.5496576441025867 0.7743388753927765
v 0.7539513322791094 0.681347477062866 -0.4140863730729192
vt 0.4765625 0.03125
vt 0.8828125 0.03125
vt 0.8828125 0.4375
vt 0.4765625 0.4375
vt 0.8828125 0.4296875
vt 0.8828125 0.0234375
vt 0.4765625 0.0234375
vt 0.4765625 0.4296875
vn -0.8684949963186628 -0.010556466242101242 -0.49558551470954576
vn 0.8684949963186628 0.010556466242101242 0.49558551470954576
usemtl m_3dd4bacd-22b7-821c-3447-e91d62f94f5c
f 40/37/10 38/38/10 37/39/10 39/40/10
f 41/41/11 42/42/11 44/43/11 43/44/11
o plane_doublesided
v -0.028594501288771612 1.7112505990458908 0.7802788228385251
v 1.0529078834664956 0.5735183604294061 1.200448960974724
v -0.4852707390581498 0.807719784757537 -0.49082458817421803
v 0.5962316456971173 -0.33001245385894773 -0.07065445003801901
v -0.028594501288771612 1.7112505990458908 0.7802788228385251
v 1.0529078834664956 0.5735183604294061 1.200448960974724
v -0.4852707390581498 0.807719784757537 -0.49082458817421803
v 0.5962316456971173 -0.33001245385894773 -0.07065445003801901
vt 0.4765625 0.015625
vt 0.8828125 0.015625
vt 0.8828125 0.421875
vt 0.4765625 0.421875
vt 0.8828125 0.421875
vt 0.8828125 0.015625
vt 0.4765625 0.015625
vt 0.4765625 0.421875
vn -0.6914317619406117 -0.4479317026740854 0.5668150565388996
vn 0.6914317619406117 0.4479317026740854 -0.5668150565388996
usemtl m_3dd4bacd-22b7-821c-3447-e91d62f94f5c
f 48/45/12 46/46/12 45/47/12 47/48/12
f 49/49/13 50/50/13 52/51/13 51/52/13