# Made in Blockbench 4.12.2
mtllib leaves_extended_parent_5.mtl

o diagonal_4
v 1.0947594755936374 1.284791829523748 1.0963604775139364
v 0.2379048036631788 -0.013517337505777438 1.440337657713505
v -0.04760523571814412 -0.23613674665915663 -0.11112988580156213
v 0.8092494362123142 1.062172420370369 -0.4551070660011305
v 0.8092494362123142 1.062172420370369 -0.4551070660011305
v -0.04760523571814412 -0.23613674665915663 -0.11112988580156213
v 0.2379048036631788 -0.013517337505777438 1.440337657713505
v 1.0947594755936374 1.284791829523748 1.0963604775139364
vt 0.06280121451104113 0.18042539871851382
vt 0.06280159735083472 0.4687961869038385
vt 0.35117345008215994 0.4687961869038386
vt 0.35117345008216 0.18042433417251313
vt 0.06280068223874798 0.46879459008695734
vt 0.06280136393961173 0.18042380190218443
vt 0.3511735995126956 0.18042380190218443
vt 0.3511725349681083 0.4687956546315447
vn -0.8237809197710301 0.5624585353155884 0.07089000121201032
vn 0.8237809197710301 -0.5624585353155883 -0.07089000121201036
usemtl m_b6d32acf-10f4-193e-6ce4-171515aefb96
f 3/1/1 2/2/1 1/3/1 4/4/1
f 7/5/2 6/6/2 5/7/2 8/8/2
o west
v -0.21582900607749977 1.283926021571909 0.896902339139067
v -0.3885370932979003 -1.4558062896443278 0.8010582828745272
v 1.100818463317102 -1.559546861962646 0.9462830168310625
v 1.2735265505375026 1.1801854492535913 1.0421270730956025
v 1.100818463317102 -1.5595468619626465 0.9462830168310625
v -0.3885370932979003 -1.4558062896443278 0.8010582828745272
v -0.21582900607749977 1.283926021571909 0.896902339139067
v 1.2735265505375026 1.1801854492535915 1.0421270730956025
vt 0.6442421203978613 0
vt 0.9157541570115852 0
vt 0.9173331079666095 0.4971945561388792
vt 0.6458210764719564 0.4971956874205816
vt 0.9173331079666095 0.4971945561388792
vt 0.9157541570115852 0
vt 0.6442421203978613 0
vt 0.6458210764719564 0.4971956874205816
vn 0.09897881983642741 0.028557422305865138 -0.9946796805278736
vn -0.09897881983642737 -0.02855742230586511 0.9946796805278736
usemtl m_b6d32acf-10f4-193e-6ce4-171515aefb96
f 11/9/3 10/10/3 9/11/3 12/12/3
f 15/13/4 14/14/4 13/15/4 16/16/4
o east
v 1.2608821548288485 -1.7085136135503562 -0.07499832933846551
v -0.23584617201784985 -1.6219422357958653 0.025864435634494587
v -0.20295247765854862 1.1311643770694668 0.18570742589721156
v 1.2937758491881495 1.0445929993149752 0.08484466092425136
v -0.20295247765854862 1.1311643770694668 0.18570742589721145
v -0.23584617201784985 -1.6219422357958657 0.025864435634494476
v 1.2608821548288485 -1.7085136135503562 -0.07499832933846529
v 1.2937758491881495 1.0445929993149752 0.08484466092425136
vt 0.6889503118162295 0.9509644380859565
vt 0.68685513960409 0.4523703275935137
vt 0.4148707379961632 0.4523703275935137
vt 0.4169659102083025 0.9509644380859565
vt 0.4148707379961632 0.4523703275935137
vt 0.68685513960409 0.4523703275935137
vt 0.6889503118162295 0.9509644380859565
vt 0.4169659102083025 0.9509644380859565
vn 0.06374611152118473 -0.05860269571117825 0.996244024986505
vn -0.06374611152118452 0.05860269571117824 -0.996244024986505
usemtl m_b6d32acf-10f4-193e-6ce4-171515aefb96
f 19/17/5 18/18/5 17/19/5 20/20/5
f 23/21/6 22/22/6 21/23/6 24/24/6
o bottom
v 1.258804952771985 -0.06719310243700494 1.3147056199065823
v 1.2037396593955556 0.025578567436629784 -0.18140976024771116
v -0.28334217970405084 0.21052458694850784 -0.11520875053603796
v -0.22827688632762178 0.11775291707487334 1.3809066296182562
vt 0.7086701940227287 0.6959575753333737
vt 0.9801806007801503 0.6959575753333734
vt 0.9801806007801507 0.9674679820907951
vt 0.708670194022729 0.9674679820907955
vn -0.1257076277814708 -0.9904406173540631 -0.05678887050168973
usemtl m_b6d32acf-10f4-193e-6ce4-171515aefb96
f 27/25/7 26/26/7 25/27/7 28/28/7
o north
v 0.00389264251635546 1.4169662890369064 -0.2382194556462962
v -0.15697671477171393 -1.5087354895515634 -0.46317686804956826
v 0.04115539572479732 -1.6265933702547133 1.01900165923598
v 0.2020247530128666 1.299108408333758 1.2439590716392532
v 0.04115539572479732 -1.6265933702547133 1.0190016592359805
v -0.15697671477171393 -1.5087354895515632 -0.46317686804956826
v 0.00389264251635546 1.4169662890369061 -0.23821945564629599
v 0.2020247530128665 1.2991084083337583 1.2439590716392532
vt 0.909866470340604 0
vt 0.6383563888136761 0
vt 0.6408265835474448 0.5319273497470782
vt 0.9123377293727284 0.5319277332747896
vt 0.6408265835474448 0.5319273497470782
vt 0.6383563888136761 0
vt 0.909866470340604 0
vt 0.9123377293727284 0.5319277332747896
vn 0.9897590298652302 -0.04397976824928266 -0.13580442844391247
vn -0.9897590298652302 0.04397976824928265 0.13580442844391244
usemtl m_b6d32acf-10f4-193e-6ce4-171515aefb96
f 31/29/8 30/30/8 29/31/8 32/32/8
f 35/33/9 34/34/9 33/35/9 36/36/9
o top
v -0.10587743089723667 0.8435633589844153 1.0353396123071419
v 1.093607313665851 0.872798660990287 -0.07300674361101
v 1.0479439745721215 0.8686378503279305 1.081082744737897
v -0.0602140918035069 0.8477241696467716 -0.11874987604176512
vt 0.7447916666666671 0.7397917068198765
vt 0.7447916666666673 0.9322916666666662
vt 0.9372916265134569 0.9322916666666661
vt 0.9372916265134569 0.7397917068198765
vn -0.02183507460384484 0.999757830364157 0.0027404639384646956
usemtl m_b6d32acf-10f4-193e-6ce4-171515aefb96
f 37/37/10 39/38/10 38/39/10 40/40/10
o diagonal_2
v 0.6963400136005546 1.5024683909419516 1.0052571964532386
v 1.4188155879510285 0.09213751289809996 0.8405672410734065
v 0.2194946492101285 -0.41505838349103596 -0.07731539362651407
v -0.5029809251403453 0.9952724945528157 0.08737456175331826
v -0.5029809251403453 0.9952724945528157 0.08737456175331826
v 0.2194946492101285 -0.41505838349103596 -0.07731539362651407
v 1.4188155879510285 0.09213751289809996 0.8405672410734065
v 0.6963400136005546 1.5024683909419516 1.0052571964532386
vt 0.05806863565112234 0.18019452253803936
vt 0.3464404883824476 0.18019452253803936
vt 0.3464401055426541 0.46856531072336427
vt 0.05806825281132871 0.4685653107233644
vt 0.34667064087002414 0.18042467502561677
vt 0.0582987881386988 0.18042467502561677
vt 0.05829840529890525 0.4687954632109417
vt 0.3466702580302305 0.4687954632109417
vn -0.4771188319454037 -0.33909411225611735 0.8107853003331335
vn 0.4771188319454037 0.3390941122561173 -0.8107853003331335
usemtl m_b6d32acf-10f4-193e-6ce4-171515aefb96
f 43/41/11 42/42/11 41/43/11 44/44/11
f 47/45/12 46/46/12 45/47/12 48/48/12
o diagonal_3
v -0.4529310662649454 0.6391400111819006 1.0528542964442102
v 0.7481920918101048 -0.40556304760772777 1.1163019172933226
v 1.4361509180469636 0.3097115636544214 -0.1299812794106152
v 0.23502775997191316 1.3544146224440496 -0.1934289002597276
v 0.23502775997191316 1.3544146224440496 -0.1934289002597276
v 1.4361509180469636 0.3097115636544214 -0.1299812794106152
v 0.7481920918101048 -0.40556304760772777 1.1163019172933226
v -0.4529310662649454 0.6391400111819006 1.0528542964442102
vt 0.06476404488486304 0.18019452253803914
vt 0.3531358976161883 0.18019452253803914
vt 0.3531355147763948 0.46856531072336427
vt 0.0647636620450694 0.4685653107233644
vt 0.35336605010376476 0.18042467502561654
vt 0.0649941973724395 0.18042467502561654
vt 0.06499381453264595 0.4687954632109417
vt 0.3533656672639712 0.4687954632109417
vn -0.4950947819972003 -0.6069786921177024 -0.6216574813787962
vn 0.4950947819972002 0.6069786921177025 0.6216574813787962
usemtl m_b6d32acf-10f4-193e-6ce4-171515aefb96
f 51/49/13 50/50/13 49/51/13 52/52/13
f 55/53/14 54/54/14 53/55/14 56/56/14
o south
v 0.9640106756841004 -1.5403279771784741 1.326787965864498
v 0.978200012331857 -1.4705004388792655 -0.17151867084928596
v 0.8506602778597123 1.272346530284396 -0.10227967388632475
v 0.8364709412119555 1.202518991985187 1.3960269628274586
v 0.8506602778597123 1.272346530284396 -0.10227967388632453
v 0.978200012331857 -1.470500438879265 -0.17151867084928574
v 0.9640106756841004 -1.5403279771784741 1.326787965864498
v 0.8364709412119555 1.2025189919851873 1.3960269628274586
vt 0.6555550532410787 0.4970607792865215
vt 0.6659298675829181 3.3306690738754696e-16
vt 0.93744090032893 0
vt 0.9270649747297631 0.49706099125738346
vt 0.93744090032893 0
vt 0.6659298675829181 3.3306690738754696e-16
vt 0.6555550532410787 0.4970607792865215
vt 0.9270649747297631 0.49706099125738346
vn -0.9988668950810689 -0.04615325736209193 -0.01161045847387018
vn 0.9988668950810689 0.04615325736209193 0.011610458473870157
usemtl m_b6d32acf-10f4-193e-6ce4-171515aefb96
f 59/57/15 58/58/15 57/59/15 60/60/15
f 63/61/16 62/62/16 61/63/16 64/64/16
o bottom
v -0.28334217970405084 0.21052458694850784 -0.11520875053603796
v 1.2037396593955556 0.025578567436629784 -0.18140976024771116
v 1.258804952771985 -0.06719310243700494 1.3147056199065823
v -0.22827688632762178 0.11775291707487334 1.3809066296182562
vt 0.9858370672017592 0.9913163250429606
vt 0.9858370672017589 0.7198059182855387
vt 0.7143266604443372 0.719805918285539
vt 0.7143266604443376 0.9913163250429609
vn 0.12570762778147082 0.9904406173540631 0.056788870501689716
usemtl m_b6d32acf-10f4-193e-6ce4-171515aefb96
f 67/65/17 66/66/17 65/67/17 68/68/17