# Made in Blockbench 4.12.2
mtllib leaves_vertical_slab_parent_1_2.mtl

o plane_onesided
v 1.185455192896364 -0.17596197097101363 0.4798718834069255
v 1.1854551905631783 1.1938057379386995 0.3600327260824687
v -0.18823611061542989 -0.17073466034614337 0.5396203384472025
v -0.18823611294861575 1.1990330485635696 0.41978118112274565
vt 0.875 0.546875
vt 0.875 0.890625
vt 0.53125 0.890625
vt 0.53125 0.546875
vn 0.043619406742094684 0.08707279781881241 0.9952465399264003
usemtl m_3dd4bacd-22b7-821c-3447-e91d62f94f5c
f 1/1/1 2/2/1 4/3/1 3/4/1
o plane_doublesided
v -0.18887600408279848 -0.17267072734684585 -0.027542809217533926
v 1.1850639217955825 -0.1771408999971208 0.026254008846229984
v -0.18887600186599984 1.1976068395058048 0.08631846506121145
v 1.1850639240123813 1.1931366668555299 0.14011528312497537
v -0.18887600408279848 -0.17267072734684585 -0.027542809217533926
v 1.1850639217955825 -0.1771408999971208 0.026254008846229984
v -0.18887600186599984 1.1976068395058048 0.08631846506121145
v 1.1850639240123813 1.1931366668555299 0.14011528312497537
vt 0.53125 0.890625
vt 0.875 0.890625
vt 0.875 0.546875
vt 0.53125 0.546875
vt 0.875 0.546875
vt 0.875 0.890625
vt 0.53125 0.890625
vt 0.53125 0.546875
vn 0.039259796371589 0.08274435735468468 -0.995797188043239
vn -0.039259796371589 -0.08274435735468468 0.995797188043239
usemtl m_3dd4bacd-22b7-821c-3447-e91d62f94f5c
f 8/5/2 6/6/2 5/7/2 7/8/2
f 9/9/3 10/10/3 12/11/3 11/12/3
o plane_onesided
v 1.1676743017399422 0.06621302804112981 -0.22378429088764865
v 1.205804956143882 0.14406021057513668 0.6469113329478248
v -0.20470955193319684 0.011748777635108232 -0.1588135004893936
v -0.16657889752925714 0.0895959601691151 0.7118821233460798
vt 0.4296875 0.625
vt 0.4296875 0.84375
vt 0.0859375 0.84375
vt 0.0859375 0.625
vn 0.04361938906058313 -0.99524654077564 0.08707279696957092
usemtl m_3dd4bacd-22b7-821c-3447-e91d62f94f5c
f 13/13/4 14/14/4 16/15/4 15/16/4
o plane_onesided
v 1.2235621872393145 1.0019713239133463 -0.1286507024435942
v 1.147300929160743 0.8881955178124955 0.7355624000157327
v -0.1462055249500599 1.0176134703977495 -0.24746458167008997
v -0.2224667830286312 0.9038376642968986 0.6167485207892369
vt 0.0625 0.5546875
vt 0.40625 0.5546875
vt 0.40625 0.3359375
vt 0.0625 0.3359375
vn 2.5412534281760153e-9 0.9914448624264324 0.13052618422459364
usemtl m_3dd4bacd-22b7-821c-3447-e91d62f94f5c
f 20/17/5 18/18/5 17/19/5 19/20/5
o plane_onesided
v 0.04396421221524403 1.1588154618890543 -0.16263034499227486
v 0.08213119316314264 1.120684831479922 0.7107048349872818
v 0.04396421104754157 -0.214875843269678 -0.22260699154154623
v 0.08213119199544018 -0.25300647367881024 0.6507281884380103
vt 0.0625 0.5546875
vt 0.40625 0.5546875
vt 0.40625 0.3359375
vt 0.0625 0.3359375
vn -0.9990482207334267 -0.001902650602696522 0.04357789083994814
usemtl m_3dd4bacd-22b7-821c-3447-e91d62f94f5c
f 24/21/6 22/22/6 21/23/6 23/24/6
o plane_onesided
v 1.0277844519278299 1.1700597071377772 -0.13237933037409966
v 1.0277844688986477 1.0937984392631186 0.7392910310711828
v 0.8483109353120366 -0.1879894510528728 -0.25119322169673175
v 0.8483109522828546 -0.2642507189275314 0.6204771397485507
vt 0.4140625 0.6328125
vt 0.4140625 0.8515625
vt 0.0703125 0.8515625
vt 0.0703125 0.6328125
vn 0.9914448611523257 -0.13002950074346012 -0.01137612548509009
usemtl m_3dd4bacd-22b7-821c-3447-e91d62f94f5c
f 25/25/7 26/26/7 28/27/7 27/28/7
o plane_doublesided
v 0.03618472340000328 -0.364759271486258 -0.43874704748509336
v -0.10425929760928748 0.10136475992672367 1.1116170595239843
v 1.1155677140930704 0.8220258902399371 -0.6977805188918222
v 0.9751236930837798 1.2881499216529186 0.8525835881172557
v 0.03618472340000328 -0.364759271486258 -0.43874704748509336
v -0.10425929760928748 0.10136475992672367 1.1116170595239843
v 1.1155677140930704 0.8220258902399371 -0.6977805188918222
v 0.9751236930837798 1.2881499216529186 0.8525835881172557
vt 0.4765625 0.421875
vt 0.8828125 0.421875
vt 0.8828125 0.015625
vt 0.4765625 0.015625
vt 0.8828125 0.015625
vt 0.8828125 0.421875
vt 0.4765625 0.421875
vt 0.4765625 0.015625
vn 0.7425101418922635 -0.619950558745103 0.25365329467358716
vn -0.7425101418922635 0.619950558745103 -0.25365329467358716
usemtl m_3dd4bacd-22b7-821c-3447-e91d62f94f5c
f 32/29/8 30/30/8 29/31/8 31/32/8
f 33/33/9 34/34/9 36/35/9 35/36/9
o plane_doublesided
v -0.5309064948868543 0.17650535679263019 -0.35705190933907227
v 0.6575187669873561 -0.6918048046931022 0.33164821437213854
v 0.23048678835080066 1.5499565552393921 0.06072443480422443
v 1.418912050225011 0.6816463937536598 0.7494245585154352
v -0.5309064948868543 0.17650535679263019 -0.35705190933907227
v 0.6575187669873561 -0.6918048046931022 0.33164821437213854
v 0.23048678835080066 1.5499565552393921 0.06072443480422443
v 1.418912050225011 0.6816463937536598 0.7494245585154352
vt 0.4765625 0.03125
vt 0.8828125 0.03125
vt 0.8828125 0.4375
vt 0.4765625 0.4375
vt 0.8828125 0.4296875
vt 0.8828125 0.0234375
vt 0.4765625 0.0234375
vt 0.4765625 0.4296875
vn 0.49558549780055106 -0.010556473246034672 -0.8684950058822364
vn -0.49558549780055106 0.010556473246034672 0.8684950058822364
usemtl m_3dd4bacd-22b7-821c-3447-e91d62f94f5c
f 40/37/10 38/38/10 37/39/10 39/40/10
f 41/41/11 42/42/11 44/43/11 43/44/11
o plane_doublesided
v 0.22454683907794137 1.7115495094258824 -0.03312126010458605
v -0.19562327800215595 0.5738172795311183 1.0483811420062856
v 1.4956502411995163 0.8080186914546874 -0.48979751533498644
v 1.075480124119419 -0.32971353844007667 0.5917048867758852
v 0.22454683907794137 1.7115495094258824 -0.03312126010458605
v -0.19562327800215595 0.5738172795311183 1.0483811420062856
v 1.4956502411995163 0.8080186914546874 -0.48979751533498644
v 1.075480124119419 -0.32971353844007667 0.5917048867758852
vt 0.4765625 0.015625
vt 0.8828125 0.015625
vt 0.8828125 0.421875
vt 0.4765625 0.421875
vt 0.8828125 0.421875
vt 0.8828125 0.015625
vt 0.4765625 0.015625
vt 0.4765625 0.421875
vn -0.5668150700005953 -0.4479317082501024 -0.6914317472927937
vn 0.5668150700005953 0.4479317082501024 0.6914317472927937
usemtl m_3dd4bacd-22b7-821c-3447-e91d62f94f5c
f 48/45/12 46/46/12 45/47/12 47/48/12
f 49/49/13 50/50/13 52/51/13 51/52/13