# Made in Blockbench 4.12.2
mtllib leaves_parent.mtl

o diagonal_1
v 0.248649046807788 -0.6902354192644031 -0.18517222359366703
v -0.8870952132936758 0.7145627370905787 0.7464321012396951
v 0.7911500952728929 1.7619694007635587 1.2130062836241682
v 1.9268943553743563 0.3571712444085771 0.2814019587908062
v -0.8870952132936758 0.7145627370905787 0.7464321012396951
v 0.248649046807788 -0.6902354192644031 -0.18517222359366703
v 1.9268943553743563 0.3571712444085771 0.2814019587908062
v 0.7911500952728929 1.7619694007635587 1.2130062836241682
vt 0.49999999999999956 0.21223962688127496
vt 0.9065103731187245 0.21223962688127496
vt 0.9065103731187246 0.6187499999999999
vt 0.49999999999999967 0.61875
vt 0.9065103731187248 0.2122396268812745
vt 0.49999999999999983 0.21223962688127462
vt 0.5 0.6187499999999997
vt 0.906510373118725 0.6187499999999995
vn -0.07753713518278087 0.5067146074653087 -0.8586199970003758
vn 0.07753713518278076 -0.5067146074653088 0.858619997000376
usemtl m_b2bff805-3e5a-c860-a1cb-7ffdc3695c42
f 1/1/1 2/2/1 3/3/1 4/4/1
f 5/5/2 6/6/2 7/7/2 8/8/2
o west
v 0.12417742726147696 1.3684494376743777 -0.1699380635572474
v 0.19847577240563452 -0.10718234374890256 -0.42876349036535055
v 0.06100189690169616 -0.3719477716957582 1.0412705914565805
v -0.0132964482424614 1.103684009727522 1.3000960182646835
vt 0.36249966575502285 0.9187499999999994
vt 0.0625000000000007 0.9187499999999994
vt 0.06250000308854582 0.6187490842487929
vt 0.36249966884356793 0.6187490842487929
vn -0.9945586825796471 -0.03272860670338209 -0.09890331242527775
usemtl m_b2bff805-3e5a-c860-a1cb-7ffdc3695c42
f 9/9/3 10/10/3 11/11/3 12/12/3
o east
v 0.8838538383067367 -0.3721697987226505 1.1171950782050857
v 0.8746637547933808 -0.13473401839847593 -0.3638652826806108
v 0.9321612461674871 1.3453213693368236 -0.12694739031830626
v 0.9413513296808429 1.107885589012649 1.3541129705673898
vt 0.05625 0.6187500294374976
vt 0.3562500184270828 0.6187500294374976
vt 0.35625126751033936 0.91875
vt 0.05625124908325665 0.91875
vn 0.9992462894826063 -0.03687998227019474 -0.012112797488343482
usemtl m_b2bff805-3e5a-c860-a1cb-7ffdc3695c42
f 13/13/4 14/14/4 15/15/4 16/16/4
o bottom
v 1.1960796201757096 0.21052458694850784 -0.3291303223431361
v 1.2622806298873823 0.025578567436629784 1.1579515167564702
v -0.23383475026691103 -0.06719310243700494 1.2130168101328993
v -0.30003575997858445 0.11775291707487334 -0.27406502896670726
vt 0.05 0.618749979536459
vt 0.350000020463541 0.6187499795364587
vt 0.3500000204635413 0.9187499999999996
vt 0.050000000000000336 0.91875
vn 0.05678887050168979 -0.990440617354063 -0.12570762778147085
usemtl m_b2bff805-3e5a-c860-a1cb-7ffdc3695c42
f 17/17/5 18/18/5 19/19/5 20/20/5
o north
v 1.4899942965586668 0.09833501250448196 0.12428399346155425
v 0.09130174349035591 -0.4364537477300513 0.21180612733670662
v -0.4504967264342872 0.9483729104280845 0.015058713524262274
v 0.9481958266340239 1.4831616706626178 -0.07246342035088993
vt 0.0625 0.925
vt 0.06250000000000008 0.6249993343496968
vt 0.36249949051228575 0.6249989082621006
vt 0.3624994905122856 0.9249995739124038
vn -0.007104301625372624 -0.1433815558902278 -0.9896419849263235
usemtl m_b2bff805-3e5a-c860-a1cb-7ffdc3695c42
f 21/21/6 22/22/6 23/23/6 24/24/6
o top
v -0.2261209352163034 0.884082824834362 -0.3251361606584816
v -0.28552760071079086 0.9166470993064598 1.1733331970939314
v 1.2132899166254518 0.9220507495173123 1.2326362348779962
v 1.2726965821199394 0.8894864750452143 -0.26583312287441685
vt 0.35624958379547544 0.6124986532336829
vt 0.3562495837954754 0.9124991835795684
vt 0.05625 0.9125
vt 0.05625000000000004 0.6124994696541146
vn -0.0027404639384646604 0.9997578303641571 -0.021835074603844862
usemtl m_b2bff805-3e5a-c860-a1cb-7ffdc3695c42
f 25/25/7 26/26/7 27/27/7 28/28/7
o diagonal_2
v 1.3682390730174063 -0.7233416952506169 0.2732670004025731
v 0.16049876420172093 -0.05597867368596443 1.8513208671669148
v -0.056198545508584274 1.7997198500559457 0.9006951114426073
v 1.1515417633071008 1.1323568284912933 -0.6773587553217346
v 0.16049876420172093 -0.05597867368596443 1.8513208671669148
v 1.3682390730174063 -0.7233416952506169 0.2732670004025731
v 1.1515417633071008 1.1323568284912933 -0.6773587553217346
v -0.056198545508584274 1.7997198500559457 0.9006951114426073
vt 0.5 0.19949986149003496
vt 0.9192501385099652 0.19949986149003462
vt 0.9192501385099654 0.6187499999999999
vt 0.5000000000000002 0.61875
vt 0.9192501385099654 0.19949986149003462
vt 0.5 0.19949986149003485
vt 0.5000000000000002 0.61875
vt 0.9192501385099654 0.6187499999999998
vn -0.8107853003331333 -0.33909411225611724 -0.47711883194540383
vn 0.8107853003331335 0.3390941122561173 0.47711883194540394
usemtl m_b2bff805-3e5a-c860-a1cb-7ffdc3695c42
f 29/29/8 30/30/8 31/31/8 32/32/8
f 33/33/9 34/34/9 35/35/9 36/36/9
o diagonal_3
v -0.2725348139764441 -0.6054663243547258 1.1532894162640983
v 1.4572323511648264 0.5119578281198194 1.545122136140422
v 1.1584679566956513 1.5950163972068325 -0.2246202278845395
v -0.5712992084456194 0.4775922447322877 -0.6164529477608629
v 1.4572323511648264 0.5119578281198194 1.545122136140422
v -0.2725348139764441 -0.6054663243547258 1.1532894162640983
v -0.5712992084456194 0.4775922447322877 -0.6164529477608629
v 1.1584679566956513 1.5950163972068325 -0.2246202278845395
vt 0.5 0.19949986149003496
vt 0.9192501385099652 0.19949986149003462
vt 0.9192501385099654 0.6187499999999999
vt 0.5000000000000002 0.61875
vt 0.9192501385099654 0.19949986149003462
vt 0.5 0.19949986149003485
vt 0.5000000000000002 0.61875
vt 0.9192501385099654 0.6187499999999998
vn -0.5466058962244292 0.67000447057517 0.5023106644517661
vn 0.5466058962244293 -0.6700044705751698 -0.5023106644517662
usemtl m_b2bff805-3e5a-c860-a1cb-7ffdc3695c42
f 37/37/10 38/38/10 39/39/10 40/40/10
f 41/41/11 42/42/11 43/43/11 44/44/11
o south
v -0.08017875394086083 -0.24587941535418156 0.9436049775903714
v 1.3936459450668743 0.03299836682239854 0.9518475016595329
v 1.1219043887420308 1.4778979684601037 0.6544896906752697
v -0.3519203102657045 1.1990201862835237 0.6462471666061081
vt 0.075 0.9125
vt 0.07500000000000022 0.6125003551955228
vt 0.3749998797578806 0.6124991274753194
vt 0.375001107478084 0.9124990072331998
vn -0.04214938070408654 0.19378375553461413 0.9801384013480765
usemtl m_b2bff805-3e5a-c860-a1cb-7ffdc3695c42
f 45/45/12 46/46/12 47/47/12 48/48/12
o bottom
v 1.1960796201757096 0.21052458694850784 -0.3291303223431361
v 1.2622806298873823 0.025578567436629784 1.1579515167564702
v -0.23383475026691103 -0.06719310243700494 1.2130168101328993
v -0.30003575997858445 0.11775291707487334 -0.27406502896670726
vt 0.3500000204635413 0.9187499999999996
vt 0.350000020463541 0.6187499795364587
vt 0.05 0.618749979536459
vt 0.050000000000000336 0.91875
vn -0.056788870501689764 0.990440617354063 0.12570762778147085
usemtl m_b2bff805-3e5a-c860-a1cb-7ffdc3695c42
f 51/49/13 50/50/13 49/51/13 52/52/13