# Made in Blockbench 4.12.2
mtllib leaves_parent_4.mtl

o diagonal_1
v -0.18517222359366703 -0.6902354192644031 0.751350953192212
v 0.7464321012396951 0.7145627370905787 1.8870952132936758
v 1.2130062836241682 1.7619694007635587 0.20884990472710707
v 0.2814019587908062 0.3571712444085771 -0.9268943553743563
v 0.7464321012396951 0.7145627370905787 1.8870952132936758
v -0.18517222359366703 -0.6902354192644031 0.751350953192212
v 0.2814019587908062 0.3571712444085771 -0.9268943553743563
v 1.2130062836241682 1.7619694007635587 0.20884990472710707
vt 0.49999999999999956 0.21223962688127496
vt 0.9065103731187245 0.21223962688127496
vt 0.9065103731187246 0.6187499999999999
vt 0.49999999999999967 0.61875
vt 0.9065103731187248 0.2122396268812745
vt 0.49999999999999983 0.21223962688127462
vt 0.5 0.6187499999999997
vt 0.906510373118725 0.6187499999999995
vn -0.8586199970003758 0.5067146074653087 0.07753713518278087
vn 0.8586199970003757 -0.5067146074653087 -0.07753713518278074
usemtl m_b2bff805-3e5a-c860-a1cb-7ffdc3695c42
f 1/1/1 2/2/1 3/3/1 4/4/1
f 5/5/2 6/6/2 7/7/2 8/8/2
o west
v -0.1826325533132671 1.3579590500051846 0.8473407602052035
v -0.4208421693348756 -0.12293731282828302 0.8331231168897559
v 1.0539650812126 -0.3614573840265649 0.9674799156316234
v 1.2921746972342085 1.1194389788069024 0.9816975589470709
vt 0.36249966575502285 0.9187499999999994
vt 0.0625000000000007 0.9187499999999994
vt 0.06250000308854582 0.6187490842487929
vt 0.36249966884356793 0.6187490842487929
vn -0.08993763905540089 0.0049052435514990375 0.9959353190176765
usemtl m_b2bff805-3e5a-c860-a1cb-7ffdc3695c42
f 9/9/3 10/10/3 11/11/3 12/12/3
o east
v 1.1421813295733556 -0.3607480336103381 0.13079714241936746
v -0.3458016603994911 -0.17198522867852734 0.14738704976521078
v -0.15842168592965833 1.313320682959249 0.05381839036710484
v 1.329561304043188 1.1245578780274383 0.037228483021261694
vt 0.05625 0.6187500294374976
vt 0.3562500184270828 0.6187500294374976
vt 0.35625126751033936 0.91875
vt 0.05625124908325665 0.91875
vn -0.018801497802666434 -0.06049775873956596 -0.9979912448853776
usemtl m_b2bff805-3e5a-c860-a1cb-7ffdc3695c42
f 13/13/4 14/14/4 15/15/4 16/16/4
o bottom
v -0.2908302484809391 0.004925673572655165 -0.11213836435134927
v 1.2039934727856338 0.04018921911474582 -0.23154742889234858
v 1.3209740433887838 0.13500327227171177 1.2608753803092898
v -0.17384967787778938 0.09973972672962123 1.3802844448502896
vt 0.05 0.618749979536459
vt 0.350000020463541 0.6187499795364587
vt 0.3500000204635413 0.9187499999999996
vt 0.050000000000000336 0.91875
vn 0.02842212315251145 -0.9977233590484887 0.06115784270642598
usemtl m_b2bff805-3e5a-c860-a1cb-7ffdc3695c42
f 17/17/5 18/18/5 19/19/5 20/20/5
o north
v 0.1250643696946397 0.13661617093937956 -0.5058347321958275
v 0.21260654667255582 -0.45231830783176563 0.870934147088029
v 0.014278337291176724 0.9100917519931869 1.466337162071448
v -0.07326383968673927 1.4990262307643323 0.08956828278759116
vt 0.0625 0.925
vt 0.06250000000000008 0.6249993343496968
vt 0.36249949051228575 0.6249989082621006
vt 0.3624994905122856 0.9249995739124038
vn -0.9895009491014579 -0.1445222145205505 0.0010960097582453088
usemtl m_b2bff805-3e5a-c860-a1cb-7ffdc3695c42
f 21/21/6 22/22/6 23/23/6 24/24/6
o top
v -0.3323677025306404 0.8695576056435391 1.2268536197158832
v 1.165380124113123 0.9255546686609792 1.2869849486326899
v 1.2251798569012373 0.9355261519911989 -0.211789404456748
v -0.2725679697425263 0.8795290889737586 -0.2719207333735548
vt 0.35624958379547544 0.6124986532336829
vt 0.3562495837954754 0.9124991835795684
vt 0.05625 0.9125
vt 0.05625000000000004 0.6124994696541146
vn -0.037567360196795685 0.9992808299424623 0.005149403591506278
usemtl m_b2bff805-3e5a-c860-a1cb-7ffdc3695c42
f 25/25/7 26/26/7 27/27/7 28/28/7
o diagonal_2
v 0.2732670004025731 -0.7233416952506169 -0.3682390730174063
v 1.8513208671669148 -0.05597867368596443 0.8395012357982791
v 0.9006951114426073 1.7997198500559457 1.0561985455085843
v -0.6773587553217346 1.1323568284912933 -0.15154176330710079
v 1.8513208671669148 -0.05597867368596443 0.8395012357982791
v 0.2732670004025731 -0.7233416952506169 -0.3682390730174063
v -0.6773587553217346 1.1323568284912933 -0.15154176330710079
v 0.9006951114426073 1.7997198500559457 1.0561985455085843
vt 0.5 0.19949986149003496
vt 0.9192501385099652 0.19949986149003462
vt 0.9192501385099654 0.6187499999999999
vt 0.5000000000000002 0.61875
vt 0.9192501385099654 0.19949986149003462
vt 0.5 0.19949986149003485
vt 0.5000000000000002 0.61875
vt 0.9192501385099654 0.6187499999999998
vn -0.47711883194540383 -0.33909411225611724 0.8107853003331333
vn 0.47711883194540394 0.3390941122561173 -0.8107853003331335
usemtl m_b2bff805-3e5a-c860-a1cb-7ffdc3695c42
f 29/29/8 30/30/8 31/31/8 32/32/8
f 33/33/9 34/34/9 35/35/9 36/36/9
o diagonal_3
v -0.49936475561932414 1.1863431689967794 1.4098229539592664
v 1.1938199756168764 -0.028691410478417223 1.635832907474875
v 1.4124032079325455 -0.11158312019509692 -0.4473412085103152
v -0.2807815233036548 1.1034514592801001 -0.6733511620259238
v 1.1938199756168764 -0.028691410478417223 1.635832907474875
v -0.49936475561932414 1.1863431689967794 1.4098229539592664
v -0.2807815233036548 1.1034514592801001 -0.6733511620259238
v 1.4124032079325455 -0.11158312019509692 -0.4473412085103152
vt 0.5 0.19949986149003496
vt 0.9192501385099652 0.19949986149003462
vt 0.9192501385099654 0.6187499999999999
vt 0.5000000000000002 0.61875
vt 0.9192501385099654 0.19949986149003462
vt 0.5 0.19949986149003485
vt 0.5000000000000002 0.61875
vt 0.9192501385099654 0.6187499999999998
vn 0.5802707577839326 0.813924821311885 0.02849970023135193
vn -0.5802707577839323 -0.813924821311885 -0.0284997002313521
usemtl m_b2bff805-3e5a-c860-a1cb-7ffdc3695c42
f 37/37/10 38/38/10 39/39/10 40/40/10
f 41/41/11 42/42/11 43/43/11 44/44/11
o south
v 0.9228815712682189 -0.254823897560605 1.07185521385575
v 1.0176646665587177 0.0534489564594941 -0.39306253548086556
v 0.6752130969974222 1.4868424506665274 -0.11358084865692009
v 0.5804300017069235 1.1785695966464282 1.3513369006796956
vt 0.075 0.9125
vt 0.07500000000000022 0.6125003551955228
vt 0.3749998797578806 0.6124991274753194
vt 0.375001107478084 0.9124990072331998
vn 0.9715378616404813 0.2111881080819292 0.10730221993890174
usemtl m_b2bff805-3e5a-c860-a1cb-7ffdc3695c42
f 45/45/12 46/46/12 47/47/12 48/48/12
o bottom
v -0.2908302484809391 0.004925673572655165 -0.11213836435134927
v 1.2039934727856338 0.04018921911474582 -0.23154742889234858
v 1.3209740433887838 0.13500327227171177 1.2608753803092898
v -0.17384967787778938 0.09973972672962123 1.3802844448502896
vt 0.3500000204635413 0.9187499999999996
vt 0.350000020463541 0.6187499795364587
vt 0.05 0.618749979536459
vt 0.050000000000000336 0.91875
vn -0.028422123152511462 0.9977233590484887 -0.061157842706426005
usemtl m_b2bff805-3e5a-c860-a1cb-7ffdc3695c42
f 51/49/13 50/50/13 49/51/13 52/52/13