# Made in Blockbench 4.12.2
mtllib leaves_vertical_slab_parent_4.mtl

o plane_onesided
v 0.4843986457092163 1.1786574861997114 -0.18654079973379245
v 0.3645594994311834 1.1786574861997121 1.1832269101423576
v 0.5441470740468338 -0.195033818475343 -0.18131348959075888
v 0.4243079277688009 -0.19503381847534235 1.1884542202853912
vt 0.875 0.546875
vt 0.875 0.890625
vt 0.53125 0.890625
vt 0.53125 0.546875
vn 0.995246541477834 0.04361938736533645 0.08707278979269592
usemtl m_3dd4bacd-22b7-821c-3447-e91d62f94f5c
f 1/1/1 2/2/1 4/3/1 3/4/1
o plane_doublesided
v -0.023016073645974054 -0.19567370090043923 -0.18324955201760218
v 0.03078077113139567 1.1782662239305548 -0.18771972510172075
v 0.09084521168330695 -0.19567370090043912 1.18702801391682
v 0.14464205646067668 1.1782662239305548 1.1825578408327013
v -0.023016073645974054 -0.19567370090043923 -0.18324955201760218
v 0.03078077113139567 1.1782662239305548 -0.18771972510172075
v 0.09084521168330695 -0.19567370090043912 1.18702801391682
v 0.14464205646067668 1.1782662239305548 1.1825578408327013
vt 0.53125 0.890625
vt 0.875 0.890625
vt 0.875 0.546875
vt 0.53125 0.546875
vt 0.875 0.546875
vt 0.875 0.890625
vt 0.53125 0.890625
vt 0.53125 0.546875
vn -0.9957971866115899 0.03925981575906814 0.08274436538524176
vn 0.9957971866115899 -0.03925981575906814 -0.08274436538524176
usemtl m_3dd4bacd-22b7-821c-3447-e91d62f94f5c
f 8/5/2 6/6/2 5/7/2 7/8/2
f 9/9/3 10/10/3 12/11/3 11/12/3
o plane_onesided
v -0.21925752697853096 1.1608766087429865 0.05563420495295128
v 0.6514380982271142 1.1990072461950876 0.13348138046527644
v -0.15428676373885986 -0.2115072461950882 0.0011699540229777317
v 0.7164088614667853 -0.1733766087429871 0.07901712953530289
vt 0.4296875 0.625
vt 0.4296875 0.84375
vt 0.0859375 0.84375
vt 0.0859375 0.625
vn 0.08707278979269377 0.043619387365335195 -0.9952465414778342
usemtl m_3dd4bacd-22b7-821c-3447-e91d62f94f5c
f 13/13/4 14/14/4 16/15/4 15/16/4
o plane_onesided
v -0.12412392990000182 1.2167644923901746 0.9913925000579676
v 0.7400891701570318 1.1405032174859748 0.8776166869877131
v -0.2429378356687774 -0.1530032174859754 1.0070346475005412
v 0.6212752643882562 -0.22926449239017516 0.8932588344302866
vt 0.0625 0.5546875
vt 0.40625 0.5546875
vt 0.40625 0.3359375
vt 0.0625 0.3359375
vn 0.13052619222005163 4.5276282722994675e-16 0.9914448613738104
usemtl m_3dd4bacd-22b7-821c-3447-e91d62f94f5c
f 20/17/5 18/18/5 17/19/5 19/20/5
o plane_onesided
v -0.15810359414977332 0.03716651802766499 1.148236638307704
v 0.7152315862653649 0.07533348197233466 1.1101060008556036
v -0.21808025177711027 0.03716651802766476 -0.22545466636734934
v 0.655254928638028 0.07533348197233443 -0.2635853038194498
vt 0.0625 0.5546875
vt 0.40625 0.5546875
vt 0.40625 0.3359375
vt 0.0625 0.3359375
vn 0.043577871373829874 -0.9990482215818577 -0.0019026509541271
usemtl m_3dd4bacd-22b7-821c-3447-e91d62f94f5c
f 24/21/6 22/22/6 21/23/6 23/24/6
o plane_onesided
v -0.12785256028662328 1.020986757151284 1.159480883312468
v 0.743817800543654 1.0209867571512858 1.083219608408267
v -0.2466664660554001 0.8415132428487135 -0.19856827392001308
v 0.6250038947748772 0.8415132428487153 -0.27482954882421395
vt 0.4140625 0.6328125
vt 0.4140625 0.8515625
vt 0.0703125 0.8515625
vt 0.0703125 0.6328125
vn -0.011376107230964261 0.9914448613738105 -0.13002950065171903
usemtl m_3dd4bacd-22b7-821c-3447-e91d62f94f5c
f 25/25/7 26/26/7 28/27/7 27/28/7
o plane_doublesided
v -0.43422030908084597 0.029387034588222893 -0.3753380928408785
v 1.1161437989529177 -0.11105701660557882 0.09078592606926894
v -0.6932537499019679 1.1087700303244927 0.8114470709742776
v 0.8571103581317959 0.9683259791306909 1.277571089884425
v -0.43422030908084597 0.029387034588222893 -0.3753380928408785
v 1.1161437989529177 -0.11105701660557882 0.09078592606926894
v -0.6932537499019679 1.1087700303244927 0.8114470709742776
v 0.8571103581317959 0.9683259791306909 1.277571089884425
vt 0.4765625 0.421875
vt 0.8828125 0.421875
vt 0.8828125 0.015625
vt 0.4765625 0.015625
vt 0.8828125 0.015625
vt 0.8828125 0.421875
vt 0.4765625 0.421875
vt 0.4765625 0.015625
vn 0.25365330413018294 0.7425101369538094 -0.619950560790678
vn -0.25365330413018294 -0.7425101369538094 0.619950560790678
usemtl m_3dd4bacd-22b7-821c-3447-e91d62f94f5c
f 32/29/8 30/30/8 29/31/8 31/32/8
f 33/33/9 34/34/9 36/35/9 35/36/9
o plane_doublesided
v -0.35252517761069496 -0.5377041852891813 0.16592653477918384
v 0.336174962235885 0.650721063176515 -0.702383632260538
v 0.0652511924325288 0.22368908981465957 1.5393777298568083
v 0.7539513322791087 1.4121143382803558 0.6710675628170863
v -0.35252517761069496 -0.5377041852891813 0.16592653477918384
v 0.336174962235885 0.650721063176515 -0.702383632260538
v 0.0652511924325288 0.22368908981465957 1.5393777298568083
v 0.7539513322791087 1.4121143382803558 0.6710675628170863
vt 0.4765625 0.03125
vt 0.8828125 0.03125
vt 0.8828125 0.4375
vt 0.4765625 0.4375
vt 0.8828125 0.4296875
vt 0.8828125 0.0234375
vt 0.4765625 0.0234375
vt 0.4765625 0.4296875
vn -0.8684949963186632 0.49558551470954504 -0.010556466242100215
vn 0.8684949963186632 -0.49558551470954504 0.010556466242100215
usemtl m_3dd4bacd-22b7-821c-3447-e91d62f94f5c
f 40/37/10 38/38/10 37/39/10 39/40/10
f 41/41/11 42/42/11 44/43/11 43/44/11
o plane_doublesided
v -0.028594501288770058 0.21774914236891063 1.7009706848001125
v 1.052907883466496 -0.20242099576728756 0.5632384461836265
v -0.4852707390581502 1.4888525533816535 0.7974398705117589
v 0.596231645697116 1.0686824152454553 -0.34029236810472707
v -0.028594501288770058 0.21774914236891063 1.7009706848001125
v 1.052907883466496 -0.20242099576728756 0.5632384461836265
v -0.4852707390581502 1.4888525533816535 0.7974398705117589
v 0.596231645697116 1.0686824152454553 -0.34029236810472707
vt 0.4765625 0.015625
vt 0.8828125 0.015625
vt 0.8828125 0.421875
vt 0.4765625 0.421875
vt 0.8828125 0.421875
vt 0.8828125 0.015625
vt 0.4765625 0.015625
vt 0.4765625 0.421875
vn -0.691431761940612 -0.5668150565389001 -0.44793170267408455
vn 0.691431761940612 0.5668150565389001 0.44793170267408455
usemtl m_3dd4bacd-22b7-821c-3447-e91d62f94f5c
f 48/45/12 46/46/12 45/47/12 47/48/12
f 49/49/13 50/50/13 52/51/13 51/52/13