# Made in Blockbench 4.12.2
mtllib leaves_vertical_slab_extended_parent_1_2.mtl

o doubleface
v 0.955709088517678 1.5580129590878584 -0.035442854062283785
v 1.407300602220972 0.613651593240366 1.038915892095547
v -0.2800751536966881 0.4171121708701388 -0.5188502372690899
v 0.17151636000660586 -0.5272491949773535 0.5555085088887409
v 0.955709088517678 1.5580129590878584 -0.035442854062283785
v 1.407300602220972 0.613651593240366 1.038915892095547
v -0.2800751536966881 0.4171121708701388 -0.5188502372690899
v 0.17151636000660586 -0.5272491949773535 0.5555085088887409
vt 0.9895833333333334 0.25
vt 0.9895833333333334 0
vt 0.6979166666666666 0
vt 0.6979166666666666 0.25
vt 0.6979166666666666 0
vt 0.9895833333333334 0
vt 0.9895833333333334 0.25
vt 0.6979166666666666 0.25
vn 0.6408563798041949 -0.4226182617406939 -0.640856384307386
vn -0.6408563798041949 0.4226182617406939 0.640856384307386
usemtl m_8d649761-3c17-36ca-5d37-cf1956a7b9c6
f 1/1/1 2/2/1 4/3/1 3/4/1
f 8/5/2 6/6/2 5/7/2 7/8/2
o doubleface
v 1.182472616791848 0.9871302193212564 0.6458071223157923
v -0.1912211778736156 0.981851071279626 0.586120531748448
v 1.2178474076026857 0.9502123057358871 -0.1650824767244179
v -0.1558463870627781 0.9449331576942567 -0.22476906729176216
v 1.182472616791848 0.9871302193212564 0.6458071223157923
v -0.1912211778736156 0.981851071279626 0.586120531748448
v 1.2178474076026857 0.9502123057358871 -0.1650824767244179
v -0.1558463870627781 0.9449331576942567 -0.22476906729176216
vt 0.6875 0.1875
vt 0.4583333333333333 0.1875
vt 0.4583333333333333 0.32291666666666663
vt 0.6875 0.32291666666666663
vt 0.4583333333333333 0.32291666666666663
vt 0.4583333333333333 0.1875
vt 0.6875 0.1875
vt 0.6875 0.32291666666666663
vn 0.0018594030509481068 -0.998959808461726 0.04556142774766975
vn -0.0018594030509481068 0.998959808461726 -0.04556142774766975
usemtl m_8d649761-3c17-36ca-5d37-cf1956a7b9c6
f 9/9/3 10/10/3 12/11/3 11/12/3
f 16/13/4 14/14/4 13/15/4 15/16/4
o doubleface
v 1.219430381293456 1.1660918507341942 0.012708651980010824
v -0.15459725009105468 1.1360967151295194 0.05481993350800578
v 1.282501827489622 -1.708196617807025 0.023329023240107147
v -0.09152580389488846 -1.7381917534116997 0.0654403047681021
v 1.219430381293456 1.1660918507341942 0.012708651980010824
v -0.15459725009105468 1.1360967151295194 0.05481993350800578
v 1.282501827489622 -1.708196617807025 0.023329023240107147
v -0.09152580389488846 -1.7381917534116997 0.0654403047681021
vt 0.3802083333333333 0.9583333333333334
vt 0.609375 0.9583333333333334
vt 0.609375 0.47916666666666663
vt 0.3802083333333333 0.47916666666666663
vt 0.609375 0.47916666666666663
vt 0.609375 0.9583333333333334
vt 0.3802083333333333 0.9583333333333334
vt 0.3802083333333333 0.47916666666666663
vn 0.030538222650508172 0.0043633082672768515 0.9995240759973284
vn -0.030538222650508172 -0.0043633082672768515 -0.9995240759973284
usemtl m_8d649761-3c17-36ca-5d37-cf1956a7b9c6
f 17/17/5 18/18/5 20/19/5 19/20/5
f 24/21/6 22/22/6 21/23/6 23/24/6
o doubleface
v 1.2124831517068015 1.1373456714658623 0.46859237401790277
v -0.16230742825733607 1.1613370698352425 0.46911586819258566
v 1.1623073782773217 -1.7365323823352417 0.4058841318074151
v -0.21248320168681595 -1.7125409839658614 0.406407625982098
v 1.2124831517068015 1.1373456714658623 0.46859237401790277
v -0.16230742825733607 1.1613370698352425 0.46911586819258566
v 1.1623073782773217 -1.7365323823352417 0.4058841318074151
v -0.21248320168681595 -1.7125409839658614 0.406407625982098
vt 0.9791666666666666 0.47395833333333337
vt 0.9791666666666666 0.953125
vt 0.75 0.953125
vt 0.75 0.47395833333333337
vt 0.75 0.953125
vt 0.9791666666666666 0.953125
vt 0.9791666666666666 0.47395833333333337
vt 0.75 0.47395833333333337
vn 3.803923322165394e-16 0.021814885034545716 -0.9997620270799095
vn -3.803923322165394e-16 -0.021814885034545716 0.9997620270799095
usemtl m_8d649761-3c17-36ca-5d37-cf1956a7b9c6
f 28/25/7 26/26/7 25/27/7 27/28/7
f 29/29/8 30/30/8 32/31/8 31/32/8
o doubleface
v 0.979758633512137 1.1294620455103686 -0.1281076828610816
v 1.0233564296022153 1.129462066284646 0.49536984855130817
v 0.8921742800984609 -1.7441970279411119 -0.12198309250038175
v 0.9357720761885393 -1.7441970071668345 0.501494438912008
v 0.979758633512137 1.1294620455103686 -0.1281076828610816
v 1.0233564296022153 1.129462066284646 0.49536984855130817
v 0.8921742800984609 -1.7441970279411119 -0.12198309250038175
v 0.9357720761885393 -1.7441970071668345 0.501494438912008
vt 0.5156249999999994 0.15104166666666663
vt 0.036458333333332815 0.15104166666666663
vt 0.036458333333332815 0.046875
vt 0.5156249999999994 0.046875
vt 0.036458333333332815 0.046875
vt 0.036458333333332815 0.15104166666666663
vt 0.5156249999999994 0.15104166666666663
vt 0.5156249999999994 0.046875
vn -0.9970987772458176 0.03053851553301712 0.06972393766802909
vn 0.9970987772458176 -0.03053851553301712 -0.06972393766802909
usemtl m_8d649761-3c17-36ca-5d37-cf1956a7b9c6
f 36/33/9 34/34/9 33/35/9 35/36/9
f 37/37/10 38/38/10 40/39/10 39/40/10
o doubleface
v 0.08431964498688019 1.130117509108198 -0.1205979334929222
v 0.040721848896801756 1.130117529882475 0.5028795979194681
v 0.059291970459436905 -1.7447730197596076 -0.12234794319160623
v 0.015694174369358473 -1.7447729989853302 0.501129588220784
v 0.08431964498688019 1.130117509108198 -0.1205979334929222
v 0.040721848896801756 1.130117529882475 0.5028795979194681
v 0.059291970459436905 -1.7447730197596076 -0.12234794319160623
v 0.015694174369358473 -1.7447729989853302 0.501129588220784
vt 0.036458333333332815 0.046875
vt 0.036458333333332815 0.15104166666666663
vt 0.5156249999999994 0.15104166666666663
vt 0.5156249999999994 0.046875
vt 0.5156249999999994 0.15104166666666663
vt 0.036458333333332815 0.15104166666666663
vt 0.036458333333332815 0.046875
vt 0.5156249999999994 0.046875
vn 0.9975260660774974 -0.00872653317418405 0.06975381792211924
vn -0.9975260660774974 0.00872653317418405 -0.06975381792211924
usemtl m_8d649761-3c17-36ca-5d37-cf1956a7b9c6
f 41/41/11 42/42/11 44/43/11 43/44/11
f 48/45/12 46/46/12 45/47/12 47/48/12
o doubleface
v 0.8482185439872902 0.031172543659443774 1.1329062993162833
v 1.1525231690385063 -0.36941904130462033 0.05722915108433463
v -0.22046150068303844 1.4941374822250135 0.28576017812392046
v 0.08384312436817759 1.0935458972609493 -0.7899169701080282
v 0.8482185439872902 0.031172543659443774 1.1329062993162833
v 1.1525231690385063 -0.36941904130462033 0.05722915108433463
v -0.22046150068303844 1.4941374822250135 0.28576017812392046
v 0.08384312436817759 1.0935458972609493 -0.7899169701080282
vt 1 0.22395833333333337
vt 1 0.02604166666666663
vt 0.6666666666666666 0.02604166666666663
vt 0.6666666666666666 0.22395833333333337
vt 0.6666666666666666 0.02604166666666663
vt 1 0.02604166666666663
vt 1 0.22395833333333337
vt 0.6666666666666666 0.22395833333333337
vn 0.8054894991427988 0.5925663939353282 0.007192742812344083
vn -0.8054894991427988 -0.5925663939353282 -0.007192742812344083
usemtl m_8d649761-3c17-36ca-5d37-cf1956a7b9c6
f 49/49/13 50/50/13 52/51/13 51/52/13
f 56/53/14 54/54/14 53/55/14 55/56/14