# Made in Blockbench 4.12.2
mtllib leaves_slab_extended_parent_2.mtl

o doubleface
v 0.06151196442691442 0.7868771821910825 -0.33220518558881823
v -0.3867424710232712 -0.5725844983638906 0.11604909515134776
v 1.2989487897920062 0.7868770688746987 0.9052317231989997
v 0.8506943543418207 -0.5725846116802743 1.3534860039391656
v 0.06151196442691442 0.7868771821910825 -0.33220518558881823
v -0.3867424710232712 -0.5725844983638906 0.11604909515134776
v 1.2989487897920062 0.7868770688746987 0.9052317231989997
v 0.8506943543418207 -0.5725846116802743 1.3534860039391656
vt 0.6979166666666666 0
vt 0.9895833333333334 0
vt 0.9895833333333334 0.25
vt 0.6979166666666666 0.25
vt 0.9895833333333334 0.25
vt 0.9895833333333334 0
vt 0.6979166666666666 0
vt 0.6979166666666666 0.25
vn 0.6408563843073842 -0.42261826174069705 -0.6408563798041944
vn -0.6408563843073842 0.42261826174069705 0.6408563798041944
usemtl m_8d649761-3c17-36ca-5d37-cf1956a7b9c6
f 4/1/1 2/2/1 1/3/1 3/4/1
f 5/5/2 6/6/2 8/7/2 7/8/2
o doubleface
v -0.24072544963146625 0.41535287557125655 -0.18642478455575429
v -0.1810388590641222 0.41007372752962606 1.1872690101097094
v 1.1315492564365819 0.35287640642678536 -0.24628981515870962
v 1.191235847003926 0.3475972583851549 1.127403979506754
v -0.24072544963146625 0.41535287557125655 -0.18642478455575429
v -0.1810388590641222 0.41007372752962606 1.1872690101097094
v 1.1315492564365819 0.35287640642678536 -0.24628981515870962
v 1.191235847003926 0.3475972583851549 1.127403979506754
vt 0.057291666666666664 0.5625
vt 0.2864583333333333 0.5625
vt 0.2864583333333333 0.33333333333333337
vt 0.057291666666666664 0.33333333333333337
vt 0.2864583333333333 0.33333333333333337
vt 0.2864583333333333 0.5625
vt 0.057291666666666664 0.5625
vt 0.057291666666666664 0.33333333333333337
vn -0.04556142774766975 -0.998959808461726 -0.0018594030509481167
vn 0.04556142774766975 0.998959808461726 0.0018594030509481167
usemtl m_8d649761-3c17-36ca-5d37-cf1956a7b9c6
f 12/9/3 10/10/3 9/11/3 11/12/3
f 13/13/4 14/14/4 16/15/4 15/16/4
o doubleface
v 0.9548730207043152 0.5943145069841942 -0.2233825490573617
v 0.91276173917632 0.5643193713795194 1.1506450823271488
v 0.9442526494442189 -2.279973961557025 -0.28645399525352794
v 0.9021413679162237 -2.3099690971616997 1.0875736361309827
v 0.9548730207043152 0.5943145069841942 -0.2233825490573617
v 0.91276173917632 0.5643193713795194 1.1506450823271488
v 0.9442526494442189 -2.279973961557025 -0.28645399525352794
v 0.9021413679162237 -2.3099690971616997 1.0875736361309827
vt 0.609375 0.47916666666666663
vt 0.609375 0.9583333333333334
vt 0.3802083333333333 0.9583333333333334
vt 0.3802083333333333 0.47916666666666663
vt 0.3802083333333333 0.9583333333333334
vt 0.609375 0.9583333333333334
vt 0.609375 0.47916666666666663
vt 0.3802083333333333 0.47916666666666663
vn -0.9995240759973284 0.004363308267276852 -0.030538222650508394
vn 0.9995240759973284 -0.004363308267276852 0.030538222650508394
usemtl m_8d649761-3c17-36ca-5d37-cf1956a7b9c6
f 20/17/5 18/18/5 17/19/5 19/20/5
f 21/21/6 22/22/6 24/23/6 23/24/6
o doubleface
v 0.06148929866642332 0.5655683277158623 -0.21643531947070754
v 0.06096580449174012 0.5895597260852425 1.15835526049343
v 0.12419754087691097 -2.3083097260852417 -0.16625954604122767
v 0.12367404670222777 -2.2843183277158614 1.2085310339229098
v 0.06148929866642332 0.5655683277158623 -0.21643531947070754
v 0.06096580449174012 0.5895597260852425 1.15835526049343
v 0.12419754087691097 -2.3083097260852417 -0.16625954604122767
v 0.12367404670222777 -2.2843183277158614 1.2085310339229098
vt 0.75 0.953125
vt 0.9791666666666666 0.953125
vt 0.9791666666666666 0.47395833333333337
vt 0.75 0.47395833333333337
vt 0.9791666666666666 0.47395833333333337
vt 0.9791666666666666 0.953125
vt 0.75 0.953125
vt 0.75 0.47395833333333337
vn 0.9997620270799095 0.021814885034545716 -1.5840193740013227e-16
vn -0.9997620270799095 -0.021814885034545716 1.5840193740013227e-16
usemtl m_8d649761-3c17-36ca-5d37-cf1956a7b9c6
f 25/25/7 26/26/7 28/27/7 27/28/7
f 32/29/8 30/30/8 29/31/8 31/32/8
o doubleface
v 1.216475994106949 0.5786331543737566 0.9259397383153524
v -0.15631255296606628 0.5769326734809817 1.0038737706112157
v 1.2164758983347175 -2.2956826734809805 0.8632219438409876
v -0.15631264873829775 -2.2973831543737555 0.941155976136851
v 1.216475994106949 0.5786331543737566 0.9259397383153524
v -0.15631255296606628 0.5769326734809817 1.0038737706112157
v 1.2164758983347175 -2.2956826734809805 0.8632219438409876
v -0.15631264873829775 -2.2973831543737555 0.941155976136851
vt 0.609375 0.47395833333333337
vt 0.609375 0.953125
vt 0.3802083333333333 0.953125
vt 0.3802083333333333 0.47395833333333337
vt 0.3802083333333333 0.953125
vt 0.609375 0.953125
vt 0.609375 0.47395833333333337
vt 0.3802083333333333 0.47395833333333337
vn -0.05669278683767476 0.021779801401676725 -0.998154080376112
vn 0.05669278683767476 -0.021779801401676725 0.998154080376112
usemtl m_8d649761-3c17-36ca-5d37-cf1956a7b9c6
f 36/33/9 34/34/9 33/35/9 35/36/9
f 37/37/10 38/38/10 40/39/10 39/40/10
o doubleface
v 1.2191668869577974 0.6701846809860912 0.0598869948140357
v -0.15248368214945984 0.6701847266895011 -0.03602815658413719
v 1.2130422965970977 -2.2034743924653895 0.1474713482277118
v -0.15860827251015963 -2.2034743467619795 0.0515561968295389
v 1.2191668869577974 0.6701846809860912 0.0598869948140357
v -0.15248368214945984 0.6701847266895011 -0.03602815658413719
v 1.2130422965970977 -2.2034743924653895 0.1474713482277118
v -0.15860827251015963 -2.2034743467619795 0.0515561968295389
vt 0.7552083333333334 0.9583333333333334
vt 0.984375 0.9583333333333334
vt 0.984375 0.47916666666666663
vt 0.7552083333333334 0.47916666666666663
vt 0.984375 0.47916666666666663
vt 0.984375 0.9583333333333334
vt 0.7552083333333334 0.9583333333333334
vt 0.7552083333333334 0.47916666666666663
vn -0.06972393766802931 0.030538515533017122 0.9970987772458176
vn 0.06972393766802931 -0.030538515533017122 -0.9970987772458176
usemtl m_8d649761-3c17-36ca-5d37-cf1956a7b9c6
f 41/41/11 42/42/11 44/43/11 43/44/11
f 48/45/12 46/46/12 45/47/12 47/48/12
o doubleface
v -0.03586709967729884 0.7031539562470355 1.310191579678786
v 0.4277902971593612 -0.3730865408589851 1.502244855484322
v 0.7294998273369047 0.7031538267425996 -0.5375674595448945
v 1.1931572241735646 -0.37308667036342086 -0.34551418373935844
v -0.03586709967729884 0.7031539562470355 1.310191579678786
v 0.4277902971593612 -0.3730865408589851 1.502244855484322
v 0.7294998273369047 0.7031538267425996 -0.5375674595448945
v 1.1931572241735646 -0.37308667036342086 -0.34551418373935844
vt 0.6666666666666666 0.02604166666666663
vt 1 0.02604166666666663
vt 1 0.22395833333333337
vt 0.6666666666666666 0.22395833333333337
vt 1 0.22395833333333337
vt 1 0.02604166666666663
vt 0.6666666666666666 0.02604166666666663
vt 0.6666666666666666 0.22395833333333337
vn -0.8373192133802055 -0.42261826174069655 -0.3468289776642461
vn 0.8373192133802055 0.42261826174069655 0.3468289776642461
usemtl m_8d649761-3c17-36ca-5d37-cf1956a7b9c6
f 52/49/13 50/50/13 49/51/13 51/52/13
f 53/53/14 54/54/14 56/55/14 55/56/14