# Made in Blockbench 4.12.2
mtllib leaves_vertical_slab_parent_4_3.mtl

o plane_onesided
v 0.48439864570921753 -0.17034962108516638 1.1742888364813502
v 0.3645594994311846 -0.17034959221947077 -0.19547887339479947
v 0.5441470740468325 1.203341683700045 1.1690615552866965
v 0.42430792776879955 1.2033417125657406 -0.200706154589453
vt 0.875 0.546875
vt 0.875 0.890625
vt 0.53125 0.890625
vt 0.53125 0.546875
vn 0.995246541477834 -0.04361938553041276 -0.08707279071190577
usemtl m_3dd4bacd-22b7-821c-3447-e91d62f94f5c
f 1/1/1 2/2/1 4/3/1 3/4/1
o plane_doublesided
v -0.023016073645975313 1.203981566084341 1.1709976177270245
v 0.030780771131396933 -0.16995835884085453 1.1754677618575236
v 0.0908452116833057 1.203981594960782 -0.19927994820739736
v 0.14464205646067793 -0.16995832996441362 -0.19480980407689807
v -0.023016073645975313 1.203981566084341 1.1709976177270245
v 0.030780771131396933 -0.16995835884085453 1.1754677618575236
v 0.0908452116833057 1.203981594960782 -0.19927994820739736
v 0.14464205646067793 -0.16995832996441362 -0.19480980407689807
vt 0.53125 0.890625
vt 0.875 0.890625
vt 0.875 0.546875
vt 0.53125 0.546875
vt 0.875 0.546875
vt 0.875 0.890625
vt 0.53125 0.890625
vt 0.53125 0.546875
vn -0.9957971866115899 -0.03925981401536282 -0.0827443662125805
vn 0.9957971866115899 0.03925981401536282 0.0827443662125805
usemtl m_3dd4bacd-22b7-821c-3447-e91d62f94f5c
f 8/5/2 6/6/2 5/7/2 7/8/2
f 9/9/3 10/10/3 12/11/3 11/12/3
o plane_onesided
v -0.21925752697852974 -0.15256873852498587 0.9321138321693104
v 0.6514380982271155 -0.1906993743365788 0.8542666558534422
v -0.1542867637388612 1.2198151152653403 0.9865781120201114
v 0.7164088614667841 1.1816844794537473 0.9087309357042431
vt 0.4296875 0.625
vt 0.4296875 0.84375
vt 0.0859375 0.84375
vt 0.0859375 0.625
vn 0.08707278979269385 -0.04361940833858782 0.9952465405586242
usemtl m_3dd4bacd-22b7-821c-3447-e91d62f94f5c
f 13/13/4 14/14/4 16/15/4 15/16/4
o plane_onesided
v -0.12412392990000048 -0.20845660245254227 -0.003644464113454801
v 0.7400891701570329 -0.13219532994598682 0.11013135056388589
v -0.24293783566877863 1.161311107753241 -0.019286582690331885
v 0.6212752643882549 1.2375723802597964 0.0944892319870088
vt 0.0625 0.5546875
vt 0.40625 0.5546875
vt 0.40625 0.3359375
vt 0.0625 0.3359375
vn 0.1305261922200516 2.0893138169206245e-8 -0.9914448613738103
usemtl m_3dd4bacd-22b7-821c-3447-e91d62f94f5c
f 20/17/5 18/18/5 17/19/5 19/20/5
o plane_onesided
v -0.1581035941497742 0.9711413752152102 -0.16048857750502243
v 0.7152315862653642 0.932974410466999 -0.12235794085723062
v -0.21808025177711104 0.9711413462668304 1.2132027271700307
v 0.6552549286380274 0.9329743815186192 1.2513333638178226
vt 0.0625 0.5546875
vt 0.40625 0.5546875
vt 0.40625 0.3359375
vt 0.0625 0.3359375
vn 0.043577871373828 0.9990482215417622 0.0019026720074943747
usemtl m_3dd4bacd-22b7-821c-3447-e91d62f94f5c
f 24/21/6 22/22/6 21/23/6 23/24/6
o plane_onesided
v -0.12785256028662234 -0.012678863671453794 -0.1717328432422478
v 0.7438178005436549 -0.012678865278540202 -0.09547156833804693
v -0.2466664660553995 0.16679462201237014 1.1863163177723544
v 0.6250038947748777 0.16679462040528373 1.2625775926765552
vt 0.4140625 0.6328125
vt 0.4140625 0.8515625
vt 0.0703125 0.8515625
vt 0.0703125 0.6328125
vn -0.011376107230962391 -0.9914448641139771 0.13002947975858056
usemtl m_3dd4bacd-22b7-821c-3447-e91d62f94f5c
f 25/25/7 26/26/7 28/27/7 27/28/7
o plane_doublesided
v -0.4342203090808468 0.9789208265477147 1.3630861538075003
v 1.1161437989529168 1.1193648875643487 0.8969621378569901
v -0.6932537499019666 -0.10046214417892774 0.1763009672460482
v 0.8571103581317969 0.039981916837706244 -0.289823048704462
v -0.4342203090808468 0.9789208265477147 1.3630861538075003
v 1.1161437989529168 1.1193648875643487 0.8969621378569901
v -0.6932537499019666 -0.10046214417892774 0.1763009672460482
v 0.8571103581317969 0.039981916837706244 -0.289823048704462
vt 0.4765625 0.421875
vt 0.8828125 0.421875
vt 0.8828125 0.015625
vt 0.4765625 0.015625
vt 0.8828125 0.015625
vt 0.8828125 0.421875
vt 0.4765625 0.421875
vt 0.4765625 0.015625
vn 0.25365330413018433 -0.74251015001829 0.6199505451434466
vn -0.25365330413018433 0.74251015001829 -0.6199505451434466
usemtl m_3dd4bacd-22b7-821c-3447-e91d62f94f5c
f 32/29/8 30/30/8 29/31/8 31/32/8
f 33/33/9 34/34/9 36/35/9 35/36/9
o plane_doublesided
v -0.35252517761069685 1.5460120578314183 0.8218215381379919
v 0.3361749622358854 0.35758679106745483 1.6901316801335238
v 0.06525119243252825 0.7846188116708983 -0.5516296729847955
v 0.7539513322791105 -0.40380645509306523 0.31668046901073627
v -0.35252517761069685 1.5460120578314183 0.8218215381379919
v 0.3361749622358854 0.35758679106745483 1.6901316801335238
v 0.06525119243252825 0.7846188116708983 -0.5516296729847955
v 0.7539513322791105 -0.40380645509306523 0.31668046901073627
vt 0.4765625 0.03125
vt 0.8828125 0.03125
vt 0.8828125 0.4375
vt 0.4765625 0.4375
vt 0.8828125 0.4296875
vt 0.8828125 0.0234375
vt 0.4765625 0.0234375
vt 0.4765625 0.4296875
vn -0.8684949963186623 -0.49558551493200753 0.010556455798416355
vn 0.8684949963186623 0.49558551493200753 -0.010556455798416355
usemtl m_3dd4bacd-22b7-821c-3447-e91d62f94f5c
f 40/37/10 38/38/10 37/39/10 39/40/10
f 41/41/11 42/42/11 44/43/11 43/44/11
o plane_doublesided
v -0.028594501288770446 0.7905587625219639 -0.7132226278029249
v 1.0529078834664947 1.2107288766822497 0.4245096196679844
v -0.48527073905814827 -0.48054466753126784 0.19030815969892673
v 0.5962316456971168 -0.06037455337098202 1.3280404071698362
v -0.028594501288770446 0.7905587625219639 -0.7132226278029249
v 1.0529078834664947 1.2107288766822497 0.4245096196679844
v -0.48527073905814827 -0.48054466753126784 0.19030815969892673
v 0.5962316456971168 -0.06037455337098202 1.3280404071698362
vt 0.4765625 0.015625
vt 0.8828125 0.015625
vt 0.8828125 0.421875
vt 0.4765625 0.421875
vt 0.8828125 0.421875
vt 0.8828125 0.015625
vt 0.4765625 0.015625
vt 0.4765625 0.421875
vn -0.691431761940613 0.5668150470994439 0.44793171461881887
vn 0.691431761940613 -0.5668150470994439 -0.44793171461881887
usemtl m_3dd4bacd-22b7-821c-3447-e91d62f94f5c
f 48/45/12 46/46/12 45/47/12 47/48/12
f 49/49/13 50/50/13 52/51/13 51/52/13