# Made in Blockbench 4.12.2
mtllib leaves_vertical_slab_extended_parent.mtl

o doubleface
v 1.2124831517068015 1.1280683277158623 0.03140762598209723
v -0.16230742825733607 1.1520597260852425 0.03088413180741434
v 1.1623073782773217 -1.7458097260852417 0.09411586819258488
v -0.21248320168681595 -1.7218183277158614 0.09359237401790199
v 1.2124831517068015 1.1280683277158623 0.03140762598209723
v -0.16230742825733607 1.1520597260852425 0.03088413180741434
v 1.1623073782773217 -1.7458097260852417 0.09411586819258488
v -0.21248320168681595 -1.7218183277158614 0.09359237401790199
vt 0.75 0.953125
vt 0.9791666666666666 0.953125
vt 0.9791666666666666 0.47395833333333337
vt 0.75 0.47395833333333337
vt 0.9791666666666666 0.47395833333333337
vt 0.9791666666666666 0.953125
vt 0.75 0.953125
vt 0.75 0.47395833333333337
vn 3.803923322165394e-16 0.021814885034545716 0.9997620270799095
vn -3.803923322165394e-16 -0.021814885034545716 -0.9997620270799095
usemtl m_8d649761-3c17-36ca-5d37-cf1956a7b9c6
f 1/1/1 2/2/1 4/3/1 3/4/1
f 8/5/2 6/6/2 5/7/2 7/8/2
o doubleface
v 1.219430381293456 1.1568145069841942 0.4872913480199892
v -0.15459725009105468 1.1268193713795194 0.4451800664919942
v 1.282501827489622 -1.717473961557025 0.47667097675989284
v -0.09152580389488846 -1.7474690971616997 0.4345596952318979
v 1.219430381293456 1.1568145069841942 0.4872913480199892
v -0.15459725009105468 1.1268193713795194 0.4451800664919942
v 1.282501827489622 -1.717473961557025 0.47667097675989284
v -0.09152580389488846 -1.7474690971616997 0.4345596952318979
vt 0.609375 0.47916666666666663
vt 0.609375 0.9583333333333334
vt 0.3802083333333333 0.9583333333333334
vt 0.3802083333333333 0.47916666666666663
vt 0.3802083333333333 0.9583333333333334
vt 0.609375 0.9583333333333334
vt 0.609375 0.47916666666666663
vt 0.3802083333333333 0.47916666666666663
vn 0.030538222650508172 0.0043633082672768515 -0.9995240759973284
vn -0.030538222650508172 -0.0043633082672768515 0.9995240759973284
usemtl m_8d649761-3c17-36ca-5d37-cf1956a7b9c6
f 12/9/3 10/10/3 9/11/3 11/12/3
f 13/13/4 14/14/4 16/15/4 15/16/4
o doubleface
v 1.182472616791848 0.9778528755712564 -0.1458071223157923
v -0.1912211778736156 0.972573727529626 -0.08612053174844803
v 1.2178474076026857 0.9409349619858871 0.6650824767244179
v -0.1558463870627781 0.9356558139442567 0.7247690672917622
v 1.182472616791848 0.9778528755712564 -0.1458071223157923
v -0.1912211778736156 0.972573727529626 -0.08612053174844803
v 1.2178474076026857 0.9409349619858871 0.6650824767244179
v -0.1558463870627781 0.9356558139442567 0.7247690672917622
vt 0.4583333333333333 0.32291666666666663
vt 0.4583333333333333 0.1875
vt 0.6875 0.1875
vt 0.6875 0.32291666666666663
vt 0.6875 0.1875
vt 0.4583333333333333 0.1875
vt 0.4583333333333333 0.32291666666666663
vt 0.6875 0.32291666666666663
vn 0.0018594030509481068 -0.998959808461726 -0.04556142774766975
vn -0.0018594030509481068 0.998959808461726 0.04556142774766975
usemtl m_8d649761-3c17-36ca-5d37-cf1956a7b9c6
f 20/17/5 18/18/5 17/19/5 19/20/5
f 21/21/6 22/22/6 24/23/6 23/24/6
o doubleface
v 0.979758633512137 1.1201847017603688 0.6281076828610815
v 1.0233564296022153 1.1201847225346462 0.004630151448691833
v 0.8921742800984609 -1.7534743716911119 0.6219830925003818
v 0.9357720761885393 -1.7534743509168345 -0.001494438912007956
v 0.979758633512137 1.1201847017603688 0.6281076828610815
v 1.0233564296022153 1.1201847225346462 0.004630151448691833
v 0.8921742800984609 -1.7534743716911119 0.6219830925003818
v 0.9357720761885393 -1.7534743509168345 -0.001494438912007956
vt 0.036458333333332815 0.046875
vt 0.036458333333332815 0.15104166666666663
vt 0.5156249999999994 0.15104166666666663
vt 0.5156249999999994 0.046875
vt 0.5156249999999994 0.15104166666666663
vt 0.036458333333332815 0.15104166666666663
vt 0.036458333333332815 0.046875
vt 0.5156249999999994 0.046875
vn -0.9970987772458176 0.03053851553301712 -0.06972393766802909
vn 0.9970987772458176 -0.03053851553301712 0.06972393766802909
usemtl m_8d649761-3c17-36ca-5d37-cf1956a7b9c6
f 25/25/7 26/26/7 28/27/7 27/28/7
f 32/29/8 30/30/8 29/31/8 31/32/8
o doubleface
v 0.955709088517678 1.5487356153378584 0.5354428540622838
v 1.407300602220972 0.604374249490366 -0.538915892095547
v -0.2800751536966881 0.4078348271201388 1.0188502372690897
v 0.17151636000660586 -0.5365265387273535 -0.055508508888740926
v 0.955709088517678 1.5487356153378584 0.5354428540622838
v 1.407300602220972 0.604374249490366 -0.538915892095547
v -0.2800751536966881 0.4078348271201388 1.0188502372690897
v 0.17151636000660586 -0.5365265387273535 -0.055508508888740926
vt 0.6979166666666666 0
vt 0.9895833333333334 0
vt 0.9895833333333334 0.25
vt 0.6979166666666666 0.25
vt 0.9895833333333334 0.25
vt 0.9895833333333334 0
vt 0.6979166666666666 0
vt 0.6979166666666666 0.25
vn 0.6408563798041949 -0.4226182617406939 0.640856384307386
vn -0.6408563798041949 0.4226182617406939 -0.640856384307386
usemtl m_8d649761-3c17-36ca-5d37-cf1956a7b9c6
f 36/33/9 34/34/9 33/35/9 35/36/9
f 37/37/10 38/38/10 40/39/10 39/40/10
o doubleface
v 0.8482185439872902 0.021895199909443774 -0.6329062993162833
v 1.1525231690385063 -0.37869638505462033 0.44277084891566537
v -0.22046150068303844 1.4848601384750135 0.21423982187607954
v 0.08384312436817759 1.0842685535109493 1.2899169701080282
v 0.8482185439872902 0.021895199909443774 -0.6329062993162833
v 1.1525231690385063 -0.37869638505462033 0.44277084891566537
v -0.22046150068303844 1.4848601384750135 0.21423982187607954
v 0.08384312436817759 1.0842685535109493 1.2899169701080282
vt 0.6666666666666666 0.02604166666666663
vt 1 0.02604166666666663
vt 1 0.22395833333333337
vt 0.6666666666666666 0.22395833333333337
vt 1 0.22395833333333337
vt 1 0.02604166666666663
vt 0.6666666666666666 0.02604166666666663
vt 0.6666666666666666 0.22395833333333337
vn 0.8054894991427988 0.5925663939353282 -0.007192742812344083
vn -0.8054894991427988 -0.5925663939353282 0.007192742812344083
usemtl m_8d649761-3c17-36ca-5d37-cf1956a7b9c6
f 44/41/11 42/42/11 41/43/11 43/44/11
f 45/45/12 46/46/12 48/47/12 47/48/12
o doubleface
v 0.08431964498688019 1.120840165358198 0.6205979334929221
v 0.040721848896801756 1.1208401861324753 -0.0028795979194681243
v 0.059291970459436905 -1.7540503635096074 0.6223479431916062
v 0.015694174369358473 -1.7540503427353302 -0.0011295882207840169
v 0.08431964498688019 1.120840165358198 0.6205979334929221
v 0.040721848896801756 1.1208401861324753 -0.0028795979194681243
v 0.059291970459436905 -1.7540503635096074 0.6223479431916062
v 0.015694174369358473 -1.7540503427353302 -0.0011295882207840169
vt 0.5156249999999994 0.15104166666666663
vt 0.036458333333332815 0.15104166666666663
vt 0.036458333333332815 0.046875
vt 0.5156249999999994 0.046875
vt 0.036458333333332815 0.046875
vt 0.036458333333332815 0.15104166666666663
vt 0.5156249999999994 0.15104166666666663
vt 0.5156249999999994 0.046875
vn 0.9975260660774974 -0.00872653317418405 -0.06975381792211924
vn -0.9975260660774974 0.00872653317418405 0.06975381792211924
usemtl m_8d649761-3c17-36ca-5d37-cf1956a7b9c6
f 52/49/13 50/50/13 49/51/13 51/52/13
f 53/53/14 54/54/14 56/55/14 55/56/14