# Made in Blockbench 4.12.2
mtllib leaves_vertical_slab_parent.mtl

o plane_onesided
v 1.1913664669779194 1.1789563987864913 0.4798718910518693
v -0.17840124289823056 1.1789563987864922 0.36003274477383634
v 1.1861391568348862 -0.19473490588856313 0.5396203193894864
v -0.1836285530412639 -0.19473490588856246 0.41978117311145347
vt 0.875 0.546875
vt 0.875 0.890625
vt 0.53125 0.890625
vt 0.53125 0.546875
vn -0.08707278979269592 0.04361938736533617 0.995246541477834
usemtl m_3dd4bacd-22b7-821c-3447-e91d62f94f5c
f 1/1/1 2/2/1 4/3/1 3/4/1
o plane_doublesided
v 1.1880752192617294 -0.19537478831365918 -0.027542828303321443
v 1.1925453923458478 1.1785651365173349 0.026254016474048666
v -0.18220234667269253 -0.19537478831365918 0.08631845702595956
v -0.17773217358857418 1.1785651365173349 0.14011530180332968
v 1.1880752192617294 -0.19537478831365918 -0.027542828303321443
v 1.1925453923458478 1.1785651365173349 0.026254016474048666
v -0.18220234667269253 -0.19537478831365918 0.08631845702595956
v -0.17773217358857418 1.1785651365173349 0.14011530180332968
vt 0.53125 0.890625
vt 0.875 0.890625
vt 0.875 0.546875
vt 0.53125 0.546875
vt 0.875 0.546875
vt 0.875 0.890625
vt 0.53125 0.890625
vt 0.53125 0.546875
vn -0.08274436538524176 0.0392598157590684 -0.9957971866115899
vn 0.08274436538524176 -0.0392598157590684 0.9957971866115899
usemtl m_3dd4bacd-22b7-821c-3447-e91d62f94f5c
f 8/5/2 6/6/2 5/7/2 7/8/2
f 9/9/3 10/10/3 12/11/3 11/12/3
o plane_onesided
v 0.9491914622911758 1.1611755213297665 -0.22378428163587794
v 0.8713442867788506 1.1993061587818674 0.6469113435697672
v 1.0036557132211494 -0.2112083336083081 -0.15881351839620728
v 0.9258085377088242 -0.17307769615620722 0.7118821068094379
vt 0.4296875 0.625
vt 0.4296875 0.84375
vt 0.0859375 0.84375
vt 0.0859375 0.625
vn 0.9952465414778343 0.043619387365335285 0.08707278979269385
usemtl m_3dd4bacd-22b7-821c-3447-e91d62f94f5c
f 13/13/4 14/14/4 16/15/4 15/16/4
o plane_onesided
v 0.013433167186159417 1.2170634049769549 -0.12865068455734885
v 0.12720898025641386 1.1408021300727547 0.7355624154996847
v -0.0022089802564138616 -0.15270430489919523 -0.24746459032612478
v 0.11156683281384058 -0.22896557980339544 0.6167485097309088
vt 0.0625 0.5546875
vt 0.40625 0.5546875
vt 0.40625 0.3359375
vt 0.0625 0.3359375
vn -0.9914448613738104 3.0704605524789495e-16 0.13052619222005157
usemtl m_3dd4bacd-22b7-821c-3447-e91d62f94f5c
f 20/17/5 18/18/5 17/19/5 19/20/5
o plane_onesided
v -0.14341097106357692 0.03746543061444506 -0.16263034880712057
v -0.10528033361147648 0.07563239455911444 0.7107048316080177
v 1.2302803336114765 0.03746543061444493 -0.22260700643445752
v 1.268410971063577 0.07563239455911432 0.6507281739806807
vt 0.0625 0.5546875
vt 0.40625 0.5546875
vt 0.40625 0.3359375
vt 0.0625 0.3359375
vn 0.0019026509541271554 -0.9990482215818577 0.04357787137382955
usemtl m_3dd4bacd-22b7-821c-3447-e91d62f94f5c
f 24/21/6 22/22/6 21/23/6 23/24/6
o plane_onesided
v -0.15465521606834098 1.0212856697380641 -0.13237931494397032
v -0.07839394116414011 1.0212856697380657 0.7392910458863069
v 1.2033939411641401 0.8418121554354937 -0.25119322071274724
v 1.279655216068341 0.8418121554354953 0.62047714011753
vt 0.4140625 0.6328125
vt 0.4140625 0.8515625
vt 0.0703125 0.8515625
vt 0.0703125 0.6328125
vn 0.13002950065171898 0.9914448613738105 -0.011376107230963923
usemtl m_3dd4bacd-22b7-821c-3447-e91d62f94f5c
f 25/25/7 26/26/7 28/27/7 27/28/7
o plane_doublesided
v 1.3801637600850056 0.02968594717500317 -0.43874706373819317
v 0.9140397411748582 -0.1107581040187991 1.1116170442955704
v 0.19337859626984938 1.109068942911273 -0.6977805045593148
v -0.27274542264029816 0.9686248917174707 0.8525836034744488
v 1.3801637600850056 0.02968594717500317 -0.43874706373819317
v 0.9140397411748582 -0.1107581040187991 1.1116170442955704
v 0.19337859626984938 1.109068942911273 -0.6977805045593148
v -0.27274542264029816 0.9686248917174707 0.8525836034744488
vt 0.4765625 0.421875
vt 0.8828125 0.421875
vt 0.8828125 0.015625
vt 0.4765625 0.015625
vt 0.8828125 0.015625
vt 0.8828125 0.421875
vt 0.4765625 0.421875
vt 0.4765625 0.015625
vn 0.6199505607906781 0.7425101369538094 0.2536533041301832
vn -0.6199505607906781 -0.7425101369538094 -0.2536533041301832
usemtl m_3dd4bacd-22b7-821c-3447-e91d62f94f5c
f 32/29/8 30/30/8 29/31/8 31/32/8
f 33/33/9 34/34/9 36/35/9 35/36/9
o plane_doublesided
v 0.8388991324649434 -0.537405272702401 -0.3570519322680424
v 1.7072092995046648 0.6510199757632951 0.33164820757853797
v -0.5345520626126808 0.22398800240143962 0.06072443777518152
v 0.33375810442704074 1.4124132508671357 0.7494245776217618
v 0.8388991324649434 -0.537405272702401 -0.3570519322680424
v 1.7072092995046648 0.6510199757632951 0.33164820757853797
v -0.5345520626126808 0.22398800240143962 0.06072443777518152
v 0.33375810442704074 1.4124132508671357 0.7494245776217618
vt 0.4765625 0.03125
vt 0.8828125 0.03125
vt 0.8828125 0.4375
vt 0.4765625 0.4375
vt 0.8828125 0.4296875
vt 0.8828125 0.0234375
vt 0.4765625 0.0234375
vt 0.4765625 0.4296875
vn 0.010556466242100243 0.4955855147095453 -0.868494996318663
vn -0.010556466242100243 -0.4955855147095453 0.868494996318663
usemtl m_3dd4bacd-22b7-821c-3447-e91d62f94f5c
f 40/37/10 38/38/10 37/39/10 39/40/10
f 41/41/11 42/42/11 44/43/11 43/44/11
o plane_doublesided
v -0.6961450175559853 0.21804805495569096 -0.03312125594611731
v 0.4415872210605007 -0.20212208318050762 1.0483811288091487
v 0.20738579673236812 1.4891514659684337 -0.48979749371549713
v 1.3451180353488539 1.0689813278322353 0.5917048910397689
v -0.6961450175559853 0.21804805495569096 -0.03312125594611731
v 0.4415872210605007 -0.20212208318050762 1.0483811288091487
v 0.20738579673236812 1.4891514659684337 -0.48979749371549713
v 1.3451180353488539 1.0689813278322353 0.5917048910397689
vt 0.4765625 0.015625
vt 0.8828125 0.015625
vt 0.8828125 0.421875
vt 0.4765625 0.421875
vt 0.8828125 0.421875
vt 0.8828125 0.015625
vt 0.4765625 0.015625
vt 0.4765625 0.421875
vn 0.44793170267408466 -0.5668150565388999 -0.6914317619406121
vn -0.44793170267408466 0.5668150565388999 0.6914317619406121
usemtl m_3dd4bacd-22b7-821c-3447-e91d62f94f5c
f 48/45/12 46/46/12 45/47/12 47/48/12
f 49/49/13 50/50/13 52/51/13 51/52/13