# Made in Blockbench 4.12.2
mtllib leaves_vertical_slab_parent_2_4.mtl

o plane_onesided
v 0.5204270215349113 1.1845687651044212 -0.1635519122222846
v 0.6402661678129427 -0.18519894477172888 -0.16355191222228527
v 0.4606785931972942 1.1793414549613879 1.21013939245277
v 0.5805177394753256 -0.19042625491476212 1.2101393924527692
vt 0.875 0.546875
vt 0.875 0.890625
vt 0.53125 0.890625
vt 0.53125 0.546875
vn -0.9952465414778341 -0.08707278979269481 -0.04361938736533614
usemtl m_3dd4bacd-22b7-821c-3447-e91d62f94f5c
f 1/1/1 2/2/1 4/3/1 3/4/1
o plane_doublesided
v 1.0278417408901022 1.1812775173882306 1.2107792748778659
v 0.9740448961127319 1.185747690472349 -0.16316064995312818
v 0.9139804555608195 -0.18900004854619118 1.2107792748778659
v 0.8601836107834494 -0.18452987546207283 -0.16316064995312818
v 1.0278417408901022 1.1812775173882306 1.2107792748778659
v 0.9740448961127319 1.185747690472349 -0.16316064995312818
v 0.9139804555608195 -0.18900004854619118 1.2107792748778659
v 0.8601836107834494 -0.18452987546207283 -0.16316064995312818
vt 0.53125 0.890625
vt 0.875 0.890625
vt 0.875 0.546875
vt 0.53125 0.546875
vt 0.875 0.546875
vt 0.875 0.890625
vt 0.53125 0.890625
vt 0.53125 0.546875
vn 0.9957971866115898 -0.08274436538524287 -0.03925981575906843
vn -0.9957971866115898 0.08274436538524287 0.03925981575906843
usemtl m_3dd4bacd-22b7-821c-3447-e91d62f94f5c
f 8/5/2 6/6/2 5/7/2 7/8/2
f 9/9/3 10/10/3 12/11/3 11/12/3
o plane_onesided
v 1.2240831942226582 0.9423937604176768 -0.14577103476555986
v 0.353387569017013 0.8645465849053525 -0.18390167221766074
v 1.1591124309829877 0.9968580113476505 1.2266128201725148
v 0.28841680577734236 0.9190108358353263 1.188482182720414
vt 0.4296875 0.625
vt 0.4296875 0.84375
vt 0.0859375 0.84375
vt 0.0859375 0.625
vn -0.08707278979269273 0.9952465414778342 -0.04361938736533528
usemtl m_3dd4bacd-22b7-821c-3447-e91d62f94f5c
f 13/13/4 14/14/4 16/15/4 15/16/4
o plane_onesided
v 1.128949597144128 0.006635465312660516 -0.20165891841274808
v 0.26473649708709457 0.12041127838291593 -0.12539764350854787
v 1.2477635029129042 -0.009006682129912902 1.168108791463402
v 0.3835504028558706 0.10476913094034251 1.244370066367602
vt 0.0625 0.5546875
vt 0.40625 0.5546875
vt 0.40625 0.3359375
vt 0.0625 0.3359375
vn -0.13052619222005268 -0.9914448613738103 -3.035766082959413e-16
usemtl m_3dd4bacd-22b7-821c-3447-e91d62f94f5c
f 20/17/5 18/18/5 17/19/5 19/20/5
o plane_onesided
v 1.1629292613938997 -0.15020867293707585 0.9779390559497615
v 0.28959408097876155 -0.11207803548497453 0.9397720920050922
v 1.2229059190212381 1.2234826317379777 0.9779390559497617
v 0.34957073860609994 1.2616132691900788 0.9397720920050924
vt 0.0625 0.5546875
vt 0.40625 0.5546875
vt 0.40625 0.3359375
vt 0.0625 0.3359375
vn -0.04357787137382952 0.001902650954127204 0.9990482215818578
usemtl m_3dd4bacd-22b7-821c-3447-e91d62f94f5c
f 24/21/6 22/22/6 21/23/6 23/24/6
o plane_onesided
v 1.1326782275307494 -0.1614529179418398 -0.005881183173857427
v 0.2610078667004722 -0.08519164303763804 -0.005881183173858953
v 1.2514921332995277 1.196596239290641 0.17359233112871303
v 0.3798217724692506 1.2728575141948428 0.17359233112871153
vt 0.4140625 0.6328125
vt 0.4140625 0.8515625
vt 0.0703125 0.8515625
vt 0.0703125 0.6328125
vn 0.011376107230964043 0.130029500651719 -0.9914448613738106
usemtl m_3dd4bacd-22b7-821c-3447-e91d62f94f5c
f 25/25/7 26/26/7 28/27/7 27/28/7
o plane_doublesided
v 1.4390459763249739 1.3733660582115066 0.9857185393892035
v -0.11131813170879024 0.9072420393013609 1.1261625905830057
v 1.6980794171460944 0.1865808943963499 -0.09366445634706633
v 0.1477153091123301 -0.27954312451379587 0.046779594846735995
v 1.4390459763249739 1.3733660582115066 0.9857185393892035
v -0.11131813170879024 0.9072420393013609 1.1261625905830057
v 1.6980794171460944 0.1865808943963499 -0.09366445634706633
v 0.1477153091123301 -0.27954312451379587 0.046779594846735995
vt 0.4765625 0.421875
vt 0.8828125 0.421875
vt 0.8828125 0.015625
vt 0.4765625 0.015625
vt 0.8828125 0.015625
vt 0.8828125 0.421875
vt 0.4765625 0.421875
vt 0.4765625 0.015625
vn -0.2536533041301825 0.6199505607906781 -0.7425101369538093
vn 0.2536533041301825 -0.6199505607906781 0.7425101369538093
usemtl m_3dd4bacd-22b7-821c-3447-e91d62f94f5c
f 32/29/8 30/30/8 29/31/8 31/32/8
f 33/33/9 34/34/9 36/35/9 35/36/9
o plane_doublesided
v 1.3573508448548226 0.8321014305914443 1.5528097592666077
v 0.6686507050082433 1.7004115976311667 0.3643845108009116
v 0.9395744748115972 -0.5413497644861796 0.791416484162767
v 0.25087433496501776 0.32696040255354275 -0.397008764302929
v 1.3573508448548226 0.8321014305914443 1.5528097592666077
v 0.6686507050082433 1.7004115976311667 0.3643845108009116
v 0.9395744748115972 -0.5413497644861796 0.791416484162767
v 0.25087433496501776 0.32696040255354275 -0.397008764302929
vt 0.4765625 0.03125
vt 0.8828125 0.03125
vt 0.8828125 0.4375
vt 0.4765625 0.4375
vt 0.8828125 0.4296875
vt 0.8828125 0.0234375
vt 0.4765625 0.0234375
vt 0.4765625 0.4296875
vn 0.8684949963186631 0.010556466242099273 -0.49558551470954537
vn -0.8684949963186631 -0.010556466242099273 0.49558551470954537
usemtl m_3dd4bacd-22b7-821c-3447-e91d62f94f5c
f 40/37/10 38/38/10 37/39/10 39/40/10
f 41/41/11 42/42/11 44/43/11 43/44/11
o plane_doublesided
v 1.0334201685328956 -0.7029427194294842 0.7973564316085159
v -0.048082216222368857 0.43478951918700315 1.2175265697447144
v 1.4900964063022766 0.2005880948588687 -0.4737469794042273
v 0.4085940215470119 1.338320333475356 -0.05357684126802864
v 1.0334201685328956 -0.7029427194294842 0.7973564316085159
v -0.048082216222368857 0.43478951918700315 1.2175265697447144
v 1.4900964063022766 0.2005880948588687 -0.4737469794042273
v 0.4085940215470119 1.338320333475356 -0.05357684126802864
vt 0.4765625 0.015625
vt 0.8828125 0.015625
vt 0.8828125 0.421875
vt 0.4765625 0.421875
vt 0.8828125 0.421875
vt 0.8828125 0.015625
vt 0.4765625 0.015625
vt 0.4765625 0.421875
vn 0.6914317619406126 0.44793170267408383 0.5668150565388999
vn -0.6914317619406126 -0.44793170267408383 -0.5668150565388999
usemtl m_3dd4bacd-22b7-821c-3447-e91d62f94f5c
f 48/45/12 46/46/12 45/47/12 47/48/12
f 49/49/13 50/50/13 52/51/13 51/52/13