# Made in Blockbench 4.12.2
mtllib leaves_vertical_slab_extended_parent_2.mtl

o doubleface
v 0.46455714593771635 1.5580129590878584 0.955709088517678
v 1.5389158920955472 0.613651593240366 1.4073006022209715
v -0.018850237269090075 0.4171121708701388 -0.2800751536966879
v 1.0555085088887408 -0.5272491949773535 0.1715163600066058
v 0.46455714593771635 1.5580129590878584 0.955709088517678
v 1.5389158920955472 0.613651593240366 1.4073006022209715
v -0.018850237269090075 0.4171121708701388 -0.2800751536966879
v 1.0555085088887408 -0.5272491949773535 0.1715163600066058
vt 0.6979166666666666 0
vt 0.9895833333333334 0
vt 0.9895833333333334 0.25
vt 0.6979166666666666 0.25
vt 0.9895833333333334 0.25
vt 0.9895833333333334 0
vt 0.6979166666666666 0
vt 0.6979166666666666 0.25
vn -0.6408563843073858 -0.4226182617406939 0.6408563798041951
vn 0.6408563843073858 0.4226182617406939 -0.6408563798041951
usemtl m_8d649761-3c17-36ca-5d37-cf1956a7b9c6
f 4/1/1 2/2/1 1/3/1 3/4/1
f 5/5/2 6/6/2 8/7/2 7/8/2
o doubleface
v 1.1458071223157924 0.9871302193212564 1.182472616791848
v 1.086120531748448 0.981851071279626 -0.1912211778736157
v 0.3349175232755822 0.9502123057358871 1.2178474076026857
v 0.27523093270823773 0.9449331576942567 -0.1558463870627781
v 1.1458071223157924 0.9871302193212564 1.182472616791848
v 1.086120531748448 0.981851071279626 -0.1912211778736157
v 0.3349175232755822 0.9502123057358871 1.2178474076026857
v 0.27523093270823773 0.9449331576942567 -0.1558463870627781
vt 0.4583333333333333 0.32291666666666663
vt 0.4583333333333333 0.1875
vt 0.6875 0.1875
vt 0.6875 0.32291666666666663
vt 0.6875 0.1875
vt 0.4583333333333333 0.1875
vt 0.4583333333333333 0.32291666666666663
vt 0.6875 0.32291666666666663
vn 0.04556142774766973 -0.9989598084617259 0.001859403050948096
vn -0.04556142774766973 0.9989598084617259 -0.001859403050948096
usemtl m_8d649761-3c17-36ca-5d37-cf1956a7b9c6
f 12/9/3 10/10/3 9/11/3 11/12/3
f 13/13/4 14/14/4 16/15/4 15/16/4
o doubleface
v 0.512708651980011 1.1660918507341942 1.219430381293456
v 0.5548199335080056 1.1360967151295194 -0.15459725009105468
v 0.5233290232401073 -1.708196617807025 1.282501827489622
v 0.5654403047681019 -1.7381917534116997 -0.09152580389488846
v 0.512708651980011 1.1660918507341942 1.219430381293456
v 0.5548199335080056 1.1360967151295194 -0.15459725009105468
v 0.5233290232401073 -1.708196617807025 1.282501827489622
v 0.5654403047681019 -1.7381917534116997 -0.09152580389488846
vt 0.609375 0.47916666666666663
vt 0.609375 0.9583333333333334
vt 0.3802083333333333 0.9583333333333334
vt 0.3802083333333333 0.47916666666666663
vt 0.3802083333333333 0.9583333333333334
vt 0.609375 0.9583333333333334
vt 0.609375 0.47916666666666663
vt 0.3802083333333333 0.47916666666666663
vn 0.9995240759973284 0.0043633082672768515 0.03053822265050795
vn -0.9995240759973284 -0.0043633082672768515 -0.03053822265050795
usemtl m_8d649761-3c17-36ca-5d37-cf1956a7b9c6
f 20/17/5 18/18/5 17/19/5 19/20/5
f 21/21/6 22/22/6 24/23/6 23/24/6
o doubleface
v 0.9685923740179029 1.1373456714658623 1.2124831517068013
v 0.9691158681925856 1.1613370698352425 -0.16230742825733618
v 0.9058841318074152 -1.7365323823352417 1.1623073782773214
v 0.9064076259820979 -1.7125409839658614 -0.21248320168681606
v 0.9685923740179029 1.1373456714658623 1.2124831517068013
v 0.9691158681925856 1.1613370698352425 -0.16230742825733618
v 0.9058841318074152 -1.7365323823352417 1.1623073782773214
v 0.9064076259820979 -1.7125409839658614 -0.21248320168681606
vt 0.75 0.953125
vt 0.9791666666666666 0.953125
vt 0.9791666666666666 0.47395833333333337
vt 0.75 0.47395833333333337
vt 0.9791666666666666 0.47395833333333337
vt 0.9791666666666666 0.953125
vt 0.75 0.953125
vt 0.75 0.47395833333333337
vn -0.9997620270799095 0.021814885034545716 6.023285169243223e-16
vn 0.9997620270799095 -0.021814885034545716 -6.023285169243223e-16
usemtl m_8d649761-3c17-36ca-5d37-cf1956a7b9c6
f 25/25/7 26/26/7 28/27/7 27/28/7
f 32/29/8 30/30/8 29/31/8 31/32/8
o doubleface
v 0.37189231713891857 1.1294620455103686 0.979758633512137
v 0.9953698485513083 1.129462066284646 1.0233564296022153
v 0.37801690749961836 -1.7441970279411119 0.8921742800984609
v 1.0014944389120082 -1.7441970071668345 0.9357720761885392
v 0.37189231713891857 1.1294620455103686 0.979758633512137
v 0.9953698485513083 1.129462066284646 1.0233564296022153
v 0.37801690749961836 -1.7441970279411119 0.8921742800984609
v 1.0014944389120082 -1.7441970071668345 0.9357720761885392
vt 0.036458333333332815 0.046875
vt 0.036458333333332815 0.15104166666666663
vt 0.5156249999999994 0.15104166666666663
vt 0.5156249999999994 0.046875
vt 0.5156249999999994 0.15104166666666663
vt 0.036458333333332815 0.15104166666666663
vt 0.036458333333332815 0.046875
vt 0.5156249999999994 0.046875
vn 0.06972393766802887 0.03053851553301712 -0.9970987772458176
vn -0.06972393766802887 -0.03053851553301712 0.9970987772458176
usemtl m_8d649761-3c17-36ca-5d37-cf1956a7b9c6
f 33/33/9 34/34/9 36/35/9 35/36/9
f 40/37/10 38/38/10 37/39/10 39/40/10
o doubleface
v 0.3794020665070777 1.130117509108198 0.08431964498688022
v 1.002879597919468 1.130117529882475 0.040721848896801645
v 0.37765205680839364 -1.7447730197596076 0.05929197045943693
v 1.0011295882207838 -1.7447729989853302 0.01569417436935836
v 0.3794020665070777 1.130117509108198 0.08431964498688022
v 1.002879597919468 1.130117529882475 0.040721848896801645
v 0.37765205680839364 -1.7447730197596076 0.05929197045943693
v 1.0011295882207838 -1.7447729989853302 0.01569417436935836
vt 0.5156249999999994 0.15104166666666663
vt 0.036458333333332815 0.15104166666666663
vt 0.036458333333332815 0.046875
vt 0.5156249999999994 0.046875
vt 0.036458333333332815 0.046875
vt 0.036458333333332815 0.15104166666666663
vt 0.5156249999999994 0.15104166666666663
vt 0.5156249999999994 0.046875
vn 0.06975381792211946 -0.00872653317418405 0.9975260660774974
vn -0.06975381792211946 0.00872653317418405 -0.9975260660774974
usemtl m_8d649761-3c17-36ca-5d37-cf1956a7b9c6
f 44/41/11 42/42/11 41/43/11 43/44/11
f 45/45/12 46/46/12 48/47/12 47/48/12
o doubleface
v 1.6329062993162833 0.031172543659443774 0.84821854398729
v 0.5572291510843348 -0.36941904130462033 1.1525231690385063
v 0.7857601781239203 1.4941374822250135 -0.2204615006830385
v -0.2899169701080282 1.0935458972609493 0.08384312436817787
v 1.6329062993162833 0.031172543659443774 0.84821854398729
v 0.5572291510843348 -0.36941904130462033 1.1525231690385063
v 0.7857601781239203 1.4941374822250135 -0.2204615006830385
v -0.2899169701080282 1.0935458972609493 0.08384312436817787
vt 0.6666666666666666 0.02604166666666663
vt 1 0.02604166666666663
vt 1 0.22395833333333337
vt 0.6666666666666666 0.22395833333333337
vt 1 0.22395833333333337
vt 1 0.02604166666666663
vt 0.6666666666666666 0.02604166666666663
vt 0.6666666666666666 0.22395833333333337
vn 0.007192742812344279 0.5925663939353282 0.805489499142799
vn -0.007192742812344279 -0.5925663939353282 -0.805489499142799
usemtl m_8d649761-3c17-36ca-5d37-cf1956a7b9c6
f 52/49/13 50/50/13 49/51/13 51/52/13
f 53/53/14 54/54/14 56/55/14 55/56/14