# Made in Blockbench 4.12.2
mtllib leaves_slab_parent_3.mtl

o plane_onesided
v -0.16946318345132272 0.4858229784650895 1.164099606746496
v 1.2003045264248273 0.36598383218705655 1.1640996067464964
v -0.1642358733082896 0.5455714068027063 -0.20959169792855847
v 1.2055318365678604 0.42573226052467333 -0.20959169792855803
vt 0.875 0.546875
vt 0.875 0.890625
vt 0.53125 0.890625
vt 0.53125 0.546875
vn 0.08707278979269592 0.995246541477834 0.04361938736533594
usemtl m_3dd4bacd-22b7-821c-3447-e91d62f94f5c
f 1/1/1 2/2/1 4/3/1 3/4/1
o plane_doublesided
v -0.1661719357351329 -0.021591740890101338 -0.21023158035365452
v -0.17064210881925101 0.032205103887269076 1.1637083444773395
v 1.204105630199289 0.09226954443917967 -0.21023158035365475
v 1.1996354571151708 0.14606638921655007 1.1637083444773393
v -0.1661719357351329 -0.021591740890101338 -0.21023158035365452
v -0.17064210881925101 0.032205103887269076 1.1637083444773395
v 1.204105630199289 0.09226954443917967 -0.21023158035365475
v 1.1996354571151708 0.14606638921655007 1.1637083444773393
vt 0.53125 0.890625
vt 0.875 0.890625
vt 0.875 0.546875
vt 0.53125 0.546875
vt 0.875 0.546875
vt 0.875 0.890625
vt 0.53125 0.890625
vt 0.53125 0.546875
vn 0.08274436538524176 -0.9957971866115899 0.03925981575906861
vn -0.08274436538524176 0.9957971866115899 -0.03925981575906861
usemtl m_3dd4bacd-22b7-821c-3447-e91d62f94f5c
f 8/5/2 6/6/2 5/7/2 7/8/2
f 9/9/3 10/10/3 12/11/3 11/12/3
o plane_onesided
v 0.07271182123542098 -0.2178331942226578 1.1463187292897712
v 0.1505589967477462 0.6528624309829874 1.1844493667418718
v 0.018247570305447117 -0.15286243098298735 -0.22606512564830344
v 0.09609474581777232 0.7178331942226578 -0.1879344881962028
vt 0.4296875 0.625
vt 0.4296875 0.84375
vt 0.0859375 0.84375
vt 0.0859375 0.625
vn -0.9952465414778341 0.08707278979269384 0.04361938736533539
usemtl m_3dd4bacd-22b7-821c-3447-e91d62f94f5c
f 13/13/4 14/14/4 16/15/4 15/16/4
o plane_onesided
v 1.0084701163404373 -0.12269959714412865 1.2022066129369593
v 0.8946943032701828 0.741513502912905 1.125945338032759
v 1.0241122637830105 -0.2415135029129049 -0.1675610969391908
v 0.910336450712756 0.6226995971441287 -0.243822371843391
vt 0.0625 0.5546875
vt 0.40625 0.5546875
vt 0.40625 0.3359375
vt 0.0625 0.3359375
vn 0.9914448613738105 0.13052619222005155 1.578598363138895e-16
usemtl m_3dd4bacd-22b7-821c-3447-e91d62f94f5c
f 20/17/5 18/18/5 17/19/5 19/20/5
o plane_onesided
v 1.1653142545901736 -0.15667926139390065 0.02260863857444955
v 1.1271836171380731 0.7166559190212376 0.060775602519118746
v -0.2083770500848799 -0.2166559190212376 0.0226086385744496
v -0.24650768753698032 0.6566792613939006 0.060775602519118795
vt 0.0625 0.5546875
vt 0.40625 0.5546875
vt 0.40625 0.3359375
vt 0.0625 0.3359375
vn -0.001902650954127278 0.043577871373829326 -0.9990482215818577
usemtl m_3dd4bacd-22b7-821c-3447-e91d62f94f5c
f 24/21/6 22/22/6 21/23/6 23/24/6
o plane_onesided
v 1.1765584995949376 -0.12642822753075017 1.0064288776980685
v 1.1002972246907368 0.7452421332995272 1.0064288776980699
v -0.1814906576375434 -0.2452421332995271 0.8269553633954984
v -0.2577519325417443 0.6264282275307502 0.8269553633954997
vt 0.4140625 0.6328125
vt 0.4140625 0.8515625
vt 0.0703125 0.8515625
vt 0.0703125 0.6328125
vn -0.13002950065171887 -0.011376107230963703 0.9914448613738105
usemtl m_3dd4bacd-22b7-821c-3447-e91d62f94f5c
f 25/25/7 26/26/7 28/27/7 27/28/7
o plane_doublesided
v -0.3582604765584092 -0.43279597632497324 0.014829155135008043
v 0.10786354235173828 1.1175681317087904 -0.12561489605879467
v 0.8285246872567473 -0.6918294171460946 1.0942121508712774
v 1.2946487061668948 0.858534690887669 0.9537680996774749
v -0.3582604765584092 -0.43279597632497324 0.014829155135008043
v 0.10786354235173828 1.1175681317087904 -0.12561489605879467
v 0.8285246872567473 -0.6918294171460946 1.0942121508712774
v 1.2946487061668948 0.858534690887669 0.9537680996774749
vt 0.4765625 0.421875
vt 0.8828125 0.421875
vt 0.8828125 0.015625
vt 0.4765625 0.015625
vt 0.8828125 0.015625
vt 0.8828125 0.421875
vt 0.4765625 0.421875
vt 0.4765625 0.015625
vn -0.6199505607906778 0.25365330413018333 0.7425101369538094
vn 0.6199505607906778 -0.25365330413018333 -0.7425101369538094
usemtl m_3dd4bacd-22b7-821c-3447-e91d62f94f5c
f 32/29/8 30/30/8 29/31/8 31/32/8
f 33/33/9 34/34/9 36/35/9 35/36/9
o plane_doublesided
v 0.1830041510616532 -0.3511008448548226 -0.5522620647423965
v -0.6853060159780683 0.337599294991758 0.6361631837232996
v 1.5564553461392778 0.06667552518840147 0.209131210361444
v 0.6881451790995563 0.7553756650349821 1.39755645882714
v 0.1830041510616532 -0.3511008448548226 -0.5522620647423965
v -0.6853060159780683 0.337599294991758 0.6361631837232996
v 1.5564553461392778 0.06667552518840147 0.209131210361444
v 0.6881451790995563 0.7553756650349821 1.39755645882714
vt 0.4765625 0.03125
vt 0.8828125 0.03125
vt 0.8828125 0.4375
vt 0.4765625 0.4375
vt 0.8828125 0.4296875
vt 0.8828125 0.0234375
vt 0.4765625 0.0234375
vt 0.4765625 0.4296875
vn -0.010556466242100188 -0.8684949963186629 0.4955855147095455
vn 0.010556466242100188 0.8684949963186629 -0.4955855147095455
usemtl m_3dd4bacd-22b7-821c-3447-e91d62f94f5c
f 40/37/10 38/38/10 37/39/10 39/40/10
f 41/41/11 42/42/11 44/43/11 43/44/11
o plane_doublesided
v 1.7180483010825818 -0.027170168532897276 0.20319126291569523
v 0.5803160624660959 1.0543322162223685 -0.2169788752205034
v 0.8145174867942286 -0.4838464063022768 1.4742946739284386
v -0.32321475182225723 0.597655978452989 1.05412453579224
v 1.7180483010825818 -0.027170168532897276 0.20319126291569523
v 0.5803160624660959 1.0543322162223685 -0.2169788752205034
v 0.8145174867942286 -0.4838464063022768 1.4742946739284386
v -0.32321475182225723 0.597655978452989 1.05412453579224
vt 0.4765625 0.015625
vt 0.8828125 0.015625
vt 0.8828125 0.421875
vt 0.4765625 0.421875
vt 0.8828125 0.421875
vt 0.8828125 0.015625
vt 0.4765625 0.015625
vt 0.4765625 0.421875
vn -0.44793170267408483 -0.6914317619406123 -0.5668150565388996
vn 0.44793170267408483 0.6914317619406123 0.5668150565388996
usemtl m_3dd4bacd-22b7-821c-3447-e91d62f94f5c
f 48/45/12 46/46/12 45/47/12 47/48/12
f 49/49/13 50/50/13 52/51/13 51/52/13