# Made in Blockbench 4.12.2
mtllib leaves_slab_extended_parent.mtl

o doubleface
v 1.219430381293456 0.5943145069841942 0.9247913480199892
v -0.15459725009105468 0.5643193713795194 0.8826800664919943
v 1.282501827489622 -2.279973961557025 0.9141709767598929
v -0.09152580389488846 -2.3099690971616997 0.8720596952318979
v 1.219430381293456 0.5943145069841942 0.9247913480199892
v -0.15459725009105468 0.5643193713795194 0.8826800664919943
v 1.282501827489622 -2.279973961557025 0.9141709767598929
v -0.09152580389488846 -2.3099690971616997 0.8720596952318979
vt 0.609375 0.47916666666666663
vt 0.609375 0.9583333333333334
vt 0.3802083333333333 0.9583333333333334
vt 0.3802083333333333 0.47916666666666663
vt 0.3802083333333333 0.9583333333333334
vt 0.609375 0.9583333333333334
vt 0.609375 0.47916666666666663
vt 0.3802083333333333 0.47916666666666663
vn 0.030538222650508172 0.0043633082672768515 -0.9995240759973284
vn -0.030538222650508172 -0.0043633082672768515 0.9995240759973284
usemtl m_8d649761-3c17-36ca-5d37-cf1956a7b9c6
f 4/1/1 2/2/1 1/3/1 3/4/1
f 5/5/2 6/6/2 8/7/2 7/8/2
o doubleface
v 1.2124831517068015 0.5655683277158623 0.03140762598209723
v -0.16230742825733607 0.5895597260852425 0.03088413180741434
v 1.1623073782773217 -2.3083097260852417 0.09411586819258488
v -0.21248320168681595 -2.2843183277158614 0.09359237401790199
v 1.2124831517068015 0.5655683277158623 0.03140762598209723
v -0.16230742825733607 0.5895597260852425 0.03088413180741434
v 1.1623073782773217 -2.3083097260852417 0.09411586819258488
v -0.21248320168681595 -2.2843183277158614 0.09359237401790199
vt 0.75 0.953125
vt 0.9791666666666666 0.953125
vt 0.9791666666666666 0.47395833333333337
vt 0.75 0.47395833333333337
vt 0.9791666666666666 0.47395833333333337
vt 0.9791666666666666 0.953125
vt 0.75 0.953125
vt 0.75 0.47395833333333337
vn 3.803923322165394e-16 0.021814885034545716 0.9997620270799095
vn -3.803923322165394e-16 -0.021814885034545716 -0.9997620270799095
usemtl m_8d649761-3c17-36ca-5d37-cf1956a7b9c6
f 9/9/3 10/10/3 12/11/3 11/12/3
f 16/13/4 14/14/4 13/15/4 15/16/4
o doubleface
v 0.07010809392074185 0.5786331543737566 1.1863943214226231
v -0.007825938375121827 0.5769326734809817 -0.1863942256503921
v 0.13282588839510656 -2.2956826734809805 1.1863942256503917
v 0.05489185609924289 -2.2973831543737555 -0.18639432142262358
v 0.07010809392074185 0.5786331543737566 1.1863943214226231
v -0.007825938375121827 0.5769326734809817 -0.1863942256503921
v 0.13282588839510656 -2.2956826734809805 1.1863942256503917
v 0.05489185609924289 -2.2973831543737555 -0.18639432142262358
vt 0.609375 0.47395833333333337
vt 0.609375 0.953125
vt 0.3802083333333333 0.953125
vt 0.3802083333333333 0.47395833333333337
vt 0.3802083333333333 0.953125
vt 0.609375 0.953125
vt 0.609375 0.47395833333333337
vt 0.3802083333333333 0.47395833333333337
vn 0.998154080376112 0.021779801401676725 -0.05669278683767498
vn -0.998154080376112 -0.021779801401676725 0.05669278683767498
usemtl m_8d649761-3c17-36ca-5d37-cf1956a7b9c6
f 20/17/5 18/18/5 17/19/5 19/20/5
f 21/21/6 22/22/6 24/23/6 23/24/6
o doubleface
v 0.9361608374220585 0.6701846809860912 1.1890852142734714
v 1.032075988820231 0.6701847266895011 -0.1825653548337859
v 0.8485764840083825 -2.2034743924653895 1.1829606239127717
v 0.944491635406555 -2.2034743467619795 -0.18868994519448568
v 0.9361608374220585 0.6701846809860912 1.1890852142734714
v 1.032075988820231 0.6701847266895011 -0.1825653548337859
v 0.8485764840083825 -2.2034743924653895 1.1829606239127717
v 0.944491635406555 -2.2034743467619795 -0.18868994519448568
vt 0.7552083333333334 0.9583333333333334
vt 0.984375 0.9583333333333334
vt 0.984375 0.47916666666666663
vt 0.7552083333333334 0.47916666666666663
vt 0.984375 0.47916666666666663
vt 0.984375 0.9583333333333334
vt 0.7552083333333334 0.9583333333333334
vt 0.7552083333333334 0.47916666666666663
vn -0.9970987772458176 0.03053851553301712 -0.06972393766802909
vn 0.9970987772458176 -0.03053851553301712 0.06972393766802909
usemtl m_8d649761-3c17-36ca-5d37-cf1956a7b9c6
f 25/25/7 26/26/7 28/27/7 27/28/7
f 32/29/8 30/30/8 29/31/8 31/32/8
o doubleface
v -0.31414374744269186 0.7031539562470355 -0.06594877236162466
v -0.5061970232482278 -0.3730865408589851 0.39770862447503547
v 1.5336152917809887 0.7031538267425996 0.6994181546525784
v 1.3415620159754527 -0.37308667036342086 1.1630755514892384
v -0.31414374744269186 0.7031539562470355 -0.06594877236162466
v -0.5061970232482278 -0.3730865408589851 0.39770862447503547
v 1.5336152917809887 0.7031538267425996 0.6994181546525784
v 1.3415620159754527 -0.37308667036342086 1.1630755514892384
vt 0.6666666666666666 0.02604166666666663
vt 1 0.02604166666666663
vt 1 0.22395833333333337
vt 0.6666666666666666 0.22395833333333337
vt 1 0.22395833333333337
vt 1 0.02604166666666663
vt 0.6666666666666666 0.02604166666666663
vt 0.6666666666666666 0.22395833333333337
vn 0.3468289776642458 -0.42261826174069667 -0.8373192133802058
vn -0.3468289776642458 0.42261826174069667 0.8373192133802058
usemtl m_8d649761-3c17-36ca-5d37-cf1956a7b9c6
f 36/33/9 34/34/9 33/35/9 35/36/9
f 37/37/10 38/38/10 40/39/10 39/40/10
o doubleface
v 1.182472616791848 0.41535287557125655 -0.2708071223157923
v -0.1912211778736156 0.41007372752962606 -0.21112053174844803
v 1.242337647394804 0.35287640642678536 1.1014675837522558
v -0.1313561472706598 0.3475972583851549 1.1611541743195999
v 1.182472616791848 0.41535287557125655 -0.2708071223157923
v -0.1912211778736156 0.41007372752962606 -0.21112053174844803
v 1.242337647394804 0.35287640642678536 1.1014675837522558
v -0.1313561472706598 0.3475972583851549 1.1611541743195999
vt 0.057291666666666664 0.5625
vt 0.2864583333333333 0.5625
vt 0.2864583333333333 0.33333333333333337
vt 0.057291666666666664 0.33333333333333337
vt 0.2864583333333333 0.33333333333333337
vt 0.2864583333333333 0.5625
vt 0.057291666666666664 0.5625
vt 0.057291666666666664 0.33333333333333337
vn 0.0018594030509481068 -0.998959808461726 -0.04556142774766975
vn -0.0018594030509481068 0.998959808461726 0.04556142774766975
usemtl m_8d649761-3c17-36ca-5d37-cf1956a7b9c6
f 44/41/11 42/42/11 41/43/11 43/44/11
f 45/45/12 46/46/12 48/47/12 47/48/12
o doubleface
v 1.3282530178249123 0.7868771821910825 0.03143029174258832
v 0.8799987370847462 -0.5725844983638906 -0.41682414370759724
v 0.09081610903709458 0.7868770688746987 1.2688671171076804
v -0.3574381717030715 -0.5725846116802743 0.8206126816574949
v 1.3282530178249123 0.7868771821910825 0.03143029174258832
v 0.8799987370847462 -0.5725844983638906 -0.41682414370759724
v 0.09081610903709458 0.7868770688746987 1.2688671171076804
v -0.3574381717030715 -0.5725846116802743 0.8206126816574949
vt 0.6979166666666666 0
vt 0.9895833333333334 0
vt 0.9895833333333334 0.25
vt 0.6979166666666666 0.25
vt 0.9895833333333334 0.25
vt 0.9895833333333334 0
vt 0.6979166666666666 0
vt 0.6979166666666666 0.25
vn 0.6408563798041945 -0.42261826174069705 0.6408563843073841
vn -0.6408563798041945 0.42261826174069705 -0.6408563843073841
usemtl m_8d649761-3c17-36ca-5d37-cf1956a7b9c6
f 52/49/13 50/50/13 49/51/13 51/52/13
f 53/53/14 54/54/14 56/55/14 55/56/14