# Made in Blockbench 4.12.2
mtllib leaves_extended_parent_2.mtl

o diagonal_4
v 1.126009244636883 1.284791829523748 -0.08070478080327184
v 0.2691545727064243 -0.013517337505777438 -0.4246819610028401
v -0.016355466674897956 -0.23613674665915663 1.1267855825122273
v 0.8404992052555605 1.062172420370369 1.4707627627117952
v 0.8404992052555605 1.062172420370369 1.4707627627117952
v -0.016355466674897956 -0.23613674665915663 1.1267855825122273
v 0.2691545727064243 -0.013517337505777438 -0.4246819610028401
v 1.126009244636883 1.284791829523748 -0.08070478080327184
vt 0.35117345008215994 0.4687961869038386
vt 0.06280159735083472 0.4687961869038385
vt 0.06280121451104113 0.18042539871851382
vt 0.35117345008216 0.18042433417251313
vt 0.3511735995126956 0.18042380190218443
vt 0.06280136393961173 0.18042380190218443
vt 0.06280068223874798 0.46879459008695734
vt 0.3511725349681083 0.4687956546315447
vn -0.8237809197710302 0.5624585353155885 -0.07089000121201003
vn 0.8237809197710303 -0.5624585353155883 0.07089000121201003
usemtl m_b6d32acf-10f4-193e-6ce4-171515aefb96
f 1/1/1 2/2/1 3/3/1 4/4/1
f 5/5/2 6/6/2 7/7/2 8/8/2
o west
v -0.18457923703425405 1.283926021571909 0.11875335757159808
v -0.3572873242546546 -1.4558062896443278 0.21459741383613795
v 1.132068232360348 -1.559546861962646 0.06937267987960194
v 1.3047763195807485 1.1801854492535913 -0.026471376384937996
v 1.132068232360348 -1.5595468619626465 0.069372679879602
v -0.3572873242546546 -1.4558062896443278 0.21459741383613795
v -0.18457923703425405 1.283926021571909 0.11875335757159813
v 1.3047763195807485 1.1801854492535915 -0.02647137638493794
vt 0.9173331079666095 0.4971945561388792
vt 0.9157541570115852 0
vt 0.6442421203978613 0
vt 0.6458210764719564 0.4971956874205816
vt 0.6442421203978613 0
vt 0.9157541570115852 0
vt 0.9173331079666095 0.4971945561388792
vt 0.6458210764719564 0.4971956874205816
vn 0.09897881983642784 0.028557422305865127 0.9946796805278736
vn -0.09897881983642784 -0.028557422305865117 -0.9946796805278736
usemtl m_b6d32acf-10f4-193e-6ce4-171515aefb96
f 9/9/3 10/10/3 11/11/3 12/12/3
f 13/13/4 14/14/4 15/15/4 16/16/4
o east
v 1.2921319238720945 -1.7085136135503562 1.0906540260491302
v -0.20459640297460369 -1.6219422357958653 0.9897912610761704
v -0.17170270861530246 1.1311643770694668 0.8299482708134535
v 1.3250256182313958 1.0445929993149752 0.930811035786413
v -0.17170270861530246 1.1311643770694668 0.8299482708134536
v -0.20459640297460369 -1.6219422357958657 0.9897912610761705
v 1.2921319238720947 -1.7085136135503562 1.0906540260491298
v 1.3250256182313958 1.0445929993149752 0.930811035786413
vt 0.4148707379961632 0.4523703275935137
vt 0.68685513960409 0.4523703275935137
vt 0.6889503118162295 0.9509644380859565
vt 0.4169659102083025 0.9509644380859565
vt 0.6889503118162295 0.9509644380859565
vt 0.68685513960409 0.4523703275935137
vt 0.4148707379961632 0.4523703275935137
vt 0.4169659102083025 0.9509644380859565
vn 0.06374611152118428 -0.058602695711178245 -0.996244024986505
vn -0.06374611152118406 0.058602695711178224 0.996244024986505
usemtl m_b6d32acf-10f4-193e-6ce4-171515aefb96
f 17/17/5 18/18/5 19/19/5 20/20/5
f 21/21/6 22/22/6 23/23/6 24/24/6
o bottom
v 1.2900547218152305 -0.06719310243700494 -0.29904992319591783
v 1.2349894284388019 0.025578567436629784 1.1970654569583759
v -0.2520924106608047 0.21052458694850784 1.130864447246703
v -0.19702711728437605 0.11775291707487334 -0.3652509329075909
vt 0.9801806007801507 0.9674679820907951
vt 0.9801806007801503 0.6959575753333734
vt 0.7086701940227287 0.6959575753333737
vt 0.708670194022729 0.9674679820907955
vn -0.12570762778147082 -0.9904406173540631 0.05678887050168977
usemtl m_b6d32acf-10f4-193e-6ce4-171515aefb96
f 25/25/7 26/26/7 27/27/7 28/28/7
o north
v 0.03514241155960185 1.4169662890369064 1.2538751523569611
v -0.12572694572846776 -1.5087354895515634 1.4788325647602334
v 0.07240516476804304 -1.6265933702547133 -0.0033459625253151716
v 0.23327452205611232 1.299108408333758 -0.22830337492858827
v 0.07240516476804304 -1.6265933702547133 -0.0033459625253155047
v -0.12572694572846776 -1.5087354895515632 1.4788325647602334
v 0.03514241155960185 1.4169662890369061 1.2538751523569611
v 0.2332745220561122 1.2991084083337583 -0.22830337492858838
vt 0.6408265835474448 0.5319273497470782
vt 0.6383563888136761 0
vt 0.909866470340604 0
vt 0.9123377293727284 0.5319277332747896
vt 0.909866470340604 0
vt 0.6383563888136761 0
vt 0.6408265835474448 0.5319273497470782
vt 0.9123377293727284 0.5319277332747896
vn 0.9897590298652305 -0.04397976824928266 0.13580442844391202
vn -0.9897590298652305 0.04397976824928264 -0.135804428443912
usemtl m_b6d32acf-10f4-193e-6ce4-171515aefb96
f 29/29/8 30/30/8 31/31/8 32/32/8
f 33/33/9 34/34/9 35/35/9 36/36/9
o top
v -0.07462766185399095 0.8435633589844153 -0.019683915596476732
v 1.1248570827090973 0.872798660990287 1.0886624403216745
v 1.0791937436153671 0.8686378503279305 -0.06542704802723244
v -0.02896432276026073 0.8477241696467716 1.13440557275243
vt 0.9372916265134569 0.9322916666666661
vt 0.7447916666666673 0.9322916666666662
vt 0.7447916666666671 0.7397917068198765
vt 0.9372916265134569 0.7397917068198765
vn -0.021835074603844845 0.999757830364157 -0.002740463938464687
usemtl m_b6d32acf-10f4-193e-6ce4-171515aefb96
f 38/37/10 39/38/10 37/39/10 40/40/10
o diagonal_2
v 0.7275897826438004 1.5024683909419516 0.010398500257426068
v 1.4500653569942743 0.09213751289809996 0.17508845563725786
v 0.2507444182533747 -0.41505838349103596 1.092971090337179
v -0.47173115609709915 0.9952724945528157 0.928281134957347
v -0.47173115609709915 0.9952724945528157 0.928281134957347
v 0.2507444182533747 -0.41505838349103596 1.092971090337179
v 1.4500653569942743 0.09213751289809996 0.17508845563725786
v 0.7275897826438004 1.5024683909419516 0.010398500257426068
vt 0.3464401055426541 0.46856531072336427
vt 0.3464404883824476 0.18019452253803936
vt 0.05806863565112234 0.18019452253803936
vt 0.05806825281132871 0.4685653107233644
vt 0.05829840529890525 0.4687954632109417
vt 0.0582987881386988 0.18042467502561677
vt 0.34667064087002414 0.18042467502561677
vt 0.3466702580302305 0.4687954632109417
vn -0.4771188319454042 -0.3390941122561173 -0.8107853003331332
vn 0.47711883194540405 0.3390941122561174 0.8107853003331332
usemtl m_b6d32acf-10f4-193e-6ce4-171515aefb96
f 41/41/11 42/42/11 43/43/11 44/44/11
f 45/45/12 46/46/12 47/47/12 48/48/12
o diagonal_3
v -0.42168129722169967 0.6391400111819006 -0.037198599733545015
v 0.7794418608533505 -0.40556304760772777 -0.10064622058265782
v 1.4674006870902099 0.3097115636544214 1.14563697612128
v 0.26627752901515933 1.3544146224440496 1.2090845969703925
v 0.26627752901515933 1.3544146224440496 1.2090845969703925
v 1.4674006870902099 0.3097115636544214 1.14563697612128
v 0.7794418608533505 -0.40556304760772777 -0.10064622058265782
v -0.42168129722169967 0.6391400111819006 -0.037198599733545015
vt 0.3531355147763948 0.46856531072336427
vt 0.3531358976161883 0.18019452253803914
vt 0.06476404488486304 0.18019452253803914
vt 0.0647636620450694 0.4685653107233644
vt 0.06499381453264595 0.4687954632109417
vt 0.0649941973724395 0.18042467502561654
vt 0.35336605010376476 0.18042467502561654
vt 0.3533656672639712 0.4687954632109417
vn -0.49509478199720003 -0.6069786921177023 0.6216574813787964
vn 0.4950947819972 0.6069786921177025 -0.6216574813787963
usemtl m_b6d32acf-10f4-193e-6ce4-171515aefb96
f 49/49/13 50/50/13 51/51/13 52/52/13
f 53/53/14 54/54/14 55/55/14 56/56/14
o south
v 0.9952604447273459 -1.5403279771784741 -0.31113226915383346
v 1.0094497813751033 -1.4705004388792655 1.1871743675599506
v 0.8819100469029585 1.272346530284396 1.1179353705969892
v 0.867720710255201 1.202518991985187 -0.38037126611679406
v 0.8819100469029586 1.272346530284396 1.1179353705969892
v 1.0094497813751033 -1.470500438879265 1.1871743675599502
v 0.995260444727346 -1.5403279771784741 -0.31113226915383346
v 0.867720710255201 1.2025189919851873 -0.38037126611679406
vt 0.93744090032893 0
vt 0.6659298675829181 3.3306690738754696e-16
vt 0.6555550532410787 0.4970607792865215
vt 0.9270649747297631 0.49706099125738346
vt 0.6555550532410787 0.4970607792865215
vt 0.6659298675829181 3.3306690738754696e-16
vt 0.93744090032893 0
vt 0.9270649747297631 0.49706099125738346
vn -0.9988668950810689 -0.04615325736209193 0.011610458473870613
vn 0.9988668950810689 0.04615325736209193 -0.011610458473870598
usemtl m_b6d32acf-10f4-193e-6ce4-171515aefb96
f 57/57/15 58/58/15 59/59/15 60/60/15
f 61/61/16 62/62/16 63/63/16 64/64/16
o bottom
v -0.2520924106608047 0.21052458694850784 1.130864447246703
v 1.2349894284388019 0.025578567436629784 1.1970654569583759
v 1.2900547218152305 -0.06719310243700494 -0.29904992319591783
v -0.19702711728437605 0.11775291707487334 -0.3652509329075909
vt 0.7143266604443372 0.719805918285539
vt 0.9858370672017589 0.7198059182855387
vt 0.9858370672017592 0.9913163250429606
vt 0.7143266604443376 0.9913163250429609
vn 0.1257076277814708 0.9904406173540631 -0.056788870501689785
usemtl m_b6d32acf-10f4-193e-6ce4-171515aefb96
f 65/65/17 66/66/17 67/67/17 68/68/17