# Made in Blockbench 4.12.2
mtllib leaves_vertical_slab_parent_3_4.mtl

o plane_onesided
v 1.163551904709808 1.1845687649412266 0.5204270215349097
v 1.163551904709804 -0.18519894493492317 0.6402661678129424
v -0.2101393999652464 1.1793414547981977 0.46067859319729354
v -0.21013939996525038 -0.19042625507795208 0.5805177394753263
vt 0.875 0.546875
vt 0.875 0.890625
vt 0.53125 0.890625
vt 0.53125 0.546875
vn 0.04361938736533522 -0.08707278979269596 -0.995246541477834
usemtl m_3dd4bacd-22b7-821c-3447-e91d62f94f5c
f 1/1/1 2/2/1 4/3/1 3/4/1
o plane_doublesided
v -0.21077928239034227 1.181277517225041 1.0278417408901013
v 1.1631606424406515 1.1857476903091548 0.9740448961127304
v -0.21077928239034693 -0.1890000487093808 0.9139804555608202
v 1.1631606424406469 -0.1845298756252669 0.8601836107834492
v -0.21077928239034227 1.181277517225041 1.0278417408901013
v 1.1631606424406515 1.1857476903091548 0.9740448961127304
v -0.21077928239034693 -0.1890000487093808 0.9139804555608202
v 1.1631606424406469 -0.1845298756252669 0.8601836107834492
vt 0.53125 0.890625
vt 0.875 0.890625
vt 0.875 0.546875
vt 0.53125 0.546875
vt 0.875 0.546875
vt 0.875 0.890625
vt 0.53125 0.890625
vt 0.53125 0.546875
vn 0.039259815759068804 -0.08274436538524199 0.9957971866115899
vn -0.039259815759068804 0.08274436538524199 -0.9957971866115899
usemtl m_3dd4bacd-22b7-821c-3447-e91d62f94f5c
f 8/5/2 6/6/2 5/7/2 7/8/2
f 9/9/3 10/10/3 12/11/3 11/12/3
o plane_onesided
v 1.1457710272530826 0.942393760254483 1.2240831942226569
v 1.1839016647051825 0.8645465847421578 0.3533875690170118
v -0.22661282768499164 0.9968580111844612 1.159112430982987
v -0.18848219023289164 0.919010835672136 0.288416805777342
vt 0.4296875 0.625
vt 0.4296875 0.84375
vt 0.0859375 0.84375
vt 0.0859375 0.625
vn 0.043619387365338415 0.995246541477834 -0.0870727897926936
usemtl m_3dd4bacd-22b7-821c-3447-e91d62f94f5c
f 13/13/4 14/14/4 16/15/4 15/16/4
o plane_onesided
v 1.2016589109002678 0.006635465149466516 1.1289495971441277
v 1.1253976359960673 0.12041127821972138 0.26473649708709424
v -0.16810879897588238 -0.009006682293102378 1.2477635029129046
v -0.24437007388008258 0.10476913077715248 0.38355040285587116
vt 0.0625 0.5546875
vt 0.40625 0.5546875
vt 0.40625 0.3359375
vt 0.0625 0.3359375
vn -2.969846590872295e-15 -0.9914448613738105 -0.13052619222005177
usemtl m_3dd4bacd-22b7-821c-3447-e91d62f94f5c
f 20/17/5 18/18/5 17/19/5 19/20/5
o plane_onesided
v 0.022060936537757623 -0.15020867310026598 1.1629292613939002
v 0.06022790048242664 -0.11207803564816554 0.28959408097876205
v 0.0220609365377621 1.2234826315747873 1.2229059190212372
v 0.060227900482431124 1.2616132690268875 0.3495707386060991
vt 0.0625 0.5546875
vt 0.40625 0.5546875
vt 0.40625 0.3359375
vt 0.0625 0.3359375
vn -0.9990482215818577 0.0019026509541304878 -0.04357787137382899
usemtl m_3dd4bacd-22b7-821c-3447-e91d62f94f5c
f 24/21/6 22/22/6 21/23/6 23/24/6
o plane_onesided
v 1.0058811756613764 -0.16145291810503326 1.1326782275307492
v 1.0058811756613777 -0.08519164320083217 0.26100786670047205
v 0.8264076613588106 1.1965962391274483 1.2514921332995264
v 0.8264076613588119 1.2728575140316494 0.3798217724692492
vt 0.4140625 0.6328125
vt 0.4140625 0.8515625
vt 0.0703125 0.8515625
vt 0.0703125 0.6328125
vn 0.9914448613738109 0.13002950065171565 0.0113761072309634
usemtl m_3dd4bacd-22b7-821c-3447-e91d62f94f5c
f 25/25/7 26/26/7 28/27/7 27/28/7
o plane_doublesided
v 0.014281453098320962 1.3733660580483162 1.439045976324973
v -0.1261625980954837 0.9072420391381697 -0.11131813170879068
v 1.0936644488345868 0.1865808942331567 1.6980794171460936
v 0.953220397640782 -0.2795431246769899 0.14771530911233
v 0.014281453098320962 1.3733660580483162 1.439045976324973
v -0.1261625980954837 0.9072420391381697 -0.11131813170879068
v 1.0936644488345868 0.1865808942331567 1.6980794171460936
v 0.953220397640782 -0.2795431246769899 0.14771530911233
vt 0.4765625 0.421875
vt 0.8828125 0.421875
vt 0.8828125 0.015625
vt 0.4765625 0.015625
vt 0.8828125 0.015625
vt 0.8828125 0.421875
vt 0.4765625 0.421875
vt 0.4765625 0.015625
vn 0.7425101369538111 0.6199505607906757 -0.25365330413018344
vn -0.7425101369538111 -0.6199505607906757 0.25365330413018344
usemtl m_3dd4bacd-22b7-821c-3447-e91d62f94f5c
f 32/29/8 30/30/8 29/31/8 31/32/8
f 33/33/9 34/34/9 36/35/9 35/36/9
o plane_doublesided
v -0.5528097667790852 0.8321014304282559 1.3573508448548224
v 0.6356154816866133 1.7004115974679739 0.6686507050082415
v 0.20858350832475075 -0.5413497646493706 0.939574474811598
v 1.3970087567904492 0.3269604023903473 0.250874334965017
v -0.5528097667790852 0.8321014304282559 1.3573508448548224
v 0.6356154816866133 1.7004115974679739 0.6686507050082415
v 0.20858350832475075 -0.5413497646493706 0.939574474811598
v 1.3970087567904492 0.3269604023903473 0.250874334965017
vt 0.4765625 0.03125
vt 0.8828125 0.03125
vt 0.8828125 0.4375
vt 0.4765625 0.4375
vt 0.8828125 0.4296875
vt 0.8828125 0.0234375
vt 0.4765625 0.0234375
vt 0.4765625 0.4296875
vn 0.4955855147095459 0.010556466242098496 0.8684949963186627
vn -0.4955855147095459 -0.010556466242098496 -0.8684949963186627
usemtl m_3dd4bacd-22b7-821c-3447-e91d62f94f5c
f 40/37/10 38/38/10 37/39/10 39/40/10
f 41/41/11 42/42/11 44/43/11 43/44/11
o plane_doublesided
v 0.20264356087900126 -0.7029427195926747 1.0334201685328965
v -0.21752657725719404 0.4347895190238126 -0.048082216222368634
v 1.4737469718917475 0.20058809469567418 1.4900964063022755
v 1.0535768337555522 1.3383203333121614 0.40859402154701036
v 0.20264356087900126 -0.7029427195926747 1.0334201685328965
v -0.21752657725719404 0.4347895190238126 -0.048082216222368634
v 1.4737469718917475 0.20058809469567418 1.4900964063022755
v 1.0535768337555522 1.3383203333121614 0.40859402154701036
vt 0.4765625 0.015625
vt 0.8828125 0.015625
vt 0.8828125 0.421875
vt 0.4765625 0.421875
vt 0.8828125 0.421875
vt 0.8828125 0.015625
vt 0.4765625 0.015625
vt 0.4765625 0.421875
vn -0.5668150565388979 0.4479317026740865 0.6914317619406125
vn 0.5668150565388979 -0.4479317026740865 -0.6914317619406125
usemtl m_3dd4bacd-22b7-821c-3447-e91d62f94f5c
f 48/45/12 46/46/12 45/47/12 47/48/12
f 49/49/13 50/50/13 52/51/13 51/52/13