# Made in Blockbench 4.8.1
mtllib maple_leaves_redish_vertical_slab.mtl

o cube
v -0.6325529628287769 -0.5908877281087583 0.5420765611736436
v 1.21072345274761 -0.9125774767572625 0.5331049310072558
v -0.2831449303769251 1.4270286216191566 -0.02497954924126844
v 1.560131485199462 1.1053388729706524 -0.03395117940765641
v 1.21072345274761 -0.9125774767572625 0.5331049310072558
v -0.6325529628287769 -0.5908877281087583 0.5420765611736436
v 1.560131485199462 1.1053388729706524 -0.03395117940765641
v -0.2831449303769251 1.4270286216191566 -0.02497954924126844
vt 0.727278774634009 0.9324324324324319
vt 0.49338400900900903 0.9324324324324319
vt 0.49338400900900903 0.6261261261261256
vt 0.727278774634009 0.6261261261261256
vt 0.49338400900900914 0.9324324324324325
vt 0.7272787746340091 0.9324324324324325
vt 0.7272787746340091 0.6261261261261262
vt 0.49338400900900914 0.6261261261261262
vn -0.05042995355062145 -0.2620852844320591 -0.9637261662261998
vn 0.05042995355062145 0.2620852844320591 0.9637261662261998
usemtl m_ac3d92fe-f5b1-a3a3-7d87-db428bb26680
f 3/4/1 4/3/1 2/2/1 1/1/1
f 7/8/2 8/7/2 6/6/2 5/5/2
o cube
v 1.2328495747468282 0.8090496919130241 1.308979898813499
v 1.2328495747468282 0.8090496919130241 1.308979898813499
v 1.144570793012413 -1.0435251265068153 0.0351379153429483
v 1.144570793012413 -1.0435251265068153 0.0351379153429483
v 0.07640574911451059 1.8111066799942606 -0.06818941530369216
v 0.07640574911451059 1.8111066799942606 -0.06818941530369216
v -0.01187303261990491 -0.041468138425579226 -1.342031398774243
v -0.01187303261990491 -0.041468138425579226 -1.342031398774243
vt 0.49001577421171194 0.6126126126126127
vt 0.747348117961712 0.6126126126126127
vt 0.747348117961712 0.936936936936937
vt 0.49001577421171194 0.936936936936937
vt 0.747348117961712 0.16216216216216195
vt 0.49001577421171194 0.16216216216216195
vt 0.49001577421171194 0.4864864864864863
vt 0.747348117961712 0.4864864864864863
vn 0.8263787075027386 0.29178693108336934 -0.4816208245446333
vn -0.8263787075027386 -0.29178693108336934 0.4816208245446333
usemtl m_ac3d92fe-f5b1-a3a3-7d87-db428bb26680
f 12/12/3 15/11/3 13/10/3 10/9/3
f 16/16/4 11/15/4 9/14/4 14/13/4
o cube
v 1.4356127343546716 0.5467298303100425 -0.656246292659675
v 0.0022873131173724026 0.9624099705267253 -0.8072040942611756
v 1.4356127343546716 0.5467298303100425 -0.656246292659675
v 0.0022873131173724026 0.9624099705267253 -0.8072040942611756
v -0.14062551464362616 1.0115914002609612 0.6851621847168279
v 1.292699906593673 0.5959112600442786 0.8361199863183284
v -0.14062551464362616 1.0115914002609612 0.6851621847168279
v 1.292699906593673 0.5959112600442786 0.8361199863183284
vt 0.07073479729729729 0.7342342342342343
vt 0.07073479729729729 0.9504504504504505
vt 0.25823479729729726 0.9504504504504505
vt 0.25823479729729726 0.7342342342342343
vn 0.27900948649445523 0.9602757030026406 -0.004927541870409775
usemtl m_ac3d92fe-f5b1-a3a3-7d87-db428bb26680
f 22/20/5 17/19/5 18/18/5 21/17/5
o cube
v 1.227084625984293 1.3197728301918317 0.3542901142742342
v 1.227084625984293 1.3197728301918317 0.3542901142742342
v 1.227084625984293 -0.15743879932648053 0.09381784777383884
v 1.227084625984293 -0.15743879932648053 0.09381784777383884
v -0.23735938469560713 1.2633963133889035 0.6740172290720534
v -0.23735938469560713 1.2633963133889035 0.6740172290720534
v -0.23735938469560713 -0.21381531612940874 0.4135449625716582
v -0.23735938469560713 -0.21381531612940874 0.4135449625716582
vt 0.08245354729729727 0.29729729729729704
vt 0.26995354729729726 0.29729729729729704
vt 0.26995354729729726 0.08108108108108081
vt 0.08245354729729727 0.08108108108108081
vn 0.2164396139381029 -0.16953202249987678 0.9614638770465723
usemtl m_ac3d92fe-f5b1-a3a3-7d87-db428bb26680
f 32/24/6 27/23/6 25/22/6 30/21/6
o cube
v 1.4768203800956625 1.1201035628175338 -0.26304937077897395
v 1.4768203800956625 1.1201035628175338 -0.26304937077897395
v 1.205775830261759 -0.3187978791598367 0.06267672931246882
v 1.205775830261759 -0.3187978791598367 0.06267672931246882
v 0.022470032877027646 1.4363279842976835 -0.07632180772364738
v 0.022470032877027646 1.4363279842976835 -0.07632180772364738
v -0.24857451695687616 -0.0025734576796869746 0.24940429236779538
v -0.24857451695687616 -0.0025734576796869746 0.24940429236779538
vt 0.08741554054054054 0.30855855855855885
vt 0.27491554054054057 0.30855855855855885
vt 0.27491554054054057 0.09234234234234262
vt 0.08741554054054054 0.09234234234234262
vn -0.16519338102205847 -0.18804816822055498 -0.9681678745421142
usemtl m_ac3d92fe-f5b1-a3a3-7d87-db428bb26680
f 36/28/7 39/27/7 37/26/7 34/25/7
o cube
v -0.1622502607933919 0.004687499999999956 0.782179165163797
v 1.3363220715793949 0.004687499999999956 0.7167500841157932
v -0.1622502607933919 0.004687499999999956 0.782179165163797
v 1.3363220715793949 0.004687499999999956 0.7167500841157932
v 1.270892990531391 0.004687499999999956 -0.7818222482569936
v -0.2276793418413957 0.004687499999999956 -0.7163931672089898
v 1.270892990531391 0.004687499999999956 -0.7818222482569936
v -0.2276793418413957 0.004687499999999956 -0.7163931672089898
vt 0.06999577702702703 0.41891891891891864
vt 0.06999577702702703 0.6351351351351349
vt 0.25749577702702703 0.6351351351351349
vt 0.25749577702702703 0.41891891891891864
vn 0 -1 0
usemtl m_ac3d92fe-f5b1-a3a3-7d87-db428bb26680
f 47/32/8 44/31/8 43/30/8 48/29/8
o cube
v 1.147025760561115 1.7357488562497267 0.9256251488480642
v -0.5229871371087185 0.3936615934339449 1.347788040967401
v 1.6222900949361443 0.4808483566012026 -1.1837227476481358
v -0.04772280273368912 -0.8612389062145791 -0.7615598555287988
v -0.5229871371087185 0.3936615934339449 1.347788040967401
v 1.147025760561115 1.7357488562497267 0.9256251488480642
v -0.04772280273368912 -0.8612389062145791 -0.7615598555287988
v 1.6222900949361443 0.4808483566012026 -1.1837227476481358
vt 0.7405914393299544 0.4864864864864862
vt 0.4715404237049544 0.4864864864864862
vt 0.4715404237049544 0.12612612612612584
vt 0.7405914393299544 0.12612612612612584
vt 0.47154042370495497 0.9369369369369371
vt 0.740591439329955 0.9369369369369371
vt 0.740591439329955 0.5765765765765768
vt 0.47154042370495497 0.5765765765765768
vn -0.6156094363880217 0.6085200222265478 -0.5007278745780229
vn 0.6156094363880217 -0.6085200222265478 0.5007278745780229
usemtl m_ac3d92fe-f5b1-a3a3-7d87-db428bb26680
f 51/36/9 52/35/9 50/34/9 49/33/9
f 55/40/10 56/39/10 54/38/10 53/37/10
o cube
v 0.7298710581451067 1.270051492943768 -0.5384889699773363
v 1.079850789425646 -0.18112423388795518 -0.6854692324183209
v 0.8979056035079809 1.1600191670192013 0.948002630677145
v 1.2478853347885202 -0.2911565598125221 0.8010223682361604
v 1.079850789425646 -0.18112423388795518 -0.6854692324183209
v 0.7298710581451067 1.270051492943768 -0.5384889699773363
v 1.2478853347885202 -0.2911565598125221 0.8010223682361604
v 0.8979056035079809 1.1600191670192013 0.948002630677145
vt 0.06820101351351351 0.9459459459459459
vt 0.2557010135135135 0.9459459459459459
vt 0.2557010135135135 0.7297297297297298
vt 0.06820101351351351 0.7297297297297298
vn 0.9659258262890683 0.2421954188997427 -0.09126158650691321
usemtl m_ac3d92fe-f5b1-a3a3-7d87-db428bb26680
f 59/44/11 60/43/11 58/42/11 57/41/11
o cube
v -0.06770089461465995 -0.22725046508519253 0.7612604761637263
v 0.13566030116619587 1.2586695678628284 0.7350711704391952
v 0.04585322998329211 -0.2691426021220402 -0.7338483859735025
v 0.24921442576414798 1.2167774308259807 -0.7600376916980336
v 0.13566030116619587 1.2586695678628284 0.7350711704391952
v -0.06770089461465995 -0.22725046508519253 0.7612604761637263
v 0.24921442576414798 1.2167774308259807 -0.7600376916980336
v 0.04585322998329211 -0.2691426021220402 -0.7338483859735025
vt 0.2519355292792793 0.9234234234234233
vt 0.06443552927927927 0.9234234234234233
vt 0.06443552927927927 0.7072072072072071
vt 0.2519355292792793 0.7072072072072071
vn -0.9878708158542848 0.13381032104062413 -0.07877848162026727
usemtl m_ac3d92fe-f5b1-a3a3-7d87-db428bb26680
f 71/48/12 72/47/12 70/46/12 69/45/12