# Made in Blockbench 4.12.2
mtllib mist_2.mtl

o cube
v 1.208133905781297 -0.2462208346264102 0.0037450114475945373
v 0.9576611008034539 0.3306803836606432 1.5099203834924524
v 0.028524157093481772 1.381676271589026 0.9534820205738905
v 0.19399696207132483 0.8047750533019727 -0.4676933514709677
v -0.1012394404175968 1.3482256624454996 0.1578943345514613
v 1.3378975032923752 -0.2127702254828835 0.8843326974700236
v 0.4930926289484677 0.9411783276248348 1.5717012020331715
v 0.7435654339263109 0.19427710933778125 -0.5294741700116865
v 0.6183290314373894 0.5677277184813079 0.5211135160107424
v 1.2081339057812968 -0.2462208346264102 0.0037450114475944263
v 0.9576611008034539 0.3306803836606432 1.5099203834924524
v 0.028524157093481772 1.381676271589026 0.9534820205738905
v 0.19399696207132483 0.8047750533019727 -0.4676933514709677
v -0.1012394404175968 1.3482256624454996 0.15789433455146124
v 1.3378975032923752 -0.2127702254828835 0.8843326974700236
v 0.4930926289484677 0.9411783276248348 1.5717012020331715
v 0.7435654339263109 0.19427710933778125 -0.5294741700116865
v 0.6183290314373894 0.5677277184813079 0.5211135160107423
vt 0 0.713808726047295
vt 0.5010719655510936 0.4804676913505759
vt 0.7405377113096099 1
vt 0.3335752763060216 1
vt 1 0.6451011345373335
vt 0.7405377113096099 1
vt 0.5010719655510936 0.4804676913505759
vt 1 0.25641924506641456
vt 1 0.25641924506641456
vt 0.5010719655510936 0.4804676913505759
vt 0.28025736926023004 0
vt 0.6929995575276262 0.0001861155374582868
vt 0.5010719655510936 0.4804676913505759
vt 0 0.713808726047295
vt 0 0.34733380604590947
vt 0.28025736926023004 0
vt 0.7405377113096099 1
vt 0.5010719655510936 0.4804676913505759
vt 0 0.713808726047295
vt 0.3335752763060216 1
vt 0.5010719655510936 0.4804676913505759
vt 0.7405377113096099 1
vt 1 0.6451011345373335
vt 1 0.25641924506641456
vt 0.28025736926023004 0
vt 0.5010719655510936 0.4804676913505759
vt 1 0.25641924506641456
vt 0.6929995575276262 0.0001861155374582868
vt 0 0.34733380604590947
vt 0 0.713808726047295
vt 0.5010719655510936 0.4804676913505759
vt 0.28025736926023004 0
vn 0.7591056471153698 0.6366416916743372 -0.13581595244887218
vn 0.7634443831889752 0.6206199667611518 -0.1788393989997515
vn 0.7591056471153697 0.636641691674337 -0.13581595244887207
vn 0.7837117951119867 0.6088251693286053 -0.1229948592191664
vn -0.7591056471153695 -0.6366416916743373 0.13581595244887215
vn -0.7634443831889751 -0.6206199667611517 0.17883939899975154
vn -0.7591056471153698 -0.636641691674337 0.13581595244887218
vn -0.7837117951119869 -0.6088251693286054 0.12299485921916635
usemtl m_dd175f9c-b427-0843-1414-74d520817d0e
f 16/1/1 18/2/1 14/3/1 12/4/1
f 13/5/2 14/6/2 18/7/2 17/8/2
f 17/9/3 18/10/3 15/11/3 10/12/3
f 18/13/4 16/14/4 11/15/4 15/16/4
f 5/17/5 9/18/5 7/19/5 3/20/5
f 9/21/6 5/22/6 4/23/6 8/24/6
f 6/25/7 9/26/7 8/27/7 1/28/7
f 2/29/8 7/30/8 9/31/8 6/32/8
o cube
v 0.9127665691100963 0.08329351200820234 1.4876701394782361
v -0.4558035362172297 0.5002891970396354 0.7020198619892387
v 0.36584135709305515 1.060144714342849 -0.43330957803196013
v 1.6680999789556883 0.6072264770634564 0.258733235007324
v 1.164965211501479 0.9749877007775991 -0.3621291804657363
v 0.030657554096478412 0.1684505255734523 1.398092374727273
v -0.36914666864264467 0.8572531175893575 0.025694628914443407
v 1.5647694342406018 0.2861851087616939 1.0102685653470935
v 0.5978113827989787 0.5717191131755257 0.5179815971307686
v 0.9127665691100965 0.08329351200820229 1.4876701394782361
v -0.4558035362172297 0.5002891970396354 0.7020198619892387
v 0.36584135709305515 1.0601447143428488 -0.43330957803196
v 1.6680999789556883 0.6072264770634564 0.258733235007324
v 1.164965211501479 0.9749877007775991 -0.3621291804657363
v 0.030657554096478412 0.16845052557345225 1.3980923747272729
v -0.36914666864264467 0.8572531175893575 0.025694628914443407
v 1.5647694342406018 0.2861851087616939 1.0102685653470935
v 0.5978113827989788 0.5717191131755256 0.5179815971307686
vt 0 0.713808726047295
vt 0.5010719655510936 0.4804676913505759
vt 0.7405377113096099 1
vt 0.3335752763060216 1
vt 1 0.6451011345373335
vt 0.7405377113096099 1
vt 0.5010719655510936 0.4804676913505759
vt 1 0.25641924506641456
vt 1 0.25641924506641456
vt 0.5010719655510936 0.4804676913505759
vt 0.28025736926023004 0
vt 0.6929995575276262 0.0001861155374582868
vt 0.5010719655510936 0.4804676913505759
vt 0 0.713808726047295
vt 0 0.34733380604590947
vt 0.28025736926023004 0
vt 0.7405377113096099 1
vt 0.5010719655510936 0.4804676913505759
vt 0 0.713808726047295
vt 0.3335752763060216 1
vt 0.5010719655510936 0.4804676913505759
vt 0.7405377113096099 1
vt 1 0.6451011345373335
vt 1 0.25641924506641456
vt 0.28025736926023004 0
vt 0.5010719655510936 0.4804676913505759
vt 1 0.25641924506641456
vt 0.6929995575276262 0.0001861155374582868
vt 0 0.34733380604590947
vt 0 0.713808726047295
vt 0.5010719655510936 0.4804676913505759
vt 0.28025736926023004 0
vn 0.04192418387031463 0.8978052317780849 0.43839266485504436
vn 0.08161118400331437 0.8851182468250849 0.4581542358015098
vn 0.041924183870314546 0.897805231778085 0.4383926648550444
vn 0.022035823031361815 0.8829939084623342 0.4688669108838261
vn -0.04192418387031469 -0.8978052317780851 -0.43839266485504413
vn -0.0816111840033144 -0.8851182468250849 -0.45815423580150993
vn -0.04192418387031463 -0.8978052317780849 -0.43839266485504436
vn -0.02203582303136173 -0.8829939084623342 -0.46886691088382604
usemtl m_dd175f9c-b427-0843-1414-74d520817d0e
f 34/33/9 36/34/9 32/35/9 30/36/9
f 31/37/10 32/38/10 36/39/10 35/40/10
f 35/41/11 36/42/11 33/43/11 28/44/11
f 36/45/12 34/46/12 29/47/12 33/48/12
f 23/49/13 27/50/13 25/51/13 21/52/13
f 27/53/14 23/54/14 22/55/14 26/56/14
f 24/57/15 27/58/15 26/59/15 19/60/15
f 20/61/16 25/62/16 27/63/16 24/64/16
o cube
v 1.3046098663931263 1.1451445035807557 1.1914889270507332
v -0.29715428788465637 0.8868947359596286 1.013234769614126
v -0.0231668806692934 0.010513400791465566 -0.18442884108498803
v 1.4973041455780862 0.1821320682899159 0.012168702804704667
v 0.7551249953271153 -0.10439683962917656 -0.3632435302077628
v 0.44422238048058105 1.2583427427131788 1.392266764492605
v -0.5105581745274386 0.44514478709869226 0.42022192151312676
v 1.7099055503351348 0.7088011159853101 0.6088013127717156
v 0.5996736879038482 0.5769729515420013 0.5145116171424212
v 1.3046098663931263 1.1451445035807555 1.1914889270507332
v -0.29715428788465637 0.8868947359596286 1.013234769614126
v -0.0231668806692934 0.010513400791465566 -0.1844288410849878
v 1.4973041455780862 0.1821320682899159 0.012168702804704667
v 0.7551249953271153 -0.10439683962917656 -0.3632435302077628
v 0.44422238048058105 1.2583427427131786 1.392266764492605
v -0.5105581745274386 0.44514478709869226 0.42022192151312676
v 1.7099055503351348 0.7088011159853101 0.6088013127717156
v 0.5996736879038483 0.5769729515420012 0.5145116171424212
vt 0 0.713808726047295
vt 0.5010719655510936 0.4804676913505759
vt 0.7405377113096099 1
vt 0.3335752763060216 1
vt 1 0.6451011345373335
vt 0.7405377113096099 1
vt 0.5010719655510936 0.4804676913505759
vt 1 0.25641924506641456
vt 1 0.25641924506641456
vt 0.5010719655510936 0.4804676913505759
vt 0.28025736926023004 0
vt 0.6929995575276262 0.0001861155374582868
vt 0.5010719655510936 0.4804676913505759
vt 0 0.713808726047295
vt 0 0.34733380604590947
vt 0.28025736926023004 0
vt 0.7405377113096099 1
vt 0.5010719655510936 0.4804676913505759
vt 0 0.713808726047295
vt 0.3335752763060216 1
vt 0.5010719655510936 0.4804676913505759
vt 0.7405377113096099 1
vt 1 0.6451011345373335
vt 1 0.25641924506641456
vt 0.28025736926023004 0
vt 0.5010719655510936 0.4804676913505759
vt 1 0.25641924506641456
vt 0.6929995575276262 0.0001861155374582868
vt 0 0.34733380604590947
vt 0 0.713808726047295
vt 0.5010719655510936 0.4804676913505759
vt 0.28025736926023004 0
vn -0.04088279752964901 0.7857508622425566 -0.6171905535174924
vn 0.0047792614679111 0.7903321178203547 -0.612660021709769
vn -0.040882797529649094 0.7857508622425567 -0.6171905535174923
vn -0.046293580215666555 0.8089991131172408 -0.5859840777754406
vn 0.04088279752964908 -0.7857508622425565 0.6171905535174926
vn -0.004779261467911182 -0.7903321178203546 0.6126600217097689
vn 0.04088279752964898 -0.7857508622425566 0.6171905535174923
vn 0.04629358021566664 -0.8089991131172407 0.5859840777754406
usemtl m_dd175f9c-b427-0843-1414-74d520817d0e
f 52/65/17 54/66/17 50/67/17 48/68/17
f 49/69/18 50/70/18 54/71/18 53/72/18
f 53/73/19 54/74/19 51/75/19 46/76/19
f 54/77/20 52/78/20 47/79/20 51/80/20
f 41/81/21 45/82/21 43/83/21 39/84/21
f 45/85/22 41/86/22 40/87/22 44/88/22
f 42/89/23 45/90/23 44/91/23 37/92/23
f 38/93/24 43/94/24 45/95/24 42/96/24