# Made in Blockbench 4.12.2
mtllib mist_3.mtl

o cube
v 1.208133905781297 1.4337208346264103 0.0037450114475945373
v 0.9576611008034539 0.8568196163393569 1.5099203834924524
v 0.028524157093481772 -0.19417627158902617 0.9534820205738905
v 0.19399696207132483 0.38272494669802726 -0.4676933514709677
v -0.1012394404175968 -0.16072566244549946 0.1578943345514613
v 1.3378975032923752 1.4002702254828834 0.8843326974700236
v 0.4930926289484677 0.24632167237516522 1.5717012020331715
v 0.7435654339263109 0.9932228906622187 -0.5294741700116865
v 0.6183290314373894 0.6197722815186921 0.5211135160107424
v 1.2081339057812968 1.4337208346264103 0.0037450114475944263
v 0.9576611008034539 0.8568196163393569 1.5099203834924524
v 0.028524157093481772 -0.19417627158902595 0.9534820205738905
v 0.19399696207132483 0.38272494669802726 -0.4676933514709677
v -0.1012394404175968 -0.16072566244549946 0.15789433455146124
v 1.3378975032923752 1.4002702254828834 0.8843326974700236
v 0.4930926289484677 0.24632167237516522 1.5717012020331715
v 0.7435654339263109 0.9932228906622187 -0.5294741700116865
v 0.6183290314373894 0.6197722815186921 0.5211135160107423
vt 0.7405377113096099 1
vt 0.5010719655510936 0.4804676913505759
vt 0 0.713808726047295
vt 0.3335752763060216 1
vt 0.5010719655510936 0.4804676913505759
vt 0.7405377113096099 1
vt 1 0.6451011345373335
vt 1 0.25641924506641456
vt 0.28025736926023004 0
vt 0.5010719655510936 0.4804676913505759
vt 1 0.25641924506641456
vt 0.6929995575276262 0.0001861155374582868
vt 0 0.34733380604590947
vt 0 0.713808726047295
vt 0.5010719655510936 0.4804676913505759
vt 0.28025736926023004 0
vt 0 0.713808726047295
vt 0.5010719655510936 0.4804676913505759
vt 0.7405377113096099 1
vt 0.3335752763060216 1
vt 1 0.6451011345373335
vt 0.7405377113096099 1
vt 0.5010719655510936 0.4804676913505759
vt 1 0.25641924506641456
vt 1 0.25641924506641456
vt 0.5010719655510936 0.4804676913505759
vt 0.28025736926023004 0
vt 0.6929995575276262 0.0001861155374582868
vt 0.5010719655510936 0.4804676913505759
vt 0 0.713808726047295
vt 0 0.34733380604590947
vt 0.28025736926023004 0
vn 0.7591056471153695 -0.6366416916743373 -0.13581595244887218
vn 0.7634443831889752 -0.6206199667611518 -0.17883939899975151
vn 0.7591056471153698 -0.6366416916743372 -0.1358159524488721
vn 0.7837117951119867 -0.6088251693286053 -0.12299485921916636
vn -0.7591056471153695 0.6366416916743373 0.13581595244887215
vn -0.7634443831889752 0.6206199667611518 0.17883939899975154
vn -0.7591056471153698 0.636641691674337 0.13581595244887212
vn -0.7837117951119869 0.6088251693286054 0.12299485921916635
usemtl m_dd175f9c-b427-0843-1414-74d520817d0e
f 14/1/1 18/2/1 16/3/1 12/4/1
f 18/5/2 14/6/2 13/7/2 17/8/2
f 15/9/3 18/10/3 17/11/3 10/12/3
f 11/13/4 16/14/4 18/15/4 15/16/4
f 7/17/5 9/18/5 5/19/5 3/20/5
f 4/21/6 5/22/6 9/23/6 8/24/6
f 8/25/7 9/26/7 6/27/7 1/28/7
f 9/29/8 7/30/8 2/31/8 6/32/8
o cube
v 0.9127665691100963 1.1042064879917977 1.4876701394782361
v -0.4558035362172297 0.6872108029603646 0.7020198619892387
v 0.36584135709305515 0.12735528565715087 -0.43330957803196013
v 1.6680999789556883 0.5802735229365436 0.258733235007324
v 1.164965211501479 0.21251229922240095 -0.3621291804657363
v 0.030657554096478412 1.0190494744265477 1.398092374727273
v -0.36914666864264467 0.3302468824106425 0.025694628914443407
v 1.5647694342406018 0.9013148912383061 1.0102685653470935
v 0.5978113827989787 0.6157808868244743 0.5179815971307686
v 0.9127665691100965 1.1042064879917977 1.4876701394782361
v -0.4558035362172297 0.6872108029603646 0.7020198619892387
v 0.36584135709305515 0.1273552856571511 -0.43330957803196
v 1.6680999789556883 0.5802735229365436 0.258733235007324
v 1.164965211501479 0.21251229922240095 -0.3621291804657363
v 0.030657554096478412 1.0190494744265477 1.3980923747272729
v -0.36914666864264467 0.3302468824106425 0.025694628914443407
v 1.5647694342406018 0.9013148912383061 1.0102685653470935
v 0.5978113827989788 0.6157808868244744 0.5179815971307686
vt 0.7405377113096099 1
vt 0.5010719655510936 0.4804676913505759
vt 0 0.713808726047295
vt 0.3335752763060216 1
vt 0.5010719655510936 0.4804676913505759
vt 0.7405377113096099 1
vt 1 0.6451011345373335
vt 1 0.25641924506641456
vt 0.28025736926023004 0
vt 0.5010719655510936 0.4804676913505759
vt 1 0.25641924506641456
vt 0.6929995575276262 0.0001861155374582868
vt 0 0.34733380604590947
vt 0 0.713808726047295
vt 0.5010719655510936 0.4804676913505759
vt 0.28025736926023004 0
vt 0 0.713808726047295
vt 0.5010719655510936 0.4804676913505759
vt 0.7405377113096099 1
vt 0.3335752763060216 1
vt 1 0.6451011345373335
vt 0.7405377113096099 1
vt 0.5010719655510936 0.4804676913505759
vt 1 0.25641924506641456
vt 1 0.25641924506641456
vt 0.5010719655510936 0.4804676913505759
vt 0.28025736926023004 0
vt 0.6929995575276262 0.0001861155374582868
vt 0.5010719655510936 0.4804676913505759
vt 0 0.713808726047295
vt 0 0.34733380604590947
vt 0.28025736926023004 0
vn 0.04192418387031469 -0.8978052317780851 0.43839266485504413
vn 0.08161118400331442 -0.8851182468250849 0.4581542358015098
vn 0.04192418387031455 -0.8978052317780851 0.4383926648550444
vn 0.02203582303136176 -0.8829939084623342 0.4688669108838261
vn -0.04192418387031469 0.8978052317780851 -0.43839266485504413
vn -0.08161118400331442 0.8851182468250849 -0.4581542358015098
vn -0.04192418387031458 0.8978052317780851 -0.4383926648550444
vn -0.02203582303136173 0.8829939084623342 -0.46886691088382604
usemtl m_dd175f9c-b427-0843-1414-74d520817d0e
f 32/33/9 36/34/9 34/35/9 30/36/9
f 36/37/10 32/38/10 31/39/10 35/40/10
f 33/41/11 36/42/11 35/43/11 28/44/11
f 29/45/12 34/46/12 36/47/12 33/48/12
f 25/49/13 27/50/13 23/51/13 21/52/13
f 22/53/14 23/54/14 27/55/14 26/56/14
f 26/57/15 27/58/15 24/59/15 19/60/15
f 27/61/16 25/62/16 20/63/16 24/64/16
o cube
v 1.3046098663931263 0.0423554964192443 1.1914889270507332
v -0.29715428788465637 0.30060526404037136 1.013234769614126
v -0.0231668806692934 1.1769865992085344 -0.18442884108498803
v 1.4973041455780862 1.005367931710084 0.012168702804704667
v 0.7551249953271153 1.2918968396291766 -0.3632435302077628
v 0.44422238048058105 -0.0708427427131787 1.392266764492605
v -0.5105581745274386 0.7423552129013077 0.42022192151312676
v 1.7099055503351348 0.47869888401468985 0.6088013127717156
v 0.5996736879038482 0.6105270484579987 0.5145116171424212
v 1.3046098663931263 0.04235549641924441 1.1914889270507332
v -0.29715428788465637 0.30060526404037136 1.013234769614126
v -0.0231668806692934 1.1769865992085344 -0.1844288410849878
v 1.4973041455780862 1.005367931710084 0.012168702804704667
v 0.7551249953271153 1.2918968396291766 -0.3632435302077628
v 0.44422238048058105 -0.07084274271317859 1.392266764492605
v -0.5105581745274386 0.7423552129013077 0.42022192151312676
v 1.7099055503351348 0.47869888401468985 0.6088013127717156
v 0.5996736879038483 0.6105270484579988 0.5145116171424212
vt 0.7405377113096099 1
vt 0.5010719655510936 0.4804676913505759
vt 0 0.713808726047295
vt 0.3335752763060216 1
vt 0.5010719655510936 0.4804676913505759
vt 0.7405377113096099 1
vt 1 0.6451011345373335
vt 1 0.25641924506641456
vt 0.28025736926023004 0
vt 0.5010719655510936 0.4804676913505759
vt 1 0.25641924506641456
vt 0.6929995575276262 0.0001861155374582868
vt 0 0.34733380604590947
vt 0 0.713808726047295
vt 0.5010719655510936 0.4804676913505759
vt 0.28025736926023004 0
vt 0 0.713808726047295
vt 0.5010719655510936 0.4804676913505759
vt 0.7405377113096099 1
vt 0.3335752763060216 1
vt 1 0.6451011345373335
vt 0.7405377113096099 1
vt 0.5010719655510936 0.4804676913505759
vt 1 0.25641924506641456
vt 1 0.25641924506641456
vt 0.5010719655510936 0.4804676913505759
vt 0.28025736926023004 0
vt 0.6929995575276262 0.0001861155374582868
vt 0.5010719655510936 0.4804676913505759
vt 0 0.713808726047295
vt 0 0.34733380604590947
vt 0.28025736926023004 0
vn -0.04088279752964905 -0.7857508622425565 -0.6171905535174926
vn 0.004779261467911128 -0.7903321178203547 -0.612660021709769
vn -0.040882797529649094 -0.7857508622425566 -0.6171905535174923
vn -0.0462935802156666 -0.8089991131172408 -0.5859840777754406
vn 0.04088279752964908 0.7857508622425565 0.6171905535174926
vn -0.004779261467911156 0.7903321178203547 0.612660021709769
vn 0.04088279752964905 0.7857508622425567 0.6171905535174923
vn 0.04629358021566664 0.8089991131172407 0.5859840777754406
usemtl m_dd175f9c-b427-0843-1414-74d520817d0e
f 50/65/17 54/66/17 52/67/17 48/68/17
f 54/69/18 50/70/18 49/71/18 53/72/18
f 51/73/19 54/74/19 53/75/19 46/76/19
f 47/77/20 52/78/20 54/79/20 51/80/20
f 43/81/21 45/82/21 41/83/21 39/84/21
f 40/85/22 41/86/22 45/87/22 44/88/22
f 44/89/23 45/90/23 42/91/23 37/92/23
f 45/93/24 43/94/24 38/95/24 42/96/24