# Made in Blockbench 4.8.1
mtllib myrtle_bush_4.mtl

o plane
v -1.0379833446552431 0.9375000000000007 -0.09764716970849907
v 1.6884900241227356 0.9374999999999998 -0.45659419831364123
v -0.8992992654214388 -0.6874999999999994 0.9557629955011742
v 1.82717410335654 -0.6875000000000006 0.5968159668960319
v -0.9237729264626983 5.551115123125783e-16 0.7698670839935848
v 1.8027004423152806 -5.551115123125783e-16 0.4109200553884426
vt 0 0.53086875
vt 0.9166666666666666 0.53086875
vt 0.9166666666666666 0.9583333333333334
vt 0 0.9583333333333334
vt 0.9583333333333334 0.44791666666666663
vt 0.041666666666666664 0.44791666666666663
vt 0.041666666666666664 0.21038125000000008
vt 0.9583333333333334 0.21038125000000008
vt 0.041666666666666664 0.21038125000000008
vt 0.041666666666666664 0.44791666666666663
vt 0.9583333333333334 0.44791666666666663
vt 0.9583333333333334 0.21038125000000008
vt 0.9166666666666666 0.9583333333333334
vt 0.9166666666666666 0.53086875
vt 0 0.53086875
vt 0 0.9583333333333334
vn 0.09542186046615049 0.682318250360011 0.7248009890796452
vn 0.12592694797782797 0.2631174057921085 0.956510133005511
vn -0.12592694797782797 -0.2631174057921085 -0.956510133005511
vn -0.09542186046615049 -0.682318250360011 -0.7248009890796452
usemtl m_083f64a9-b933-e1da-bdb2-c6498892181a
f 5/1/1 6/2/1 2/3/1 1/4/1
f 6/5/2 5/6/2 3/7/2 4/8/2
f 3/9/3 5/10/3 6/11/3 4/12/3
f 2/13/4 6/14/4 5/15/4 1/16/4
o plane
v 0.9822958141224767 1.1100658293936099 -0.97458734546932
v 1.4598283027065353 1.110065829393608 1.7336339753142518
v 0.2581284996879305 -0.3081607641163898 -0.8468971093873209
v 0.7356609882719891 -0.30816076411639165 1.861324211396251
v 0.2940022347125495 0.03486640548610054 -0.8532226167709461
v 0.7715347232966081 0.03486640548609876 1.8549987040126257
vt 0.9583333333333334 0.5517020833333335
vt 0.041666666666666664 0.5517020833333335
vt 0.041666666666666664 0.9791666666666666
vt 0.9583333333333334 0.9791666666666666
vt 0.041666666666666664 0.5416666666666667
vt 0.9583333333333334 0.5416666666666667
vt 0.9583333333333334 0.42668125
vt 0.041666666666666664 0.42668125
vt 0.9583333333333334 0.42668125
vt 0.9583333333333334 0.5416666666666667
vt 0.041666666666666664 0.5416666666666667
vt 0.041666666666666664 0.42668125
vt 0.041666666666666664 0.9791666666666666
vt 0.041666666666666664 0.5517020833333335
vt 0.9583333333333334 0.5517020833333335
vt 0.9583333333333334 0.9791666666666666
vn -0.8256945474896035 0.5450058878720802 0.14559222654628448
vn -0.9793014463312241 0.10559942515856288 0.17267726723501778
vn 0.9793014463312241 -0.10559942515856288 -0.17267726723501778
vn 0.8256945474896035 -0.5450058878720802 -0.14559222654628448
usemtl m_f04b642a-749b-5847-ed5c-e155d18cb476
f 11/17/5 12/18/5 8/19/5 7/20/5
f 12/21/6 11/22/6 9/23/6 10/24/6
f 9/25/7 11/26/7 12/27/7 10/28/7
f 8/29/8 12/30/8 11/31/8 7/32/8
o plane
v 0.7987654007905935 1.2059945792222346 1.9550142126486523
v -1.3551598236655376 0.8833783061165046 0.27601901677137547
v 2.112198495128089 -1.0024340197867143 0.694402107448007
v -0.041726729328042 -1.3250502928924446 -0.98459308842927
v 1.4821017023591136 0.39476081849896927 1.234262844685022
v -0.6718235220970177 0.07214454539323917 -0.444732351192255
vt 0.9583333333333334 0.5517020833333335
vt 0.041666666666666664 0.5517020833333335
vt 0.041666666666666664 0.9791666666666666
vt 0.9583333333333334 0.9791666666666666
vt 0.041666666666666664 0.5416666666666667
vt 0.9583333333333334 0.5416666666666667
vt 0.9583333333333334 0
vt 0.041666666666666664 0
vt 0.9583333333333334 0
vt 0.9583333333333334 0.5416666666666667
vt 0.041666666666666664 0.5416666666666667
vt 0.041666666666666664 0
vt 0.041666666666666664 0.9791666666666666
vt 0.041666666666666664 0.5517020833333335
vt 0.9583333333333334 0.5517020833333335
vt 0.9583333333333334 0.9791666666666666
vn 0.3202908817316915 0.7655470178218682 -0.5579888122387223
vn 0.48597830761234667 0.49695085820980794 -0.7189331881717346
vn -0.48597830761234667 -0.49695085820980794 0.7189331881717346
vn -0.3202908817316915 -0.7655470178218682 0.5579888122387223
usemtl m_debe257b-c231-7045-007d-0d1ed15a16b2
f 17/33/9 18/34/9 14/35/9 13/36/9
f 18/37/10 17/38/10 15/39/10 16/40/10
f 15/41/11 17/42/11 18/43/11 16/44/11
f 14/45/12 18/46/12 17/47/12 13/48/12
o plane
v 1.149624820413099 -0.3749999999999999 1.6182640405208977
v 1.1496248204130997 1.4999999999999998 1.6182640405208968
v -0.350375179586901 -0.37500000000000033 -0.9798121708324181
v -0.35037517958690034 1.4999999999999996 -0.9798121708324188
vt 0 0.9375
vt 1 0.9375
vt 1 0.3125
vt 0 0.3125
vt 0 0.3125
vt 1 0.3125
vt 1 0.9375
vt 0 0.9375
vn 0.8660254037844386 -5.340993623746935e-16 -0.5
vn -0.8660254037844386 5.340993623746935e-16 0.5
usemtl m_debe257b-c231-7045-007d-0d1ed15a16b2
f 22/49/13 20/50/13 19/51/13 21/52/13
f 21/53/14 19/54/14 20/55/14 22/56/14
o plane
v -0.4124993088572607 -0.3749999999999989 1.567955370264831
v -0.4124993088572597 1.500000000000001 1.5679553702648297
v 1.4137849781689003 -0.37500000000000155 -0.8121046506088752
v 1.4137849781689014 1.4999999999999984 -0.8121046506088765
vt 0 0.96875
vt 1 0.96875
vt 1 0.34375
vt 0 0.34375
vt 0 0.34375
vt 1 0.34375
vt 1 0.96875
vt 0 0.96875
vn 0.7933533402912354 -3.4512664603419266e-31 0.6087614290087203
vn -0.7933533402912354 3.4512664603419266e-31 -0.6087614290087203
usemtl m_083f64a9-b933-e1da-bdb2-c6498892181a
f 26/57/15 24/58/15 23/59/15 25/60/15
f 25/61/16 23/62/16 24/63/16 26/64/16