# Made in Blockbench 4.8.1
mtllib myrtle_bush.mtl

o plane
v -0.1625815964547288 1.4225658293936099 1.6543672051388003
v -0.2825349117094025 1.422565829393608 -1.0930154042113083
v 0.5720572865157371 0.004339235883610182 1.6222921788110556
v 0.45210397126106344 0.00433923588360835 -1.125090430539053
v 0.5356648118746484 0.34736640548610054 1.6238811085686584
v 0.41571149661997475 0.34736640548609876 -1.1235015007814502
vt 0.9583333333333334 0.5517020833333335
vt 0.041666666666666664 0.5517020833333335
vt 0.041666666666666664 0.9791666666666666
vt 0.9583333333333334 0.9791666666666666
vt 0.041666666666666664 0.5416666666666667
vt 0.9583333333333334 0.5416666666666667
vt 0.9583333333333334 0.42668125
vt 0.041666666666666664 0.42668125
vt 0.9583333333333334 0.42668125
vt 0.9583333333333334 0.5416666666666667
vt 0.041666666666666664 0.5416666666666667
vt 0.041666666666666664 0.42668125
vt 0.041666666666666664 0.9791666666666666
vt 0.041666666666666664 0.5517020833333335
vt 0.9583333333333334 0.5517020833333335
vt 0.9583333333333334 0.9791666666666666
vn 0.8376342151208666 0.5450058878720802 -0.036571899644608725
vn 0.9934622928761837 0.10559942515856294 -0.04337550045102649
vn -0.9934622928761837 -0.10559942515856294 0.04337550045102649
vn -0.8376342151208666 -0.5450058878720802 0.036571899644608725
usemtl m_f04b642a-749b-5847-ed5c-e155d18cb476
f 5/1/1 6/2/1 2/3/1 1/4/1
f 6/5/2 5/6/2 3/7/2 4/8/2
f 3/9/3 5/10/3 6/11/3 4/12/3
f 2/13/4 6/14/4 5/15/4 1/16/4
o plane
v 0.4017684248520477 1.5184945792222346 -1.2262156795211894
v 2.3181136707488896 1.1958783061165046 0.7195591375776305
v -1.0649709652455093 -0.6899340197867143 -0.14782570617406127
v 0.8513742806513325 -1.0125502928924446 1.7979491109247583
v -0.36979877152593216 0.7072608184989693 -0.6008237248749753
v 1.5465464743709096 0.38464454539323917 1.3449510922238443
vt 0.9583333333333334 0.5517020833333335
vt 0.041666666666666664 0.5517020833333335
vt 0.041666666666666664 0.9791666666666666
vt 0.9583333333333334 0.9791666666666666
vt 0.041666666666666664 0.5416666666666667
vt 0.9583333333333334 0.5416666666666667
vt 0.9583333333333334 0
vt 0.041666666666666664 0
vt 0.9583333333333334 0
vt 0.9583333333333334 0.5416666666666667
vt 0.041666666666666664 0.5416666666666667
vt 0.041666666666666664 0
vt 0.041666666666666664 0.9791666666666666
vt 0.041666666666666664 0.5517020833333335
vt 0.9583333333333334 0.5517020833333335
vt 0.9583333333333334 0.9791666666666666
vn -0.39038290380068214 0.7655470178218682 0.5114087914029165
vn -0.5756603073340804 0.49695085820980794 0.6493497170897723
vn 0.5756603073340804 -0.49695085820980794 -0.6493497170897723
vn 0.39038290380068214 -0.7655470178218682 -0.5114087914029165
usemtl m_debe257b-c231-7045-007d-0d1ed15a16b2
f 11/17/5 12/18/5 8/19/5 7/20/5
f 12/21/6 11/22/6 9/23/6 10/24/6
f 9/25/7 11/26/7 12/27/7 10/28/7
f 8/29/8 12/30/8 11/31/8 7/32/8
o plane
v 0.009955938505434414 -0.062499999999999896 -0.9381427958462435
v 0.009955938505433637 1.8124999999999998 -0.9381427958462428
v 1.1580062356007033 -0.06250000000000032 1.8334958016876168
v 1.1580062356007026 1.8124999999999996 1.8334958016876177
vt 0 0.9375
vt 1 0.9375
vt 1 0.3125
vt 0 0.3125
vt 0 0.3125
vt 1 0.3125
vt 1 0.9375
vt 0 0.9375
vn -0.9238795325112867 -5.340993623746936e-16 0.3826834323650896
vn 0.9238795325112867 5.340993623746936e-16 -0.3826834323650896
usemtl m_debe257b-c231-7045-007d-0d1ed15a16b2
f 16/33/9 14/34/9 13/35/9 15/36/9
f 15/37/10 13/38/10 14/39/10 16/40/10
o plane
v 1.552149280134392 -0.06249999999999889 -0.684366408869593
v 1.5521492801343908 1.812500000000001 -0.6843664088695919
v -0.5691710634252503 -0.06250000000000155 1.4369539346900506
v -0.5691710634252514 1.8124999999999984 1.4369539346900515
vt 0 0.96875
vt 1 0.96875
vt 1 0.34375
vt 0 0.34375
vt 0 0.34375
vt 1 0.34375
vt 1 0.96875
vt 0 0.96875
vn -0.7071067811865478 -4.437342591868191e-31 -0.7071067811865474
vn 0.7071067811865478 4.437342591868191e-31 0.7071067811865474
usemtl m_083f64a9-b933-e1da-bdb2-c6498892181a
f 20/41/11 18/42/11 17/43/11 19/44/11
f 19/45/12 17/46/12 18/47/12 20/48/12
o plane
v 1.9548774560028888 1.2500000000000007 1.0486287199652733
v -0.7951225439971112 1.2499999999999998 1.0486287199652733
v 1.9548774560028894 -0.37499999999999944 -0.013871280034726527
v -0.7951225439971106 -0.37500000000000056 -0.013871280034726527
v 1.9548774560028892 0.31250000000000056 0.17362871996527335
v -0.7951225439971108 0.31249999999999944 0.17362871996527335
vt 0 0.53086875
vt 0.9166666666666666 0.53086875
vt 0.9166666666666666 0.9583333333333334
vt 0 0.9583333333333334
vt 0.9583333333333334 0.44791666666666663
vt 0.041666666666666664 0.44791666666666663
vt 0.041666666666666664 0.21038125000000008
vt 0.9583333333333334 0.21038125000000008
vt 0.041666666666666664 0.21038125000000008
vt 0.041666666666666664 0.44791666666666663
vt 0.9583333333333334 0.44791666666666663
vt 0.9583333333333334 0.21038125000000008
vt 0.9166666666666666 0.9583333333333334
vt 0.9166666666666666 0.53086875
vt 0 0.53086875
vt 0 0.9583333333333334
vn -2.6513390108507267e-16 0.682318250360011 -0.7310552682428691
vn -1.0224165073151381e-16 0.2631174057921085 -0.9647638212377322
vn 1.0224165073151381e-16 -0.2631174057921085 0.9647638212377322
vn 2.6513390108507267e-16 -0.682318250360011 0.7310552682428691
usemtl m_083f64a9-b933-e1da-bdb2-c6498892181a
f 25/49/13 26/50/13 22/51/13 21/52/13
f 26/53/14 25/54/14 23/55/14 24/56/14
f 23/57/15 25/58/15 26/59/15 24/60/15
f 22/61/16 26/62/16 25/63/16 21/64/16