# Made in Blockbench 4.8.1
mtllib myrtle_bush_2.mtl

o plane
v 0.4341702917538369 1.0000000000000007 1.9820894750342055
v -0.6182091472501599 0.9999999999999998 -0.558579239371833
v 1.415792295047079 -0.6249999999999994 1.5754883281462984
v 0.3634128560430821 -0.6250000000000006 -0.9651803862597401
v 1.2425648827012128 0.06250000000000056 1.6472414717147523
v 0.1901854436972159 0.062499999999999445 -0.8934272426912861
vt 0 0.53086875
vt 0.9166666666666666 0.53086875
vt 0.9166666666666666 0.9583333333333334
vt 0 0.9583333333333334
vt 0.9583333333333334 0.44791666666666663
vt 0.041666666666666664 0.44791666666666663
vt 0.041666666666666664 0.21038125000000008
vt 0.9583333333333334 0.21038125000000008
vt 0.041666666666666664 0.21038125000000008
vt 0.041666666666666664 0.44791666666666663
vt 0.9583333333333334 0.44791666666666663
vt 0.9583333333333334 0.21038125000000008
vt 0.9166666666666666 0.9583333333333334
vt 0.9166666666666666 0.53086875
vt 0 0.53086875
vt 0 0.9583333333333334
vn 0.6754069994641352 0.6823182503600109 -0.2797627392997628
vn 0.8913255481489187 0.2631174057921085 -0.36919913053291536
vn -0.8913255481489187 -0.2631174057921085 0.36919913053291536
vn -0.6754069994641352 -0.6823182503600109 0.2797627392997628
usemtl m_083f64a9-b933-e1da-bdb2-c6498892181a
f 5/1/1 6/2/1 2/3/1 1/4/1
f 6/5/2 5/6/2 3/7/2 4/8/2
f 3/9/3 5/10/3 6/11/3 4/12/3
f 2/13/4 6/14/4 5/15/4 1/16/4
o plane
v -0.935775594839388 1.1725658293936099 0.25761847815970507
v 1.556570819511399 1.172565829393608 -0.9045817416272179
v -0.6250080052264306 -0.24566076411638982 0.924061724754771
v 1.8673384091243563 -0.24566076411639165 -0.238138495032152
v -0.6404027820159894 0.09736640548610054 0.8910475193898597
v 1.8519436323347975 0.09736640548609876 -0.2711527003970633
vt 0.9583333333333334 0.5517020833333335
vt 0.041666666666666664 0.5517020833333335
vt 0.041666666666666664 0.9791666666666666
vt 0.9583333333333334 0.9791666666666666
vt 0.041666666666666664 0.5416666666666667
vt 0.9583333333333334 0.5416666666666667
vt 0.9583333333333334 0.42668125
vt 0.041666666666666664 0.42668125
vt 0.9583333333333334 0.42668125
vt 0.9583333333333334 0.5416666666666667
vt 0.041666666666666664 0.5416666666666667
vt 0.041666666666666664 0.42668125
vt 0.041666666666666664 0.9791666666666666
vt 0.041666666666666664 0.5517020833333335
vt 0.9583333333333334 0.5517020833333335
vt 0.9583333333333334 0.9791666666666666
vn 0.3543367660556021 0.5450058878720802 0.7598776469972143
vn 0.4202552972422876 0.10559942515856291 0.9012403933168873
vn -0.4202552972422876 -0.10559942515856291 -0.9012403933168873
vn -0.3543367660556021 -0.5450058878720802 -0.7598776469972143
usemtl m_f04b642a-749b-5847-ed5c-e155d18cb476
f 11/17/5 12/18/5 8/19/5 7/20/5
f 12/21/6 11/22/6 9/23/6 10/24/6
f 9/25/7 11/26/7 12/27/7 10/28/7
f 8/29/8 12/30/8 11/31/8 7/32/8
o plane
v 1.9415033772092853 1.2684945792222346 -0.32334143349647176
v 0.877195425112119 0.9458783061165046 2.19174650202986
v 0.3839040885808706 -0.9399340197867143 -1.2657499591071155
v -0.6804038635162957 -1.2625502928924446 1.2493379764192163
v 1.0684505675041869 0.45726081849896927 -0.7968494344096779
v 0.004142615407020489 0.13464454539323917 1.7182385011166539
vt 0.9583333333333334 0.5517020833333335
vt 0.041666666666666664 0.5517020833333335
vt 0.041666666666666664 0.9791666666666666
vt 0.9583333333333334 0.9791666666666666
vt 0.041666666666666664 0.5416666666666667
vt 0.9583333333333334 0.5416666666666667
vt 0.9583333333333334 0
vt 0.041666666666666664 0
vt 0.9583333333333334 0
vt 0.9583333333333334 0.5416666666666667
vt 0.041666666666666664 0.5416666666666667
vt 0.041666666666666664 0
vt 0.041666666666666664 0.9791666666666666
vt 0.041666666666666664 0.5517020833333335
vt 0.9583333333333334 0.5517020833333335
vt 0.9583333333333334 0.9791666666666666
vn -0.6218731846865844 0.7655470178218682 -0.16495910302802244
vn -0.8202165753481837 0.496950858209808 -0.2833453970838998
vn 0.8202165753481837 -0.496950858209808 0.2833453970838998
vn 0.6218731846865844 -0.7655470178218682 0.16495910302802244
usemtl m_debe257b-c231-7045-007d-0d1ed15a16b2
f 17/33/9 18/34/9 14/35/9 13/36/9
f 18/37/10 17/38/10 15/39/10 16/40/10
f 15/41/11 17/42/11 18/43/11 16/44/11
f 14/45/12 18/46/12 17/47/12 13/48/12
o plane
v 1.5254185889918763 -0.3124999999999999 -0.5750882503184283
v 1.5254185889918754 1.5624999999999998 -0.5750882503184287
v -0.5959017545677661 -0.31250000000000033 1.5462320932412137
v -0.595901754567767 1.5624999999999996 1.5462320932412132
vt 0 0.9375
vt 1 0.9375
vt 1 0.3125
vt 0 0.3125
vt 0 0.3125
vt 1 0.3125
vt 1 0.9375
vt 0 0.9375
vn -0.7071067811865476 -5.340993623746937e-16 -0.7071067811865477
vn 0.7071067811865476 5.340993623746937e-16 0.7071067811865477
usemtl m_debe257b-c231-7045-007d-0d1ed15a16b2
f 22/49/13 20/50/13 19/51/13 21/52/13
f 21/53/14 19/54/14 20/55/14 22/56/14
o plane
v 1.881131620574642 -0.3124999999999989 0.9468286320091879
v 1.8811316205746405 1.562500000000001 0.9468286320091872
v -0.8905069769592184 -0.31250000000000155 -0.20122166508608047
v -0.89050697695922 1.5624999999999984 -0.20122166508608114
vt 0 0.96875
vt 1 0.96875
vt 1 0.34375
vt 0 0.34375
vt 0 0.34375
vt 1 0.34375
vt 1 0.96875
vt 0 0.96875
vn 0.38268343236508945 -3.944304526105059e-31 -0.9238795325112868
vn -0.38268343236508945 3.944304526105059e-31 0.9238795325112868
usemtl m_083f64a9-b933-e1da-bdb2-c6498892181a
f 26/57/15 24/58/15 23/59/15 25/60/15
f 25/61/16 23/62/16 24/63/16 26/64/16