# Made in Blockbench 4.8.1
mtllib myrtle_bush_3.mtl

o plane
v 0.9867326930539818 1.2500000000000007 1.9064667153212618
v -0.8711403778890845 1.2499999999999998 -0.12104596090657871
v 1.7700898634147384 -0.37499999999999944 1.1886521197296234
v -0.0877832075283278 -0.37500000000000056 -0.8388605564982173
v 1.6318503627628402 0.31250000000000056 1.3153252836575593
v -0.22602270818022596 0.31249999999999944 -0.7121873925702813
vt 0 0.53086875
vt 0.9166666666666666 0.53086875
vt 0.9166666666666666 0.9583333333333334
vt 0 0.9583333333333334
vt 0.9583333333333334 0.44791666666666663
vt 0.041666666666666664 0.44791666666666663
vt 0.041666666666666664 0.21038125000000008
vt 0.9583333333333334 0.21038125000000008
vt 0.041666666666666664 0.21038125000000008
vt 0.041666666666666664 0.44791666666666663
vt 0.9583333333333334 0.44791666666666663
vt 0.9583333333333334 0.21038125000000008
vt 0.9166666666666666 0.9583333333333334
vt 0.9166666666666666 0.53086875
vt 0 0.53086875
vt 0 0.9583333333333334
vn 0.5389904812311131 0.682318250360011 -0.49389378045072263
vn 0.7112985007729136 0.26311740579210846 -0.6517849902900774
vn -0.7112985007729136 -0.26311740579210846 0.6517849902900774
vn -0.5389904812311131 -0.682318250360011 0.49389378045072263
usemtl m_083f64a9-b933-e1da-bdb2-c6498892181a
f 5/1/1 6/2/1 2/3/1 1/4/1
f 6/5/2 5/6/2 3/7/2 4/8/2
f 3/9/3 5/10/3 6/11/3 4/12/3
f 2/13/4 6/14/4 5/15/4 1/16/4
o plane
v -0.8903991649656566 1.4225658293936099 0.75454313328
v 1.0541444832973488 1.422565829393608 -1.190000514983006
v -0.3704361395080684 0.004339235883610182 1.2745061587375908
v 1.5741075087549368 0.00433923588360835 -0.6700374895254151
v -0.39619402090655287 0.34736640548610054 1.2487482773391045
v 1.5483496273564523 0.34736640548609876 -0.6957953709239013
vt 0.9583333333333334 0.5517020833333335
vt 0.041666666666666664 0.5517020833333335
vt 0.041666666666666664 0.9791666666666666
vt 0.9583333333333334 0.9791666666666666
vt 0.041666666666666664 0.5416666666666667
vt 0.9583333333333334 0.5416666666666667
vt 0.9583333333333334 0.42668125
vt 0.041666666666666664 0.42668125
vt 0.9583333333333334 0.42668125
vt 0.9583333333333334 0.5416666666666667
vt 0.041666666666666664 0.5416666666666667
vt 0.041666666666666664 0.42668125
vt 0.041666666666666664 0.9791666666666666
vt 0.041666666666666664 0.5517020833333335
vt 0.9583333333333334 0.5517020833333335
vt 0.9583333333333334 0.9791666666666666
vn 0.5928611060715513 0.5450058878720802 0.5928611060715506
vn 0.7031531701578901 0.10559942515856294 0.7031531701578899
vn -0.7031531701578901 -0.10559942515856294 -0.7031531701578899
vn -0.5928611060715513 -0.5450058878720802 -0.5928611060715506
usemtl m_f04b642a-749b-5847-ed5c-e155d18cb476
f 11/17/5 12/18/5 8/19/5 7/20/5
f 12/21/6 11/22/6 9/23/6 10/24/6
f 9/25/7 11/26/7 12/27/7 10/28/7
f 8/29/8 12/30/8 11/31/8 7/32/8
o plane
v 1.6146586607598319 1.5184945792222346 -0.7754679750837632
v 1.4747470681157397 1.1958783061165046 1.9519563568769172
v -0.17132859590635413 -0.6899340197867143 -1.1283119804251625
v -0.3112401885504465 -1.0125502928924446 1.599112351535518
v 0.6323081035853613 0.7072608184989693 -0.9218183023187745
v 0.49239651094126896 0.38464454539323917 1.8056060296419059
vt 0.9583333333333334 0.5517020833333335
vt 0.041666666666666664 0.5517020833333335
vt 0.041666666666666664 0.9791666666666666
vt 0.9583333333333334 0.9791666666666666
vt 0.041666666666666664 0.5416666666666667
vt 0.9583333333333334 0.5416666666666667
vt 0.9583333333333334 0
vt 0.041666666666666664 0
vt 0.9583333333333334 0
vt 0.9583333333333334 0.5416666666666667
vt 0.041666666666666664 0.5416666666666667
vt 0.041666666666666664 0
vt 0.041666666666666664 0.9791666666666666
vt 0.041666666666666664 0.5517020833333335
vt 0.9583333333333334 0.5517020833333335
vt 0.9583333333333334 0.9791666666666666
vn -0.6407889787751337 0.7655470178218682 0.057682303910000704
vn -0.8676612966222812 0.496950858209808 0.014273011885281524
vn 0.8676612966222812 -0.496950858209808 -0.014273011885281524
vn 0.6407889787751337 -0.7655470178218682 -0.057682303910000704
usemtl m_debe257b-c231-7045-007d-0d1ed15a16b2
f 17/33/9 18/34/9 14/35/9 13/36/9
f 18/37/10 17/38/10 15/39/10 16/40/10
f 15/41/11 17/42/11 18/43/11 16/44/11
f 14/45/12 18/46/12 17/47/12 13/48/12
o plane
v 1.1375643732794392 -0.062499999999999896 -0.8697232222559491
v 1.137564373279438 1.8124999999999998 -0.8697232222559493
v -0.1302904119426589 -0.06250000000000032 1.849200138854001
v -0.1302904119426599 1.8124999999999996 1.849200138854001
vt 0 0.9375
vt 1 0.9375
vt 1 0.3125
vt 0 0.3125
vt 0 0.3125
vt 1 0.3125
vt 1 0.9375
vt 0 0.9375
vn -0.9063077870366499 -5.340993623746935e-16 -0.4226182617406993
vn 0.9063077870366499 5.340993623746935e-16 0.4226182617406993
usemtl m_debe257b-c231-7045-007d-0d1ed15a16b2
f 22/49/13 20/50/13 19/51/13 21/52/13
f 21/53/14 19/54/14 20/55/14 22/56/14
o plane
v 1.992351514398595 -0.06249999999999889 0.43874981947206193
v 1.9923515143985935 1.812500000000001 0.4387498194720618
v -1.0047931503469782 -0.06250000000000155 0.3078916573760556
v -1.0047931503469798 1.8124999999999984 0.3078916573760555
vt 0 0.96875
vt 1 0.96875
vt 1 0.34375
vt 0 0.34375
vt 0 0.34375
vt 1 0.34375
vt 1 0.96875
vt 0 0.96875
vn 0.04361938736533544 -3.944304526105059e-31 -0.9990482215818578
vn -0.04361938736533544 3.944304526105059e-31 0.9990482215818578
usemtl m_083f64a9-b933-e1da-bdb2-c6498892181a
f 26/57/15 24/58/15 23/59/15 25/60/15
f 25/61/16 23/62/16 24/63/16 26/64/16