# Made in Blockbench 4.8.1
mtllib oak_leaves_yellowish_vertical_slab_2.mtl

o cube
v 0.38501170835348764 1.2877193109766436 -0.6562462926596748
v -0.030668431863195345 -0.14560611026065529 -0.8072040942611753
v 0.38501170835348764 1.2877193109766436 -0.6562462926596748
v -0.030668431863195345 -0.14560611026065529 -0.8072040942611753
v -0.07984986159743146 -0.28851893802165374 0.6851621847168281
v 0.3358302786192515 1.1448064832156453 0.8361199863183284
v -0.07984986159743146 -0.28851893802165374 0.6851621847168281
v 0.3358302786192515 1.1448064832156453 0.8361199863183284
vt 0.07073479729729729 0.7342342342342343
vt 0.07073479729729729 0.9504504504504505
vt 0.25823479729729726 0.9504504504504505
vt 0.25823479729729726 0.7342342342342343
vn -0.9602757030026408 0.2790094864944555 -0.004927541870409773
usemtl m_ac3d92fe-f5b1-a3a3-7d87-db428bb26680
f 6/4/1 1/3/1 2/2/1 5/1/1
o cube
v 1.5226292667722876 -0.780446386206805 0.5420765611736438
v 1.8443190154207922 1.062830029369582 0.5331049310072558
v -0.49528708295562707 -0.4310383537549526 -0.024979549241268384
v -0.1735973343071222 1.4122380618214345 -0.033951179407656296
v 1.8443190154207922 1.062830029369582 0.5331049310072558
v 1.5226292667722876 -0.780446386206805 0.5420765611736438
v -0.1735973343071222 1.4122380618214345 -0.033951179407656296
v -0.49528708295562707 -0.4310383537549526 -0.024979549241268384
vt 0.727278774634009 0.9324324324324319
vt 0.49338400900900903 0.9324324324324319
vt 0.49338400900900903 0.6261261261261256
vt 0.727278774634009 0.6261261261261256
vt 0.49338400900900914 0.9324324324324325
vt 0.7272787746340091 0.9324324324324325
vt 0.7272787746340091 0.6261261261261262
vt 0.49338400900900914 0.6261261261261262
vn 0.2620852844320591 -0.05042995355062152 -0.9637261662261999
vn -0.2620852844320591 0.05042995355062152 0.9637261662261999
usemtl m_ac3d92fe-f5b1-a3a3-7d87-db428bb26680
f 11/8/2 12/7/2 10/6/2 9/5/2
f 15/12/3 16/11/3 14/10/3 13/9/3
o cube
v 0.1226918467505057 1.0849561513688006 1.308979898813499
v 0.1226918467505057 1.0849561513688006 1.308979898813499
v 1.975266665170345 0.9966773696343849 0.03513791534294852
v 1.975266665170345 0.9966773696343849 0.03513791534294852
v -0.8793651413307308 -0.07148767426351704 -0.06818941530369227
v -0.8793651413307308 -0.07148767426351704 -0.06818941530369227
v 0.973209677089109 -0.15976645599793282 -1.3420313987742432
v 0.973209677089109 -0.15976645599793282 -1.3420313987742432
vt 0.49001577421171194 0.6126126126126127
vt 0.747348117961712 0.6126126126126127
vt 0.747348117961712 0.936936936936937
vt 0.49001577421171194 0.936936936936937
vt 0.747348117961712 0.16216216216216195
vt 0.49001577421171194 0.16216216216216195
vt 0.49001577421171194 0.4864864864864863
vt 0.747348117961712 0.4864864864864863
vn -0.29178693108336917 0.8263787075027387 -0.4816208245446333
vn 0.29178693108336917 -0.8263787075027387 0.4816208245446333
usemtl m_ac3d92fe-f5b1-a3a3-7d87-db428bb26680
f 20/16/4 23/15/4 21/14/4 18/13/4
f 24/20/5 19/19/5 17/18/5 22/17/5
o cube
v -0.38803129152830196 1.079191202606265 0.3542901142742343
v -0.38803129152830196 1.079191202606265 0.3542901142742343
v 1.0891803379900105 1.0791912026062649 0.09381784777383884
v 1.0891803379900105 1.0791912026062649 0.09381784777383884
v -0.33165477472537397 -0.3852528080736348 0.6740172290720534
v -0.33165477472537397 -0.3852528080736348 0.6740172290720534
v 1.1455568547929382 -0.38525280807363516 0.4135449625716582
v 1.1455568547929382 -0.38525280807363516 0.4135449625716582
vt 0.08245354729729727 0.29729729729729704
vt 0.26995354729729726 0.29729729729729704
vt 0.26995354729729726 0.08108108108108081
vt 0.08245354729729727 0.08108108108108081
vn 0.16953202249987684 0.21643961393810288 0.9614638770465723
usemtl m_ac3d92fe-f5b1-a3a3-7d87-db428bb26680
f 32/24/6 27/23/6 25/22/6 30/21/6
o cube
v -0.18836202415400383 1.328926956717635 -0.26304937077897395
v -0.18836202415400383 1.328926956717635 -0.26304937077897395
v 1.2505394178233664 1.057882406883731 0.0626767293124687
v 1.2505394178233664 1.057882406883731 0.0626767293124687
v -0.5045864456341538 -0.12542339050099982 -0.07632180772364738
v -0.5045864456341538 -0.12542339050099982 -0.07632180772364738
v 0.9343149963432165 -0.39646794033490396 0.24940429236779527
v 0.9343149963432165 -0.39646794033490396 0.24940429236779527
vt 0.08741554054054054 0.30855855855855885
vt 0.27491554054054057 0.30855855855855885
vt 0.27491554054054057 0.09234234234234262
vt 0.08741554054054054 0.09234234234234262
vn 0.18804816822055495 -0.16519338102205852 -0.9681678745421143
usemtl m_ac3d92fe-f5b1-a3a3-7d87-db428bb26680
f 36/28/7 39/27/7 37/26/7 34/25/7
o cube
v 0.9270540386635295 -0.3101436841714197 0.782179165163797
v 0.9270540386635298 1.1884286482013668 0.7167500841157932
v 0.9270540386635295 -0.3101436841714197 0.782179165163797
v 0.9270540386635298 1.1884286482013668 0.7167500841157932
v 0.9270540386635298 1.122999567153363 -0.7818222482569936
v 0.9270540386635295 -0.3755727652194235 -0.7163931672089898
v 0.9270540386635298 1.122999567153363 -0.7818222482569936
v 0.9270540386635295 -0.3755727652194235 -0.7163931672089898
vt 0.06999577702702703 0.41891891891891864
vt 0.06999577702702703 0.6351351351351349
vt 0.25749577702702703 0.6351351351351349
vt 0.25749577702702703 0.41891891891891864
vn 1 -2.220446049250313e-16 0
usemtl m_ac3d92fe-f5b1-a3a3-7d87-db428bb26680
f 47/32/8 44/31/8 43/30/8 48/29/8
o cube
v -0.8040073175861966 0.9991323371830874 0.9256251488480642
v 0.5380799452295846 -0.6708805604867463 1.3477880409674012
v 0.4508931820623274 1.4743966715581165 -1.1837227476481356
v 1.7929804448781086 -0.19561622611171725 -0.7615598555287987
v 0.5380799452295846 -0.6708805604867463 1.3477880409674012
v -0.8040073175861966 0.9991323371830874 0.9256251488480642
v 1.7929804448781086 -0.19561622611171725 -0.7615598555287987
v 0.4508931820623274 1.4743966715581165 -1.1837227476481356
vt 0.7405914393299544 0.4864864864864862
vt 0.4715404237049544 0.4864864864864862
vt 0.4715404237049544 0.12612612612612584
vt 0.7405914393299544 0.12612612612612584
vt 0.47154042370495497 0.9369369369369371
vt 0.740591439329955 0.9369369369369371
vt 0.740591439329955 0.5765765765765768
vt 0.47154042370495497 0.5765765765765768
vn -0.608520022226548 -0.6156094363880215 -0.5007278745780228
vn 0.608520022226548 0.6156094363880215 0.5007278745780228
usemtl m_ac3d92fe-f5b1-a3a3-7d87-db428bb26680
f 51/36/9 52/35/9 50/34/9 49/33/9
f 55/40/10 56/39/10 54/38/10 53/37/10
o cube
v -0.33830995428023836 0.5819776347670789 -0.5384889699773362
v 1.112865772551485 0.9319573660476179 -0.6854692324183208
v -0.22827762835567145 0.7500121801299533 0.948002630677145
v 1.222898098476052 1.0999919114104921 0.8010223682361604
v 1.112865772551485 0.9319573660476179 -0.6854692324183208
v -0.33830995428023836 0.5819776347670789 -0.5384889699773362
v 1.222898098476052 1.0999919114104921 0.8010223682361604
v -0.22827762835567145 0.7500121801299533 0.948002630677145
vt 0.06820101351351351 0.9459459459459459
vt 0.2557010135135135 0.9459459459459459
vt 0.2557010135135135 0.7297297297297298
vt 0.06820101351351351 0.7297297297297298
vn -0.24219541889974247 0.9659258262890683 -0.09126158650691321
usemtl m_ac3d92fe-f5b1-a3a3-7d87-db428bb26680
f 59/44/11 60/43/11 58/42/11 57/41/11
o cube
v 1.1589920037487222 -0.2155943179926878 0.7612604761637265
v -0.32692802919929875 -0.012233122211831704 0.7350711704391955
v 1.20088414078557 -0.1020401933947358 -0.7338483859735024
v -0.2850358921624512 0.1013210023861204 -0.7600376916980335
v -0.32692802919929875 -0.012233122211831704 0.7350711704391955
v 1.1589920037487222 -0.2155943179926878 0.7612604761637265
v -0.2850358921624512 0.1013210023861204 -0.7600376916980335
v 1.20088414078557 -0.1020401933947358 -0.7338483859735024
vt 0.2519355292792793 0.9234234234234233
vt 0.06443552927927927 0.9234234234234233
vt 0.06443552927927927 0.7072072072072071
vt 0.2519355292792793 0.7072072072072071
vn -0.13381032104062435 -0.9878708158542848 -0.07877848162026727
usemtl m_ac3d92fe-f5b1-a3a3-7d87-db428bb26680
f 71/48/12 72/47/12 70/46/12 69/45/12