# Made in Blockbench 4.8.1
mtllib pine_leaves_vertical_slab.mtl

o plane
v 1.2842741291851412 0.9659325284132314 -0.0036892987167426172
v 1.2842741291851412 -0.14295297704910814 0.5735599582613694
v -0.3335508708148588 0.9659325284132314 -0.0036892987167426172
v -0.3335508708148588 -0.14295297704910814 0.5735599582613694
vt 0.2734375 0.08328749999999996
vt 0.475665625 0.08328749999999996
vt 0.475665625 0.5
vt 0.2734375 0.5
vt 0.475665625 0.08328749999999996
vt 0.2734375 0.08328749999999996
vt 0.2734375 0.5
vt 0.475665625 0.5
vn 0 0.4617486132350337 0.8870108331782218
vn 0 -0.4617486132350337 -0.8870108331782218
usemtl m_791b617d-87bd-9afa-5413-97bbcb0e75fe
f 4/1/1 2/2/1 1/3/1 3/4/1
f 2/5/2 4/6/2 3/7/2 1/8/2
o plane
v -0.5156076327579675 0.1469860982914296 0.3426006884426561
v -0.11447373633655789 1.310554962913519 0.5617875113360281
v 0.976512689396976 -0.4179025269503869 0.6106221724875742
v 1.3776465858183857 0.7456663376717024 0.8298089953809462
vt 0.02734375 0.9583333333333334
vt 0.22957187499999998 0.9583333333333334
vt 0.22957187499999998 0.5416208333333332
vt 0.02734375 0.5416208333333332
vt 0.22957187499999998 0.9583333333333334
vt 0.02734375 0.9583333333333334
vt 0.02734375 0.5416208333333332
vt 0.22957187499999998 0.5416208333333332
vn -0.21541498131147022 -0.10854892896681742 0.970470770217597
vn 0.21541498131147022 0.10854892896681742 -0.970470770217597
usemtl m_791b617d-87bd-9afa-5413-97bbcb0e75fe
f 8/9/3 6/10/3 5/11/3 7/12/3
f 6/13/4 8/14/4 7/15/4 5/16/4
o plane
v 0.01010650429926474 0.7250155457997944 -0.4708322245504589
v -0.07652066851000994 1.3170187078833082 0.6268342812337169
v 1.076760395928725 -0.3084355957507888 0.17071741820879172
v 0.9901332231194505 0.28356756633272506 1.2683839239929675
vt 0.68359375 0.5520375
vt 0.885821875 0.5520375
vt 0.885821875 0.96875
vt 0.68359375 0.96875
vt 0.885821875 0.5520375
vt 0.68359375 0.5520375
vt 0.68359375 0.96875
vt 0.885821875 0.96875
vn -0.7486681581297704 -0.6063800433623713 0.26795378708729944
vn 0.7486681581297704 0.6063800433623713 -0.26795378708729944
usemtl m_791b617d-87bd-9afa-5413-97bbcb0e75fe
f 12/17/5 10/18/5 9/19/5 11/20/5
f 10/21/6 12/22/6 11/23/6 9/24/6
o plane
v 0.4296314473004529 -0.1897867523819199 -0.2959626611305881
v 0.02821191004638801 0.9934241674254738 -0.33741194659515994
v 0.23279293392896963 -0.20395023259788214 1.2060280197599016
v -0.16862660332509527 0.9792606872095115 1.1645787342953298
vt 0.44921875 0.4999541666666666
vt 0.63858125 0.4999541666666666
vt 0.63858125 0.9166666666666666
vt 0.44921875 0.9166666666666666
vt 0.63858125 0.4999541666666666
vt 0.44921875 0.4999541666666666
vt 0.44921875 0.9166666666666666
vt 0.63858125 0.9166666666666666
vn -0.9380892764513848 -0.32267212759300146 -0.1259809806340757
vn 0.9380892764513848 0.32267212759300146 0.1259809806340757
usemtl m_791b617d-87bd-9afa-5413-97bbcb0e75fe
f 16/25/7 14/26/7 13/27/7 15/28/7
f 14/29/8 16/30/8 15/31/8 13/32/8
o plane
v 1.0124773420713806 0.9060779711663686 0.28147355404731567
v -0.30877240407637674 0.5344969668825027 0.01988334835120814
v 0.9784726954837422 0.5507400231846156 0.9579723616845258
v -0.3427770506640151 0.1791590189007497 0.6963821559884182
vt 0.81045625 0.0446791666666666
vt 0.81045625 0.5104166666666667
vt 0.71484375 0.5104166666666667
vt 0.71484375 0.0446791666666666
vt 0.81045625 0.5104166666666667
vt 0.71484375 0.5104166666666667
vt 0.71484375 0.0446791666666666
vt 0.81045625 0.0446791666666666
vn -0.3221840209946451 0.8446670195281655 0.4274752422505053
vn -0.3221840209946451 0.8446670195281655 0.4274752422505053
usemtl m_791b617d-87bd-9afa-5413-97bbcb0e75fe
f 17/33/9 18/34/9 20/35/9 19/36/9
f 18/37/10 20/38/10 19/39/10 17/40/10