# Made in Blockbench 4.12.2
mtllib pine_leaves_vertical_slab_parent_2_4.mtl

o plane
v 0.5385343696930582 1.3744187904836185 -0.25436604710913446
v 0.5385343696930505 -0.495139779516382 -0.25436605777015664
v 1.2056036286982201 -0.49513978682363546 1.0270620231586622
v 1.205603628698228 1.374418783176365 1.0270620338196843
vt 0.8830273437499994 4.440892098500626e-16
vt 0.8830273437499994 0.46738906250000045
vt 0.5218617187499994 0.46738906250000045
vt 0.5218617187499994 4.440892098500626e-16
vt 0.8830273437499994 0.4673890625
vt 0.8830273437499994 0
vt 0.5218617187499994 0
vt 0.5218617187499994 0.4673890625
vn -0.8870108268213851 -2.6330844027916476e-9 0.4617486254464031
vn 0.8870108268213851 2.6330844027916476e-9 -0.46174862544640316
usemtl m_3dd4bacd-22b7-821c-3447-e91d62f94f5c
f 1/1/1 2/2/1 3/3/1 4/4/1
f 2/5/2 1/6/2 4/7/2 3/8/2
o plane
v 1.1216539407748902 -0.6217605723371099 0.74987920012547
v 0.18509132881901036 0.8587700999146122 1.4026645010236216
v 0.33089534344353655 1.5148459397276675 0.1238584153970369
v 1.2674579553994163 0.03431526747594571 -0.5289268855011144
vt 0.007812500000000056 0.2499999999999999
vt 0.47520249483877564 0.2500000000000002
vt 0.47520256850040976 0.6111648091220119
vt 0.007812573661634292 0.6111648091220115
vt 0.47677736514957614 0.24842512968919894
vt 0.009387370310800669 0.24842512968919905
vt 0.009387443972435239 0.6095899388112107
vt 0.47677743881121093 0.6095899388112106
vn -0.8595691390805771 -0.4082023373187875 -0.30742762879701346
vn 0.8595691390805773 0.40820233731878763 0.3074276287970134
usemtl m_3dd4bacd-22b7-821c-3447-e91d62f94f5c
f 5/9/3 6/10/3 7/11/3 8/12/3
f 6/13/4 5/14/4 8/15/4 7/16/4
o plane
v -0.30072061389202165 -0.0997294055842135 0.3781914821488571
v 0.44065416972175153 1.1328958247726293 1.5724476181472513
v 1.7091175743877642 1.0327894677753642 0.8883287460099129
v 0.9677427907739911 -0.1998357625814784 -0.30592738998848146
vt 0.46875027143336334 0.5390625000000004
vt 0.9361402524821291 0.5390625000000004
vt 0.9361399810487662 0.9002279196642513
vt 0.46875000000000033 0.9002279196642513
vt 0.9377153360731901 0.5374874164089385
vt 0.4703253550244243 0.5374874164089386
vt 0.4703250835910614 0.8986528360731895
vt 0.9377150646398271 0.8986528360731894
vn -0.26795379543525605 0.7486681615876097 -0.6063800354042584
vn 0.26795379543525627 -0.7486681615876097 0.6063800354042584
usemtl m_3dd4bacd-22b7-821c-3447-e91d62f94f5c
f 9/17/5 10/18/5 11/19/5 12/20/5
f 10/21/6 9/22/6 12/23/6 11/24/6
o plane
v -0.1840843147841872 0.25905740688792106 1.249958339210205
v 0.959160668362255 1.5617415264817294 1.0036457014170321
v 1.1496192841277253 1.1360599010235595 -0.36367283949821994
v 0.00637430098128311 -0.166624218570249 -0.11736020170504702
vt 0.9306589374731482 0.9070668437485949
vt 0.4930043437485956 0.9070668437485951
vt 0.49300574536270014 0.5459021609127477
vt 0.9306603390872528 0.5459021609127477
vt 0.4921874999999999 0.9062499999999991
vt 0.9298420937245524 0.9062499999999993
vt 0.9298434953386574 0.545085317164152
vt 0.4921889016141048 0.5450853171641517
vn -0.7457494011616856 0.5995412490704042 -0.2905307579759618
vn 0.7457494011616856 -0.5995412490704042 0.29053075797596173
usemtl m_3dd4bacd-22b7-821c-3447-e91d62f94f5c
f 13/25/7 14/26/7 15/27/7 16/28/7
f 14/29/8 13/30/8 16/31/8 15/32/8
o plane
v 0.45910104312416133 1.385080561794674 0.18036657742529805
v 0.9385694350918495 -0.18105141924054735 1.0203941031319106
v 1.240863070882794 1.3457847898564166 0.5909950991265085
v 0.15680740733321696 -0.14175564730228984 0.6097655814307001
vt 0.4529438661991618 0.5727254386718328
vt 0.049289738997744026 0.5727254386718328
vt 0.0492879386718329 0.35174687051498765
vt 0.4529439180872086 0.35174566547724806
vt 0.04928793867541281 0.5727221500769697
vt 0.0492879386754127 0.35174358191279087
vt 0.4529439180872097 0.3517456654850053
vt 0.45294206586343444 0.5727254386718337
vn -0.4274752306220765 0.32218401617799425 0.8446670272503956
vn -0.42747523062207654 0.3221840161779943 0.8446670272503956
usemtl m_3dd4bacd-22b7-821c-3447-e91d62f94f5c
f 18/33/9 19/34/9 17/35/9 20/36/9
f 19/37/10 17/38/10 20/39/10 18/40/10