# Made in Blockbench 4.12.2
mtllib pine_leaves_vertical_slab_parent_1_2.mtl

o plane
v 1.2336126041752655 -0.31350461501871635 0.4407121627981202
v 1.2336126148362871 1.5560539549812842 0.44071217787508243
v -0.047815479079906686 1.5560539676680814 -0.22635705618157248
v -0.047815489740928196 -0.3135046023319193 -0.22635707125853471
vt 0.8830273437499994 4.440892098500626e-16
vt 0.8830273437499994 0.46738906250000045
vt 0.5218617187499994 0.46738906250000045
vt 0.5218617187499994 4.440892098500626e-16
vt 0.8830273437499994 0.4673890625
vt 0.8830273437499994 0
vt 0.5218617187499994 0
vt 0.5218617187499994 0.4673890625
vn -0.4617486081769184 -4.520167033142476e-9 0.88701083581131
vn 0.46174860817691843 4.520167033142476e-9 -0.88701083581131
usemtl m_3dd4bacd-22b7-821c-3447-e91d62f94f5c
f 1/1/1 2/2/1 3/3/1 4/4/1
f 2/5/2 1/6/2 4/7/2 3/8/2
o plane
v 0.22936734558772748 1.682674752504548 -0.14240737263367315
v -0.4234179370761999 0.20214407269996654 0.794155240091823
v 0.8553881457116819 -0.45393176593725953 0.6483511952789422
v 1.508173428375609 1.026598913867322 -0.28821141744655354
vt 0.007812500000000056 0.2499999999999999
vt 0.47520249483877564 0.2500000000000002
vt 0.47520256850040976 0.6111648091220119
vt 0.007812573661634292 0.6111648091220115
vt 0.47677736514957614 0.24842512968919894
vt 0.009387370310800669 0.24842512968919905
vt 0.009387443972435239 0.6095899388112107
vt 0.47677743881121093 0.6095899388112106
vn 0.30742764553222734 0.40820233038683856 0.8595691363871005
vn -0.30742764553222723 -0.40820233038683856 -0.8595691363871005
usemtl m_3dd4bacd-22b7-821c-3447-e91d62f94f5c
f 5/9/3 6/10/3 7/11/3 8/12/3
f 6/13/4 5/14/4 8/15/4 7/16/4
o plane
v 0.6010550912569852 1.1606435742809884 1.2799671705868447
v -0.5932010591754605 -0.07198165009707774 0.5385924002839689
v 0.09091778826577634 0.028124717129642818 -0.7298710168940604
v 1.2851739386982222 1.260749941507709 0.011503753408815293
vt 0.46875027143336334 0.5390625000000004
vt 0.9361402524821291 0.5390625000000004
vt 0.9361399810487662 0.9002279196642513
vt 0.46875000000000033 0.9002279196642513
vt 0.9377153360731901 0.5374874164089385
vt 0.4703253550244243 0.5374874164089386
vt 0.4703250835910614 0.8986528360731895
vt 0.9377150646398271 0.8986528360731894
vn 0.6063800406211329 -0.7486681637485084 0.26795377759186356
vn -0.6063800406211329 0.7486681637485084 -0.2679537775918638
usemtl m_3dd4bacd-22b7-821c-3447-e91d62f94f5c
f 9/17/5 10/18/5 11/19/5 12/20/5
f 10/21/6 9/22/6 12/23/6 11/24/6
o plane
v -0.27071176807519015 0.8018567627494605 1.1633308855582882
v -0.024399152540202584 -0.5008273476247098 0.020085887110884187
v 1.342919384666952 -0.0751457206305956 -0.17037275184244155
v 1.0966067691319645 1.2275383897435745 0.9728722466049623
vt 0.9306589374731482 0.9070668437485949
vt 0.4930043437485956 0.9070668437485951
vt 0.49300574536270014 0.5459021609127477
vt 0.9306603390872528 0.5459021609127477
vt 0.4921874999999999 0.9062499999999991
vt 0.9298420937245524 0.9062499999999993
vt 0.9298434953386574 0.545085317164152
vt 0.4921889016141048 0.5450853171641517
vn 0.29053077249518483 -0.59954125508446 0.7457493906702851
vn -0.29053077249518483 0.5995412550844601 -0.7457493906702852
usemtl m_3dd4bacd-22b7-821c-3447-e91d62f94f5c
f 13/25/7 14/26/7 15/27/7 16/28/7
f 14/29/8 13/30/8 16/31/8 15/32/8
o plane
v 0.7988799811873448 -0.3241663869703579 0.520145497744978
v -0.04114755385418467 1.24196559793151 0.04067713476202961
v 0.38825144426577074 -0.28487060872762276 -0.2616165217021038
v 0.3694809830673894 1.2026698196887748 0.8224391542091113
vt 0.4529438661991618 0.5727254386718328
vt 0.049289738997744026 0.5727254386718328
vt 0.0492879386718329 0.35174687051498765
vt 0.4529439180872086 0.35174566547724806
vt 0.04928793867541281 0.5727221500769697
vt 0.0492879386754127 0.35174358191279087
vt 0.4529439180872097 0.3517456654850053
vt 0.45294206586343444 0.5727254386718337
vn -0.8446670189277495 -0.3221840196253457 0.42747524446892105
vn -0.8446670189277495 -0.32218401962534576 0.4274752444689211
usemtl m_3dd4bacd-22b7-821c-3447-e91d62f94f5c
f 18/33/9 19/34/9 17/35/9 20/36/9
f 19/37/10 17/38/10 20/39/10 18/40/10