# Made in Blockbench 4.8.1
mtllib pine_leaves_vertical_slab_2.mtl

o plane
v 0.022786392391285548 1.3222697916193757 -0.14089632996674262
v 1.131671897853625 1.3222697916193753 0.4363529270113694
v 0.022786392391285215 -0.29555520838062443 -0.14089632996674262
v 1.1316718978536247 -0.29555520838062466 0.4363529270113694
vt 0.2734375 0.08328749999999996
vt 0.475665625 0.08328749999999996
vt 0.475665625 0.5
vt 0.2734375 0.5
vt 0.475665625 0.08328749999999996
vt 0.2734375 0.08328749999999996
vt 0.2734375 0.5
vt 0.475665625 0.5
vn -0.4617486132350337 1.0252878840045414e-16 0.8870108331782218
vn 0.4617486132350337 -1.0252878840045414e-16 -0.8870108331782218
usemtl m_791b617d-87bd-9afa-5413-97bbcb0e75fe
f 4/1/1 2/2/1 1/3/1 3/4/1
f 2/5/2 4/6/2 3/7/2 1/8/2
o plane
v 0.8417328225130869 -0.47761197032373337 0.20539365719265612
v -0.3218360421090023 -0.07647807390232342 0.4245804800860281
v 1.4066214477549037 1.01450835183121 0.4734151412375742
v 0.24305258313281458 1.4156422482526199 0.6926019641309462
vt 0.02734375 0.9583333333333334
vt 0.22957187499999998 0.9583333333333334
vt 0.22957187499999998 0.5416208333333332
vt 0.02734375 0.5416208333333332
vt 0.22957187499999998 0.9583333333333334
vt 0.02734375 0.9583333333333334
vt 0.02734375 0.5416208333333332
vt 0.22957187499999998 0.5416208333333332
vn 0.10854892896681737 -0.21541498131147024 0.9704707702175971
vn -0.10854892896681737 0.21541498131147024 -0.9704707702175971
usemtl m_791b617d-87bd-9afa-5413-97bbcb0e75fe
f 8/9/3 6/10/3 5/11/3 7/12/3
f 6/13/4 8/14/4 7/15/4 5/16/4
o plane
v 0.26370337500472224 0.04810216673349904 -0.6080392558004589
v -0.3282997870787916 -0.03852500607577558 0.4896272499837169
v 1.2971545165553056 1.1147560583629592 0.033510386958791716
v 0.7051513544717918 1.0281288855536848 1.1311768927429675
vt 0.68359375 0.5520375
vt 0.885821875 0.5520375
vt 0.885821875 0.96875
vt 0.68359375 0.96875
vt 0.885821875 0.5520375
vt 0.68359375 0.5520375
vt 0.68359375 0.96875
vt 0.885821875 0.96875
vn 0.6063800433623713 -0.7486681581297706 0.2679537870872995
vn -0.6063800433623713 0.7486681581297706 -0.2679537870872995
usemtl m_791b617d-87bd-9afa-5413-97bbcb0e75fe
f 12/17/5 10/18/5 9/19/5 11/20/5
f 10/21/6 12/22/6 11/23/6 9/24/6
o plane
v 1.1785056731864367 0.46762710973468696 -0.4331696923805881
v -0.004705246620957282 0.06620757248062231 -0.47461897784515994
v 1.1926691534023988 0.2707885963632037 1.0688209885099016
v 0.009458233595004972 -0.1306309408908609 1.0273717030453298
vt 0.44921875 0.4999541666666666
vt 0.63858125 0.4999541666666666
vt 0.63858125 0.9166666666666666
vt 0.44921875 0.9166666666666666
vt 0.63858125 0.4999541666666666
vt 0.44921875 0.4999541666666666
vt 0.44921875 0.9166666666666666
vt 0.63858125 0.9166666666666666
vn 0.32267212759300123 -0.938089276451385 -0.1259809806340757
vn -0.32267212759300123 0.938089276451385 0.1259809806340757
usemtl m_791b617d-87bd-9afa-5413-97bbcb0e75fe
f 16/25/7 14/26/7 13/27/7 15/28/7
f 14/29/8 16/30/8 15/31/8 13/32/8
o plane
v 0.08264094963814828 1.0504730045056148 0.14426652279731564
v 0.4542219539220138 -0.2707767416421424 -0.11732368289879186
v 0.4379788976199013 1.0164683579179763 0.8207653304345258
v 0.8095599019037668 -0.30478138822978085 0.5591751247384182
vt 0.81045625 0.0446791666666666
vt 0.81045625 0.5104166666666667
vt 0.71484375 0.5104166666666667
vt 0.71484375 0.0446791666666666
vt 0.81045625 0.5104166666666667
vt 0.71484375 0.5104166666666667
vt 0.71484375 0.0446791666666666
vt 0.81045625 0.0446791666666666
vn -0.8446670195281655 -0.3221840209946448 0.4274752422505053
vn -0.8446670195281655 -0.3221840209946448 0.4274752422505053
usemtl m_791b617d-87bd-9afa-5413-97bbcb0e75fe
f 17/33/9 18/34/9 20/35/9 19/36/9
f 18/37/10 20/38/10 19/39/10 17/40/10