# Made in Blockbench 4.12.2
mtllib pine_leaves_vertical_slab_parent_4_3.mtl

o plane
v 0.4199587382754373 -0.223908976523567 1.3439616725249435
v 0.4199587382754375 -0.223908947786588 -0.5255968974750568
v -0.24711052072973622 1.0575191331422287 -0.5255968777782297
v -0.24711052072973644 1.0575191044052494 1.3439616922217705
vt 0.8830273437499994 4.440892098500626e-16
vt 0.8830273437499994 0.46738906250000045
vt 0.5218617187499994 0.46738906250000045
vt 0.5218617187499994 4.440892098500626e-16
vt 0.8830273437499994 0.4673890625
vt 0.8830273437499994 0
vt 0.5218617187499994 0
vt 0.5218617187499994 0.4673890625
vn 0.8870108268213839 0.4617486254464059 7.097536825191956e-9
vn -0.8870108268213839 -0.46174862544640594 -7.097536825191957e-9
usemtl m_3dd4bacd-22b7-821c-3447-e91d62f94f5c
f 1/1/1 2/2/1 3/3/1 4/4/1
f 2/5/2 1/6/2 4/7/2 3/8/2
o plane
v -0.16316083280640592 0.7803363127773704 -0.6522176691328959
v 0.773401779149478 1.4331215824756733 0.828313016875244
v 0.6275977645249584 0.15431548302332393 1.4843888297394767
v -0.3089648474309253 -0.4984697866749789 0.0038581437313368605
vt 0.007812500000000056 0.2499999999999999
vt 0.47520249483877564 0.2500000000000002
vt 0.47520256850040976 0.6111648091220119
vt 0.007812573661634292 0.6111648091220115
vt 0.47677736514957614 0.24842512968919894
vt 0.009387370310800669 0.24842512968919905
vt 0.009387443972435239 0.6095899388112107
vt 0.47677743881121093 0.6095899388112106
vn 0.8595691390805765 -0.30742762019478964 -0.40820234379734366
vn -0.8595691390805766 0.3074276201947896 0.4082023437973438
usemtl m_3dd4bacd-22b7-821c-3447-e91d62f94f5c
f 5/9/3 6/10/3 7/11/3 8/12/3
f 6/13/4 5/14/4 8/15/4 7/16/4
o plane
v 1.2592137218605093 0.4086485837997776 -0.1301865102127383
v 0.5178389382467373 1.6029046938225346 1.1024387453111735
v -0.7506244664192736 0.9187858237947761 1.0023323738971865
v -0.009249682805501674 -0.275470286227981 -0.23029288162672512
vt 0.46875027143336334 0.5390625000000004
vt 0.9361402524821291 0.5390625000000004
vt 0.9361399810487662 0.9002279196642513
vt 0.46875000000000033 0.9002279196642513
vt 0.9377153360731901 0.5374874164089385
vt 0.4703253550244243 0.5374874164089386
vt 0.4703250835910614 0.8986528360731895
vt 0.9377150646398271 0.8986528360731894
vn 0.267953795435261 -0.6063800511812594 0.7486681488091047
vn -0.26795379543526116 0.6063800511812593 -0.7486681488091046
usemtl m_3dd4bacd-22b7-821c-3447-e91d62f94f5c
f 9/17/5 10/18/5 11/19/5 12/20/5
f 10/21/6 9/22/6 12/23/6 11/24/6
o plane
v 1.1425774227526735 1.280415433300258 0.22860032063050967
v -0.0006675603937626728 1.0341027680550663 1.5312844350336716
v -0.19112617615923044 -0.3332157638896164 1.1056027807614188
v 0.9521188069872055 -0.08690309864442458 -0.1970813336417433
vt 0.9306589374731482 0.9070668437485949
vt 0.4930043437485956 0.9070668437485951
vt 0.49300574536270014 0.5459021609127477
vt 0.9306603390872528 0.5459021609127477
vt 0.4921874999999999 0.9062499999999991
vt 0.9298420937245524 0.9062499999999993
vt 0.9298434953386574 0.545085317164152
vt 0.4921889016141048 0.5450853171641517
vn 0.745749401161689 -0.2905307706103466 0.5995412429479231
vn -0.745749401161689 0.29053077061034654 -0.5995412429479231
usemtl m_3dd4bacd-22b7-821c-3447-e91d62f94f5c
f 13/25/7 14/26/7 15/27/7 16/28/7
f 14/29/8 13/30/8 16/31/8 15/32/8
o plane
v 0.49939206484433285 0.2108236477861855 1.3546234529973038
v 0.019923672876635795 1.0508512064965605 -0.21150851033565854
v -0.2823699629143013 0.6214521703154899 1.3153276897123989
v 0.8016857006352698 0.640222683967256 -0.1722127470507533
vt 0.4529438661991618 0.5727254386718328
vt 0.049289738997744026 0.5727254386718328
vt 0.0492879386718329 0.35174687051498765
vt 0.4529439180872086 0.35174566547724806
vt 0.04928793867541281 0.5727221500769697
vt 0.0492879386754127 0.35174358191279087
vt 0.4529439180872097 0.3517456654850053
vt 0.45294206586343444 0.5727254386718337
vn 0.42747523062207515 0.8446670204608762 0.32218403397801926
vn 0.4274752306220752 0.8446670204608762 0.3221840339780193
usemtl m_3dd4bacd-22b7-821c-3447-e91d62f94f5c
f 18/33/9 19/34/9 17/35/9 20/36/9
f 19/37/10 17/38/10 20/39/10 18/40/10