# Made in Blockbench 4.12.2
mtllib pine_leaves_vertical_slab_parent_2_3.mtl

o plane
v 0.5385343696930524 -0.22390895873840355 -0.3439617021128879
v 0.5385343696930521 -0.22390896939942617 1.5255968678871126
v 1.2056036286982261 1.0575191115293905 1.5255968751943638
v 1.2056036286982263 1.057519122190413 -0.34396169480563676
vt 0.8830273437499994 4.440892098500626e-16
vt 0.8830273437499994 0.46738906250000045
vt 0.5218617187499994 0.46738906250000045
vt 0.5218617187499994 4.440892098500626e-16
vt 0.8830273437499994 0.4673890625
vt 0.8830273437499994 0
vt 0.5218617187499994 0
vt 0.5218617187499994 0.4673890625
vn -0.8870108268213838 0.46174862544640616 2.6330880505278743e-9
vn 0.8870108268213838 -0.4617486254464062 -2.6330880505278743e-9
usemtl m_3dd4bacd-22b7-821c-3447-e91d62f94f5c
f 1/1/1 2/2/1 3/3/1 4/4/1
f 2/5/2 1/6/2 4/7/2 3/8/2
o plane
v 1.1216539407748958 0.7803362884961985 1.6522176607078385
v 0.18509132881901214 1.4331215893943536 0.17168698845612018
v 0.3308953434435313 0.15431550376776854 -0.4843888513569361
v 1.267457955399415 -0.4984697971303862 0.9961418208947821
vt 0.007812500000000056 0.2499999999999999
vt 0.47520249483877564 0.2500000000000002
vt 0.47520256850040976 0.6111648091220119
vt 0.007812573661634292 0.6111648091220115
vt 0.47677736514957614 0.24842512968919894
vt 0.009387370310800669 0.24842512968919905
vt 0.009387443972435239 0.6095899388112107
vt 0.47677743881121093 0.6095899388112106
vn -0.8595691390805765 -0.3074276287970107 0.4082023373187909
vn 0.8595691390805766 0.30742762879701063 -0.408202337318791
usemtl m_3dd4bacd-22b7-821c-3447-e91d62f94f5c
f 5/9/3 6/10/3 7/11/3 8/12/3
f 6/13/4 5/14/4 8/15/4 7/16/4
o plane
v -0.30072061389201943 0.40864857051959047 1.1301864939549477
v 0.44065416972175275 1.6029047065179824 -0.10243873640189782
v 1.7091175743877636 0.9187858343806398 -0.0023323794046380963
v 0.9677427907739913 -0.2754703016177523 1.2302928509522073
vt 0.46875027143336334 0.5390625000000004
vt 0.9361402524821291 0.5390625000000004
vt 0.9361399810487662 0.9002279196642513
vt 0.46875000000000033 0.9002279196642513
vt 0.9377153360731901 0.5374874164089385
vt 0.4703253550244243 0.5374874164089386
vt 0.4703250835910614 0.8986528360731895
vt 0.9377150646398271 0.8986528360731894
vn -0.2679537954352611 -0.6063800354042574 -0.7486681615876088
vn 0.26795379543526127 0.6063800354042573 0.7486681615876087
usemtl m_3dd4bacd-22b7-821c-3447-e91d62f94f5c
f 9/17/5 10/18/5 11/19/5 12/20/5
f 10/21/6 9/22/6 12/23/6 11/24/6
o plane
v -0.18408431478418352 1.2804154275809378 0.7713996814828128
v 0.9591606683622527 1.0341027897877615 -0.5312844381110003
v 1.14961928412772 -0.33321575112749113 -0.10560281265283133
v 0.006374300981283998 -0.08690311333431466 1.1970813069409818
vt 0.9306589374731482 0.9070668437485949
vt 0.4930043437485956 0.9070668437485951
vt 0.49300574536270014 0.5459021609127477
vt 0.9306603390872528 0.5459021609127477
vt 0.4921874999999999 0.9062499999999991
vt 0.9298420937245524 0.9062499999999993
vt 0.9298434953386574 0.545085317164152
vt 0.4921889016141048 0.5450853171641517
vn -0.7457494011616891 -0.2905307579759592 -0.5995412490704013
vn 0.7457494011616891 0.2905307579759591 0.5995412490704014
usemtl m_3dd4bacd-22b7-821c-3447-e91d62f94f5c
f 13/25/7 14/26/7 15/27/7 16/28/7
f 14/29/8 13/30/8 16/31/8 15/32/8
o plane
v 0.4591010431241569 0.21082366579602918 -0.35462347342394307
v 0.9385694350918541 1.0508511915026397 1.2115085076112766
v 1.240863070882791 0.6214521874972371 -0.31532770148568867
v 0.15680740733322007 0.6402226698014319 1.172212735673022
vt 0.4529438661991618 0.5727254386718328
vt 0.049289738997744026 0.5727254386718328
vt 0.0492879386718329 0.35174687051498765
vt 0.4529439180872086 0.35174566547724806
vt 0.04928793867541281 0.5727221500769697
vt 0.0492879386754127 0.35174358191279087
vt 0.4529439180872097 0.3517456654850053
vt 0.45294206586343444 0.5727254386718337
vn -0.42747523062207504 0.8446670272503972 -0.3221840161779924
vn -0.427475230622075 0.844667027250397 -0.3221840161779924
usemtl m_3dd4bacd-22b7-821c-3447-e91d62f94f5c
f 18/33/9 19/34/9 17/35/9 20/36/9
f 19/37/10 17/38/10 20/39/10 18/40/10