# Made in Blockbench 4.8.1
mtllib pine_leaves_vertical_slab_3.mtl

o plane
v 0.9279368659789979 1.3222697916193749 0.8277242818804303
v -0.1809486394833414 1.3222697916193762 0.25047502490231854
v 0.9279368659789962 -0.2955552083806251 0.8277242818804302
v -0.18094863948334328 -0.29555520838062377 0.25047502490231843
vt 0.2734375 0.08328749999999996
vt 0.475665625 0.08328749999999996
vt 0.475665625 0.5
vt 0.2734375 0.5
vt 0.475665625 0.08328749999999996
vt 0.2734375 0.08328749999999996
vt 0.2734375 0.5
vt 0.475665625 0.5
vn 0.4617486132350336 -4.634049494979503e-16 -0.8870108331782219
vn -0.4617486132350336 4.634049494979503e-16 0.8870108331782219
usemtl m_791b617d-87bd-9afa-5413-97bbcb0e75fe
f 4/1/1 2/2/1 1/3/1 3/4/1
f 2/5/2 4/6/2 3/7/2 1/8/2
o plane
v 0.10899043585719415 -0.4776119703237328 0.48143429472103155
v 1.272559300479284 -0.07647807390232442 0.26224747182765945
v -0.4558981893846207 1.014508351831211 0.2134128106761137
v 0.7076706752374692 1.4156422482526194 -0.005774012217258373
vt 0.02734375 0.9583333333333334
vt 0.22957187499999998 0.9583333333333334
vt 0.22957187499999998 0.5416208333333332
vt 0.02734375 0.5416208333333332
vt 0.22957187499999998 0.9583333333333334
vt 0.02734375 0.9583333333333334
vt 0.02734375 0.5416208333333332
vt 0.22957187499999998 0.5416208333333332
vn -0.1085489289668178 -0.2154149813114701 -0.9704707702175971
vn 0.1085489289668178 0.2154149813114701 0.9704707702175971
usemtl m_791b617d-87bd-9afa-5413-97bbcb0e75fe
f 8/9/3 6/10/3 5/11/3 7/12/3
f 6/13/4 8/14/4 7/15/4 5/16/4
o plane
v 0.6870198833655596 0.048102166733498763 1.2948672077141468
v 1.2790230454490732 -0.03852500607577658 0.1972007019299707
v -0.3464312581850224 1.1147560583629603 0.6533175649548962
v 0.24557190389849126 1.0281288855536852 -0.44434894082927967
vt 0.68359375 0.5520375
vt 0.885821875 0.5520375
vt 0.885821875 0.96875
vt 0.68359375 0.96875
vt 0.885821875 0.5520375
vt 0.68359375 0.5520375
vt 0.68359375 0.96875
vt 0.885821875 0.96875
vn -0.6063800433623722 -0.7486681581297698 -0.26795378708729944
vn 0.6063800433623722 0.7486681581297698 0.26795378708729944
usemtl m_791b617d-87bd-9afa-5413-97bbcb0e75fe
f 12/17/5 10/18/5 9/19/5 11/20/5
f 10/21/6 12/22/6 11/23/6 9/24/6
o plane
v -0.22778241481615424 0.4676271097346879 1.1199976442942758
v 0.9554285049912392 0.06620757248062165 1.1614469297588474
v -0.24194589503211694 0.27078859636320474 -0.38199303659621375
v 0.9412650247752765 -0.13063094089086158 -0.34054375113164215
vt 0.44921875 0.4999541666666666
vt 0.63858125 0.4999541666666666
vt 0.63858125 0.9166666666666666
vt 0.44921875 0.9166666666666666
vt 0.63858125 0.4999541666666666
vt 0.44921875 0.4999541666666666
vt 0.44921875 0.9166666666666666
vt 0.63858125 0.9166666666666666
vn -0.32267212759300246 -0.9380892764513843 0.12598098063407567
vn 0.32267212759300246 0.9380892764513843 -0.12598098063407567
usemtl m_791b617d-87bd-9afa-5413-97bbcb0e75fe
f 16/25/7 14/26/7 13/27/7 15/28/7
f 14/29/8 16/30/8 15/31/8 13/32/8
o plane
v 0.868082308732135 1.0504730045056143 0.5425614291163721
v 0.4965013044482677 -0.2707767416421424 0.8041516348124795
v 0.5127443607503818 1.0164683579179763 -0.13393737852083804
v 0.14116335646651446 -0.3047813882297804 0.1276528271752694
vt 0.81045625 0.0446791666666666
vt 0.81045625 0.5104166666666667
vt 0.71484375 0.5104166666666667
vt 0.71484375 0.0446791666666666
vt 0.81045625 0.5104166666666667
vt 0.71484375 0.5104166666666667
vt 0.71484375 0.0446791666666666
vt 0.81045625 0.0446791666666666
vn 0.8446670195281649 -0.32218402099464594 -0.42747524225050537
vn 0.8446670195281649 -0.32218402099464594 -0.42747524225050537
usemtl m_791b617d-87bd-9afa-5413-97bbcb0e75fe
f 17/33/9 18/34/9 20/35/9 19/36/9
f 18/37/10 20/38/10 19/39/10 17/40/10