# Made in Blockbench 4.12.2
mtllib pine_leaves_vertical_slab_parent_4_2.mtl

o plane
v 0.4199587382754332 1.3744188099534793 1.2543660116359792
v 0.4199587382754371 -0.49513976004652027 1.2543660705494994
v -0.24711052072973236 -0.4951398004268771 -0.027062010379318713
v -0.2471105207297363 1.3744187695731225 -0.027062069292838886
vt 0.8830273437499994 4.440892098500626e-16
vt 0.8830273437499994 0.46738906250000045
vt 0.5218617187499994 0.46738906250000045
vt 0.5218617187499994 4.440892098500626e-16
vt 0.8830273437499994 0.4673890625
vt 0.8830273437499994 0
vt 0.5218617187499994 0
vt 0.5218617187499994 0.4673890625
vn 0.8870108268213852 -1.4550618489419495e-8 -0.4617486254464027
vn -0.8870108268213852 1.4550618489419495e-8 0.46174862544640277
usemtl m_3dd4bacd-22b7-821c-3447-e91d62f94f5c
f 1/1/1 2/2/1 3/3/1 4/4/1
f 2/5/2 1/6/2 4/7/2 3/8/2
o plane
v -0.16316083280640278 -0.6217605787863828 0.25012081592190105
v 0.7734017791494802 0.8587700766172308 -0.40266452318810636
v 0.6275977645249552 1.5148459494357183 0.876141545505444
v -0.30896484743092745 0.03431529403210476 1.5289268846154513
vt 0.007812500000000056 0.2499999999999999
vt 0.47520249483877564 0.2500000000000002
vt 0.47520256850040976 0.6111648091220119
vt 0.007812573661634292 0.6111648091220115
vt 0.47677736514957614 0.24842512968919894
vt 0.009387370310800669 0.24842512968919905
vt 0.009387443972435239 0.6095899388112107
vt 0.47677743881121093 0.6095899388112106
vn 0.8595691390805763 -0.40820232938421486 0.3074276393325392
vn -0.8595691390805763 0.40820232938421497 -0.30742763933253914
usemtl m_3dd4bacd-22b7-821c-3447-e91d62f94f5c
f 5/9/3 6/10/3 7/11/3 8/12/3
f 6/13/4 5/14/4 8/15/4 7/16/4
o plane
v 1.2592137218605097 -0.09972940244038986 0.6218085204251154
v 0.5178389382467394 1.1328957970932194 -0.5724476473868025
v -0.7506244664192733 1.0327894577527688 0.11167122733423729
v -0.00924968280550273 -0.19983574178084018 1.3059273951461552
vt 0.46875027143336334 0.5390625000000004
vt 0.9361402524821291 0.5390625000000004
vt 0.9361399810487662 0.9002279196642513
vt 0.46875000000000033 0.9002279196642513
vt 0.9377153360731901 0.5374874164089385
vt 0.4703253550244243 0.5374874164089386
vt 0.4703250835910614 0.8986528360731895
vt 0.9377150646398271 0.8986528360731894
vn 0.2679537954352574 0.7486681772380155 0.6063800160814569
vn -0.26795379543525755 -0.7486681772380154 -0.6063800160814568
usemtl m_3dd4bacd-22b7-821c-3447-e91d62f94f5c
f 9/17/5 10/18/5 11/19/5 12/20/5
f 10/21/6 9/22/6 12/23/6 11/24/6
o plane
v 1.1425774227526764 0.2590573875318192 -0.2499583458963645
v -0.0006675603937630614 1.5617415134828518 -0.0036457417249056157
v -0.19112617615923436 1.1360599233145825 1.3636728101770044
v 0.9521188069872049 -0.16662420263645006 1.1173602060055454
vt 0.9306589374731482 0.9070668437485949
vt 0.4930043437485956 0.9070668437485951
vt 0.49300574536270014 0.5459021609127477
vt 0.9306603390872528 0.5459021609127477
vt 0.4921874999999999 0.9062499999999991
vt 0.9298420937245524 0.9062499999999993
vt 0.9298434953386574 0.545085317164152
vt 0.4921889016141048 0.5450853171641517
vn 0.7457494011616869 0.5995412565688756 0.29053074250206146
vn -0.7457494011616869 -0.5995412565688757 -0.29053074250206146
usemtl m_3dd4bacd-22b7-821c-3447-e91d62f94f5c
f 13/25/7 14/26/7 15/27/7 16/28/7
f 14/29/8 13/30/8 16/31/8 15/32/8
o plane
v 0.4993920648443301 1.3850805700442737 0.8196333868263712
v 0.01992367287663893 -0.18105143267169332 -0.02039409845905199
v -0.2823699629143025 1.345784787507873 0.40900486613936765
v 0.8016857006352714 -0.14175565013529268 0.39023442222795146
vt 0.4529438661991618 0.5727254386718328
vt 0.049289738997744026 0.5727254386718328
vt 0.0492879386718329 0.35174687051498765
vt 0.4529439180872086 0.35174566547724806
vt 0.04928793867541281 0.5727221500769697
vt 0.0492879386754127 0.35174358191279087
vt 0.4529439180872097 0.3517456654850053
vt 0.45294206586343444 0.5727254386718337
vn 0.42747523062207726 0.32218399437750267 -0.8446670355658253
vn 0.4274752306220773 0.3221839943775027 -0.8446670355658253
usemtl m_3dd4bacd-22b7-821c-3447-e91d62f94f5c
f 18/33/9 19/34/9 17/35/9 20/36/9
f 19/37/10 17/38/10 20/39/10 18/40/10