# Made in Blockbench 4.8.1
mtllib pine_leaves_green_vertical_slab_2.mtl

o plane
v 1.193766306664048 1.3588300483478577 0.054450175654272126
v 0.732559964146914 -0.28110513657073866 -0.27023558765573646
v 0.7527208456290961 1.3166234810032806 0.8941204956935773
v 0.29151450311196225 -0.3233117039153155 0.5694347323835689
vt 0.81045625 0.0446791666666666
vt 0.81045625 0.5104166666666667
vt 0.71484375 0.5104166666666667
vt 0.71484375 0.0446791666666666
vt 0.71484375 0.0446791666666666
vt 0.71484375 0.5104166666666667
vt 0.81045625 0.5104166666666667
vt 0.81045625 0.0446791666666666
vn -0.8446670195281655 0.3221840209946448 -0.4274752422505053
vn 0.8446670195281655 -0.3221840209946448 0.4274752422505053
usemtl m_791b617d-87bd-9afa-5413-97bbcb0e75fe
f 1/1/1 2/2/1 4/3/1 3/4/1
f 3/5/2 4/6/2 2/7/2 1/8/2
o plane
v -0.31103418600134036 1.0805058903276374 0.5947830731827244
v 0.37726085534810816 0.27542702280864234 -0.7783948100998161
v 0.8859365668784628 1.0389779748532755 1.21910297481022
v 1.5742316082279113 0.23389910733428038 -0.15407490847232036
vt 0.27837656249999987 0.5611583333333332
vt 0.48097187499999994 0.5611583333333332
vt 0.48097187499999994 0.9819208333333332
vt 0.27837656249999987 0.9819208333333332
vt 0.27837656249999987 0.9819208333333332
vt 0.48097187499999994 0.9819208333333332
vt 0.48097187499999994 0.5611583333333332
vt 0.27837656249999987 0.5611583333333332
vn -0.23893125043281488 -0.8851802960142869 0.39920884398353557
vn 0.23893125043281488 0.8851802960142869 -0.39920884398353557
usemtl m_791b617d-87bd-9afa-5413-97bbcb0e75fe
f 5/9/3 6/10/3 8/11/3 7/12/3
f 7/13/4 8/14/4 6/15/4 5/16/4
o plane
v -0.12019867748227686 1.3340728070766201 0.4563486751301954
v -0.06483220202681184 -0.3851797243643784 0.23583828413334904
v 1.1273733711285618 1.4392382158218815 -0.05034956930119394
v 1.1827398465840269 -0.28001431561911694 -0.2708599602980403
vt 0.46534687499999994 0.10282499999999983
vt 0.26275156249999987 0.10282499999999983
vt 0.26275156249999987 0.5235874999999999
vt 0.46534687499999994 0.5235874999999999
vt 0.46534687499999994 0.5235874999999999
vt 0.26275156249999987 0.5235874999999999
vt 0.26275156249999987 0.10282499999999983
vt 0.46534687499999994 0.10282499999999983
vn 0.3818157455912051 -0.10547199107862759 0.9182006292290057
vn -0.3818157455912051 0.10547199107862759 -0.9182006292290057
usemtl m_791b617d-87bd-9afa-5413-97bbcb0e75fe
f 9/17/5 10/18/5 12/19/5 11/20/5
f 11/21/6 12/22/6 10/23/6 9/24/6
o plane
v 0.010085944488030352 1.3405133877265136 0.4388457164519757
v 0.06545241994349571 -0.37873914371448447 0.21833532545512588
v 1.3137879000819286 1.33722554624149 0.791817799853014
v 1.3691543755373938 -0.3820269851995084 0.5713074088561643
vt 0.23878437499999994 0.5715749999999999
vt 0.03618906249999987 0.5715749999999999
vt 0.03618906249999987 0.9923375
vt 0.23878437499999994 0.9923375
vt 0.23878437499999994 0.9923375
vt 0.03618906249999987 0.9923375
vt 0.03618906249999987 0.5715749999999999
vt 0.23878437499999994 0.5715749999999999
vn -0.25939015559328105 -0.1310766486802525 0.9568362761476213
vn 0.25939015559328105 0.1310766486802525 -0.9568362761476213
usemtl m_791b617d-87bd-9afa-5413-97bbcb0e75fe
f 13/25/7 14/26/7 16/27/7 15/28/7
f 15/29/8 16/30/8 14/31/8 13/32/8
o plane
v -0.31843811379962395 0.2022975564070435 0.5505623517913587
v 0.4612563120260609 0.7184986890088653 -0.9099623960459304
v 0.8785326390801796 0.1607696409326831 1.1748822534188539
v 1.6582270649058646 0.6769707735345047 -0.2856424944184351
vt 0.47368906249999987 0.4674083333333332
vt 0.6762843749999999 0.4674083333333332
vt 0.6762843749999999 0.8881708333333332
vt 0.47368906249999987 0.8881708333333332
vt 0.47368906249999987 0.8881708333333332
vt 0.6762843749999999 0.8881708333333332
vt 0.6762843749999999 0.4674083333333332
vt 0.47368906249999987 0.4674083333333332
vn 0.11169386770554274 -0.9541779231755936 -0.27761298752271674
vn -0.11169386770554274 0.9541779231755936 0.27761298752271674
usemtl m_791b617d-87bd-9afa-5413-97bbcb0e75fe
f 17/33/9 18/34/9 20/35/9 19/36/9
f 19/37/10 20/38/10 18/39/10 17/40/10