# Made in Blockbench 4.12.2
mtllib pine_leaves_slab_parent_2.mtl

o plane
v -0.2751194931248889 0.4407121842911903 -0.3744187904836186
v -0.27511950378591155 0.4407121842911905 1.4951397795163819
v 1.0063085771429074 -0.22635707471397926 1.4951397868236331
v 1.0063085878039297 -0.22635707471397948 -0.37441878317636745
vt 0.8830273437499994 4.440892098500626e-16
vt 0.8830273437499994 0.46738906250000045
vt 0.5218617187499994 0.46738906250000045
vt 0.5218617187499994 4.440892098500626e-16
vt 0.8830273437499994 0.4673890625
vt 0.8830273437499994 0
vt 0.5218617187499994 0
vt 0.5218617187499994 0.4673890625
vn 0.4617486254464031 0.8870108268213851 2.633088050527874e-9
vn -0.46174862544640316 -0.8870108268213851 -2.633088050527874e-9
usemtl m_3dd4bacd-22b7-821c-3447-e91d62f94f5c
f 1/1/1 2/2/1 3/3/1 4/4/1
f 2/5/2 1/6/2 4/7/2 3/8/2
o plane
v 0.7291257541097151 -0.1424073867906498 1.6217605723371078
v 1.3819110550078668 0.7941552251652361 0.1412299000853895
v 0.10310496938128244 0.6483512105407125 -0.5148459397276668
v -0.5496803315168693 -0.2882114014151731 0.9656847325240514
vt 0.007812500000000056 0.2499999999999999
vt 0.47520249483877564 0.2500000000000002
vt 0.47520256850040976 0.6111648091220119
vt 0.007812573661634292 0.6111648091220115
vt 0.47677736514957614 0.24842512968919894
vt 0.009387370310800669 0.24842512968919905
vt 0.009387443972435239 0.6095899388112107
vt 0.47677743881121093 0.6095899388112106
vn -0.3074276287970136 0.8595691390805755 0.4082023373187909
vn 0.3074276287970135 -0.8595691390805756 -0.408202337318791
usemtl m_3dd4bacd-22b7-821c-3447-e91d62f94f5c
f 5/9/3 6/10/3 7/11/3 8/12/3
f 6/13/4 5/14/4 8/15/4 7/16/4
o plane
v 0.35743803613310227 1.279967167876264 1.0997294055842168
v 1.551694172131497 0.538592384262496 -0.1328958247726285
v 0.8675752999941583 -0.7298710204035171 -0.032789467775368786
v -0.32668083600423636 0.011503763210251206 1.1998357625814764
vt 0.46875027143336334 0.5390625000000004
vt 0.9361402524821291 0.5390625000000004
vt 0.9361399810487662 0.9002279196642513
vt 0.46875000000000033 0.9002279196642513
vt 0.9377153360731901 0.5374874164089385
vt 0.4703253550244243 0.5374874164089386
vt 0.4703250835910614 0.8986528360731895
vt 0.9377150646398271 0.8986528360731894
vn -0.6063800354042583 0.26795379543525905 -0.7486681615876087
vn 0.6063800354042583 -0.26795379543525927 0.7486681615876087
usemtl m_3dd4bacd-22b7-821c-3447-e91d62f94f5c
f 9/17/5 10/18/5 11/19/5 12/20/5
f 10/21/6 9/22/6 12/23/6 11/24/6
o plane
v 1.2292048931944501 1.1633308687684312 0.7409425931120821
v 0.9828922554012776 0.020085885621994204 -0.561741526481731
v -0.3844262855139745 -0.17037273014347776 -0.13605990102356202
v -0.13811364772080192 0.9728722530029591 1.166624218570251
vt 0.9306589374731482 0.9070668437485949
vt 0.4930043437485956 0.9070668437485951
vt 0.49300574536270014 0.5459021609127477
vt 0.9306603390872528 0.5459021609127477
vt 0.4921874999999999 0.9062499999999991
vt 0.9298420937245524 0.9062499999999993
vt 0.9298434953386574 0.545085317164152
vt 0.4921889016141048 0.5450853171641517
vn -0.2905307579759617 0.7457494011616881 -0.5995412490704013
vn 0.2905307579759616 -0.7457494011616881 0.5995412490704014
usemtl m_3dd4bacd-22b7-821c-3447-e91d62f94f5c
f 13/25/7 14/26/7 15/27/7 16/28/7
f 14/29/8 13/30/8 16/31/8 15/32/8
o plane
v 0.15961313140954353 0.5201455108600872 -0.38508056179467376
v 0.9996406571161557 0.04067711889239273 1.181051419240546
v 0.5702416531107539 -0.26161651689854565 -0.34578478985641936
v 0.5890121354149453 0.8224391466510255 1.1417556473022914
vt 0.4529438661991618 0.5727254386718328
vt 0.049289738997744026 0.5727254386718328
vt 0.0492879386718329 0.35174687051498765
vt 0.4529439180872086 0.35174566547724806
vt 0.04928793867541281 0.5727221500769697
vt 0.0492879386754127 0.35174358191279087
vt 0.4529439180872097 0.3517456654850053
vt 0.45294206586343444 0.5727254386718337
vn 0.8446670272503957 0.42747523062207776 -0.32218401617799236
vn 0.8446670272503957 0.4274752306220778 -0.3221840161779924
usemtl m_3dd4bacd-22b7-821c-3447-e91d62f94f5c
f 18/33/9 19/34/9 17/35/9 20/36/9
f 19/37/10 17/38/10 20/39/10 18/40/10