# Made in Blockbench 4.8.1
mtllib pine_leaves_2.mtl

o plane
v 1.2842741291851412 0.9659325284132314 -0.0036892987167426172
v 1.2842741291851412 -0.14295297704910814 0.5735599582613694
v -0.3335508708148588 0.9659325284132314 -0.0036892987167426172
v -0.3335508708148588 -0.14295297704910814 0.5735599582613694
vt 0.1015625 0.9583333333333334
vt 0.4659375 0.9583333333333334
vt 0.4659375 0.5829166666666667
vt 0.1015625 0.5829166666666667
vt 0.4659375 0.9583333333333334
vt 0.1015625 0.9583333333333334
vt 0.1015625 0.5829166666666667
vt 0.4659375 0.5829166666666667
vn 0 0.4617486132350337 0.8870108331782218
vn 0 -0.4617486132350337 -0.8870108331782218
usemtl m_791b617d-87bd-9afa-5413-97bbcb0e75fe
f 4/1/1 2/2/1 1/3/1 3/4/1
f 2/5/2 4/6/2 3/7/2 1/8/2
o plane
v -0.44536549865259156 0.1207186781797463 0.11538955578423443
v 0.004546752829631684 1.28607740553272 0.0667914955893556
v 0.7729354025017395 -0.3090204599597951 1.089260655069264
v 1.2228476539839628 0.8563382673931788 1.040662594874385
vt 0.078125 0.46875
vt 0.4425 0.46875
vt 0.4425 0.09333333333333338
vt 0.078125 0.09333333333333338
vt 0.4425 0.46875
vt 0.078125 0.46875
vt 0.078125 0.09333333333333338
vt 0.4425 0.09333333333333338
vn -0.5508146639478844 0.2459148031383197 0.7975770279900372
vn 0.5508146639478844 -0.2459148031383197 -0.7975770279900372
usemtl m_791b617d-87bd-9afa-5413-97bbcb0e75fe
f 8/9/3 6/10/3 5/11/3 7/12/3
f 6/13/4 8/14/4 7/15/4 5/16/4
o plane
v -0.059368436847871964 0.724264768825426 -0.35653113210697374
v 0.3335793006082517 1.6159837620399302 0.426586408032994
v 1.0072854547815897 -0.3091863727251568 0.28501851065227674
v 1.4002331922377134 0.5825326204893475 1.0681360507922446
vt 0.5546875 0.46875
vt 0.9190625 0.46875
vt 0.9190625 0.09333333333333338
vt 0.5546875 0.09333333333333338
vt 0.9190625 0.46875
vt 0.5546875 0.46875
vt 0.5546875 0.09333333333333338
vt 0.9190625 0.09333333333333338
vn -0.6830127018922207 -0.28836530234046714 0.6710730969573878
vn 0.6830127018922207 0.28836530234046714 -0.6710730969573878
usemtl m_791b617d-87bd-9afa-5413-97bbcb0e75fe
f 12/17/5 10/18/5 9/19/5 11/20/5
f 10/21/6 12/22/6 11/23/6 9/24/6
o plane
v 0.749625877006961 -0.13510082943447566 -0.37958550298949567
v 0.9350737366239099 1.100682320270058 -0.3436290407596736
v 0.5203036166271818 -0.15160167188820395 1.3702747866029694
v 0.7057514762441306 1.0841814778163297 1.4062312488327915
vt 0.0859375 0.9479166666666666
vt 0.48343749999999996 0.9479166666666666
vt 0.48343749999999996 0.5725
vt 0.0859375 0.5725
vt 0.48343749999999996 0.9479166666666666
vt 0.0859375 0.9479166666666666
vt 0.0859375 0.5725
vt 0.48343749999999996 0.5725
vn -0.9803629729842582 0.15081505520875557 -0.12705613060315823
vn 0.9803629729842582 -0.15081505520875557 0.12705613060315823
usemtl m_791b617d-87bd-9afa-5413-97bbcb0e75fe
f 16/25/7 14/26/7 13/27/7 15/28/7
f 14/29/8 16/30/8 15/31/8 13/32/8
o plane
v 1.1515243829590163 1.171208856582652 -0.13761172229686924
v -0.1697253631887411 0.7996278522987861 -0.3992019279929767
v 1.0730634066712361 0.35131613283706975 1.4233148636606576
v -0.24818633947652113 -0.020264871446796118 1.16172465796455
vt 0.48343749999999996 0.5700000000000001
vt 0.48343749999999996 0.9895833333333334
vt 0.0859375 0.9895833333333334
vt 0.0859375 0.5700000000000001
vt 0.48343749999999996 0.9895833333333334
vt 0.0859375 0.9895833333333334
vt 0.0859375 0.5700000000000001
vt 0.48343749999999996 0.5700000000000001
vn -0.3221840209946451 0.8446670195281655 0.4274752422505053
vn -0.3221840209946451 0.8446670195281655 0.4274752422505053
usemtl m_791b617d-87bd-9afa-5413-97bbcb0e75fe
f 17/33/9 18/34/9 20/35/9 19/36/9
f 18/37/10 20/38/10 19/39/10 17/40/10