# Made in Blockbench 4.12.2
mtllib pine_leaves_slab_parent.mtl

o plane
v 1.323208256097133 0.4407121842911903 -0.2848231354798647
v -0.5463503139028675 0.4407121842911905 -0.2848231461408869
v -0.5463503212101183 -0.22635707471397926 0.996604934787932
v 1.3232082487898822 -0.22635707471397948 0.9966049454489541
vt 0.8830273437499994 4.440892098500626e-16
vt 0.8830273437499994 0.46738906250000045
vt 0.5218617187499994 0.46738906250000045
vt 0.5218617187499994 4.440892098500626e-16
vt 0.8830273437499994 0.4673890625
vt 0.8830273437499994 0
vt 0.5218617187499994 0
vt 0.5218617187499994 0.4673890625
vn -2.6330879479990826e-9 0.8870108268213851 0.4617486254464031
vn 2.6330879479990826e-9 -0.8870108268213851 -0.46174862544640316
usemtl m_3dd4bacd-22b7-821c-3447-e91d62f94f5c
f 1/1/1 2/2/1 3/3/1 4/4/1
f 2/5/2 1/6/2 4/7/2 3/8/2
o plane
v -0.6729711067235932 -0.1424073867906498 0.7194221117547398
v 0.8075595655281254 0.7941552251652361 1.3722074126528914
v 1.4636354053411813 0.6483512105407125 0.09340132702630666
v -0.016895266910537 -0.2882114014151731 -0.5593839738718447
vt 0.007812500000000056 0.2499999999999999
vt 0.47520249483877564 0.2500000000000002
vt 0.47520256850040976 0.6111648091220119
vt 0.007812573661634292 0.6111648091220115
vt 0.47677736514957614 0.24842512968919894
vt 0.009387370310800669 0.24842512968919905
vt 0.009387443972435239 0.6095899388112107
vt 0.47677743881121093 0.6095899388112106
vn -0.40820233731879096 0.8595691390805755 -0.30742762879701346
vn 0.4082023373187911 -0.8595691390805756 0.3074276287970134
usemtl m_3dd4bacd-22b7-821c-3447-e91d62f94f5c
f 5/9/3 6/10/3 7/11/3 8/12/3
f 6/13/4 5/14/4 8/15/4 7/16/4
o plane
v -0.15093993997070232 1.279967167876264 0.34773439377812687
v 1.0816852903861434 0.538592384262496 1.541990529776521
v 0.9815789333888835 -0.7298710204035171 0.8578716576391826
v -0.2510462969679621 0.011503763210251206 -0.3363844783592117
vt 0.46875027143336334 0.5390625000000004
vt 0.9361402524821291 0.5390625000000004
vt 0.9361399810487662 0.9002279196642513
vt 0.46875000000000033 0.9002279196642513
vt 0.9377153360731901 0.5374874164089385
vt 0.4703253550244243 0.5374874164089386
vt 0.4703250835910614 0.8986528360731895
vt 0.9377150646398271 0.8986528360731894
vn 0.7486681615876086 0.26795379543525905 -0.6063800354042584
vn -0.7486681615876086 -0.26795379543525927 0.6063800354042584
usemtl m_3dd4bacd-22b7-821c-3447-e91d62f94f5c
f 9/17/5 10/18/5 11/19/5 12/20/5
f 10/21/6 9/22/6 12/23/6 11/24/6
o plane
v 0.20784687250143274 1.1633308687684312 1.2195012508394747
v 1.5105309920952457 0.020085885621994204 0.9731886130463018
v 1.0848493666370764 -0.17037273014347776 -0.3941299278689502
v -0.2178347529567365 0.9728722530029591 -0.14781729007577726
vt 0.9306589374731482 0.9070668437485949
vt 0.4930043437485956 0.9070668437485951
vt 0.49300574536270014 0.5459021609127477
vt 0.9306603390872528 0.5459021609127477
vt 0.4921874999999999 0.9062499999999991
vt 0.9298420937245524 0.9062499999999993
vt 0.9298434953386574 0.545085317164152
vt 0.4921889016141048 0.5450853171641517
vn 0.5995412490704012 0.7457494011616881 -0.2905307579759618
vn -0.5995412490704013 -0.7457494011616881 0.29053075797596173
usemtl m_3dd4bacd-22b7-821c-3447-e91d62f94f5c
f 13/25/7 14/26/7 15/27/7 16/28/7
f 14/29/8 13/30/8 16/31/8 15/32/8
o plane
v 1.3338700274081883 0.5201455108600872 0.1499094890545678
v -0.23226195362703117 0.04067711889239273 0.9899370147611803
v 1.294574255469934 -0.26161651689854565 0.5605380107557782
v -0.19296618168877677 0.8224391466510255 0.5793084930599699
vt 0.4529438661991618 0.5727254386718328
vt 0.049289738997744026 0.5727254386718328
vt 0.0492879386718329 0.35174687051498765
vt 0.4529439180872086 0.35174566547724806
vt 0.04928793867541281 0.5727221500769697
vt 0.0492879386754127 0.35174358191279087
vt 0.4529439180872097 0.3517456654850053
vt 0.45294206586343444 0.5727254386718337
vn 0.3221840161779925 0.42747523062207776 0.8446670272503956
vn 0.3221840161779926 0.4274752306220778 0.8446670272503956
usemtl m_3dd4bacd-22b7-821c-3447-e91d62f94f5c
f 18/33/9 19/34/9 17/35/9 20/36/9
f 19/37/10 17/38/10 20/39/10 18/40/10