# Made in Blockbench 4.12.2
mtllib pine_leaves_vertical_slab_parent_4.mtl

o plane
v 0.4199587382754343 1.2848231136975765 -0.34396173527361795
v 0.4199587382754345 1.2848231726110984 1.5255968347263815
v -0.24711052072973394 0.003395091682279472 1.525596875106738
v -0.24711052072973416 0.003395032768757855 -0.34396169489326156
vt 0.8830273437499994 4.440892098500626e-16
vt 0.8830273437499994 0.46738906250000045
vt 0.5218617187499994 0.46738906250000045
vt 0.5218617187499994 4.440892098500626e-16
vt 0.8830273437499994 0.4673890625
vt 0.8830273437499994 0
vt 0.5218617187499994 0
vt 0.5218617187499994 0.4673890625
vn 0.8870108268213857 -0.461748625446402 1.4550620615590463e-8
vn -0.8870108268213857 0.46174862544640205 -1.4550620615590464e-8
usemtl m_3dd4bacd-22b7-821c-3447-e91d62f94f5c
f 1/1/1 2/2/1 3/3/1 4/4/1
f 2/5/2 1/6/2 4/7/2 3/8/2
o plane
v -0.1631608328064048 0.28057791798349946 1.6522176534662436
v 0.7734017791494817 -0.3722074211265082 0.17168699806263257
v 0.6275977645249569 0.9065986475670416 -0.484388874755856
v -0.30896484743092945 1.5593839866770491 0.9961417806477547
vt 0.007812500000000056 0.2499999999999999
vt 0.47520249483877564 0.2500000000000002
vt 0.47520256850040976 0.6111648091220119
vt 0.007812573661634292 0.6111648091220115
vt 0.47677736514957614 0.24842512968919894
vt 0.009387370310800669 0.24842512968919905
vt 0.009387443972435239 0.6095899388112107
vt 0.47677743881121093 0.6095899388112106
vn 0.8595691390805752 0.30742763933254047 0.40820232938421647
vn -0.8595691390805752 -0.30742763933254036 -0.4082023293842165
usemtl m_3dd4bacd-22b7-821c-3447-e91d62f94f5c
f 5/9/3 6/10/3 7/11/3 8/12/3
f 6/13/4 5/14/4 8/15/4 7/16/4
o plane
v 1.2592137218605086 0.6522656224867147 1.1301864771202532
v 0.5178389382467419 -0.5419905453252047 -0.10243872241335639
v -0.7506244664192719 0.14212832939583386 -0.002332383072909283
v -0.009249682805504894 1.3363844972077534 1.2302928164607003
vt 0.46875027143336334 0.5390625000000004
vt 0.9361402524821291 0.5390625000000004
vt 0.9361399810487662 0.9002279196642513
vt 0.46875000000000033 0.9002279196642513
vt 0.9377153360731901 0.5374874164089385
vt 0.4703253550244243 0.5374874164089386
vt 0.4703250835910614 0.8986528360731895
vt 0.9377150646398271 0.8986528360731894
vn 0.26795379543525827 0.6063800160814565 -0.7486681772380154
vn -0.2679537954352585 -0.6063800160814565 0.7486681772380154
usemtl m_3dd4bacd-22b7-821c-3447-e91d62f94f5c
f 9/17/5 10/18/5 11/19/5 12/20/5
f 10/21/6 9/22/6 12/23/6 11/24/6
o plane
v 1.1425774227526766 -0.21950124383476555 0.7713996871480446
v -0.0006675603937605357 0.026811360336691292 -0.5312844388029905
v -0.19112617615923394 1.3941299122386015 -0.10560284863472258
v 0.9521188069872032 1.1478173080671445 1.1970812773163126
vt 0.9306589374731482 0.9070668437485949
vt 0.4930043437485956 0.9070668437485951
vt 0.49300574536270014 0.5459021609127477
vt 0.9306603390872528 0.5459021609127477
vt 0.4921874999999999 0.9062499999999991
vt 0.9298420937245524 0.9062499999999993
vt 0.9298434953386574 0.545085317164152
vt 0.4921889016141048 0.5450853171641517
vn 0.7457494011616878 0.29053074250206173 -0.5995412565688745
vn -0.7457494011616878 -0.2905307425020617 0.5995412565688746
usemtl m_3dd4bacd-22b7-821c-3447-e91d62f94f5c
f 13/25/7 14/26/7 15/27/7 16/28/7
f 14/29/8 13/30/8 16/31/8 15/32/8
o plane
v 0.49939206484433163 0.8500904888879687 -0.35462349536441184
v 0.019923672876638016 0.010063003602546305 1.2115085073515548
v -0.28236996291430083 0.4394619682009645 -0.31532771282801275
v 0.8016857006352703 0.4206915242895505 1.1722127248151555
vt 0.4529438661991618 0.5727254386718328
vt 0.049289738997744026 0.5727254386718328
vt 0.0492879386718329 0.35174687051498765
vt 0.4529439180872086 0.35174566547724806
vt 0.04928793867541281 0.5727221500769697
vt 0.0492879386754127 0.35174358191279087
vt 0.4529439180872097 0.3517456654850053
vt 0.45294206586343444 0.5727254386718337
vn 0.4274752306220787 -0.8446670355658252 -0.32218399437750117
vn 0.42747523062207876 -0.8446670355658252 -0.3221839943775012
usemtl m_3dd4bacd-22b7-821c-3447-e91d62f94f5c
f 18/33/9 19/34/9 17/35/9 20/36/9
f 19/37/10 17/38/10 20/39/10 18/40/10