# Made in Blockbench 4.8.1
mtllib pine_leaves_brown.mtl

o south
v 1.677847200321089 0.36266973356531906 0.29893430140194377
v 0.7698329213784412 1.4857894620230914 1.043741084927177
v 0.33610966549012566 -0.47471966815596356 -0.07408631131349697
v -0.5719046134525219 0.648400060301809 0.6707204722117366
v 0.7698329213784412 1.4857894620230914 1.043741084927177
v 1.677847200321089 0.36266973356531906 0.29893430140194377
v -0.5719046134525219 0.648400060301809 0.6707204722117366
v 0.33610966549012566 -0.47471966815596356 -0.07408631131349697
vt 0.43359375 0.4093046171171171
vt 0.43359375 0.1384712837837837
vt 0.7044270833333334 0.1384712837837837
vt 0.7044270833333334 0.4093046171171171
vt 0.43359375 0.5885416666666667
vt 0.43359375 0.859375
vt 0.7044270833333334 0.859375
vt 0.7044270833333334 0.5885416666666667
vn -0.07753713518278071 0.5067146074653088 -0.858619997000376
vn 0.07753713518278071 -0.5067146074653088 0.858619997000376
usemtl m_ac3d92fe-f5b1-a3a3-7d87-db428bb26680
f 3/4/1 4/3/1 2/2/1 1/1/1
f 7/8/2 8/7/2 6/6/2 5/5/2
o north
v -0.05923413119111354 1.1422054791031184 1.203272385936788
v -0.05923413119111354 1.1422054791031184 1.203272385936788
v 0.4479814100498458 1.1459099770573062 -0.20836449067792728
v 0.4479814100498458 1.1459099770573062 -0.20836449067792728
v -0.03703755247478946 -0.35762484269823036 1.2073119030555466
v -0.03703755247478946 -0.35762484269823036 1.2073119030555466
v 0.4701779887661699 -0.35392034474404266 -0.2043249735591688
v 0.4701779887661699 -0.35392034474404266 -0.2043249735591688
vt 0 0.7184684684684685
vt 0 0.9684684684684685
vt 0.25 0.9684684684684685
vt 0.25 0.7184684684684685
vn -0.940978145127465 -0.014836628849950058 -0.33814198916556354
usemtl m_ac3d92fe-f5b1-a3a3-7d87-db428bb26680
f 12/12/3 15/11/3 13/10/3 10/9/3
o south
v 1.2149019791923754 1.233877077310371 -0.043497466225206116
v 1.2149019791923754 1.233877077310371 -0.043497466225206116
v 1.0487822911875426 -0.25274033786382133 -0.15473104999368836
v 1.0487822911875426 -0.25274033786382133 -0.15473104999368836
v 0.7668646614244141 1.1769157639157426 1.3868933791956006
v 0.7668646614244141 1.1769157639157426 1.3868933791956006
v 0.6007449734195813 -0.30970165125844984 1.2756597954271185
v 0.6007449734195813 -0.30970165125844984 1.2756597954271185
vt 0 0.9692778716216216
vt 0 0.7192778716216217
vt 0.25000000000000006 0.7192778716216217
vt 0.25000000000000006 0.9692778716216216
vn 0.9479022010370451 -0.1277568344371654 0.2918211927254771
usemtl m_ac3d92fe-f5b1-a3a3-7d87-db428bb26680
f 24/16/4 19/15/4 17/14/4 22/13/4
o bottom
v -0.5190605646121824 0.27683043405578434 0.7831197402081382
v 0.690865042357174 0.16383624419879084 1.6625015336621516
v -0.5190605646121824 0.27683043405578434 0.7831197402081382
v 0.690865042357174 0.16383624419879084 1.6625015336621516
v 1.5326296504083752 -0.1569480422481515 0.46311427918546033
v 0.3227040434390185 -0.0439538523911579 -0.416267514268553
v 1.5326296504083752 -0.1569480422481515 0.46311427918546033
v 0.3227040434390185 -0.0439538523911579 -0.416267514268553
vt 0.25 0.6119439752252251
vt 0.25 0.36194397522522515
vt 0 0.36194397522522515
vt 0 0.6119439752252251
vn -0.1856069565653224 -0.9739563655814221 0.1302269389104503
usemtl m_ac3d92fe-f5b1-a3a3-7d87-db428bb26680
f 31/20/5 28/19/5 27/18/5 32/17/5
o west
v 1.4470345608336395 1.0384010986209615 0.8196087908964913
v -0.015795246374869065 1.3194587737046015 0.6431561388368041
v 1.1543958811760386 -0.4302136580986793 0.9064033731788375
v -0.3084339260324698 -0.1491559830150393 0.7299507211191503
v -0.015795246374869065 1.3194587737046015 0.6431561388368041
v 1.4470345608336395 1.0384010986209615 0.8196087908964913
v -0.3084339260324698 -0.1491559830150393 0.7299507211191503
v 1.1543958811760386 -0.4302136580986793 0.9064033731788375
vt 0.25000000000000006 0.9489372184684685
vt 0.25000000000000006 0.6989372184684686
vt 0 0.6989372184684686
vt 0 0.9489372184684685
vn -0.1043318600760183 0.07937892141673616 0.9913696837243885
usemtl m_ac3d92fe-f5b1-a3a3-7d87-db428bb26680
f 39/24/6 40/23/6 38/22/6 37/21/6
o east
v 1.1029032580139642 1.4638870271632043 0.30137556357804085
v -0.24441505307732392 0.9528090456982261 -0.11519695767102367
v 1.5768813732017035 0.05434809598434032 0.49770372715683997
v 0.22956306211041566 -0.45672988548063786 0.08113120590777556
v -0.24441505307732392 0.9528090456982261 -0.11519695767102367
v 1.1029032580139642 1.4638870271632043 0.30137556357804085
v 0.22956306211041566 -0.45672988548063786 0.08113120590777556
v 1.5768813732017035 0.05434809598434032 0.49770372715683997
vt 0 0.7225858671171173
vt 0 0.9725858671171169
vt 0.25 0.9725858671171169
vt 0.25 0.7225858671171173
vn 0.30556186129176427 -0.02980900947200249 -0.9517055069075784
usemtl m_ac3d92fe-f5b1-a3a3-7d87-db428bb26680
f 43/28/7 44/27/7 42/26/7 41/25/7
o top
v -0.3898505261992825 0.9278766048209439 0.7997881386571337
v 1.020112614806575 0.859394633618479 1.3070495708842635
v -0.3898505261992825 0.9278766048209439 0.7997881386571337
v 1.020112614806575 0.859394633618479 1.3070495708842635
v 1.524968726358431 0.8003272820307299 -0.10420212693761921
v 0.11500558535257355 0.868809253233195 -0.6114635591647488
v 1.524968726358431 0.8003272820307299 -0.10420212693761921
v 0.11500558535257355 0.868809253233195 -0.6114635591647488
vt 0.25 0.979201858108108
vt 0.25 0.7292018581081077
vt 0 0.7292018581081077
vt 0 0.979201858108108
vn 0.0562701722195259 0.9981808492556479 -0.021648554170167766
usemtl m_ac3d92fe-f5b1-a3a3-7d87-db428bb26680
f 54/32/8 49/31/8 50/30/8 53/29/8
o east
v 0.8926680335713959 0.9468366887529405 -0.5250843064509572
v -0.04356476396014286 1.464172364384454 0.6982132646841916
v 1.0606504441995397 -0.491689298643889 0.21183488403300244
v 0.1244176466680007 0.02564637698762451 1.435132455168151
v -0.04356476396014286 1.464172364384454 0.6982132646841916
v 0.8926680335713959 0.9468366887529405 -0.5250843064509572
v 0.1244176466680007 0.02564637698762451 1.435132455168151
v 1.0606504441995397 -0.491689298643889 0.21183488403300244
vt 0.43359375 0.5884712837837835
vt 0.43359375 0.8593046171171169
vt 0.7044270833333334 0.8593046171171169
vt 0.7044270833333334 0.5884712837837835
vt 0.43359375 0.40859374999999964
vt 0.43359375 0.13776041666666627
vt 0.7044270833333334 0.13776041666666627
vt 0.7044270833333334 0.40859374999999964
vn -0.8107853003331335 -0.3390941122561172 -0.4771188319454038
vn 0.8107853003331335 0.3390941122561172 0.4771188319454038
usemtl m_ac3d92fe-f5b1-a3a3-7d87-db428bb26680
f 59/36/9 60/35/9 58/34/9 57/33/9
f 63/40/10 64/39/10 62/38/10 61/37/10
o west
v 1.2849632228153336 0.44007823026280235 1.3490329704346737
v 1.0803061790753525 1.3582424731702816 0.023999039739407646
v -0.056774312015630546 -0.39731117145848005 0.9760123577192357
v -0.2614313557556114 0.5208530714489992 -0.3490215729760304
v 1.0803061790753525 1.3582424731702816 0.023999039739407646
v 1.2849632228153336 0.44007823026280235 1.3490329704346737
v -0.2614313557556114 0.5208530714489992 -0.3490215729760304
v -0.056774312015630546 -0.39731117145848005 0.9760123577192357
vt 0.43359375 0.5884712837837835
vt 0.43359375 0.8593046171171169
vt 0.7044270833333334 0.8593046171171169
vt 0.7044270833333334 0.5884712837837835
vn 0.5498938921460117 -0.6443574774479645 -0.5314321674846252
usemtl m_ac3d92fe-f5b1-a3a3-7d87-db428bb26680
f 67/44/11 68/43/11 66/42/11 65/41/11