# Made in Blockbench 4.12.2
mtllib pine_leaves_vertical_slab_parent_2_2.mtl

o plane
v 0.5385343696930532 -0.3135046137421571 1.2543660471091345
v 0.5385343696930568 1.5560539562578433 1.2543660577701565
v 1.2056036286982263 1.5560539635650927 -0.027062023158662463
v 1.2056036286982228 -0.31350460643490796 -0.027062033819684306
vt 0.8830273437499994 4.440892098500626e-16
vt 0.8830273437499994 0.46738906250000045
vt 0.5218617187499994 0.46738906250000045
vt 0.5218617187499994 4.440892098500626e-16
vt 0.8830273437499994 0.4673890625
vt 0.8830273437499994 0
vt 0.5218617187499994 0
vt 0.5218617187499994 0.4673890625
vn -0.8870108268213852 2.6330896640549024e-9 -0.461748625446403
vn 0.8870108268213852 -2.6330896640549024e-9 0.46174862544640305
usemtl m_3dd4bacd-22b7-821c-3447-e91d62f94f5c
f 1/1/1 2/2/1 3/3/1 4/4/1
f 2/5/2 1/6/2 4/7/2 3/8/2
o plane
v 1.121653940774897 1.6826747490785676 0.25012079987452973
v 0.18509132881900836 0.20214407682685112 -0.4026645010236215
v 0.3308953434435307 -0.4539317629862052 0.8761415846029632
v 1.2674579553994194 1.0265989092655112 1.5289268855011142
vt 0.007812500000000056 0.2499999999999999
vt 0.47520249483877564 0.2500000000000002
vt 0.47520256850040976 0.6111648091220119
vt 0.007812573661634292 0.6111648091220115
vt 0.47677736514957614 0.24842512968919894
vt 0.009387370310800669 0.24842512968919905
vt 0.009387443972435239 0.6095899388112107
vt 0.47677743881121093 0.6095899388112106
vn -0.8595691390805746 0.4082023373187927 0.3074276287970135
vn 0.8595691390805748 -0.40820233731879285 -0.30742762879701346
usemtl m_3dd4bacd-22b7-821c-3447-e91d62f94f5c
f 5/9/3 6/10/3 7/11/3 8/12/3
f 6/13/4 5/14/4 8/15/4 7/16/4
o plane
v -0.3007206138920179 1.16064358232568 0.6218085178511429
v 0.44065416972174787 -0.07198164803116747 -0.5724476181472513
v 1.7091175743877614 0.028124708966089762 0.1116712539900871
v 0.9677427907739955 1.260749939322937 1.3059273899884813
vt 0.46875027143336334 0.5390625000000004
vt 0.9361402524821291 0.5390625000000004
vt 0.9361399810487662 0.9002279196642513
vt 0.46875000000000033 0.9002279196642513
vt 0.9377153360731901 0.5374874164089385
vt 0.4703253550244243 0.5374874164089386
vt 0.4703250835910614 0.8986528360731895
vt 0.9377150646398271 0.8986528360731894
vn -0.26795379543526054 -0.748668161587608 0.6063800354042586
vn 0.26795379543526077 0.748668161587608 -0.6063800354042586
usemtl m_3dd4bacd-22b7-821c-3447-e91d62f94f5c
f 9/17/5 10/18/5 11/19/5 12/20/5
f 10/21/6 9/22/6 12/23/6 11/24/6
o plane
v -0.18408431478418563 0.8018567698535444 -0.24995833921020483
v 0.9591606683622488 -0.500827349740271 -0.00364570141703191
v 1.1496192841277217 -0.07514572428210187 1.36367283949822
v 0.00637430098128744 1.2275383953117136 1.117360201705047
vt 0.9306589374731482 0.9070668437485949
vt 0.4930043437485956 0.9070668437485951
vt 0.49300574536270014 0.5459021609127477
vt 0.9306603390872528 0.5459021609127477
vt 0.4921874999999999 0.9062499999999991
vt 0.9298420937245524 0.9062499999999993
vt 0.9298434953386574 0.545085317164152
vt 0.4921889016141048 0.5450853171641517
vn -0.7457494011616893 -0.5995412490703996 0.2905307579759619
vn 0.7457494011616893 0.5995412490703996 -0.29053075797596184
usemtl m_3dd4bacd-22b7-821c-3447-e91d62f94f5c
f 13/25/7 14/26/7 15/27/7 16/28/7
f 14/29/8 13/30/8 16/31/8 15/32/8
o plane
v 0.4591010431241563 -0.3241663850532124 0.8196334225747021
v 0.9385694350918538 1.241965595982006 -0.0203941031319107
v 1.2408630708827892 -0.28487061311495965 0.4090049008734915
v 0.15680740733322107 1.2026698240437534 0.39023441856929986
vt 0.4529438661991618 0.5727254386718328
vt 0.049289738997744026 0.5727254386718328
vt 0.0492879386718329 0.35174687051498765
vt 0.4529439180872086 0.35174566547724806
vt 0.04928793867541281 0.5727221500769697
vt 0.0492879386754127 0.35174358191279087
vt 0.4529439180872097 0.3517456654850053
vt 0.45294206586343444 0.5727254386718337
vn -0.42747523062207854 -0.3221840161779918 -0.8446670272503954
vn -0.4274752306220786 -0.32218401617799186 -0.8446670272503954
usemtl m_3dd4bacd-22b7-821c-3447-e91d62f94f5c
f 18/33/9 19/34/9 17/35/9 20/36/9
f 19/37/10 17/38/10 20/39/10 18/40/10