# Made in Blockbench 4.8.1
mtllib pine_leaves_dark_vertical_slab_3.mtl

o plane
v -0.29342826615192363 -0.20545684092874938 0.5080498243457279
v 1.3465069187666725 0.2557495015883851 0.8327355876557365
v -0.2512216988073469 0.2355886201062025 -0.3316204956935774
v 1.3887134861112493 0.696794962623337 -0.006934732383568842
vt 0.81045625 0.0446791666666666
vt 0.81045625 0.5104166666666667
vt 0.71484375 0.5104166666666667
vt 0.71484375 0.0446791666666666
vt 0.71484375 0.0446791666666666
vt 0.71484375 0.5104166666666667
vt 0.81045625 0.5104166666666667
vt 0.81045625 0.0446791666666666
vn -0.3221840209946451 0.8446670195281654 0.42747524225050526
vn 0.3221840209946451 -0.8446670195281654 -0.42747524225050526
usemtl m_791b617d-87bd-9afa-5413-97bbcb0e75fe
f 1/1/1 2/2/1 4/3/1 3/4/1
f 3/5/2 4/6/2 2/7/2 1/8/2
o plane
v -0.015104108131703986 1.299343651736639 -0.03228307318272439
v 0.7899747593872914 0.6110486103871908 1.3408948100998161
v 0.026423807342658368 0.10237289885683593 -0.65660297481022
v 0.8315026748616539 -0.5859221424926122 0.7165749084723203
vt 0.27837656249999987 0.5611583333333332
vt 0.48097187499999994 0.5611583333333332
vt 0.48097187499999994 0.9819208333333332
vt 0.27837656249999987 0.9819208333333332
vt 0.27837656249999987 0.9819208333333332
vt 0.48097187499999994 0.9819208333333332
vt 0.48097187499999994 0.5611583333333332
vt 0.27837656249999987 0.5611583333333332
vn 0.8851802960142868 0.2389312504328152 -0.39920884398353557
vn -0.8851802960142868 -0.2389312504328152 0.39920884398353557
usemtl m_791b617d-87bd-9afa-5413-97bbcb0e75fe
f 5/9/3 6/10/3 8/11/3 7/12/3
f 7/13/4 8/14/4 6/15/4 5/16/4
o plane
v -0.2957729318378768 1.099660599859644 0.3152351899994034
v 1.423479599603122 1.0442941244041803 0.535745580996245
v -0.36048482341625443 -0.23887369305228623 0.48369055016512236
v 1.3587677080247444 -0.2942401685077499 0.7042009411619639
vt 0.46534687499999994 0.10282499999999983
vt 0.26275156249999987 0.10282499999999983
vt 0.26275156249999987 0.5235874999999999
vt 0.46534687499999994 0.5235874999999999
vt 0.46534687499999994 0.5235874999999999
vt 0.26275156249999987 0.5235874999999999
vt 0.26275156249999987 0.10282499999999983
vt 0.46534687499999994 0.10282499999999983
vn 0.12203059042681998 -0.1297379300177326 -0.9840104697180797
vn -0.12203059042681998 0.1297379300177326 0.9840104697180797
usemtl m_791b617d-87bd-9afa-5413-97bbcb0e75fe
f 9/17/5 10/18/5 12/19/5 11/20/5
f 11/21/6 12/22/6 10/23/6 9/24/6
o plane
v -0.27511160553058 0.9782235212472683 0.1236542835480243
v 1.444140925910418 0.9228570457918035 0.3441646745448741
v -0.27182376404555575 -0.3254784343466298 -0.2293177998530141
v 1.4474287673954425 -0.3808449098020946 -0.008807408856164212
vt 0.23878437499999994 0.5715749999999999
vt 0.03618906249999987 0.5715749999999999
vt 0.03618906249999987 0.9923375
vt 0.23878437499999994 0.9923375
vt 0.23878437499999994 0.9923375
vt 0.03618906249999987 0.9923375
vt 0.03618906249999987 0.5715749999999999
vt 0.23878437499999994 0.5715749999999999
vn 0.13107664868025243 0.2593901555932811 -0.9568362761476213
vn -0.13107664868025243 -0.2593901555932811 0.9568362761476213
usemtl m_791b617d-87bd-9afa-5413-97bbcb0e75fe
f 13/25/7 14/26/7 16/27/7 15/28/7
f 15/29/8 16/30/8 14/31/8 13/32/8
o plane
v 0.86310422578889 1.306747579534923 0.011937648208641238
v 0.34690309318706847 0.527053153709238 1.4724623960459304
v 0.9046321412632509 0.10977682665511929 -0.6123822534188539
v 0.3884310086614294 -0.6699175991705658 0.848142494418435
vt 0.47368906249999987 0.4674083333333332
vt 0.6762843749999999 0.4674083333333332
vt 0.6762843749999999 0.8881708333333332
vt 0.47368906249999987 0.8881708333333332
vt 0.47368906249999987 0.8881708333333332
vt 0.6762843749999999 0.8881708333333332
vt 0.6762843749999999 0.4674083333333332
vt 0.47368906249999987 0.4674083333333332
vn 0.9541779231755936 -0.1116938677055424 0.27761298752271674
vn -0.9541779231755936 0.1116938677055424 -0.27761298752271674
usemtl m_791b617d-87bd-9afa-5413-97bbcb0e75fe
f 17/33/9 18/34/9 20/35/9 19/36/9
f 19/37/10 20/38/10 18/39/10 17/40/10