# Made in Blockbench 4.8.1
mtllib pine_leaves_slab.mtl

o plane
v -0.5463503212101183 -0.2888570747139793 1.059104934787932
v -0.5463503139028675 0.3782121842911905 -0.22232314614088688
v 1.3232082487898822 -0.28885707471397953 1.059104945448954
v 1.323208256097133 0.3782121842911903 -0.2223231354798647
vt 0.2734375 0.08328749999999996
vt 0.475665625 0.08328749999999996
vt 0.475665625 0.5
vt 0.2734375 0.5
vt 0.475665625 0.08328749999999996
vt 0.2734375 0.08328749999999996
vt 0.2734375 0.5
vt 0.475665625 0.5
vn -2.633087957996092e-9 0.8870108268213851 0.4617486254464032
vn 2.633087957996092e-9 -0.8870108268213851 -0.4617486254464032
usemtl m_791b617d-87bd-9afa-5413-97bbcb0e75fe
f 4/1/1 2/2/1 1/3/1 3/4/1
f 2/5/2 4/6/2 3/7/2 1/8/2
o plane
v 1.5080472971962608 -0.07164035344660052 0.09340132702630666
v 1.1228412137848038 0.47909605498291363 1.3722074126528914
v -0.21624694336353045 0.23808528250252148 -0.5593839738718447
v -0.6014530267749877 0.7888216909320356 0.7194221117547398
vt 0.02734375 0.9583333333333334
vt 0.22957187499999998 0.9583333333333334
vt 0.22957187499999998 0.5416208333333332
vt 0.02734375 0.5416208333333332
vt 0.22957187499999998 0.9583333333333334
vt 0.02734375 0.9583333333333334
vt 0.02734375 0.5416208333333332
vt 0.22957187499999998 0.5416208333333332
vn 0.2797581609933941 0.9095183474838977 -0.3074276287970134
vn -0.2797581609933941 -0.9095183474838977 0.3074276287970134
usemtl m_791b617d-87bd-9afa-5413-97bbcb0e75fe
f 8/9/3 6/10/3 5/11/3 7/12/3
f 6/13/4 8/14/4 7/15/4 5/16/4
o plane
v 0.9190789333888835 -0.917371020403517 0.7328716576391826
v 1.0191852903861434 0.35109238426249595 1.416990529776521
v -0.3135462969679621 -0.1759962367897488 -0.4613844783592117
v -0.21343993997070232 1.0924671678762643 0.22273439377812687
vt 0.68359375 0.5520375
vt 0.885821875 0.5520375
vt 0.885821875 0.96875
vt 0.68359375 0.96875
vt 0.885821875 0.5520375
vt 0.68359375 0.5520375
vt 0.68359375 0.96875
vt 0.885821875 0.96875
vn 0.7486681615876087 0.26795379543525927 -0.6063800354042583
vn -0.7486681615876087 -0.26795379543525927 0.6063800354042583
usemtl m_791b617d-87bd-9afa-5413-97bbcb0e75fe
f 12/17/5 10/18/5 9/19/5 11/20/5
f 10/21/6 12/22/6 11/23/6 9/24/6
o plane
v 0.8137352903489972 -0.37893291056045714 -0.3941299278689502
v 1.2776156998027604 -0.42683172366702365 0.9731886130463018
v 0.25720024124740765 1.262488347390376 -0.14781729007577726
v 0.7210806507011709 1.2145895342838096 1.2195012508394747
vt 0.44921875 0.4999541666666666
vt 0.63858125 0.4999541666666666
vt 0.63858125 0.9166666666666666
vt 0.44921875 0.9166666666666666
vt 0.63858125 0.4999541666666666
vt 0.44921875 0.4999541666666666
vt 0.44921875 0.9166666666666666
vt 0.63858125 0.9166666666666666
vn 0.892092652892465 0.34606730172785377 -0.2905307579759618
vn -0.892092652892465 -0.34606730172785377 0.2905307579759618
usemtl m_791b617d-87bd-9afa-5413-97bbcb0e75fe
f 16/25/7 14/26/7 13/27/7 15/28/7
f 14/29/8 16/30/8 15/31/8 13/32/8
o plane
v -0.23226195362703117 0.04067711889239273 0.9899370147611803
v 1.294574255469934 -0.26161651689854565 0.5605380107557782
v -0.19296618168877677 0.8224391466510255 0.5793084930599699
v 1.3338700274081883 0.5201455108600872 0.1499094890545678
vt 0.81045625 0.0446791666666666
vt 0.81045625 0.5104166666666667
vt 0.71484375 0.5104166666666667
vt 0.71484375 0.0446791666666666
vt 0.81045625 0.5104166666666667
vt 0.71484375 0.5104166666666667
vt 0.71484375 0.0446791666666666
vt 0.81045625 0.0446791666666666
vn 0.32218401617799264 0.42747523062207776 0.8446670272503957
vn 0.32218401617799264 0.42747523062207776 0.8446670272503957
usemtl m_791b617d-87bd-9afa-5413-97bbcb0e75fe
f 17/33/9 18/34/9 20/35/9 19/36/9
f 18/37/10 20/38/10 19/39/10 17/40/10