# Made in Blockbench 4.10.3
mtllib putrid_sticks_3.mtl

o cuboid
v 0.33696530383586343 0.0625 0.9769078870137533
v 0.5619653038358629 0.09375 0.00815788701375314
v 0.33696530383586343 2.7755575615628914e-17 0.9769078870137533
v 0.5619653038358629 2.0816681711721685e-17 0.00815788701375314
v 0.22553469616413716 0.0625 0.9605921129862469
v 0.4380346961641366 0.09375 -0.008157887013753196
v 0.22553469616413716 2.7755575615628914e-17 0.9605921129862469
v 0.4380346961641366 2.0816681711721685e-17 -0.008157887013753196
v 0.40625000000000006 0.09375 0.625
v 0.40625000000000006 0 0.625
v 0.5312500000000001 0 0.625
v 0.5312500000000001 0.09375 0.625
v 0.5156249999999998 0.09375 0.21874999999999994
v 0.5156249999999998 0 0.21874999999999994
v 0.39062499999999983 0 0.21875000000000006
v 0.39062499999999983 0.09375 0.21875000000000006
vt 0.84375 0.8046875
vt 0.9453875 0.8046875
vt 0.9453875 0.828125
vt 0.84375 0.828125
vt 0.9453875 0.828125
vt 0.84375 0.828125
vt 0.84375 0.8046875
vt 0.9453875 0.8046875
vt 0.87890625 0.7265625
vt 0.875 0.828125
vt 0.84375 0.828125
vt 0.84765625 0.7265625
vt 0.84765625 0.828125
vt 0.84375 0.7265625
vt 0.875 0.7265625
vt 0.87890625 0.828125
vt 0.8719046875000002 0.796875
vt 0.8719046875000002 0.8125
vt 0.8437500000000002 0.8125
vt 0.8437500000000002 0.796875
vt 0.875 0.828125
vt 0.84375 0.828125
vt 0.84375 0.8046875
vt 0.875 0.8046875
vt 0.9390390625 0.8203125
vt 0.84375 0.828125
vt 0.84375 0.8046875
vt 0.9390390625 0.8046875
vt 0.8593750000000004 0.828125
vt 0.8593750000000006 0.7328359093680865
vt 0.8868894421516493 0.7180197704282825
vt 0.8858348798656246 0.818508528449849
vt 0.84375 0.8046875
vt 0.94424375 0.8046875
vt 0.94424375 0.828125
vt 0.84375 0.8203125
vt 0.8536136402425512 0.8007425778522453
vt 0.9544103695770452 0.8007425778522453
vt 0.9393516359874567 0.8281249999999991
vt 0.84375 0.8271089043213996
vt 0.8976578125 0.828125
vt 0.84375 0.828125
vt 0.84375 0.8046875
vt 0.8976578125 0.8046875
vt 0.8437500000000009 0.8281249999999992
vt 0.8437500000000009 0.7742171553451437
vt 0.8742699304926552 0.7675017742894221
vt 0.87488381631819 0.8254502221506481
vt 0.84375 0.8046875
vt 0.9017015625 0.8046875
vt 0.9017015625 0.828125
vt 0.84375 0.828125
vt 0.9017016994171183 0.828125
vt 0.84375 0.828125
vt 0.8501417048158313 0.7975356454865867
vt 0.904046524807533 0.7969645964569361
vn 0.9992611746313144 0 -0.03843312210120501
vn -0.9992611746313144 0 0.03843312210120501
vn 0 1 0
vn 0 -1 0
vn -0.14487616643732193 0 0.9894497947841646
vn 0.1305261922200506 0 -0.9914448613738107
vn -0.8804581126385294 0 -0.4741239414847121
vn 5.050232962805728e-32 -1 8.270628105245844e-17
vn 0.8754423114900931 0 0.4833226243958407
vn 5.40117553524317e-17 0.9960803008348087 0.08845357137412282
vn 0.9766346961298472 0 0.2149061895696848
vn -6.035903934249373e-32 -1 -9.884834439683485e-17
vn -0.9788620614254411 0 -0.20452155070294178
vn 0 1 0
usemtl m_fcbb1a6d-129d-7aeb-96fb-623cdd9246b6
f 11/1/1 14/2/1 13/3/1 12/4/1
f 9/5/2 16/6/2 15/7/2 10/8/2
f 12/9/3 13/10/3 16/11/3 9/12/3
f 10/13/4 15/14/4 14/15/4 11/16/4
f 3/17/5 1/18/5 5/19/5 7/20/5
f 6/21/6 2/22/6 4/23/6 8/24/6
f 5/25/7 9/26/7 10/27/7 7/28/7
f 7/29/8 10/30/8 11/31/8 3/32/8
f 3/33/9 11/34/9 12/35/9 1/36/9
f 1/37/10 12/38/10 9/39/10 5/40/10
f 2/41/11 13/42/11 14/43/11 4/44/11
f 4/45/12 14/46/12 15/47/12 8/48/12
f 8/49/13 15/50/13 16/51/13 6/52/13
f 6/53/14 16/54/14 13/55/14 2/56/14
o cuboid
v 0.6627393435450238 0.0625 0.923764002288865
v 0.7345560100874281 0.0625 0.8635026638807519
v 0.6627393435450238 0 0.923764002288865
v 0.7345560100874281 0 0.8635026638807519
v 0.40972454548883785 0.0625 0.5840408925206002
v 0.5054801008787101 0.0625 0.5036924413097829
v 0.40972454548883785 0 0.5840408925206002
v 0.5054801008787101 0 0.5036924413097829
v 0.6885027776949362 0.0625 0.7098257743945914
v 0.5927472223050638 0.0625 0.7901742256054087
v 0.5927472223050638 0 0.7901742256054087
v 0.6885027776949362 0 0.7098257743945914
vt 0.8984374999999994 0.953125
vt 0.8749999999999994 0.953125
vt 0.8749999999999994 0.9375
vt 0.8984374999999994 0.9375
vt 0.890625 0.9375
vt 0.890625 0.953125
vt 0.859375 0.953125
vt 0.859375 0.9375
vt 0.875 0.8886984375
vt 0.9438875 0.890625
vt 0.9438875 0.921875
vt 0.875 0.9199484375
vt 0.859375 0.9375
vt 0.9282625 0.9355734375
vt 0.9282625 0.9668234375
vt 0.859375 0.96875
vt 0.859375 0.9375
vt 0.928290625 0.9375
vt 0.928290625 0.953125
vt 0.859375 0.953125
vt 0.9282906250000003 0.953125
vt 0.8593750000000002 0.953125
vt 0.8593750000000002 0.9375
vt 0.9282906250000003 0.9375
vt 0.89620625 0.9528734375
vt 0.859375 0.96875
vt 0.859375 0.9375
vt 0.89620625 0.9294359375
vt 0.9127046874999993 0.953125
vt 0.8749999999999993 0.953125
vt 0.8749999999999993 0.9375
vt 0.9127046874999993 0.9375
vt 0.89620625 0.96875
vt 0.859375 0.9606859375
vt 0.859375 0.9294359375
vt 0.89620625 0.9453125
vt 0.8593750000000009 0.9375
vt 0.8994828125000008 0.9375
vt 0.8994828125000008 0.953125
vt 0.8593750000000009 0.953125
vn 0.6427876096865388 0 0.7660444431189785
vn -0.6427876096865388 0 -0.7660444431189785
vn 0 1 0
vn 0 -1 0
vn -0.7477819892061348 0 0.663944347531415
vn 0.7477819892061348 0 -0.663944347531415
vn 0 1 0
vn -0.8857864966612877 0 0.4640929673379277
vn 0 -1 0
vn 0.9579117379576401 0 -0.2870628890730629
usemtl m_fcbb1a6d-129d-7aeb-96fb-623cdd9246b6
f 18/57/15 17/58/15 19/59/15 20/60/15
f 23/61/16 21/62/16 22/63/16 24/64/16
f 21/65/17 26/66/17 25/67/17 22/68/17
f 24/69/18 28/70/18 27/71/18 23/72/18
f 23/73/19 27/74/19 26/75/19 21/76/19
f 22/77/20 25/78/20 28/79/20 24/80/20
f 18/81/21 25/82/21 26/83/21 17/84/21
f 17/85/22 26/86/22 27/87/22 19/88/22
f 19/89/23 27/90/23 28/91/23 20/92/23
f 20/93/24 28/94/24 25/95/24 18/96/24
o cube
v 0.45805787804858444 0.0625 0.5302305953309969
v 0.41843741601039364 0.0625 0.44526424029631095
v 0.45805787804858444 0 0.5302305953309969
v 0.41843741601039364 0 0.44526424029631095
v 0.24850470594102192 0.0625 0.5245051643726923
v 0.2881251679792126 0.0625 0.6094715194073781
v 0.24850470594102192 0 0.5245051643726923
v 0.2881251679792126 0 0.6094715194073781
vt 0.125 0.875
vt 0.171875 0.875
vt 0.171875 0.859375
vt 0.125 0.859375
vt 0.125 0.875
vt 0.1484375 0.875
vt 0.1484375 0.859375
vt 0.125 0.859375
vt 0.125 0.875
vt 0.171875 0.875
vt 0.171875 0.859375
vt 0.125 0.859375
vt 0.125 0.875
vt 0.1484375 0.875
vt 0.1484375 0.859375
vt 0.125 0.859375
vt 0.125 0.875
vt 0.171875 0.875
vt 0.171875 0.8515625
vt 0.125 0.8515625
vt 0.125 0.875
vt 0.171875 0.875
vt 0.171875 0.8515625
vt 0.125 0.8515625
vn -0.4226182617407005 0 -0.9063077870366495
vn 0.9063077870366495 0 -0.4226182617407005
vn 0.4226182617407005 0 0.9063077870366495
vn -0.9063077870366495 0 0.4226182617407005
vn 0 1 0
vn 0 -1 0
usemtl m_fcbb1a6d-129d-7aeb-96fb-623cdd9246b6
f 32/100/25 35/99/25 33/98/25 30/97/25
f 31/104/26 32/103/26 30/102/26 29/101/26
f 36/108/27 31/107/27 29/106/27 34/105/27
f 35/112/28 36/111/28 34/110/28 33/109/28
f 34/116/29 29/115/29 30/114/29 33/113/29
f 35/120/30 32/119/30 31/118/30 36/117/30
o cuboid
v 0.7409758096904207 0.09375 0.5327329252790726
v 0.9611887612639431 0.09375 0.08275201628483828
v 0.7409758096904207 0 0.5327329252790726
v 0.9611887612639431 0 0.08275201628483828
v 0.6543621035174875 0.09375 0.4968563534948454
v 0.8745750550910101 0.09375 0.046875444500611124
v 0.6543621035174875 0 0.4968563534948454
v 0.8745750550910101 0 0.046875444500611124
v 0.9566601853047736 0.09375 0.2161752437408627
v 0.9566601853047736 0 0.2161752437408627
v 0.8411752437408627 0 0.16833981469522646
v 0.8411752437408627 0.09375 0.16833981469522646
vt 0.6875 0.9765625
vt 0.7832625 0.9765625
vt 0.7832625 1
vt 0.6875 1
vt 0.7819796875 1
vt 0.6875 1
vt 0.6875 0.9765625
vt 0.7819796875 0.9765625
vt 0.7109375 0.90625
vt 0.73046875 1
vt 0.69921875 1
vt 0.6875 0.90625
vt 0.6875 1
vt 0.69921875 0.90625
vt 0.73046875 0.90625
vt 0.7109375 1
vt 0.7109375 0.9765625
vt 0.7109375 1
vt 0.6875 1
vt 0.6875 0.9765625
vt 0.7265625 1
vt 0.703125 1
vt 0.703125 0.9765625
vt 0.7265625 0.9765625
vt 0.7365000000000002 1
vt 0.7031250000000002 1
vt 0.7031250000000002 0.9765625
vt 0.7365000000000002 0.9765625
vt 0.7109375 0.953125
vt 0.72265625 0.984375
vt 0.69140625 0.984375
vt 0.6875 0.953125
vt 0.6875 0.9765625
vt 0.71899375 0.9765625
vt 0.71899375 1
vt 0.6875 1
vt 0.6875 1
vt 0.69140625 0.96875
vt 0.72265625 0.96875
vt 0.7109375 1
vn 0.8264100585158396 0 0.5630687481860867
vn -0.8692791828944244 0 -0.49432145632816915
vn 0 1 0
vn 0 -1 0
vn -0.3826834323650897 0 0.9238795325112867
vn 0.3826834323650897 0 -0.9238795325112867
vn 0.9994244866600553 0 0.033921902427266115
vn 0 -1 0
vn -0.9642112588246068 0 -0.2651351511132902
vn 0 1 0
usemtl m_fcbb1a6d-129d-7aeb-96fb-623cdd9246b6
f 39/121/31 46/122/31 45/123/31 37/124/31
f 41/125/32 48/126/32 47/127/32 43/128/32
f 37/129/33 45/130/33 48/131/33 41/132/33
f 43/133/34 47/134/34 46/135/34 39/136/34
f 39/137/35 37/138/35 41/139/35 43/140/35
f 42/141/36 38/142/36 40/143/36 44/144/36
f 38/145/37 45/146/37 46/147/37 40/148/37
f 40/149/38 46/150/38 47/151/38 44/152/38
f 44/153/39 47/154/39 48/155/39 42/156/39
f 42/157/40 48/158/40 45/159/40 38/160/40