# Made in Blockbench 4.10.3
mtllib putrid_sticks_6.mtl

o cube
v 0.5978462189190186 0.078125 0.8855481012863993
v 1.1508042215266114 0.078125 0.378855445574654
v 0.5978462189190186 0 0.8855481012863993
v 1.1508042215266114 0 0.378855445574654
v 1.0241310575986753 0.078125 0.24061594492275573
v 0.4711730549910822 0.078125 0.7473086006345009
v 1.0241310575986753 0 0.24061594492275573
v 0.4711730549910822 0 0.7473086006345009
vt 0.5625 0.84
vt 0.609375 0.84
vt 0.609375 0.815
vt 0.5625 0.815
vt 0.5625 0.84
vt 0.75 0.84
vt 0.75 0.815
vt 0.5625 0.815
vt 0.5625 0.84
vt 0.609375 0.84
vt 0.609375 0.815
vt 0.5625 0.815
vt 0.5625 0.84
vt 0.75 0.84
vt 0.75 0.815
vt 0.5625 0.815
vt 0.671875 0.8
vt 0.71875 0.8
vt 0.71875 0.56
vt 0.671875 0.56
vt 0.5625 0.84
vt 0.609375 0.84
vt 0.609375 0.6
vt 0.5625 0.6
vn 0.7372773368101241 0 -0.6755902076156604
vn 0.6755902076156604 0 0.7372773368101241
vn -0.7372773368101241 0 0.6755902076156604
vn -0.6755902076156604 0 -0.7372773368101241
vn 0 1 0
vn 0 -1 0
usemtl m_558a16e4-b3a7-1790-da2b-4b54c61f09e9
f 4/4/1 7/3/1 5/2/1 2/1/1
f 3/8/2 4/7/2 2/6/2 1/5/2
f 8/12/3 3/11/3 1/10/3 6/9/3
f 7/16/4 8/15/4 6/14/4 5/13/4
f 6/20/5 1/19/5 2/18/5 5/17/5
f 7/24/6 4/23/6 3/22/6 8/21/6
o cube
v 0.7409896468288153 0.15625 1.0350278157962756
v 0.5530485221386447 0.15625 0.4389547215786336
v 0.7409896468288153 0 1.0350278157962756
v 0.5530485221386447 0 0.4389547215786336
v 0.31461928445158804 0.15625 0.5141311714547019
v 0.5025604091417586 0.15625 1.1102042656723436
v 0.31461928445158804 0 0.5141311714547019
v 0.5025604091417586 0 1.1102042656723436
vt 0.03125 0.94
vt 0.09375 0.94
vt 0.09375 0.89
vt 0.03125 0.89
vt 0.03125 0.94
vt 0.1875 0.94
vt 0.1875 0.89
vt 0.03125 0.89
vt 0.03125 0.94
vt 0.09375 0.94
vt 0.09375 0.89
vt 0.03125 0.89
vt 0.03125 0.94
vt 0.1875 0.94
vt 0.1875 0.89
vt 0.03125 0.89
vt 0.03125 0.94
vt 0.09375 0.94
vt 0.09375 0.74
vt 0.03125 0.74
vt 0.03125 0.94
vt 0.09375 0.94
vt 0.09375 0.74
vt 0.03125 0.74
vn -0.30070579950427306 0 -0.9537169507482269
vn 0.9537169507482269 0 -0.30070579950427306
vn 0.30070579950427306 0 0.9537169507482269
vn -0.9537169507482269 0 0.30070579950427306
vn 0 1 0
vn 0 -1 0
usemtl m_558a16e4-b3a7-1790-da2b-4b54c61f09e9
f 12/28/7 15/27/7 13/26/7 10/25/7
f 11/32/8 12/31/8 10/30/8 9/29/8
f 16/36/9 11/35/9 9/34/9 14/33/9
f 15/40/10 16/39/10 14/38/10 13/37/10
f 14/44/11 9/43/11 10/42/11 13/41/11
f 15/48/12 12/47/12 11/46/12 16/45/12
o cube
v 0.0670129874745456 0.140625 1.4663607141977217
v 0.42903972620134667 0.15625 0.5049039845302594
v 0.0670129874745456 0.015625 1.4663607141977217
v 0.42903972620134667 0 0.5049039845302594
v -0.04627548590503566 0.140625 1.4135334314801344
v 0.2591070161319748 0.15625 0.42566306045387825
v -0.04627548590503566 0.015625 1.4135334314801344
v 0.2591070161319748 0 0.42566306045387825
v -0.0014952940589781083 0.15625 0.9129948356273079
v -0.0014952940589781083 0 0.9129948356273079
v 0.16843741601039375 0 0.992235759703689
v 0.16843741601039375 0.15625 0.992235759703689
vt 0.24753281250000042 0.86
vt 0.10937500000000042 0.86
vt 0.10937500000000042 0.81
vt 0.24753281250000042 0.81
vt 0 0.81
vt 0.13815937499999997 0.81
vt 0.13815937499999997 0.86
vt 0 0.86
vt 0.007557812499999997 0.9
vt 0 0.723422
vt 0.046875 0.723422
vt 0.0544328125 0.9
vt 0.0544328125 0.5634220000000005
vt 0.046875 0.7400000000000004
vt 0 0.7400000000000004
vt 0.007557812499999997 0.5634220000000005
vt 0.031250000000000555 0.8200000000000001
vt 0.031250000000000555 0.86
vt 5.542441505745899e-16 0.86
vt 5.542441505745899e-16 0.8200000000000001
vt 0.046875 0.81
vt 0.046875 0.86
vt 0 0.86
vt 0 0.81
vt 0.235009375 0.855
vt 0.109375 0.86
vt 0.109375 0.81
vt 0.235009375 0.815
vt 0.0427375 0.8799999999999999
vt 0 0.7286959999999999
vt 0.046875 0.7286959999999999
vt 0.0739875 0.8799999999999999
vt 3.885780586188048e-16 0.815
vt 0.12121250000000039 0.81
vt 0.12121250000000039 0.86
vt 3.885780586188048e-16 0.855
vt 0.0739875 0.568696000000001
vt 0.046875 0.7200000000000009
vt 0 0.7200000000000009
vt 0.0427375 0.568696000000001
vn 0.8818324428175067 0 0.4715628725785234
vn -0.8818324428175067 0 -0.4715628725785234
vn 0 1 0
vn 0 -1 0
vn -0.42261826174069944 0 0.9063077870366499
vn 0.42261826174069944 0 -0.9063077870366499
vn -0.9960219588669796 0 -0.08910812227168137
vn -0.013965859658332275 -0.9994538304949205 0.029949882688158822
vn 0.9778757844661287 0 0.20918640050145168
vn -0.013965859658332278 0.9994538304949205 0.02994988268815883
usemtl m_558a16e4-b3a7-1790-da2b-4b54c61f09e9
f 18/49/13 28/50/13 27/51/13 20/52/13
f 24/53/14 26/54/14 25/55/14 22/56/14
f 22/57/15 25/58/15 28/59/15 18/60/15
f 20/61/16 27/62/16 26/63/16 24/64/16
f 19/65/17 17/66/17 21/67/17 23/68/17
f 24/69/18 22/70/18 18/71/18 20/72/18
f 21/73/19 25/74/19 26/75/19 23/76/19
f 23/77/20 26/78/20 27/79/20 19/80/20
f 19/81/21 27/82/21 28/83/21 17/84/21
f 17/85/22 28/86/22 25/87/22 21/88/22
o cube
v 0.5118417931863442 0.1875 0.6347872827481078
v 0.6736036963754195 0.1875 0.031083641317440236
v 0.5118417931863442 0 0.6347872827481078
v 0.6736036963754195 0 0.031083641317440236
v 0.311381511517019 0.1875 -0.06597350059600515
v 0.14961960832794352 0.1875 0.5377301408346626
v 0.311381511517019 0 -0.06597350059600515
v 0.14961960832794352 0 0.5377301408346626
vt 0.03125 0.94
vt 0.125 0.94
vt 0.125 0.88
vt 0.03125 0.88
vt 0.03125 0.94
vt 0.1875 0.94
vt 0.1875 0.88
vt 0.03125 0.88
vt 0.03125 0.94
vt 0.125 0.94
vt 0.125 0.88
vt 0.03125 0.88
vt 0.03125 0.94
vt 0.1875 0.94
vt 0.1875 0.88
vt 0.03125 0.88
vt 0.03125 0.94
vt 0.125 0.94
vt 0.125 0.74
vt 0.03125 0.74
vt 0.03125 0.94
vt 0.125 0.94
vt 0.125 0.74
vt 0.03125 0.74
vn 0.25881904510252074 0 -0.9659258262890683
vn 0.9659258262890683 0 0.25881904510252074
vn -0.25881904510252074 0 0.9659258262890683
vn -0.9659258262890683 0 -0.25881904510252074
vn 0 1 0
vn 0 -1 0
usemtl m_558a16e4-b3a7-1790-da2b-4b54c61f09e9
f 32/92/23 35/91/23 33/90/23 30/89/23
f 31/96/24 32/95/24 30/94/24 29/93/24
f 36/100/25 31/99/25 29/98/25 34/97/25
f 35/104/26 36/103/26 34/102/26 33/101/26
f 34/108/27 29/107/27 30/106/27 33/105/27
f 35/112/28 32/111/28 31/110/28 36/109/28