# Made in Blockbench 4.10.3
mtllib putrid_sticks_4.mtl

o cuboid
v 0.23229527014744578 0.140625 0.8723109314197055
v 1.0693715780724076 0.109375 0.3653331000043277
v 0.23229527014744578 -0.015625 0.8723109314197055
v 1.0693715780724076 0.015625 0.3653331000043277
v 0.12474968833162459 0.140625 0.7187199231155196
v 0.9976745235285269 0.109375 0.26293909446820374
v 0.12474968833162459 -0.015625 0.7187199231155196
v 0.9976745235285269 0.015625 0.26293909446820374
v 0.6712803492142605 0.140625 0.39095816472410133
v 0.6712803492142605 -0.015625 0.39095816472410133
v 0.7609016673941114 -0.015625 0.5189506716442563
v 0.7609016673941114 0.140625 0.5189506716442563
v 0.3129013298378266 0.140625 0.6418978556276841
v 0.3129013298378266 -0.015625 0.6418978556276841
v 0.40252264801767756 -0.015625 0.769890362547839
v 0.40252264801767756 0.140625 0.769890362547839
vt 0.133025 0.6171875
vt 0.046875 0.625
vt 0.046875 0.5859375
vt 0.133025 0.59375
vt 0.046875 0.59375
vt 0.134525 0.5859375
vt 0.134525 0.625
vt 0.046875 0.6171875
vt 0.078125 0.53944375
vt 0.09871093749999998 0.625
vt 0.0596484375 0.625
vt 0.046875 0.53944375
vt 0.046875 0.625
vt 0.0596484375 0.53944375
vt 0.09871093749999998 0.53944375
vt 0.078125 0.625
vt 0.09375 0.5859375
vt 0.09375 0.625
vt 0.046875 0.625
vt 0.046875 0.5859375
vt 0.078125 0.625
vt 0.046875 0.625
vt 0.046875 0.6015625
vt 0.078125 0.6015625
vt 0.046875 0.5859375
vt 0.15625 0.5859375
vt 0.15625 0.625
vt 0.046875 0.625
vt 0.0859375 0.515625
vt 0.0859375 0.625
vt 0.046875 0.625
vt 0.046875 0.515625
vt 0.15625 0.625
vt 0.046875 0.625
vt 0.046875 0.5859375
vt 0.15625 0.5859375
vt 0.046875 0.625
vt 0.046875 0.515625
vt 0.0859375 0.515625
vt 0.0859375 0.625
vt 0.0976828125 0.625
vt 0.046875 0.625
vt 0.046875 0.5859375
vt 0.0976828125 0.5859375
vt 0.046875 0.625
vt 0.058121875 0.575453125
vt 0.09718437499999999 0.575453125
vt 0.09375 0.625
vt 0.046875 0.5859375
vt 0.09654062499999999 0.5859375
vt 0.09654062499999999 0.625
vt 0.046875 0.625
vt 0.09375 0.575453125
vt 0.09718437499999999 0.625
vt 0.058121875 0.625
vt 0.046875 0.575453125
vn 0.4457797625852038 0 0.895142672019092
vn -0.36514031873089703 0 -0.9309524948337049
vn 0.0748002198598911 0.9958221304446452 -0.05237567780563942
vn 0.0748002198598911 -0.9958221304446452 -0.05237567780563942
vn -0.8191520442889917 0 0.5735764363510463
vn 0.8191520442889917 0 -0.5735764363510463
vn -0.5735764363510463 0 -0.8191520442889917
vn 0 -1 0
vn 0.5735764363510463 0 0.8191520442889917
vn 0 1 0
vn -0.37800446169531565 0 -0.9258037734522553
vn 0 -1 0
vn 0.5155470345560049 0 0.8568612811654577
vn 0 1 0
usemtl m_ad382590-fa45-a3f3-6082-8f39e6c78367
f 2/1/1 12/2/1 11/3/1 4/4/1
f 8/5/2 10/6/2 9/7/2 6/8/2
f 6/9/3 9/10/3 12/11/3 2/12/3
f 4/13/4 11/14/4 10/15/4 8/16/4
f 3/17/5 1/18/5 5/19/5 7/20/5
f 6/21/6 2/22/6 4/23/6 8/24/6
f 10/25/7 14/26/7 13/27/7 9/28/7
f 11/29/8 15/30/8 14/31/8 10/32/8
f 12/33/9 16/34/9 15/35/9 11/36/9
f 9/37/10 13/38/10 16/39/10 12/40/10
f 5/41/11 13/42/11 14/43/11 7/44/11
f 7/45/12 14/46/12 15/47/12 3/48/12
f 3/49/13 15/50/13 16/51/13 1/52/13
f 1/53/14 16/54/14 13/55/14 5/56/14
o cuboid
v 0.38169208473141925 0.0625 0.08565440199544228
v 0.0040349411102901245 0.0625 0.4105810893073868
v 0.38169208473141925 0 0.08565440199544228
v 0.0040349411102901245 0 0.4105810893073868
v 0.4450286666953874 0.0625 0.1547741523213914
v 0.06429627951840305 0.0625 0.4823977558497907
v 0.4450286666953874 0 0.1547741523213914
v 0.06429627951840305 0 0.4823977558497907
v 0.1301807229902661 0.0625 0.2737364251000197
v 0.1301807229902661 0 0.2737364251000197
v 0.19351730495423422 0 0.34285617542596886
v 0.19351730495423422 0.0625 0.34285617542596886
vt 0.046875 0.8125
vt 0.125390625 0.8125
vt 0.125390625 0.828125
vt 0.046875 0.828125
vt 0.12538906249999998 0.828125
vt 0.046875 0.828125
vt 0.046875 0.8125
vt 0.12538906249999998 0.8125
vt 0.0703125 0.765625
vt 0.078125 0.84375
vt 0.0546875 0.84375
vt 0.046875 0.765625
vt 0.046875 0.84375
vt 0.0546875 0.765625
vt 0.078125 0.765625
vt 0.0703125 0.84375
vt 0.0703125 0.8125
vt 0.0703125 0.828125
vt 0.046875 0.828125
vt 0.046875 0.8125
vt 0.07031250000000011 0.828125
vt 0.04687500000000011 0.828125
vt 0.04687500000000011 0.8125
vt 0.07031250000000011 0.8125
vt 0.0934046875 0.828125
vt 0.046875 0.828125
vt 0.046875 0.8125
vt 0.0934046875 0.8125
vt 0.04986455355127983 0.8047707050281181
vt 0.09639379864954101 0.8047707050281181
vt 0.09442065075433304 0.8281249999999993
vt 0.046875 0.8280171734097944
vt 0.046875 0.8125
vt 0.09442031249999999 0.8125
vt 0.09442031249999999 0.828125
vt 0.046875 0.828125
vt 0.0625000000000005 0.84375
vt 0.0625000000000005 0.7962042269783468
vt 0.08585870971433113 0.7942840481503115
vt 0.08575318845502877 0.840813173595326
vn -0.5988755449567648 0 -0.8008421078169766
vn 0.5988755449567648 0 0.8008421078169766
vn 0 1 0
vn 0 -1 0
vn 0.7372773368101241 0 -0.6755902076156602
vn -0.7660444431189779 0 0.6427876096865396
vn -0.7352648652517336 0 -0.6777798889952034
vn 0 -1 0
vn 0.7337191036015175 0 0.6794529247933118
vn 0 1 0
usemtl m_ad382590-fa45-a3f3-6082-8f39e6c78367
f 19/57/15 26/58/15 25/59/15 17/60/15
f 21/61/16 28/62/16 27/63/16 23/64/16
f 17/65/17 25/66/17 28/67/17 21/68/17
f 23/69/18 27/70/18 26/71/18 19/72/18
f 19/73/19 17/74/19 21/75/19 23/76/19
f 22/77/20 18/78/20 20/79/20 24/80/20
f 18/81/21 25/82/21 26/83/21 20/84/21
f 20/85/22 26/86/22 27/87/22 24/88/22
f 24/89/23 27/90/23 28/91/23 22/92/23
f 22/93/24 28/94/24 25/95/24 18/96/24
o cuboid
v 0.8969050591976044 0.109375 0.5100561490538903
v 0.6005894840130661 0.109375 0.9006635689393488
v 0.8969050591976044 0.015625 0.5100561490538903
v 0.6005894840130661 0.015625000000000028 0.9006635689393488
v 1.032221528538923 0.109375 0.5881811490538903
v 0.7202839282504064 0.109375 1.0010991329528705
v 1.032221528538923 0.015625 0.5881811490538903
v 0.7202839282504064 0.015625000000000028 1.0010991329528705
v 0.9426582346706593 0.109375 0.6808093245269451
v 0.9426582346706593 0.015625 0.6808093245269451
v 0.8073417653293407 0.015625 0.6026843245269451
v 0.8073417653293407 0.109375 0.6026843245269451
v 0.8176582346706593 0.109375 0.8973156754730549
v 0.8176582346706593 0.015625 0.8973156754730549
v 0.6823417653293407 0.015625 0.8191906754730549
v 0.6823417653293407 0.109375 0.8191906754730549
vt 0.6694781249999993 0.953125
vt 0.6406249999999992 0.953125
vt 0.6406249999999992 0.9296875
vt 0.6694781249999993 0.9296875
vt 0.625 0.9296875
vt 0.660578125 0.9296875
vt 0.660578125 0.953125
vt 0.625 0.953125
vt 0.054984374999999974 0.65625
vt 0.046875 0.6216078125
vt 0.0859375 0.6216078125
vt 0.09345312500000003 0.6494656249999999
vt 0.625 0.9307156250000006
vt 0.632515625 0.9028578125000006
vt 0.671578125 0.9028578125000006
vt 0.66346875 0.9375000000000007
vt 0.6640625 0.9296875
vt 0.6640625 0.953125
vt 0.625 0.953125
vt 0.625 0.9296875
vt 0.6640625000000008 0.953125
vt 0.6250000000000008 0.953125
vt 0.6250000000000008 0.9296875
vt 0.6640625000000008 0.9296875
vt 0.6572109374999999 0.953125
vt 0.625 0.953125
vt 0.625 0.9296875
vt 0.6572109374999999 0.9296875
vt 0.625 0.953125
vt 0.6328125 0.921875
vt 0.671875 0.921875
vt 0.6640625 0.953125
vt 0.625 0.9296875
vt 0.6572125 0.9296875
vt 0.6572125 0.953125
vt 0.625 0.953125
vt 0.6640625 0.90625
vt 0.671875 0.9375
vt 0.6328125 0.9375
vt 0.625 0.90625
vt 0.6875 0.953125
vt 0.625 0.953125
vt 0.625 0.9296875
vt 0.6875 0.9296875
vt 0.625 0.953125
vt 0.625 0.890625
vt 0.6640625 0.890625
vt 0.6640625 0.953125
vt 0.625 0.9296875
vt 0.6875 0.9296875
vt 0.6875 0.953125
vt 0.625 0.953125
vt 0.6796875 0.8125
vt 0.6796875 0.875
vt 0.640625 0.875
vt 0.640625 0.8125
vn -0.705895412718699 0 -0.7083160779642782
vn 0.7292660727644186 0 0.6842302208429277
vn 0 1 0
vn -1.24538477224692e-16 -1 2.157069700504261e-16
vn 0.49999999999999994 0 -0.8660254037844388
vn -0.642787609686539 0 0.7660444431189783
vn 0.7189002378986395 0 0.6951132626768673
vn 0 -1 0
vn -0.7189002378986395 0 -0.6951132626768673
vn 0 1 0
vn 0.8660254037844388 0 0.49999999999999994
vn 0 -1 0
vn -0.8660254037844388 0 -0.49999999999999994
vn 0 1 0
usemtl m_ad382590-fa45-a3f3-6082-8f39e6c78367
f 30/97/25 44/98/25 43/99/25 32/100/25
f 36/101/26 42/102/26 41/103/26 34/104/26
f 34/105/27 41/106/27 44/107/27 30/108/27
f 32/109/28 43/110/28 42/111/28 36/112/28
f 31/113/29 29/114/29 33/115/29 35/116/29
f 34/117/30 30/118/30 32/119/30 36/120/30
f 33/121/31 37/122/31 38/123/31 35/124/31
f 35/125/32 38/126/32 39/127/32 31/128/32
f 31/129/33 39/130/33 40/131/33 29/132/33
f 29/133/34 40/134/34 37/135/34 33/136/34
f 37/137/35 41/138/35 42/139/35 38/140/35
f 38/141/36 42/142/36 43/143/36 39/144/36
f 39/145/37 43/146/37 44/147/37 40/148/37
f 40/149/38 44/150/38 41/151/38 37/152/38
o cube
v 0.1875 0.04843750000000002 0.5625
v 0.1875 0.04843750000000002 0.3125
v 0.1875 -0.014062499999999978 0.5625
v 0.1875 -0.014062499999999978 0.3125
v 0.125 0.04843750000000002 0.3125
v 0.125 0.04843750000000002 0.5625
v 0.125 -0.014062499999999978 0.3125
v 0.125 -0.014062499999999978 0.5625
vt 0.125 0.65625
vt 0.140625 0.65625
vt 0.140625 0.640625
vt 0.125 0.640625
vt 0.125 0.65625
vt 0.1875 0.65625
vt 0.1875 0.640625
vt 0.125 0.640625
vt 0.125 0.65625
vt 0.140625 0.65625
vt 0.140625 0.640625
vt 0.125 0.640625
vt 0.125 0.65625
vt 0.1875 0.65625
vt 0.1875 0.640625
vt 0.125 0.640625
vt 0.125 0.65625
vt 0.140625 0.65625
vt 0.140625 0.59375
vt 0.125 0.59375
vt 0.125 0.65625
vt 0.140625 0.65625
vt 0.140625 0.59375
vt 0.125 0.59375
vn 0 0 -1
vn 1 0 0
vn 0 0 1
vn -1 0 0
vn 0 1 0
vn 0 -1 0
usemtl m_ad382590-fa45-a3f3-6082-8f39e6c78367
f 48/156/39 51/155/39 49/154/39 46/153/39
f 47/160/40 48/159/40 46/158/40 45/157/40
f 52/164/41 47/163/41 45/162/41 50/161/41
f 51/168/42 52/167/42 50/166/42 49/165/42
f 50/172/43 45/171/43 46/170/43 49/169/43
f 51/176/44 48/175/44 47/174/44 52/173/44