# Made in Blockbench 4.10.3
mtllib putrid_stump.mtl

o cube
v 0.5959005793628913 0.25503687629349325 0.7275905717340039
v 0.7981998464626046 0.3378058633737724 0.504251029089573
v 0.8901174269901628 -0.08115543689183669 0.8694980684611604
v 1.0924166940898759 0.0016135501884425585 0.64615852581673
v 0.6630755846936873 0.1363807139951705 0.3072089191759484
v 0.4607763175939741 0.053611726914891245 0.5305484618203793
v 0.9572924323209586 -0.1998115991901595 0.44911641590310514
v 0.7549931652212454 -0.2825805862704387 0.6724559585475358
vt 0.125 0.8200000000000001
vt 0.203125 0.8200000000000001
vt 0.203125 0.6699999999999999
vt 0.125 0.6699999999999999
vt 0.046875 0.96
vt 0.125 0.96
vt 0.125 0.81
vt 0.046875 0.81
vt 0.125 0.8200000000000001
vt 0.203125 0.8200000000000001
vt 0.203125 0.6699999999999999
vt 0.125 0.6699999999999999
vt 0.125 0.8200000000000001
vt 0.203125 0.8200000000000001
vt 0.203125 0.6699999999999999
vt 0.125 0.6699999999999999
vt 0.125 0.8200000000000001
vt 0.203125 0.8200000000000001
vt 0.203125 0.72
vt 0.125 0.72
vt 0.125 0.8200000000000001
vt 0.203125 0.8200000000000001
vt 0.203125 0.72
vt 0.125 0.72
vn 0.6473576547190821 0.26486075865689357 -0.7146865364621783
vn 0.4323976376605354 0.6445604780115265 0.6305347517235991
vn -0.6473576547190821 -0.26486075865689357 0.7146865364621783
vn -0.4323976376605354 -0.6445604780115265 -0.6305347517235991
vn -0.6276626082715124 0.7172102681287039 -0.30273599301793436
vn 0.6276626082715124 -0.7172102681287039 0.30273599301793436
usemtl m_fe1506f3-3c31-9e6c-85d3-9f5e3b652359
f 4/4/1 7/3/1 5/2/1 2/1/1
f 3/8/2 4/7/2 2/6/2 1/5/2
f 8/12/3 3/11/3 1/10/3 6/9/3
f 7/16/4 8/15/4 6/14/4 5/13/4
f 6/20/5 1/19/5 2/18/5 5/17/5
f 7/24/6 4/23/6 3/22/6 8/21/6
o cuboid
v 0.5328961599427203 0.7197943737088961 0.020715068647663648
v 0.5670093994386989 0.6413881445080789 -0.22730967329071416
v 0.6507311227862889 0.006231091894855517 0.1887983649732844
v 0.70177339025394 -0.07768352322963173 -0.18971600305026898
v 0.2727906005613014 0.7123827137183029 -0.01271676909815686
v 0.30690384005728 0.6339764845174857 -0.26074151103653465
v 0.2630266097460603 -0.004816476770368339 0.1389660030502689
v 0.31406887721371146 -0.08873109189485556 -0.23954836497328447
v 0.6161327372735667 0.5162294758025165 -0.23862720904140872
v 0.5704746752349926 0.5912923382767414 0.099959483030293
v 0.2236672627264337 0.5814101249559507 0.05538369936919897
v 0.2693253247650077 0.5063472624817258 -0.28320299270250276
vt 0.011056250000000233 0.9000000000000006
vt 2.3592239273284576e-16 0.8522680000000006
vt 0.08745000000000024 0.8522680000000006
vt 0.07639375000000023 0.8930040000000006
vt 0.12043125000000024 0.9131259999999998
vt 0.10937500000000024 0.8723339999999997
vt 0.19682500000000025 0.8723339999999997
vt 0.18576875000000023 0.9199999999999997
vt 0.12808749999999974 0.9200000000000008
vt 0.06249999999999973 0.9200000000000008
vt 0.06249999999999973 0.8360480000000008
vt 0.12808749999999974 0.8360480000000008
vt 0.19151250000000075 0.7948639999999997
vt 0.19151250000000075 0.9199999999999997
vt 0.09375000000000075 0.9199999999999997
vt 0.09375000000000075 0.7948639999999997
vt 0.10468125000000023 0.8800000000000009
vt 0.09375000000000024 0.8322220000000009
vt 0.18120000000000025 0.8322220000000009
vt 0.17026875000000025 0.8800000000000009
vt 0.07343125000000023 0.9200000000000007
vt 0.06250000000000024 0.8791520000000006
vt 0.14995000000000025 0.8791520000000006
vt 0.13901875000000025 0.9200000000000007
vt 0.12589531250000024 0.5295740000000002
vt 0.10307500000000025 0.7200000000000002
vt 0.015625000000000236 0.7200000000000002
vt 0.028132812500000243 0.5295740000000002
vt 0.19979062500000022 0.7103880000000002
vt 0.18120000000000025 0.9000000000000002
vt 0.09375000000000024 0.9000000000000002
vt 0.10202812500000023 0.7103880000000002
vt 0.1915125000000006 0.3507680000000001
vt 0.20402031250000063 0.54
vt 0.11657031250000062 0.54
vt 0.09375000000000062 0.3507680000000001
vt 0.19151250000000009 0.7088219999999998
vt 0.1997906250000001 0.8999999999999998
vt 0.1123406250000001 0.8999999999999998
vt 0.0937500000000001 0.7088219999999998
vn 0.947889962023671 0.3132021886869124 0.058386718493944875
vn -0.9312970818501889 0.3083382622051603 -0.19394138650021248
vn 0.011376107230962176 0.9538783345009663 -0.2999778444384394
vn 0 -0.9762960071199334 0.2164396139381028
vn -0.12466914472280645 0.49413305542526764 0.8604011435895316
vn 0.1224423053385108 0.13694386936897568 -0.9829823286843177
vn 0.9836736390355393 0.15002801531191007 0.09938695330952207
vn -0.13006006790235028 0.13138684474177817 0.9827623699379399
vn -0.9898893705454855 -0.08287375353781704 -0.11511287962524243
vn 0.12899366222831446 -0.06290112945271599 -0.9896484643642409
usemtl m_fe1506f3-3c31-9e6c-85d3-9f5e3b652359
f 9/25/7 18/26/7 17/27/7 10/28/7
f 14/29/8 20/30/8 19/31/8 13/32/8
f 13/33/9 9/34/9 10/35/9 14/36/9
f 12/37/10 11/38/10 15/39/10 16/40/10
f 13/41/11 19/42/11 18/43/11 9/44/11
f 10/45/12 17/46/12 20/47/12 14/48/12
f 12/49/13 17/50/13 18/51/13 11/52/13
f 11/53/14 18/54/14 19/55/14 15/56/14
f 15/57/15 19/58/15 20/59/15 16/60/15
f 16/61/16 20/62/16 17/63/16 12/64/16
o cube
v 0.8478493100840223 0.8125 0.6434556724620466
v 0.712574551372708 0.8125 0.033270668012088334
v 0.8478493100840223 0 0.6434556724620466
v 0.712574551372708 0 0.033270668012088334
v 0.1023895469227496 0.8125 0.16854542672340256
v 0.23766430563406393 0.8125 0.7787304311733609
v 0.1023895469227496 0 0.16854542672340256
v 0.23766430563406393 0 0.7787304311733609
vt 0 0.7
vt 0.15625 0.7
vt 0.15625 0.43999999999999995
vt 0 0.43999999999999995
vt 0 1
vt 0.15625 1
vt 0.15625 0.74
vt 0 0.74
vt 0 0.7
vt 0.15625 0.7
vt 0.15625 0.43999999999999995
vt 0 0.43999999999999995
vt 0 0.98
vt 0.15625 0.98
vt 0.15625 0.72
vt 0 0.72
vt 0.296875 0.98
vt 0.453125 0.98
vt 0.453125 0.78
vt 0.296875 0.78
vt 0 1
vt 0.15625 1
vt 0.15625 0.8
vt 0 0.8
vn -0.21643961393810288 0 -0.9762960071199334
vn 0.9762960071199334 0 -0.21643961393810288
vn 0.21643961393810288 0 0.9762960071199334
vn -0.9762960071199334 0 0.21643961393810288
vn 0 1 0
vn 0 -1 0
usemtl m_fe1506f3-3c31-9e6c-85d3-9f5e3b652359
f 24/68/17 27/67/17 25/66/17 22/65/17
f 23/72/18 24/71/18 22/70/18 21/69/18
f 28/76/19 23/75/19 21/74/19 26/73/19
f 27/80/20 28/79/20 26/78/20 25/77/20
f 26/84/21 21/83/21 22/82/21 25/81/21
f 27/88/22 24/87/22 23/86/22 28/85/22
o cube
v 0.34419477193305903 0.2227712096378971 0.7335791025122274
v 0.47689446698222815 0.17105753016720882 0.3866763981562935
v -0.013731108425977523 -0.11547116581934835 0.6470854055496826
v 0.11896858662319165 -0.16718484529003658 0.3001827011937488
v 0.3640301795292905 0.30670067323334194 0.32328207382925933
v 0.2313304844801214 0.3584143527040302 0.6701847781851931
v 0.006104299170254013 -0.031541702223903456 0.2367883768667146
v -0.12659539587891516 0.020171977246784767 0.5836910812226486
vt 0.03125 0.96
vt 0.078125 0.96
vt 0.078125 0.8200000000000001
vt 0.03125 0.8200000000000001
vt 0.03125 0.96
vt 0.109375 0.96
vt 0.109375 0.8200000000000001
vt 0.03125 0.8200000000000001
vt 0.03125 0.96
vt 0.078125 0.96
vt 0.078125 0.8200000000000001
vt 0.03125 0.8200000000000001
vt 0.03125 0.96
vt 0.109375 0.96
vt 0.109375 0.8200000000000001
vt 0.03125 0.8200000000000001
vt 0.03125 0.96
vt 0.078125 0.96
vt 0.078125 0.86
vt 0.03125 0.86
vt 0.03125 0.96
vt 0.078125 0.96
vt 0.078125 0.86
vt 0.03125 0.86
vn 0.35386585346445115 -0.13790314525516872 -0.9250738782824903
vn 0.6019428664156677 -0.72343009635271 0.3381030630775156
vn -0.35386585346445115 0.13790314525516872 0.9250738782824903
vn -0.6019428664156677 0.72343009635271 -0.3381030630775156
vn 0.7158517607180731 0.6764847509144909 0.17298739392508938
vn -0.7158517607180731 -0.6764847509144909 -0.17298739392508938
usemtl m_fe1506f3-3c31-9e6c-85d3-9f5e3b652359
f 32/92/23 35/91/23 33/90/23 30/89/23
f 31/96/24 32/95/24 30/94/24 29/93/24
f 36/100/25 31/99/25 29/98/25 34/97/25
f 35/104/26 36/103/26 34/102/26 33/101/26
f 34/108/27 29/107/27 30/106/27 33/105/27
f 35/112/28 32/111/28 31/110/28 36/109/28