# Made in Blockbench 4.10.3
mtllib putrid_stump_3.mtl

o cube
v 0.07551798175334379 0 -0.0049497100289321305
v -0.11037792975424565 0 0.01952395101232751
v -0.11037792975424565 0.875 0.01952395101232751
v 0.07551798175334379 0.875 -0.0049497100289321305
v 0.18972839994588897 0 0.8625645436731519
v 0.18972839994588897 0.875 0.8625645436731519
v 0.0038324884382995306 0 0.8870382047144116
v 0.0038324884382995306 0.875 0.8870382047144116
vt 0.6406250000000001 0.62
vt 0.6875000000000001 0.62
vt 0.6875000000000001 0.9
vt 0.6406250000000001 0.9
vt 0.5937500000000002 0.6799999999999999
vt 0.8125000000000002 0.6799999999999999
vt 0.8125000000000002 0.96
vt 0.5937500000000002 0.96
vt 0.7812499999999999 0.62
vt 0.8281249999999999 0.62
vt 0.8281249999999999 0.9
vt 0.7812499999999999 0.9
vt 0.7499999999999998 0.54
vt 0.9687499999999998 0.54
vt 0.9687499999999998 0.8200000000000001
vt 0.7499999999999998 0.8200000000000001
vt 2.220446049250313e-16 0.6200004694293288
vt 0.04687605707141462 0.6200004694293288
vt 0.04687640998012288 0.8999999999999996
vt 0.0000019020404409264557 0.8999997389392201
vt 0.5312500000000004 0.6399963470949884
vt 0.5312500000000004 0.5799969769316276
vt 0.7499996332547307 0.579998646949158
vt 0.7499994292942564 0.6400000000000006
vn -0.13052619222005146 0 -0.9914448613738106
vn 0.9914448613738104 0 -0.13052619222005163
vn 0.1305261922200517 0 0.9914448613738104
vn -0.9914448613738104 0 0.13052619222005163
vn 0 1 0
vn 0 -1 0
usemtl m_10701ef6-2c7d-bb77-c9cd-43d413cf4a8e
f 1/1/1 2/2/1 3/3/1 4/4/1
f 5/5/2 1/6/2 4/7/2 6/8/2
f 7/9/3 5/10/3 6/11/3 8/12/3
f 2/13/4 7/14/4 8/15/4 3/16/4
f 8/17/5 6/18/5 4/19/5 3/20/5
f 2/21/6 1/22/6 5/23/6 7/24/6
o cube
v 0.7816099849890983 0 0.09120944432737188
v 0.7571363239478384 0 -0.09468646718021761
v 0.7571363239478384 0.875 -0.09468646718021761
v 0.7816099849890983 0.875 0.09120944432737188
v 0.09999164279460349 0 0.18094620147865748
v 0.09999164279460349 0.875 0.18094620147865748
v 0.07551798175334379 0 -0.004949710028931964
v 0.07551798175334379 0.875 -0.004949710028931964
vt 0.6875000000000002 0.6
vt 0.7343750000000002 0.6
vt 0.7343750000000002 0.88
vt 0.6875000000000002 0.88
vt 0.031249999999999868 0.6799999999999999
vt 0.20312499999999986 0.6799999999999999
vt 0.20312499999999986 0.96
vt 0.031249999999999868 0.96
vt 0.8437499999999998 0.5800000000000001
vt 0.8906249999999998 0.5800000000000001
vt 0.8906249999999998 0.86
vt 0.8437499999999998 0.86
vt 0.7343750000000001 0.5800000000000001
vt 0.9062500000000001 0.5800000000000001
vt 0.9062500000000001 0.86
vt 0.7343750000000001 0.86
vt 0.5624999999999997 0.9999999999999994
vt 0.5624999999999997 0.9400006298366386
vt 0.73437492135413 0.9399969769316262
vt 0.7343751253146042 0.9999983299824686
vt 0.5312505568624426 0.5599998395921233
vt 0.578126613933857 0.5599998395921233
vt 0.5781245079396823 0.7799997389392216
vt 0.5312500000000003 0.7800000000000011
vn 0.9914448613738103 0 -0.13052619222005285
vn 0.13052619222005177 0 0.9914448613738105
vn -0.9914448613738104 0 0.1305261922200517
vn -0.13052619222005185 0 -0.9914448613738104
vn 0 1 0
vn 0 -1 0
usemtl m_10701ef6-2c7d-bb77-c9cd-43d413cf4a8e
f 9/25/7 10/26/7 11/27/7 12/28/7
f 13/29/8 9/30/8 12/31/8 14/32/8
f 15/33/9 13/34/9 14/35/9 16/36/9
f 10/37/10 15/38/10 16/39/10 11/40/10
f 16/41/11 14/42/11 12/43/11 11/44/11
f 10/45/12 9/46/12 13/47/12 15/48/12
o cube
v 0.8713467421403838 0 0.7728277865218667
v 0.8468730810991238 0 0.5869318750142771
v 0.8468730810991238 0.875 0.5869318750142771
v 0.8713467421403838 0.875 0.7728277865218667
v 0.18972839994588897 0 0.8625645436731522
v 0.18972839994588897 0.875 0.8625645436731522
v 0.16525473890462927 0 0.6766686321655628
v 0.16525473890462927 0.875 0.6766686321655628
vt 0.6718750000000002 0.6
vt 0.7187500000000002 0.6
vt 0.7187500000000002 0.88
vt 0.6718750000000002 0.88
vt 0.5156249999999999 0.6799999999999999
vt 0.6874999999999999 0.6799999999999999
vt 0.6874999999999999 0.96
vt 0.5156249999999999 0.96
vt 0.7656249999999998 0.54
vt 0.8124999999999998 0.54
vt 0.8124999999999998 0.8200000000000001
vt 0.7656249999999998 0.8200000000000001
vt 0.7031250000000001 0.72
vt 0.8750000000000001 0.72
vt 0.8750000000000001 1
vt 0.7031250000000001 1
vt 0.015625000000000666 0.9199999999999998
vt 0.015625000000000666 0.8600006298366389
vt 0.1874985761837602 0.8599992208885154
vt 0.18750012531460525 0.919998329982469
vt 0.5624999999999998 0.5399998396622583
vt 0.6093743040052494 0.5399998396622582
vt 0.6093788834482445 0.7599980171038921
vt 0.5625043755337172 0.7600000000000006
vn 0.9914448613738103 0 -0.13052619222005282
vn 0.1305261922200516 0 0.9914448613738105
vn -0.9914448613738105 0 0.13052619222005182
vn -0.13052619222005193 0 -0.9914448613738104
vn 0 1 0
vn 0 -1 0
usemtl m_10701ef6-2c7d-bb77-c9cd-43d413cf4a8e
f 17/49/13 18/50/13 19/51/13 20/52/13
f 21/53/14 17/54/14 20/55/14 22/56/14
f 23/57/15 21/58/15 22/59/15 24/60/15
f 18/61/16 23/62/16 24/63/16 19/64/16
f 24/65/17 22/66/17 20/67/17 19/68/17
f 18/69/18 17/70/18 21/71/18 23/72/18
o cube
v 0.7816099849890981 0 0.09120944432737188
v 0.5957140734815087 0 0.11568310536863158
v 0.5957140734815087 0.875 0.11568310536863158
v 0.7816099849890981 0.875 0.09120944432737188
v 0.8468730810991238 0 0.5869318750142771
v 0.8468730810991238 0.875 0.5869318750142771
v 0.6609771695915345 0 0.6114055360555368
v 0.6609771695915345 0.875 0.6114055360555368
vt 0.6875000000000001 0.56
vt 0.7343750000000001 0.56
vt 0.7343750000000001 0.84
vt 0.6875000000000001 0.84
vt 0.5156250000000002 0.6799999999999999
vt 0.6406250000000002 0.6799999999999999
vt 0.6406250000000002 0.96
vt 0.5156250000000002 0.96
vt 0.7812499999999999 0.54
vt 0.8281249999999999 0.54
vt 0.8281249999999999 0.8200000000000001
vt 0.7812499999999999 0.8200000000000001
vt 0.06249999999999978 0.4
vt 0.18749999999999978 0.4
vt 0.18749999999999978 0.6799999999999999
vt 0.06249999999999978 0.6799999999999999
vt 0.18749999999999956 0.7399992097549152
vt 0.23437605707141396 0.7399992097549151
vt 0.23437661393385634 0.8999980171113825
vt 0.18750076081617584 0.8999999999999999
vt 0.5312500000000002 0.6600000000000004
vt 0.5312500000000002 0.5999989079766047
vt 0.6562490681973849 0.599994333193201
vt 0.6562506173358567 0.6599956862118465
vn -0.13052619222005182 0 -0.9914448613738105
vn 0.9914448613738104 0 -0.13052619222005157
vn 0.13052619222005182 0 0.9914448613738105
vn -0.9914448613738104 0 0.13052619222005157
vn 0 1 0
vn 0 -1 0
usemtl m_10701ef6-2c7d-bb77-c9cd-43d413cf4a8e
f 25/73/19 26/74/19 27/75/19 28/76/19
f 29/77/20 25/78/20 28/79/20 30/80/20
f 31/81/21 29/82/21 30/83/21 32/84/21
f 26/85/22 31/86/22 32/87/22 27/88/22
f 32/89/23 30/90/23 28/91/23 27/92/23
f 26/93/24 25/94/24 29/95/24 31/96/24
o cube
v 0.5957140734815087 0 0.11568310536863147
v 0.09999164279460349 0 0.18094620147865736
v 0.09999164279460349 0.75 0.18094620147865736
v 0.5957140734815087 0.75 0.11568310536863147
v 0.6609771695915345 0 0.6114055360555368
v 0.6609771695915345 0.75 0.6114055360555368
v 0.16525473890462927 0 0.6766686321655624
v 0.16525473890462927 0.75 0.6766686321655624
vt 0.6875 0.6416
vt 0.8125 0.6416
vt 0.8125 0.9231999999999999
vt 0.6875 0.9231999999999999
vt 0.515625 0.7184
vt 0.640625 0.7184
vt 0.640625 1
vt 0.515625 1
vt 0.78125 0.7696000000000001
vt 0.90625 0.7696000000000001
vt 0.90625 0.488
vt 0.78125 0.488
vt 0.75 0.4112
vt 0.875 0.4112
vt 0.875 0.6928000000000001
vt 0.75 0.6928000000000001
vt 0.43749927219531365 0.9599999999999999
vt 0.3125002039468332 0.9599999999999997
vt 0.31250000000000044 0.7999992097521642
vt 0.4374990682484809 0.7999992097521642
vt 0.53125 0.5136000000000001
vt 0.65625 0.5136000000000001
vt 0.65625 0.7184
vt 0.53125 0.7184
vn -0.13052619222005177 0 -0.9914448613738104
vn 0.9914448613738105 0 -0.13052619222005155
vn 0.13052619222005113 0 0.9914448613738106
vn -0.9914448613738105 0 0.13052619222005163
vn 0 1 0
vn 0 -1 0
usemtl m_10701ef6-2c7d-bb77-c9cd-43d413cf4a8e
f 33/97/25 34/98/25 35/99/25 36/100/25
f 37/101/26 33/102/26 36/103/26 38/104/26
f 39/105/27 37/106/27 38/107/27 40/108/27
f 34/109/28 39/110/28 40/111/28 35/112/28
f 40/113/29 38/114/29 36/115/29 35/116/29
f 34/117/30 33/118/30 37/119/30 39/120/30
o cube
v 0.22958266671626615 0.05982140812727804 -0.24717528211121087
v -0.1309662871761984 0.10512879691680374 -0.17047248410733423
v 0.01907549445367085 0.48475638933377163 0.016350926319147474
v 0.3796244483461355 0.43944900054424596 -0.06035187168472922
v 0.26308184615941677 0.0044957613023393905 -0.014150147012622849
v 0.413123627789286 0.3841233537193073 0.1726732634138588
v -0.09746710773304784 0.04980315009186509 0.06255265099125373
v 0.052574673896821356 0.429430742508833 0.24937606141773538
vt 0.8281249999999997 0.5399990867944238
vt 0.9218749979817704 0.5399990867944238
vt 0.9218764288411763 0.7399980384332903
vt 0.828126735703162 0.7399999999999991
vt 0.8281254666044581 0.5399999594708951
vt 0.8906250786735667 0.539999959470895
vt 0.890624612069108 0.7399999999999991
vt 0.8281249999999994 0.7399999999999991
vt 0.7968750000000003 0.7199981684999597
vt 0.7968750000000003 0.5999981710832931
vt 0.953125713441856 0.6000003927833408
vt 0.9531241809678647 0.7199999999999991
vt 0.7812500000000002 0.6799999999999993
vt 0.7812500000000002 0.6000004965515403
vt 0.9375000316633628 0.5999998992978333
vt 0.9375000316633628 0.6799994027462922
vt 0.8437500000000002 0.780000000000001
vt 0.8437500000000002 0.6599998071668226
vt 0.9062489365729703 0.6599997534002424
vt 0.9062489365729703 0.7799999462334207
vt 0.92187515065092 0.7600000000000005
vt 0.8281249999999993 0.7600000000000005
vt 0.8281250420051401 0.6800013611865987
vt 0.9218751926560608 0.6800013611865987
vn -0.1250303045251694 0.4774296905181586 -0.86972887359342
vn 0.9408575934223161 -0.2733571836355895 -0.20015703598521445
vn 0.12503030452516925 -0.4774296905181584 0.86972887359342
vn -0.9408575934223162 0.27335718363558925 0.20015703598521423
vn 0.16490889888230684 0.9646981680478423 0.20533509109395398
vn -0.1649088988823068 -0.9646981680478423 -0.20533509109395381
usemtl m_10701ef6-2c7d-bb77-c9cd-43d413cf4a8e
f 41/121/31 42/122/31 43/123/31 44/124/31
f 45/125/32 41/126/32 44/127/32 46/128/32
f 47/129/33 45/130/33 46/131/33 48/132/33
f 42/133/34 47/134/34 48/135/34 43/136/34
f 48/137/35 46/138/35 44/139/35 43/140/35
f 42/141/36 41/142/36 45/143/36 47/144/36
o cube
v 0.993891191734646 -0.0026082624725295434 -0.40197718929070064
v 0.5770912558889503 -0.1350372024254788 -0.3898677160584816
v 0.33836680200983715 0.6452069477848754 -0.07386977115592142
v 0.7551667378555331 0.7776358877378247 -0.08597924438814042
v 1.044139960899372 -0.12879643792915024 -0.05243948664281867
v 0.8054155070202591 0.6514477122812039 0.26355845825974156
v 0.627340025053676 -0.2612253778820995 -0.04033001341059955
v 0.388615571174563 0.5190187723282547 0.27566793149196056
vt 0.5625 0.9399981061421281
vt 0.5625 0.7999981600564242
vt 0.7812494135042546 0.8000000539142965
vt 0.7812494135042546 0.9400000000000004
vt 0.9062500000000006 0.57999975502223
vt 1.0000001608331959 0.57999975502223
vt 1.0000006481240267 0.8599999999999994
vt 0.9062504872908312 0.8599999999999995
vt 0.8281249999999993 0.600000750714555
vt 0.9374999578794555 0.600000750714555
vt 0.9375014374559182 0.880000000000001
vt 0.828126479576462 0.880000000000001
vt 0.7812500000000006 0.7399993762677358
vt 0.7812500000000006 0.6199991704012457
vt 1.000000191388883 0.6199997941335091
vt 1.000000191388883 0.7399999999999991
vt 0.8281250000000003 0.6400005076677472
vt 0.9375002728233208 0.6400005076677473
vt 0.9375003061714519 0.7599999999999992
vt 0.8281250333481314 0.7599999999999991
vt 0.9374996033845725 0.6199996507861489
vt 0.9374996033845725 0.759999999999999
vt 0.8437500000000008 0.7599999573143912
vt 0.8437500000000008 0.619999608100541
vn -0.13399671777260233 0.3365018012176552 -0.9321005403943522
vn 0.9526855676473053 0.30269471989245544 -0.027678795959358234
vn 0.13399671777260241 -0.33650180121765527 0.9321005403943521
vn -0.9526855676473053 -0.30269471989245533 0.027678795959357648
vn -0.2728279472904149 0.8917076002404046 0.36114050846006907
vn 0.272827947290415 -0.8917076002404047 -0.3611405084600689
usemtl m_10701ef6-2c7d-bb77-c9cd-43d413cf4a8e
f 49/145/37 50/146/37 51/147/37 52/148/37
f 53/149/38 49/150/38 52/151/38 54/152/38
f 55/153/39 53/154/39 54/155/39 56/156/39
f 50/157/40 55/158/40 56/159/40 51/160/40
f 56/161/41 54/162/41 52/163/41 51/164/41
f 50/165/42 49/166/42 53/167/42 55/168/42
o cube
v 1.1544336323886317 -0.009607395809696329 0.8852245392411235
v 0.9480964762425674 -0.18991309448314497 0.6292170529845018
v 0.6320377700360251 0.6312419156000995 0.30561607392814427
v 0.8383749261820892 0.811547614273548 0.5616235601847659
v 0.8202145187796939 -0.02720693785168793 1.1669941086029836
v 0.5041558125731513 0.7939480722315564 0.8433931295466262
v 0.6138773626336298 -0.20751263652513652 0.9109866223463621
v 0.29781865642708727 0.6136423735581078 0.5873856432900044
vt 0 0.8199988138155748
vt 5.551115123125783e-17 0.6999972381925856
vt 0.23437551281294924 0.7000011400080208
vt 0.23437489500856104 0.8200000000000002
vt 0.06249999999999972 0.46000008741853826
vt 0.17187458057955265 0.46000008741853815
vt 0.1718775202783257 0.7599999082282201
vt 0.06250137884457302 0.7600000000000006
vt 0.015625 0.5399993435994253
vt 0.10937623095546037 0.5399993435994253
vt 0.10937715766204256 0.8399992092103834
vt 0.015628048293308716 0.8400000000000003
vt 2.7755575615628914e-17 0.6799962371855701
vt 0 0.5399967740437424
vt 0.23437493170426746 0.539998538964796
vt 0.234374860007564 0.6799999999999995
vt 0.09375000000000056 0.5399986007936923
vt 0.187499787564864 0.5399986007936923
vt 0.1875003282952559 0.6799980069621506
vt 0.09375041046968058 0.6799999999999999
vt 0.20312609312166033 0.5399984720986153
vt 0.20312609312166033 0.6599983669319025
vt 0.09375155705865687 0.6600000000000004
vt 0.09375000000000064 0.540000271933526
vn 0.763929402534715 0.04022752466740931 -0.644044729969966
vn 0.5502324163895043 0.4808151964625298 0.6826866300176576
vn -0.763929402534715 -0.040227524667409593 0.6440447299699661
vn -0.5502324163895048 -0.4808151964625298 -0.6826866300176572
vn -0.33712928662031194 0.8758986774221275 -0.3451743776601146
vn 0.33712928662031183 -0.8758986774221277 0.3451743776601148
usemtl m_10701ef6-2c7d-bb77-c9cd-43d413cf4a8e
f 57/169/43 58/170/43 59/171/43 60/172/43
f 61/173/44 57/174/44 60/175/44 62/176/44
f 63/177/45 61/178/45 62/179/45 64/180/45
f 58/181/46 63/182/46 64/183/46 59/184/46
f 64/185/47 62/186/47 60/187/47 59/188/47
f 58/189/48 57/190/48 61/191/48 63/192/48
o cube
v 0.2975578038982283 -0.10988560123653207 1.0194819034474742
v 0.2357207878021319 -0.3086524831295896 0.7864064647954305
v 0.4209596400820521 0.3657719920812267 0.16211130636263205
v 0.4827966561781485 0.5645388739742843 0.39518674501467554
v -0.12248846318238715 0.01223796902029417 1.02677690854456
v 0.06275038909753317 0.6866624442311104 0.40248175011176124
v -0.18432547927848353 -0.18652891287276335 0.7937014698925164
v 0.0009133730014366792 0.48789556233805287 0.16940631145971774
vt 2.7755575615628914e-17 0.8399986752320312
vt 0 0.7399992767338401
vt 0.2343757957746515 0.7399991031727962
vt 0.23437476079967612 0.8399999999999996
vt 8.049116928532385e-16 0.6200000000000008
vt 8.604228440844963e-16 0.4800008462168439
vt 0.23437432252410317 0.47999998746879624
vt 0.23437577920701502 0.6199998647420404
vt 0.04687513559456481 0.5399989814084467
vt 0.12499966567127649 0.5399989814084467
vt 0.12500070064625185 0.8399986752320321
vt 0.04687499999999915 0.8400000000000006
vt 0.12500067089691275 0.41999900261502143
vt 0.23437500979000403 0.4199990026150213
vt 0.2343749041197226 0.7199999999999995
vt 0.12500000000000056 0.7199981354458724
vt 0.21875039019682757 0.5599981999501628
vt 0.21875039019682754 0.6599989011677042
vt 0.10937499999999964 0.659999999999999
vt 0.10937562793309649 0.5600011301696155
vt 0.12500316834830688 0.5199995005614135
vt 0.2031272854058175 0.5199995005614136
vt 0.2031255478236798 0.659999999999999
vt 0.12499999999999914 0.6599991962309151
vn 0.9601057533271206 -0.2791395891584596 -0.01667429736476728
vn 0.19787845150750863 0.636054022057784 0.745841403686539
vn -0.9601057533271206 0.27913958915845966 0.01667429736476724
vn -0.19787845150750893 -0.636054022057784 -0.7458414036865387
vn 0.1975881090985817 0.7193861068915373 -0.6659148356616518
vn -0.19758810909858182 -0.7193861068915377 0.6659148356616513
usemtl m_10701ef6-2c7d-bb77-c9cd-43d413cf4a8e
f 65/193/49 66/194/49 67/195/49 68/196/49
f 69/197/50 65/198/50 68/199/50 70/200/50
f 71/201/51 69/202/51 70/203/51 72/204/51
f 66/205/52 71/206/52 72/207/52 67/208/52
f 72/209/53 70/210/53 68/211/53 67/212/53
f 66/213/54 65/214/54 69/215/54 71/216/54