# Made in Blockbench 4.10.3
mtllib putrid_sticks_5.mtl

o cube
v -0.01042256572785738 0.15625 1.2628122484273347
v 0.4314939159316383 0.15625 0.7361566937830373
v -0.01042256572785738 0 1.2628122484273347
v 0.4314939159316383 0 0.7361566937830373
v 0.26392169399936194 0.15625 0.5955469041641068
v -0.17799478766013382 0.15625 1.1222024588084043
v 0.26392169399936194 0 0.5955469041641068
v -0.17799478766013382 0 1.1222024588084043
vt 0.046875 0.703125
vt 0.1015625 0.703125
vt 0.1015625 0.6640625
vt 0.046875 0.6640625
vt 0.046875 0.703125
vt 0.21875 0.703125
vt 0.21875 0.6640625
vt 0.046875 0.6640625
vt 0.046875 0.703125
vt 0.1015625 0.703125
vt 0.1015625 0.6640625
vt 0.046875 0.6640625
vt 0.046875 0.703125
vt 0.21875 0.703125
vt 0.21875 0.6640625
vt 0.046875 0.6640625
vt 0.046875 0.703125
vt 0.1015625 0.703125
vt 0.1015625 0.53125
vt 0.046875 0.53125
vt 0.046875 0.703125
vt 0.1015625 0.703125
vt 0.1015625 0.53125
vt 0.046875 0.53125
vn 0.6427876096865393 0 -0.766044443118978
vn 0.766044443118978 0 0.6427876096865393
vn -0.6427876096865393 0 0.766044443118978
vn -0.766044443118978 0 -0.6427876096865393
vn 0 1 0
vn 0 -1 0
usemtl m_3a33ff85-19f3-5a46-da4a-4519ea7f5b94
f 4/4/1 7/3/1 5/2/1 2/1/1
f 3/8/2 4/7/2 2/6/2 1/5/2
f 8/12/3 3/11/3 1/10/3 6/9/3
f 7/16/4 8/15/4 6/14/4 5/13/4
f 6/20/5 1/19/5 2/18/5 5/17/5
f 7/24/6 4/23/6 3/22/6 8/21/6
o cube
v 0.387217332832251 0.13593750000000004 0.7606595590276095
v 0.6894483625273393 0.13593750000000004 0.2862518707578613
v 0.387217332832251 0 0.7606595590276095
v 0.6894483625273393 0 0.2862518707578613
v 0.5352658638396712 0.13593750000000004 0.18802678610695756
v 0.2330348341445827 0.13593750000000004 0.6624344743767057
v 0.5352658638396712 0 0.18802678610695756
v 0.2330348341445827 0 0.6624344743767057
vt 0.109375 0.90625
vt 0.155078125 0.90625
vt 0.155078125 0.872265625
vt 0.109375 0.872265625
vt 0.109375 0.90625
vt 0.25 0.90625
vt 0.25 0.872265625
vt 0.109375 0.872265625
vt 0.109375 0.90625
vt 0.155078125 0.90625
vt 0.155078125 0.872265625
vt 0.109375 0.872265625
vt 0.109375 0.90625
vt 0.25 0.90625
vt 0.25 0.872265625
vt 0.109375 0.872265625
vt 0.109375 0.90625
vt 0.155078125 0.90625
vt 0.155078125 0.765625
vt 0.109375 0.765625
vt 0.109375 0.90625
vt 0.155078125 0.90625
vt 0.155078125 0.765625
vt 0.109375 0.765625
vn 0.5372996083468238 0 -0.8433914458128857
vn 0.8433914458128857 0 0.5372996083468238
vn -0.5372996083468238 0 0.8433914458128857
vn -0.8433914458128857 0 -0.5372996083468238
vn 0 1 0
vn 0 -1 0
usemtl m_3a33ff85-19f3-5a46-da4a-4519ea7f5b94
f 12/28/7 15/27/7 13/26/7 10/25/7
f 11/32/8 12/31/8 10/30/8 9/29/8
f 16/36/9 11/35/9 9/34/9 14/33/9
f 15/40/10 16/39/10 14/38/10 13/37/10
f 14/44/11 9/43/11 10/42/11 13/41/11
f 15/48/12 12/47/12 11/46/12 16/45/12
o cube
v 0.6549631178676365 0.11875000000000002 0.3279922264633423
v 0.9929434927904092 0.11875000000000002 -0.3473336968779021
v 0.6549631178676365 0 0.3279922264633423
v 0.9929434927904092 6.245004513516506e-17 -0.3473336968779021
v 0.5534925845432737 0.11875000000000002 0.26334836733411504
v 0.9255529265806786 0.11875000000000002 -0.3902662224690998
v 0.5534925845432737 0 0.26334836733411504
v 0.9255529265806786 6.245004513516506e-17 -0.3902662224690998
v 0.810086641297315 0.11875000000000002 -0.011195688431191786
v 0.810086641297315 0 -0.011195688431191786
v 0.9115571746216778 0 0.05344817069803548
v 0.9115571746216778 0.11875000000000002 0.05344817069803548
vt 0.7116156249999993 0.9843750000000003
vt 0.6093749999999993 0.9843750000000003
vt 0.6093749999999993 0.9546875000000004
vt 0.7116156249999993 0.9546875000000004
vt 0.5156249999999996 0.9546875000000004
vt 0.6146921874999995 0.9546875000000004
vt 0.6146921874999995 0.9843750000000003
vt 0.5156249999999996 0.9843750000000003
vt 0.5468749999999996 1
vt 0.5734468749999996 0.9045640625
vt 0.6035249999999996 0.9045640625
vt 0.5668499999999996 1
vt 0.5835499999999998 0.9218750000000002
vt 0.5468749999999998 0.8264390625000002
vt 0.5769531249999998 0.8264390625000002
vt 0.6035249999999999 0.9218750000000002
vt 0.5769531249999997 0.9546875000000004
vt 0.5769531249999997 0.9843750000000003
vt 0.5468749999999997 0.9843750000000003
vt 0.5468749999999997 0.9546875000000004
vt 0.5824749999999992 0.9546875000000004
vt 0.5824749999999992 0.9843750000000003
vt 0.5624999999999991 0.9843750000000003
vt 0.5624999999999991 0.9546875000000004
vt 0.6876968749999994 0.9843750000000003
vt 0.5937499999999993 0.9843750000000003
vt 0.5937499999999993 0.9546875000000004
vt 0.6876968749999994 0.9546875000000004
vt 0.5468749999999997 0.9843749999999999
vt 0.5640984374999997 0.8920203124999999
vt 0.5941765624999997 0.8920203124999999
vt 0.5769531249999997 0.9843749999999999
vt 0.5312499999999999 0.9546875000000004
vt 0.6251953124999999 0.9546875000000004
vt 0.6251953124999999 0.9843750000000003
vt 0.5312499999999999 0.9843750000000003
vt 0.5769531249999997 0.8451453124999998
vt 0.5941765624999997 0.9374999999999998
vt 0.5640984374999997 0.9374999999999998
vt 0.5468749999999997 0.8451453124999998
vn 0.9799980501050222 0 0.19900708979921983
vn -0.9566056755678805 0 -0.2913856233092487
vn 0 1 0
vn 8.789741644370097e-17 -1 -1.3797130685756717e-16
vn -0.5372996083468238 0 0.8433914458128857
vn 0.5372996083468238 0 -0.8433914458128857
vn -0.7305866113085759 0 -0.6828200373280296
vn 0 -1 0
vn 0.730586611308576 0 0.6828200373280296
vn 0 1 0
usemtl m_3a33ff85-19f3-5a46-da4a-4519ea7f5b94
f 18/49/13 28/50/13 27/51/13 20/52/13
f 24/53/14 26/54/14 25/55/14 22/56/14
f 22/57/15 25/58/15 28/59/15 18/60/15
f 20/61/16 27/62/16 26/63/16 24/64/16
f 19/65/17 17/66/17 21/67/17 23/68/17
f 24/69/18 22/70/18 18/71/18 20/72/18
f 21/73/19 25/74/19 26/75/19 23/76/19
f 23/77/20 26/78/20 27/79/20 19/80/20
f 19/81/21 27/82/21 28/83/21 17/84/21
f 17/85/22 28/86/22 25/87/22 21/88/22
o cube
v 0.5288342368610901 0.125 0.398885020673734
v 0.39727544957797045 0.125 -0.018366145278615242
v 0.5288342368610901 0 0.398885020673734
v 0.39727544957797045 0 -0.018366145278615242
v 0.2780608307344421 0.125 0.01922207965941891
v 0.40961961801756164 0.125 0.43647324561176815
v 0.2780608307344421 0 0.01922207965941891
v 0.40961961801756164 0 0.43647324561176815
vt 0.109375 0.65625
vt 0.140625 0.65625
vt 0.140625 0.625
vt 0.109375 0.625
vt 0.109375 0.65625
vt 0.21875 0.65625
vt 0.21875 0.625
vt 0.109375 0.625
vt 0.109375 0.65625
vt 0.140625 0.65625
vt 0.140625 0.625
vt 0.109375 0.625
vt 0.109375 0.65625
vt 0.21875 0.65625
vt 0.21875 0.625
vt 0.109375 0.625
vt 0.109375 0.65625
vt 0.140625 0.65625
vt 0.140625 0.546875
vt 0.109375 0.546875
vt 0.109375 0.65625
vt 0.140625 0.65625
vt 0.140625 0.546875
vt 0.109375 0.546875
vn -0.3007057995042732 0 -0.953716950748227
vn 0.953716950748227 0 -0.3007057995042732
vn 0.3007057995042732 0 0.953716950748227
vn -0.953716950748227 0 0.3007057995042732
vn 0 1 0
vn 0 -1 0
usemtl m_3a33ff85-19f3-5a46-da4a-4519ea7f5b94
f 32/92/23 35/91/23 33/90/23 30/89/23
f 31/96/24 32/95/24 30/94/24 29/93/24
f 36/100/25 31/99/25 29/98/25 34/97/25
f 35/104/26 36/103/26 34/102/26 33/101/26
f 34/108/27 29/107/27 30/106/27 33/105/27
f 35/112/28 32/111/28 31/110/28 36/109/28
o cube
v 0.7493596013801502 0.125 0.8365534396006404
v 0.8450304594714226 0.125 0.6055835564728187
v 0.7493596013801502 0 0.8365534396006404
v 0.8450304594714226 0 0.6055835564728187
v 0.7295455179075119 0.125 0.5577481274271827
v 0.6338746598162395 0.125 0.7887180105550042
v 0.7295455179075119 0 0.5577481274271827
v 0.6338746598162395 0 0.7887180105550042
vt 0.046875 0.609375
vt 0.078125 0.609375
vt 0.078125 0.578125
vt 0.046875 0.578125
vt 0.046875 0.609375
vt 0.109375 0.609375
vt 0.109375 0.578125
vt 0.046875 0.578125
vt 0.046875 0.609375
vt 0.078125 0.609375
vt 0.078125 0.578125
vt 0.046875 0.578125
vt 0.046875 0.609375
vt 0.109375 0.609375
vt 0.109375 0.578125
vt 0.046875 0.578125
vt 0.046875 0.609375
vt 0.078125 0.609375
vt 0.078125 0.546875
vt 0.046875 0.546875
vt 0.046875 0.609375
vt 0.078125 0.609375
vt 0.078125 0.546875
vt 0.046875 0.546875
vn 0.3826834323650897 0 -0.9238795325112867
vn 0.9238795325112867 0 0.3826834323650897
vn -0.3826834323650897 0 0.9238795325112867
vn -0.9238795325112867 0 -0.3826834323650897
vn 0 1 0
vn 0 -1 0
usemtl m_3a33ff85-19f3-5a46-da4a-4519ea7f5b94
f 40/116/29 43/115/29 41/114/29 38/113/29
f 39/120/30 40/119/30 38/118/30 37/117/30
f 44/124/31 39/123/31 37/122/31 42/121/31
f 43/128/32 44/127/32 42/126/32 41/125/32
f 42/132/33 37/131/33 38/130/33 41/129/33
f 43/136/34 40/135/34 39/134/34 44/133/34
o cube
v 0.7777394527686519 0.109375 0.6261028477419779
v 0.9885873142218733 0.109375 0.491777945655272
v 0.7777394527686519 0 0.6261028477419779
v 0.9885873142218733 0 0.491777945655272
v 0.9466107823197776 0.109375 0.42588798895114033
v 0.7357629208665561 0.109375 0.5602128910378463
v 0.9466107823197776 0 0.42588798895114033
v 0.7357629208665561 0 0.5602128910378463
vt 0.15625 0.71875
vt 0.1875 0.71875
vt 0.1875 0.6875
vt 0.15625 0.6875
vt 0.15625 0.71875
vt 0.21875 0.71875
vt 0.21875 0.6875
vt 0.15625 0.6875
vt 0.15625 0.71875
vt 0.1875 0.71875
vt 0.1875 0.6875
vt 0.15625 0.6875
vt 0.15625 0.71875
vt 0.21875 0.71875
vt 0.21875 0.6875
vt 0.15625 0.6875
vt 0.15625 0.71875
vt 0.1875 0.71875
vt 0.1875 0.65625
vt 0.15625 0.65625
vt 0.15625 0.71875
vt 0.1875 0.71875
vt 0.1875 0.65625
vt 0.15625 0.65625
vn 0.8433914458128856 0 -0.5372996083468238
vn 0.5372996083468238 0 0.8433914458128856
vn -0.8433914458128856 0 0.5372996083468238
vn -0.5372996083468238 0 -0.8433914458128856
vn 0 1 0
vn 0 -1 0
usemtl m_3a33ff85-19f3-5a46-da4a-4519ea7f5b94
f 48/140/35 51/139/35 49/138/35 46/137/35
f 47/144/36 48/143/36 46/142/36 45/141/36
f 52/148/37 47/147/37 45/146/37 50/145/37
f 51/152/38 52/151/38 50/150/38 49/149/38
f 50/156/39 45/155/39 46/154/39 49/153/39
f 51/160/40 48/159/40 47/158/40 52/157/40