# Made in Blockbench 4.8.3
mtllib rose_bush_bottom_2.mtl

o plane
v 0.27779132894413305 -1.2499999999999902 2.0249446961372106
v 0.27779132894413283 1.6249999999999902 2.02494469613721
v -0.7959338309773759 -1.2500000000000002 -0.16911112634886605
v -0.7959338309773761 1.6249999999999996 -0.1691111263488667
v 0.4735806172742101 1.6249999999999898 0.5377774040764987
v 0.4735806172742103 -1.2499999999999905 0.5377774040764991
vt 0.75 0.5
vt 0.5625 0.5
vt 0.5625 0.9791666666666666
vt 0.75 0.9791666666666666
vt 0.75 0.9791666666666666
vt 0.5625 0.9791666666666666
vt 0.5625 0.5
vt 0.75 0.5
vt 0.375 0.9791666666666666
vt 0.5625 0.9791666666666666
vt 0.5625 0.5
vt 0.375 0.5
vt 0.375 0.5
vt 0.5625 0.5
vt 0.5625 0.9791666666666666
vt 0.375 0.9791666666666666
vn 0.9914448613738105 1.110223024625157e-16 0.1305261922200518
vn -0.9914448613738105 -1.110223024625157e-16 -0.1305261922200518
vn 0.48648556926640124 -1.3789259935117148e-16 -0.8736886120898827
vn -0.48648556926640124 1.3789259935117148e-16 0.8736886120898827
usemtl m_7e8550f2-57f0-5747-eebc-ce9994d35214
f 1/1/1 6/2/1 5/3/1 2/4/1
f 2/5/2 5/6/2 6/7/2 1/8/2
f 4/9/3 5/10/3 6/11/3 3/12/3
f 3/13/4 6/14/4 5/15/4 4/16/4
o plane
v 1.393727195701839 -1.2903875199276724 -0.5539373943985171
v 1.826530505560385 1.4507486119849944 -0.29243165584130604
v 0.4253035741497368 -1.2432584022526267 0.5548322373060852
v 0.858106884008283 1.4978777296600398 0.8163379758632962
v 0.42219684302200333 0.174035539847299 0.49187556642401137
v 1.3906204645741056 0.12690642217225354 -0.6168940652805908
vt 0.01953125 0.4760322916666667
vt 0.01953125 0.23752708333333328
vt 0.20364375 0.23752708333333328
vt 0.20364375 0.4760322916666667
vt 0.20364453125000004 0.4760322916666667
vt 0.20364453125000004 0.23752708333333328
vt 0.01953125 0.23752708333333328
vt 0.01953125 0.4760322916666667
vt 0.20364453125000004 0
vt 0.20364453125000004 0.23644895833333335
vt 0.01953125 0.23644895833333335
vt 0.01953125 0
vt 0.019532031250000026 0
vt 0.01953125 0.23644895833333335
vt 0.20364453125000004 0.23644895833333335
vt 0.20364453125000004 0
vn -0.689138953673117 0.3783818858509609 -0.6179924360299178
vn 0.689138953673117 -0.3783818858509609 0.6179924360299178
vn -0.7534563297687378 -0.03082575122494479 -0.6567749479028876
vn 0.7534563297687378 0.03082575122494479 0.6567749479028876
usemtl m_7e8550f2-57f0-5747-eebc-ce9994d35214
f 8/17/5 12/18/5 11/19/5 10/20/5
f 10/21/6 11/22/6 12/23/6 8/24/6
f 9/25/7 11/26/7 12/27/7 7/28/7
f 7/29/8 12/30/8 11/31/8 9/32/8
o plane
v 1.8274824311657734 -1.1377876916573262 1.388761377681357
v 1.3671747290554739 1.601265318290614 1.6237862233319027
v 0.6102354032867754 -1.2721317781000168 0.5704112690720274
v 0.14992770117647586 1.4669212318479237 0.8054361147225733
v 0.5406670745260056 0.13904635780978775 0.4422245737266682
v 1.7579141024050036 0.27339044425247827 1.2605746823359976
vt 0.75 0.9760322916666667
vt 0.75 0.7375270833333334
vt 0.5658875 0.7375270833333334
vt 0.5658875 0.9760322916666667
vt 0.56588671875 0.9760322916666667
vt 0.56588671875 0.7375270833333334
vt 0.75 0.7375270833333334
vt 0.75 0.9760322916666667
vt 0.56588671875 0.5
vt 0.56588671875 0.7364489583333333
vt 0.75 0.7364489583333333
vt 0.75 0.5
vt 0.74999921875 0.5
vt 0.75 0.7364489583333333
vt 0.56588671875 0.7364489583333333
vt 0.56588671875 0.5
vn 0.4924031889853381 0.36146298603386545 -0.7917598178769563
vn -0.4924031889853381 -0.36146298603386545 0.7917598178769563
vn 0.5609020716662766 -0.047427162624810795 -0.8265225527750824
vn -0.5609020716662766 0.047427162624810795 0.8265225527750824
usemtl m_7e8550f2-57f0-5747-eebc-ce9994d35214
f 14/33/9 18/34/9 17/35/9 16/36/9
f 16/37/10 17/38/10 18/39/10 14/40/10
f 15/41/11 17/42/11 18/43/11 13/44/11
f 13/45/12 18/46/12 17/47/12 15/48/12
o plane
v -0.5746314204343983 -1.3147142097647355 0.7515977497286818
v 1.292743964199977 -1.4119699846011466 0.8897117863889271
v -0.40074833438365975 0.6337822340068398 -0.22732131280661994
v 1.4666270502507155 0.5365264591704286 -0.08920727614637458
vt 0.62890625 0.36458333333333337
vt 0.62890625 0
vt 0.39453125 0
vt 0.39453125 0.36458333333333337
vt 0.62890625 0
vt 0.62890625 0.36458333333333337
vt 0.39453125 0.36458333333333337
vt 0.39453125 0
vn 0.042400713712986524 -0.4515413469498977 -0.8912421620812726
vn -0.042400713712986524 0.4515413469498977 0.8912421620812726
usemtl m_7e8550f2-57f0-5747-eebc-ce9994d35214
f 22/49/13 20/50/13 19/51/13 21/52/13
f 20/53/14 22/54/14 21/55/14 19/56/14
o plane
v 1.4468333757235219 -1.1897142097647417 -0.15170975883210314
v -0.2733227849536811 -1.2869699846011464 0.5880395886804418
v 1.7446117142850701 0.7587822340068402 0.7968923282903233
v 0.024455553607866998 0.6615264591704353 1.5366416758028683
vt 0.96484375 0.8385416666666666
vt 0.96484375 0.47395833333333337
vt 0.73046875 0.47395833333333337
vt 0.73046875 0.8385416666666666
vt 0.96484375 0.47395833333333337
vt 0.96484375 0.8385416666666666
vt 0.73046875 0.8385416666666666
vt 0.73046875 0.47395833333333337
vn 0.37391993999971085 -0.4515413469498928 0.8101199235084208
vn -0.37391993999971085 0.4515413469498928 -0.8101199235084208
usemtl m_7e8550f2-57f0-5747-eebc-ce9994d35214
f 26/57/15 24/58/15 23/59/15 25/60/15
f 24/61/16 26/62/16 25/63/16 23/64/16
o plane
v 1.0087076657893328 -1.127214209764739 1.6193380218020046
v 0.4216947757062928 -1.224469984601142 -0.1587458291840309
v 0.03776220372769312 0.8212822340068326 1.8333071044084601
v -0.5492506863553468 0.7240264591704297 0.05522325342242462
vt 0.94921875 0.36458333333333337
vt 0.94921875 0
vt 0.71484375 0
vt 0.71484375 0.36458333333333337
vt 0.94921875 0
vt 0.94921875 0.36458333333333337
vt 0.71484375 0.36458333333333337
vt 0.71484375 0
vn -0.83962644271641 -0.451541346949902 0.30189045809043974
vn 0.83962644271641 0.451541346949902 -0.30189045809043974
usemtl m_7e8550f2-57f0-5747-eebc-ce9994d35214
f 30/65/17 28/66/17 27/67/17 29/68/17
f 28/69/18 30/70/18 29/71/18 27/72/18