# Made in Blockbench 4.8.3
mtllib rose_bush_bottom.mtl

o plane
v -0.36039105695217455 -1.1249999999999902 1.5518779263652036
v -0.36039105695217455 1.7499999999999902 1.551877926365203
v -0.5127549427964837 -1.1250000000000002 -0.8860621708324179
v -0.5127549427964837 1.7499999999999996 -0.8860621708324186
v 0.38960894304782334 1.7499999999999898 0.2528398206885486
v 0.38960894304782334 -1.1249999999999905 0.2528398206885492
vt 0.75 0.5
vt 0.5625 0.5
vt 0.5625 0.9791666666666666
vt 0.75 0.9791666666666666
vt 0.75 0.9791666666666666
vt 0.5625 0.9791666666666666
vt 0.5625 0.5
vt 0.75 0.5
vt 0.375 0.9791666666666666
vt 0.5625 0.9791666666666666
vt 0.5625 0.5
vt 0.375 0.5
vt 0.375 0.5
vt 0.5625 0.5
vt 0.5625 0.9791666666666666
vt 0.375 0.9791666666666666
vn 0.8660254037844386 1.110223024625157e-16 0.5000000000000001
vn -0.8660254037844386 -1.110223024625157e-16 -0.5000000000000001
vn 0.7838002172001777 -1.3789259935117148e-16 -0.6210130590550849
vn -0.7838002172001777 1.3789259935117148e-16 0.6210130590550849
usemtl m_7e8550f2-57f0-5747-eebc-ce9994d35214
f 1/1/1 6/2/1 5/3/1 2/4/1
f 2/5/2 5/6/2 6/7/2 1/8/2
f 4/9/3 5/10/3 6/11/3 3/12/3
f 3/13/4 6/14/4 5/15/4 4/16/4
o plane
v 1.6574947000115823 -1.1653875199276724 -0.4036482860505243
v 1.9572789059787925 1.5757486119849944 0.003578169592370506
v 0.33848016889624544 -1.1182584022526267 0.25012160747244616
v 0.6382643748634553 1.6228777296600398 0.657348063115341
v 0.3597023984977481 0.299035539847299 0.19076833327805234
v 1.6787169296130848 0.25190642217225356 -0.4630015602449181
vt 0.01953125 0.4760322916666667
vt 0.01953125 0.23752708333333328
vt 0.20364375 0.23752708333333328
vt 0.20364375 0.4760322916666667
vt 0.20364453125000004 0.4760322916666667
vt 0.20364453125000004 0.23752708333333328
vt 0.01953125 0.23752708333333328
vt 0.01953125 0.4760322916666667
vt 0.20364453125000004 0
vt 0.20364453125000004 0.23644895833333335
vt 0.01953125 0.23644895833333335
vt 0.01953125 0
vt 0.019532031250000026 0
vt 0.01953125 0.23644895833333335
vt 0.20364453125000004 0.23644895833333335
vt 0.20364453125000004 0
vn -0.40018590775924456 0.37838188585096083 -0.8346726230629467
vn 0.40018590775924456 -0.37838188585096083 0.8346726230629467
vn -0.44476599035953146 -0.03082575122494481 -0.895116186246748
vn 0.44476599035953146 0.03082575122494481 0.895116186246748
usemtl m_7e8550f2-57f0-5747-eebc-ce9994d35214
f 8/17/5 12/18/5 11/19/5 10/20/5
f 10/21/6 11/22/6 12/23/6 8/24/6
f 9/25/7 11/26/7 12/27/7 7/28/7
f 7/29/8 12/30/8 11/31/8 9/32/8
o plane
v 1.3147936500253543 -1.0127876916573262 1.5571622896225465
v 0.7995846707637199 1.726265318290614 1.5981448027630534
v 0.5033730633967143 -1.1471317781000168 0.33528510318505955
v -0.01183591586492011 1.5919212318479237 0.3762676163255665
v 0.48815523290192286 0.26404635780978775 0.19023339218114793
v 1.299575819530563 0.39839044425247827 1.4121105786186348
vt 0.75 0.9760322916666667
vt 0.75 0.7375270833333334
vt 0.5658875 0.7375270833333334
vt 0.5658875 0.9760322916666667
vt 0.56588671875 0.9760322916666667
vt 0.56588671875 0.7375270833333334
vt 0.75 0.7375270833333334
vt 0.75 0.9760322916666667
vt 0.56588671875 0.5
vt 0.56588671875 0.7364489583333333
vt 0.75 0.7364489583333333
vt 0.75 0.5
vt 0.74999921875 0.5
vt 0.75 0.7364489583333333
vt 0.56588671875 0.7364489583333333
vt 0.56588671875 0.5
vn 0.7579145927607528 0.36146298603386545 -0.543056147932959
vn -0.7579145927607528 -0.36146298603386545 0.543056147932959
vn 0.8345024311787764 -0.04742716262481082 -0.5489593396619383
vn -0.8345024311787764 0.04742716262481082 0.5489593396619383
usemtl m_7e8550f2-57f0-5747-eebc-ce9994d35214
f 14/33/9 18/34/9 17/35/9 16/36/9
f 16/37/10 17/38/10 18/39/10 14/40/10
f 15/41/11 17/42/11 18/43/11 13/44/11
f 13/45/12 18/46/12 17/47/12 15/48/12
o plane
v -0.6606382081067763 -1.1897142097647355 0.04925068123435428
v 1.0117377356653743 -1.2869699846011466 0.8914650345632307
v -0.12537507699597528 0.7587822340068398 -0.7886104284270166
v 1.5470008667761754 0.6615264591704286 0.053603924901859834
vt 0.62890625 0.36458333333333337
vt 0.62890625 0
vt 0.39453125 0
vt 0.39453125 0.36458333333333337
vt 0.62890625 0
vt 0.62890625 0.36458333333333337
vt 0.39453125 0.36458333333333337
vt 0.39453125 0
vn 0.3802367612170439 -0.45154134694989784 -0.8071743413995796
vn -0.3802367612170439 0.45154134694989784 0.8071743413995796
usemtl m_7e8550f2-57f0-5747-eebc-ce9994d35214
f 22/49/13 20/50/13 19/51/13 21/52/13
f 20/53/14 22/54/14 21/55/14 19/56/14
o plane
v 1.5526325606128253 -1.0647142097647417 -0.011715550889809745
v -0.3196743283559752 -1.1619699846011464 0.013448466693703032
v 1.4647295701863583 0.8837822340068402 0.9786333385847954
v -0.4075773187824423 0.7865264591704353 1.0037973561683082
vt 0.96484375 0.8385416666666666
vt 0.96484375 0.47395833333333337
vt 0.73046875 0.47395833333333337
vt 0.73046875 0.8385416666666666
vt 0.96484375 0.47395833333333337
vt 0.96484375 0.8385416666666666
vt 0.73046875 0.8385416666666666
vt 0.73046875 0.47395833333333337
vn 0.035437506408034926 -0.45154134694989273 0.8915461822778767
vn -0.035437506408034926 0.45154134694989273 -0.8915461822778767
usemtl m_7e8550f2-57f0-5747-eebc-ce9994d35214
f 26/57/15 24/58/15 23/59/15 25/60/15
f 24/61/16 26/62/16 25/63/16 23/64/16
o plane
v 0.47010654096201643 -1.002214209764739 1.4568557942525746
v 0.6082205776222708 -1.099469984601142 -0.4105195903818012
v -0.5088125215732945 0.9462822340068326 1.2829727082018396
v -0.37069848491304014 0.8490264591704297 -0.5844026764325364
vt 0.94921875 0.36458333333333337
vt 0.94921875 0
vt 0.71484375 0
vt 0.71484375 0.36458333333333337
vt 0.94921875 0
vt 0.94921875 0.36458333333333337
vt 0.71484375 0.36458333333333337
vt 0.71484375 0
vn -0.8912421620812702 -0.45154134694990194 -0.042400713712992325
vn 0.8912421620812702 0.45154134694990194 0.042400713712992325
usemtl m_7e8550f2-57f0-5747-eebc-ce9994d35214
f 30/65/17 28/66/17 27/67/17 29/68/17
f 28/69/18 30/70/18 29/71/18 27/72/18