# Made in Blockbench 4.8.3
mtllib spruce_leaves_slab_diagonal_2.mtl

o plane
v -0.17241445617470258 0.4069932050827094 0.7971307221406007
v 0.766529412646112 0.40699320508270936 0.07012270209969301
v -0.8020218702851549 -0.18675679491729058 -0.016018520985868312
v 0.13692199853565973 -0.1867567949172907 -0.7430265410267759
v -0.02566533761993217 -0.08932893699154143 -0.6882784095897385
v 0.6039420764905201 0.5044210630084586 0.12487083353673045
v -0.49118151506177843 0.19212931923840126 -0.5333540852617115
v 0.13842589904867392 0.7858793192384013 0.2797951578647575
v -0.7131615343995833 -0.056852984349624935 -0.17967545720434663
v -0.08355412028913095 0.5368970156503751 0.6334737859221222
vt 0.017361111111111112 0.7871486111111111
vt 0.14930555555555555 0.7871486111111111
vt 0.14930555555555555 0.703125
vt 0.017361111111111112 0.703125
vt 0.4678819444444444 0.7973090277777778
vt 0.3359375 0.7973090277777778
vt 0.3359375 0.7102340277777777
vt 0.4678819444444444 0.7102340277777777
vt 0.3359375 0.7102340277777777
vt 0.3359375 0.7973090277777778
vt 0.4678819444444444 0.7973090277777778
vt 0.4678819444444444 0.7102340277777777
vt 0.4678819444444444 0.9240451388888888
vt 0.3359375 0.9240451388888888
vt 0.3359375 0.7940673611111111
vt 0.4678819444444444 0.7940673611111111
vt 0.3359375 0.7940673611111111
vt 0.3359375 0.9240451388888888
vt 0.4678819444444444 0.9240451388888888
vt 0.4678819444444444 0.7940673611111111
vt 0.14930555555555555 0.7919583333333333
vt 0.017361111111111112 0.7919583333333333
vt 0.017361111111111112 0.8999958333333333
vt 0.14930555555555555 0.8999958333333333
vt 0.017361111111111112 0.8999958333333333
vt 0.017361111111111112 0.7919583333333333
vt 0.14930555555555555 0.7919583333333333
vt 0.14930555555555555 0.8999958333333333
vt 0.14930555555555555 0.7109375
vt 0.14930555555555555 0.7949611111111111
vt 0.017361111111111112 0.7949611111111111
vt 0.017361111111111112 0.7109375
vn 0.7521514823232399 -0.6501369766194657 -0.1076571375759808
vn -0.19940159647811406 -0.7114327282345991 0.6738712610867555
vn 0.19940159647811406 0.7114327282345991 -0.6738712610867555
vn -0.20379139580094663 -0.7087904072950686 0.675340821751501
vn 0.20379139580094663 0.7087904072950686 -0.675340821751501
vn 0.7144326197057252 -0.6983672121497259 -0.043235042438218525
vn -0.7144326197057252 0.6983672121497259 0.043235042438218525
vn -0.7521514823232399 0.6501369766194657 0.1076571375759808
usemtl m_12471031-f55b-079a-b844-a4f954b61df9
f 9/1/1 10/2/1 1/3/1 3/4/1
f 6/5/2 5/6/2 4/7/2 2/8/2
f 4/9/3 5/10/3 6/11/3 2/12/3
f 8/13/4 7/14/4 5/15/4 6/16/4
f 5/17/5 7/18/5 8/19/5 6/20/5
f 10/21/6 9/22/6 7/23/6 8/24/6
f 7/25/7 9/26/7 10/27/7 8/28/7
f 1/29/8 10/30/8 9/31/8 3/32/8
o cube
v -0.1336508554401793 0.7785221258565133 0.6091336651397752
v -0.1336508554401793 0.7785221258565133 0.6091336651397752
v 0.7274718145425245 0.6651896215981787 0.22495443938696108
v 0.7274718145425245 0.6651896215981787 0.22495443938696108
v -0.4603319460600702 0.12303622941438996 0.07025852312244185
v -0.4603319460600702 0.12303622941438996 0.07025852312244185
v 0.40079072392263365 0.009703725156055443 -0.3139207026303724
v 0.40079072392263365 0.009703725156055443 -0.3139207026303724
vt 0.3923396855555558 0.46803643111111115
vt 0.2913098822222222 0.46803643111111115
vt 0.2913098822222222 0.2569872955555551
vt 0.3923396855555558 0.2569872955555551
vt 0.3923396855555558 0.2569872955555551
vt 0.2913098822222222 0.2569872955555551
vt 0.2913098822222222 0.46803643111111115
vt 0.3923396855555558 0.46803643111111115
vn 0.22089250485683914 -0.6826945145012508 0.6965161169477507
vn -0.22089250485683914 0.6826945145012508 -0.6965161169477507
usemtl m_12471031-f55b-079a-b844-a4f954b61df9
f 13/33/9 11/34/9 15/35/9 17/36/9
f 18/37/10 16/38/10 12/39/10 14/40/10
o plane
v 0.625207413417096 0.12095952285124478 2.1391382350891384
v 1.8400284516164418 0.3280022299149204 1.2798795108062486
v -0.2509562408700565 0.2338128149262616 0.9276095538875688
v 0.9638647973292893 0.44085552198993727 0.06835082960467931
v 0.34731412534429706 0.8497982902356415 0.5523260227506137
v 1.2234777796314495 0.7369449981606246 1.763854703952183
vt 0.5408593749999997 0.5606249999999998
vt 0.5408593749999997 0.24562499999999998
vt 0.4424218749999997 0.24562499999999998
vt 0.4424218749999997 0.5606249999999998
vt 0.5417437499999997 0.24562499999999998
vt 0.5417437499999997 0.5606249999999998
vt 0.6346093749999997 0.5606249999999998
vt 0.6346093749999997 0.24562499999999998
vt 0.6346093749999997 0.5606249999999998
vt 0.5417437499999997 0.5606249999999998
vt 0.5417437499999997 0.24562499999999998
vt 0.6346093749999997 0.24562499999999998
vt 0.4424218749999997 0.24562499999999998
vt 0.5408593749999997 0.24562499999999998
vt 0.5408593749999997 0.5606249999999998
vt 0.4424218749999997 0.5606249999999998
vn 0.5009746292118213 -0.7498488241974276 -0.4321471528725065
vn -0.41495715486010226 -0.8833863412997305 0.21780526080764334
vn 0.41495715486010226 0.8833863412997305 -0.21780526080764334
vn -0.5009746292118213 0.7498488241974276 0.4321471528725065
usemtl m_12471031-f55b-079a-b844-a4f954b61df9
f 23/41/11 24/42/11 19/43/11 21/44/11
f 24/45/12 23/46/12 22/47/12 20/48/12
f 22/49/13 23/50/13 24/51/13 20/52/13
f 19/53/14 24/54/14 23/55/14 21/56/14
o plane
v 0.2188655548237582 0.33234352774215 1.0523374320953014
v 0.9723782405605463 0.335406720606753 0.5299990606508838
v -0.1779183820807927 0.2042908401637366 0.47919558305749965
v 0.5755943036559954 0.20735403302833955 -0.04314278838691818
v 0.4494376939610055 0.4948914887941771 -0.020047332535532286
v 0.8462216308655564 0.6229441763725905 0.5530945165022696
v 0.08983311344402164 0.7499744251769284 0.1719143359623079
v 0.48661705034857256 0.8780271127553416 0.7450561850001098
v -0.13138072224263042 0.48532907792996394 0.3841875189376069
v 0.26540321466192046 0.6133817655083773 0.9573293679754087
vt 0.8183333333333334 0.4730902777777778
vt 0.7395833333333334 0.4730902777777778
vt 0.7395833333333334 0.4063583333333334
vt 0.8183333333333334 0.4063583333333334
vt 0.2981770833333333 0.3272569444444444
vt 0.37692708333333336 0.3272569444444444
vt 0.37692708333333336 0.2572916666666667
vt 0.2981770833333333 0.2572916666666667
vt 0.37692708333333336 0.2572916666666667
vt 0.37692708333333336 0.3272569444444444
vt 0.2981770833333333 0.3272569444444444
vt 0.2981770833333333 0.2572916666666667
vt 0.2981770833333333 0.4383680555555556
vt 0.37692708333333336 0.4383680555555556
vt 0.37692708333333336 0.3315083333333333
vt 0.2981770833333333 0.3315083333333333
vt 0.37692708333333336 0.3315083333333333
vt 0.37692708333333336 0.4383680555555556
vt 0.2981770833333333 0.4383680555555556
vt 0.2981770833333333 0.3315083333333333
vt 0.7395833333333334 0.48030972222222224
vt 0.8183333333333334 0.48030972222222224
vt 0.8183333333333334 0.5703125
vt 0.7395833333333334 0.5703125
vt 0.8183333333333334 0.5703125
vt 0.8183333333333334 0.48030972222222224
vt 0.7395833333333334 0.48030972222222224
vt 0.7395833333333334 0.5703125
vt 0.7395833333333334 0.4063583333333334
vt 0.7395833333333334 0.4730902777777778
vt 0.8183333333333334 0.4730902777777778
vt 0.8183333333333334 0.4063583333333334
vn 0.8139816284263018 -0.30244770103239577 -0.4959428361461474
vn -0.7252767062847776 -0.36509585838801506 0.5836768913608135
vn 0.7252767062847776 0.36509585838801506 -0.5836768913608135
vn -0.35684448350737596 -0.8282287909834702 0.43208689447426357
vn 0.35684448350737596 0.8282287909834702 -0.43208689447426357
vn 0.6231012448990081 -0.7351095137014625 -0.2671307572536451
vn -0.6231012448990081 0.7351095137014625 0.2671307572536451
vn -0.8139816284263018 0.30244770103239577 0.4959428361461474
usemtl m_12471031-f55b-079a-b844-a4f954b61df9
f 33/57/15 34/58/15 25/59/15 27/60/15
f 30/61/16 29/62/16 28/63/16 26/64/16
f 28/65/17 29/66/17 30/67/17 26/68/17
f 32/69/18 31/70/18 29/71/18 30/72/18
f 29/73/19 31/74/19 32/75/19 30/76/19
f 34/77/20 33/78/20 31/79/20 32/80/20
f 31/81/21 33/82/21 34/83/21 32/84/21
f 25/85/22 34/86/22 33/87/22 27/88/22