# Made in Blockbench 4.8.1
mtllib spruce_leaves_slab_2.mtl

o plane
v 1.666818989214123 0.12095897689671742 1.5351550082243477
v 1.918240026431287 0.32800260271414916 0.0685593612550589
v 0.1905977301966395 0.23381366619571925 1.2980158644119828
v 0.44201876741380386 0.440857292013151 -0.168579782557306
v 0.3482739016902623 0.8497995401109566 0.6096098114860979
v 1.8244951607077455 0.7369448508119547 0.8467489552984628
vt 0.5408593749999997 0.5606249999999998
vt 0.5408593749999997 0.24562499999999998
vt 0.4424218749999997 0.24562499999999998
vt 0.4424218749999997 0.5606249999999998
vt 0.5417437499999997 0.24562499999999998
vt 0.5417437499999997 0.5606249999999998
vt 0.6346093749999997 0.5606249999999998
vt 0.6346093749999997 0.24562499999999998
vt 0.6346093749999997 0.5606249999999998
vt 0.5417437499999997 0.5606249999999998
vt 0.5417437499999997 0.24562499999999998
vt 0.6346093749999997 0.24562499999999998
vt 0.4424218749999997 0.24562499999999998
vt 0.5408593749999997 0.24562499999999998
vt 0.5408593749999997 0.5606249999999998
vt 0.4424218749999997 0.5606249999999998
vn 0.048667912517382755 -0.7498483578024976 -0.6598173039501904
vn -0.13940827318673862 -0.8833865699767602 0.44742988428555625
vn 0.13940827318673862 0.8833865699767602 -0.44742988428555625
vn -0.048667912517382755 0.7498483578024976 0.6598173039501904
usemtl m_12471031-f55b-079a-b844-a4f954b61df9
f 5/1/1 6/2/1 1/3/1 3/4/1
f 6/5/2 5/6/2 4/7/2 2/8/2
f 4/9/3 5/10/3 6/11/3 2/12/3
f 1/13/4 6/14/4 5/15/4 3/16/4
o plane
v 0.6689711435592808 0.34078090605423006 1.0875874939153691
v 0.832443391966344 0.3381377408822074 0.18542455814455555
v -0.020921198929151327 0.23674221685780716 0.9628835668476388
v 0.14255104947791197 0.2340990516857845 0.06072063107682535
v 0.07975529164101072 0.5240046421182158 0.16625792378760607
v 0.7696476341294428 0.6280433313146387 0.2909618508553362
v -0.02981151169104701 0.78306909716917 0.5562742884079432
v 0.6600808307973851 0.8871077863655928 0.6809782154756734
v -0.04536580692854075 0.5188054553657226 0.8627957666922169
v 0.6445265355598913 0.6228441445621455 0.9874996937599471
vt 0.8183333333333334 0.4730902777777778
vt 0.7395833333333334 0.4730902777777778
vt 0.7395833333333334 0.4063583333333334
vt 0.8183333333333334 0.4063583333333334
vt 0.2981770833333333 0.3272569444444444
vt 0.37692708333333336 0.3272569444444444
vt 0.37692708333333336 0.2572916666666667
vt 0.2981770833333333 0.2572916666666667
vt 0.37692708333333336 0.2572916666666667
vt 0.37692708333333336 0.3272569444444444
vt 0.2981770833333333 0.3272569444444444
vt 0.2981770833333333 0.2572916666666667
vt 0.2981770833333333 0.4383680555555556
vt 0.37692708333333336 0.4383680555555556
vt 0.37692708333333336 0.3315083333333333
vt 0.2981770833333333 0.3315083333333333
vt 0.37692708333333336 0.3315083333333333
vt 0.37692708333333336 0.4383680555555556
vt 0.2981770833333333 0.4383680555555556
vt 0.2981770833333333 0.3315083333333333
vt 0.7395833333333334 0.48030972222222224
vt 0.8183333333333334 0.48030972222222224
vt 0.8183333333333334 0.5703125
vt 0.7395833333333334 0.5703125
vt 0.8183333333333334 0.5703125
vt 0.8183333333333334 0.48030972222222224
vt 0.7395833333333334 0.48030972222222224
vt 0.7395833333333334 0.5703125
vt 0.7395833333333334 0.4063583333333334
vt 0.7395833333333334 0.4730902777777778
vt 0.8183333333333334 0.4730902777777778
vt 0.8183333333333334 0.4063583333333334
vn 0.21419492905228837 -0.3101115819455594 -0.9262566270270394
vn -0.112807076427628 -0.3613794924312358 0.9255697844884491
vn 0.112807076427628 0.3613794924312358 -0.9255697844884491
vn 0.02426673512654883 -0.8295813576531206 0.5578583122986547
vn -0.02426673512654883 0.8295813576531206 -0.5578583122986547
vn 0.22590040555866034 -0.7434460501925884 -0.6294894575935902
vn -0.22590040555866034 0.7434460501925884 0.6294894575935902
vn -0.21419492905228837 0.3101115819455594 0.9262566270270394
usemtl m_12471031-f55b-079a-b844-a4f954b61df9
f 15/17/5 16/18/5 7/19/5 9/20/5
f 12/21/6 11/22/6 10/23/6 8/24/6
f 10/25/7 11/26/7 12/27/7 8/28/7
f 14/29/8 13/30/8 11/31/8 12/32/8
f 11/33/9 13/34/9 14/35/9 12/36/9
f 16/37/10 15/38/10 13/39/10 14/40/10
f 13/41/11 15/42/11 16/43/11 14/44/11
f 7/45/12 16/46/12 15/47/12 9/48/12
o cube
v 0.1294377194862194 0.6931854295364843 1.031912219098957
v 0.1294377194862194 0.6931854295364843 1.031912219098957
v 0.4666874509653772 0.5798526332595841 0.15135076032113148
v 0.4666874509653772 0.5798526332595841 0.15135076032113148
v -0.48260346919092056 0.037699978936864886 0.88186848713316
v -0.48260346919092056 0.037699978936864886 0.88186848713316
v -0.14535373771176285 -0.0756328173400353 0.001307028355334694
v -0.14535373771176285 -0.0756328173400353 0.001307028355334694
vt 0.3923396855555558 0.46803643111111115
vt 0.2913098822222222 0.46803643111111115
vt 0.2913098822222222 0.2569872955555551
vt 0.3923396855555558 0.2569872955555551
vt 0.3923396855555558 0.2569872955555551
vt 0.2913098822222222 0.2569872955555551
vt 0.2913098822222222 0.46803643111111115
vt 0.3923396855555558 0.46803643111111115
vn 0.64870540122957 -0.68269497852183 0.33631661974493726
vn -0.64870540122957 0.68269497852183 -0.33631661974493726
usemtl m_12471031-f55b-079a-b844-a4f954b61df9
f 19/49/13 17/50/13 21/51/13 23/52/13
f 24/53/14 22/54/14 18/55/14 20/56/14
o plane
v 0.24687360637046324 0.24461344187312717 1.1620477845506274
v 0.45084775600325394 0.13636026640007226 0.05392965173193737
v -0.7733094095637993 -0.3491365581268727 1.0322641126220211
v -0.5693352599310086 -0.45738973359992763 -0.07585402019666898
v -0.7927024306817287 -0.08932893699154132 -0.0038935355520270942
v 0.22748058525253384 0.5044210630084586 0.1258901363765792
v -1.0123240361998058 0.19212931923840143 0.43482415057223467
v 0.007858979734456612 0.7858793192384013 0.564607822500841
v -0.919199056901371 -0.056852984349624824 0.8418762837940348
v 0.10098395903289152 0.5368970156503751 0.9716599557226411
vt 0.16493055555555555 0.12326388888888884
vt 0.03298611111111111 0.12326388888888884
vt 0.03298611111111111 0.03924027777777772
vt 0.16493055555555555 0.03924027777777772
vt 0.4600694444444444 0.8129340277777778
vt 0.328125 0.8129340277777778
vt 0.328125 0.7258590277777777
vt 0.4600694444444444 0.7258590277777777
vt 0.328125 0.7258590277777777
vt 0.328125 0.8129340277777778
vt 0.4600694444444444 0.8129340277777778
vt 0.4600694444444444 0.7258590277777777
vt 0.4600694444444444 0.9396701388888888
vt 0.328125 0.9396701388888888
vt 0.328125 0.8096923611111111
vt 0.4600694444444444 0.8096923611111111
vt 0.328125 0.8096923611111111
vt 0.328125 0.9396701388888888
vt 0.4600694444444444 0.9396701388888888
vt 0.4600694444444444 0.8096923611111111
vt 0.03298611111111111 0.12807361111111115
vt 0.16493055555555555 0.12807361111111115
vt 0.16493055555555555 0.23611111111111116
vt 0.03298611111111111 0.23611111111111116
vt 0.16493055555555555 0.23611111111111116
vt 0.16493055555555555 0.12807361111111115
vt 0.03298611111111111 0.12807361111111115
vt 0.03298611111111111 0.23611111111111116
vt 0.03298611111111111 0.04705277777777772
vt 0.03298611111111111 0.13107638888888884
vt 0.16493055555555555 0.13107638888888884
vt 0.16493055555555555 0.04705277777777772
vn 0.3362533971941738 -0.39041853437194807 -0.8570338504949716
vn -0.009726445025572975 -0.19755269657676164 0.9802440146934918
vn 0.009726445025572975 0.19755269657676164 -0.9802440146934918
vn 0.33343579675426127 -0.7087904072950686 0.6216403525909027
vn -0.33343579675426127 0.7087904072950686 -0.6216403525909027
vn 0.47460835840183513 -0.6983672121497257 -0.5357519417877411
vn -0.47460835840183513 0.6983672121497257 0.5357519417877411
vn -0.3362533971941738 0.39041853437194807 0.8570338504949716
usemtl m_12471031-f55b-079a-b844-a4f954b61df9
f 33/57/15 34/58/15 25/59/15 27/60/15
f 30/61/16 29/62/16 28/63/16 26/64/16
f 28/65/17 29/66/17 30/67/17 26/68/17
f 32/69/18 31/70/18 29/71/18 30/72/18
f 29/73/19 31/74/19 32/75/19 30/76/19
f 34/77/20 33/78/20 31/79/20 32/80/20
f 31/81/21 33/82/21 34/83/21 32/84/21
f 25/85/22 34/86/22 33/87/22 27/88/22