# Made in Blockbench 4.8.3
mtllib spruce_leaves_omnidirectional.mtl

o plane
v 1.2370702772997317 0.6941762414343403 0.32331223625799826
v 0.40227870497673746 0.07978031575326017 -0.5877029032390724
v 0.2528050326582138 0.6941762414343415 1.2252251634249025
v -0.5819865396647804 0.07978031575326128 0.3142100239278317
v -0.3415017434364873 0.5652133908439606 -0.41137185154593126
v 0.4932898288865071 1.068359316525041 0.49964328795113916
vt 0.11219218750000004 0.005634374999999969
vt 0.11219218750000004 0.44313437499999997
vt 0.23937031250000002 0.44313437499999997
vt 0.23937031250000002 0.005634374999999969
vt 0.83203125 0.9296875
vt 0.61328125 0.9296875
vt 0.61328125 0.6753312499999999
vt 0.83203125 0.6753312499999999
vt 0.61328125 0.6753312499999999
vt 0.61328125 0.9296875
vt 0.83203125 0.9296875
vt 0.83203125 0.6753312499999999
vt 0.23937031250000002 0.44313437499999997
vt 0.11219218750000004 0.44313437499999997
vt 0.11219218750000004 0.005634374999999969
vt 0.23937031250000002 0.005634374999999969
vn 0.6403842655348873 -0.7481807526406086 -0.17359018933532955
vn -0.2974166818902287 -0.6939072979986485 0.6557712856763565
vn 0.2974166818902287 0.6939072979986485 -0.6557712856763565
vn -0.6403842655348873 0.7481807526406086 0.17359018933532971
usemtl m_fa3259c7-3aa4-3817-d0aa-c111cfae9b3d
f 5/1/1 6/2/1 3/3/1 4/4/1
f 6/5/2 5/6/2 2/7/2 1/8/2
f 2/9/3 5/10/3 6/11/3 1/12/3
f 3/13/4 6/14/4 5/15/4 4/16/4
o plane
v 1.2404142465691688 0.6941762414343414 0.30796794827468094
v 0.9206050557716828 0.07978031575325908 1.5015120970583866
v -0.04909673152673763 0.6941762414343414 -0.03755547693718442
v -0.3689059223242235 0.07978031575325908 1.155988671846521
v 0.1794431219334133 0.5652133908439586 1.6885441345869983
v 0.4992523127308991 1.068359316525041 0.4949999858032928
vt 0.3125 0.9375
vt 0.53125 0.9375
vt 0.53125 0.68314375
vt 0.3125 0.68314375
vt 0.01171875 0.6518937499999999
vt 0.01171875 0.90625
vt 0.23046875 0.90625
vt 0.23046875 0.6518937499999999
vt 0.23046875 0.90625
vt 0.01171875 0.90625
vt 0.01171875 0.6518937499999999
vt 0.23046875 0.6518937499999999
vt 0.3125 0.9375
vt 0.53125 0.9375
vt 0.53125 0.68314375
vt 0.3125 0.68314375
vn -0.6481828101231208 0.7481807526406073 0.14172016807437335
vn -0.5666133005649651 -0.6939072979986484 -0.44434449406636234
vn 0.5666133005649652 0.6939072979986485 0.44434449406636234
vn -0.6481828101231208 0.7481807526406073 0.14172016807437335
usemtl m_fa3259c7-3aa4-3817-d0aa-c111cfae9b3d
f 11/17/5 12/18/5 9/19/5 10/20/5
f 8/21/6 11/22/6 12/23/6 7/24/6
f 12/25/7 11/26/7 8/27/7 7/28/7
f 11/29/8 12/30/8 9/31/8 10/32/8
o plane
v -0.03517247706486082 0.694176241434342 1.0487523185000267
v 1.1555353989586803 0.07978031575325994 1.3789648373267207
v 0.321590754999618 0.6941762414343405 -0.2376943365334837
v 1.512298631023159 0.07978031575325861 0.09251818229321024
v 1.692855771019194 0.5652133908439589 0.835284036670913
v 0.5021478949956526 1.0683593165250407 0.5050715178442192
vt 0.10047343750000004 0.01780312500000003
vt 0.10047343750000004 0.45530312500000003
vt 0.22765156249999996 0.45530312500000003
vt 0.22765156249999996 0.01780312500000003
vt 0.83984375 0.9296875
vt 0.62109375 0.9296875
vt 0.62109375 0.6753312499999999
vt 0.83984375 0.6753312499999999
vt 0.62109375 0.6753312499999999
vt 0.62109375 0.9296875
vt 0.83984375 0.9296875
vt 0.83984375 0.6753312499999999
vt 0.22765156249999996 0.45530312500000003
vt 0.10047343750000004 0.45530312500000003
vt 0.10047343750000004 0.01780312500000003
vt 0.22765156249999996 0.01780312500000003
vn -0.4510878717847143 -0.7481807526406069 0.4865647883960289
vn -0.09528218636870708 -0.6939072979986494 -0.713732419569836
vn 0.09528218636870708 0.6939072979986495 0.7137324195698361
vn 0.4510878717847144 0.7481807526406067 -0.4865647883960291
usemtl m_fa3259c7-3aa4-3817-d0aa-c111cfae9b3d
f 17/33/9 18/34/9 15/35/9 16/36/9
f 18/37/10 17/38/10 14/39/10 13/40/10
f 14/41/11 17/42/11 18/43/11 13/44/11
f 15/45/12 18/46/12 17/47/12 16/48/12
o plane
v 0.7344972395037414 0.5273015160667222 1.2160088929860875
v -0.4763447889101976 0.024155815345749038 0.9696608420170285
v 1.0006531945913757 0.5273006966323808 -0.09219063597374078
v -0.21018883382256315 0.024154995911407656 -0.33853868694279976
v -0.7082748137534182 0.5095885485333469 0.24129912504445097
v 0.5025672146605207 1.01273424925432 0.48764717601350993
vt 0.23046875 0.90625
vt 0.01171875 0.90625
vt 0.01171875 0.6518937499999999
vt 0.23046875 0.6518937499999999
vt 0.23046875 0.90625
vt 0.01171875 0.90625
vt 0.01171875 0.6518937499999999
vt 0.23046875 0.6518937499999999
vt 0.39453125 0.66751875
vt 0.39453125 0.921875
vt 0.61328125 0.921875
vt 0.61328125 0.66751875
vt 0.61328125 0.921875
vt 0.39453125 0.921875
vt 0.39453125 0.6675187499999999
vt 0.61328125 0.6675187499999999
vn -0.4089244712865997 0.6939077559719968 0.5926827169615145
vn -0.4089244712865997 0.6939077559719968 0.5926827169615145
vn 0.14483745980418575 -0.6939069429074674 0.7053476198459054
vn -0.1448374598041857 0.6939069429074674 -0.7053476198459053
usemtl m_fa3259c7-3aa4-3817-d0aa-c111cfae9b3d
f 24/49/13 23/50/13 20/51/13 19/52/13
f 24/53/14 23/54/14 20/55/14 19/56/14
f 21/57/15 24/58/15 23/59/15 22/60/15
f 23/61/16 24/62/16 21/63/16 22/64/16
o plane
v 0.7296413464915705 0.5273016132339114 1.2187922762615178
v 1.5723508480361619 0.024155499495625454 0.3150964975946249
v -0.24671626062968588 0.527300981369718 0.30832491110444893
v 0.5959932409149054 0.024154867631432153 -0.5953708675624441
v 1.3382065750375745 0.5095882019643267 -0.4125564529394168
v 0.49549707349298294 1.0127343157026125 0.49113932572747604
vt 0.11219218750000004 0.005634374999999969
vt 0.11219218750000004 0.44313437499999997
vt 0.23937031250000002 0.44313437499999997
vt 0.23937031250000002 0.005634374999999969
vt 0.83203125 0.9296875
vt 0.61328125 0.9296875
vt 0.61328125 0.6753312499999999
vt 0.83203125 0.6753312499999999
vt 0.61328125 0.6753312499999999
vt 0.61328125 0.9296875
vt 0.83203125 0.9296875
vt 0.83203125 0.6753312499999999
vt 0.23937031250000002 0.44313437499999997
vt 0.11219218750000004 0.44313437499999997
vt 0.11219218750000004 0.005634374999999969
vt 0.23937031250000002 0.005634374999999969
vn 0.29168321435674066 -0.6939069415196024 0.6583419012742776
vn -0.6770847492151283 -0.6939075684720457 -0.24504801324944508
vn 0.6770847492151283 0.6939075684720457 0.24504801324944506
vn -0.29168321435674066 0.6939069415196025 -0.6583419012742778
usemtl m_fa3259c7-3aa4-3817-d0aa-c111cfae9b3d
f 29/65/17 30/66/17 27/67/17 28/68/17
f 30/69/18 29/70/18 26/71/18 25/72/18
f 26/73/19 29/74/19 30/75/19 25/76/19
f 27/77/20 30/78/20 29/79/20 28/80/20