# Made in Blockbench 4.8.1
mtllib spruce_leaves.mtl

o cube
v 1.4398675019383673 -0.24783552855449886 0.3133017346693354
v 1.4398675019383673 -0.24783552855449886 0.3133017346693354
v 0.42667933366766375 -0.11076135093957173 -0.31438540657786623
v 0.42667933366766375 -0.11076135093957173 -0.31438540657786623
v 1.1463626505962885 0.7881207317109542 1.013297745831412
v 1.1463626505962885 0.7881207317109542 1.013297745831412
v 0.13317448232558515 0.9251949093258813 0.38561060458421037
v 0.13317448232558515 0.9251949093258813 0.38561060458421037
vt 0.734375 0.33436241666666655
vt 0.734375 0.6041666666666667
vt 0.8603961250000002 0.6041666666666667
vt 0.8603961250000002 0.33436241666666655
vt 0.734375 0.6041666666666667
vt 0.734375 0.33436241666666655
vt 0.8603961250000002 0.33436241666666655
vt 0.8603961250000002 0.6041666666666667
vn 0.4843103442216366 0.5798792466986583 -0.6551210191469333
vn -0.4843103442216366 -0.5798792466986583 0.6551210191469333
usemtl m_12471031-f55b-079a-b844-a4f954b61df9
f 4/4/1 7/3/1 5/2/1 2/1/1
f 8/8/2 3/7/2 1/6/2 6/5/2
o plane
v 2.400858463404091 0.9559347887813499 1.2202397119687014
v 2.409405860016921 1.1725724200840655 -0.2663595855459118
v 0.9282223411606217 0.6781799571116055 1.171296224681538
v 0.9367697377734515 0.8948175884143211 -0.3153030728330752
v 0.8359628259265663 1.2911745834383563 0.46849537410699243
v 2.3085989481700357 1.5689294151081006 0.5174388613941557
vt 0.8840625 0.5406249999999999
vt 0.7265625 0.5406249999999999
vt 0.7265625 0.34375
vt 0.8840625 0.34375
vt 0.7265625 0.54239375
vt 0.8840625 0.54239375
vt 0.8840625 0.728125
vt 0.7265625 0.728125
vt 0.8840625 0.728125
vt 0.8840625 0.54239375
vt 0.7265625 0.54239375
vt 0.7265625 0.728125
vt 0.7265625 0.34375
vt 0.7265625 0.5406249999999999
vt 0.8840625 0.5406249999999999
vt 0.8840625 0.34375
vn 0.16027640999001266 -0.7333541513273544 -0.6606838586885934
vn 0.14959703998604276 -0.8744646333627536 0.46144591300081916
vn -0.14959703998604276 0.8744646333627536 -0.46144591300081916
vn -0.16027640999001266 0.7333541513273544 0.6606838586885934
usemtl m_12471031-f55b-079a-b844-a4f954b61df9
f 13/9/3 14/10/3 9/11/3 11/12/3
f 14/13/4 13/14/4 12/15/4 10/16/4
f 12/17/5 13/18/5 14/19/5 10/20/5
f 9/21/6 14/22/6 13/23/6 11/24/6
o cube
v 1.8808829014889517 1.4901831879718967 0.4857001611718921
v 1.8808829014889517 1.4901831879718967 0.4857001611718921
v 2.166409203623232 0.36889167645254206 -0.38656098153170715
v 2.166409203623232 0.36889167645254206 -0.38656098153170715
v 0.19395613783564292 0.9245483633653777 0.6606243429150163
v 0.19395613783564292 0.9245483633653777 0.6606243429150163
v 0.47948243996992357 -0.19674314815397687 -0.21163679978858274
v 0.47948243996992357 -0.19674314815397687 -0.21163679978858274
vt 0.4143576250000003 0.4609375
vt 0.2265625 0.4609375
vt 0.2265625 0.1565215000000001
vt 0.4143576250000003 0.1565215000000001
vt 0.22595624999999975 0.4609375
vt 0.4137513749999999 0.4609375
vt 0.4137513749999999 0.1565215000000001
vt 0.22595624999999975 0.1565215000000001
vn -0.26616602118801364 0.5487186366363597 -0.7925045785185577
vn 0.26616602118801364 -0.5487186366363597 0.7925045785185577
usemtl m_12471031-f55b-079a-b844-a4f954b61df9
f 18/28/7 21/27/7 19/26/7 16/25/7
f 22/32/8 17/31/8 15/30/8 20/29/8
o plane
v -0.014717099814795298 0.8611743837285804 0.45824825612559283
v 0.7350759039630281 -0.11385001158158986 1.246413634674043
v -1.260642540366213 0.04592285330627677 0.6349827992427965
v -0.5108495365883897 -0.9291015420038935 1.4231481777912467
v -0.9406032255324697 -0.31510787500433013 1.225779984114918
v 0.3053222150189481 0.5001436554179735 1.0490454409977141
vt 0.2890625 0.5390625
vt 0.2890625 0.37881718749999993
vt 0.4465625 0.37881718749999993
vt 0.4465625 0.5390625
vt 0.4465625 0.2030875000000001
vt 0.4465625 0.3750000000000001
vt 0.2890625 0.3750000000000001
vt 0.2890625 0.2030875000000001
vt 0.2890625 0.3750000000000001
vt 0.4465625 0.3750000000000001
vt 0.4465625 0.2030875000000001
vt 0.2890625 0.2030875000000001
vt 0.4465625 0.37881718749999993
vt 0.2890625 0.37881718749999993
vt 0.2890625 0.5390625
vt 0.4465625 0.5390625
vn 0.36534554566643956 -0.6930653303299594 -0.6214363041827503
vn 0.04508520387033687 -0.2769769060110914 -0.9598182733874644
vn -0.04508520387033687 0.2769769060110914 0.9598182733874644
vn -0.36534554566643956 0.6930653303299594 0.6214363041827503
usemtl m_12471031-f55b-079a-b844-a4f954b61df9
f 23/33/9 28/34/9 27/35/9 25/36/9
f 26/37/10 27/38/10 28/39/10 24/40/10
f 28/41/11 27/42/11 26/43/11 24/44/11
f 27/45/12 28/46/12 23/47/12 25/48/12
o cube
v 1.6078033658105073 1.5160551015008714 0.43788690633708893
v 1.6078033658105073 1.5160551015008714 0.43788690633708893
v 1.8737550388616993 0.6069172512248127 -0.6586519670655472
v 1.8737550388616993 0.6069172512248127 -0.6586519670655472
v 0.2942824598506162 0.9989481219169347 0.5480411819252584
v 0.2942824598506162 0.9989481219169347 0.5480411819252584
v 0.5602341329018086 0.08981027164087618 -0.5484976914773775
v 0.5602341329018086 0.08981027164087618 -0.5484976914773775
vt 0.4609375 0.5859375
vt 0.6096701250000003 0.5859375
vt 0.6096701250000003 0.2815215000000001
vt 0.4609375 0.2815215000000001
vt 0.6090638749999999 0.5859375
vt 0.46033124999999975 0.5859375
vt 0.46033124999999975 0.2815215000000001
vt 0.6090638749999999 0.2815215000000001
vn -0.325177925119816 0.687731540762793 -0.6490644381375443
vn 0.325177925119816 -0.687731540762793 0.6490644381375443
usemtl m_12471031-f55b-079a-b844-a4f954b61df9
f 32/52/13 35/51/13 33/50/13 30/49/13
f 36/56/14 31/55/14 29/54/14 34/53/14
o cube
v 1.124375241022103 1.385938104461273 0.4639248792476618
v 1.124375241022103 1.385938104461273 0.4639248792476618
v 1.5908137832417921 0.5725797888989328 1.56870664997163
v 1.5908137832417921 0.5725797888989328 1.56870664997163
v -0.14924491920128957 0.7733708794440219 0.5506649822316927
v -0.14924491920128957 0.7733708794440219 0.5506649822316927
v 0.31719362301839915 -0.03998743611831834 1.655446752955661
v 0.31719362301839915 -0.03998743611831834 1.655446752955661
vt 0.35876874999999975 0.953125
vt 0.5075013749999999 0.953125
vt 0.5075013749999999 0.6487090000000001
vt 0.35876874999999975 0.6487090000000001
vt 0.5081076250000003 0.953125
vt 0.359375 0.953125
vt 0.359375 0.6487090000000001
vt 0.5081076250000003 0.6487090000000001
vn 0.2954608716111866 -0.7055216301726118 -0.6441599977531501
vn -0.2954608716111866 0.7055216301726118 0.6441599977531501
usemtl m_12471031-f55b-079a-b844-a4f954b61df9
f 40/60/15 43/59/15 41/58/15 38/57/15
f 44/64/16 39/63/16 37/62/16 42/61/16
o plane
v 1.7307334617693866 0.6729751087439195 1.2018365801791138
v 1.1897860760235677 1.3300070261624688 0.3701004529439992
v 0.11102523642653278 -0.3555593517821095 1.4427747273603753
v -0.429922149319286 0.3014725656364396 0.6110386001252608
vt 0.21484375 0.2578125
vt 0.01171875 0.2578125
vt 0.01171875 0.0078125
vt 0.21484375 0.0078125
vt 0.01171875 0.2578125
vt 0.21484375 0.2578125
vt 0.21484375 0.0078125
vt 0.01171875 0.0078125
vn 0.30296218372409617 -0.6420688271435286 -0.704245366646924
vn -0.30296218372409617 0.6420688271435286 0.704245366646924
usemtl m_12471031-f55b-079a-b844-a4f954b61df9
f 48/65/17 46/66/17 45/67/17 47/68/17
f 46/69/18 48/70/18 47/71/18 45/72/18
o plane
v 0.4410910572028618 1.0883576871512561 0.5562854170825087
v 1.0751879982565262 0.017997553556120538 -0.3013734570519512
v -0.8609172302327878 0.3455896889089205 0.5206416204839379
v -0.2268202891791231 -0.7247704446862153 -0.33701725365052193
v -0.6175121129860907 -0.05211048004791552 -0.08301240955842709
v 0.6844961744495588 0.6906575181944201 -0.04736861295985634
vt 0 0.17573125
vt 0.15749999999999997 0.17573125
vt 0.15749999999999997 0.33597656249999996
vt 0 0.33597656249999996
vt 0.15749999999999997 0.17191406249999996
vt 0 0.17191406249999996
vt 0 0
vt 0.15749999999999997 0
vt 0 0
vt 0 0.17191406249999996
vt 0.15749999999999997 0.17191406249999996
vt 0.15749999999999997 0
vt 0.15749999999999997 0.33597656249999996
vt 0.15749999999999997 0.17573125
vt 0 0.17573125
vt 0 0.33597656249999996
vn 0.37964807217502367 -0.6948028545153317 0.610832493119951
vn 0.13422506788284233 -0.28088816375073505 0.9503080924713767
vn -0.13422506788284233 0.28088816375073505 -0.9503080924713767
vn -0.37964807217502367 0.6948028545153317 -0.610832493119951
usemtl m_12471031-f55b-079a-b844-a4f954b61df9
f 53/73/19 54/74/19 49/75/19 51/76/19
f 54/77/20 53/78/20 52/79/20 50/80/20
f 52/81/21 53/82/21 54/83/21 50/84/21
f 49/85/22 54/86/22 53/87/22 51/88/22