# Made in Blockbench 4.8.3
mtllib spruce_leaves_slab_diagonal.mtl

o plane
v -0.10091622730987893 0.4069932050827094 0.8088417866204505
v 0.8307945137040497 0.2987400296096545 -0.20429509706273502
v -0.8887202907604929 -0.18675679491729047 0.14779568753907674
v 0.04299045025343562 -0.2950099703903454 -0.8653411961441086
v -0.18221871405507467 -0.13263020718076313 -0.7427964742624658
v 0.6055853493955393 0.4611197928192367 -0.0817503751810921
v -0.6143760310332731 0.19212931923840143 -0.5194696567241508
v 0.17342803241734092 0.7858793192384013 0.14157644235722278
v -0.7562591029506657 -0.056852984349624824 -0.12674469592711163
v 0.031544960499948316 0.5368970156503751 0.534301403154262
vt 0.8875868055555556 0.7951388888888888
vt 0.7556423611111112 0.7951388888888888
vt 0.7556423611111112 0.7111152777777778
vt 0.8875868055555556 0.7111152777777778
vt 0.13194444444444445 0.1566840277777778
vt 0 0.1566840277777778
vt 0 0.06960902777777767
vt 0.13194444444444445 0.06960902777777767
vt 0 0.06960902777777767
vt 0 0.1566840277777778
vt 0.13194444444444445 0.1566840277777778
vt 0.13194444444444445 0.06960902777777767
vt 0.13194444444444445 0.28342013888888884
vt 0 0.28342013888888884
vt 0 0.1534423611111111
vt 0.13194444444444445 0.1534423611111111
vt 0 0.1534423611111111
vt 0 0.28342013888888884
vt 0.13194444444444445 0.28342013888888884
vt 0.13194444444444445 0.1534423611111111
vt 0.7556423611111112 0.7921361111111112
vt 0.8875868055555556 0.7921361111111112
vt 0.8875868055555556 0.9001736111111112
vt 0.7556423611111112 0.9001736111111112
vt 0.8875868055555556 0.9001736111111112
vt 0.8875868055555556 0.7921361111111112
vt 0.7556423611111112 0.7921361111111112
vt 0.7556423611111112 0.9001736111111112
vt 0.7556423611111112 0.7111152777777778
vt 0.7556423611111112 0.7951388888888888
vt 0.8875868055555556 0.7951388888888888
vt 0.8875868055555556 0.7111152777777778
vn 0.6325132267166055 -0.7722060738879825 -0.06020629102557111
vn -0.09595064159040545 -0.6809716568817978 0.7259966094287553
vn 0.09595064159040545 0.6809716568817978 -0.7259966094287553
vn -0.11817585159282756 -0.664609057705948 0.7377867364730284
vn 0.11817585159282756 0.664609057705948 -0.7377867364730284
vn 0.6889922687879296 -0.6983672121497259 -0.19383727852165378
vn -0.6889922687879296 0.6983672121497259 0.19383727852165378
vn -0.6325132267166055 0.7722060738879825 0.06020629102557111
usemtl m_12471031-f55b-079a-b844-a4f954b61df9
f 9/1/1 10/2/1 1/3/1 3/4/1
f 6/5/2 5/6/2 4/7/2 2/8/2
f 4/9/3 5/10/3 6/11/3 2/12/3
f 8/13/4 7/14/4 5/15/4 6/16/4
f 5/17/5 7/18/5 8/19/5 6/20/5
f 10/21/6 9/22/6 7/23/6 8/24/6
f 7/25/7 9/26/7 10/27/7 8/28/7
f 1/29/8 10/30/8 9/31/8 3/32/8
o cube
v -0.0006212298268617467 0.6853385086952 0.6230284122593193
v -0.0006212298268617467 0.6853385086952 0.6230284122593193
v 0.7303755302427433 0.6499034233026912 0.01775303834212194
v 0.7303755302427433 0.6499034233026912 0.01775303834212194
v -0.286370760312435 -0.12491465686667447 0.32536126994836
v -0.286370760312435 -0.12491465686667447 0.32536126994836
v 0.4446259997571699 -0.1603497422591832 -0.2799141039688374
v 0.4446259997571699 -0.1603497422591832 -0.2799141039688374
vt 0.5915584355555558 0.5227239311111112
vt 0.4905286322222222 0.5227239311111112
vt 0.4905286322222222 0.3116747955555551
vt 0.5915584355555558 0.3116747955555551
vt 0.5915584355555558 0.3116747955555551
vt 0.4905286322222222 0.3116747955555551
vt 0.4905286322222222 0.5227239311111112
vt 0.5915584355555558 0.5227239311111112
vn 0.5557034823001552 -0.452261378061192 0.6976053939539694
vn -0.5557034823001552 0.452261378061192 -0.6976053939539694
usemtl m_12471031-f55b-079a-b844-a4f954b61df9
f 13/33/9 11/34/9 15/35/9 17/36/9
f 18/37/10 16/38/10 12/39/10 14/40/10
o plane
v 1.1615790835846909 0.11003192178072357 1.978631204839334
v 2.166424789394111 0.31707554759815526 0.8811794121937576
v 0.0483056359481282 0.2228866110797253 0.9805899181729839
v 1.0531513417575487 0.42993023689715704 -0.11686187447259244
v 0.553327548157237 0.8388724849949627 0.4869123544225764
v 1.6666009957937995 0.7260177956959609 1.4849536410889266
vt 0.8125781249999997 0.5406249999999999
vt 0.6550781249999997 0.5406249999999999
vt 0.6550781249999997 0.3437500000000001
vt 0.8125781249999997 0.3437500000000001
vt 0.6550781249999997 0.54239375
vt 0.8125781249999997 0.54239375
vt 0.8125781249999997 0.728125
vt 0.6550781249999997 0.728125
vt 0.8125781249999997 0.728125
vt 0.8125781249999997 0.54239375
vt 0.6550781249999997 0.54239375
vt 0.6550781249999997 0.728125
vt 0.6550781249999997 0.3437500000000001
vt 0.6550781249999997 0.5406249999999999
vt 0.8125781249999997 0.5406249999999999
vt 0.8125781249999997 0.3437500000000001
vn 0.39787593031056673 -0.7498483578024975 -0.5286039958044195
vn -0.35929594160566675 -0.8833865699767603 0.3008896713587755
vn 0.35929594160566675 0.8833865699767603 -0.3008896713587755
vn -0.39787593031056673 0.7498483578024975 0.5286039958044195
usemtl m_12471031-f55b-079a-b844-a4f954b61df9
f 23/41/11 24/42/11 19/43/11 21/44/11
f 24/45/12 23/46/12 22/47/12 20/48/12
f 22/49/13 23/50/13 24/51/13 20/52/13
f 19/53/14 24/54/14 23/55/14 21/56/14
o plane
v 0.45764676881653543 0.3220309060542301 0.9647127981253756
v 1.0831804245302958 0.31938774088220745 0.2943928862569807
v -0.055117964938649594 0.21799221685780723 0.4866177851130412
v 0.5704156907751108 0.21534905168578455 -0.18370212675535358
v 0.46050902745178846 0.5052546421182159 -0.12891204816291463
v 0.9732737612069735 0.6092933313146388 0.3491829648494197
v 0.157370174648377 0.76431909716917 0.13983408666529326
v 0.6701349084035619 0.8683577863655929 0.6179290996776274
v -0.021531889143292682 0.5000554553657227 0.38921613157028023
v 0.49123284461189237 0.6040941445621456 0.8673111445826145
vt 0.3730208333333331 0.32777777777777795
vt 0.29427083333333304 0.32777777777777795
vt 0.29427083333333304 0.26104583333333353
vt 0.3730208333333331 0.26104583333333353
vt 0.4895833333333333 0.4288194444444444
vt 0.5683333333333334 0.4288194444444444
vt 0.5683333333333334 0.3588541666666667
vt 0.4895833333333333 0.3588541666666667
vt 0.5683333333333334 0.3588541666666667
vt 0.5683333333333334 0.4288194444444444
vt 0.4895833333333333 0.4288194444444444
vt 0.4895833333333333 0.3588541666666667
vt 0.4895833333333333 0.5399305555555556
vt 0.5683333333333334 0.5399305555555556
vt 0.5683333333333334 0.4330708333333333
vt 0.4895833333333333 0.4330708333333333
vt 0.5683333333333334 0.4330708333333333
vt 0.5683333333333334 0.5399305555555556
vt 0.4895833333333333 0.5399305555555556
vt 0.4895833333333333 0.4330708333333333
vt 0.6347395833333334 0.09749722222222224
vt 0.5559895833333334 0.09749722222222224
vt 0.5559895833333334 0.1875
vt 0.6347395833333334 0.1875
vt 0.5559895833333334 0.1875
vt 0.5559895833333334 0.09749722222222224
vt 0.6347395833333334 0.09749722222222224
vt 0.6347395833333334 0.1875
vt 0.29427083333333304 0.26104583333333353
vt 0.29427083333333304 0.32777777777777795
vt 0.3730208333333331 0.32777777777777795
vt 0.3730208333333331 0.26104583333333353
vn 0.681227480869169 -0.3101115819455594 -0.6631439708327814
vn -0.5955847770919183 -0.3613794924312358 0.7174145494388252
vn 0.5955847770919183 0.3613794924312358 -0.7174145494388252
vn -0.28137783463530525 -0.8295813576531205 0.48230828855655383
vn 0.28137783463530525 0.8295813576531205 -0.48230828855655383
vn 0.5305287806727296 -0.7434460501925885 -0.40721883960709176
vn -0.5305287806727296 0.7434460501925885 0.40721883960709176
vn -0.681227480869169 0.3101115819455594 0.6631439708327814
usemtl m_12471031-f55b-079a-b844-a4f954b61df9
f 33/57/15 34/58/15 25/59/15 27/60/15
f 30/61/16 29/62/16 28/63/16 26/64/16
f 28/65/17 29/66/17 30/67/17 26/68/17
f 32/69/18 31/70/18 29/71/18 30/72/18
f 29/73/19 31/74/19 32/75/19 30/76/19
f 34/77/20 33/78/20 31/79/20 32/80/20
f 31/81/21 33/82/21 34/83/21 32/84/21
f 25/85/22 34/86/22 33/87/22 27/88/22