# Made in Blockbench 4.8.1
mtllib spruce_leaves_3.mtl

o cube
v 1.2470104982952543 -0.32569140409987263 0.11331154527485032
v 1.2470104982952543 -0.32569140409987263 0.11331154527485032
v 0.11514138214418035 -0.06347237796429894 -0.18576073364035695
v 0.11514138214418035 -0.06347237796429894 -0.18576073364035695
v 1.2703192035598676 0.6822494618684005 0.9088345188949443
v 1.2703192035598676 0.6822494618684005 0.9088345188949443
v 0.1384500874087935 0.9444684880039742 0.6097622399797369
v 0.1384500874087935 0.9444684880039742 0.6097622399797369
vt 0.2529742500000002 0.6833207499999998
vt 0.2529742500000002 0.953125
vt 0.126953125 0.953125
vt 0.126953125 0.6833207499999998
vt 0.2529742500000002 0.953125
vt 0.2529742500000002 0.6833207499999998
vt 0.126953125 0.6833207499999998
vt 0.126953125 0.953125
vn 0.3310361148035659 0.5798792466986582 -0.744415979103053
vn -0.3310361148035659 -0.5798792466986582 0.744415979103053
usemtl m_12471031-f55b-079a-b844-a4f954b61df9
f 4/4/1 7/3/1 5/2/1 2/1/1
f 8/8/2 3/7/2 1/6/2 6/5/2
o plane
v 2.4444720180338697 0.9019737982533282 0.8008182855046836
v 2.258645645782375 1.1841501691699392 -0.6727591158844258
v 0.9961499424537698 0.6242189665835838 1.0717717480613826
v 0.8103235702022757 0.9063953375001949 -0.4018056533277269
v 0.7539634013382157 1.2372135929103345 0.40559869770433626
v 2.2022854769183153 1.514968424580079 0.13464523514763727
vt 0.5459375 0.6699999999999999
vt 0.5459375 0.355
vt 0.4475 0.355
vt 0.4475 0.6699999999999999
vt 0.6396875 0.6699999999999999
vt 0.546821875 0.6699999999999999
vt 0.546821875 0.355
vt 0.6396875 0.355
vt 0.4475 0.355
vt 0.5459375 0.355
vt 0.5459375 0.6699999999999999
vt 0.4475 0.6699999999999999
vt 0.546821875 0.355
vt 0.546821875 0.6699999999999999
vt 0.6396875 0.6699999999999999
vt 0.6396875 0.355
vn 0.013479059799071366 -0.7333541513273545 -0.6797131775078875
vn -0.2425150132312318 0.8916597053755123 -0.3822688035494267
vn -0.013479059799071366 0.7333541513273545 0.6797131775078875
vn 0.2425150132312318 -0.8916597053755123 0.3822688035494267
usemtl m_12471031-f55b-079a-b844-a4f954b61df9
f 13/9/3 14/10/3 9/11/3 11/12/3
f 12/13/4 13/14/4 14/15/4 10/16/4
f 9/17/5 14/18/5 13/19/5 11/20/5
f 14/21/6 13/22/6 12/23/6 10/24/6
o cube
v 1.8450554114285191 1.4901831879718967 0.18716136235766334
v 1.8450554114285191 1.4901831879718967 0.18716136235766334
v 1.9350217351499612 0.36889167645254206 -0.7262229110328488
v 1.9350217351499612 0.36889167645254206 -0.7262229110328488
v 0.23597607013496258 0.9245483633653777 0.723056920009173
v 0.23597607013496258 0.9245483633653777 0.723056920009173
v 0.3259423938564048 -0.19674314815397687 -0.19032735338133921
v 0.3259423938564048 -0.19674314815397687 -0.19032735338133921
vt 0.40324512500000054 0.234375
vt 0.40324512500000054 0.5387909999999999
vt 0.21545000000000025 0.5387909999999999
vt 0.21545000000000025 0.234375
vt 0.4026388750000002 0.5387909999999999
vt 0.4026388750000002 0.234375
vt 0.21484375 0.234375
vt 0.21484375 0.5387909999999999
vn -0.431386208735593 0.5487186366363598 -0.7161101847625588
vn 0.431386208735593 -0.5487186366363598 0.7161101847625588
usemtl m_12471031-f55b-079a-b844-a4f954b61df9
f 18/28/7 21/27/7 19/26/7 16/25/7
f 22/32/8 17/31/8 15/30/8 20/29/8
o plane
v 0.4820919874601952 1.118440644672046 0.49790484790339606
v 0.8713542825538803 0.022018572400036684 -0.46628496519262996
v -0.7689268064664474 0.368576088924768 0.8455476031511729
v -0.37966451137276247 -0.7278459833472413 -0.11864220994485311
v -0.6950755033322782 -0.048670534039723434 0.2113071880665814
v 0.5559432905943644 0.7011940217075545 -0.1363355671811954
vt 0.00390625 0.18354375
vt 0.16140624999999997 0.18354375
vt 0.16140624999999997 0.34378906249999996
vt 0.00390625 0.34378906249999996
vt 0.16140624999999997 0.17972656249999996
vt 0.00390625 0.17972656249999996
vt 0.00390625 0.0078125
vt 0.16140624999999997 0.0078125
vt 0.00390625 0.0078125
vt 0.00390625 0.17972656249999996
vt 0.16140624999999997 0.17972656249999996
vt 0.16140624999999997 0.0078125
vt 0.16140624999999997 0.34378906249999996
vt 0.16140624999999997 0.18354375
vt 0.00390625 0.18354375
vt 0.00390625 0.34378906249999996
vn 0.5426712448044443 -0.6713125332790068 0.5048241304899334
vn 0.3940818915766776 -0.24704911006509267 0.8852492304133301
vn -0.3940818915766776 0.24704911006509267 -0.8852492304133301
vn -0.5426712448044443 0.6713125332790068 -0.5048241304899334
usemtl m_12471031-f55b-079a-b844-a4f954b61df9
f 27/33/9 28/34/9 23/35/9 25/36/9
f 28/37/10 27/38/10 26/39/10 24/40/10
f 26/41/11 27/42/11 28/43/11 24/44/11
f 23/45/12 28/46/12 27/47/12 25/48/12
o plane
v 0.241767401879262 0.9447984064365254 0.5223959729838041
v 0.9857807515938152 0.017883294724464815 1.1689072974702002
v -1.0083351037834842 0.2182882290340104 0.9194187021395654
v -0.26432175406893105 -0.7086268826780502 1.5659300266259615
v -0.6150840025526261 -0.17180640019215843 1.4438130338272543
v 0.6350185031101202 0.5547037772103566 1.0467903046714933
vt 0.7590625 0.9296875
vt 0.7590625 0.7694421874999999
vt 0.6015625 0.7694421874999999
vt 0.6015625 0.9296875
vt 0.6015625 0.6171500000000001
vt 0.6015625 0.7656250000000001
vt 0.7590625 0.7656250000000001
vt 0.7590625 0.6171500000000001
vt 0.7590625 0.7656250000000001
vt 0.6015625 0.7656250000000001
vt 0.6015625 0.6171500000000001
vt 0.7590625 0.6171500000000001
vt 0.6015625 0.7694421874999999
vt 0.7590625 0.7694421874999999
vt 0.7590625 0.9296875
vt 0.6015625 0.9296875
vn 0.19769480187190608 -0.7097001386728818 -0.6761970707423394
vn -0.12710796020880277 -0.2982482524269169 -0.9459870751632115
vn 0.12710796020880277 0.2982482524269169 0.9459870751632115
vn -0.19769480187190608 0.7097001386728818 0.6761970707423394
usemtl m_12471031-f55b-079a-b844-a4f954b61df9
f 29/49/13 34/50/13 33/51/13 31/52/13
f 32/53/14 33/54/14 34/55/14 30/56/14
f 34/57/15 33/58/15 32/59/15 30/60/15
f 33/61/16 34/62/16 29/63/16 31/64/16
o cube
v 1.5600047909765404 1.5195393990811836 0.17855576469545653
v 1.5600047909765404 1.5195393990811836 0.17855576469545653
v 1.5417654829777145 0.6729343944954258 -0.9972787125761093
v 1.5417654829777145 0.6729343944954258 -0.9972787125761093
v 0.3043031433931882 0.9979597103138036 0.5735731866913067
v 0.3043031433931882 0.9979597103138036 0.5735731866913067
v 0.2860638353943622 0.15135470572804577 -0.6022612905802591
v 0.2860638353943622 0.15135470572804577 -0.6022612905802591
vt 0.6256062500000003 0.9375
vt 0.7743388750000005 0.9375
vt 0.7743388750000005 0.6330840000000001
vt 0.6256062500000003 0.6330840000000001
vt 0.7737326250000002 0.9375
vt 0.625 0.9375
vt 0.625 0.6330840000000001
vt 0.7737326250000002 0.6330840000000001
vn -0.46191299928900964 0.723151185459132 -0.5135063232881205
vn 0.46191299928900964 -0.723151185459132 0.5135063232881205
usemtl m_12471031-f55b-079a-b844-a4f954b61df9
f 38/68/17 41/67/17 39/66/17 36/65/17
f 42/72/18 37/71/18 35/70/18 40/69/18
o cube
v 1.2690607300667707 1.4428027903401741 0.2581065887369607
v 1.2690607300667707 1.4428027903401741 0.2581065887369607
v 1.9336057419636834 0.6645267297567061 1.193576767188435
v 1.9336057419636834 0.6645267297567061 1.193576767188435
v 0.04440444745603722 0.830235565322923 0.618452460719978
v 0.04440444745603722 0.830235565322923 0.618452460719978
v 0.70894945935295 0.051959504739454765 1.5539226391714522
v 0.70894945935295 0.051959504739454765 1.5539226391714522
vt 0.46814374999999975 0.5625
vt 0.6168763749999999 0.5625
vt 0.6168763749999999 0.2737090000000001
vt 0.46814374999999975 0.2737090000000001
vt 0.6174826250000003 0.5625
vt 0.46875 0.5625
vt 0.46875 0.2737090000000001
vt 0.6174826250000003 0.2737090000000001
vn 0.1490355279861156 -0.7055216301726118 -0.6928402707381264
vn -0.1490355279861156 0.7055216301726118 0.6928402707381264
usemtl m_12471031-f55b-079a-b844-a4f954b61df9
f 46/76/19 49/75/19 47/74/19 44/73/19
f 50/80/20 45/79/20 43/78/20 48/77/20
o plane
v 1.8534654030159512 0.6729751087439195 0.9188207755535067
v 1.1453199839732007 1.3300070261624688 0.22388255888811848
v 0.32429928947328396 -0.3555593517821095 1.5046167495950247
v -0.38384612956946657 0.3014725656364396 0.8096785329296363
vt 0.21484375 0.28125
vt 0.01171875 0.28125
vt 0.01171875 0.03125
vt 0.21484375 0.03125
vt 0.01171875 0.28125
vt 0.21484375 0.28125
vt 0.21484375 0.03125
vt 0.01171875 0.03125
vn 0.14335417500341271 -0.6420688271435289 -0.7531249575731935
vn -0.14335417500341271 0.6420688271435289 0.7531249575731935
usemtl m_12471031-f55b-079a-b844-a4f954b61df9
f 54/81/21 52/82/21 51/83/21 53/84/21
f 52/85/22 54/86/22 53/87/22 51/88/22