# Made in Blockbench 4.8.3
mtllib spruce_leaves_slab_3.mtl

o plane
v 0.7967245438267223 0.24461344187312717 0.8828202165881999
v 0.4942480717017954 0.3203906647042656 -0.3565534342172617
v -0.21013087879852638 -0.3491365581268727 1.092246445676469
v -0.5126073509234532 -0.2733593352957343 -0.14712720512899258
v -0.5658072737452113 -0.08932893699154132 0.11885389217331793
v 0.44104814888003746 0.5044210630084586 -0.09057233691495126
v -0.6306310739663088 0.19212931923840143 0.6051714146351962
v 0.37622434865894006 0.7858793192384013 0.39574518554692695
v -0.41005646440646654 -0.056852984349624824 0.9597282401896835
v 0.5967989582187823 0.5368970156503751 0.7503020111014143
vt 0.013454861111111112 0.7951388888888888
vt 0.14539930555555555 0.7951388888888888
vt 0.14539930555555555 0.7111152777777778
vt 0.013454861111111112 0.7111152777777778
vt 0.75 0.7973090277777778
vt 0.8819444444444444 0.7973090277777778
vt 0.8819444444444444 0.7102340277777777
vt 0.75 0.7102340277777777
vt 0.8819444444444444 0.7102340277777777
vt 0.8819444444444444 0.7973090277777778
vt 0.75 0.7973090277777778
vt 0.75 0.7102340277777777
vt 0.75 0.9240451388888888
vt 0.8819444444444444 0.9240451388888888
vt 0.8819444444444444 0.7940673611111111
vt 0.75 0.7940673611111111
vt 0.8819444444444444 0.7940673611111111
vt 0.8819444444444444 0.9240451388888888
vt 0.75 0.9240451388888888
vt 0.75 0.7940673611111111
vt 0.14539930555555555 0.7999486111111112
vt 0.013454861111111112 0.7999486111111112
vt 0.013454861111111112 0.9079861111111112
vt 0.14539930555555555 0.9079861111111112
vt 0.013454861111111112 0.9079861111111112
vt 0.013454861111111112 0.7999486111111112
vt 0.14539930555555555 0.7999486111111112
vt 0.14539930555555555 0.9079861111111112
vt 0.14539930555555555 0.7189277777777778
vt 0.14539930555555555 0.8029513888888888
vt 0.013454861111111112 0.8029513888888888
vt 0.013454861111111112 0.7189277777777778
vn 0.03891090414250781 -0.390418534371948 -0.9198148235148598
vn 0.5047384039358664 -0.6593863256870414 0.5571793401493069
vn -0.5047384039358664 0.6593863256870414 -0.5571793401493069
vn 0.5176560419300288 -0.7087904072950686 0.4792164237375709
vn -0.5176560419300288 0.7087904072950686 -0.4792164237375709
vn 0.2743272480689603 -0.6983672121497257 -0.6610807802085393
vn -0.2743272480689603 0.6983672121497257 0.6610807802085393
vn -0.03891090414250781 0.390418534371948 0.9198148235148598
usemtl m_12471031-f55b-079a-b844-a4f954b61df9
f 9/1/1 10/2/1 1/3/1 3/4/1
f 6/5/2 5/6/2 4/7/2 2/8/2
f 4/9/3 5/10/3 6/11/3 2/12/3
f 8/13/4 7/14/4 5/15/4 6/16/4
f 5/17/5 7/18/5 8/19/5 6/20/5
f 10/21/6 9/22/6 7/23/6 8/24/6
f 7/25/7 9/26/7 10/27/7 8/28/7
f 1/29/8 10/30/8 9/31/8 3/32/8
o cube
v 0.6433187354623506 0.6931854295364843 0.7980080070674676
v 0.6433187354623506 0.6931854295364843 0.7980080070674676
v 0.6755118521713777 0.5798526332595841 -0.14437698183263958
v 0.6755118521713777 0.5798526332595841 -0.14437698183263958
v 0.01577296163225983 0.037699978936864886 0.8553999915909425
v 0.01577296163225983 0.037699978936864886 0.8553999915909425
v 0.047966078341286855 -0.0756328173400353 -0.08698499730916454
v 0.047966078341286855 -0.0756328173400353 -0.08698499730916454
vt 0.5915584355555558 0.49147393111111115
vt 0.4905286322222222 0.49147393111111115
vt 0.4905286322222222 0.2804247955555551
vt 0.5915584355555558 0.2804247955555551
vt 0.5915584355555558 0.2804247955555551
vt 0.4905286322222222 0.2804247955555551
vt 0.4905286322222222 0.49147393111111115
vt 0.5915584355555558 0.49147393111111115
vn 0.722856988157795 -0.68269497852183 0.10679579098690963
vn -0.722856988157795 0.68269497852183 -0.10679579098690963
usemtl m_12471031-f55b-079a-b844-a4f954b61df9
f 13/33/9 11/34/9 15/35/9 17/36/9
f 18/37/10 16/38/10 12/39/10 14/40/10
o plane
v 2.31830964079634 0.13408219458505644 0.9567555849658779
v 2.2593141444169635 0.34112582040248807 -0.5300648013187508
v 0.8250433577870482 0.24693688388405804 1.0317221583891905
v 0.7660478614076717 0.45398050970148973 -0.4550982278954381
v 0.8361462601934265 0.8629227577992955 0.32557670997219745
v 2.3294125432027184 0.7500680685002938 0.25061013654888475
vt 0.33773437499999975 0.4434374999999998
vt 0.33773437499999964 0.12843749999999998
vt 0.23929687499999966 0.12843749999999998
vt 0.23929687499999966 0.4434374999999998
vt 0.3386187499999997 0.12843749999999998
vt 0.3386187499999998 0.4434374999999998
vt 0.43148437499999975 0.4434374999999998
vt 0.43148437499999975 0.12843749999999998
vt 0.43148437499999975 0.4434374999999998
vt 0.3386187499999998 0.4434374999999998
vt 0.3386187499999997 0.12843749999999998
vt 0.43148437499999975 0.12843749999999998
vt 0.23929687499999966 0.12843749999999998
vt 0.33773437499999964 0.12843749999999998
vt 0.33773437499999975 0.4434374999999998
vt 0.23929687499999966 0.4434374999999998
vn -0.0895793294334988 -0.7498483578024973 -0.6555173407615873
vn -0.043335964175846856 -0.8833865699767603 0.4666370776027601
vn 0.043335964175846856 0.8833865699767603 -0.4666370776027601
vn 0.0895793294334988 0.7498483578024973 0.6555173407615873
usemtl m_12471031-f55b-079a-b844-a4f954b61df9
f 23/41/11 24/42/11 19/43/11 21/44/11
f 24/45/12 23/46/12 22/47/12 20/48/12
f 22/49/13 23/50/13 24/51/13 20/52/13
f 19/53/14 24/54/14 23/55/14 21/56/14
o plane
v 1.1715837065510082 0.34078090605423006 0.6749951124645648
v 1.0324342319963182 0.3381377408822074 -0.2312380597428022
v 0.47867805417546905 0.23674221685780716 0.781692209689927
v 0.339528579620779 0.2340990516857845 -0.12454096251743996
v 0.31451360573140613 0.5240046421182158 -0.0043091928542359215
v 1.0074192581069454 0.6280433313146387 -0.11100629007959817
v 0.33789306594944113 0.78306909716917 0.4001299866325974
v 1.0307987183249803 0.8871077863655928 0.2934328894072351
v 0.42297982285852526 0.5188054553657226 0.6950157213648933
v 1.1158854752340646 0.6228441445621455 0.5883186241395311
vt 0.8222395833333334 0.1293402777777778
vt 0.7434895833333334 0.1293402777777778
vt 0.7434895833333334 0.06260833333333338
vt 0.8222395833333334 0.06260833333333338
vt 0.3294270833333333 0.7960069444444444
vt 0.40817708333333336 0.7960069444444444
vt 0.40817708333333336 0.7260416666666667
vt 0.3294270833333333 0.7260416666666667
vt 0.40817708333333336 0.7260416666666667
vt 0.40817708333333336 0.7960069444444444
vt 0.3294270833333333 0.7960069444444444
vt 0.3294270833333333 0.7260416666666667
vt 0.3294270833333333 0.9071180555555556
vt 0.40817708333333336 0.9071180555555556
vt 0.40817708333333336 0.8002583333333333
vt 0.3294270833333333 0.8002583333333333
vt 0.40817708333333336 0.8002583333333333
vt 0.40817708333333336 0.9071180555555556
vt 0.3294270833333333 0.9071180555555556
vt 0.3294270833333333 0.8002583333333333
vt 0.7434895833333334 0.13655972222222224
vt 0.8222395833333334 0.13655972222222224
vt 0.8222395833333334 0.2265625
vt 0.7434895833333334 0.2265625
vt 0.8222395833333334 0.2265625
vt 0.8222395833333334 0.13655972222222224
vt 0.7434895833333334 0.13655972222222224
vt 0.7434895833333334 0.2265625
vt 0.7434895833333334 0.06260833333333338
vt 0.7434895833333334 0.1293402777777778
vt 0.8222395833333334 0.1293402777777778
vt 0.8222395833333334 0.06260833333333338
vn -0.0990343763967878 -0.3101115819455594 -0.9455278943716691
vn 0.19467486033583853 -0.36137949243123574 0.9118698159295351
vn -0.19467486033583853 0.36137949243123574 -0.9118698159295351
vn 0.20456555001495755 -0.8295813576531206 0.5195649206610117
vn -0.20456555001495755 0.8295813576531206 -0.5195649206610117
vn 0.00865130873215067 -0.7434460501925884 -0.6687399534275342
vn -0.00865130873215067 0.7434460501925884 0.6687399534275342
vn 0.0990343763967878 0.3101115819455594 0.9455278943716691
usemtl m_12471031-f55b-079a-b844-a4f954b61df9
f 33/57/15 34/58/15 25/59/15 27/60/15
f 30/61/16 29/62/16 28/63/16 26/64/16
f 28/65/17 29/66/17 30/67/17 26/68/17
f 32/69/18 31/70/18 29/71/18 30/72/18
f 29/73/19 31/74/19 32/75/19 30/76/19
f 34/77/20 33/78/20 31/79/20 32/80/20
f 31/81/21 33/82/21 34/83/21 32/84/21
f 25/85/22 34/86/22 33/87/22 27/88/22