# Made in Blockbench 4.8.1
mtllib spruce_leaves_5.mtl

o cube
v 1.731460999623872 1.490184446415011 1.1249352645587416
v 1.731460999623872 1.490184446415011 1.1249352645587416
v 2.387491606752717 0.36889332513379913 0.48307119177346325
v 2.387491606752717 0.36889332513379913 0.48307119177346325
v 0.15436759739246808 0.9245483447126386 0.5011601999841031
v 0.15436759739246808 0.9245483447126386 0.5011601999841031
v 0.8103982045213136 -0.19674277656857309 -0.1407038728011752
v 0.8103982045213136 -0.19674277656857309 -0.1407038728011752
vt 0.4143576250000003 0.4609375000000001
vt 0.22656249999999997 0.4609375000000001
vt 0.22656249999999997 0.1565215000000001
vt 0.4143576250000003 0.1565215000000001
vt 0.2259562499999997 0.4609375000000001
vt 0.4137513749999999 0.4609375000000001
vt 0.4137513749999999 0.1565215000000001
vt 0.2259562499999997 0.1565215000000001
vn 0.12984465658274363 0.5487186045543481 -0.8258621302450178
vn -0.12984465658274363 -0.5487186045543481 0.8258621302450178
usemtl m_12471031-f55b-079a-b844-a4f954b61df9
f 4/4/1 7/3/1 5/2/1 2/1/1
f 8/8/2 3/7/2 1/6/2 6/5/2
o cube
v 1.419881546409571 -0.24783460964116744 0.7683787847597745
v 1.419881546409571 -0.24783460964116744 0.7683787847597745
v 0.8110055065371273 -0.11076124489026995 -0.2562243591573007
v 0.8110055065371273 -0.11076124489026995 -0.2562243591573007
v 0.8363167796020776 0.7881212533105737 1.2537575024062795
v 0.8363167796020776 0.7881212533105737 1.2537575024062795
v 0.22744073972963397 0.9251946180614712 0.2291543584892044
v 0.22744073972963397 0.9251946180614712 0.2291543584892044
vt 0.7343749999999999 0.3343624166666668
vt 0.7343749999999999 0.6041666666666667
vt 0.8603961250000003 0.6041666666666667
vt 0.8603961250000003 0.3343624166666668
vt 0.7343749999999999 0.6041666666666667
vt 0.7343749999999999 0.3343624166666668
vt 0.8603961250000003 0.3343624166666668
vt 0.8603961250000003 0.6041666666666667
vn 0.7320889786254609 0.5798798105501823 -0.3574704640825788
vn -0.7320889786254609 -0.5798798105501823 0.3574704640825788
usemtl m_12471031-f55b-079a-b844-a4f954b61df9
f 12/12/3 15/11/3 13/10/3 10/9/3
f 16/16/4 11/15/4 9/14/4 14/13/4
o plane
v 0.35320749637213766 0.1819332293475875 1.3280524485338345
v 1.0735032850883517 0.19411171158830576 -0.07085032923183171
v -0.7414403324520482 -0.5305667706524124 0.7582148568899553
v -0.02114454373583413 -0.5183882884116942 -0.6406879208757109
v -0.3957042551251775 0.0337029065008857 -0.611476091564618
v 0.6989435736990083 0.7462029065008856 -0.04163849992073887
v -0.8155468584531319 0.33545863313202623 -0.182268116270139
v 0.27910097037105397 1.047958633132026 0.3875694753737402
v -0.9086285120108327 0.036679868826394735 0.37011997492266113
v 0.18601931681335304 0.7491798688263946 0.9399575665665403
vt 0.188589642857143 0.6260632142857143
vt 0.03125 0.6260632142857145
vt 0.03125 0.46438321428571416
vt 0.188589642857143 0.46438321428571416
vt 0.4362946428571428 0.3713899999999999
vt 0.2734375 0.3713899999999999
vt 0.2734375 0.21875
vt 0.4362946428571428 0.21875
vt 0.2734375 0.21875
vt 0.2734375 0.3713899999999999
vt 0.4362946428571428 0.3713899999999999
vt 0.4362946428571428 0.21875
vt 0.7187500000000001 0.9309882142857142
vt 0.8816071428571429 0.9309882142857142
vt 0.8816071428571429 0.7593510714285714
vt 0.7187500000000001 0.7593510714285714
vt 0.8816071428571429 0.7593510714285714
vt 0.8816071428571429 0.9309882142857142
vt 0.7187500000000001 0.9309882142857142
vt 0.7187500000000001 0.7593510714285714
vt 0.015625 0.1617525000000003
vt 0.172964642857143 0.16175250000000008
vt 0.172964642857143 0.30686678571428594
vt 0.015625 0.30686678571428594
vt 0.172964642857143 0.30686678571428594
vt 0.172964642857143 0.16175250000000008
vt 0.015736607142857142 0.1617525000000003
vt 0.015736607142857142 0.30686678571428594
vt 0.03136160714285714 0.46438321428571416
vt 0.03136160714285714 0.6260632142857145
vt 0.188589642857143 0.6260632142857143
vt 0.188589642857143 0.46438321428571416
vn 0.5950150062853681 -0.3269519699730956 -0.7342067499185332
vn -0.3087279569213776 -0.2578941348516971 0.9155204333188021
vn 0.3087279569213776 0.2578941348516971 -0.9155204333188021
vn 0.13979206550558182 -0.740502533924268 0.6573539196455906
vn -0.13979206550558182 0.740502533924268 -0.6573539196455906
vn 0.6232279609944227 -0.7269975768113397 -0.28820380279443714
vn -0.6232279609944227 0.7269975768113397 0.28820380279443714
vn -0.5950150062853681 0.3269519699730956 0.7342067499185332
usemtl m_12471031-f55b-079a-b844-a4f954b61df9
f 25/17/5 26/18/5 17/19/5 19/20/5
f 22/21/6 21/22/6 20/23/6 18/24/6
f 20/25/7 21/26/7 22/27/7 18/28/7
f 24/29/8 23/30/8 21/31/8 22/32/8
f 21/33/9 23/34/9 24/35/9 22/36/9
f 26/37/10 25/38/10 23/39/10 24/40/10
f 23/41/11 25/42/11 26/43/11 24/44/11
f 17/45/12 26/46/12 25/47/12 19/48/12
o plane
v 1.1724289831673982 0.5163805339496552 1.684050789984313
v 1.88445647777651 0.4361377774409567 0.391820471136873
v 0.013273818734263976 -0.051836889268820574 1.080632804903532
v 0.7253013133433761 -0.13207964577751907 -0.21159751394390802
v 0.41516973459563583 0.4525461516429975 -0.16636177739512487
v 1.5692745235715115 1.0207635748614732 0.44675788867354316
v 0.00011867713867873275 0.8652231851163034 0.24234048582960027
v 1.159273841571813 1.4334406083347793 0.8457584709103813
v -0.10472179739610082 0.5488374594534355 0.7416664368741925
v 1.083292655364223 1.1170548826719113 1.2896462448813348
vt 0.6540959821428572 0.16167999999999993
vt 0.49123883928571427 0.16167999999999993
vt 0.49123883928571427 0
vt 0.6540959821428572 0
vt 0.4011383928571428 0.3823660714285714
vt 0.23828125 0.3823660714285714
vt 0.23828125 0.2297260714285715
vt 0.4011383928571428 0.2297260714285715
vt 0.23828125 0.2297260714285715
vt 0.23828125 0.3823660714285714
vt 0.4011383928571428 0.3823660714285714
vt 0.4011383928571428 0.2297260714285715
vt 0.8855133928571429 0.9419642857142857
vt 0.72265625 0.9419642857142857
vt 0.72265625 0.7703271428571429
vt 0.8855133928571429 0.7703271428571429
vt 0.72265625 0.7703271428571429
vt 0.72265625 0.9419642857142857
vt 0.8855133928571429 0.9419642857142857
vt 0.8855133928571429 0.7703271428571429
vt 0.33498883928571427 0.7990821428571429
vt 0.49784598214285725 0.7990821428571429
vt 0.49784598214285725 0.9441964285714286
vt 0.33498883928571427 0.9441964285714286
vt 0.4979575892857144 0.9441964285714286
vt 0.4979575892857144 0.7990821428571429
vt 0.33510044642857145 0.7990821428571429
vt 0.33510044642857145 0.9441964285714286
vt 0.49135044642857145 0
vt 0.49135044642857145 0.16167999999999993
vt 0.6542075892857143 0.16167999999999993
vt 0.6542075892857143 0
vn 0.5357753458001052 -0.40644557062771913 -0.7400991669701334
vn -0.35200343311500126 -0.2563838490754184 0.9002004804533966
vn 0.35200343311500126 0.2563838490754184 -0.9002004804533966
vn -0.01650017714707519 -0.7119098845550271 0.7020769618973146
vn 0.01650017714707519 0.7119098845550271 -0.7020769618973146
vn 0.5341387200713802 -0.7603194957872513 -0.3696080248673285
vn -0.5341387200713802 0.7603194957872513 0.3696080248673285
vn -0.5357753458001052 0.40644557062771913 0.7400991669701334
usemtl m_12471031-f55b-079a-b844-a4f954b61df9
f 35/49/13 36/50/13 27/51/13 29/52/13
f 32/53/14 31/54/14 30/55/14 28/56/14
f 30/57/15 31/58/15 32/59/15 28/60/15
f 34/61/16 33/62/16 31/63/16 32/64/16
f 31/65/17 33/66/17 34/67/17 32/68/17
f 36/69/18 35/70/18 33/71/18 34/72/18
f 33/73/19 35/74/19 36/75/19 34/76/19
f 27/77/20 36/78/20 35/79/20 29/80/20
o plane
v 1.1822696888588007 0.6788371846133926 1.601871897610972
v 1.7587004180552597 0.7320436203583994 0.42803176937178045
v -0.2956969235325916 -0.2831628153866076 0.8324911773844288
v 0.28073380566386724 -0.22995637964160076 -0.3413489508547627
v 0.018678015583249857 0.0883620828369166 -0.23595594413269372
v 1.4966446279746421 1.0503620828369167 0.5334247760938493
v -0.3535000138134368 0.3923369995652547 0.09891445831955539
v 1.1244665985779554 1.3543369995652548 0.8682951785460984
v -0.4008518263021526 0.15928956340686207 0.4812687645105055
v 1.0771147860892398 1.1212895634068623 1.2506494847370484
vt 0.5881892857142857 0.8337053571428572
vt 0.36830357142857145 0.8337053571428572
vt 0.36830357142857145 0.7023653571428572
vt 0.5881892857142857 0.7023653571428572
vt 0.23316696428571423 0.8004464285714286
vt 0.01328125 0.8004464285714286
vt 0.01328125 0.7031735714285714
vt 0.23316696428571423 0.7031735714285714
vt 0.01328125 0.7031735714285714
vt 0.01328125 0.8004464285714286
vt 0.23316696428571423 0.8004464285714286
vt 0.23316696428571423 0.7031735714285714
vt 0.23316696428571423 0.9328125
vt 0.01328125 0.9328125
vt 0.01328125 0.7989353571428571
vt 0.23316696428571423 0.7989353571428571
vt 0.01328125 0.7989353571428571
vt 0.01328125 0.9328125
vt 0.23316696428571423 0.9328125
vt 0.23316696428571423 0.7989353571428571
vt 0.36830357142857145 0.8307853571428572
vt 0.5881892857142857 0.8307853571428572
vt 0.5881892857142857 0.9337053571428572
vt 0.36830357142857145 0.9337053571428572
vt 0.5881892857142856 0.9337053571428572
vt 0.5881892857142856 0.8307853571428572
vt 0.36830357142857145 0.8307853571428572
vt 0.36830357142857145 0.9337053571428572
vt 0.36830357142857145 0.7023653571428572
vt 0.36830357142857145 0.8337053571428572
vt 0.5881892857142856 0.8337053571428572
vt 0.5881892857142856 0.7023653571428572
vn 0.613530152502449 -0.39635433303326933 -0.6829963357559643
vn -0.17528272132525696 -0.4364822850622087 0.882473332419561
vn 0.17528272132525696 0.4364822850622087 -0.882473332419561
vn 0.07833216282856693 -0.6932918428440125 0.7163871110737212
vn -0.07833216282856693 0.6932918428440125 -0.7163871110737212
vn 0.6315455826449221 -0.6943523736874814 -0.3449999394148441
vn -0.6315455826449221 0.6943523736874814 0.3449999394148441
vn -0.613530152502449 0.39635433303326933 0.6829963357559643
usemtl m_12471031-f55b-079a-b844-a4f954b61df9
f 45/81/21 46/82/21 37/83/21 39/84/21
f 42/85/22 41/86/22 40/87/22 38/88/22
f 40/89/23 41/90/23 42/91/23 38/92/23
f 44/93/24 43/94/24 41/95/24 42/96/24
f 41/97/25 43/98/25 44/99/25 42/100/25
f 46/101/26 45/102/26 43/103/26 44/104/26
f 43/105/27 45/106/27 46/107/27 44/108/27
f 37/109/28 46/110/28 45/111/28 39/112/28
o plane
v 1.8939051978499828 0.964173281374019 2.0100769073650384
v 2.5312526291238076 1.1685772708932425 0.665090047364714
v 0.5803830596181692 0.6812352296043748 1.344640200205205
v 1.217730490891994 0.8856392191235981 -0.0003466597951196082
v 0.7947302603740116 1.2881129854496505 0.6634956247930999
v 2.108252398605825 1.571051037219295 1.3289323319529336
vt 0.8801562499999998 0.2046874999999999
vt 0.7226562499999999 0.2046874999999999
vt 0.7226562499999999 0.0078125
vt 0.8801562499999998 0.0078125
vt 0.7226562499999999 0.20645625
vt 0.8801562499999998 0.20645625
vt 0.8801562499999998 0.3921875
vt 0.7226562499999999 0.3921875
vt 0.8801562499999998 0.3921875
vt 0.8801562499999998 0.20645625
vt 0.7226562499999999 0.20645625
vt 0.7226562499999999 0.3921875
vt 0.7226562499999999 0.0078125
vt 0.7226562499999999 0.2046874999999999
vt 0.8801562499999998 0.2046874999999999
vt 0.8801562499999998 0.0078125
vn 0.4245603480919591 -0.7382494856287307 -0.5241528477428595
vn -0.060346279824593646 -0.8701402804668615 0.48909530647960997
vn 0.060346279824593646 0.8701402804668615 -0.48909530647960997
vn -0.4245603480919591 0.7382494856287307 0.5241528477428595
usemtl m_12471031-f55b-079a-b844-a4f954b61df9
f 51/113/29 52/114/29 47/115/29 49/116/29
f 52/117/30 51/118/30 50/119/30 48/120/30
f 50/121/31 51/122/31 52/123/31 48/124/31
f 47/125/32 52/126/32 51/127/32 49/128/32