# Made in Blockbench 4.8.1
mtllib spruce_leaves_slab_diagonal_3.mtl

o plane
v 1.0263295128156895 0.12095897689671742 1.3539063194721255
v 1.8740044596690741 0.32800260271414916 0.13097438590356714
v -0.21136197687224367 0.23381366619571925 0.5151072043931396
v 0.636312969981141 0.440857292013151 -0.7078247291754189
v 0.22247413464186594 0.8497995401109566 -0.042163732502190854
v 1.4601656243297991 0.7369448508119547 0.7966353825767951
vt 0.33773437499999975 0.4512499999999998
vt 0.33773437499999964 0.13624999999999998
vt 0.23929687499999966 0.13624999999999998
vt 0.23929687499999966 0.4512499999999998
vt 0.3386187499999997 0.13624999999999998
vt 0.3386187499999998 0.4512499999999998
vt 0.43148437499999975 0.4512499999999998
vt 0.43148437499999975 0.13624999999999998
vt 0.43148437499999975 0.4512499999999998
vt 0.3386187499999998 0.4512499999999998
vt 0.3386187499999997 0.13624999999999998
vt 0.43148437499999975 0.13624999999999998
vt 0.23929687499999966 0.13624999999999998
vt 0.33773437499999964 0.13624999999999998
vt 0.33773437499999975 0.4512499999999998
vt 0.23929687499999966 0.4512499999999998
vn 0.32295895015518666 -0.7498483578024977 -0.5774296120009411
vn -0.31543884351407786 -0.8833865699767601 0.34659270619445487
vn 0.31543884351407786 0.8833865699767601 -0.34659270619445487
vn -0.32295895015518666 0.7498483578024977 0.5774296120009411
usemtl m_12471031-f55b-079a-b844-a4f954b61df9
f 5/1/1 6/2/1 1/3/1 3/4/1
f 6/5/2 5/6/2 4/7/2 2/8/2
f 4/9/3 5/10/3 6/11/3 2/12/3
f 1/13/4 6/14/4 5/15/4 3/16/4
o plane
v 0.3111224449298269 0.34078090605423006 0.52656367401691
v 0.8405491483478853 0.3381377408822074 -0.22198726238338656
v -0.2614302003947916 0.23674221685780716 0.12198243127069519
v 0.2679965030232669 0.2340990516857845 -0.6265685051296014
v 0.16648223150856606 0.5240046421182158 -0.5574578689447756
v 0.7390348768331845 0.6280433313146387 -0.15287662619856085
v -0.09764705361826476 0.78306909716917 -0.2502879325863179
v 0.47490559170635377 0.8871077863655928 0.1542933101598969
v -0.24128560685256167 0.5188054553657226 0.02094134086083349
v 0.3312670384720568 0.6228441445621455 0.4255225836070483
vt 0.8222395833333334 0.1293402777777778
vt 0.7434895833333334 0.1293402777777778
vt 0.7434895833333334 0.06260833333333338
vt 0.8222395833333334 0.06260833333333338
vt 0.3294270833333333 0.7960069444444444
vt 0.40817708333333336 0.7960069444444444
vt 0.40817708333333336 0.7260416666666667
vt 0.3294270833333333 0.7260416666666667
vt 0.40817708333333336 0.7260416666666667
vt 0.40817708333333336 0.7960069444444444
vt 0.3294270833333333 0.7960069444444444
vt 0.3294270833333333 0.7260416666666667
vt 0.3294270833333333 0.9071180555555556
vt 0.40817708333333336 0.9071180555555556
vt 0.40817708333333336 0.8002583333333333
vt 0.3294270833333333 0.8002583333333333
vt 0.40817708333333336 0.8002583333333333
vt 0.40817708333333336 0.9071180555555556
vt 0.3294270833333333 0.9071180555555556
vt 0.3294270833333333 0.8002583333333333
vt 0.7434895833333334 0.13655972222222224
vt 0.8222395833333334 0.13655972222222224
vt 0.8222395833333334 0.2265625
vt 0.7434895833333334 0.2265625
vt 0.8222395833333334 0.2265625
vt 0.8222395833333334 0.13655972222222224
vt 0.7434895833333334 0.13655972222222224
vt 0.7434895833333334 0.2265625
vt 0.7434895833333334 0.06260833333333338
vt 0.7434895833333334 0.1293402777777778
vt 0.8222395833333334 0.1293402777777778
vt 0.8222395833333334 0.06260833333333338
vn 0.5855794977838225 -0.3101115819455594 -0.7489509052791572
vn -0.4934006252394199 -0.3613794924312358 0.7911767725758209
vn 0.4934006252394199 0.3613794924312358 -0.7911767725758209
vn -0.21376797923011068 -0.8295813576531206 0.515846897916698
vn 0.21376797923011068 0.8295813576531206 -0.515846897916698
vn 0.47076903700485 -0.7434460501925882 -0.4750415605508277
vn -0.47076903700485 0.7434460501925882 0.4750415605508277
vn -0.5855794977838225 0.3101115819455594 0.7489509052791572
usemtl m_12471031-f55b-079a-b844-a4f954b61df9
f 15/17/5 16/18/5 7/19/5 9/20/5
f 12/21/6 11/22/6 10/23/6 8/24/6
f 10/25/7 11/26/7 12/27/7 8/28/7
f 14/29/8 13/30/8 11/31/8 12/32/8
f 11/33/9 13/34/9 14/35/9 12/36/9
f 16/37/10 15/38/10 13/39/10 14/40/10
f 13/41/11 15/42/11 16/43/11 14/44/11
f 7/45/12 16/46/12 15/47/12 9/48/12
o cube
v -0.15433151080928798 0.6931854295364843 0.2480880610726254
v -0.15433151080928798 0.6931854295364843 0.2480880610726254
v 0.523461900070831 0.5798526332595841 -0.4074437506918306
v 0.523461900070831 0.5798526332595841 -0.4074437506918306
v -0.6456179849060751 0.037699978936864886 -0.14655752487646054
v -0.6456179849060751 0.037699978936864886 -0.14655752487646054
v 0.03217542597404402 -0.0756328173400353 -0.8020893366409165
v 0.03217542597404402 -0.0756328173400353 -0.8020893366409165
vt 0.5915584355555558 0.49147393111111115
vt 0.4905286322222222 0.49147393111111115
vt 0.4905286322222222 0.2804247955555551
vt 0.5915584355555558 0.2804247955555551
vt 0.5915584355555558 0.2804247955555551
vt 0.4905286322222222 0.2804247955555551
vt 0.4905286322222222 0.49147393111111115
vt 0.5915584355555558 0.49147393111111115
vn 0.44579321139598055 -0.68269497852183 0.5789611204341244
vn -0.44579321139598055 0.68269497852183 -0.5789611204341244
usemtl m_12471031-f55b-079a-b844-a4f954b61df9
f 19/49/13 17/50/13 21/51/13 23/52/13
f 24/53/14 22/54/14 18/55/14 20/56/14
o plane
v -0.10289611851037062 0.24461344187312717 0.4156614877928885
v 0.5502782007511906 0.13636026640007226 -0.5024314043793557
v -0.9726469802213349 -0.3491365581268727 -0.1331104375577395
v -0.31947266095977367 -0.45738973359992763 -1.0512033297299839
v -0.5523238821140332 -0.08932893699154132 -1.0803840275702208
v 0.31742697959693117 0.5044210630084586 -0.5316121022195929
v -0.9367787593012951 0.19212931923840143 -0.775586873489853
v -0.06702789759033079 0.7858793192384013 -0.22681494813922498
v -1.0244065303755374 -0.056852984349624824 -0.3673160385453126
v -0.15465566866457311 0.5368970156503751 0.18145588680531544
vt 0.2508680555555556 0.8185763888888888
vt 0.1189236111111111 0.8185763888888888
vt 0.1189236111111111 0.7345527777777778
vt 0.2508680555555556 0.7345527777777778
vt 0.75 0.7973090277777778
vt 0.8819444444444444 0.7973090277777778
vt 0.8819444444444444 0.7102340277777777
vt 0.75 0.7102340277777777
vt 0.8819444444444444 0.7102340277777777
vt 0.8819444444444444 0.7973090277777778
vt 0.75 0.7973090277777778
vt 0.75 0.7102340277777777
vt 0.75 0.9240451388888888
vt 0.8819444444444444 0.9240451388888888
vt 0.8819444444444444 0.7940673611111111
vt 0.75 0.7940673611111111
vt 0.8819444444444444 0.7940673611111111
vt 0.8819444444444444 0.9240451388888888
vt 0.75 0.9240451388888888
vt 0.75 0.7940673611111111
vt 0.1189236111111111 0.8233861111111112
vt 0.2508680555555556 0.8233861111111112
vt 0.2508680555555556 0.9314236111111112
vt 0.1189236111111111 0.9314236111111112
vt 0.2508680555555556 0.9314236111111112
vt 0.2508680555555556 0.8233861111111112
vt 0.1189236111111111 0.8233861111111112
vt 0.1189236111111111 0.9314236111111112
vt 0.1189236111111111 0.7423652777777778
vt 0.1189236111111111 0.8263888888888888
vt 0.2508680555555556 0.8263888888888888
vt 0.2508680555555556 0.7423652777777778
vn 0.6669472284437307 -0.3904185343719482 -0.6346296262309902
vn -0.4230841744383488 -0.19755269657676172 0.884292210423156
vn 0.4230841744383488 0.19755269657676172 -0.884292210423156
vn 0.03947889383531395 -0.7087904072950687 0.7043135491157547
vn -0.03947889383531395 0.7087904072950687 -0.7043135491157547
vn 0.656559805374804 -0.6983672121497259 -0.2849779973268453
vn -0.656559805374804 0.6983672121497259 0.2849779973268453
vn -0.6669472284437307 0.3904185343719482 0.6346296262309902
usemtl m_12471031-f55b-079a-b844-a4f954b61df9
f 33/57/15 34/58/15 25/59/15 27/60/15
f 30/61/16 29/62/16 28/63/16 26/64/16
f 28/65/17 29/66/17 30/67/17 26/68/17
f 32/69/18 31/70/18 29/71/18 30/72/18
f 29/73/19 31/74/19 32/75/19 30/76/19
f 34/77/20 33/78/20 31/79/20 32/80/20
f 31/81/21 33/82/21 34/83/21 32/84/21
f 25/85/22 34/86/22 33/87/22 27/88/22