# Made in Blockbench 4.12.2
mtllib thin_branch_22.5_diagonal_parent.mtl

o cube_selection
v 0.34375 1 0.65625
v 0.65625 1.125 0.65625
v 0.34375 1 0.34375
v 1.6557128906250003 -1 1.3445312499999997
v 1.6557128906250003 -0.875 1.6558593749999997
v 1.6557128906250003 -1 1.6554687499999998
v 1.3445312500000002 -1 1.6554687499999998
v 1.3445312500000002 -1 1.3445312499999997
v 0.65625 1 0.34375
vt 0.5416666666666666 0.13781041666666738
vt 0.5416666666666666 0.25000000000000056
vt 0.4375 0.13781041666666738
vt 0.95781200198536 0.16634516591932547
vt 0.8541666666666664 0.20833333333333248
vt 0.8541666666666664 0.16666646645881344
vt 0.9370604166666657 0.2505208333333343
vt 0.9370604166666657 0.3541666666666675
vt 0.8333333333333325 0.3541666666666675
vt 0.8333333333333325 0.2505208333333343
vt 0.4995604166666657 0.7291666666666667
vt 0.4995604166666657 0.7708333333333335
vt 0.39583333333333237 0.7291666666666667
vt 0.5416666666666666 0.25000000000000056
vt 0.5416666666666666 0.13781041666666738
vt 0.4375 0.13781041666666738
vt 0.9507557852018439 0.7081697615282289
vt 0.9082545292672203 0.803271484375
vt 0.09172432881480085 0.8032714843749997
vt 0.1340462294493803 0.708571090798642
vt 0.07091264726318662 0.2595612444545029
vt 0.8874095617039326 0.25908584032278237
vt 0.9299575452778787 0.3541666666666655
vt 0.1132478909192628 0.35416666666666663
vt 0.8788703995661217 0.375
vt 0.8874088019365857 0.2631366462103376
vt 0.07091169703457319 0.26313664621033717
vt 0.0625 0.37460249201500473
vt 0.9081957751256522 0.8047970389724232
vt 0.8997036350565103 0.9166666666666675
vt 0.08333333333333377 0.9166666666666674
vt 0.09166468942219612 0.8051480655985372
vn -0.3713906763541037 0.9284766908852593 0
vn 1 0 0
vn 0 -1 0
vn 0 -0.0031249847413216294 0.9999951172232625
vn 0 0.9284766908852593 -0.3713906763541037
vn 0 -0.4474930384873466 -0.8942874149317781
vn -0.8942874149317781 -0.44749303848734695 0
vn -0.15194181153938993 0.3798545288484748 0.9124824506912075
vn 0.9124152883994355 0.37999358149635504 -0.15199743259854198
usemtl m_489b31f7-9d06-af78-3f61-239a1aab47f8
f 1/1/1 2/2/1 3/3/1
f 4/4/2 5/5/2 6/6/2
f 4/7/3 6/8/3 7/9/3 8/10/3
f 6/11/4 5/12/4 7/13/4
f 2/14/5 9/15/5 3/16/5
f 3/17/6 9/18/6 4/19/6 8/20/6
f 7/21/7 1/22/7 3/23/7 8/24/7
f 2/25/8 1/26/8 7/27/8 5/28/8
f 9/29/9 2/30/9 5/31/9 4/32/9