# Made in Blockbench 4.12.2
mtllib thin_trunk_horizontal_parent.mtl

o cube_selection_selection
v 0.345983821980679 0.00017262131665721255 -0.6554687516246429
v 0.3458617502276131 0.0001726227572236784 -0.5187500016259292
v 0.5000000107683776 0.15418881291728193 -0.5219866052602053
v 0.6541888358605019 -1.2174843383053827e-8 -0.6554687483753567
v 0.6543109047324361 -1.0734276944951019e-8 -0.5187499983740704
v 0.5001726442598782 -0.15401620096254118 -0.5219866020109183
v 0.6552246299030213 -5.26835693258151e-9 0.6554687499999997
v 0.6553467002155211 -5.268356788008999e-9 0.5187499999999996
v 0.5000000052683555 0.15522461936630902 0.5219866036355616
v 0.34477538063369023 -5.268356981381446e-9 0.6554687499999998
v 0.34465331032119007 -5.268356795148467e-9 0.5187499999999996
v 0.5000000052683555 -0.15522462990302222 0.5219866036355616
vt 0.5260169176412468 0.9145125543049986
vt 0.4804493822198117 0.9138122335761856
vt 0.4826903765373514 0.8412068477840058
vt 0.5259135416666658 0.7703125000000002
vt 0.48033854166666573 0.7703125000000002
vt 0.4814635416666658 0.6976791666666669
vt 0.48143098958333247 0.8423990885416657
vt 0.4803059895833324 0.7696845052083323
vt 0.5258809895833325 0.7696845052083323
vt 0.48159375000000054 0.9861653645833326
vt 0.4804687500000006 0.9134528645833325
vt 0.5260416666666673 0.9134528645833325
vt 0.40559267269100724 0.23437500000000033
vt 0.35416666666666746 0.16641565038281003
vt 0.4569000289187521 0.16641565038281003
vt 0.873568778918166 0.2658691406250001
vt 0.7708333333333344 0.2658691406250001
vt 0.8221427739278645 0.19790979022533517
vt 0.08849380550241266 0.7684978342449512
vt 0.13406126885042105 0.7692028289505045
vt 0.13180399665947484 0.8423787495227545
vt 0.08487955729166614 0.9134536458333334
vt 0.13045247395833282 0.9134536458333334
vt 0.1293274739583329 0.9866536458333334
vt 0.1304709555047847 0.8407846277514658
vt 0.1304709555047847 0.9139932722205447
vt 0.08490342008334954 0.9132929514917317
vt 0.13245247395833418 0.6976312499999997
vt 0.13357747395833422 0.770833333333333
vt 0.08800455729166756 0.770833333333333
vt 0.9267416666666671 0.8229166666666677
vt 0.8750000000000004 0.754675000000001
vt 0.9784833333333337 0.754675000000001
vt 0.5618166666666671 0.19062500000000027
vt 0.4583333333333339 0.19062500000000027
vt 0.5100750000000005 0.12238333333333351
vt 0.47948792129822176 0.7696333147671109
vt 0.48051235295893263 0.8423494490598107
vt 0.13252242842605347 0.8423357247030089
vt 0.13365494669517972 0.7691351966524272
vt 0.4806698658359761 0.841249587357627
vt 0.4795536033069762 0.9138810692445564
vt 0.1337202941024037 0.9140336818962984
vt 0.13267810555265366 0.8408318120599297
vt 0.1337718126891251 0.9134497180831128
vt 0.47960723890016194 0.9134497180831129
vt 0.48073598924802446 0.9861624852765707
vt 0.13274628091842255 0.9866536458333334
vt 0.13355276301644306 0.7708333333333321
vt 0.13240559895833273 0.69763094995575
vt 0.4803956504816505 0.69763094995575
vt 0.47938562764402354 0.7702639544908173
vn -0.7068331074159517 0.7073800675403875 -0.0006311158899279771
vn 0.706833107429251 -0.7073800675536872 -0.0006310860876130999
vn 0.7068334136239177 0.7073797615821006 -0.000631101267918457
vn -0.7068334136106168 -0.7073797615954014 -0.0006311012563985243
vn 0.0003667361984844405 0.6547250949596892 -0.7558669959289046
vn -0.0003667202697802843 -0.6547251108883991 -0.7558669821393296
vn 0.7068352364855309 0.7073779401222421 0.0006311028897188236
vn -0.7068352364855303 -0.7073779401222426 0.0006311028897191199
vn -0.7068352364855313 0.7073779401222416 0.0006311028897209149
vn 0.7068352364855299 -0.707377940122243 0.0006311028897172182
vn 2.1835320371905713e-16 0.6520082949188107 0.7582118327730486
vn 3.73640414424303e-16 -0.6520082949188124 0.758211832773047
vn 0.7068341227538735 0.7073789863497003 -0.0007018416010301174
vn -0.7068338547812656 0.7073792503838053 -0.0007055930147960578
vn -0.706836493908249 -0.707376339304429 -0.0009409950899482981
vn 0.7068213053939941 -0.7073917935060392 -0.0007019411937184312
usemtl m_0bbd3021-a703-3e78-1575-07e1dc882ae4
f 1/1/1 2/2/1 3/3/1
f 4/4/2 5/5/2 6/6/2
f 3/7/3 5/8/3 4/9/3
f 6/10/4 2/11/4 1/12/4
f 3/13/5 4/14/5 1/15/5
f 1/16/6 4/17/6 6/18/6
f 7/19/7 8/20/7 9/21/7
f 10/22/8 11/23/8 12/24/8
f 9/25/9 11/26/9 10/27/9
f 12/28/10 8/29/10 7/30/10
f 9/31/11 10/32/11 7/33/11
f 7/34/12 10/35/12 12/36/12
f 5/37/13 3/38/13 9/39/13 8/40/13
f 3/41/14 2/42/14 11/43/14 9/44/14
f 11/45/15 2/46/15 6/47/15 12/48/15
f 8/49/16 12/50/16 6/51/16 5/52/16