# Made in Blockbench 4.12.2
mtllib thin_branch_45_straight_parent.mtl

o cube
v 0.65546875 0 0.34453125
v 0.65546875 0.125 0.655859375
v 0.65546875 0 0.65546875
v 0.34453125 0 0.34453125
v 0.34453125 0.125 0.655859375
v 0.3453125 0.25 0.53125
v 0.6546875 0.25 0.53125
v 0.65625 1 -0.65625
v 0.65625 1.125 -0.34375
v 0.34375 1.125 -0.34375
v 0.34375 1 -0.65625
v 0.34453125 0 0.65546875
vt 0.43697865245760226 0.6663399771931879
vt 0.33333333333333287 0.7083333333333333
vt 0.33333333333333287 0.6666664599484295
vt 0.2326899572323754 0.35269588479449376
vt 0.18893244465096612 0.24978209638679816
vt 0.24776674601812007 0.24978209638679816
vt 0.5802083333333333 0.8955729166666667
vt 0.63904375 0.8958333333333334
vt 0.63904375 0.7921875000000002
vt 0.5802083333333333 0.7924479166666667
vt 0.5965886638366084 0.14688041891339176
vt 0.5523941217292644 0.2500000000000009
vt 0.13991369289535352 0.2500000000000008
vt 0.1250000000000011 0.1470628770651139
vt 0.24787120207467103 0.2500182211526475
vt 0.6603501577668237 0.2500182211526475
vt 0.704544331590983 0.35313796007568554
vt 0.23295566840901735 0.35295381768475165
vt 0.8541666666666666 0.8253083333333336
vt 0.75 0.8253083333333336
vt 0.75 0.9375000000000002
vt 0.8541666666666666 0.9375000000000002
vt 0.5791458333333335 0.7921874999999999
vt 0.16666666666666674 0.7916666666666666
vt 0.16666666666666674 0.8958333333333334
vt 0.5791458333333335 0.8953125000000001
vt 0.6837109982576483 0.7291666666666667
vt 0.6837109982576483 0.8333333333333334
vt 0.21212349825764823 0.8330729166666667
vt 0.21212349825764823 0.7294270833333334
vt 0.9786458333333323 0.16718750000000104
vt 0.9786458333333323 0.27083333333333426
vt 0.8749999999999991 0.27083333333333426
vt 0.8749999999999991 0.16718750000000104
vt 0.8536458333333323 0.750000000000001
vt 0.8536458333333323 0.7916666666666676
vt 0.7499999999999991 0.7916666666666676
vt 0.7499999999999991 0.750000000000001
vt 0.45781249999999907 0.375
vt 0.45794374999999904 0.41666666666666663
vt 0.3541666666666657 0.375
vt 0.13929254480344225 0.2499318494573427
vt 0.08045971426823224 0.2499318494573427
vt 0.12421317512502572 0.14701843918144342
vn 1 0 0
vn -0.9999884330110231 0.004463434033993037 -0.0017920939659696008
vn 0 0.7059993332898469 0.708212497344047
vn 0.9999990563840928 -0.0012755090004899325 0.000510203600195973
vn -0.9999990563840928 -0.0012755090004899325 0.000510203600195973
vn 0 0.9284766908852593 -0.3713906763541037
vn 0 0.7071067811865476 0.7071067811865476
vn 0 -0.7073828329922602 -0.7068306215691593
vn 0 -1 0
vn 0 -0.0031249847413225176 0.9999951172232625
vn -1 0 0
vn 0.9999884330110231 0.004463434033993354 -0.001792093965969728
usemtl m_b823b2e6-72a8-2bf8-ec20-688e85ddca65
f 1/1/1 2/2/1 3/3/1
f 4/4/2 5/5/2 6/6/2
f 6/7/3 5/8/3 2/9/3 7/10/3
f 8/11/4 9/12/4 7/13/4 1/14/4
f 6/15/5 10/16/5 11/17/5 4/18/5
f 10/19/6 9/20/6 8/21/6 11/22/6
f 7/23/7 9/24/7 10/25/7 6/26/7
f 11/27/8 8/28/8 1/29/8 4/30/8
f 1/31/9 3/32/9 12/33/9 4/34/9
f 3/35/10 2/36/10 5/37/10 12/38/10
f 12/39/11 5/40/11 4/41/11
f 7/42/12 2/43/12 1/44/12