# Made in Blockbench 4.12.3
mtllib trunk_vertical_parent_2.mtl

o cube
v 0.21875000000000006 1 0.21923828124999994
v 0.78125 1 0.21923828125000006
v 0.78125 0 0.21923828125000006
v 0.21875000000000006 0 0.21923828124999994
v 0.78125 0 0.78076171875
v 0.78125 1 0.78076171875
v 0.21874999999999994 1 0.78076171875
v 0.21874999999999994 0 0.78076171875
vt 0.9791666666666672 0.7500000000000002
vt 0.9791666666666672 0.9375000000000001
vt 0.6458333333333335 0.9375000000000001
vt 0.6458333333333335 0.7500000000000002
vt 0.31249999999999994 0.1875
vt 0.6458333333333335 0.1875
vt 0.6458333333333335 0.375
vt 0.31249999999999994 0.375
vt 0.041666666666666664 0.75
vt 0.2288416666666667 0.75
vt 0.2288416666666667 0.9375
vt 0.041666666666666664 0.9375
vt 0.8955083333333332 0.1875
vt 0.8955083333333332 0.375
vt 0.7083333333333333 0.375
vt 0.7083333333333333 0.1875
vt 0.3125 0.750325
vt 0.6458333333333337 0.750325
vt 0.6458333333333337 0.9375
vt 0.3125 0.9375
vt 0.9791666666666665 0.18782500000000002
vt 0.9791666666666665 0.3750000000000001
vt 0.6458333333333337 0.3750000000000001
vt 0.6458333333333337 0.18782500000000002
vn 2.220446049250313e-16 0 -1
vn -2.220446049250313e-16 0 1
vn 0 1 0
vn 0 -1 0
vn 1 0 2.220446049250313e-16
vn -1 0 -2.220446049250313e-16
usemtl m_ec5c35da-efa7-3432-ccfe-bf13ffa2ea44
f 1/1/1 2/2/1 3/3/1 4/4/1
f 5/5/2 6/6/2 7/7/2 8/8/2
f 6/9/3 2/10/3 1/11/3 7/12/3
f 4/13/4 3/14/4 5/15/4 8/16/4
f 3/17/5 2/18/5 6/19/5 5/20/5
f 7/21/6 1/22/6 4/23/6 8/24/6