# Made in Blockbench 4.11.2
mtllib vines_block.mtl

o cube
v 1 1 1
v 1 1 0
v 1 0 1
v 1 0 0
v 0 1 0
v 0 1 1
v 0 0 0
v 0 0 1
vt 0.75 0.5234375
vt 1 0.5234375
vt 1 0.2734375
vt 0.75 0.2734375
vt 0.75 0.5234375
vt 1 0.5234375
vt 1 0.2734375
vt 0.75 0.2734375
vt 0.75 0.5234375
vt 1 0.5234375
vt 1 0.2734375
vt 0.75 0.2734375
vt 0.75 0.5234375
vt 1 0.5234375
vt 1 0.2734375
vt 0.75 0.2734375
vt 0.75 0.5234375
vt 1 0.5234375
vt 1 0.2734375
vt 0.75 0.2734375
vt 0.75 0.5234375
vt 1 0.5234375
vt 1 0.2734375
vt 0.75 0.2734375
vn 0 0 -1
vn 1 0 0
vn 0 0 1
vn -1 0 0
vn 0 1 0
vn 0 -1 0
usemtl m_497511e3-4ab9-c85e-88be-5ae10c6aca5a
f 4/4/1 7/3/1 5/2/1 2/1/1
f 3/8/2 4/7/2 2/6/2 1/5/2
f 8/12/3 3/11/3 1/10/3 6/9/3
f 7/16/4 8/15/4 6/14/4 5/13/4
f 6/20/5 1/19/5 2/18/5 5/17/5
f 7/24/6 4/23/6 3/22/6 8/21/6
o cube
v 1.1351145274809102 1.0055625018935888 0.013595178626090082
v 1.1351145274809102 1.0055625018935888 0.013595178626090082
v 1.15932644749109 0.6593159143938019 -0.2527379465652255
v 1.15932644749109 0.6593159143938019 -0.2527379465652255
v -0.11184053534387006 0.9183669097134323 0.013595178626090026
v -0.11184053534387006 0.9183669097134323 0.013595178626090026
v -0.08762861533369026 0.5721203222136453 -0.2527379465652255
v -0.08762861533369026 0.5721203222136453 -0.2527379465652255
vt 0.5125000000000002 0.25
vt 0.5125000000000002 0.5625
vt 0.4031250000000002 0.5625
vt 0.4031250000000002 0.25
vt 0.5125000000000002 0.5625
vt 0.5125000000000002 0.25
vt 0.4031250000000002 0.25
vt 0.4031250000000002 0.5625
vn -0.04246505063908305 0.6072785167638985 -0.7933533402912347
vn 0.04246505063908305 -0.6072785167638985 0.7933533402912347
usemtl m_497511e3-4ab9-c85e-88be-5ae10c6aca5a
f 12/28/7 15/27/7 13/26/7 10/25/7
f 16/32/8 11/31/8 9/30/8 14/29/8
o cube
v 1.1511518996827907 0.6214782195481543 0.013595178626090013
v 1.1511518996827907 0.6214782195481543 0.013595178626090013
v 1.1058472912982333 0.27735555408575124 -0.2527379465652254
v 1.1058472912982333 0.27735555408575124 -0.2527379465652254
v -0.08815417703447226 0.7846359598232189 0.013595178626090013
v -0.08815417703447226 0.7846359598232189 0.013595178626090013
v -0.13345878541902956 0.44051329436081577 -0.2527379465652254
v -0.13345878541902956 0.44051329436081577 -0.2527379465652254
vt 0.5359375000000002 0.2578125
vt 0.5359375000000002 0.5703125
vt 0.6453125000000002 0.5703125
vt 0.6453125000000002 0.2578125
vt 0.5359375000000002 0.5703125
vt 0.5359375000000002 0.2578125
vt 0.6453125000000002 0.2578125
vt 0.6453125000000002 0.5703125
vn 0.07945931129894562 0.6035533905932742 -0.793353340291235
vn -0.07945931129894562 -0.6035533905932742 0.793353340291235
usemtl m_497511e3-4ab9-c85e-88be-5ae10c6aca5a
f 20/36/9 23/35/9 21/34/9 18/33/9
f 24/40/10 19/39/10 17/38/10 22/37/10
o cube
v 1.1494087442921943 0.29982652725902287 0.013595178626089957
v 1.1494087442921943 0.29982652725902287 0.013595178626089957
v 1.1221762130607313 -0.04619559005221846 -0.2527379465652256
v 1.1221762130607313 -0.04619559005221846 -0.2527379465652256
v -0.09673792287421545 0.3979003969188293 0.013595178626090124
v -0.09673792287421545 0.3979003969188293 0.013595178626090124
v -0.12397045410567864 0.05187827960758801 -0.2527379465652254
v -0.12397045410567864 0.05187827960758801 -0.2527379465652254
vt 0.5984375000000002 0.7109375
vt 0.9109375000000002 0.7109375
vt 0.9109375000000002 0.6015625
vt 0.5984375000000002 0.6015625
vt 0.9109375000000002 0.7109375
vt 0.5984375000000002 0.7109375
vt 0.5984375000000002 0.6015625
vt 0.9109375000000002 0.6015625
vn 0.047762871234014966 0.6068848206869432 -0.7933533402912347
vn -0.047762871234014966 -0.6068848206869432 0.7933533402912347
usemtl m_497511e3-4ab9-c85e-88be-5ae10c6aca5a
f 28/44/11 31/43/11 29/42/11 26/41/11
f 32/48/12 27/47/12 25/46/12 30/45/12
o cube
v 1.1052277691950545 0.6247218771620595 0.01359517862609004
v 1.1052277691950545 0.6247218771620595 0.01359517862609004
v 1.1833064999800658 0.2865257384720551 -0.2527379465652256
v 1.1833064999800658 0.2865257384720551 -0.2527379465652256
v -0.11273481178648947 0.3435330592322286 0.013595178626090235
v -0.11273481178648947 0.3435330592322286 0.013595178626090235
v -0.03465608100147821 0.005336920542224122 -0.2527379465652254
v -0.03465608100147821 0.005336920542224122 -0.2527379465652254
vt 0.17656250000000018 0.6875
vt 0.17656250000000018 1
vt 0.06718750000000018 1
vt 0.06718750000000018 0.6875
vt 0.17656250000000018 1
vt 0.17656250000000018 0.6875
vt 0.06718750000000018 0.6875
vt 0.06718750000000018 1
vn -0.13694152529938974 0.5931589130219803 -0.7933533402912345
vn 0.13694152529938974 -0.5931589130219803 0.7933533402912345
usemtl m_497511e3-4ab9-c85e-88be-5ae10c6aca5a
f 36/52/13 39/51/13 37/50/13 34/49/13
f 40/56/14 35/55/14 33/54/14 38/53/14
o cube
v 1.1351145274809102 1.0055625018935888 0.9864048213739098
v 1.1351145274809102 1.0055625018935888 0.9864048213739098
v 1.15932644749109 0.6593159143938019 1.2527379465652253
v 1.15932644749109 0.6593159143938019 1.2527379465652253
v -0.11184053534387006 0.9183669097134323 0.9864048213739098
v -0.11184053534387006 0.9183669097134323 0.9864048213739098
v -0.08762861533369026 0.5721203222136453 1.2527379465652255
v -0.08762861533369026 0.5721203222136453 1.2527379465652255
vt 0.5125000000000002 0.25
vt 0.5125000000000002 0.5625
vt 0.4031250000000002 0.5625
vt 0.4031250000000002 0.25
vt 0.5125000000000002 0.5625
vt 0.5125000000000002 0.25
vt 0.4031250000000002 0.25
vt 0.4031250000000002 0.5625
vn 0.04246505063908305 -0.6072785167638985 -0.7933533402912347
vn -0.04246505063908305 0.6072785167638985 0.7933533402912347
usemtl m_497511e3-4ab9-c85e-88be-5ae10c6aca5a
f 44/60/15 47/59/15 45/58/15 42/57/15
f 48/64/16 43/63/16 41/62/16 46/61/16
o cube
v 1.1511518996827907 0.6214782195481543 0.9864048213739098
v 1.1511518996827907 0.6214782195481543 0.9864048213739098
v 1.1058472912982333 0.27735555408575124 1.2527379465652253
v 1.1058472912982333 0.27735555408575124 1.2527379465652253
v -0.08815417703447226 0.7846359598232189 0.9864048213739098
v -0.08815417703447226 0.7846359598232189 0.9864048213739098
v -0.13345878541902956 0.44051329436081577 1.2527379465652253
v -0.13345878541902956 0.44051329436081577 1.2527379465652253
vt 0.5359375000000002 0.2578125
vt 0.5359375000000002 0.5703125
vt 0.6453125000000002 0.5703125
vt 0.6453125000000002 0.2578125
vt 0.5359375000000002 0.5703125
vt 0.5359375000000002 0.2578125
vt 0.6453125000000002 0.2578125
vt 0.6453125000000002 0.5703125
vn -0.07945931129894562 -0.6035533905932742 -0.793353340291235
vn 0.07945931129894562 0.6035533905932742 0.793353340291235
usemtl m_497511e3-4ab9-c85e-88be-5ae10c6aca5a
f 52/68/17 55/67/17 53/66/17 50/65/17
f 56/72/18 51/71/18 49/70/18 54/69/18
o cube
v 1.1494087442921943 0.29982652725902287 0.98640482137391
v 1.1494087442921943 0.29982652725902287 0.98640482137391
v 1.1221762130607313 -0.04619559005221846 1.2527379465652255
v 1.1221762130607313 -0.04619559005221846 1.2527379465652255
v -0.09673792287421545 0.3979003969188293 0.9864048213739097
v -0.09673792287421545 0.3979003969188293 0.9864048213739097
v -0.12397045410567864 0.05187827960758801 1.2527379465652253
v -0.12397045410567864 0.05187827960758801 1.2527379465652253
vt 0.5984375000000002 0.7109375
vt 0.9109375000000002 0.7109375
vt 0.9109375000000002 0.6015625
vt 0.5984375000000002 0.6015625
vt 0.9109375000000002 0.7109375
vt 0.5984375000000002 0.7109375
vt 0.5984375000000002 0.6015625
vt 0.9109375000000002 0.6015625
vn -0.047762871234014966 -0.6068848206869432 -0.7933533402912347
vn 0.047762871234014966 0.6068848206869432 0.7933533402912347
usemtl m_497511e3-4ab9-c85e-88be-5ae10c6aca5a
f 60/76/19 63/75/19 61/74/19 58/73/19
f 64/80/20 59/79/20 57/78/20 62/77/20
o cube
v 1.1052277691950545 0.6247218771620595 0.9864048213739098
v 1.1052277691950545 0.6247218771620595 0.9864048213739098
v 1.1833064999800658 0.2865257384720551 1.2527379465652255
v 1.1833064999800658 0.2865257384720551 1.2527379465652255
v -0.11273481178648947 0.3435330592322286 0.9864048213739096
v -0.11273481178648947 0.3435330592322286 0.9864048213739096
v -0.03465608100147821 0.005336920542224122 1.2527379465652253
v -0.03465608100147821 0.005336920542224122 1.2527379465652253
vt 0.17656250000000018 0.6875
vt 0.17656250000000018 1
vt 0.06718750000000018 1
vt 0.06718750000000018 0.6875
vt 0.17656250000000018 1
vt 0.17656250000000018 0.6875
vt 0.06718750000000018 0.6875
vt 0.06718750000000018 1
vn 0.13694152529938974 -0.5931589130219803 -0.7933533402912345
vn -0.13694152529938974 0.5931589130219803 0.7933533402912345
usemtl m_497511e3-4ab9-c85e-88be-5ae10c6aca5a
f 68/84/21 71/83/21 69/82/21 66/81/21
f 72/88/22 67/87/22 65/86/22 70/85/22
o cube
v 0.039950471244914146 0.9965531629609103 1.1333126596943743
v -0.013130842053939731 0.9273762486461108 -0.11364240313040586
v -0.22573387983929147 0.6503065754611232 1.1638311169574294
v -0.2788151931381453 0.5811296611463239 -0.08312394586735095
v -0.013130842053939731 0.9273762486461108 -0.11364240313040586
v 0.039950471244914146 0.9965531629609103 1.1333126596943743
v -0.2788151931381453 0.5811296611463239 -0.08312394586735095
v -0.22573387983929147 0.6503065754611232 1.1638311169574294
vt 0.5125000000000002 0.25
vt 0.5125000000000002 0.5625
vt 0.4031250000000002 0.5625
vt 0.4031250000000002 0.25
vt 0.5125000000000002 0.5625
vt 0.5125000000000002 0.25
vt 0.4031250000000002 0.25
vt 0.4031250000000002 0.5625
vn 0.7933533402912347 -0.6087614290087214 -4.163336342344338e-17
vn -0.7933533402912347 0.6087614290087214 4.163336342344338e-17
usemtl m_497511e3-4ab9-c85e-88be-5ae10c6aca5a
f 75/92/23 76/91/23 74/90/23 73/89/23
f 79/96/24 80/95/24 78/94/24 77/93/24
o cube
v -0.03671789573768187 0.6383362205648905 1.154523499886138
v 0.06260624338600015 0.7677779588064827 -0.084782576831125
v -0.30077250412223927 0.2942135551024874 1.0974182907898653
v -0.20144836499855723 0.4236552933440796 -0.1418877859273976
v 0.06260624338600015 0.7677779588064827 -0.084782576831125
v -0.03671789573768187 0.6383362205648905 1.154523499886138
v -0.20144836499855723 0.4236552933440796 -0.1418877859273976
v -0.30077250412223927 0.2942135551024874 1.0974182907898653
vt 0.5359375000000002 0.2578125
vt 0.5359375000000002 0.5703125
vt 0.6453125000000002 0.5703125
vt 0.6453125000000002 0.2578125
vt 0.5359375000000002 0.5703125
vt 0.5359375000000002 0.2578125
vt 0.6453125000000002 0.2578125
vt 0.6453125000000002 0.5703125
vn 0.793353340291235 -0.608761429008721 1.387778780781446e-17
vn -0.793353340291235 0.608761429008721 -1.387778780781446e-17
usemtl m_497511e3-4ab9-c85e-88be-5ae10c6aca5a
f 83/100/25 84/99/25 82/98/25 81/97/25
f 87/104/26 88/103/26 86/102/26 85/101/26
o cube
v -0.01649119193539171 0.3099598460439788 1.1514354080491855
v 0.04321239710712728 0.38776707813387334 -0.09471125911722433
v -0.28200330098592935 -0.03606227126726247 1.1171095536682534
v -0.22229971194341036 0.04174496082263204 -0.1290371134981565
v 0.04321239710712728 0.38776707813387334 -0.09471125911722433
v -0.01649119193539171 0.3099598460439788 1.1514354080491855
v -0.22229971194341036 0.04174496082263204 -0.1290371134981565
v -0.28200330098592935 -0.03606227126726247 1.1171095536682534
vt 0.5984375000000002 0.7109375
vt 0.9109375000000002 0.7109375
vt 0.9109375000000002 0.6015625
vt 0.5984375000000002 0.6015625
vt 0.9109375000000002 0.7109375
vt 0.5984375000000002 0.7109375
vt 0.5984375000000002 0.6015625
vt 0.9109375000000002 0.6015625
vn 0.7933533402912347 -0.6087614290087212 1.5265566588595902e-16
vn -0.7933533402912347 0.6087614290087212 -1.5265566588595902e-16
usemtl m_497511e3-4ab9-c85e-88be-5ae10c6aca5a
f 91/108/27 92/107/27 90/106/27 89/105/27
f 95/112/28 96/111/28 94/110/28 93/109/28
o cube
v 0.09723331743986596 0.5956685121757317 1.0994170961977887
v -0.07394358918437095 0.3725864242185565 -0.11854548478375515
v -0.16227370700725044 0.2574723734857272 1.1978331824732296
v -0.3334506136314873 0.034390285528552 -0.0201293985083143
v -0.07394358918437095 0.3725864242185565 -0.11854548478375515
v 0.09723331743986596 0.5956685121757317 1.0994170961977887
v -0.3334506136314873 0.034390285528552 -0.0201293985083143
v -0.16227370700725044 0.2574723734857272 1.1978331824732296
vt 0.17656250000000018 0.6875
vt 0.17656250000000018 1
vt 0.06718750000000018 1
vt 0.06718750000000018 0.6875
vt 0.17656250000000018 1
vt 0.17656250000000018 0.6875
vt 0.06718750000000018 0.6875
vt 0.06718750000000018 1
vn 0.7933533402912346 -0.6087614290087214 1.3877787807814457e-16
vn -0.7933533402912346 0.6087614290087214 -1.3877787807814457e-16
usemtl m_497511e3-4ab9-c85e-88be-5ae10c6aca5a
f 99/116/29 100/115/29 98/114/29 97/113/29
f 103/120/30 104/119/30 102/118/30 101/117/30
o cube
v 0.9600495287550858 0.9965531629609103 1.1333126596943743
v 1.0131308420539396 0.9273762486461108 -0.11364240313040586
v 1.2257338798392914 0.6503065754611232 1.1638311169574294
v 1.2788151931381453 0.5811296611463239 -0.08312394586735095
v 1.0131308420539396 0.9273762486461108 -0.11364240313040586
v 0.9600495287550858 0.9965531629609103 1.1333126596943743
v 1.2788151931381453 0.5811296611463239 -0.08312394586735095
v 1.2257338798392914 0.6503065754611232 1.1638311169574294
vt 0.5125000000000002 0.25
vt 0.5125000000000002 0.5625
vt 0.4031250000000002 0.5625
vt 0.4031250000000002 0.25
vt 0.5125000000000002 0.5625
vt 0.5125000000000002 0.25
vt 0.4031250000000002 0.25
vt 0.4031250000000002 0.5625
vn 0.7933533402912347 0.6087614290087214 4.163336342344338e-17
vn -0.7933533402912347 -0.6087614290087214 -4.163336342344338e-17
usemtl m_497511e3-4ab9-c85e-88be-5ae10c6aca5a
f 107/124/31 108/123/31 106/122/31 105/121/31
f 111/128/32 112/127/32 110/126/32 109/125/32
o cube
v 1.0367178957376817 0.6383362205648905 1.154523499886138
v 0.9373937566139997 0.7677779588064827 -0.084782576831125
v 1.300772504122239 0.2942135551024874 1.0974182907898653
v 1.2014483649985572 0.4236552933440796 -0.1418877859273976
v 0.9373937566139997 0.7677779588064827 -0.084782576831125
v 1.0367178957376817 0.6383362205648905 1.154523499886138
v 1.2014483649985572 0.4236552933440796 -0.1418877859273976
v 1.300772504122239 0.2942135551024874 1.0974182907898653
vt 0.5359375000000002 0.2578125
vt 0.5359375000000002 0.5703125
vt 0.6453125000000002 0.5703125
vt 0.6453125000000002 0.2578125
vt 0.5359375000000002 0.5703125
vt 0.5359375000000002 0.2578125
vt 0.6453125000000002 0.2578125
vt 0.6453125000000002 0.5703125
vn 0.793353340291235 0.608761429008721 -1.387778780781446e-17
vn -0.793353340291235 -0.608761429008721 1.387778780781446e-17
usemtl m_497511e3-4ab9-c85e-88be-5ae10c6aca5a
f 115/132/33 116/131/33 114/130/33 113/129/33
f 119/136/34 120/135/34 118/134/34 117/133/34
o cube
v 1.0164911919353916 0.3099598460439788 1.1514354080491855
v 0.9567876028928726 0.38776707813387334 -0.09471125911722433
v 1.2820033009859293 -0.03606227126726247 1.1171095536682534
v 1.2222997119434102 0.04174496082263204 -0.1290371134981565
v 0.9567876028928726 0.38776707813387334 -0.09471125911722433
v 1.0164911919353916 0.3099598460439788 1.1514354080491855
v 1.2222997119434102 0.04174496082263204 -0.1290371134981565
v 1.2820033009859293 -0.03606227126726247 1.1171095536682534
vt 0.5984375000000002 0.7109375
vt 0.9109375000000002 0.7109375
vt 0.9109375000000002 0.6015625
vt 0.5984375000000002 0.6015625
vt 0.9109375000000002 0.7109375
vt 0.5984375000000002 0.7109375
vt 0.5984375000000002 0.6015625
vt 0.9109375000000002 0.6015625
vn 0.7933533402912347 0.6087614290087212 -1.5265566588595902e-16
vn -0.7933533402912347 -0.6087614290087212 1.5265566588595902e-16
usemtl m_497511e3-4ab9-c85e-88be-5ae10c6aca5a
f 123/140/35 124/139/35 122/138/35 121/137/35
f 127/144/36 128/143/36 126/142/36 125/141/36
o cube
v 0.9027666825601339 0.5956685121757317 1.0994170961977887
v 1.073943589184371 0.3725864242185565 -0.11854548478375515
v 1.1622737070072504 0.2574723734857272 1.1978331824732296
v 1.3334506136314872 0.034390285528552 -0.0201293985083143
v 1.073943589184371 0.3725864242185565 -0.11854548478375515
v 0.9027666825601339 0.5956685121757317 1.0994170961977887
v 1.3334506136314872 0.034390285528552 -0.0201293985083143
v 1.1622737070072504 0.2574723734857272 1.1978331824732296
vt 0.17656250000000018 0.6875
vt 0.17656250000000018 1
vt 0.06718750000000018 1
vt 0.06718750000000018 0.6875
vt 0.17656250000000018 1
vt 0.17656250000000018 0.6875
vt 0.06718750000000018 0.6875
vt 0.06718750000000018 1
vn 0.7933533402912346 0.6087614290087214 -1.3877787807814457e-16
vn -0.7933533402912346 -0.6087614290087214 1.3877787807814457e-16
usemtl m_497511e3-4ab9-c85e-88be-5ae10c6aca5a
f 131/148/37 132/147/37 130/146/37 129/145/37
f 135/152/38 136/151/38 134/150/38 133/149/38
o cube
v -0.11931255799294788 1.0721788856417083 -0.07039349508403692
v 0.029092954752449607 1.1252601989405615 1.169629963551019
v -0.11931255799294788 1.0721788856417083 -0.07039349508403692
v 0.029092954752449607 1.1252601989405615 1.169629963551019
v 0.4419048801457984 0.9870528397329726 1.1261409981241317
v 0.29349936740040095 0.9339715264341194 -0.11388246051092443
v 0.4419048801457984 0.9870528397329726 1.1261409981241317
v 0.29349936740040095 0.9339715264341194 -0.11388246051092443
vt 0.5125000000000002 0.5625
vt 0.4031250000000002 0.5625
vt 0.4031250000000002 0.25
vt 0.5125000000000002 0.25
vt 0.5125000000000002 0.25
vt 0.4031250000000002 0.25
vt 0.4031250000000002 0.5625
vt 0.5125000000000002 0.5625
vn 0.30916007529059486 0.9478408662034297 -0.07757409490961675
vn -0.30916007529059486 -0.9478408662034297 0.07757409490961675
usemtl m_497511e3-4ab9-c85e-88be-5ae10c6aca5a
f 142/156/39 137/155/39 138/154/39 141/153/39
f 143/160/40 140/159/40 139/158/40 144/157/40
o cube
v -0.16303850404248066 1.1212788592062548 0.9208870981698788
v 1.0401663275735864 1.2534167501828575 0.6088971769480429
v -0.16303850404248066 1.1212788592062548 0.9208870981698788
v 1.0401663275735864 1.2534167501828575 0.6088971769480429
v 0.9795459917268123 0.9911298236104789 0.2640247468654977
v -0.22365883988925472 0.8589919326338763 0.5760146680873336
v 0.9795459917268123 0.9911298236104789 0.2640247468654977
v -0.22365883988925472 0.8589919326338763 0.5760146680873336
vt 0.5359375000000002 0.5703125
vt 0.6453125000000002 0.5703125
vt 0.6453125000000002 0.2578125
vt 0.5359375000000002 0.2578125
vt 0.5359375000000002 0.2578125
vt 0.6453125000000002 0.2578125
vt 0.6453125000000002 0.5703125
vt 0.5359375000000002 0.5703125
vn -0.23296291314453424 0.7933533402912345 -0.5624222244434804
vn 0.23296291314453424 -0.7933533402912345 0.5624222244434804
usemtl m_497511e3-4ab9-c85e-88be-5ae10c6aca5a
f 150/164/41 145/163/41 146/162/41 149/161/41
f 151/168/42 148/167/42 147/166/42 152/165/42
o cube
v 0.890227054777202 1.1232712834313194 1.1919207200482025
v 1.1907445084921284 1.0635676943887995 -0.019947565479617957
v 0.890227054777202 1.1232712834313194 1.1919207200482025
v 1.1907445084921284 1.0635676943887995 -0.019947565479617957
v 0.7840644142035971 0.9327804099147163 -0.11435221117762717
v 0.4835469604886708 0.9924839989572363 1.0975160743501933
v 0.7840644142035971 0.9327804099147163 -0.11435221117762717
v 0.4835469604886708 0.9924839989572363 1.0975160743501933
vt 0.9109375000000002 0.7109375
vt 0.9109375000000002 0.6015625
vt 0.5984375000000002 0.6015625
vt 0.5984375000000002 0.7109375
vt 0.5984375000000002 0.7109375
vt 0.5984375000000002 0.6015625
vt 0.9109375000000002 0.6015625
vt 0.9109375000000002 0.7109375
vn -0.2795166464621492 0.9530751129010473 -0.1162681104998709
vn 0.2795166464621492 -0.9530751129010473 0.1162681104998709
usemtl m_497511e3-4ab9-c85e-88be-5ae10c6aca5a
f 158/172/43 153/171/43 154/170/43 157/169/43
f 159/176/44 156/175/44 155/174/44 160/173/44
o cube
v 1.4080874390565046 1.09977370700725 0.5002851338436471
v 0.3985170318316233 1.270950613631487 -0.21662912845997306
v 1.4080874390565046 1.09977370700725 0.5002851338436471
v 0.3985170318316233 1.270950613631487 -0.21662912845997306
v 0.16639390220993378 1.0114435891843712 0.04828823027145518
v 1.1759643094348151 0.8402666825601339 0.7652024925750753
v 0.16639390220993378 1.0114435891843712 0.04828823027145518
v 1.1759643094348151 0.8402666825601339 0.7652024925750753
vt 0.17656250000000018 1
vt 0.06718750000000018 1
vt 0.06718750000000018 0.6875
vt 0.17656250000000018 0.6875
vt 0.17656250000000018 0.6875
vt 0.06718750000000018 0.6875
vt 0.06718750000000018 1
vt 0.17656250000000018 1
vn -0.2572736969424502 0.7933533402912354 0.5517252235581619
vn 0.2572736969424502 -0.7933533402912354 -0.5517252235581619
usemtl m_497511e3-4ab9-c85e-88be-5ae10c6aca5a
f 166/180/45 161/179/45 162/178/45 165/177/45
f 167/184/46 164/183/46 163/182/46 168/181/46
o cube
v -0.11931255799294788 -0.0721788856417083 -0.07039349508403692
v 0.029092954752449607 -0.12526019894056153 1.169629963551019
v -0.11931255799294788 -0.0721788856417083 -0.07039349508403692
v 0.029092954752449607 -0.12526019894056153 1.169629963551019
v 0.4419048801457984 0.01294716026702735 1.1261409981241317
v 0.29349936740040095 0.06602847356588057 -0.11388246051092443
v 0.4419048801457984 0.01294716026702735 1.1261409981241317
v 0.29349936740040095 0.06602847356588057 -0.11388246051092443
vt 0.5125000000000002 0.5625
vt 0.4031250000000002 0.5625
vt 0.4031250000000002 0.25
vt 0.5125000000000002 0.25
vt 0.5125000000000002 0.25
vt 0.4031250000000002 0.25
vt 0.4031250000000002 0.5625
vt 0.5125000000000002 0.5625
vn -0.30916007529059486 0.9478408662034297 0.07757409490961675
vn 0.30916007529059486 -0.9478408662034297 -0.07757409490961675
usemtl m_497511e3-4ab9-c85e-88be-5ae10c6aca5a
f 174/188/47 169/187/47 170/186/47 173/185/47
f 175/192/48 172/191/48 171/190/48 176/189/48
o cube
v -0.1792535691560566 -0.1194980946598905 0.925091649842595
v 1.0239512624600104 -0.25163598563649303 0.6131017286207591
v -0.1792535691560566 -0.1194980946598905 0.925091649842595
v 1.0239512624600104 -0.25163598563649303 0.6131017286207591
v 0.9633309266132364 0.010650940935885547 0.26822929853821387
v -0.23987390500283068 0.1427888319124881 0.5802192197600498
v 0.9633309266132364 0.010650940935885547 0.26822929853821387
v -0.23987390500283068 0.1427888319124881 0.5802192197600498
vt 0.5359375000000002 0.5703125
vt 0.6453125000000002 0.5703125
vt 0.6453125000000002 0.2578125
vt 0.5359375000000002 0.2578125
vt 0.5359375000000002 0.2578125
vt 0.6453125000000002 0.2578125
vt 0.6453125000000002 0.5703125
vt 0.5359375000000002 0.5703125
vn 0.23296291314453424 0.7933533402912345 0.5624222244434804
vn -0.23296291314453424 -0.7933533402912345 -0.5624222244434804
usemtl m_497511e3-4ab9-c85e-88be-5ae10c6aca5a
f 182/196/49 177/195/49 178/194/49 181/193/49
f 183/200/50 180/199/50 179/198/50 184/197/50
o cube
v 0.890227054777202 -0.12327128343131934 1.1919207200482025
v 1.1907445084921284 -0.0635676943887994 -0.019947565479617957
v 0.890227054777202 -0.12327128343131934 1.1919207200482025
v 1.1907445084921284 -0.0635676943887994 -0.019947565479617957
v 0.7840644142035971 0.06721959008528372 -0.11435221117762717
v 0.4835469604886708 0.00751600104276378 1.0975160743501933
v 0.7840644142035971 0.06721959008528372 -0.11435221117762717
v 0.4835469604886708 0.00751600104276378 1.0975160743501933
vt 0.9109375000000002 0.7109375
vt 0.9109375000000002 0.6015625
vt 0.5984375000000002 0.6015625
vt 0.5984375000000002 0.7109375
vt 0.5984375000000002 0.7109375
vt 0.5984375000000002 0.6015625
vt 0.9109375000000002 0.6015625
vt 0.9109375000000002 0.7109375
vn 0.2795166464621492 0.9530751129010473 0.1162681104998709
vn -0.2795166464621492 -0.9530751129010473 -0.1162681104998709
usemtl m_497511e3-4ab9-c85e-88be-5ae10c6aca5a
f 190/204/51 185/203/51 186/202/51 189/201/51
f 191/208/52 188/207/52 187/206/52 192/205/52
o cube
v 1.4421179481677666 -0.16151833342947297 0.41347908266695227
v 0.34340782558499516 -0.2179113214207602 -0.17994816429729488
v 1.4421179481677666 -0.16151833342947297 0.41347908266695227
v 0.34340782558499516 -0.2179113214207602 -0.17994816429729488
v 0.16773900270806197 0.047689436974403115 0.12005675534394505
v 1.2664491252908336 0.10408242496569034 0.7134840023081921
v 0.16773900270806197 0.047689436974403115 0.12005675534394505
v 1.2664491252908336 0.10408242496569034 0.7134840023081921
vt 0.17656250000000018 1
vt 0.06718750000000018 1
vt 0.06718750000000018 0.6875
vt 0.17656250000000018 0.6875
vt 0.17656250000000018 0.6875
vt 0.06718750000000018 0.6875
vt 0.06718750000000018 1
vt 0.17656250000000018 1
vn 0.25727369694245006 0.7933533402912358 -0.5517252235581612
vn -0.25727369694245006 -0.7933533402912358 0.5517252235581612
usemtl m_497511e3-4ab9-c85e-88be-5ae10c6aca5a
f 198/212/53 193/211/53 194/210/53 197/209/53
f 199/216/54 196/215/54 195/214/54 200/213/54