# Made in Blockbench 4.11.2
mtllib vines_vertical_slab.mtl

o cube
v 1.00500005 1.00500005 1.25187510625
v 1.00500005 1.00500005 0.87312510625
v 1.00500005 -0.004999949999999975 1.25187510625
v 1.00500005 -0.004999949999999975 0.87312510625
v -0.004999949999999975 1.00500005 0.87312510625
v -0.004999949999999975 1.00500005 1.25187510625
v -0.004999949999999975 -0.004999949999999975 0.87312510625
v -0.004999949999999975 -0.004999949999999975 1.25187510625
vt 0.75 0.5234375
vt 1 0.5234375
vt 1 0.2734375
vt 0.75 0.2734375
vt 0.765625 0.5234375
vt 0.859375 0.5234375
vt 0.859375 0.2734375
vt 0.765625 0.2734375
vt 0.75 0.5234375
vt 1 0.5234375
vt 1 0.2734375
vt 0.75 0.2734375
vt 0.796875 0.5234375
vt 0.890625 0.5234375
vt 0.890625 0.2734375
vt 0.796875 0.2734375
vt 0.75 0.4296875
vt 1 0.4296875
vt 1 0.3515625
vt 0.75 0.3515625
vt 0.75 0.4296875
vt 1 0.4296875
vt 1 0.3515625
vt 0.75 0.3515625
vn 0 0 -1
vn 1 0 0
vn 0 0 1
vn -1 0 0
vn 0 1 0
vn 0 -1 0
usemtl m_be203af7-e3fa-1f80-5ac4-4ef2ae42db77
f 4/4/1 7/3/1 5/2/1 2/1/1
f 3/8/2 4/7/2 2/6/2 1/5/2
f 8/12/3 3/11/3 1/10/3 6/9/3
f 7/16/4 8/15/4 6/14/4 5/13/4
f 6/20/5 1/19/5 2/18/5 5/17/5
f 7/24/6 4/23/6 3/22/6 8/21/6
o cube
v 1.1351145274809102 1.0055625018935888 0.8885951786260902
v 1.1351145274809102 1.0055625018935888 0.8885951786260902
v 1.15932644749109 0.6593159143938019 0.6222620534347746
v 1.15932644749109 0.6593159143938019 0.6222620534347746
v -0.11184053534387006 0.9183669097134323 0.8885951786260902
v -0.11184053534387006 0.9183669097134323 0.8885951786260902
v -0.08762861533369026 0.5721203222136453 0.6222620534347746
v -0.08762861533369026 0.5721203222136453 0.6222620534347746
vt 0.5125000000000002 0.25
vt 0.5125000000000002 0.5625
vt 0.4031250000000002 0.5625
vt 0.4031250000000002 0.25
vt 0.5125000000000002 0.5625
vt 0.5125000000000002 0.25
vt 0.4031250000000002 0.25
vt 0.4031250000000002 0.5625
vn -0.04246505063908305 0.6072785167638985 -0.7933533402912347
vn 0.04246505063908305 -0.6072785167638985 0.7933533402912347
usemtl m_be203af7-e3fa-1f80-5ac4-4ef2ae42db77
f 12/28/7 15/27/7 13/26/7 10/25/7
f 16/32/8 11/31/8 9/30/8 14/29/8
o cube
v 1.1511518996827907 0.6214782195481543 0.8885951786260902
v 1.1511518996827907 0.6214782195481543 0.8885951786260902
v 1.1058472912982333 0.27735555408575124 0.6222620534347747
v 1.1058472912982333 0.27735555408575124 0.6222620534347747
v -0.08815417703447226 0.7846359598232189 0.8885951786260902
v -0.08815417703447226 0.7846359598232189 0.8885951786260902
v -0.13345878541902956 0.44051329436081577 0.6222620534347747
v -0.13345878541902956 0.44051329436081577 0.6222620534347747
vt 0.5359375000000002 0.2578125
vt 0.5359375000000002 0.5703125
vt 0.6453125000000002 0.5703125
vt 0.6453125000000002 0.2578125
vt 0.5359375000000002 0.5703125
vt 0.5359375000000002 0.2578125
vt 0.6453125000000002 0.2578125
vt 0.6453125000000002 0.5703125
vn 0.07945931129894562 0.6035533905932742 -0.793353340291235
vn -0.07945931129894562 -0.6035533905932742 0.793353340291235
usemtl m_be203af7-e3fa-1f80-5ac4-4ef2ae42db77
f 20/36/9 23/35/9 21/34/9 18/33/9
f 24/40/10 19/39/10 17/38/10 22/37/10
o cube
v 1.1494087442921943 0.29982652725902287 0.88859517862609
v 1.1494087442921943 0.29982652725902287 0.88859517862609
v 1.1221762130607313 -0.04619559005221846 0.6222620534347745
v 1.1221762130607313 -0.04619559005221846 0.6222620534347745
v -0.09673792287421545 0.3979003969188293 0.8885951786260903
v -0.09673792287421545 0.3979003969188293 0.8885951786260903
v -0.12397045410567864 0.05187827960758801 0.6222620534347747
v -0.12397045410567864 0.05187827960758801 0.6222620534347747
vt 0.5984375000000002 0.7109375
vt 0.9109375000000002 0.7109375
vt 0.9109375000000002 0.6015625
vt 0.5984375000000002 0.6015625
vt 0.9109375000000002 0.7109375
vt 0.5984375000000002 0.7109375
vt 0.5984375000000002 0.6015625
vt 0.9109375000000002 0.6015625
vn 0.047762871234014966 0.6068848206869432 -0.7933533402912347
vn -0.047762871234014966 -0.6068848206869432 0.7933533402912347
usemtl m_be203af7-e3fa-1f80-5ac4-4ef2ae42db77
f 28/44/11 31/43/11 29/42/11 26/41/11
f 32/48/12 27/47/12 25/46/12 30/45/12
o cube
v 1.1052277691950545 0.6247218771620595 0.8885951786260902
v 1.1052277691950545 0.6247218771620595 0.8885951786260902
v 1.1833064999800658 0.2865257384720551 0.6222620534347745
v 1.1833064999800658 0.2865257384720551 0.6222620534347745
v -0.11273481178648947 0.3435330592322286 0.8885951786260904
v -0.11273481178648947 0.3435330592322286 0.8885951786260904
v -0.03465608100147821 0.005336920542224122 0.6222620534347747
v -0.03465608100147821 0.005336920542224122 0.6222620534347747
vt 0.17656250000000018 0.6875
vt 0.17656250000000018 1
vt 0.06718750000000018 1
vt 0.06718750000000018 0.6875
vt 0.17656250000000018 1
vt 0.17656250000000018 0.6875
vt 0.06718750000000018 0.6875
vt 0.06718750000000018 1
vn -0.13694152529938974 0.5931589130219803 -0.7933533402912345
vn 0.13694152529938974 -0.5931589130219803 0.7933533402912345
usemtl m_be203af7-e3fa-1f80-5ac4-4ef2ae42db77
f 36/52/13 39/51/13 37/50/13 34/49/13
f 40/56/14 35/55/14 33/54/14 38/53/14
o cube
v 1.1351145274809102 1.0055625018935888 1.1739048213739098
v 1.1351145274809102 1.0055625018935888 1.1739048213739098
v 1.15932644749109 0.6593159143938019 1.4402379465652253
v 1.15932644749109 0.6593159143938019 1.4402379465652253
v -0.11184053534387006 0.9183669097134323 1.1739048213739098
v -0.11184053534387006 0.9183669097134323 1.1739048213739098
v -0.08762861533369026 0.5721203222136453 1.4402379465652255
v -0.08762861533369026 0.5721203222136453 1.4402379465652255
vt 0.5125000000000002 0.25
vt 0.5125000000000002 0.5625
vt 0.4031250000000002 0.5625
vt 0.4031250000000002 0.25
vt 0.5125000000000002 0.5625
vt 0.5125000000000002 0.25
vt 0.4031250000000002 0.25
vt 0.4031250000000002 0.5625
vn 0.04246505063908305 -0.6072785167638985 -0.7933533402912347
vn -0.04246505063908305 0.6072785167638985 0.7933533402912347
usemtl m_be203af7-e3fa-1f80-5ac4-4ef2ae42db77
f 44/60/15 47/59/15 45/58/15 42/57/15
f 48/64/16 43/63/16 41/62/16 46/61/16
o cube
v 1.1511518996827907 0.6214782195481543 1.1739048213739098
v 1.1511518996827907 0.6214782195481543 1.1739048213739098
v 1.1058472912982333 0.27735555408575124 1.4402379465652253
v 1.1058472912982333 0.27735555408575124 1.4402379465652253
v -0.08815417703447226 0.7846359598232189 1.1739048213739098
v -0.08815417703447226 0.7846359598232189 1.1739048213739098
v -0.13345878541902956 0.44051329436081577 1.4402379465652253
v -0.13345878541902956 0.44051329436081577 1.4402379465652253
vt 0.5359375000000002 0.2578125
vt 0.5359375000000002 0.5703125
vt 0.6453125000000002 0.5703125
vt 0.6453125000000002 0.2578125
vt 0.5359375000000002 0.5703125
vt 0.5359375000000002 0.2578125
vt 0.6453125000000002 0.2578125
vt 0.6453125000000002 0.5703125
vn -0.07945931129894562 -0.6035533905932742 -0.793353340291235
vn 0.07945931129894562 0.6035533905932742 0.793353340291235
usemtl m_be203af7-e3fa-1f80-5ac4-4ef2ae42db77
f 52/68/17 55/67/17 53/66/17 50/65/17
f 56/72/18 51/71/18 49/70/18 54/69/18
o cube
v 1.1494087442921943 0.29982652725902287 1.1739048213739098
v 1.1494087442921943 0.29982652725902287 1.1739048213739098
v 1.1221762130607313 -0.04619559005221846 1.4402379465652255
v 1.1221762130607313 -0.04619559005221846 1.4402379465652255
v -0.09673792287421545 0.3979003969188293 1.1739048213739098
v -0.09673792287421545 0.3979003969188293 1.1739048213739098
v -0.12397045410567864 0.05187827960758801 1.4402379465652253
v -0.12397045410567864 0.05187827960758801 1.4402379465652253
vt 0.5984375000000002 0.7109375
vt 0.9109375000000002 0.7109375
vt 0.9109375000000002 0.6015625
vt 0.5984375000000002 0.6015625
vt 0.9109375000000002 0.7109375
vt 0.5984375000000002 0.7109375
vt 0.5984375000000002 0.6015625
vt 0.9109375000000002 0.6015625
vn -0.047762871234014966 -0.6068848206869432 -0.7933533402912347
vn 0.047762871234014966 0.6068848206869432 0.7933533402912347
usemtl m_be203af7-e3fa-1f80-5ac4-4ef2ae42db77
f 60/76/19 63/75/19 61/74/19 58/73/19
f 64/80/20 59/79/20 57/78/20 62/77/20
o cube
v 1.1052277691950545 0.6247218771620595 1.1739048213739098
v 1.1052277691950545 0.6247218771620595 1.1739048213739098
v 1.1833064999800658 0.2865257384720551 1.4402379465652255
v 1.1833064999800658 0.2865257384720551 1.4402379465652255
v -0.11273481178648947 0.3435330592322286 1.1739048213739096
v -0.11273481178648947 0.3435330592322286 1.1739048213739096
v -0.03465608100147821 0.005336920542224122 1.4402379465652253
v -0.03465608100147821 0.005336920542224122 1.4402379465652253
vt 0.17656250000000018 0.6875
vt 0.17656250000000018 1
vt 0.06718750000000018 1
vt 0.06718750000000018 0.6875
vt 0.17656250000000018 1
vt 0.17656250000000018 0.6875
vt 0.06718750000000018 0.6875
vt 0.06718750000000018 1
vn 0.13694152529938974 -0.5931589130219803 -0.7933533402912345
vn -0.13694152529938974 0.5931589130219803 0.7933533402912345
usemtl m_be203af7-e3fa-1f80-5ac4-4ef2ae42db77
f 68/84/21 71/83/21 69/82/21 66/81/21
f 72/88/22 67/87/22 65/86/22 70/85/22
o cube
v -0.11931255799294788 1.0721788856417083 0.4921065049159631
v 0.029092954752449607 1.1252601989405615 1.732129963551019
v -0.11931255799294788 1.0721788856417083 0.4921065049159631
v 0.029092954752449607 1.1252601989405615 1.732129963551019
v 0.4419048801457984 0.9870528397329726 1.6886409981241317
v 0.29349936740040095 0.9339715264341194 0.44861753948907557
v 0.4419048801457984 0.9870528397329726 1.6886409981241317
v 0.29349936740040095 0.9339715264341194 0.44861753948907557
vt 0.3640625000000002 0.3828125
vt 0.3640625000000002 0.2734375
vt 0.6765625000000002 0.2734375
vt 0.6765625000000002 0.3828125
vt 0.6765625000000002 0.3828125
vt 0.6765625000000002 0.2734375
vt 0.3640625000000002 0.2734375
vt 0.3640625000000002 0.3828125
vn 0.30916007529059486 0.9478408662034297 -0.07757409490961675
vn -0.30916007529059486 -0.9478408662034297 0.07757409490961675
usemtl m_be203af7-e3fa-1f80-5ac4-4ef2ae42db77
f 78/92/23 73/91/23 74/90/23 77/89/23
f 79/96/24 76/95/24 75/94/24 80/93/24
o cube
v -0.19467827753897216 1.0852813383829985 1.6251579427303666
v 1.019043454710577 1.2822301530721036 1.4002341310569235
v -0.19467827753897216 1.0852813383829985 1.6251579427303666
v 1.019043454710577 1.2822301530721036 1.4002341310569235
v 0.9953569713154535 1.0249721090535322 1.0471569450308205
v -0.21836476093409551 0.828023294364427 1.2720807567042636
v 0.9953569713154535 1.0249721090535322 1.0471569450308205
v -0.21836476093409551 0.828023294364427 1.2720807567042636
vt 0.5359375000000002 0.5703125
vt 0.6453125000000002 0.5703125
vt 0.6453125000000002 0.2578125
vt 0.5359375000000002 0.2578125
vt 0.5359375000000002 0.2578125
vt 0.6453125000000002 0.2578125
vt 0.6453125000000002 0.5703125
vt 0.5359375000000002 0.5703125
vn -0.23296291314453424 0.7933533402912346 -0.5624222244434806
vn 0.23296291314453424 -0.7933533402912346 0.5624222244434806
usemtl m_be203af7-e3fa-1f80-5ac4-4ef2ae42db77
f 86/100/25 81/99/25 82/98/25 85/97/25
f 87/104/26 84/103/26 83/102/26 88/101/26
o cube
v 0.890227054777202 1.1232712834313194 1.6294207200482025
v 1.1907445084921284 1.0635676943887995 0.41755243452038204
v 0.890227054777202 1.1232712834313194 1.6294207200482025
v 1.1907445084921284 1.0635676943887995 0.41755243452038204
v 0.7840644142035971 0.9327804099147163 0.32314778882237283
v 0.4835469604886708 0.9924839989572363 1.5350160743501933
v 0.7840644142035971 0.9327804099147163 0.32314778882237283
v 0.4835469604886708 0.9924839989572363 1.5350160743501933
vt 0.9109375000000002 0.7109375
vt 0.9109375000000002 0.6015625
vt 0.5984375000000002 0.6015625
vt 0.5984375000000002 0.7109375
vt 0.5984375000000002 0.7109375
vt 0.5984375000000002 0.6015625
vt 0.9109375000000002 0.6015625
vt 0.9109375000000002 0.7109375
vn -0.2795166464621492 0.9530751129010473 -0.1162681104998709
vn 0.2795166464621492 -0.9530751129010473 0.1162681104998709
usemtl m_be203af7-e3fa-1f80-5ac4-4ef2ae42db77
f 94/108/27 89/107/27 90/106/27 93/105/27
f 95/112/28 92/111/28 91/110/28 96/109/28
o cube
v 1.4080874390565046 1.09977370700725 1.3752851338436471
v 0.3985170318316233 1.270950613631487 0.6583708715400269
v 1.4080874390565046 1.09977370700725 1.3752851338436471
v 0.3985170318316233 1.270950613631487 0.6583708715400269
v 0.16639390220993378 1.0114435891843712 0.9232882302714551
v 1.1759643094348151 0.8402666825601339 1.6402024925750753
v 0.16639390220993378 1.0114435891843712 0.9232882302714551
v 1.1759643094348151 0.8402666825601339 1.6402024925750753
vt 0.17656250000000018 1
vt 0.06718750000000018 1
vt 0.06718750000000018 0.6875
vt 0.17656250000000018 0.6875
vt 0.17656250000000018 0.6875
vt 0.06718750000000018 0.6875
vt 0.06718750000000018 1
vt 0.17656250000000018 1
vn -0.2572736969424502 0.7933533402912354 0.5517252235581619
vn 0.2572736969424502 -0.7933533402912354 -0.5517252235581619
usemtl m_be203af7-e3fa-1f80-5ac4-4ef2ae42db77
f 102/116/29 97/115/29 98/114/29 101/113/29
f 103/120/30 100/119/30 99/118/30 104/117/30
o cube
v -0.16614523391835379 -0.21658946293680653 0.4179649579346818
v -0.017739721172956052 -0.2696707762356594 1.657988416569737
v -0.16614523391835379 -0.21658946293680653 0.4179649579346818
v -0.017739721172956052 -0.2696707762356594 1.657988416569737
v 0.3118879505159611 0.01670748493506677 1.6307976169166438
v 0.16348243777056334 0.06978879823391965 0.3907741582815887
v 0.3118879505159611 0.01670748493506677 1.6307976169166438
v 0.16348243777056334 0.06978879823391965 0.3907741582815887
vt 0.046875 0.609375
vt 0.046875 0.5
vt 0.359375 0.5
vt 0.359375 0.609375
vt 0.359375 0.609375
vt 0.359375 0.5
vt 0.046875 0.5
vt 0.046875 0.609375
vn -0.6467153161866697 0.754800109849575 0.10970913353338133
vn 0.6467153161866697 -0.754800109849575 -0.10970913353338133
usemtl m_be203af7-e3fa-1f80-5ac4-4ef2ae42db77
f 110/124/31 105/123/31 106/122/31 109/121/31
f 111/128/32 108/127/32 107/126/32 112/125/32
o cube
v -0.058933085994449796 -0.13271188375755075 1.7688926577204114
v 1.1442717456216172 -0.2648497747341533 1.4569027364985754
v -0.058933085994449796 -0.13271188375755075 1.7688926577204114
v 1.1442717456216172 -0.2648497747341533 1.4569027364985754
v 1.083651409774843 -0.002562848161774711 1.1120303064160302
v -0.11955342184122386 0.12957504281482785 1.4240202276378662
v 1.083651409774843 -0.002562848161774711 1.1120303064160302
v -0.11955342184122386 0.12957504281482785 1.4240202276378662
vt 0.5359375000000002 0.5703125
vt 0.6453125000000002 0.5703125
vt 0.6453125000000002 0.2578125
vt 0.5359375000000002 0.2578125
vt 0.5359375000000002 0.2578125
vt 0.6453125000000002 0.2578125
vt 0.6453125000000002 0.5703125
vt 0.5359375000000002 0.5703125
vn 0.23296291314453424 0.7933533402912345 0.5624222244434804
vn -0.23296291314453424 -0.7933533402912345 -0.5624222244434804
usemtl m_be203af7-e3fa-1f80-5ac4-4ef2ae42db77
f 118/132/33 113/131/33 114/130/33 117/129/33
f 119/136/34 116/135/34 115/134/34 120/133/34
o cube
v 0.9803822908916799 -0.10536020671856336 1.7033602343898564
v 1.2808997446066062 -0.045656617676043426 0.49149194886203584
v 0.9803822908916799 -0.10536020671856336 1.7033602343898564
v 1.2808997446066062 -0.045656617676043426 0.49149194886203584
v 0.8742196503180749 0.08513066679803968 0.39708730316402663
v 0.5737021966031487 0.02542707775551976 1.6089555886918472
v 0.8742196503180749 0.08513066679803968 0.39708730316402663
v 0.5737021966031487 0.02542707775551976 1.6089555886918472
vt 0.6687500000000002 0.3828125
vt 0.6687500000000002 0.2734375
vt 0.3562500000000002 0.2734375
vt 0.3562500000000002 0.3828125
vt 0.3562500000000002 0.3828125
vt 0.3562500000000002 0.2734375
vt 0.6687500000000002 0.2734375
vt 0.6687500000000002 0.3828125
vn 0.2795166464621492 0.9530751129010473 0.1162681104998709
vn -0.2795166464621492 -0.9530751129010473 -0.1162681104998709
usemtl m_be203af7-e3fa-1f80-5ac4-4ef2ae42db77
f 126/140/35 121/139/35 122/138/35 125/137/35
f 127/144/36 124/143/36 123/142/36 128/141/36
o cube
v 1.2546179481677666 -0.16151833342947297 1.0384790826669523
v 0.15590782558499516 -0.2179113214207602 0.4450518357027051
v 1.2546179481677666 -0.16151833342947297 1.0384790826669523
v 0.15590782558499516 -0.2179113214207602 0.4450518357027051
v -0.01976099729193803 0.047689436974403115 0.7450567553439451
v 1.0789491252908336 0.10408242496569034 1.338484002308192
v -0.01976099729193803 0.047689436974403115 0.7450567553439451
v 1.0789491252908336 0.10408242496569034 1.338484002308192
vt 0.17656250000000018 1
vt 0.06718750000000018 1
vt 0.06718750000000018 0.6875
vt 0.17656250000000018 0.6875
vt 0.17656250000000018 0.6875
vt 0.06718750000000018 0.6875
vt 0.06718750000000018 1
vt 0.17656250000000018 1
vn 0.25727369694245006 0.7933533402912358 -0.5517252235581612
vn -0.25727369694245006 -0.7933533402912358 0.5517252235581612
usemtl m_be203af7-e3fa-1f80-5ac4-4ef2ae42db77
f 134/148/37 129/147/37 130/146/37 133/145/37
f 135/152/38 132/151/38 131/150/38 136/149/38
o cube
v 0.8402666825601339 0.5956685121757317 1.6619170961977887
v 1.011443589184371 0.3725864242185565 0.44395451521624485
v 1.0997737070072504 0.2574723734857272 1.7603331824732296
v 1.2709506136314872 0.034390285528552 0.5423706014916857
v 1.011443589184371 0.3725864242185565 0.44395451521624485
v 0.8402666825601339 0.5956685121757317 1.6619170961977887
v 1.2709506136314872 0.034390285528552 0.5423706014916857
v 1.0997737070072504 0.2574723734857272 1.7603331824732296
vt 0 0.3359375
vt 0.3125 0.3359375
vt 0.3125 0.4453125
vt 0 0.4453125
vt 0.3125 0.3359375
vt 0 0.3359375
vt 0 0.4453125
vt 0.3125 0.4453125
vn 0.7933533402912346 0.6087614290087214 -1.3877787807814457e-16
vn -0.7933533402912346 -0.6087614290087214 1.3877787807814457e-16
usemtl m_be203af7-e3fa-1f80-5ac4-4ef2ae42db77
f 139/156/39 140/155/39 138/154/39 137/153/39
f 143/160/40 144/159/40 142/158/40 141/157/40
o cube
v 0.8975495287550858 0.9965531629609103 1.6958126596943743
v 0.9506308420539397 0.9273762486461108 0.44885759686959414
v 1.1632338798392914 0.6503065754611232 1.7263311169574294
v 1.2163151931381453 0.5811296611463239 0.47937605413264905
v 0.9506308420539397 0.9273762486461108 0.44885759686959414
v 0.8975495287550858 0.9965531629609103 1.6958126596943743
v 1.2163151931381453 0.5811296611463239 0.47937605413264905
v 1.1632338798392914 0.6503065754611232 1.7263311169574294
vt 0.6453125000000002 0.3828125
vt 0.3328125000000002 0.3828125
vt 0.3328125000000002 0.2734375
vt 0.6453125000000002 0.2734375
vt 0.3328125000000002 0.3828125
vt 0.6453125000000002 0.3828125
vt 0.6453125000000002 0.2734375
vt 0.3328125000000002 0.2734375
vn 0.7933533402912347 0.6087614290087214 4.163336342344338e-17
vn -0.7933533402912347 -0.6087614290087214 -4.163336342344338e-17
usemtl m_be203af7-e3fa-1f80-5ac4-4ef2ae42db77
f 147/164/41 148/163/41 146/162/41 145/161/41
f 151/168/42 152/167/42 150/166/42 149/165/42
o cube
v 0.9742178957376818 0.6383362205648905 1.717023499886138
v 0.8748937566139997 0.7677779588064827 0.477717423168875
v 1.238272504122239 0.2942135551024874 1.6599182907898653
v 1.1389483649985572 0.4236552933440796 0.4206122140726024
v 0.8748937566139997 0.7677779588064827 0.477717423168875
v 0.9742178957376818 0.6383362205648905 1.717023499886138
v 1.1389483649985572 0.4236552933440796 0.4206122140726024
v 1.238272504122239 0.2942135551024874 1.6599182907898653
vt 0.020312500000000178 0.3984375
vt 0.3328125000000002 0.3984375
vt 0.3328125000000002 0.2890625
vt 0.020312500000000178 0.2890625
vt 0.3328125000000002 0.3984375
vt 0.020312500000000178 0.3984375
vt 0.020312500000000178 0.2890625
vt 0.3328125000000002 0.2890625
vn 0.793353340291235 0.608761429008721 -1.387778780781446e-17
vn -0.793353340291235 -0.608761429008721 1.387778780781446e-17
usemtl m_be203af7-e3fa-1f80-5ac4-4ef2ae42db77
f 155/172/43 156/171/43 154/170/43 153/169/43
f 159/176/44 160/175/44 158/174/44 157/173/44
o cube
v 0.9539911919353915 0.18495984604397891 1.7139354080491855
v 0.8942876028928726 0.26276707813387346 0.46778874088277567
v 1.2195033009859293 -0.16106227126726247 1.6796095536682534
v 1.1597997119434102 -0.08325503917736796 0.4334628865018435
v 0.8942876028928726 0.26276707813387346 0.46778874088277567
v 0.9539911919353915 0.18495984604397891 1.7139354080491855
v 1.1597997119434102 -0.08325503917736796 0.4334628865018435
v 1.2195033009859293 -0.16106227126726247 1.6796095536682534
vt 0.3328125000000002 0.3515625
vt 0.6453125000000002 0.3515625
vt 0.6453125000000002 0.2421875
vt 0.3328125000000002 0.2421875
vt 0.6453125000000002 0.3515625
vt 0.3328125000000002 0.3515625
vt 0.3328125000000002 0.2421875
vt 0.6453125000000002 0.2421875
vn 0.7933533402912347 0.6087614290087212 -1.5265566588595902e-16
vn -0.7933533402912347 -0.6087614290087212 1.5265566588595902e-16
usemtl m_be203af7-e3fa-1f80-5ac4-4ef2ae42db77
f 163/180/45 164/179/45 162/178/45 161/177/45
f 167/184/46 168/183/46 166/182/46 165/181/46
o cube
v 0.15973331743986607 0.5956685121757317 1.6619170961977887
v -0.011443589184370842 0.3725864242185565 0.44395451521624485
v -0.09977370700725033 0.2574723734857272 1.7603331824732296
v -0.2709506136314872 0.034390285528552 0.5423706014916857
v -0.011443589184370842 0.3725864242185565 0.44395451521624485
v 0.15973331743986607 0.5956685121757317 1.6619170961977887
v -0.2709506136314872 0.034390285528552 0.5423706014916857
v -0.09977370700725033 0.2574723734857272 1.7603331824732296
vt 0 0.3359375
vt 0.3125 0.3359375
vt 0.3125 0.4453125
vt 0 0.4453125
vt 0.3125 0.3359375
vt 0 0.3359375
vt 0 0.4453125
vt 0.3125 0.4453125
vn 0.7933533402912346 -0.6087614290087214 1.3877787807814457e-16
vn -0.7933533402912346 0.6087614290087214 -1.3877787807814457e-16
usemtl m_be203af7-e3fa-1f80-5ac4-4ef2ae42db77
f 171/188/47 172/187/47 170/186/47 169/185/47
f 175/192/48 176/191/48 174/190/48 173/189/48
o cube
v 0.10245047124491426 0.9965531629609103 1.6958126596943743
v 0.04936915794606038 0.9273762486461108 0.44885759686959414
v -0.16323387983929136 0.6503065754611232 1.7263311169574294
v -0.2163151931381452 0.5811296611463239 0.47937605413264905
v 0.04936915794606038 0.9273762486461108 0.44885759686959414
v 0.10245047124491426 0.9965531629609103 1.6958126596943743
v -0.2163151931381452 0.5811296611463239 0.47937605413264905
v -0.16323387983929136 0.6503065754611232 1.7263311169574294
vt 0.6453125000000002 0.3828125
vt 0.3328125000000002 0.3828125
vt 0.3328125000000002 0.2734375
vt 0.6453125000000002 0.2734375
vt 0.3328125000000002 0.3828125
vt 0.6453125000000002 0.3828125
vt 0.6453125000000002 0.2734375
vt 0.3328125000000002 0.2734375
vn 0.7933533402912347 -0.6087614290087214 -4.163336342344338e-17
vn -0.7933533402912347 0.6087614290087214 4.163336342344338e-17
usemtl m_be203af7-e3fa-1f80-5ac4-4ef2ae42db77
f 179/196/49 180/195/49 178/194/49 177/193/49
f 183/200/50 184/199/50 182/198/50 181/197/50
o cube
v 0.025782104262318244 0.6383362205648905 1.717023499886138
v 0.12510624338600027 0.7677779588064827 0.477717423168875
v -0.23827250412223916 0.2942135551024874 1.6599182907898653
v -0.13894836499855712 0.4236552933440796 0.4206122140726024
v 0.12510624338600027 0.7677779588064827 0.477717423168875
v 0.025782104262318244 0.6383362205648905 1.717023499886138
v -0.13894836499855712 0.4236552933440796 0.4206122140726024
v -0.23827250412223916 0.2942135551024874 1.6599182907898653
vt 0.020312500000000178 0.3984375
vt 0.3328125000000002 0.3984375
vt 0.3328125000000002 0.2890625
vt 0.020312500000000178 0.2890625
vt 0.3328125000000002 0.3984375
vt 0.020312500000000178 0.3984375
vt 0.020312500000000178 0.2890625
vt 0.3328125000000002 0.2890625
vn 0.793353340291235 -0.608761429008721 1.387778780781446e-17
vn -0.793353340291235 0.608761429008721 -1.387778780781446e-17
usemtl m_be203af7-e3fa-1f80-5ac4-4ef2ae42db77
f 187/204/51 188/203/51 186/202/51 185/201/51
f 191/208/52 192/207/52 190/206/52 189/205/52
o cube
v 0.04600880806460847 0.18495984604397891 1.7139354080491855
v 0.10571239710712746 0.26276707813387346 0.46778874088277567
v -0.21950330098592924 -0.16106227126726247 1.6796095536682534
v -0.15979971194341025 -0.08325503917736796 0.4334628865018435
v 0.10571239710712746 0.26276707813387346 0.46778874088277567
v 0.04600880806460847 0.18495984604397891 1.7139354080491855
v -0.15979971194341025 -0.08325503917736796 0.4334628865018435
v -0.21950330098592924 -0.16106227126726247 1.6796095536682534
vt 0.3328125000000002 0.3515625
vt 0.6453125000000002 0.3515625
vt 0.6453125000000002 0.2421875
vt 0.3328125000000002 0.2421875
vt 0.6453125000000002 0.3515625
vt 0.3328125000000002 0.3515625
vt 0.3328125000000002 0.2421875
vt 0.6453125000000002 0.2421875
vn 0.7933533402912347 -0.6087614290087212 1.5265566588595902e-16
vn -0.7933533402912347 0.6087614290087212 -1.5265566588595902e-16
usemtl m_be203af7-e3fa-1f80-5ac4-4ef2ae42db77
f 195/212/53 196/211/53 194/210/53 193/209/53
f 199/216/54 200/215/54 198/214/54 197/213/54