# Made in Blockbench 4.8.3
mtllib vines_2.mtl

o plane
v 1.065 1.1778892771065528 0.0977940825608804
v 1.065 -0.22008602589210363 0.11658542912825637
v -0.31499999999999995 1.1629121217827798 0.01285441386357744
v -0.31499999999999995 -0.23506318121587635 0.03164576043095346
v 1.065 0.4684176168805836 0.04773198775645637
v -0.31499999999999995 0.45344046155681084 -0.03720768094084659
vt 0.3636840154515721 0.20743281277343373
vt 0.7093533561639371 0.20581844192480236
vt 0.7093533561639371 0.03283414383606287
vt 0.3636828127734339 0.03444751720209016
vt 0.7080862465360598 0.2044137534639403
vt 0.36245196169124083 0.209642634878331
vt 0.36245196169124083 0.38745196169124085
vt 0.7080862465360598 0.38222308027685004
vn -0.062204260839215604 0.09931541859174702 0.9931098013630684
vn -0.060522753266880294 -0.07025845360861045 0.9956910896626139
usemtl m_594c17e1-d1d3-0429-407c-4aa2ffb46b3a
f 5/1/1 6/2/1 4/3/1 2/4/1
f 6/5/2 5/6/2 1/7/2 3/8/2
o plane
v -0.26810893428601534 0.9035486200152182 -0.09877629413959876
v -0.43414180442456474 0.3350244809186108 0.10081927018490364
v 0.934234115102893 0.6188658664754234 0.09050371384640436
v 0.7682012449643435 0.05034172737881598 0.29009927817090675
vt 0.0625 0.8177083333333334
vt 0.0625 0.6614583333333333
vt 0.375 0.6614583333333333
vt 0.375 0.8177083333333334
vn -0.06500971359003249 0.34740357432343816 0.9354595093782743
usemtl m_594c17e1-d1d3-0429-407c-4aa2ffb46b3a
f 7/9/3 8/10/3 10/11/3 9/12/3
o plane
v 0.7162159580764342 0.3117999679092356 0.020269255793089913
v 0.6065043633014369 -0.24440666409200906 0.2833710393099616
v -0.5140485717275811 0.5224042120720043 -0.04751746153954192
v -0.6237601665025785 -0.03380241992924035 0.21558432197732977
vt 0.5625 0.6458333333333333
vt 0.875 0.6458333333333333
vt 0.875 0.48958333333333337
vt 0.5625 0.48958333333333337
vn 0.022664871057207832 0.42383587949069695 0.9054553831505491
usemtl m_594c17e1-d1d3-0429-407c-4aa2ffb46b3a
f 14/13/4 12/14/4 11/15/4 13/16/4
o plane
v -0.23495986711131656 1.4426739161109878 0.007713022284847909
v -0.3221393005081922 0.8541427349814521 0.19917005462075663
v 0.9997942487383152 1.2502516336515432 -0.021543406162446974
v 0.9126148153414396 0.6617204525220075 0.16991362617346173
vt 0.0078125 0.0625
vt 0.0078125 0.21875
vt 0.3203125 0.21875
vt 0.3203125 0.0625
vn 0.06919541701722295 0.299330303782231 0.951637201617008
usemtl m_594c17e1-d1d3-0429-407c-4aa2ffb46b3a
f 15/17/5 16/18/5 18/19/5 17/20/5