# Made in Blockbench 4.8.3
mtllib vines_3.mtl

o plane
v 1.065 1.1778892771065528 0.0977940825608804
v 1.065 -0.22008602589210363 0.11658542912825637
v -0.31499999999999995 1.1629121217827798 0.01285441386357744
v -0.31499999999999995 -0.23506318121587635 0.03164576043095346
v 1.065 0.4684176168805836 0.04773198775645637
v -0.31499999999999995 0.45344046155681084 -0.03720768094084659
vt 0.4183715154515721 0.20243662608720348
vt 0.7640408561639371 0.20405099693583484
vt 0.7640408561639371 0.37703529502457434
vt 0.4183703127734339 0.37542192165854704
vt 0.7627737465360598 0.2054556853966969
vt 0.41713946169124083 0.2002268039823062
vt 0.41713946169124083 0.02241747716939635
vt 0.7627737465360598 0.027646358583787056
vn -0.062204260839215604 0.09931541859174702 0.9931098013630684
vn -0.060522753266880294 -0.07025845360861045 0.9956910896626139
usemtl m_594c17e1-d1d3-0429-407c-4aa2ffb46b3a
f 5/1/1 6/2/1 4/3/1 2/4/1
f 6/5/2 5/6/2 1/7/2 3/8/2
o plane
v 1.24812175885737 0.47871731605992085 -0.07117769895013829
v 1.3284617907450658 -0.08341133580822707 0.18993886127763177
v 0.008815797235574394 0.34506503368644725 0.022405424021033044
v 0.08915582912327008 -0.2170636181817007 0.28352198424880315
vt 0.421875 0.7291666666666667
vt 0.734375 0.7291666666666667
vt 0.734375 0.9375
vt 0.421875 0.9375
vn 0.022664871057207804 0.4238358794906959 0.9054553831505497
usemtl m_594c17e1-d1d3-0429-407c-4aa2ffb46b3a
f 10/9/3 8/10/3 7/11/3 9/12/3
o plane
v -0.26810893428601534 0.9035486200152182 -0.09877629413959876
v -0.43414180442456474 0.3350244809186108 0.10081927018490364
v 0.934234115102893 0.6188658664754234 0.09050371384640436
v 0.7682012449643435 0.05034172737881598 0.29009927817090675
vt 0 0.234375
vt 0 0.078125
vt 0.3125 0.078125
vt 0.3125 0.234375
vn -0.06500971359003249 0.34740357432343816 0.9354595093782743
usemtl m_594c17e1-d1d3-0429-407c-4aa2ffb46b3a
f 11/13/4 12/14/4 14/15/4 13/16/4
o plane
v -0.05697168607021008 0.44437757411694173 0.08765423893860194
v 0.31889534384614715 -0.014644999947512893 0.28424328319361164
v 0.9384138510796025 1.1731547438349041 -0.11381900824537308
v 1.3142808809959599 0.7141321697704495 0.08277003600963662
vt 0.5546875 0.6510416666666667
vt 0.5546875 0.49479166666666663
vt 0.8671875 0.49479166666666663
vt 0.8671875 0.6510416666666667
vn -0.06500971359003252 0.34740357432343805 0.9354595093782743
usemtl m_594c17e1-d1d3-0429-407c-4aa2ffb46b3a
f 15/17/5 16/18/5 18/19/5 17/20/5
o plane
v -0.3206290232634884 1.52581579094726 -0.04396519500761453
v -0.4078084566603638 0.9372846098177254 0.14749183732829757
v 0.9141250925861433 1.333393508487815 -0.07322162345491098
v 0.8269456591892679 0.7448623273582804 0.11823540888100112
vt 0.0234375 0.59375
vt 0.0234375 0.38541666666666663
vt 0.3359375 0.38541666666666663
vt 0.3359375 0.59375
vn 0.06919541701722508 0.29933030378223624 0.9516372016170063
usemtl m_594c17e1-d1d3-0429-407c-4aa2ffb46b3a
f 19/21/6 20/22/6 22/23/6 21/24/6