# Made in Blockbench 4.8.1
mtllib willow_leaves_slab_upper_3.mtl

o south
v 0.016713270075782383 1.5014131836492313 0.9278910283627106
v 1.277016201679952 1.3011412379631135 -0.0781669562291471
v -0.11780733304824931 -0.11081999847023549 1.0803160060011712
v 1.1424955985559202 -0.3110919441563532 0.07425802140931348
v 1.277016201679952 1.3011412379631135 -0.0781669562291471
v 0.016713270075782383 1.5014131836492313 0.9278910283627106
v 1.1424955985559202 -0.3110919441563532 0.07425802140931348
v -0.11780733304824931 -0.11081999847023549 1.0803160060011712
vt 0.22395833333333331 0.2691441441441441
vt 0.020833333333333315 0.2691441441441441
vt 0.020833333333333315 0.03490990990990994
vt 0.22395833333333331 0.03490990990990994
vt 0.020833333333333315 0.2691441441441441
vt 0.22395833333333326 0.2691441441441441
vt 0.22395833333333326 0.03490990990990994
vt 0.020833333333333315 0.03490990990990994
vn 0.6258088568948814 0.021497228611562558 0.7796801548032013
vn -0.6258088568948814 -0.021497228611562558 -0.7796801548032013
usemtl m_6061bb4a-2653-7d73-028e-c25237d9445d
f 3/4/1 4/3/1 2/2/1 1/1/1
f 7/8/2 8/7/2 6/6/2 5/5/2
o north
v 0.7133700911753906 1.1590879840433754 -0.4372957824116308
v 1.0575012345764276 1.1713205128219246 1.0226439839421653
v 0.7378197790415646 -1.788868909787909 -0.4183586528548564
v 1.0819509224426016 -1.77663638100936 1.0415811134989397
v 0.6660084573107734 0.33859256502459445 -0.41925712927818015
v 1.0101396007118104 0.35082509380314375 1.040682637075616
vt 0.9576289062500001 0.4047162162162161
vt 0.7701289062500001 0.40471621621621623
vt 0.7701289062500001 0.5232117117117119
vt 0.9576289062500001 0.5232117117117117
vt 0.765854296875 0.30683513513513516
vt 0.953354296875 0.30683513513513516
vt 0.953354296875 0
vt 0.765854296875 0
vt 0.9576289062500001 0.4047162162162161
vt 0.9576289062500001 0.5232117117117117
vt 0.7701289062500001 0.5232117117117119
vt 0.7701289062500001 0.40471621621621623
vt 0.765854296875 0
vt 0.953354296875 0
vt 0.953354296875 0.30683513513513505
vt 0.765854296875 0.30683513513513505
vn -0.9716207122256569 0.0611089804500216 0.2285145161307395
vn -0.9727425388442125 -0.03273745224611162 0.22956526815559333
vn 0.9716207122256569 -0.0611089804500216 -0.2285145161307395
vn 0.9727425388442125 0.03273745224611162 -0.22956526815559333
usemtl m_6061bb4a-2653-7d73-028e-c25237d9445d
f 13/9/3 14/10/3 10/11/3 9/12/3
f 14/13/4 13/14/4 11/15/4 12/16/4
f 13/17/5 9/18/5 10/19/5 14/20/5
f 12/21/6 11/22/6 13/23/6 14/24/6
o south
v 0.5084213746448476 1.3329544610371862 1.206493894418364
v 0.454719968236709 -1.7289010899657415 1.2390974792265732
v 0.05790013473708866 1.3256212699932144 -0.22423208797696836
v 0.004198728328950185 -1.7362342810097129 -0.19162850316875918
v 0.10270914017535504 0.4808036439700607 -0.2340118779663225
v 0.553230380083114 0.48813683501403227 1.19671410442901
vt 0.67578125 0.6081081081081081
vt 0.48828125 0.6081081081081081
vt 0.48828125 0.2881612612612613
vt 0.67578125 0.2881612612612613
vt 0.67578125 0.7384054054054054
vt 0.48828125 0.7384054054054054
vt 0.48828125 0.8603603603603603
vt 0.67578125 0.8603603603603603
vt 0.67578125 0.7384054054054054
vt 0.67578125 0.8603603603603603
vt 0.48828125 0.8603603603603603
vt 0.48828125 0.7384054054054054
vt 0.67578125 0.2881612612612613
vt 0.48828125 0.2881612612612613
vt 0.48828125 0.6081081081081081
vt 0.67578125 0.6081081081081081
vn 0.9527967620705838 -0.048066872588652276 -0.29977976240459847
vn 0.9523583484223429 0.05398772188469332 -0.30016479153286507
vn -0.9523583484223429 -0.05398772188469332 0.30016479153286507
vn -0.9527967620705838 0.048066872588652276 0.29977976240459847
usemtl m_6061bb4a-2653-7d73-028e-c25237d9445d
f 19/25/7 20/26/7 16/27/7 18/28/7
f 20/29/8 19/30/8 17/31/8 15/32/8
f 20/33/9 15/34/9 17/35/9 19/36/9
f 18/37/10 16/38/10 20/39/10 19/40/10
o bottom
v -0.4447637194798576 0.3577158954895331 0.2156625063686426
v 0.3211609769585806 0.4930505594950003 1.498255149456936
v -0.4447637194798576 0.3577158954895331 0.2156625063686426
v 0.3211609769585806 0.4930505594950003 1.498255149456936
v 1.5697472656468494 0.7889451248354054 0.7214162434399487
v 0.8038225692084116 0.653610460829938 -0.5611763996483445
v 1.5697472656468494 0.7889451248354054 0.7214162434399487
v 0.8038225692084116 0.653610460829938 -0.5611763996483445
vt 0.0234375 0.9504504504504504
vt 0.0234375 0.7342342342342343
vt 0.2109375 0.7342342342342343
vt 0.2109375 0.9504504504504504
vt 0.2109375 0.9497818130630631
vt 0.2109375 0.7335655968468469
vt 0.0234375 0.7335655968468469
vt 0.0234375 0.9497818130630631
vn -0.21539796665226452 0.9761900850689412 0.025624866344299065
vn 0.21539796665226452 -0.9761900850689412 -0.025624866344299065
usemtl m_6061bb4a-2653-7d73-028e-c25237d9445d
f 26/44/11 21/43/11 22/42/11 25/41/11
f 27/48/12 24/47/12 23/46/12 28/45/12
o east
v -0.12749621742393713 1.3092863683850142 0.9037395366543193
v 1.3116230800993722 1.3816214297142626 0.48696227432045414
v 0.05190018433220778 -1.812096051081058 0.9814487541582542
v 1.4910194818555171 -1.7397609897518094 0.564671491824389
v 1.3415144052689625 0.6921300888629422 0.47050932410919344
v -0.09760489225434699 0.619795027533694 0.8872865864430586
vt 0.95703125 0.4410333333333334
vt 0.76953125 0.4410333333333334
vt 0.76953125 0.5405405405405406
vt 0.95703125 0.5405405405405406
vt 0.95703125 0.4145297297297297
vt 0.76953125 0.4145297297297297
vt 0.76953125 0.06306306306306309
vt 0.95703125 0.06306306306306309
vt 0.95703125 0.4410333333333334
vt 0.95703125 0.5405405405405406
vt 0.76953125 0.5405405405405406
vt 0.76953125 0.4410333333333334
vt 0.95703125 0.06306306306306309
vt 0.76953125 0.06306306306306309
vt 0.76953125 0.4145297297297297
vt 0.95703125 0.4145297297297297
vn -0.2786612413123077 0.010835060702660592 -0.9603283365859063
vn -0.27525877452313624 -0.054087086863345894 -0.9598474848030067
vn 0.2786612413123077 -0.010835060702660592 0.9603283365859063
vn 0.27525877452313624 0.054087086863345894 0.9598474848030067
usemtl m_6061bb4a-2653-7d73-028e-c25237d9445d
f 33/49/13 34/50/13 29/51/13 30/52/13
f 34/53/14 33/54/14 32/55/14 31/56/14
f 33/57/15 30/58/15 29/59/15 34/60/15
f 31/61/16 32/62/16 33/63/16 34/64/16
o west
v -0.20175113675744105 1.0796578227777616 0.35807897041520753
v 1.1021077506247208 0.9834444814924188 -0.37724068439707903
v -0.2899897714374472 -2.0642678269319683 0.6129842517395858
v 1.0138691159447146 -2.160481168217311 -0.1223354030727008
v -0.21923742932454915 0.26131267961469673 0.4341493735538823
v 1.0846214580576126 0.16509933832935408 -0.3011702812584044
vt 0.671875 0.7238468468468469
vt 0.484375 0.7238468468468469
vt 0.484375 0.8423423423423424
vt 0.671875 0.8423423423423424
vt 0.48046875 0.6261261261261262
vt 0.66796875 0.6261261261261262
vt 0.66796875 0.2897630630630631
vt 0.48046875 0.2897630630630631
vt 0.671875 0.7238468468468469
vt 0.671875 0.8423423423423424
vt 0.484375 0.8423423423423424
vt 0.484375 0.7238468468468469
vt 0.48046875 0.6261261261261262
vt 0.48046875 0.2897630630630631
vt 0.66796875 0.2897630630630631
vt 0.66796875 0.6261261261261262
vn 0.49393384412691843 0.0700087954624107 0.8666764829992258
vn 0.49346105072095636 0.051752976596461886 0.8682268256825377
vn -0.49393384412691843 -0.0700087954624107 -0.8666764829992258
vn -0.49346105072095636 -0.051752976596461886 -0.8682268256825377
usemtl m_6061bb4a-2653-7d73-028e-c25237d9445d
f 39/65/17 40/66/17 36/67/17 35/68/17
f 40/69/18 39/70/18 37/71/18 38/72/18
f 39/73/19 35/74/19 36/75/19 40/76/19
f 40/77/20 38/78/20 37/79/20 39/80/20
o top
v 0.409740264819086 0.8067746251220669 -0.680643798313757
v -0.42905358164980845 1.2184034811404842 0.4928069113536264
v 0.409740264819086 0.8067746251220669 -0.680643798313757
v -0.42905358164980845 1.2184034811404842 0.4928069113536264
v 0.6808353281241399 0.8278181278740417 1.423177638415976
v 1.5196291745930344 0.41618927185562427 0.2497269287485928
v 0.6808353281241399 0.8278181278740417 1.423177638415976
v 1.5196291745930344 0.41618927185562427 0.2497269287485928
vt 0.03125 0.5900900900900901
vt 0.03125 0.37387387387387383
vt 0.21875 0.37387387387387383
vt 0.21875 0.5900900900900901
vt 0.21875 0.5900900900900901
vt 0.21875 0.37387387387387383
vt 0.03125 0.37387387387387383
vt 0.03125 0.5900900900900901
vn 0.37391115467995156 0.9256840753870615 -0.05744076062089222
vn -0.37391115467995156 -0.9256840753870615 0.05744076062089222
usemtl m_6061bb4a-2653-7d73-028e-c25237d9445d
f 46/84/21 41/83/21 42/82/21 45/81/21
f 47/88/22 44/87/22 43/86/22 48/85/22