# Made in Blockbench 4.8.1
mtllib willow_leaves_3.mtl

o south
v 1.1240893433786354 1.376904215106175 -0.07228175398237613
v -0.1362135882255332 1.176632269420057 0.9337762306094823
v 1.2586099465026672 -0.23532896701329176 -0.22470673162083654
v -0.0016929851015013986 -0.4356009126994096 0.7813512529710218
v -0.1362135882255332 1.176632269420057 0.9337762306094823
v 1.1240893433786354 1.376904215106175 -0.07228175398237613
v -0.0016929851015013986 -0.4356009126994096 0.7813512529710218
v 1.2586099465026672 -0.23532896701329176 -0.22470673162083654
vt 0.22395833333333331 0.3096846846846847
vt 0.020833333333333315 0.3096846846846847
vt 0.020833333333333315 0.0754504504504504
vt 0.22395833333333331 0.0754504504504504
vt 0.020833333333333315 0.3096846846846847
vt 0.22395833333333326 0.3096846846846847
vt 0.22395833333333326 0.0754504504504504
vt 0.020833333333333315 0.0754504504504504
vn -0.625808856894882 0.0214972286115624 -0.7796801548032011
vn 0.625808856894882 -0.0214972286115624 0.7796801548032011
usemtl m_6061bb4a-2653-7d73-028e-c25237d9445d
f 3/4/1 4/3/1 2/2/1 1/1/1
f 7/8/2 8/7/2 6/6/2 5/5/2
o north
v 0.422258652928104 1.0965879840433754 1.2987675559319065
v 0.07812750952706611 1.1088205128219244 -0.16117221042188923
v 0.3694344518249285 -2.1625513040245097 1.2839114208299247
v 0.025303308423890614 -2.1503187752459607 -0.17602834552387114
v 0.4696202867927214 0.27609256502459445 1.280728902798456
v 0.12548914339168346 0.28832509380314353 -0.17921086355533977
vt 0.7701289062500001 0.5232117117117119
vt 0.7701289062500001 0.40471621621621623
vt 0.9576289062500001 0.4047162162162161
vt 0.9576289062500001 0.5232117117117117
vt 0.94941875 0.42815855855855856
vt 0.76191875 0.42815855855855856
vt 0.76191875 0.07634594594594601
vt 0.94941875 0.07634594594594601
vt 0.9576289062500001 0.4047162162162161
vt 0.9576289062500001 0.5232117117117117
vt 0.7701289062500001 0.5232117117117119
vt 0.7701289062500001 0.40471621621621623
vt 0.94941875 0.07634594594594601
vt 0.76191875 0.07634594594594601
vt 0.76191875 0.42815855855855856
vt 0.94941875 0.42815855855855856
vn -0.9716207122256569 -0.06110898045002171 0.22851451613074014
vn 0.9724614030069401 -0.04025083118312729 -0.2295619529687815
vn -0.9716207122256569 -0.06110898045002171 0.22851451613074014
vn -0.9724614030069401 0.04025083118312729 0.2295619529687815
usemtl m_6061bb4a-2653-7d73-028e-c25237d9445d
f 10/9/3 14/10/3 13/11/3 9/12/3
f 14/13/4 13/14/4 11/15/4 12/16/4
f 13/17/5 9/18/5 10/19/5 14/20/5
f 12/21/6 11/22/6 13/23/6 14/24/6
o east
v 1.2377874114243594 1.2781866444397028 -0.04226776313404368
v -0.20311737447065004 1.2876793567151026 0.37450949919982346
v 1.1838401700309675 -2.2845397812085344 -0.14763076011959575
v -0.25706461586404195 -2.2750470689331346 0.2691465022142715
v -0.20445854185909684 0.5351847447695459 0.38701190948513864
v 1.2364462440359127 0.5256920324941462 -0.02976535284872861
vt 0.765625 0.527027027027027
vt 0.765625 0.4185441441441441
vt 0.953125 0.4185441441441441
vt 0.953125 0.527027027027027
vt 0.95703125 0.48198198198198194
vt 0.76953125 0.48198198198198194
vt 0.76953125 0.07647657657657658
vt 0.95703125 0.07647657657657658
vt 0.953125 0.4185441441441441
vt 0.953125 0.527027027027027
vt 0.765625 0.527027027027027
vt 0.765625 0.4185441441441441
vt 0.95703125 0.07647657657657658
vt 0.76953125 0.07647657657657658
vt 0.76953125 0.48198198198198194
vt 0.95703125 0.48198198198198194
vn -0.2779178557177069 -0.01546268278994747 -0.9604803854916608
vn 0.2772937593897408 -0.04544249240814893 0.9597099305973863
vn -0.2779178557177069 -0.01546268278994747 -0.9604803854916608
vn -0.2772937593897408 0.04544249240814893 -0.9597099305973863
usemtl m_6061bb4a-2653-7d73-028e-c25237d9445d
f 15/25/7 20/26/7 19/27/7 16/28/7
f 20/29/8 19/30/8 18/31/8 17/32/8
f 19/33/9 16/34/9 15/35/9 20/36/9
f 17/37/10 18/38/10 19/39/10 20/40/10
o west
v 1.3608721358779696 0.9521617594237912 0.4964422637274001
v 0.04940738047998783 0.9863358692256965 1.2236921008316504
v 1.2224730636554182 -2.7578580537843322 0.4212014343121393
v -0.08899169174256372 -2.7236839439824267 1.1484512714163895
v 1.3127558978755332 0.31916642729344263 0.4394182587673609
v 0.0012911424775512437 0.353340537095348 1.1666680958716111
vt 0.4921875 0.8558558558558559
vt 0.4921875 0.7639810810810811
vt 0.6796875 0.7639810810810811
vt 0.6796875 0.8558558558558559
vt 0.67578125 0.7567567567567568
vt 0.48828125 0.7567567567567568
vt 0.48828125 0.3130234234234234
vt 0.67578125 0.3130234234234234
vt 0.6796875 0.7639810810810811
vt 0.6796875 0.8558558558558559
vt 0.4921875 0.8558558558558559
vt 0.4921875 0.7639810810810811
vt 0.67578125 0.7567567567567568
vt 0.67578125 0.3130234234234234
vt 0.48828125 0.3130234234234234
vt 0.48828125 0.7567567567567568
vn 0.47946159724835435 -0.11482207371926463 0.8700186596567139
vn -0.48448135988014757 0.01939293667609454 -0.8745866028791888
vn 0.47946159724835435 -0.11482207371926463 0.8700186596567139
vn 0.48448135988014757 -0.01939293667609454 0.8745866028791888
usemtl m_6061bb4a-2653-7d73-028e-c25237d9445d
f 22/41/11 26/42/11 25/43/11 21/44/11
f 26/45/12 25/46/12 23/47/12 24/48/12
f 25/49/13 21/50/13 22/51/13 26/52/13
f 26/53/14 24/54/14 23/55/14 25/56/14
o south
v 0.6391596744887513 1.307773586500339 -0.2805697010859758
v 0.7071083928010901 -2.5609241699003853 -0.49077351004221204
v 1.0896809143965105 1.2380399841895866 1.148474677896266
v 1.157629632708849 -2.630657772211138 0.9382708689400299
v 1.0448719089582441 0.3935998489022504 1.121394732410007
v 0.5943506690504851 0.4633334512130029 -0.3076496465722348
vt 0.48828125 0.7477477477477478
vt 0.67578125 0.7477477477477478
vt 0.67578125 0.310718018018018
vt 0.48828125 0.310718018018018
vt 0.68359375 0.8603603603603603
vt 0.68359375 0.7384054054054054
vt 0.49609375 0.7384054054054054
vt 0.49609375 0.8603603603603603
vt 0.49609375 0.7384054054054054
vt 0.49609375 0.8603603603603603
vt 0.68359375 0.8603603603603603
vt 0.68359375 0.7384054054054054
vt 0.48828125 0.310718018018018
vt 0.67578125 0.310718018018018
vt 0.67578125 0.7477477477477478
vt 0.48828125 0.7477477477477478
vn -0.9531045317895006 -0.053572004898968587 0.2978620347970209
vn 0.9523583484223429 -0.04084333322085139 -0.3022340125162586
vn 0.9523583484223429 -0.04084333322085139 -0.3022340125162586
vn 0.9531045317895006 0.053572004898968587 -0.2978620347970209
usemtl m_6061bb4a-2653-7d73-028e-c25237d9445d
f 31/57/15 32/58/15 28/59/15 30/60/15
f 29/61/16 31/62/16 32/63/16 27/64/16
f 32/65/17 27/66/17 29/67/17 31/68/17
f 30/69/18 28/70/18 32/71/18 31/72/18
o bottom
v 0.2203297427064913 0.04173399453152471 -0.4243371462532628
v -0.2991043705185211 0.31024027843541857 0.9570000962484606
v 0.2203297427064913 0.04173399453152471 -0.4243371462532628
v -0.2991043705185211 0.31024027843541857 0.9570000962484606
v 1.0363795337397441 0.8683420458915467 1.350707041360491
v 1.5558136469647565 0.5998357619876531 -0.030630201141232494
v 1.0363795337397441 0.8683420458915467 1.350707041360491
v 1.5558136469647565 0.5998357619876531 -0.030630201141232494
vt 0.01953125 0.3063063063063063
vt 0.01953125 0.09009009009009006
vt 0.20703125 0.09009009009009006
vt 0.20703125 0.3063063063063063
vt 0.20703125 0.30563766891891897
vt 0.20703125 0.08942145270270274
vt 0.01953125 0.08942145270270274
vt 0.01953125 0.30563766891891897
vn -0.2956506523173338 0.9107815429414863 -0.288214629783883
vn 0.2956506523173338 -0.9107815429414863 0.288214629783883
usemtl m_6061bb4a-2653-7d73-028e-c25237d9445d
f 38/76/19 33/75/19 34/74/19 37/73/19
f 39/80/20 36/79/20 35/78/20 40/77/20
o top
v 1.1535271877061584 0.896794045825245 1.3289924079281386
v 1.3282313016660976 1.1128810615442801 -0.14504452315707483
v 1.1535271877061584 0.896794045825245 1.3289924079281386
v 1.3282313016660976 1.1128810615442801 -0.14504452315707483
v -0.0910651923040603 0.6858874956525494 -0.37585604126456096
v -0.2657693062639995 0.46980047993351426 1.0981808898206524
v -0.0910651923040603 0.6858874956525494 -0.37585604126456096
v -0.2657693062639995 0.46980047993351426 1.0981808898206524
vt 0.01953125 0.5900900900900901
vt 0.01953125 0.37387387387387383
vt 0.20703125 0.37387387387387383
vt 0.20703125 0.5900900900900901
vt 0.20703125 0.5900900900900901
vt 0.20703125 0.37387387387387383
vt 0.01953125 0.37387387387387383
vt 0.01953125 0.5900900900900901
vn -0.30190207004515784 0.9477418533486627 0.103152893869685
vn 0.30190207004515784 -0.9477418533486627 -0.103152893869685
usemtl m_6061bb4a-2653-7d73-028e-c25237d9445d
f 46/84/21 41/83/21 42/82/21 45/81/21
f 47/88/22 44/87/22 43/86/22 48/85/22