# Made in Blockbench 4.8.1
mtllib willow_leaves_slab_upper_2.mtl

o south
v 1.0649695136543205 1.5014131836492313 0.9818369887361023
v 0.058911529062462 1.3011412379631135 -0.27846594286806675
v 1.2173944912927808 -0.11081999847023538 1.1163575918601338
v 0.2113365067009224 -0.3110919441563532 -0.14394533974403506
v 0.058911529062462 1.3011412379631135 -0.27846594286806675
v 1.0649695136543205 1.5014131836492313 0.9818369887361023
v 0.2113365067009224 -0.3110919441563532 -0.14394533974403506
v 1.2173944912927808 -0.11081999847023538 1.1163575918601338
vt 0.22395833333333331 0.2691441441441441
vt 0.020833333333333315 0.2691441441441441
vt 0.020833333333333315 0.03490990990990994
vt 0.22395833333333331 0.03490990990990994
vt 0.020833333333333315 0.2691441441441441
vt 0.22395833333333326 0.2691441441441441
vt 0.22395833333333326 0.03490990990990994
vt 0.020833333333333315 0.03490990990990994
vn 0.779680154803201 0.021497228611562384 -0.6258088568948819
vn -0.779680154803201 -0.021497228611562384 0.6258088568948819
usemtl m_6061bb4a-2653-7d73-028e-c25237d9445d
f 3/4/1 4/3/1 2/2/1 1/1/1
f 7/8/2 8/7/2 6/6/2 5/5/2
o north
v -0.30021729712002154 1.1590879840433754 0.28518016763649473
v 1.1597224692337744 1.1713205128219244 -0.05895097576454303
v -0.2812801675632475 -1.788868909787909 0.2607304797703212
v 1.1786595987905484 -1.77663638100936 -0.08340066363071658
v -0.282178643986571 0.33859256502459445 0.3325418015011121
v 1.1777611223672249 0.35082509380314353 -0.011589341899925665
vt 0.9576289062500001 0.4047162162162161
vt 0.7701289062500001 0.40471621621621623
vt 0.7701289062500001 0.5232117117117119
vt 0.9576289062500001 0.5232117117117117
vt 0.765854296875 0.30683513513513516
vt 0.953354296875 0.30683513513513516
vt 0.953354296875 0
vt 0.765854296875 0
vt 0.9576289062500001 0.4047162162162161
vt 0.9576289062500001 0.5232117117117117
vt 0.7701289062500001 0.5232117117117119
vt 0.7701289062500001 0.40471621621621623
vt 0.765854296875 0
vt 0.953354296875 0
vt 0.953354296875 0.30683513513513505
vt 0.765854296875 0.30683513513513505
vn 0.22851451613074003 0.06110898045002168 0.9716207122256568
vn 0.22956526815559383 -0.032737452246111534 0.9727425388442124
vn -0.22851451613074003 -0.06110898045002168 -0.9716207122256568
vn -0.22956526815559383 0.032737452246111534 -0.9727425388442124
usemtl m_6061bb4a-2653-7d73-028e-c25237d9445d
f 13/9/3 14/10/3 10/11/3 9/12/3
f 14/13/4 13/14/4 11/15/4 12/16/4
f 13/17/5 9/18/5 10/19/5 14/20/5
f 12/21/6 11/22/6 13/23/6 14/24/6
o south
v 1.3435723797099737 1.3329544610371862 0.490128884167037
v 1.3761759645181821 -1.7289010899657415 0.5438302905751758
v -0.08715360268535866 1.3256212699932146 0.9406501240747966
v -0.05455001787714997 -1.7362342810097129 0.9943515304829355
v -0.09693339267471301 0.48080364397006076 0.8958411186365304
v 1.3337925897206193 0.48813683501403216 0.44531987872877077
vt 0.67578125 0.6081081081081081
vt 0.48828125 0.6081081081081081
vt 0.48828125 0.2881612612612613
vt 0.67578125 0.2881612612612613
vt 0.67578125 0.7384054054054054
vt 0.48828125 0.7384054054054054
vt 0.48828125 0.8603603603603603
vt 0.67578125 0.8603603603603603
vt 0.67578125 0.7384054054054054
vt 0.67578125 0.8603603603603603
vt 0.48828125 0.8603603603603603
vt 0.48828125 0.7384054054054054
vt 0.67578125 0.2881612612612613
vt 0.48828125 0.2881612612612613
vt 0.48828125 0.6081081081081081
vt 0.67578125 0.6081081081081081
vn -0.299779762404599 -0.04806687258865235 -0.9527967620705838
vn -0.3001647915328656 0.053987721884693245 -0.9523583484223429
vn 0.3001647915328656 -0.053987721884693245 0.9523583484223429
vn 0.299779762404599 0.04806687258865235 0.9527967620705838
usemtl m_6061bb4a-2653-7d73-028e-c25237d9445d
f 19/25/7 20/26/7 16/27/7 18/28/7
f 20/29/8 19/30/8 17/31/8 15/32/8
f 20/33/9 15/34/9 17/35/9 19/36/9
f 18/37/10 16/38/10 20/39/10 19/40/10
o bottom
v 0.3527409916602523 0.3577158954895332 1.4433139782917426
v 1.6353336347485454 0.4930505594950003 0.6773892818533038
v 0.3527409916602523 0.3577158954895332 1.4433139782917426
v 1.6353336347485454 0.4930505594950003 0.6773892818533038
v 0.8584947287315576 0.7889451248354051 -0.5711970068349648
v -0.4240979143567354 0.6536104608299382 0.19472768960347397
v 0.8584947287315576 0.7889451248354051 -0.5711970068349648
v -0.4240979143567354 0.6536104608299382 0.19472768960347397
vt 0.0234375 0.9504504504504504
vt 0.0234375 0.7342342342342343
vt 0.2109375 0.7342342342342343
vt 0.2109375 0.9504504504504504
vt 0.2109375 0.9497818130630631
vt 0.2109375 0.7335655968468469
vt 0.0234375 0.7335655968468469
vt 0.0234375 0.9497818130630631
vn 0.025624866344299307 0.9761900850689413 0.2153979666522644
vn -0.025624866344299307 -0.9761900850689413 -0.2153979666522644
usemtl m_6061bb4a-2653-7d73-028e-c25237d9445d
f 26/44/11 21/43/11 22/42/11 25/41/11
f 27/48/12 24/47/12 23/46/12 28/45/12
o east
v 1.0408180219459289 1.3092863683850142 1.1260464762358218
v 0.6240407596120631 1.3816214297142624 -0.31307282128748726
v 1.1185272394498633 -1.812096051081058 0.9466500744796773
v 0.7017499771159975 -1.7397609897518098 -0.49246922304363183
v 0.6075878094008024 0.6921300888629421 -0.3429641464570772
v 1.0243650717346682 0.619795027533694 1.096155151066232
vt 0.95703125 0.4410333333333334
vt 0.76953125 0.4410333333333334
vt 0.76953125 0.5405405405405406
vt 0.95703125 0.5405405405405406
vt 0.95703125 0.4145297297297297
vt 0.76953125 0.4145297297297297
vt 0.76953125 0.06306306306306309
vt 0.95703125 0.06306306306306309
vt 0.95703125 0.4410333333333334
vt 0.95703125 0.5405405405405406
vt 0.76953125 0.5405405405405406
vt 0.76953125 0.4410333333333334
vt 0.95703125 0.06306306306306309
vt 0.76953125 0.06306306306306309
vt 0.76953125 0.4145297297297297
vt 0.95703125 0.4145297297297297
vn -0.9603283365859061 0.010835060702660762 0.2786612413123082
vn -0.9598474848030067 -0.05408708686334574 0.2752587745231368
vn 0.9603283365859061 -0.010835060702660762 -0.2786612413123082
vn 0.9598474848030067 0.05408708686334574 -0.2752587745231368
usemtl m_6061bb4a-2653-7d73-028e-c25237d9445d
f 33/49/13 34/50/13 29/51/13 30/52/13
f 34/53/14 33/54/14 32/55/14 31/56/14
f 33/57/15 30/58/15 29/59/15 34/60/15
f 31/61/16 32/62/16 33/63/16 34/64/16
o west
v 0.4951574557068172 1.0796578227777616 1.2003013955693262
v -0.2401621991054701 0.9834444814924188 -0.10355749181283547
v 0.7500627370311952 -2.0642678269319683 1.2885400302493326
v 0.01474308221890791 -2.160481168217311 -0.015318857132828989
v 0.5712278588454919 0.26131267961469673 1.2177876881364345
v -0.16409179596679546 0.16509933832935408 -0.08607119924572726
vt 0.671875 0.7238468468468469
vt 0.484375 0.7238468468468469
vt 0.484375 0.8423423423423424
vt 0.671875 0.8423423423423424
vt 0.48046875 0.6261261261261262
vt 0.66796875 0.6261261261261262
vt 0.66796875 0.2897630630630631
vt 0.48046875 0.2897630630630631
vt 0.671875 0.7238468468468469
vt 0.671875 0.8423423423423424
vt 0.484375 0.8423423423423424
vt 0.484375 0.7238468468468469
vt 0.48046875 0.6261261261261262
vt 0.48046875 0.2897630630630631
vt 0.66796875 0.2897630630630631
vt 0.66796875 0.6261261261261262
vn 0.8666764829992256 0.07000879546241054 -0.4939338441269189
vn 0.8682268256825377 0.05175297659646173 -0.49346105072095686
vn -0.8666764829992256 -0.07000879546241054 0.4939338441269189
vn -0.8682268256825377 -0.05175297659646173 0.49346105072095686
usemtl m_6061bb4a-2653-7d73-028e-c25237d9445d
f 39/65/17 40/66/17 36/67/17 35/68/17
f 40/69/18 39/70/18 37/71/18 38/72/18
f 39/73/19 35/74/19 36/75/19 40/76/19
f 40/77/20 38/78/20 37/79/20 39/80/20
o top
v -0.5435653130221475 0.8067746251220669 0.5888099939927995
v 0.6298853966452362 1.2184034811404845 1.4276038404616935
v -0.5435653130221475 0.8067746251220669 0.5888099939927995
v 0.6298853966452362 1.2184034811404845 1.4276038404616935
v 1.5602561237075854 0.8278181278740415 0.3177149306877445
v 0.3868054140402015 0.41618927185562404 -0.5210789157811493
v 1.5602561237075854 0.8278181278740415 0.3177149306877445
v 0.3868054140402015 0.41618927185562404 -0.5210789157811493
vt 0.03125 0.5900900900900901
vt 0.03125 0.37387387387387383
vt 0.21875 0.37387387387387383
vt 0.21875 0.5900900900900901
vt 0.21875 0.5900900900900901
vt 0.21875 0.37387387387387383
vt 0.03125 0.37387387387387383
vt 0.03125 0.5900900900900901
vn -0.05744076062089232 0.9256840753870614 -0.3739111546799516
vn 0.05744076062089232 -0.9256840753870614 0.3739111546799516
usemtl m_6061bb4a-2653-7d73-028e-c25237d9445d
f 46/84/21 41/83/21 42/82/21 45/81/21
f 47/88/22 44/87/22 43/86/22 48/85/22