# Made in Blockbench 4.8.1
mtllib willow_leaves_vertical_slab.mtl

o west
v 1.2348352876495052 1.0856665067245137 0.39941863916098247
v -0.25150812663039024 1.0030326225655426 0.5836871823678571
v 1.4019344420242876 -2.06471369639499 0.33450563276050255
v -0.08440897225560773 -2.147347580553961 0.5187741759673772
v 1.2769845848634276 0.2651650145862438 0.3714545882519125
v -0.20935882941646788 0.18253113042727287 0.5557231314587872
vt 0.484375 0.8423423423423424
vt 0.484375 0.7238468468468469
vt 0.671875 0.7238468468468469
vt 0.671875 0.8423423423423424
vt 0.48828125 0.7207207207207207
vt 0.67578125 0.7207207207207207
vt 0.67578125 0.3843576576576577
vt 0.48828125 0.3843576576576577
vt 0.671875 0.7238468468468469
vt 0.671875 0.8423423423423424
vt 0.484375 0.8423423423423424
vt 0.484375 0.7238468468468469
vt 0.48828125 0.7207207207207207
vt 0.48828125 0.3843576576576577
vt 0.67578125 0.3843576576576577
vt 0.67578125 0.7207207207207207
vn 0.12448689963954943 -0.027408727796878384 0.9918426152664996
vn -0.12352632198660868 0.009111990342728957 -0.9922994605503194
vn 0.12448689963954943 -0.027408727796878384 0.9918426152664996
vn 0.12352632198660868 -0.009111990342728957 0.9922994605503194
usemtl m_6061bb4a-2653-7d73-028e-c25237d9445d
f 2/1/1 6/2/1 5/3/1 1/4/1
f 6/5/2 5/6/2 3/7/2 4/8/2
f 5/9/3 1/10/3 2/11/3 6/12/3
f 6/13/4 4/14/4 3/15/4 5/16/4
o south
v 0.8602704110356887 1.2085920102462107 -0.4168663744079839
v 0.9063472624179947 -1.1034213542023141 -0.42815248880159906
v 0.8597125581652064 1.2012587169049498 1.0831155960199765
v 0.9057894095475123 -1.110754647543575 1.0718294816263614
v 0.8140367944542675 0.3564410812217269 1.0789683622392543
v 0.8145946473247497 0.3637743745629879 -0.42101360818870615
vt 0.96875 0.8288288288288288
vt 0.78125 0.8288288288288288
vt 0.78125 0.6169261261261261
vt 0.96875 0.6169261261261261
vt 0.7734375 1
vt 0.7734375 0.878045045045045
vt 0.9609375 0.878045045045045
vt 0.9609375 1
vt 0.9609375 0.878045045045045
vt 0.9609375 1
vt 0.7734375 1
vt 0.7734375 0.878045045045045
vt 0.96875 0.6169261261261261
vt 0.78125 0.6169261261261261
vt 0.78125 0.8288288288288288
vt 0.96875 0.8288288288288288
vn -0.9980503150271995 -0.06241082669310391 -0.0006763028842576087
vn 0.9985416054499404 -0.053987504532795376 0.0001074233534611479
vn 0.9985416054499404 -0.053987504532795376 0.0001074233534611479
vn 0.9980503150271995 0.06241082669310391 0.0006763028842576087
usemtl m_6061bb4a-2653-7d73-028e-c25237d9445d
f 11/17/5 12/18/5 8/19/5 10/20/5
f 9/21/6 11/22/6 12/23/6 7/24/6
f 12/25/7 7/26/7 9/27/7 11/28/7
f 10/29/8 8/30/8 12/31/8 11/32/8
o top
v 0.35608341955133027 0.4175319440537344 1.315769182288908
v 1.508919490329259 0.8291600904761083 0.4488601541976167
v 0.35608341955133027 0.4175319440537344 1.315769182288908
v 1.508919490329259 0.8291600904761083 0.4488601541976167
v 0.7301680785600242 0.43857483437473666 -0.7722006126701304
v -0.4226679922179047 0.026946687952362658 0.09470841542116082
v 0.7301680785600242 0.43857483437473666 -0.7722006126701304
v -0.4226679922179047 0.026946687952362658 0.09470841542116082
vt 0.0234375 0.05405405405405406
vt 0.0234375 0.2702702702702703
vt 0.2109375 0.2702702702702703
vt 0.2109375 0.05405405405405406
vt 0.2109375 0.05405405405405406
vt 0.2109375 0.2702702702702703
vt 0.0234375 0.2702702702702703
vt 0.0234375 0.05405405405405406
vn -0.37387771772821393 0.9256842338482161 -0.05765545413214186
vn 0.37387771772821393 -0.9256842338482161 0.05765545413214186
usemtl m_6061bb4a-2653-7d73-028e-c25237d9445d
f 18/36/9 13/35/9 14/34/9 17/33/9
f 19/40/10 16/39/10 15/38/10 20/37/10
o east
v 1.3490140179597974 1.340686823110656 0.18108949886912995
v -0.15052863547550904 1.3501795779597692 0.1452884076347164
v 1.331302269235024 -1.7855498472190146 0.0940230010461261
v -0.16824038420028226 -1.7760570923699013 0.05822190981171255
v -0.15527365814030963 0.6600406306233333 0.16104334747167992
v 1.3442689952949967 0.6505478757742199 0.19684443870609347
vt 0.76953125 0.5405405405405406
vt 0.76953125 0.4410333333333334
vt 0.95703125 0.4410333333333334
vt 0.95703125 0.5405405405405406
vt 0.9609375 0.4370522522522522
vt 0.7734375 0.4370522522522522
vt 0.7734375 0.0855855855855856
vt 0.9609375 0.0855855855855856
vt 0.95703125 0.4410333333333334
vt 0.95703125 0.5405405405405406
vt 0.76953125 0.5405405405405406
vt 0.76953125 0.4410333333333334
vt 0.9609375 0.0855855855855856
vt 0.7734375 0.0855855855855856
vt 0.7734375 0.4370522522522522
vt 0.9609375 0.4370522522522522
vn 0.023716183567758484 -0.022979257979419382 -0.999454599438962
vn -0.024112694344205196 -0.042029511268887786 0.9988253591864604
vn 0.023716183567758484 -0.022979257979419382 -0.999454599438962
vn 0.024112694344205196 0.042029511268887786 -0.9988253591864604
usemtl m_6061bb4a-2653-7d73-028e-c25237d9445d
f 21/41/11 26/42/11 25/43/11 22/44/11
f 26/45/12 25/46/12 24/47/12 23/48/12
f 25/49/13 22/50/13 21/51/13 26/52/13
f 23/53/14 24/54/14 25/55/14 26/56/14
o north
v 0.165891850163659 1.0356342432045857 1.0883126587630843
v 0.27670122865278657 1.047866920098808 -0.40753881890936705
v 0.19918599988241426 -1.3521943589062015 1.0712519865562062
v 0.30999537837154184 -1.3399616820119795 -0.42459949111624484
v 0.21648527030626302 0.2151387936631594 1.0853507134416995
v 0.3272946487953906 0.22737147055738155 -0.41050076423075177
vt 0.7779414062500001 1
vt 0.7779414062500001 0.8815045045045045
vt 0.9654414062500001 0.8815045045045043
vt 0.9654414062500001 0.9999999999999999
vt 0.96515546875 0.7571162162162163
vt 0.77765546875 0.7571162162162163
vt 0.77765546875 0.5311720720720721
vt 0.96515546875 0.5311720720720721
vt 0.9654414062500001 0.8815045045045043
vt 0.9654414062500001 0.9999999999999999
vt 0.7779414062500001 1
vt 0.7779414062500001 0.8815045045045045
vt 0.96515546875 0.5311720720720721
vt 0.77765546875 0.5311720720720721
vt 0.77765546875 0.7571162162162163
vt 0.96515546875 0.7571162162162163
vn -0.9953667848170022 -0.06110836083034715 -0.07423430419753328
vn 0.9972065946987348 -0.01167019669786211 0.07377542950323192
vn -0.9953667848170022 -0.06110836083034715 -0.07423430419753328
vn -0.9972065946987348 0.01167019669786211 -0.07377542950323192
usemtl m_6061bb4a-2653-7d73-028e-c25237d9445d
f 28/57/15 32/58/15 31/59/15 27/60/15
f 32/61/16 31/62/16 29/63/16 30/64/16
f 31/65/17 27/66/17 28/67/17 32/68/17
f 30/69/18 29/70/18 31/71/18 32/72/18
o bottom
v -0.2780783839200604 0.6078403628116607 0.9302675927158723
v 1.2156418348126201 0.7431743982986274 0.908253801856352
v -0.2780783839200604 0.6078403628116607 0.9302675927158723
v 1.2156418348126201 0.7431743982986274 0.908253801856352
v 1.167173105168428 1.0390678561986904 -0.5614733305796739
v -0.32654711356425253 0.9037338207117238 -0.5394595397201534
v 1.167173105168428 1.0390678561986904 -0.5614733305796739
v -0.32654711356425253 0.9037338207117238 -0.5394595397201534
vt 0.296875 0.2484163851351351
vt 0.296875 0.03220016891891897
vt 0.484375 0.03220016891891897
vt 0.484375 0.2484163851351351
vt 0.484375 0.24774774774774777
vt 0.484375 0.03153153153153154
vt 0.296875 0.03153153153153154
vt 0.296875 0.24774774774774777
vn -0.08550682986593 0.9761902729854703 0.199351781970545
vn 0.08550682986593 -0.9761902729854703 -0.199351781970545
usemtl m_6061bb4a-2653-7d73-028e-c25237d9445d
f 38/76/19 33/75/19 34/74/19 37/73/19
f 39/80/20 36/79/20 35/78/20 40/77/20