# Made in Blockbench 4.8.1
mtllib willow_leaves_vertical_slab_2.mtl

o south
v 0.8602704110356887 1.2085920102462107 -0.4168663744079839
v 0.9063472624179947 -1.1034213542023141 -0.42815248880159906
v 0.8597125581652064 1.2012587169049498 1.0831155960199765
v 0.9057894095475123 -1.110754647543575 1.0718294816263614
v 0.8140367944542675 0.3564410812217269 1.0789683622392543
v 0.8145946473247497 0.3637743745629879 -0.42101360818870615
vt 0.96875 0.8288288288288288
vt 0.78125 0.8288288288288288
vt 0.78125 0.6169261261261261
vt 0.96875 0.6169261261261261
vt 0.7734375 1
vt 0.7734375 0.878045045045045
vt 0.9609375 0.878045045045045
vt 0.9609375 1
vt 0.9609375 0.878045045045045
vt 0.9609375 1
vt 0.7734375 1
vt 0.7734375 0.878045045045045
vt 0.96875 0.6169261261261261
vt 0.78125 0.6169261261261261
vt 0.78125 0.8288288288288288
vt 0.96875 0.8288288288288288
vn -0.9980503150271995 -0.06241082669310391 -0.0006763028842576087
vn 0.9985416054499404 -0.053987504532795376 0.0001074233534611479
vn 0.9985416054499404 -0.053987504532795376 0.0001074233534611479
vn 0.9980503150271995 0.06241082669310391 0.0006763028842576087
usemtl m_6061bb4a-2653-7d73-028e-c25237d9445d
f 5/1/1 6/2/1 2/3/1 4/4/1
f 3/5/2 5/6/2 6/7/2 1/8/2
f 6/9/3 1/10/3 3/11/3 5/12/3
f 4/13/4 2/14/4 6/15/4 5/16/4
o north
v 0.165891850163659 1.0356342432045857 1.0883126587630843
v 0.27670122865278657 1.047866920098808 -0.40753881890936705
v 0.19918599988241426 -1.3521943589062015 1.0712519865562062
v 0.30999537837154184 -1.3399616820119795 -0.42459949111624484
v 0.21648527030626302 0.2151387936631594 1.0853507134416995
v 0.3272946487953906 0.22737147055738155 -0.41050076423075177
vt 0.7779414062500001 1
vt 0.7779414062500001 0.8815045045045045
vt 0.9654414062500001 0.8815045045045043
vt 0.9654414062500001 0.9999999999999999
vt 0.96515546875 0.7571162162162163
vt 0.77765546875 0.7571162162162163
vt 0.77765546875 0.5311720720720721
vt 0.96515546875 0.5311720720720721
vt 0.9654414062500001 0.8815045045045043
vt 0.9654414062500001 0.9999999999999999
vt 0.7779414062500001 1
vt 0.7779414062500001 0.8815045045045045
vt 0.96515546875 0.5311720720720721
vt 0.77765546875 0.5311720720720721
vt 0.77765546875 0.7571162162162163
vt 0.96515546875 0.7571162162162163
vn -0.9953667848170022 -0.06110836083034715 -0.07423430419753328
vn 0.9972065946987348 -0.01167019669786211 0.07377542950323192
vn -0.9953667848170022 -0.06110836083034715 -0.07423430419753328
vn -0.9972065946987348 0.01167019669786211 -0.07377542950323192
usemtl m_6061bb4a-2653-7d73-028e-c25237d9445d
f 8/17/5 12/18/5 11/19/5 7/20/5
f 12/21/6 11/22/6 9/23/6 10/24/6
f 11/25/7 7/26/7 8/27/7 12/28/7
f 10/29/8 9/30/8 11/31/8 12/32/8
o east
v 1.3490140179597974 1.340686823110656 0.18108949886912995
v -0.15052863547550904 1.3501795779597692 0.1452884076347164
v 1.331302269235024 -1.7855498472190146 0.0940230010461261
v -0.16824038420028226 -1.7760570923699013 0.05822190981171255
v -0.15527365814030963 0.6600406306233333 0.16104334747167992
v 1.3442689952949967 0.6505478757742199 0.19684443870609347
vt 0.7578125 0.545045045045045
vt 0.7578125 0.44553783783783785
vt 0.9453125 0.44553783783783785
vt 0.9453125 0.545045045045045
vt 0.9609375 0.46858378378378374
vt 0.7734375 0.46858378378378374
vt 0.7734375 0.11711711711711714
vt 0.9609375 0.11711711711711714
vt 0.9453125 0.44553783783783785
vt 0.9453125 0.545045045045045
vt 0.7578125 0.545045045045045
vt 0.7578125 0.44553783783783785
vt 0.9609375 0.11711711711711714
vt 0.7734375 0.11711711711711714
vt 0.7734375 0.46858378378378374
vt 0.9609375 0.46858378378378374
vn 0.023716183567758484 -0.022979257979419382 -0.999454599438962
vn -0.024112694344205196 -0.042029511268887786 0.9988253591864604
vn 0.023716183567758484 -0.022979257979419382 -0.999454599438962
vn 0.024112694344205196 0.042029511268887786 -0.9988253591864604
usemtl m_6061bb4a-2653-7d73-028e-c25237d9445d
f 13/33/9 18/34/9 17/35/9 14/36/9
f 18/37/10 17/38/10 16/39/10 15/40/10
f 17/41/11 14/42/11 13/43/11 18/44/11
f 15/45/12 16/46/12 17/47/12 18/48/12
o bottom
v 1.4894721370865733 0.6868948765790832 -0.04847722034023627
v 0.032080091468351224 0.811919928302518 -0.3807078056425025
v 1.4894721370865733 0.6868948765790832 -0.04847722034023627
v 0.032080091468351224 0.811919928302518 -0.3807078056425025
v -0.30835559718241995 0.7173376881398053 1.0770842720347908
v 1.1490364484358024 0.5923126364163704 1.409314857337057
v -0.30835559718241995 0.7173376881398053 1.0770842720347908
v 1.1490364484358024 0.5923126364163704 1.409314857337057
vt 0.296875 0.2484163851351351
vt 0.296875 0.03220016891891897
vt 0.484375 0.03220016891891897
vt 0.484375 0.2484163851351351
vt 0.484375 0.24774774774774777
vt 0.484375 0.03153153153153154
vt 0.296875 0.03153153153153154
vt 0.296875 0.24774774774774777
vn 0.06703885195784863 0.9945234338979438 0.08018061957864686
vn -0.06703885195784863 -0.9945234338979438 -0.08018061957864686
usemtl m_6061bb4a-2653-7d73-028e-c25237d9445d
f 24/52/13 19/51/13 20/50/13 23/49/13
f 25/56/14 22/55/14 21/54/14 26/53/14
o west
v 1.2348352876495052 1.0856665067245137 0.39941863916098247
v -0.25150812663039024 1.0030326225655426 0.5836871823678571
v 1.4019344420242876 -2.06471369639499 0.33450563276050255
v -0.08440897225560773 -2.147347580553961 0.5187741759673772
v 1.2769845848634276 0.2651650145862438 0.3714545882519125
v -0.20935882941646788 0.18253113042727287 0.5557231314587872
vt 0.4921875 0.8603603603603603
vt 0.4921875 0.7418648648648649
vt 0.6796875 0.7418648648648649
vt 0.6796875 0.8603603603603603
vt 0.4921875 0.6711711711711712
vt 0.6796875 0.6711711711711712
vt 0.6796875 0.3348081081081081
vt 0.4921875 0.3348081081081081
vt 0.6796875 0.7418648648648649
vt 0.6796875 0.8603603603603603
vt 0.4921875 0.8603603603603603
vt 0.4921875 0.7418648648648649
vt 0.4921875 0.6711711711711712
vt 0.4921875 0.3348081081081081
vt 0.6796875 0.3348081081081081
vt 0.6796875 0.6711711711711712
vn 0.12448689963954943 -0.027408727796878384 0.9918426152664996
vn -0.12352632198660868 0.009111990342728957 -0.9922994605503194
vn 0.12448689963954943 -0.027408727796878384 0.9918426152664996
vn 0.12352632198660868 -0.009111990342728957 0.9922994605503194
usemtl m_6061bb4a-2653-7d73-028e-c25237d9445d
f 28/57/15 32/58/15 31/59/15 27/60/15
f 32/61/16 31/62/16 29/63/16 30/64/16
f 31/65/17 27/66/17 28/67/17 32/68/17
f 32/69/18 30/70/18 29/71/18 31/72/18
o top
v 0.06631166963545965 0.6582697930645622 1.1164166616157694
v 1.4243833172795908 0.17200933268738916 0.705086910030821
v 0.06631166963545965 0.6582697930645622 1.1164166616157694
v 1.4243833172795908 0.17200933268738916 0.705086910030821
v 0.8613456374170001 -0.2917814105048353 -0.6055948658339985
v -0.49672601022713103 0.19447904987233766 -0.19426511424905019
v 0.8613456374170001 -0.2917814105048353 -0.6055948658339985
v -0.49672601022713103 0.19447904987233766 -0.19426511424905019
vt 0.0234375 0.05405405405405406
vt 0.0234375 0.2702702702702703
vt 0.2109375 0.2702702702702703
vt 0.2109375 0.05405405405405406
vt 0.2109375 0.05405405405405406
vt 0.2109375 0.2702702702702703
vt 0.0234375 0.2702702702702703
vt 0.0234375 0.05405405405405406
vn 0.19847190780237395 0.8940417368340956 -0.40161956452837266
vn -0.19847190780237395 -0.8940417368340956 0.40161956452837266
usemtl m_6061bb4a-2653-7d73-028e-c25237d9445d
f 38/76/19 33/75/19 34/74/19 37/73/19
f 39/80/20 36/79/20 35/78/20 40/77/20