# Made in Blockbench 4.8.1
mtllib willow_leaves_4.mtl

o south
v 0.028886773363007934 1.376904215106175 -0.08909745203381136
v 1.0349447579548658 1.176632269420057 1.171205479570358
v -0.12353820427545242 -0.23532896701329176 -0.22361805515784317
v 0.8825197803164055 -0.4356009126994096 1.0366848764463261
v 1.0349447579548658 1.176632269420057 1.171205479570358
v 0.028886773363007934 1.376904215106175 -0.08909745203381136
v 0.8825197803164055 -0.4356009126994096 1.0366848764463261
v -0.12353820427545242 -0.23532896701329176 -0.22361805515784317
vt 0.22395833333333331 0.3096846846846847
vt 0.020833333333333315 0.3096846846846847
vt 0.020833333333333315 0.0754504504504504
vt 0.22395833333333331 0.0754504504504504
vt 0.020833333333333315 0.3096846846846847
vt 0.22395833333333326 0.3096846846846847
vt 0.22395833333333326 0.0754504504504504
vt 0.020833333333333315 0.0754504504504504
vn -0.7796801548032014 0.02149722861156238 0.6258088568948816
vn 0.7796801548032014 -0.02149722861156238 -0.6258088568948816
usemtl m_6061bb4a-2653-7d73-028e-c25237d9445d
f 3/4/1 4/3/1 2/2/1 1/1/1
f 7/8/2 8/7/2 6/6/2 5/5/2
o north
v 1.3999360832772902 1.0965879840433754 0.6127332384167211
v -0.06000368307650561 1.1088205128219244 0.9568643818177582
v 1.3850799481753082 -2.1625513040245097 0.6655574395198967
v -0.07485981817848764 -2.1503187752459607 1.0096885829209337
v 1.3818974301438396 0.27609256502459445 0.5653716045521038
v -0.07804233620995615 0.28832509380314353 0.9095027479531408
vt 0.7701289062500001 0.5232117117117119
vt 0.7701289062500001 0.40471621621621623
vt 0.9576289062500001 0.4047162162162161
vt 0.9576289062500001 0.5232117117117117
vt 0.94941875 0.42815855855855856
vt 0.76191875 0.42815855855855856
vt 0.76191875 0.07634594594594601
vt 0.94941875 0.07634594594594601
vt 0.9576289062500001 0.4047162162162161
vt 0.9576289062500001 0.5232117117117117
vt 0.7701289062500001 0.5232117117117119
vt 0.7701289062500001 0.40471621621621623
vt 0.94941875 0.07634594594594601
vt 0.76191875 0.07634594594594601
vt 0.76191875 0.42815855855855856
vt 0.94941875 0.42815855855855856
vn 0.22851451613073964 -0.06110898045002168 0.971620712225657
vn -0.22956195296878107 -0.0402508311831273 -0.9724614030069404
vn 0.22851451613073964 -0.06110898045002168 0.971620712225657
vn 0.22956195296878107 0.0402508311831273 0.9724614030069404
usemtl m_6061bb4a-2653-7d73-028e-c25237d9445d
f 10/9/3 14/10/3 13/11/3 9/12/3
f 14/13/4 13/14/4 11/15/4 12/16/4
f 13/17/5 9/18/5 10/19/5 14/20/5
f 12/21/6 11/22/6 13/23/6 14/24/6
o south
v -0.17940117374059217 1.307773586500339 0.3958322168560727
v -0.3896049826968283 -2.5609241699003853 0.3278834985437339
v 1.2496432052416502 1.2380399841895866 -0.05468902305168555
v 1.039439396285414 -2.630657772211138 -0.12263774136402439
v 1.222563259755391 0.3935998489022504 -0.009880017613419279
v -0.20648111922685108 0.4633334512130029 0.440641222294339
vt 0.48828125 0.7477477477477478
vt 0.67578125 0.7477477477477478
vt 0.67578125 0.310718018018018
vt 0.48828125 0.310718018018018
vt 0.68359375 0.8603603603603603
vt 0.68359375 0.7384054054054054
vt 0.49609375 0.7384054054054054
vt 0.49609375 0.8603603603603603
vt 0.49609375 0.7384054054054054
vt 0.49609375 0.8603603603603603
vt 0.68359375 0.8603603603603603
vt 0.68359375 0.7384054054054054
vt 0.48828125 0.310718018018018
vt 0.67578125 0.310718018018018
vt 0.67578125 0.7477477477477478
vt 0.48828125 0.7477477477477478
vn 0.2978620347970204 -0.053572004898968587 0.9531045317895008
vn -0.3022340125162581 -0.04084333322085139 -0.9523583484223431
vn -0.3022340125162581 -0.04084333322085139 -0.9523583484223431
vn -0.2978620347970204 0.053572004898968587 -0.9531045317895008
usemtl m_6061bb4a-2653-7d73-028e-c25237d9445d
f 19/25/7 20/26/7 16/27/7 18/28/7
f 17/29/8 19/30/8 20/31/8 15/32/8
f 20/33/9 15/34/9 17/35/9 19/36/9
f 18/37/10 16/38/10 20/39/10 19/40/10
o bottom
v -0.3231686189078792 0.04173399453152471 0.8146621486383328
v 1.058168623593844 0.31024027843541857 1.3340962618633458
v -0.3231686189078792 0.04173399453152471 0.8146621486383328
v 1.058168623593844 0.31024027843541857 1.3340962618633458
v 1.4518755687058749 0.8683420458915467 -0.0013876423949188421
v 0.07053832620415168 0.5998357619876531 -0.5208217556199322
v 1.4518755687058749 0.8683420458915467 -0.0013876423949188421
v 0.07053832620415168 0.5998357619876531 -0.5208217556199322
vt 0.01953125 0.3063063063063063
vt 0.01953125 0.09009009009009006
vt 0.20703125 0.09009009009009006
vt 0.20703125 0.3063063063063063
vt 0.20703125 0.30563766891891897
vt 0.20703125 0.08942145270270274
vt 0.01953125 0.08942145270270274
vt 0.01953125 0.30563766891891897
vn -0.28821462978388307 0.9107815429414864 0.2956506523173337
vn 0.28821462978388307 -0.9107815429414864 -0.2956506523173337
usemtl m_6061bb4a-2653-7d73-028e-c25237d9445d
f 26/44/11 21/43/11 22/42/11 25/41/11
f 27/48/12 24/47/12 23/46/12 28/45/12
o east
v 0.05890076421134027 1.2781866444397028 -0.20279552007953527
v 0.47567802654520674 1.2876793567151026 1.2381092658154746
v -0.046462232774211576 -2.2845397812085344 -0.14884827868614336
v 0.3703150295596549 -2.2750470689331346 1.2920565072088666
v 0.4881804368305219 0.5351847447695459 1.2394504332039213
v 0.07140317449665545 0.5256920324941462 -0.20145435269108847
vt 0.765625 0.527027027027027
vt 0.765625 0.4185441441441441
vt 0.953125 0.4185441441441441
vt 0.953125 0.527027027027027
vt 0.95703125 0.48198198198198194
vt 0.76953125 0.48198198198198194
vt 0.76953125 0.07647657657657658
vt 0.95703125 0.07647657657657658
vt 0.953125 0.4185441441441441
vt 0.953125 0.527027027027027
vt 0.765625 0.527027027027027
vt 0.765625 0.4185441441441441
vt 0.95703125 0.07647657657657658
vt 0.76953125 0.07647657657657658
vt 0.76953125 0.48198198198198194
vt 0.95703125 0.48198198198198194
vn -0.9604803854916609 -0.015462682789947484 0.2779178557177064
vn 0.9597099305973865 -0.045442492408148925 -0.2772937593897403
vn -0.9604803854916609 -0.015462682789947484 0.2779178557177064
vn -0.9597099305973865 0.045442492408148925 0.2772937593897403
usemtl m_6061bb4a-2653-7d73-028e-c25237d9445d
f 29/49/13 34/50/13 33/51/13 30/52/13
f 34/53/14 33/54/14 32/55/14 31/56/14
f 33/57/15 30/58/15 29/59/15 34/60/15
f 31/61/16 32/62/16 33/63/16 34/64/16
o west
v 0.5976107910727841 0.9521617594237912 -0.325880244533145
v 1.3248606281770337 0.9863358692256965 0.9855845108648371
v 0.5223699616575234 -2.7578580537843322 -0.18748117231059358
v 1.2496197987617728 -2.7236839439824267 1.1239835830873885
v 0.540586786112745 0.31916642729344263 -0.27776400653070843
v 1.2678366232169944 0.353340537095348 1.0337007488672736
vt 0.4921875 0.8558558558558559
vt 0.4921875 0.7639810810810811
vt 0.6796875 0.7639810810810811
vt 0.6796875 0.8558558558558559
vt 0.67578125 0.7567567567567568
vt 0.48828125 0.7567567567567568
vt 0.48828125 0.3130234234234234
vt 0.67578125 0.3130234234234234
vt 0.6796875 0.7639810810810811
vt 0.6796875 0.8558558558558559
vt 0.4921875 0.8558558558558559
vt 0.4921875 0.7639810810810811
vt 0.67578125 0.7567567567567568
vt 0.67578125 0.3130234234234234
vt 0.48828125 0.3130234234234234
vt 0.48828125 0.7567567567567568
vn 0.8700186596567139 -0.11482207371926463 -0.47946159724835374
vn -0.874586602879189 0.019392936676094565 0.4844813598801471
vn 0.8700186596567139 -0.11482207371926463 -0.47946159724835374
vn 0.874586602879189 -0.019392936676094565 -0.4844813598801471
usemtl m_6061bb4a-2653-7d73-028e-c25237d9445d
f 36/65/17 40/66/17 39/67/17 35/68/17
f 40/69/18 39/70/18 37/71/18 38/72/18
f 39/73/19 35/74/19 36/75/19 40/76/19
f 40/77/20 38/78/20 37/79/20 39/80/20
o top
v 1.4301609352735225 0.896794045825245 -0.11853529636133342
v -0.04387599581169066 1.1128810615442801 -0.29323941032127343
v 1.4301609352735225 0.896794045825245 -0.11853529636133342
v -0.04387599581169066 1.1128810615442801 -0.29323941032127343
v -0.27468751391917745 0.6858874956525494 1.1260570836488846
v 1.1993494171660357 0.46980047993351426 1.3007611976088245
v -0.27468751391917745 0.6858874956525494 1.1260570836488846
v 1.1993494171660357 0.46980047993351426 1.3007611976088245
vt 0.01953125 0.5900900900900901
vt 0.01953125 0.37387387387387383
vt 0.20703125 0.37387387387387383
vt 0.20703125 0.5900900900900901
vt 0.20703125 0.5900900900900901
vt 0.20703125 0.37387387387387383
vt 0.01953125 0.37387387387387383
vt 0.01953125 0.5900900900900901
vn 0.10315289386968486 0.9477418533486627 0.30190207004515796
vn -0.10315289386968486 -0.9477418533486627 -0.30190207004515796
usemtl m_6061bb4a-2653-7d73-028e-c25237d9445d
f 46/84/21 41/83/21 42/82/21 45/81/21
f 47/88/22 44/87/22 43/86/22 48/85/22