# Made in Blockbench 4.8.1
mtllib repeater_delay1_n.mtl

o cube
v 1.5899960793772345 0.005300977701043661 1.6056249999999999
v 1.5899960793772345 0.005300977701043661 -0.5743749999999999
v -0.5900039206227643 0.005300977701043661 1.6056249999999999
v -0.5900039206227643 0.005300977701043661 -0.5743749999999999
v 1.5899960793772345 0.005300977701043661 0.515625
v -0.5900039206227643 0.005300977701043661 0.515625
v 0.4999960793772351 0.01531074332604366 0.515625
v 0.4999960793772351 0.005300977701043661 -0.5743749999999999
v 0.4999960793772351 0.005300977701043661 1.6056249999999999
vt 0.8333333333333334 0.8333333333333334
vt 0.5 0.8333333333333334
vt 0.5 0.5
vt 0.8333333333333334 0.5
vt 0.8333333333333334 0.5
vt 0.5 0.5
vt 0.5 0.16666666666666663
vt 0.8333333333333334 0.16666666666666663
vt 0.16666666666666666 0.5
vt 0.5 0.5
vt 0.5 0.8333333333333334
vt 0.16666666666666666 0.8333333333333334
vt 0.16666666666666666 0.16666666666666663
vt 0.5 0.16666666666666663
vt 0.5 0.5
vt 0.16666666666666666 0.5
vn 0 0.9999578364316902 -0.009182884016113125
vn 0.009182496865602928 0.9999156781962301 0.009182496865602923
vn -0.009182496865602928 0.9999156781962301 -0.009182496865602923
vn 0 0.9999578364316902 0.009182884016113125
usemtl m_71bda285-1666-d446-e61c-992c9890668a
f 2/1/1 8/2/1 7/3/1 5/4/1
f 5/5/2 7/6/2 9/7/2 1/8/2
f 6/9/3 7/10/3 8/11/3 4/12/3
f 3/13/4 9/14/4 7/15/4 6/16/4