# Made in Blockbench 4.8.1
mtllib repeater_delay1_n_2.mtl

o cube
v -0.6056249999999996 0.005300977701043661 1.5899960793772348
v 1.574375 0.005300977701043661 1.5899960793772343
v -0.6056250000000001 0.005300977701043661 -0.5900039206227641
v 1.5743749999999996 0.005300977701043661 -0.5900039206227645
v 0.4843750000000002 0.005300977701043661 1.5899960793772345
v 0.4843749999999998 0.005300977701043661 -0.5900039206227643
v 0.484375 0.01531074332604366 0.4999960793772351
v 1.5743749999999999 0.005300977701043661 0.4999960793772349
v -0.6056249999999999 0.005300977701043661 0.49999607937723534
vt 0.8333333333333334 0.8333333333333334
vt 0.5 0.8333333333333334
vt 0.5 0.5
vt 0.8333333333333334 0.5
vt 0.8333333333333334 0.5
vt 0.5 0.5
vt 0.5 0.16666666666666663
vt 0.8333333333333334 0.16666666666666663
vt 0.16666666666666666 0.5
vt 0.5 0.5
vt 0.5 0.8333333333333334
vt 0.16666666666666666 0.8333333333333334
vt 0.16666666666666666 0.16666666666666663
vt 0.5 0.16666666666666663
vt 0.5 0.5
vt 0.16666666666666666 0.5
vn 0.009182884016113125 0.9999578364316902 -2.0390098534302237e-18
vn -0.009182496865602921 0.9999156781962301 0.00918249686560293
vn 0.009182496865602921 0.9999156781962301 -0.00918249686560293
vn -0.009182884016113125 0.9999578364316902 2.0390098534302237e-18
usemtl m_71bda285-1666-d446-e61c-992c9890668a
f 2/1/1 8/2/1 7/3/1 5/4/1
f 5/5/2 7/6/2 9/7/2 1/8/2
f 6/9/3 7/10/3 8/11/3 4/12/3
f 3/13/4 9/14/4 7/15/4 6/16/4