# Made in Blockbench 4.8.1
mtllib spruce_branch_22.5_straight.mtl

o cube
v 0.78076171875 1.1875 0.78125
v 0.78076171875 1 0.21875
v 0.7802734375 -0.8125 1.78076171875
v 0.780517578125 -1 1.218994140625
v 0.2197265625 -0.8125 1.78076171875
v 0.219482421875 -1 1.781005859375
v 0.780517578125 -1 1.781005859375
v 0.21923828125 1.1875 0.78125
v 0.21923828125 1 0.21875
v 0.219482421875 -1 1.218994140625
vt 0.413940625 0.8541666666666666
vt 0.34375 0.8541666666666666
vt 0.34375 0.7553458333333334
vt 0.413940625 0.7553458333333334
vt 0.35940546875 0.40625
vt 0.359375 0.375
vt 0.4295046875 0.375
vt 0.42947421875 0.40625
vt 0.40345468749999996 0.28125
vt 0.333203125 0.28125
vt 0.33323359374999995 0.3125
vt 0.4218140625 0.28125
vt 0.35159296875 0.3125
vt 0.3515625 0.28125
vt 0.39044218750000004 0.25008125000000003
vt 0.39044218750000004 0.34375
vt 0.3203125 0.34375
vt 0.3203125 0.25008125000000003
vt 0.40933209198498954 0.8299967503730509
vt 0.3359375 0.84375
vt 0.33659946638557214 0.471054879043714
vt 0.40991220952345514 0.45735588590666054
vt 0.39825468750000004 0.3636083333333334
vt 0.39831562499999995 0.7362500000000001
vt 0.328125 0.7362500000000001
vt 0.3281859375 0.3636083333333334
vt 0.32812500000000006 0.04464999943510495
vt 0.3281250000000001 0.4172916666666667
vt 0.4014162590157385 0.4033898032849801
vt 0.4014980232216212 0.030693653156196543
vt 0.406128125 0.9375
vt 0.3359375 0.9375
vt 0.33596796875 0.5648041666666668
vt 0.40609765625 0.5648041666666668
vn 0 0.9486832980505139 -0.31622776601683794
vn 0 0.0013020822295450188 0.9999991522905745
vn -0.9999991522905745 0.0013020822295450188 0
vn 0.9999991522905745 0.0013020822295450188 0
vn 0 -1 0
vn -0.9999999939183177 -0.00010462804665556284 0.000034876015551854275
vn 0 0.4470388770994495 0.8945145288711993
vn 0.9999999019174043 -0.00002309722286667306 0.00044230272450195967
vn 0 -0.44730093550788724 -0.8943835156652703
usemtl m_76900f67-a15c-46a1-f269-309c3f9303ad
f 8/1/1 1/2/1 2/3/1 9/4/1
f 5/5/2 6/6/2 7/7/2 3/8/2
f 10/9/3 6/10/3 5/11/3
f 4/12/4 3/13/4 7/14/4
f 4/15/5 7/16/5 6/17/5 10/18/5
f 8/19/6 9/20/6 10/21/6 5/22/6
f 3/23/7 1/24/7 8/25/7 5/26/7
f 1/27/8 3/28/8 4/29/8 2/30/8
f 9/31/9 2/32/9 4/33/9 10/34/9